<svg width="80" height="80" viewBox="0 0 80 80" fill="none" xmlns="http://www.w3.org/2000/svg">
<mask id="path-1-inside-1_230_18643" fill="white">
<rect x="14.0249" y="52.743" width="31.467" height="16.4398" rx="0.25"/>
</mask>
<rect x="14.0249" y="52.743" width="31.467" height="16.4398" rx="0.25" fill="url(#paint0_linear_230_18643)" stroke="url(#paint1_linear_230_18643)" stroke-width="6" mask="url(#path-1-inside-1_230_18643)"/>
<path fill-rule="evenodd" clip-rule="evenodd" d="M29.8897 9.17749C23.4578 9.17749 18.0069 13.3322 16.1295 19.0768H43.6498C41.7725 13.3322 36.3215 9.17749 29.8897 9.17749ZM78.2073 13.1737C78.2073 17.0359 75.0531 20.1669 71.1623 20.1669C69.2556 20.1669 67.5258 19.415 66.2574 18.1936C66.2177 18.1555 66.1924 18.1049 66.1855 18.0503C66.1766 17.9802 66.1688 17.9097 66.162 17.8389C66.1552 17.9097 66.1474 17.9802 66.1385 18.0503C66.1316 18.1049 66.1062 18.1554 66.0666 18.1936C64.7982 19.415 63.0684 20.1669 61.1616 20.1669C57.2708 20.1669 54.1166 17.0359 54.1166 13.1737C54.1166 12.8754 54.1354 12.5816 54.1719 12.2931C54.1788 12.2386 54.2042 12.188 54.2438 12.1499C55.5122 10.9284 57.242 10.1765 59.1488 10.1765C62.8123 10.1765 65.8226 12.9522 66.162 16.5006C66.5013 12.9522 69.5117 10.1765 73.1752 10.1765C75.0819 10.1765 76.8117 10.9284 78.0801 12.1498C78.1197 12.188 78.1451 12.2385 78.152 12.2931C78.1885 12.5815 78.2073 12.8754 78.2073 13.1737ZM71.1623 32.1553C75.0531 32.1553 78.2073 29.0243 78.2073 25.1621C78.2073 24.8639 78.1885 24.57 78.152 24.2816C78.1451 24.227 78.1197 24.1765 78.0801 24.1383C76.8117 22.9169 75.0819 22.165 73.1752 22.165C69.5117 22.165 66.5013 24.9407 66.162 28.489C65.8226 24.9407 62.8123 22.165 59.1488 22.165C57.242 22.165 55.5122 22.9169 54.2438 24.1384C54.2042 24.1765 54.1788 24.2271 54.1719 24.2816C54.1354 24.57 54.1166 24.8639 54.1166 25.1621C54.1166 29.0243 57.2708 32.1553 61.1616 32.1553C63.0684 32.1553 64.7982 31.4034 66.0666 30.182C66.1062 30.1438 66.1316 30.0933 66.1385 30.0387C66.1474 29.9686 66.1552 29.8981 66.162 29.8274C66.1688 29.8982 66.1766 29.9686 66.1855 30.0387C66.1924 30.0933 66.2177 30.1439 66.2574 30.182C67.5257 31.4034 69.2556 32.1553 71.1623 32.1553ZM71.1623 44.1437C75.0531 44.1437 78.2073 41.0127 78.2073 37.1504C78.2073 36.8522 78.1885 36.5584 78.152 36.27C78.1451 36.2154 78.1197 36.1648 78.0801 36.1267C76.8117 34.9053 75.0819 34.1534 73.1752 34.1534C69.5117 34.1534 66.5013 36.9291 66.162 40.4774C65.8226 36.9291 62.8123 34.1534 59.1488 34.1534C57.242 34.1534 55.5122 34.9053 54.2438 36.1267C54.2042 36.1649 54.1788 36.2154 54.1719 36.27C54.1354 36.5584 54.1166 36.8522 54.1166 37.1504C54.1166 41.0127 57.2708 44.1437 61.1616 44.1437C63.0684 44.1437 64.7982 43.3918 66.0666 42.1703C66.1062 42.1322 66.1316 42.0816 66.1385 42.027C66.1474 41.9569 66.1552 41.8865 66.162 41.8158C66.1687 41.8865 66.1766 41.957 66.1855 42.0271C66.1924 42.0817 66.2177 42.1322 66.2574 42.1704C67.5257 43.3918 69.2556 44.1437 71.1623 44.1437Z" fill="url(#paint2_linear_230_18643)"/>
<path fill-rule="evenodd" clip-rule="evenodd" d="M29.8896 10.6775C24.8432 10.6775 20.4827 13.5231 18.3413 17.6678H41.438C39.2966 13.5231 34.9361 10.6775 29.8896 10.6775ZM9.44498 17.6678H15.0449C17.3854 11.8104 23.1581 7.67749 29.8896 7.67749C36.6212 7.67749 42.3938 11.8104 44.7344 17.6678H50.2055C51.034 17.6678 51.7055 18.3394 51.7055 19.1678C51.7055 19.9963 51.034 20.6678 50.2055 20.6678H45.5963C45.7618 21.5805 45.8482 22.5206 45.8482 23.481C45.8482 28.9062 43.0891 33.6841 38.8974 36.5278C48.6451 40.4367 55.6026 50.3857 56.075 62.072C56.0919 62.1623 56.1007 62.2554 56.1007 62.3506V63.3452V67.3607C56.1007 68.7415 54.9814 69.8607 53.6007 69.8607H5.91602C4.53531 69.8607 3.41602 68.7415 3.41602 67.3607V63.3452V62.3506C3.41602 62.2554 3.42483 62.1623 3.4417 62.072C3.91684 50.3197 10.9508 40.3237 20.7854 36.4618C16.6479 33.6106 13.9311 28.8645 13.9311 23.481C13.9311 22.5206 14.0175 21.5805 14.183 20.6678H9.44498C8.61656 20.6678 7.94498 19.9963 7.94498 19.1678C7.94498 18.3394 8.61656 17.6678 9.44498 17.6678ZM42.8482 23.481C42.8482 22.515 42.7397 21.5734 42.534 20.6678H17.2452C17.0396 21.5734 16.9311 22.515 16.9311 23.481C16.9311 28.6547 20.0389 33.124 24.5316 35.1427C25.3223 35.498 25.6141 36.2763 25.5669 36.8961C25.5196 37.5178 25.109 38.2505 24.261 38.4749C22.6 38.9145 21.0053 39.5505 19.4996 40.3601V52.7429H39.6476V40.1658C38.2975 39.472 36.8787 38.9165 35.407 38.5155C34.5605 38.2849 34.1553 37.5491 34.1125 36.927C34.0699 36.307 34.3675 35.5309 35.1608 35.1814C39.7001 33.1816 42.8482 28.6881 42.8482 23.481ZM42.6476 52.7429H45.2419C45.3799 52.7429 45.4919 52.8549 45.4919 52.9929V66.8607H53.1007V63.3452V62.5599C53.092 62.5023 53.0866 62.4437 53.0846 62.3843C52.7967 53.8362 48.6946 46.4148 42.6476 42.0151V52.7429ZM14.0249 66.8607V52.9929C14.0249 52.8549 14.1368 52.7429 14.2749 52.7429H16.4996V42.2896C10.6555 46.7196 6.71411 54.0112 6.43217 62.3843C6.43017 62.4437 6.42472 62.5023 6.41602 62.5599V63.3452V66.8607H14.0249ZM17.0249 66.1827V55.7429H42.4919V66.1827H17.0249ZM66.1938 15.8974C66.2114 15.8974 66.2289 15.8977 66.2463 15.8983C66.8486 12.6431 69.7217 10.1765 73.1752 10.1765C75.0819 10.1765 76.8117 10.9284 78.0801 12.1498C78.1197 12.1879 78.1451 12.2385 78.152 12.293C78.1885 12.5815 78.2073 12.8754 78.2073 13.1736C78.2073 17.0359 75.0531 20.1669 71.1623 20.1669C69.9013 20.1669 68.7177 19.838 67.6938 19.262V24.7646C68.9853 23.1789 70.961 22.165 73.1752 22.165C75.0819 22.165 76.8117 22.9169 78.0801 24.1383C78.1197 24.1764 78.1451 24.227 78.152 24.2815C78.1885 24.57 78.2073 24.8638 78.2073 25.1621C78.2073 29.0243 75.0531 32.1553 71.1623 32.1553C69.9013 32.1553 68.7177 31.8265 67.6938 31.2505V36.753C68.9853 35.1673 70.961 34.1534 73.1752 34.1534C75.0819 34.1534 76.8117 34.9053 78.0801 36.1267C78.1197 36.1648 78.1451 36.2154 78.152 36.2699C78.1885 36.5583 78.2073 36.8522 78.2073 37.1504C78.2073 41.0127 75.0531 44.1437 71.1623 44.1437C69.9013 44.1437 68.7177 43.8148 67.6938 43.2388V51.921C67.6938 52.7494 67.0222 53.421 66.1938 53.421C65.3654 53.421 64.6938 52.7494 64.6938 51.921V43.2025C63.6554 43.801 62.4488 44.1437 61.1616 44.1437C57.2708 44.1437 54.1166 41.0127 54.1166 37.1504C54.1166 36.8522 54.1354 36.5584 54.1719 36.27C54.1788 36.2154 54.2042 36.1649 54.2438 36.1267C55.5122 34.9053 57.242 34.1534 59.1488 34.1534C61.3997 34.1534 63.4041 35.2012 64.6938 36.8324V31.2142C63.6554 31.8126 62.4488 32.1553 61.1616 32.1553C57.2708 32.1553 54.1166 29.0243 54.1166 25.1621C54.1166 24.8638 54.1354 24.57 54.1719 24.2816C54.1788 24.227 54.2042 24.1765 54.2438 24.1383C55.5122 22.9169 57.242 22.165 59.1488 22.165C61.3997 22.165 63.4041 23.2128 64.6938 24.844V19.2258C63.6554 19.8242 62.4488 20.1669 61.1616 20.1669C57.2708 20.1669 54.1166 17.0359 54.1166 13.1736C54.1166 12.8754 54.1354 12.5815 54.1719 12.2931C54.1788 12.2385 54.2042 12.188 54.2438 12.1498C55.5122 10.9284 57.242 10.1765 59.1488 10.1765C62.6035 10.1765 65.4774 12.6448 66.0783 15.9018C66.1164 15.8989 66.1549 15.8974 66.1938 15.8974ZM75.1728 37.6728C74.5846 37.342 73.9043 37.1534 73.1752 37.1534C71.1028 37.1534 69.423 38.6811 69.1646 40.6242C69.7528 40.955 70.4332 41.1437 71.1623 41.1437C73.2346 41.1437 74.9144 39.616 75.1728 37.6728ZM73.1752 25.165C73.9043 25.165 74.5846 25.3536 75.1728 25.6844C74.9144 27.6276 73.2346 29.1553 71.1623 29.1553C70.4332 29.1553 69.7528 28.9667 69.1646 28.6359C69.423 26.6927 71.1028 25.165 73.1752 25.165ZM75.1728 13.6959C74.5846 13.3651 73.9043 13.1765 73.1752 13.1765C71.1027 13.1765 69.4229 14.7042 69.1646 16.6474C69.7528 16.9783 70.4332 17.1669 71.1623 17.1669C73.2347 17.1669 74.9145 15.6391 75.1728 13.6959ZM59.1488 37.1534C58.4197 37.1534 57.7393 37.342 57.1511 37.6728C57.4095 39.616 59.0893 41.1437 61.1616 41.1437C61.8908 41.1437 62.5711 40.955 63.1593 40.6242C62.9009 38.681 61.2212 37.1534 59.1488 37.1534ZM57.1511 25.6844C57.7393 25.3536 58.4197 25.165 59.1488 25.165C61.2212 25.165 62.901 26.6927 63.1593 28.6358C62.5711 28.9667 61.8908 29.1553 61.1616 29.1553C59.0892 29.1553 57.4095 27.6276 57.1511 25.6844ZM59.1488 13.1765C58.4197 13.1765 57.7393 13.3651 57.1511 13.6959C57.4094 15.6391 59.0892 17.1669 61.1616 17.1669C61.8908 17.1669 62.5711 16.9783 63.1593 16.6474C62.901 14.7042 61.2212 13.1765 59.1488 13.1765Z" fill="url(#paint3_linear_230_18643)"/>
<defs>
<linearGradient id="paint0_linear_230_18643" x1="30.7542" y1="52.054" x2="28.3062" y2="66.9537" gradientUnits="userSpaceOnUse">
<stop stop-color="#CBD7DA"/>
<stop offset="0.5" stop-color="#D6ECE5"/>
<stop offset="1" stop-color="#ECF3E9"/>
</linearGradient>
<linearGradient id="paint1_linear_230_18643" x1="39.4982" y1="52.743" x2="34.5677" y2="73.5472" gradientUnits="userSpaceOnUse">
<stop stop-color="#527984"/>
<stop offset="0.5" stop-color="#79C6AA"/>
<stop offset="1" stop-color="#C4DAB5"/>
</linearGradient>
<linearGradient id="paint2_linear_230_18643" x1="49.1329" y1="7.71184" x2="43.5433" y2="39.2679" gradientUnits="userSpaceOnUse">
<stop stop-color="#CBD7DA"/>
<stop offset="0.5" stop-color="#D6ECE5"/>
<stop offset="1" stop-color="#ECF3E9"/>
</linearGradient>
<linearGradient id="paint3_linear_230_18643" x1="63.9613" y1="7.67749" x2="36.5188" y2="80.4386" gradientUnits="userSpaceOnUse">
<stop stop-color="#527984"/>
<stop offset="0.5" stop-color="#79C6AA"/>
<stop offset="1" stop-color="#C4DAB5"/>
</linearGradient>
</defs>
</svg>
