<svg width="169" height="169" viewBox="0 0 169 169" fill="none" xmlns="http://www.w3.org/2000/svg">
<g clip-path="url(#clip0_6694_171086)">
<path d="M55.1391 99.4435C38.9465 106.808 26.2308 102.284 12.2263 120.046C0.800044 134.538 8.94878 157.78 21.4171 169H192.096V114.848C192.096 108.061 191.856 73.9592 166.648 48.3127C135.138 16.2546 108.79 24.1674 87.8798 38.8699C67.2765 53.3567 71.3318 92.0788 55.1391 99.4435Z" fill="white"/>
<g opacity="0.6">
<path d="M55.1391 99.4435C38.9465 106.808 26.2308 102.284 12.2263 120.046C0.800044 134.538 8.94878 157.78 21.4171 169H192.096V114.848C192.096 108.061 191.856 73.9592 166.648 48.3127C135.138 16.2546 108.79 24.1674 87.8798 38.8699C67.2765 53.3567 71.3318 92.0788 55.1391 99.4435Z" fill="url(#paint0_linear_6694_171086)"/>
<path opacity="0.8" d="M102.349 59.5062C92.1323 72.5309 85.8595 103.254 105.685 131.841C108.335 135.661 121.204 148.037 125.067 144.645C128.839 141.334 161.984 155.246 173.145 128.109C180.593 110 163.272 104.364 156.833 95.8841C148.462 84.8598 153.244 64.3547 133.927 52.8487C131.244 51.2506 126.996 51.4059 124.908 51.6045C124.095 51.6819 123.273 51.5649 122.491 51.3302C119.376 50.3958 110.576 49.018 102.349 59.5062Z" fill="url(#paint1_linear_6694_171086)"/>
<path d="M95.2621 169L106.244 148.188L103.355 115.483C99.7011 117.049 96.2928 121.241 92.2773 126.959C88.2619 132.676 82.8956 155.758 79.7676 169H95.2621Z" fill="url(#paint2_linear_6694_171086)"/>
<g opacity="0.3">
<path fill-rule="evenodd" clip-rule="evenodd" d="M104.258 127.94C102.913 127.779 101.667 127.591 100.546 127.37C97.9119 126.853 95.4551 126.146 93.1968 125.328C94.3047 123.795 95.3705 122.392 96.4136 121.146C98.0112 121.661 99.7129 122.111 101.51 122.464C102.216 122.603 102.985 122.729 103.807 122.842L104.258 127.94ZM104.858 134.729C102.708 134.51 100.808 134.25 99.2542 133.944C95.7896 133.264 92.5941 132.426 89.7771 131.524C89.2249 132.915 88.6615 134.503 88.0939 136.235C91.1449 137.219 94.5831 138.122 98.2902 138.851C100.235 139.233 102.626 139.545 105.306 139.796L104.858 134.729ZM106.014 147.798C102.279 147.49 99.0702 147.11 96.7566 146.655C92.6839 145.855 88.9832 144.838 85.832 143.754C85.39 145.33 84.9513 146.951 84.5192 148.589C87.8293 149.712 91.6424 150.746 95.7925 151.561C97.8973 151.975 100.621 152.325 103.729 152.616L106.051 148.22L106.014 147.798ZM99.9279 159.812C97.7162 159.533 95.8159 159.245 94.3394 158.955C89.8073 158.064 85.8835 156.935 82.6927 155.751C82.2821 157.409 81.8833 159.047 81.5 160.639C84.8594 161.85 88.8563 162.973 93.3754 163.861C94.5229 164.087 95.8924 164.309 97.4385 164.525L99.9279 159.812Z" fill="#B9E1C7"/>
</g>
<path d="M133.724 109.747C127.304 108.908 128.06 96.9485 128.145 94.0767C122.806 96.4152 112.896 95.2606 112.998 98.6084C113.099 101.956 113.433 108.055 111.314 110.968C112.998 113.281 113.836 116.61 119.811 116.61C126.675 116.61 137.204 110.202 133.724 109.747Z" fill="url(#paint3_linear_6694_171086)"/>
<path opacity="0.2" fill-rule="evenodd" clip-rule="evenodd" d="M130.262 108.079C127.709 104.511 127.953 97.5102 128.048 94.7903C128.054 94.6056 128.06 94.4406 128.064 94.2979C125.859 95.2804 122.871 95.6549 120.134 95.998C119.602 96.0647 119.079 96.1302 118.574 96.1988C117.659 98.6385 116.237 101.126 114.971 102.897C116.999 104.623 122.519 108.179 128.478 108.179C129.064 108.179 129.662 108.144 130.262 108.079Z" fill="url(#paint4_linear_6694_171086)"/>
<mask id="mask0_6694_171086" style="mask-type:alpha" maskUnits="userSpaceOnUse" x="89" y="49" width="87" height="97">
<path d="M100.368 57.4784C90.3988 70.2579 82.5518 93.7695 100.795 121.638C101.516 122.739 102.794 123.451 103.859 124.221C109.823 128.534 122.065 148.079 125.493 145.053C129.25 141.736 162.268 155.671 173.386 128.489C180.805 110.349 163.551 104.704 157.137 96.2094C148.798 85.1665 153.561 64.6268 134.318 53.1014C131.71 51.5392 127.617 51.6496 125.488 51.8408C124.584 51.922 123.668 51.7632 122.829 51.4146C119.23 49.9193 108.675 46.8292 100.368 57.4784Z" fill="url(#paint5_linear_6694_171086)"/>
</mask>
<g mask="url(#mask0_6694_171086)">
<path d="M134.912 77.136C135.387 71.5316 134.197 60.1082 127.499 53.4035C121.675 47.6337 105.638 43.928 98.3896 55.9569" stroke="url(#paint6_linear_6694_171086)" stroke-width="3"/>
</g>
<path fill-rule="evenodd" clip-rule="evenodd" d="M115.45 65.0839C115.923 66.8261 116.652 68.6193 117.728 69.8317C119.861 72.2364 121.333 73.4653 121.801 73.7792C118.843 73.0188 114.922 68.4822 114.03 65.9325C113.81 65.3038 113.623 64.7288 113.466 64.2114C111.931 66.068 109.039 69.0951 107.808 70.0793C107.612 70.2356 107.406 70.3935 107.192 70.5552C107.154 70.7206 107.129 70.8376 107.117 70.8948C107.117 70.6655 104.151 80.2878 103.809 85.4428C103.239 93.6909 105.569 100.96 110.57 102.49C114.254 103.619 130.842 106.405 134.492 85.4428C134.492 85.4428 132.96 83.8921 137.295 83.4335C136.791 82.7577 136.665 82.1992 136.564 81.7519C136.391 80.9862 136.292 80.5464 134.492 80.4016C132.896 80.2878 131.641 79.7154 130.614 78.7982C129.411 77.7916 128.511 76.3917 127.841 74.8866C126.443 74.6507 125.136 74.3534 124.075 74.0106C121.293 73.1117 117.374 68.1994 115.45 65.0839Z" fill="url(#paint7_linear_6694_171086)"/>
<path d="M120.177 82.8749C120.491 82.6928 120.01 81.5414 119.667 81.0828C119.325 80.6242 118.392 80.4421 117.647 80.5283C116.597 80.6486 115.361 81.7382 115.512 82.1073C115.646 82.4358 116.988 81.5967 118.2 81.8097C119.408 82.0228 119.861 83.0587 120.175 82.8765L120.177 82.8749Z" fill="#545555"/>
<path d="M110.693 80.6647C110.87 80.4647 110.083 78.6205 108.441 78.684C107.087 78.736 105.897 80.5704 106.067 80.6143C106.237 80.6582 107.486 79.7654 108.426 79.8467C109.693 79.954 110.517 80.8663 110.693 80.6663V80.6647Z" fill="#545555"/>
<path d="M107.074 92.6515C107.016 92.9719 108.407 94.5134 110.502 94.5134C112.597 94.5134 115.641 93.3631 115.2 93.131C111.835 91.354 107.201 91.9463 107.074 92.6515Z" fill="#D2D5D9"/>
<ellipse cx="134.411" cy="82.2467" rx="7.32334" ry="7.32333" fill="url(#paint8_linear_6694_171086)"/>
<path d="M134.411 83.9366V83.9366C133.604 89.7685 129.399 94.5581 123.721 96.1125L114.694 98.5833" stroke="url(#paint9_linear_6694_171086)" stroke-width="3"/>
<ellipse cx="114.976" cy="98.02" rx="1.97166" ry="1.69" fill="url(#paint10_linear_6694_171086)"/>
<path fill-rule="evenodd" clip-rule="evenodd" d="M133.631 110.328C140.45 111.109 145.629 112.898 153.8 122.09C161.971 131.283 166.822 169.073 166.822 169.073C161.921 169.066 157.085 169.093 152.285 169.14L148.121 150.867L149.238 169.173C143.413 169.24 137.634 169.334 131.852 169.427C121.109 169.6 110.355 169.773 99.273 169.782C99.273 167.935 99.5878 166.286 99.9252 164.519C100.315 162.474 100.736 160.271 100.734 157.421C100.732 155.021 99.8246 152.904 98.87 150.676C97.7118 147.972 96.4837 145.106 96.7173 141.372C97.0948 135.339 99.1569 127.235 101.776 116.94C101.849 116.654 101.922 116.365 101.996 116.075C101.996 116.075 104.178 114.343 106.562 113.153C108.945 111.964 111.413 111.111 111.413 111.111C112.299 112.882 114.03 116.075 120.428 116.075C129.905 116.075 133.631 110.967 133.631 110.328Z" fill="url(#paint11_linear_6694_171086)"/>
<path opacity="0.3" fill-rule="evenodd" clip-rule="evenodd" d="M110.626 111.398C110.75 111.58 110.879 111.761 111.012 111.941C112.836 114.412 115.38 116.526 120.095 116.526C126.362 116.526 130.972 114.242 135.08 110.515C137.051 110.801 138.905 111.218 140.767 111.935C135.567 117.421 129.296 121.526 120.095 121.526C113.396 121.526 109.493 118.301 106.989 114.911C106.631 114.426 106.299 113.934 105.991 113.45C106.179 113.348 106.37 113.249 106.562 113.153C108.117 112.377 109.708 111.745 110.626 111.398ZM99.4017 126.438C99.7795 124.865 100.187 123.224 100.617 121.514C104.596 123.297 110.868 125.226 118.412 125.226C123.835 125.226 132.559 123.816 141.439 121.987C144.911 121.271 148.372 120.499 151.618 119.737C152.322 120.462 153.049 121.245 153.8 122.09C154.286 122.637 154.76 123.285 155.222 124.02C151.253 124.975 146.861 125.974 142.448 126.884C133.584 128.71 124.404 130.226 118.412 130.226C110.628 130.226 104.001 128.381 99.4017 126.438ZM96.9395 138.982C97.1267 137.419 97.4015 135.737 97.7487 133.936C99.0997 134.505 101.177 135.131 103.956 135.664C107.868 136.415 112.85 136.925 118.413 136.925C123.868 136.925 133.247 135.609 142.756 133.884C148.258 132.886 153.722 131.766 158.373 130.721C158.931 132.219 159.465 133.819 159.974 135.486C155.128 136.583 149.398 137.76 143.649 138.803C134.155 140.526 124.371 141.925 118.413 141.925C112.561 141.925 107.262 141.39 103.013 140.575C100.745 140.139 98.67 139.605 96.9395 138.982ZM99.7442 152.794C99.4765 152.09 99.1758 151.389 98.8703 150.675C98.3304 149.415 97.7754 148.12 97.3603 146.718C98.6857 147.331 100.896 148.03 103.956 148.618C107.868 149.369 112.85 149.878 118.413 149.878C123.883 149.878 134.007 148.557 144.256 146.832C150.647 145.755 156.98 144.54 162.116 143.431C162.507 145.059 162.876 146.694 163.222 148.307C158.812 149.261 153.576 150.282 148.203 151.226L148.121 150.867L148.143 151.236C147.128 151.415 146.107 151.59 145.086 151.762C134.864 153.483 124.356 154.878 118.413 154.878C112.561 154.878 107.262 154.344 103.013 153.528C101.868 153.308 100.772 153.063 99.7442 152.794ZM99.8002 165.178C99.8412 164.96 99.8831 164.74 99.9254 164.519L99.9254 164.519C100.179 163.189 100.446 161.793 100.6 160.195C101.655 160.529 102.921 160.859 104.399 161.158C108.088 161.904 112.851 162.414 118.412 162.414C123.931 162.414 135.038 161.288 146.223 159.773C147.032 159.663 147.84 159.552 148.644 159.439L148.949 164.445C148.265 164.541 147.58 164.635 146.895 164.728C135.721 166.242 124.308 167.414 118.412 167.414C112.56 167.414 107.461 166.879 103.407 166.059C102.122 165.798 100.912 165.504 99.8002 165.178ZM165.736 161.774C161.414 162.571 156.351 163.384 151.144 164.134L150.029 159.242C155.397 158.474 160.562 157.644 164.895 156.845C165.214 158.623 165.495 160.284 165.736 161.774Z" fill="#B9E1C7"/>
<path fill-rule="evenodd" clip-rule="evenodd" d="M35.0045 130.651C32.3372 130.651 30.4171 133.212 31.1649 135.772L40.9528 169.283H42.0993C42.1019 169.283 42.1046 169.283 42.1072 169.283H112.257C112.809 169.283 113.257 168.836 113.257 168.283V163.259C113.257 162.707 112.809 162.259 112.257 162.259H91.8482L83.4568 133.529C82.9585 131.823 81.3944 130.651 79.6172 130.651H35.0045Z" fill="url(#paint12_linear_6694_171086)"/>
<path opacity="0.2" d="M31.1648 135.772C30.417 133.212 32.3371 130.651 35.0044 130.651H36.6165L52.9532 169.283H40.9527L31.1648 135.772Z" fill="url(#paint13_linear_6694_171086)"/>
<path opacity="0.2" d="M91.8232 162.24H108.723L96.8932 169H94.0766L91.8232 162.24Z" fill="url(#paint14_linear_6694_171086)"/>
<ellipse cx="3.45192" cy="4.52906" rx="3.45192" ry="4.52906" transform="matrix(0.798446 -0.602066 0.602914 0.797806 55.1182 148.004)" fill="url(#paint15_linear_6694_171086)"/>
<ellipse cx="136.664" cy="82.5283" rx="5.07" ry="5.35167" fill="url(#paint16_linear_6694_171086)"/>
</g>
<path d="M80.5144 100.696C80.8281 99.8061 82.087 99.8061 82.4007 100.696L82.8263 101.904C82.9233 102.179 83.1355 102.398 83.4073 102.504L84.6918 103.003C85.5423 103.333 85.5423 104.537 84.6918 104.867L83.4073 105.366C83.1355 105.472 82.9233 105.691 82.8263 105.966L82.4007 107.174C82.087 108.064 80.8281 108.064 80.5144 107.174L80.0888 105.966C79.9918 105.691 79.7796 105.472 79.5078 105.366L78.2233 104.867C77.3728 104.537 77.3728 103.333 78.2233 103.003L79.5078 102.504C79.7796 102.398 79.9918 102.179 80.0888 101.904L80.5144 100.696Z" fill="url(#paint17_linear_6694_171086)"/>
<path d="M69.2591 113.932C69.59 113.083 70.7919 113.083 71.1228 113.932L71.5457 115.018C71.6516 115.29 71.8708 115.502 72.1459 115.599L73.1406 115.948C74.0317 116.262 74.0317 117.522 73.1406 117.835L72.1459 118.185C71.8708 118.281 71.6516 118.493 71.5457 118.765L71.1228 119.851C70.7919 120.701 69.59 120.701 69.2591 119.851L68.8362 118.765C68.7303 118.493 68.5111 118.281 68.236 118.185L67.2413 117.835C66.3502 117.522 66.3502 116.262 67.2413 115.948L68.236 115.599C68.5111 115.502 68.7303 115.29 68.8362 115.018L69.2591 113.932Z" fill="url(#paint18_linear_6694_171086)"/>
</g>
<defs>
<linearGradient id="paint0_linear_6694_171086" x1="156.794" y1="26.0514" x2="97.2373" y2="196.272" gradientUnits="userSpaceOnUse">
<stop stop-color="#EEF1F3"/>
<stop offset="0.5" stop-color="#F1F9F6"/>
<stop offset="1" stop-color="#F9FBF8"/>
</linearGradient>
<linearGradient id="paint1_linear_6694_171086" x1="159.305" y1="50.7" x2="107.417" y2="150.106" gradientUnits="userSpaceOnUse">
<stop stop-color="#527984"/>
<stop offset="0.5" stop-color="#79C6AA"/>
<stop offset="1" stop-color="#C4DAB5"/>
</linearGradient>
<linearGradient id="paint2_linear_6694_171086" x1="103.444" y1="101.467" x2="56.5235" y2="133.51" gradientUnits="userSpaceOnUse">
<stop stop-color="#515D89"/>
<stop offset="0.52118" stop-color="#7DC9BF"/>
<stop offset="1" stop-color="#FAEBD1"/>
</linearGradient>
<linearGradient id="paint3_linear_6694_171086" x1="123.594" y1="93.1322" x2="117.712" y2="112.302" gradientUnits="userSpaceOnUse">
<stop stop-color="#CBD7DA"/>
<stop offset="0.5" stop-color="#D6ECE5"/>
<stop offset="1" stop-color="#ECF3E9"/>
</linearGradient>
<linearGradient id="paint4_linear_6694_171086" x1="122.616" y1="94.2979" x2="117.45" y2="108.524" gradientUnits="userSpaceOnUse">
<stop offset="0.00458717" stop-color="#4FB573"/>
<stop offset="1" stop-color="#B9E1C7"/>
</linearGradient>
<linearGradient id="paint5_linear_6694_171086" x1="158.942" y1="49.8201" x2="107.07" y2="151.596" gradientUnits="userSpaceOnUse">
<stop offset="0.0242697" stop-color="#527984"/>
<stop offset="0.5" stop-color="#79C6AA"/>
<stop offset="1" stop-color="#C4DAB5"/>
</linearGradient>
<linearGradient id="paint6_linear_6694_171086" x1="125.851" y1="53.462" x2="106.197" y2="81.6262" gradientUnits="userSpaceOnUse">
<stop stop-color="#515D89"/>
<stop offset="0.52118" stop-color="#7DC9BF"/>
<stop offset="1" stop-color="#FAEBD1"/>
</linearGradient>
<linearGradient id="paint7_linear_6694_171086" x1="121.572" y1="62.5742" x2="109.84" y2="94.6378" gradientUnits="userSpaceOnUse">
<stop stop-color="#CBD7DA"/>
<stop offset="0.5" stop-color="#D6ECE5"/>
<stop offset="1" stop-color="#ECF3E9"/>
</linearGradient>
<linearGradient id="paint8_linear_6694_171086" x1="138.073" y1="77.6696" x2="127.637" y2="89.57" gradientUnits="userSpaceOnUse">
<stop stop-color="#515D89"/>
<stop offset="0.52118" stop-color="#7DC9BF"/>
<stop offset="1" stop-color="#FAEBD1"/>
</linearGradient>
<linearGradient id="paint9_linear_6694_171086" x1="130.655" y1="83.9366" x2="124.731" y2="101.516" gradientUnits="userSpaceOnUse">
<stop stop-color="#527984"/>
<stop offset="0.5" stop-color="#79C6AA"/>
<stop offset="1" stop-color="#C4DAB5"/>
</linearGradient>
<linearGradient id="paint10_linear_6694_171086" x1="115.961" y1="96.9637" x2="113.628" y2="100.068" gradientUnits="userSpaceOnUse">
<stop stop-color="#515D89"/>
<stop offset="0.52118" stop-color="#7DC9BF"/>
<stop offset="1" stop-color="#FAEBD1"/>
</linearGradient>
<linearGradient id="paint11_linear_6694_171086" x1="149.289" y1="121.476" x2="108.374" y2="176.514" gradientUnits="userSpaceOnUse">
<stop stop-color="#515D89"/>
<stop offset="0.52118" stop-color="#7DC9BF"/>
<stop offset="1" stop-color="#FAEBD1"/>
</linearGradient>
<linearGradient id="paint12_linear_6694_171086" x1="74.7324" y1="129.031" x2="69.5346" y2="164.223" gradientUnits="userSpaceOnUse">
<stop stop-color="#CBD7DA"/>
<stop offset="0.5" stop-color="#D6ECE5"/>
<stop offset="1" stop-color="#ECF3E9"/>
</linearGradient>
<linearGradient id="paint13_linear_6694_171086" x1="48.5181" y1="130.651" x2="23.7091" y2="163.613" gradientUnits="userSpaceOnUse">
<stop stop-color="#527984"/>
<stop offset="0.5" stop-color="#79C6AA"/>
<stop offset="1" stop-color="#C4DAB5"/>
</linearGradient>
<linearGradient id="paint14_linear_6694_171086" x1="105.504" y1="162.24" x2="103.917" y2="170.987" gradientUnits="userSpaceOnUse">
<stop stop-color="#527984"/>
<stop offset="0.5" stop-color="#79C6AA"/>
<stop offset="1" stop-color="#C4DAB5"/>
</linearGradient>
<linearGradient id="paint15_linear_6694_171086" x1="5.17787" y1="1.6984" x2="-1.26827" y2="7.30102" gradientUnits="userSpaceOnUse">
<stop stop-color="#515D89"/>
<stop offset="0.52118" stop-color="#7DC9BF"/>
<stop offset="1" stop-color="#FAEBD1"/>
</linearGradient>
<linearGradient id="paint16_linear_6694_171086" x1="139.199" y1="79.1835" x2="131.53" y2="87.4687" gradientUnits="userSpaceOnUse">
<stop stop-color="#515D89"/>
<stop offset="0.52118" stop-color="#7DC9BF"/>
<stop offset="1" stop-color="#FAEBD1"/>
</linearGradient>
<linearGradient id="paint17_linear_6694_171086" x1="78.4084" y1="97.8728" x2="88.0189" y2="104.198" gradientUnits="userSpaceOnUse">
<stop offset="0.447472" stop-color="#FFECBC"/>
<stop offset="1" stop-color="#ECD59F"/>
</linearGradient>
<linearGradient id="paint18_linear_6694_171086" x1="67.1418" y1="111.407" x2="76.1491" y2="117.959" gradientUnits="userSpaceOnUse">
<stop offset="0.447472" stop-color="#FFECBC"/>
<stop offset="1" stop-color="#ECD59F"/>
</linearGradient>
<clipPath id="clip0_6694_171086">
<path d="M0 0H169V165C169 167.209 167.209 169 165 169H0V0Z" fill="white"/>
</clipPath>
</defs>
</svg>
