<svg width="56" height="56" viewBox="0 0 56 56" fill="none" xmlns="http://www.w3.org/2000/svg">
<circle cx="28" cy="28" r="28" fill="#D8E4F5"/>
<path fill-rule="evenodd" clip-rule="evenodd" d="M26.4997 22.0283C26.2652 21.9527 26.2393 21.589 26.457 21.4737C28.5506 20.3651 29.9777 18.1584 29.9777 15.6171C29.9777 11.9626 27.0264 9 23.3859 9C19.7454 9 16.7942 11.9626 16.7942 15.6171C16.7942 18.141 18.2018 20.3348 20.2719 21.4507C20.4887 21.5676 20.4601 21.9312 20.2251 22.005C15.6072 23.456 12.1911 28.067 12.0078 33.5912C12.0077 33.5933 12.006 33.5949 12.0039 33.5949C12.0017 33.5949 12 33.5967 12 33.5988V34.0592V37.2355C12 37.7878 12.4477 38.2355 13 38.2355H33.6517C34.2039 38.2355 34.6517 37.7878 34.6517 37.2355V34.0592V33.5988C34.6517 33.5967 34.6499 33.5949 34.6478 33.5949C34.6457 33.5949 34.644 33.5933 34.6439 33.5912C34.4615 28.0962 31.0805 23.5048 26.4997 22.0283Z" fill="white"/>
<path d="M34.6439 33.5912L35.6433 33.558L34.6439 33.5912ZM12.0078 33.5912L11.0083 33.558L12.0078 33.5912ZM20.2719 21.4507L20.7464 20.5705L20.2719 21.4507ZM20.2251 22.005L20.5248 22.959L20.2251 22.005ZM26.457 21.4737L26.925 22.3574L26.457 21.4737ZM26.4997 22.0283L26.1929 22.9801L26.4997 22.0283ZM28.9777 15.6171C28.9777 17.7749 27.767 19.6485 25.989 20.5899L26.925 22.3574C29.3341 21.0817 30.9777 18.5419 30.9777 15.6171H28.9777ZM23.3859 10C26.4705 10 28.9777 12.5112 28.9777 15.6171H30.9777C30.9777 11.4139 27.5823 8 23.3859 8V10ZM17.7942 15.6171C17.7942 12.5112 20.3013 10 23.3859 10V8C19.1895 8 15.7942 11.4139 15.7942 15.6171H17.7942ZM20.7464 20.5705C18.9883 19.6228 17.7942 17.7602 17.7942 15.6171H15.7942C15.7942 18.5218 17.4153 21.0469 19.7974 22.331L20.7464 20.5705ZM13.0072 33.6243C13.178 28.4797 16.3532 24.2698 20.5248 22.959L19.9253 21.051C14.8612 22.6422 11.2043 27.6542 11.0083 33.558L13.0072 33.6243ZM13 34.0592V33.5988H11V34.0592H13ZM13 37.2355V34.0592H11V37.2355H13ZM13 37.2355L13 37.2355H11C11 38.3401 11.8954 39.2355 13 39.2355V37.2355ZM33.6517 37.2355H13V39.2355H33.6517V37.2355ZM33.6517 37.2355V39.2355C34.7562 39.2355 35.6517 38.3401 35.6517 37.2355H33.6517ZM33.6517 34.0592V37.2355H35.6517V34.0592H33.6517ZM33.6517 33.5988V34.0592H35.6517V33.5988H33.6517ZM26.1929 22.9801C30.332 24.3142 33.4746 28.5072 33.6444 33.6243L35.6433 33.558C35.4484 27.6851 31.829 22.6954 26.8065 21.0765L26.1929 22.9801ZM34.6478 32.5949C35.191 32.5949 35.6257 33.027 35.6433 33.558L33.6444 33.6243C33.6622 34.1596 34.1004 34.5949 34.6478 34.5949V32.5949ZM35.6517 33.5988C35.6517 33.0444 35.2022 32.5949 34.6478 32.5949V34.5949C34.0976 34.5949 33.6517 34.149 33.6517 33.5988H35.6517ZM11.0083 33.558C11.0259 33.0271 11.4605 32.5949 12.0039 32.5949V34.5949C12.5514 34.5949 12.9894 34.1594 13.0072 33.6243L11.0083 33.558ZM19.7974 22.331C19.4756 22.1575 19.4064 21.8434 19.4213 21.6621C19.4363 21.4793 19.561 21.1655 19.9253 21.051L20.5248 22.959C21.1242 22.7707 21.3807 22.2382 21.4146 21.826C21.4483 21.4152 21.2851 20.8609 20.7464 20.5705L19.7974 22.331ZM12.0039 32.5949C11.4494 32.5949 11 33.0444 11 33.5988H13C13 34.149 12.554 34.5949 12.0039 34.5949V32.5949ZM25.989 20.5899C25.4483 20.8763 25.2809 21.4294 25.3116 21.8404C25.3424 22.2528 25.5949 22.7873 26.1929 22.9801L26.8065 21.0765C27.17 21.1937 27.2923 21.5085 27.306 21.6914C27.3196 21.8728 27.248 22.1864 26.925 22.3574L25.989 20.5899Z" fill="#3D7ACF"/>
<circle cx="34.5" cy="36.5" r="11.5" fill="white" stroke="#3D7ACF" stroke-width="2"/>
<circle cx="34.1987" cy="36.4219" r="7.92188" stroke="#3D7ACF" stroke-linecap="round" stroke-dasharray="0.1 2"/>
</svg>
