<svg width="57" height="72" viewBox="0 0 57 72" fill="none" xmlns="http://www.w3.org/2000/svg">
<path d="M31.4234 23.4412C47.8654 27.2361 47.9586 9.85808 47.9586 9.85808C37.2444 6.95702 29.5313 13.3031 31.4234 23.4412Z" fill="#7BC796" stroke="#4FB573" stroke-width="2" stroke-linecap="round" stroke-linejoin="round"/>
<path d="M47.556 9.89338C42.204 12.4351 31.1863 19.456 29.9313 27.2055" stroke="#4FB573" stroke-width="2" stroke-linecap="round" stroke-linejoin="round"/>
<path d="M45.252 18.589L37.3573 16.6643" stroke="#4FB573" stroke-linecap="round" stroke-linejoin="round"/>
<path d="M47.0566 14.8828L41.471 13.6434" stroke="#4FB573" stroke-linecap="round" stroke-linejoin="round"/>
<path d="M42.4248 21.8112L34.5302 19.8864" stroke="#4FB573" stroke-linecap="round" stroke-linejoin="round"/>
<path d="M28.4247 35.2541C14.0617 44.0994 8.40783 27.6632 8.40783 27.6632C17.6301 21.4936 26.9705 25.0439 28.4247 35.2541Z" fill="#7BC796" stroke="#4FB573" stroke-width="2" stroke-linecap="round" stroke-linejoin="round"/>
<path d="M8.80097 27.5679C14.6858 28.2674 27.3733 31.4021 31.0444 38.3442" stroke="#4FB573" stroke-width="2" stroke-linecap="round" stroke-linejoin="round"/>
<path d="M13.7695 35.0706L20.6323 30.728" stroke="#4FB573" stroke-linecap="round" stroke-linejoin="round"/>
<path d="M10.873 32.135L15.7678 29.1784" stroke="#4FB573" stroke-linecap="round" stroke-linejoin="round"/>
<path d="M17.4805 37.2206L24.3433 32.878" stroke="#4FB573" stroke-linecap="round" stroke-linejoin="round"/>
<path d="M19.4111 13.7018C26.7291 17.476 32.4009 25.5321 30.7918 44.3072" stroke="#4FB573" stroke-width="2" stroke-linecap="round" stroke-linejoin="round"/>
<path fill-rule="evenodd" clip-rule="evenodd" d="M25.5762 45.8755L39.4397 62.9983C37.137 64.8569 38.5174 63.7426 36.2148 65.6012C32.9187 68.2615 27.1434 66.585 23.3151 61.8567C19.4868 57.1283 19.0553 51.1387 22.3513 48.4784C24.6516 46.6217 23.2739 47.7337 25.5762 45.8755Z" fill="#FFE7AD" stroke="#FFC432" stroke-width="2" stroke-linecap="round" stroke-linejoin="round"/>
<ellipse rx="11.0241" ry="7.62306" transform="matrix(0.629375 0.777341 -0.778012 0.627954 32.7047 54.2776)" fill="#FFF3D6" stroke="#FFC432" stroke-width="2" stroke-linecap="round" stroke-linejoin="round"/>
</svg>
