<svg width="24" height="24" viewBox="0 0 24 24" fill="none" xmlns="http://www.w3.org/2000/svg">
<path fill-rule="evenodd" clip-rule="evenodd" d="M19 8V17H16.75H9.25C9.11193 17 9 16.8881 9 16.75V5.25V3H12H14V7.25C14 7.66421 14.3358 8 14.75 8H19ZM15 3.41433L18.2869 7H15V3.41433ZM3.25 5H7V1.25C7 1.11193 7.11193 1 7.25 1H12H15.39C15.4601 1 15.527 1.02941 15.5743 1.08107L20.9343 6.92831C20.9766 6.97442 21 7.0347 21 7.09725V18.75C21 18.8881 20.8881 19 20.75 19H17V22.75C17 22.8881 16.8881 23 16.75 23H3.25C3.11193 23 3 22.8881 3 22.75V5.25C3 5.11193 3.11193 5 3.25 5ZM7 16.75V7H5V21H15V19H9.25H7.25C7.11193 19 7 18.8881 7 18.75V16.75Z" fill="black"/>
</svg>
