<?xml version="1.0" encoding="utf-8"?>
<!-- Generator: Adobe Illustrator 25.3.1, SVG Export Plug-In . SVG Version: 6.00 Build 0)  -->
<svg version="1.1" id="Layer_1" xmlns="http://www.w3.org/2000/svg" xmlns:xlink="http://www.w3.org/1999/xlink" x="0px" y="0px"
	 viewBox="0 0 83 62" style="enable-background:new 0 0 83 62;" xml:space="preserve">
<style type="text/css">
	.st0{fill-rule:evenodd;clip-rule:evenodd;fill:#DCF0E3;}
	.st1{fill:#4FB573;}
	.st2{fill:#FFC432;}
</style>
<path class="st0" d="M29.1,32.7c-0.2-0.1-0.3-0.4,0-0.5c4.4-2,7.4-6.4,7.4-11.5c0-7-5.7-12.6-12.6-12.6s-12.6,5.7-12.6,12.6
	c0,5.1,3,9.5,7.3,11.5c0.2,0.1,0.2,0.5,0,0.5C9.3,35.1,2.4,44.1,2,55c0,0,0,0,0,0c0,0,0,0,0,0v0.9v0v0v3.4c0,0.6,0.4,1,1,1h41.4
	c0.6,0,1-0.4,1-1v-3.4V55c0,0,0,0,0,0c0,0,0,0,0,0C45,44.2,38.2,35.2,29.1,32.7z"/>
<path class="st1" d="M46.9,54.7c-0.4-10.2-6.4-19-14.8-22.5c3.6-2.6,5.9-6.8,5.9-11.5c0-7.8-6.3-14.1-14.1-14.1
	C16,6.5,9.7,12.8,9.7,20.6c0,4.7,2.3,8.9,5.8,11.4C7,35.6,1,44.4,0.5,54.7c0,0.1,0,0.2,0,0.3v0.9v0v0v0l1.4,0H2l-1.5,0v0v0v3.4
	c0,1.4,1.1,2.5,2.5,2.5h41.4c1.4,0,2.5-1.1,2.5-2.5v-3.4V55C46.9,54.9,46.9,54.8,46.9,54.7z M43.9,55.8v2.9H3.5v-2.9v0v0v0v0v0v-0.7
	c0,0,0-0.1,0-0.1c0.3-10.2,6.8-18.6,15.4-20.9c0.8-0.2,1.2-1,1.3-1.6c0-0.6-0.2-1.4-1-1.8c-3.8-1.8-6.5-5.6-6.5-10.1
	c0-6.1,5-11.1,11.1-11.1c6.1,0,11.1,5,11.1,11.1c0,4.5-2.7,8.4-6.5,10.1c-0.8,0.4-1.1,1.1-1,1.7c0,0.6,0.4,1.3,1.3,1.6
	c8.4,2.4,14.9,10.7,15.2,20.9c0,0,0,0.1,0,0.1V55.8z"/>
<g>
	<path class="st2" d="M82.4,28.3l-1.8-1.8c0,0,0,0,0,0l-7.3-7.3c-0.1-0.1-0.3-0.1-0.4,0l-1.8,1.8c-0.1,0.1-0.1,0.3,0,0.4l5.7,5.7
		H58.2c-0.1,0-0.2,0.1-0.2,0.2v2.5c0,0.1,0.1,0.2,0.2,0.2h18.5l-5.6,5.6c-0.1,0.1-0.1,0.3,0,0.4l1.8,1.8c0.1,0.1,0.3,0.1,0.4,0
		l7.3-7.3c0,0,0,0,0,0l1.8-1.8c0.1-0.1,0.1-0.1,0.1-0.2C82.5,28.4,82.5,28.3,82.4,28.3z"/>
	<path class="st2" d="M72.6,48.5C72.6,48.5,72.6,48.5,72.6,48.5l-7.3-7.3c-0.1-0.1-0.3-0.1-0.4,0l-1.8,1.8c-0.1,0.1-0.1,0.3,0,0.4
		l6.2,6.2H60c-1.9,0-3.5-1.6-3.5-3.5V36c0-3.6-2.9-6.5-6.5-6.5h-1.2H48h-0.8c-0.1,0-0.2,0.1-0.2,0.2v2.5c0,0.1,0.1,0.2,0.2,0.2H48
		h0.8H50c1.9,0,3.5,1.6,3.5,3.5v10c0,3.6,2.9,6.5,6.5,6.5h8.3l-5.1,5.1c-0.1,0.1-0.1,0.3,0,0.4l1.8,1.8c0.1,0.1,0.3,0.1,0.4,0
		l7.3-7.3c0,0,0,0,0,0l1.8-1.8c0.1-0.1,0.1-0.1,0.1-0.2c0-0.1,0-0.1-0.1-0.2L72.6,48.5z"/>
	<path class="st2" d="M50.2,11H57h8.8l-5.6,5.6c-0.1,0.1-0.1,0.3,0,0.4l1.8,1.8c0.1,0.1,0.3,0.1,0.4,0l7.3-7.3c0,0,0,0,0,0l1.8-1.8
		c0.1-0.1,0.1-0.1,0.1-0.2c0-0.1,0-0.1-0.1-0.2l-1.8-1.8c0,0,0,0,0,0l-7.3-7.3c-0.1-0.1-0.3-0.1-0.4,0l-1.8,1.8
		c-0.1,0.1-0.1,0.3,0,0.4L65.9,8H57h-6.8h-0.8c-3.6,0-6.5,2.9-6.5,6.5V26c0,1.9-1.6,3.5-3.5,3.5H39h-1h-0.5c-0.1,0-0.2,0.1-0.2,0.2
		v2.5c0,0.1,0.1,0.2,0.2,0.2H38h1h0.4c3.6,0,6.5-2.9,6.5-6.5V14.5c0-1.9,1.6-3.5,3.5-3.5H50.2z"/>
</g>
</svg>
