<svg width="61" height="65" viewBox="0 0 61 65" fill="none" xmlns="http://www.w3.org/2000/svg">
<rect x="0.883789" width="23.8696" height="65" fill="#DCF0E3"/>
<rect x="2.65234" y="65" width="2.65218" height="65" rx="0.25" transform="rotate(-180 2.65234 65)" fill="#4FB573"/>
<rect x="15.9131" y="34.2568" width="2.63513" height="34.4783" rx="0.25" transform="rotate(-90 15.9131 34.2568)" fill="#4FB573"/>
<rect width="2.64367" height="11.7906" rx="0.25" transform="matrix(0.709382 -0.704825 0.709382 0.704825 42.3467 26.4579)" fill="#4FB573"/>
<rect width="2.63852" height="11.8003" rx="0.25" transform="matrix(-0.709382 -0.704824 0.709382 -0.704824 44.2168 41.2068)" fill="#4FB573"/>
<rect x="25.6377" y="26.3514" width="2.65218" height="26.3514" rx="0.25" transform="rotate(-180 25.6377 26.3514)" fill="#4FB573"/>
<rect x="25.6377" y="65" width="2.65218" height="26.3514" rx="0.25" transform="rotate(-180 25.6377 65)" fill="#4FB573"/>
<ellipse cx="15.4709" cy="7.46621" rx="2.21014" ry="2.19595" fill="#4FB573"/>
<ellipse cx="9.28241" cy="20.6419" rx="2.21014" ry="2.19595" fill="#4FB573"/>
<ellipse cx="34.9201" cy="12.7365" rx="2.21014" ry="2.19595" fill="#4FB573"/>
<ellipse cx="53.4855" cy="5.70943" rx="2.21015" ry="2.19595" fill="#4FB573"/>
<ellipse cx="58.7902" cy="19.7635" rx="2.21014" ry="2.19595" fill="#4FB573"/>
<ellipse cx="57.9055" cy="44.3581" rx="2.21015" ry="2.19595" fill="#4FB573"/>
<ellipse cx="39.341" cy="53.1419" rx="2.21015" ry="2.19595" fill="#4FB573"/>
<ellipse cx="53.4855" cy="59.2906" rx="2.21015" ry="2.19594" fill="#4FB573"/>
<ellipse cx="8.39862" cy="46.1149" rx="2.21015" ry="2.19595" fill="#4FB573"/>
<ellipse cx="15.4709" cy="55.777" rx="2.21014" ry="2.19595" fill="#4FB573"/>
</svg>
