<svg width="69" height="69" viewBox="0 0 69 69" fill="none" xmlns="http://www.w3.org/2000/svg">
    <path
        fill-rule="evenodd"
        clip-rule="evenodd"
        d="M2.76999 18.7332C5.67399 11.4993 13.3166 9.38614 13.3166 9.38614L21.646 23.6209C22.6831 26.5535 22.8906 27.7266 19.9866 30.2682C17.0826 32.6143 15.838 32.8098 18.1197 36.9155C20.6088 41.6077 30.5654 50.4056 35.7511 52.5561C40.3146 54.3157 40.3146 53.1427 42.5963 50.21C45.0854 47.2774 46.33 47.2774 49.4414 48.0594L63.7871 54.0955C63.7871 54.0955 63.3391 62.5271 56.0791 65.6552C35.1289 74.8441 -5.52715 39.0661 2.76999 18.7332Z"
        fill="white"
    />
    <path
        d="M2.76999 18.7332L4.16203 19.292L4.15881 19.2999L2.76999 18.7332ZM13.3166 9.38614L12.9169 7.94039C13.5724 7.75914 14.2678 8.04159 14.6112 8.62858L13.3166 9.38614ZM21.646 23.6209L22.9406 22.8633L23.0126 22.9864L23.0601 23.1207L21.646 23.6209ZM19.9866 30.2682L20.9744 31.3969L20.9522 31.4164L20.9292 31.435L19.9866 30.2682ZM18.1197 36.9155L19.4308 36.1868L19.4379 36.1996L19.4448 36.2125L18.1197 36.9155ZM35.7511 52.5561L35.2115 53.9557L35.1939 53.9489L35.1765 53.9417L35.7511 52.5561ZM42.5963 50.21L41.4124 49.2889L41.432 49.2637L41.4527 49.2394L42.5963 50.21ZM49.4414 48.0594L49.8071 46.6047L49.9179 46.6325L50.0232 46.6768L49.4414 48.0594ZM63.7871 54.0955L64.3688 52.7129C64.9521 52.9582 65.3186 53.5432 65.285 54.175L63.7871 54.0955ZM56.0791 65.6552L55.4766 64.2815L55.4856 64.2777L56.0791 65.6552ZM1.37797 18.1743C2.98487 14.1716 5.8907 11.6165 8.33269 10.0779C9.55765 9.30607 10.6845 8.7778 11.51 8.4407C11.9235 8.2718 12.2638 8.14992 12.506 8.06877C12.6272 8.02817 12.7241 7.99769 12.7935 7.97657C12.8282 7.96601 12.8561 7.95777 12.8768 7.95178C12.8872 7.94878 12.8957 7.94634 12.9024 7.94445C12.9057 7.9435 12.9086 7.94269 12.911 7.94201C12.9122 7.94168 12.9133 7.94137 12.9143 7.9411C12.9148 7.94097 12.9154 7.94079 12.9157 7.94072C12.9163 7.94055 12.9169 7.94039 13.3166 9.38614C13.7164 10.8319 13.7169 10.8317 13.7174 10.8316C13.7175 10.8316 13.718 10.8314 13.7182 10.8314C13.7187 10.8312 13.7191 10.8311 13.7194 10.831C13.72 10.8309 13.7201 10.8309 13.7197 10.831C13.719 10.8311 13.7166 10.8319 13.7124 10.8331C13.7039 10.8355 13.6886 10.84 13.6666 10.8467C13.6227 10.8601 13.5525 10.8821 13.459 10.9134C13.272 10.9761 12.9925 11.0758 12.6442 11.218C11.9459 11.5032 10.9806 11.9553 9.9319 12.6161C7.82659 13.9425 5.45911 16.0609 4.162 19.292L1.37797 18.1743ZM14.6112 8.62858L22.9406 22.8633L20.3513 24.3784L12.022 10.1437L14.6112 8.62858ZM23.0601 23.1207C23.5532 24.5149 24.036 25.9267 23.769 27.365C23.4901 28.867 22.4767 30.0821 20.9744 31.3969L18.9987 29.1394C20.4004 27.9126 20.7353 27.2704 20.8194 26.8173C20.9154 26.3005 20.7759 25.6595 20.2318 24.121L23.0601 23.1207ZM20.9292 31.435C20.0882 32.1144 19.6218 32.4395 19.1154 32.8663C18.6623 33.2481 18.524 33.4429 18.474 33.5529C18.4537 33.5973 18.3969 33.7177 18.4952 34.1093C18.6053 34.5474 18.8778 35.1916 19.4308 36.1868L16.8086 37.6441C16.2208 36.5864 15.7932 35.6666 15.5856 34.84C15.3663 33.967 15.3743 33.122 15.743 32.3111C16.0819 31.5657 16.6566 31.0152 17.1823 30.5722C17.6547 30.1741 18.4329 29.595 19.0439 29.1014L20.9292 31.435ZM19.4448 36.2125C20.5543 38.304 23.4875 41.5265 26.9188 44.5661C30.3408 47.5975 33.9731 50.1949 36.3258 51.1706L35.1765 53.9417C32.3435 52.7668 28.4046 49.89 24.9296 46.8117C21.4639 43.7417 18.1743 40.2191 16.7946 37.6184L19.4448 36.2125ZM36.2908 51.1566C38.6357 52.0607 39.1559 51.9051 39.3435 51.8086C39.4757 51.7407 39.669 51.5855 40.0302 51.1296C40.2058 50.9081 40.3931 50.653 40.6255 50.3368C40.8526 50.0278 41.1131 49.6736 41.4124 49.2889L43.7802 51.1312C43.509 51.4796 43.2705 51.8036 43.043 52.1132C42.8208 52.4156 42.5981 52.7195 42.3815 52.9929C41.9584 53.5268 41.4386 54.1048 40.7152 54.4767C39.1915 55.26 37.4301 54.8111 35.2115 53.9557L36.2908 51.1566ZM41.4527 49.2394C42.7438 47.7182 43.9277 46.6835 45.4001 46.2921C46.8348 45.9107 48.2844 46.222 49.8071 46.6047L49.0758 49.5142C47.4871 49.1149 46.7587 49.0351 46.1709 49.1914C45.6209 49.3376 44.9379 49.7692 43.7399 51.1807L41.4527 49.2394ZM50.0232 46.6768L64.3688 52.7129L63.2054 55.4781L48.8597 49.442L50.0232 46.6768ZM63.7871 54.0955C65.285 54.175 65.285 54.1757 65.2849 54.1764C65.2849 54.1766 65.2849 54.1774 65.2848 54.1779C65.2848 54.179 65.2847 54.1802 65.2846 54.1815C65.2845 54.1842 65.2843 54.1874 65.2841 54.1911C65.2836 54.1985 65.283 54.208 65.2823 54.2195C65.2808 54.2424 65.2785 54.2733 65.2754 54.3118C65.2692 54.3887 65.2594 54.496 65.2444 54.6303C65.2144 54.8987 65.1636 55.2761 65.0786 55.7349C64.9092 56.6497 64.6014 57.9038 64.0445 59.2689C62.9319 61.996 60.7794 65.2633 56.6727 67.0328L55.4856 64.2777C58.6389 62.919 60.3403 60.4065 61.2668 58.1357C61.7293 57.0019 61.9873 55.9526 62.1288 55.1886C62.1992 54.8081 62.2401 54.5023 62.2629 54.2974C62.2744 54.195 62.2813 54.1182 62.2852 54.0701C62.2871 54.046 62.2883 54.0292 62.2889 54.02C62.2892 54.0155 62.2894 54.0128 62.2894 54.0121C62.2895 54.0117 62.2894 54.0118 62.2894 54.0125C62.2894 54.0128 62.2894 54.0132 62.2893 54.0138C62.2893 54.0141 62.2893 54.0146 62.2893 54.0147C62.2893 54.0153 62.2892 54.0159 63.7871 54.0955ZM56.6816 67.0289C50.9526 69.5417 44.0508 68.9175 37.2375 66.4713C30.3982 64.0157 23.4512 59.6587 17.4658 54.3909C11.4823 49.1247 6.38439 42.8818 3.30587 36.5945C0.239668 30.3323 -0.920885 23.8078 1.38117 18.1664L4.15881 19.2999C2.31228 23.825 3.12231 29.3976 6.00023 35.2752C8.86584 41.1277 13.6856 47.0675 19.4478 52.1389C25.208 57.2085 31.8346 61.3439 38.2513 63.6478C44.694 65.9609 50.7305 66.3632 55.4766 64.2815L56.6816 67.0289Z"
        fill="#4FB573"
    />
    <path
        d="M32.7275 13.7731C34.3144 13.3424 35.9888 13.1119 37.7193 13.1119C47.8274 13.1119 56.0216 20.9757 56.0216 30.6763C56.0216 32.337 55.7815 33.9438 55.3327 35.4666"
        stroke="#FFC432"
        stroke-width="2"
        stroke-linecap="round"
    />
    <path
        d="M24.9629 3.0366C27.872 2.31872 30.9418 1.93457 34.1144 1.93457C52.6459 1.93457 67.6687 15.041 67.6687 31.2085C67.6687 33.9763 67.2284 36.6544 66.4056 39.1923"
        stroke="#FFC432"
        stroke-width="2"
        stroke-linecap="round"
    />
</svg>