<svg width="54" height="76" viewBox="0 0 54 76" fill="none" xmlns="http://www.w3.org/2000/svg">
<g clip-path="url(#clip0)">
<path d="M20.4622 74.7319C20.4622 74.7319 27.2546 66.3626 30.5659 56.4716C33.8773 46.5806 33.4527 39.733 33.4527 39.733C33.4527 36.1824 30.5659 33.3081 26.9999 33.3081C23.4339 33.3081 20.5471 36.1824 20.5471 39.733C20.5471 39.733 20.5471 47.2569 17.7452 54.02C14.9433 60.7831 10.3584 66.9544 10.3584 66.9544" stroke="#4FB573" stroke-width="3" stroke-miterlimit="10" stroke-linecap="round" stroke-linejoin="round"/>
<path d="M6.79248 61.2058C6.79248 61.2058 9.93399 56.4716 11.9717 50.9766C14.1793 45.059 14.0944 39.6485 14.0944 39.6485C14.0944 32.5473 19.868 26.7987 27 26.7987C34.1321 26.7987 39.9057 32.6318 39.9057 39.733C39.9057 39.733 39.7359 49.1168 41.2642 54.95C42.7925 60.8676 44.5755 66.109 44.5755 66.109" stroke="#4FB573" stroke-width="3" stroke-miterlimit="10" stroke-linecap="round" stroke-linejoin="round"/>
<path d="M17.2358 23.1635C20.1226 21.4727 23.434 20.5428 27 20.5428C37.6981 20.5428 46.2736 29.1657 46.2736 39.733C46.2736 39.733 46.3585 47.0879 46.8679 50.3849C47.4623 53.7664 49.0755 58.6696 49.0755 58.6696" stroke="#4FB573" stroke-width="3" stroke-miterlimit="10" stroke-linecap="round" stroke-linejoin="round"/>
<path d="M3.56592 54.02C3.56592 54.02 5.26403 51.1457 6.53762 47.6796C7.8112 44.2136 7.7263 39.733 7.7263 39.733C7.7263 35.337 9.2546 31.2792 11.7169 27.9822" stroke="#4FB573" stroke-width="3" stroke-miterlimit="10" stroke-linecap="round" stroke-linejoin="round"/>
<path d="M39.5662 17.3304C47.3775 21.6418 52.6416 29.9266 52.7265 39.3949" stroke="#4FB573" stroke-width="3" stroke-miterlimit="10" stroke-linecap="round" stroke-linejoin="round"/>
<path d="M1.27368 39.7331C1.27368 25.6151 12.8209 14.1179 27.0001 14.1179C28.5284 14.1179 29.9718 14.2025 31.3303 14.4561" stroke="#4FB573" stroke-width="3" stroke-miterlimit="10" stroke-linecap="round" stroke-linejoin="round"/>
<path d="M2.20752 19.3593C8.06601 12.1735 16.9811 7.69299 27 7.69299C37.0188 7.69299 45.9339 12.1735 51.7924 19.3593" stroke="#4FB573" stroke-width="3" stroke-miterlimit="10" stroke-linecap="round" stroke-linejoin="round"/>
<path d="M9.59448 5.41045C14.8586 2.78976 20.802 1.26807 27.0001 1.26807C33.1983 1.26807 39.0567 2.70522 44.236 5.32591" stroke="#4FB573" stroke-width="3" stroke-miterlimit="10" stroke-linecap="round" stroke-linejoin="round"/>
<path d="M25.8962 48.525C27.2547 42.0156 26.9151 39.3949 26.9151 39.3949" stroke="#4FB573" stroke-width="3" stroke-miterlimit="10" stroke-linecap="round" stroke-linejoin="round"/>
<path d="M14.7734 71.604C14.7734 71.604 22.4149 62.4739 25.047 52.4138" stroke="#4FB573" stroke-width="3" stroke-miterlimit="10" stroke-linecap="round" stroke-linejoin="round"/>
<path d="M27.9338 74.7319C27.9338 74.7319 31.1603 69.7442 32.264 67.3771C33.3678 65.01 35.8301 59.2614 35.8301 59.2614L39.3961 70.505" stroke="#4FB573" stroke-width="3" stroke-miterlimit="10" stroke-linecap="round" stroke-linejoin="round"/>
</g>
<defs>
<clipPath id="clip0">
<rect width="54" height="76" fill="white"/>
</clipPath>
</defs>
</svg>
