<svg width="53" height="70" viewBox="0 0 53 70" fill="none" xmlns="http://www.w3.org/2000/svg">
<mask id="path-1-inside-1" fill="white">
<path d="M38.3276 14.2622C38.3276 14.4003 38.2157 14.5122 38.0776 14.5122L14.9225 14.5122C14.7844 14.5122 14.6725 14.4003 14.6725 14.2622L14.6725 3C14.6725 1.34314 16.0156 8.87223e-07 17.6725 1.03379e-06L35.3276 2.59563e-06C36.9845 2.7422e-06 38.3276 1.34315 38.3276 3L38.3276 14.2622Z"/>
</mask>
<path d="M38.3276 14.2622C38.3276 14.4003 38.2157 14.5122 38.0776 14.5122L14.9225 14.5122C14.7844 14.5122 14.6725 14.4003 14.6725 14.2622L14.6725 3C14.6725 1.34314 16.0156 8.87223e-07 17.6725 1.03379e-06L35.3276 2.59563e-06C36.9845 2.7422e-06 38.3276 1.34315 38.3276 3L38.3276 14.2622Z" stroke="#4FB573" stroke-width="6" mask="url(#path-1-inside-1)"/>
<mask id="path-2-inside-2" fill="white">
<path d="M4.53442 18.1768C4.53442 18.0388 4.64635 17.9268 4.78442 17.9268H49.0603C49.1984 17.9268 49.3103 18.0388 49.3103 18.1768V67C49.3103 68.6569 47.9671 70 46.3103 70H7.53442C5.87757 70 4.53442 68.6569 4.53442 67V18.1768Z"/>
</mask>
<path d="M4.53442 18.1768C4.53442 18.0388 4.64635 17.9268 4.78442 17.9268H49.0603C49.1984 17.9268 49.3103 18.0388 49.3103 18.1768V67C49.3103 68.6569 47.9671 70 46.3103 70H7.53442C5.87757 70 4.53442 68.6569 4.53442 67V18.1768Z" fill="#DCF0E3" stroke="#4FB573" stroke-width="6" mask="url(#path-2-inside-2)"/>
<rect width="2.89745" height="29.0162" rx="0.25" transform="matrix(0.703421 -0.710774 0.703421 0.710774 16.3621 34.4678)" fill="#4FB573"/>
<rect x="52.6897" y="11.9512" width="2.56098" height="52.3793" rx="0.25" transform="rotate(90 52.6897 11.9512)" fill="#4FB573"/>
<rect width="2.89745" height="29.0162" rx="0.25" transform="matrix(-0.703421 -0.710773 0.703421 -0.710774 18.4001 55.0917)" fill="#4FB573"/>
</svg>
