<svg width="185" height="38" viewBox="0 0 185 38" fill="none" xmlns="http://www.w3.org/2000/svg">
<path d="M10.0023 13.2445V28.648H5.80235V13.2445H0V9.35205H15.7527V13.2445H10.0063H10.0023Z" fill="black"/>
<path d="M17.5029 28.6756V9.32422H31.5413V13.1612H21.539V17.0537H30.3265V20.8352H21.539V24.8902H31.6532V28.6717H17.5029V28.6756Z" fill="black"/>
<path d="M43.9416 28.7311C42.523 26.1467 41.1044 23.5663 39.6858 20.9819C39.0064 20.9898 38.3311 20.9937 37.6517 21.0017C37.6597 23.5663 37.6637 26.1309 37.6717 28.6955C36.2491 28.7034 34.8225 28.7074 33.3999 28.7153C33.3799 22.2344 33.3599 15.7536 33.3359 9.27271H41.6039C43.7578 9.27271 45.4322 9.83557 46.627 10.9573C47.8218 12.0791 48.4213 13.6448 48.4213 15.6465C48.3453 16.1935 48.2654 16.7406 48.1895 17.2915C48.0896 17.6166 47.9018 18.0922 47.5541 18.5956C46.9787 19.428 46.2913 19.8561 45.9716 20.0504C45.624 20.2644 45.0725 20.5458 44.3332 20.7242C45.9077 23.3958 47.4822 26.0635 49.0566 28.7351H43.9376L43.9416 28.7311ZM43.7458 15.2184C43.7458 14.5525 43.4661 13.7994 42.9226 13.3356C42.539 13.0066 42.1074 12.8005 41.1923 12.7926C40.0054 12.7847 38.8226 12.7807 37.6358 12.7728C37.6278 14.3107 37.6238 15.8447 37.6158 17.3827H41.4361C41.6838 17.3827 42.1474 17.4263 42.6229 17.1766C43.3742 16.7762 43.6299 15.9359 43.6579 15.8447C43.6819 15.7615 43.7458 15.5276 43.7458 15.2145V15.2184Z" fill="black"/>
<path d="M61.5285 28.7311C60.1099 26.1467 58.6913 23.5663 57.2727 20.9819C56.5933 20.9898 55.918 20.9937 55.2386 21.0017C55.2466 23.5663 55.2506 26.1309 55.2586 28.6955C53.836 28.7034 52.4094 28.7074 50.9868 28.7153C50.9668 22.2344 50.9468 15.7536 50.9229 9.27271H59.1908C61.3447 9.27271 63.0191 9.83557 64.2139 10.9573C65.4088 12.0791 66.0082 13.6448 66.0082 15.6465L65.7764 17.2915C65.6765 17.6166 65.4887 18.0922 65.141 18.5956C64.5656 19.428 63.8782 19.8561 63.5586 20.0504C63.2109 20.2644 62.6594 20.5458 61.9201 20.7242C63.4946 23.3958 65.0691 26.0635 66.6436 28.7351H61.5245L61.5285 28.7311ZM61.3327 15.2184C61.3327 14.5525 61.053 13.7994 60.5095 13.3356C60.1259 13.0066 59.6943 12.8005 58.7792 12.7926C57.5924 12.7847 56.4095 12.7807 55.2227 12.7728C55.2147 14.3107 55.2107 15.8447 55.2027 17.3827H59.023C59.2707 17.3827 59.7343 17.4263 60.2098 17.1766C60.9611 16.7762 61.2168 15.9359 61.2448 15.8447C61.2688 15.7615 61.3327 15.5276 61.3327 15.2145V15.2184Z" fill="black"/>
<path d="M83.1114 28.7313L81.5249 24.3949H74.1841L72.5976 28.7313C71.1071 28.7313 69.6165 28.7313 68.126 28.7313C70.7994 22.2425 73.4728 15.7537 76.1462 9.26099H79.6667C82.3162 15.7101 84.9696 22.1553 87.619 28.6045C86.1165 28.6441 84.6139 28.6877 83.1114 28.7274V28.7313ZM77.7446 14.6676C76.9814 16.7764 76.2181 18.8852 75.4549 20.9979H80.0704C79.2951 18.8891 78.5199 16.7804 77.7446 14.6676Z" fill="black"/>
<path d="M102.28 25.5483C101.301 27.554 99.5031 28.3705 98.8357 28.6757C95.7028 30.1027 92.6777 28.9413 91.9504 28.6638C90.4319 28.0811 89.3769 27.2329 88.7695 26.6661C89.7686 25.5522 90.7636 24.4384 91.7626 23.3245C91.9065 23.5148 92.1103 23.7526 92.382 23.9944C92.8176 24.3829 93.2292 24.6088 93.449 24.7198C93.6848 24.8387 94.2842 25.1083 95.0914 25.1915C95.9106 25.2748 97.2852 25.4135 98.0445 24.5018C98.596 23.8398 98.7199 22.7538 98.2683 22.072C98.0525 21.743 97.6689 21.517 96.8617 21.2158C95.8227 20.8313 94.9835 20.5657 94.7357 20.4864C93.6488 20.1416 93.1013 19.9672 92.7616 19.8166C92.1023 19.5232 91.5189 19.2616 90.9194 18.6988C90.7396 18.5323 90.1682 17.9655 89.7526 17.0379C89.2451 15.9003 89.285 14.9054 89.301 14.6477C89.345 13.9065 89.5488 13.3634 89.6966 12.9869C89.8685 12.539 90.1921 11.8453 90.7876 11.1397C90.9594 10.9376 91.7826 9.97834 93.2532 9.31241C94.3521 8.81297 95.2832 8.71387 95.8347 8.65838C96.1264 8.63063 97.577 8.49983 99.3952 9.00323C101.014 9.45115 102.208 10.1963 102.96 10.7671C101.945 11.8532 100.926 12.9433 99.9107 14.0294C99.6549 13.7796 99.4232 13.5933 99.2354 13.4546C99.1275 13.3753 98.9676 13.2564 98.7398 13.1256C98.7398 13.1256 98.4721 12.971 98.2004 12.8561C97.7128 12.65 95.7308 12.1743 94.5319 13.2089C94.2002 13.4982 94.0564 13.7876 94.0204 13.8629C93.7567 14.4337 93.8766 14.9728 93.9085 15.0956C93.9805 15.385 94.1083 15.5872 94.1523 15.6545C94.444 16.0945 94.8756 16.2967 95.1953 16.4315C96.0025 16.7684 96.6059 16.8754 97.1374 17.03C98.0565 17.2956 98.8797 17.5968 99.599 17.9258C100.318 18.2588 100.926 18.6552 101.421 19.1229C101.677 19.3647 101.901 19.6263 102.093 19.9117C102.093 19.9117 102.356 20.3041 102.54 20.76C102.756 21.2911 103.323 23.3999 102.276 25.5443L102.28 25.5483Z" fill="black"/>
<path d="M125.002 19C125.002 20.4309 124.738 21.7707 124.207 23.0193C123.675 24.2679 122.944 25.3659 122.009 26.3093C121.074 27.2527 119.955 27.9979 118.66 28.5409C117.366 29.084 115.951 29.3575 114.416 29.3575C112.882 29.3575 111.475 29.084 110.188 28.5409C108.902 27.9979 107.791 27.2646 106.856 26.3371C105.921 25.4135 105.189 24.3274 104.67 23.0788C104.15 21.8302 103.891 20.4904 103.891 19.0595V19.004C103.891 17.573 104.154 16.2333 104.686 14.9846C105.213 13.736 105.949 12.6381 106.884 11.6947C107.819 10.7513 108.938 10.0061 110.232 9.46303C111.527 8.91999 112.942 8.64648 114.476 8.64648C116.011 8.64648 117.417 8.91999 118.704 9.46303C119.991 10.0061 121.102 10.7394 122.037 11.6669C122.972 12.5905 123.703 13.6805 124.223 14.9252C124.742 16.1738 125.002 17.5136 125.002 18.9445V19ZM120.415 19C120.415 18.1399 120.267 17.3312 119.975 16.5662C119.679 15.8012 119.264 15.1353 118.724 14.5605C118.185 13.9858 117.549 13.5339 116.822 13.2009C116.091 12.868 115.284 12.7015 114.392 12.7015C113.501 12.7015 112.714 12.864 111.975 13.189C111.235 13.5141 110.604 13.962 110.085 14.5367C109.565 15.1115 109.158 15.7734 108.862 16.5266C108.566 17.2797 108.422 18.0883 108.422 18.9485V19.004C108.422 19.8641 108.57 20.6767 108.862 21.4378C109.154 22.2028 109.573 22.8687 110.113 23.4435C110.652 24.0182 111.291 24.4701 112.031 24.8031C112.77 25.136 113.573 25.3025 114.444 25.3025C115.316 25.3025 116.143 25.14 116.874 24.8149C117.601 24.4899 118.229 24.042 118.748 23.4672C119.268 22.8925 119.675 22.2305 119.971 21.4774C120.263 20.7243 120.411 19.9157 120.411 19.0555V19H120.415Z" fill="black"/>
<path d="M139.053 25.5483C138.074 27.554 136.276 28.3705 135.608 28.6757C132.475 30.1027 129.45 28.9413 128.723 28.6638C127.204 28.0811 126.149 27.2329 125.542 26.6661C126.541 25.5522 127.536 24.4384 128.535 23.3245C128.679 23.5148 128.883 23.7526 129.154 23.9944C129.59 24.3829 130.002 24.6088 130.221 24.7198C130.457 24.8387 131.057 25.1083 131.864 25.1915C132.683 25.2748 134.058 25.4135 134.817 24.5018C135.368 23.8398 135.492 22.7538 135.041 22.072C134.825 21.743 134.441 21.517 133.634 21.2158C132.595 20.8313 131.756 20.5657 131.508 20.4864C130.421 20.1416 129.874 19.9672 129.534 19.8166C128.875 19.5232 128.291 19.2616 127.692 18.6988C127.512 18.5323 126.941 17.9655 126.525 17.0379C126.018 15.9003 126.057 14.9054 126.073 14.6477C126.117 13.9065 126.321 13.3634 126.469 12.9869C126.641 12.539 126.965 11.8453 127.56 11.1397C127.732 10.9376 128.555 9.97834 130.026 9.31241C131.125 8.81297 132.056 8.71387 132.607 8.65838C132.899 8.63063 134.349 8.49983 136.168 9.00323C137.786 9.45115 138.981 10.1963 139.732 10.7671C138.717 11.8532 137.698 12.9433 136.683 14.0294C136.427 13.7796 136.196 13.5933 136.008 13.4546C135.9 13.3753 135.74 13.2564 135.512 13.1256C135.512 13.1256 135.245 12.971 134.973 12.8561C134.485 12.65 132.503 12.1743 131.304 13.2089C130.973 13.4982 130.829 13.7876 130.793 13.8629C130.529 14.4337 130.649 14.9728 130.681 15.0956C130.753 15.385 130.881 15.5872 130.925 15.6545C131.216 16.0945 131.648 16.2967 131.968 16.4315C132.775 16.7684 133.378 16.8754 133.91 17.03C134.829 17.2956 135.652 17.5968 136.371 17.9258C137.091 18.2588 137.698 18.6552 138.194 19.1229C138.449 19.3647 138.673 19.6263 138.865 19.9117C138.865 19.9117 139.129 20.3041 139.313 20.76C139.528 21.2911 140.096 23.3999 139.049 25.5443L139.053 25.5483Z" fill="black"/>
<path d="M166.43 37.4199C176.686 37.4199 185 29.173 185 19C185 8.82695 176.686 0.580078 166.43 0.580078C156.174 0.580078 147.86 8.82695 147.86 19C147.86 29.173 156.174 37.4199 166.43 37.4199Z" fill="#FFCD00"/>
</svg>
