<svg width="21" height="20" viewBox="0 0 21 20" fill="none" xmlns="http://www.w3.org/2000/svg">
<path d="M14.7921 11.0666C14.7921 14.9002 11.7002 17.9999 7.89607 17.9999C4.09192 17.9999 1 14.9002 1 11.0666C1 7.23291 4.09192 4.13318 7.89607 4.13318C11.7002 4.13318 14.7921 7.23291 14.7921 11.0666Z" stroke="#4FB573" stroke-width="2"/>
<ellipse cx="7.89607" cy="11.0666" rx="3.38403" ry="3.40002" stroke="#4FB573" stroke-linecap="round" stroke-dasharray="0.1 2"/>
<mask id="path-3-outside-1_408_14693" maskUnits="userSpaceOnUse" x="7.0135" y="0.0136098" width="13" height="19" fill="black">
<rect fill="white" x="7.0135" y="0.0136098" width="13" height="19"/>
<path fill-rule="evenodd" clip-rule="evenodd" d="M15.1344 17.7636C15.1344 17.9017 15.0224 18.0136 14.8844 18.0136L13.1283 18.0136C12.9903 18.0136 12.8783 17.9017 12.8783 17.7636L12.8783 6.22689L10.6789 8.43677C10.5815 8.53463 10.4236 8.53463 10.3262 8.43677L9.08362 7.18837C8.98622 7.0905 8.98622 6.93184 9.08362 6.83398L13.8277 2.06747C13.8556 2.0395 13.8883 2.01953 13.9232 2.00754C14.0146 1.9672 14.1252 1.98462 14.2 2.05981L18.9404 6.82266C19.0378 6.92052 19.0378 7.07918 18.9404 7.17704L17.6979 8.42544C17.6005 8.5233 17.4426 8.5233 17.3452 8.42544L15.1344 6.20417L15.1344 17.7636Z"/>
</mask>
<path fill-rule="evenodd" clip-rule="evenodd" d="M15.1344 17.7636C15.1344 17.9017 15.0224 18.0136 14.8844 18.0136L13.1283 18.0136C12.9903 18.0136 12.8783 17.9017 12.8783 17.7636L12.8783 6.22689L10.6789 8.43677C10.5815 8.53463 10.4236 8.53463 10.3262 8.43677L9.08362 7.18837C8.98622 7.0905 8.98622 6.93184 9.08362 6.83398L13.8277 2.06747C13.8556 2.0395 13.8883 2.01953 13.9232 2.00754C14.0146 1.9672 14.1252 1.98462 14.2 2.05981L18.9404 6.82266C19.0378 6.92052 19.0378 7.07918 18.9404 7.17704L17.6979 8.42544C17.6005 8.5233 17.4426 8.5233 17.3452 8.42544L15.1344 6.20417L15.1344 17.7636Z" fill="#4FB573"/>
<path d="M12.8783 17.7636L13.8783 17.7636L12.8783 17.7636ZM12.8783 6.22689L13.8783 6.22689L13.8783 3.80461L12.1696 5.52146L12.8783 6.22689ZM10.6789 8.43677L11.3876 9.14221L11.3876 9.1422L10.6789 8.43677ZM10.3262 8.43677L9.61738 9.1422L9.61738 9.14221L10.3262 8.43677ZM9.08362 7.18837L8.37485 7.8938L8.37485 7.8938L9.08362 7.18837ZM9.08362 6.83398L9.79239 7.53942L9.79239 7.53942L9.08362 6.83398ZM13.8277 2.06747L13.119 1.36202L13.1189 1.36203L13.8277 2.06747ZM13.9232 2.00754L14.248 2.95334L14.2882 2.93954L14.3271 2.92237L13.9232 2.00754ZM14.2 2.05981L14.9088 1.35437L14.9088 1.35437L14.2 2.05981ZM18.9404 6.82266L18.2317 7.5281L18.2317 7.5281L18.9404 6.82266ZM18.9404 7.17704L19.6492 7.88248L19.6492 7.88248L18.9404 7.17704ZM17.6979 8.42544L18.4067 9.13088L18.4067 9.13088L17.6979 8.42544ZM17.3452 8.42544L18.054 7.72001L18.054 7.72L17.3452 8.42544ZM15.1344 6.20417L15.8431 5.49873L14.1344 3.78189L14.1344 6.20417L15.1344 6.20417ZM14.8844 19.0136C15.5747 19.0136 16.1344 18.454 16.1344 17.7636L14.1344 17.7636C14.1344 17.3494 14.4702 17.0136 14.8844 17.0136L14.8844 19.0136ZM13.1283 19.0136L14.8844 19.0136L14.8844 17.0136L13.1283 17.0136L13.1283 19.0136ZM11.8783 17.7636C11.8783 18.454 12.438 19.0136 13.1283 19.0136L13.1283 17.0136C13.5426 17.0136 13.8783 17.3494 13.8783 17.7636L11.8783 17.7636ZM11.8783 6.22689L11.8783 17.7636L13.8783 17.7636L13.8783 6.22689L11.8783 6.22689ZM11.3876 9.1422L13.5871 6.93233L12.1696 5.52146L9.9701 7.73133L11.3876 9.1422ZM9.61738 9.14221C10.1057 9.63281 10.8993 9.63281 11.3876 9.14221L9.9701 7.73133C10.2636 7.43644 10.7414 7.43644 11.0349 7.73133L9.61738 9.14221ZM8.37485 7.8938L9.61738 9.1422L11.0349 7.73133L9.79239 6.48293L8.37485 7.8938ZM8.37485 6.12854C7.88914 6.61654 7.88915 7.4058 8.37485 7.8938L9.7924 6.48293C10.0833 6.77521 10.0833 7.24714 9.79239 7.53942L8.37485 6.12854ZM13.1189 1.36203L8.37485 6.12854L9.79239 7.53942L14.5365 2.7729L13.1189 1.36203ZM13.5985 1.06175C13.4218 1.12242 13.2569 1.22346 13.119 1.36202L14.5365 2.77291C14.4542 2.85554 14.3549 2.91663 14.248 2.95334L13.5985 1.06175ZM14.9088 1.35437C14.533 0.976835 13.9773 0.890558 13.5194 1.09271L14.3271 2.92237C14.0519 3.04385 13.7173 2.99241 13.4912 2.76525L14.9088 1.35437ZM19.6492 6.11722L14.9088 1.35437L13.4912 2.76525L18.2317 7.5281L19.6492 6.11722ZM19.6492 7.88248C20.1349 7.39448 20.1349 6.60522 19.6492 6.11722L18.2317 7.5281C17.9408 7.23582 17.9408 6.76388 18.2317 6.47161L19.6492 7.88248ZM18.4067 9.13088L19.6492 7.88248L18.2317 6.4716L16.9891 7.72L18.4067 9.13088ZM16.6364 9.13088C17.1247 9.6215 17.9184 9.62148 18.4067 9.13088L16.9891 7.72C17.2826 7.42512 17.7605 7.42511 18.054 7.72001L16.6364 9.13088ZM14.4256 6.90961L16.6364 9.13088L18.054 7.72L15.8431 5.49873L14.4256 6.90961ZM16.1344 17.7636L16.1344 6.20417L14.1344 6.20417L14.1344 17.7636L16.1344 17.7636Z" fill="white" mask="url(#path-3-outside-1_408_14693)"/>
</svg>
