<svg width="236" height="50" viewBox="0 0 236 50" fill="none" xmlns="http://www.w3.org/2000/svg">
<g clip-path="url(#clip0_1117_14104)">
<path d="M236 22.6202V18.5035H230.846V12.1036L230.672 12.1566L225.831 13.6257L225.736 13.6545V18.5037H218.095V15.8023C218.095 14.5444 218.379 13.5818 218.938 12.9398C219.493 12.3056 220.286 11.9831 221.299 11.9831C222.027 11.9831 222.78 12.1532 223.539 12.4885L223.729 12.5728V8.23734L223.639 8.20473C222.932 7.95247 221.97 7.82544 220.777 7.82544C219.273 7.82544 217.908 8.14993 216.716 8.79302C215.524 9.43702 214.587 10.3564 213.93 11.5253C213.275 12.6928 212.943 14.0412 212.943 15.5335V18.5035H209.354V22.6202H212.943V39.9631H218.095V22.6202H225.736V33.6413C225.736 38.1803 227.895 40.4805 232.152 40.4805C232.851 40.4805 233.587 40.3992 234.339 40.24C235.104 40.0765 235.626 39.9132 235.932 39.7389L236 39.699V35.5443L235.791 35.6817C235.511 35.8665 235.163 36.0176 234.755 36.1299C234.345 36.2442 234.002 36.3015 233.737 36.3015C232.74 36.3015 232.002 36.035 231.544 35.509C231.081 34.9782 230.846 34.05 230.846 32.7516V22.6202H236ZM197.849 36.3022C195.979 36.3022 194.505 35.6872 193.466 34.4757C192.421 33.2582 191.891 31.5223 191.891 29.3167C191.891 27.0412 192.421 25.2603 193.466 24.0212C194.506 22.7902 195.966 22.1655 197.807 22.1655C199.594 22.1655 201.016 22.7622 202.034 23.9399C203.058 25.1237 203.578 26.8904 203.578 29.1924C203.578 31.5227 203.089 33.3127 202.126 34.5101C201.169 35.6985 199.73 36.3022 197.849 36.3022ZM198.078 17.9865C194.511 17.9865 191.677 19.0234 189.657 21.0684C187.638 23.1136 186.614 25.9439 186.614 29.4813C186.614 32.8413 187.613 35.5438 189.584 37.5128C191.555 39.4823 194.238 40.48 197.557 40.48C201.015 40.48 203.792 39.4287 205.812 37.3554C207.831 35.2843 208.854 32.4808 208.854 29.026C208.854 25.6135 207.894 22.8908 206 20.935C204.105 18.9783 201.439 17.9865 198.078 17.9865ZM178.307 17.9865C175.881 17.9865 173.873 18.6022 172.34 19.8162C170.797 21.0374 170.014 22.639 170.014 24.5771C170.014 25.5845 170.183 26.4794 170.516 27.2384C170.85 28 171.368 28.6705 172.055 29.2332C172.738 29.7913 173.791 30.376 175.187 30.9709C176.36 31.4498 177.235 31.8549 177.791 32.1742C178.335 32.4871 178.72 32.8016 178.938 33.108C179.15 33.4078 179.257 33.8181 179.257 34.3245C179.257 35.7662 178.168 36.4677 175.928 36.4677C175.098 36.4677 174.15 36.2956 173.112 35.9564C172.081 35.6223 171.109 35.1331 170.228 34.5058L170.014 34.3537V39.2736L170.092 39.3098C170.821 39.6436 171.74 39.925 172.824 40.1465C173.905 40.3682 174.887 40.4809 175.741 40.4809C178.374 40.4809 180.495 39.8623 182.042 38.6411C183.599 37.4115 184.388 35.7721 184.388 33.767C184.388 32.3205 183.964 31.08 183.126 30.0796C182.295 29.0873 180.851 28.1764 178.838 27.3711C177.234 26.7326 176.206 26.2025 175.782 25.7956C175.373 25.4025 175.166 24.8465 175.166 24.1425C175.166 23.5185 175.422 23.0185 175.948 22.6136C176.478 22.2067 177.215 21.9997 178.14 21.9997C178.999 21.9997 179.877 22.1342 180.751 22.3978C181.623 22.6614 182.39 23.0144 183.03 23.4462L183.24 23.5889V18.922L183.16 18.8875C182.569 18.6364 181.791 18.4215 180.845 18.2472C179.904 18.0739 179.05 17.9865 178.307 17.9865ZM156.583 36.3022C154.714 36.3022 153.239 35.6872 152.2 34.4757C151.155 33.2582 150.626 31.5227 150.626 29.3167C150.626 27.0412 151.155 25.2603 152.201 24.0212C153.24 22.7902 154.7 22.1655 156.542 22.1655C158.328 22.1655 159.75 22.7622 160.769 23.9399C161.793 25.1237 162.312 26.8904 162.312 29.1924C162.312 31.5227 161.823 33.3127 160.86 34.5101C159.903 35.6985 158.465 36.3022 156.583 36.3022ZM156.813 17.9865C153.245 17.9865 150.411 19.0234 148.391 21.0684C146.372 23.1136 145.348 25.9439 145.348 29.4813C145.348 32.8426 146.348 35.5438 148.319 37.5128C150.29 39.4823 152.972 40.48 156.291 40.48C159.749 40.48 162.527 39.4287 164.546 37.3554C166.565 35.2843 167.589 32.4808 167.589 29.026C167.589 25.6135 166.628 22.8908 164.734 20.935C162.838 18.9783 160.173 17.9865 156.813 17.9865ZM137.528 22.2198V18.5035H132.438V39.9626H137.528V28.9854C137.528 27.1189 137.954 25.5854 138.796 24.4272C139.627 23.2828 140.735 22.7028 142.087 22.7028C142.546 22.7028 143.06 22.7778 143.618 22.9261C144.169 23.0735 144.569 23.2336 144.804 23.4021L145.018 23.5558V18.4668L144.936 18.4317C144.462 18.232 143.791 18.1312 142.943 18.1312C141.664 18.1312 140.52 18.5388 139.539 19.3413C138.679 20.0467 138.057 21.0138 137.582 22.2198H137.528ZM123.325 17.9865C120.99 17.9865 118.907 18.4831 117.136 19.462C115.361 20.4432 113.988 21.8439 113.054 23.6251C112.124 25.402 111.652 27.4776 111.652 29.7922C111.652 31.8198 112.11 33.6805 113.015 35.3203C113.92 36.963 115.201 38.248 116.823 39.1393C118.442 40.0294 120.314 40.4807 122.387 40.4807C124.805 40.4807 126.87 40.0011 128.526 39.0553L128.593 39.0172V34.3926L128.379 34.5475C127.629 35.0894 126.791 35.5219 125.889 35.8335C124.989 36.1448 124.169 36.3022 123.45 36.3022C121.453 36.3022 119.85 35.6824 118.687 34.4606C117.521 33.2371 116.929 31.5191 116.929 29.3573C116.929 27.1818 117.546 25.4197 118.761 24.1194C119.973 22.8231 121.579 22.1655 123.534 22.1655C125.207 22.1655 126.837 22.7273 128.379 23.8369L128.593 23.9906V19.1178L128.524 19.0793C127.943 18.7571 127.152 18.491 126.169 18.2893C125.191 18.088 124.234 17.9865 123.325 17.9865ZM108.147 18.5037H103.058V39.9626H108.147V18.5037ZM105.655 9.36207C104.817 9.36207 104.086 9.64489 103.486 10.2053C102.884 10.7674 102.578 11.475 102.578 12.3101C102.578 13.1321 102.88 13.8268 103.477 14.3739C104.07 14.9194 104.803 15.1959 105.655 15.1959C106.507 15.1959 107.242 14.9194 107.842 14.3748C108.446 13.8268 108.753 13.1323 108.753 12.3101C108.753 11.5042 108.455 10.8038 107.867 10.228C107.28 9.65327 106.536 9.36207 105.655 9.36207ZM92.9568 16.9204V39.9626H98.1506V10.019H90.9622L81.8254 32.2602L72.9586 10.019H65.4775V39.9624H70.3583V16.9182H70.5258L79.889 39.9626H83.5723L92.7893 16.9204H92.9568Z" fill="white"/>
<path d="M23.9409 23.7591H0V0.0126953H23.9409V23.7591Z" fill="#F1511B"/>
<path d="M50.3746 23.7591H26.4341V0.0126953H50.3746V23.7591Z" fill="#80CC28"/>
<path d="M23.9403 49.9871H0V26.241H23.9403V49.9871Z" fill="#00ADEF"/>
<path d="M50.3746 49.9871H26.4341V26.241H50.3746V49.9871Z" fill="#FBBC09"/>
</g>
<defs>
<clipPath id="clip0_1117_14104">
<rect width="236" height="50" fill="white"/>
</clipPath>
</defs>
</svg>
