<svg width="222" height="47" viewBox="0 0 222 47" fill="none" xmlns="http://www.w3.org/2000/svg">
<path d="M221.024 21.2629V17.393H216.218V11.3769L216.056 11.4267L211.542 12.8077L211.453 12.8348V17.3933H204.329V14.8538C204.329 13.6713 204.593 12.7664 205.115 12.163C205.632 11.5667 206.372 11.2636 207.316 11.2636C207.995 11.2636 208.697 11.4235 209.405 11.7387L209.582 11.8179V7.74242L209.499 7.71177C208.839 7.47464 207.942 7.35522 206.829 7.35522C205.428 7.35522 204.154 7.66026 203.043 8.26479C201.932 8.87018 201.058 9.73441 200.445 10.8332C199.835 11.9307 199.525 13.1983 199.525 14.6011V17.393H196.179V21.2629H199.525V37.5659H204.329V21.2629H211.453V31.6232C211.453 35.8901 213.466 38.0523 217.435 38.0523C218.088 38.0523 218.774 37.9759 219.475 37.8263C220.189 37.6726 220.674 37.5191 220.961 37.3552L221.024 37.3177V33.4121L220.828 33.5413C220.568 33.715 220.243 33.857 219.862 33.9626C219.48 34.0701 219.161 34.1239 218.913 34.1239C217.984 34.1239 217.296 33.8734 216.869 33.3789C216.437 32.88 216.218 32.0074 216.218 30.7869V21.2629H221.024ZM185.452 34.1246C183.708 34.1246 182.333 33.5464 181.365 32.4076C180.39 31.263 179.896 29.6312 179.896 27.5579C179.896 25.4189 180.39 23.7447 181.365 22.5799C182.335 21.4228 183.696 20.8355 185.413 20.8355C187.078 20.8355 188.404 21.3964 189.354 22.5035C190.308 23.6163 190.793 25.2771 190.793 27.4411C190.793 29.6317 190.337 31.3143 189.439 32.44C188.547 33.5571 187.205 34.1246 185.452 34.1246ZM185.665 16.9071C182.339 16.9071 179.697 17.8818 177.813 19.8041C175.93 21.7267 174.976 24.3873 174.976 27.7127C174.976 30.8712 175.908 33.4117 177.745 35.2625C179.583 37.114 182.084 38.0519 185.179 38.0519C188.403 38.0519 190.993 37.0636 192.876 35.1146C194.759 33.1677 195.712 30.5323 195.712 27.2846C195.712 24.0768 194.817 21.5173 193.051 19.6788C191.284 17.8394 188.799 16.9071 185.665 16.9071ZM167.231 16.9071C164.968 16.9071 163.096 17.4858 161.666 18.627C160.228 19.775 159.498 21.2806 159.498 23.1025C159.498 24.0495 159.656 24.8907 159.966 25.6043C160.278 26.3201 160.76 26.9504 161.401 27.4794C162.038 28.0041 163.02 28.5537 164.321 29.1129C165.415 29.5631 166.231 29.9439 166.749 30.2441C167.256 30.5382 167.616 30.8339 167.819 31.1219C168.016 31.4037 168.116 31.7895 168.116 32.2654C168.116 33.6207 167.101 34.2802 165.013 34.2802C164.238 34.2802 163.354 34.1184 162.387 33.7995C161.426 33.4855 160.519 33.0256 159.697 32.4359L159.498 32.2929V36.9178L159.571 36.9518C160.251 37.2656 161.108 37.5302 162.118 37.7384C163.126 37.9468 164.042 38.0528 164.838 38.0528C167.293 38.0528 169.27 37.4712 170.713 36.3232C172.165 35.1674 172.901 33.6263 172.901 31.7413C172.901 30.3816 172.505 29.2155 171.724 28.2751C170.948 27.3423 169.602 26.4859 167.725 25.729C166.23 25.1287 165.272 24.6304 164.876 24.2479C164.495 23.8784 164.302 23.3558 164.302 22.694C164.302 22.1073 164.541 21.6373 165.031 21.2567C165.525 20.8742 166.213 20.6797 167.075 20.6797C167.876 20.6797 168.694 20.8061 169.509 21.0539C170.323 21.3016 171.037 21.6335 171.634 22.0394L171.83 22.1735V17.7864L171.755 17.7541C171.204 17.518 170.479 17.316 169.597 17.1521C168.719 16.9892 167.923 16.9071 167.231 16.9071ZM146.975 34.1246C145.232 34.1246 143.857 33.5464 142.888 32.4076C141.914 31.263 141.421 29.6317 141.421 27.5579C141.421 25.4189 141.914 23.7447 142.89 22.5799C143.858 21.4228 145.219 20.8355 146.937 20.8355C148.602 20.8355 149.928 21.3964 150.878 22.5035C151.832 23.6163 152.317 25.2771 152.317 27.4411C152.317 29.6317 151.861 31.3143 150.963 32.44C150.071 33.5571 148.73 34.1246 146.975 34.1246ZM147.189 16.9071C143.862 16.9071 141.22 17.8818 139.337 19.8041C137.454 21.7267 136.499 24.3873 136.499 27.7127C136.499 30.8724 137.432 33.4117 139.27 35.2625C141.107 37.114 143.608 38.0519 146.703 38.0519C149.927 38.0519 152.517 37.0636 154.4 35.1146C156.282 33.1677 157.237 30.5323 157.237 27.2846C157.237 24.0768 156.341 21.5173 154.575 19.6788C152.807 17.8394 150.322 16.9071 147.189 16.9071ZM129.207 20.8866V17.393H124.462V37.5655H129.207V27.2465C129.207 25.4919 129.605 24.0504 130.39 22.9616C131.165 21.8857 132.198 21.3406 133.459 21.3406C133.887 21.3406 134.366 21.4111 134.886 21.5505C135.4 21.6891 135.773 21.8396 135.993 21.9979L136.192 22.1425V17.3586L136.115 17.3256C135.673 17.1378 135.048 17.0431 134.257 17.0431C133.065 17.0431 131.997 17.4262 131.083 18.1806C130.281 18.8437 129.701 19.7528 129.258 20.8866H129.207ZM115.965 16.9071C113.788 16.9071 111.846 17.3739 110.194 18.2941C108.539 19.2164 107.259 20.5332 106.388 22.2076C105.521 23.8779 105.081 25.8291 105.081 28.0049C105.081 29.9109 105.508 31.66 106.352 33.2016C107.196 34.7457 108.39 35.9537 109.902 36.7915C111.412 37.6283 113.158 38.0525 115.09 38.0525C117.345 38.0525 119.271 37.6017 120.814 36.7126L120.877 36.6768V32.3295L120.677 32.4751C119.978 32.9845 119.197 33.391 118.356 33.6839C117.517 33.9766 116.752 34.1246 116.082 34.1246C114.22 34.1246 112.725 33.542 111.64 32.3933C110.553 31.2432 110.002 29.6282 110.002 27.596C110.002 25.551 110.577 23.8945 111.71 22.6723C112.839 21.4536 114.337 20.8355 116.16 20.8355C117.72 20.8355 119.24 21.3636 120.678 22.4066L120.877 22.5512V17.9705L120.812 17.9344C120.271 17.6314 119.533 17.3813 118.617 17.1917C117.705 17.0024 116.812 16.9071 115.965 16.9071ZM101.813 17.3933H97.068V37.5655H101.813V17.3933ZM99.4891 8.79972C98.7081 8.79972 98.027 9.06559 97.4673 9.59243C96.9054 10.1208 96.6204 10.786 96.6204 11.571C96.6204 12.3437 96.902 12.9968 97.4586 13.511C98.0116 14.0238 98.6949 14.2837 99.4893 14.2837C100.284 14.2837 100.969 14.0238 101.529 13.5119C102.092 12.9968 102.378 12.3439 102.378 11.571C102.378 10.8134 102.1 10.155 101.552 9.61371C101.005 9.07346 100.311 8.79972 99.4891 8.79972ZM87.6496 15.9049V37.5655H92.4923V9.41724H85.7898L77.2706 30.325L69.0032 9.41724H62.0278V37.5653H66.5787V15.9028H66.7349L75.4651 37.5655H78.8994L87.4934 15.9049H87.6496Z" fill="black"/>
<path d="M23.2987 22.3336H0.976074V0.0109863H23.2987V22.3336Z" fill="#8F8F8F"/>
<path d="M47.9452 22.3336H25.623V0.0109863H47.9452V22.3336Z" fill="#BEBEBE"/>
<path d="M23.2981 46.9892H0.976074V24.6667H23.2981V46.9892Z" fill="#ACACAC"/>
<path d="M47.9452 46.9892H25.623V24.6667H47.9452V46.9892Z" fill="#D1D1D1"/>
</svg>
