<svg width="330" height="257" viewBox="0 0 330 257" fill="none" xmlns="http://www.w3.org/2000/svg">
<g clip-path="url(#clip0_1519_45354)">
<path fill-rule="evenodd" clip-rule="evenodd" d="M82.75 211C82.8881 211 83 210.888 83 210.75V210.75C83 210.633 83.0947 210.538 83.2115 210.538H94.8458C94.9839 210.538 95.0958 210.427 95.0958 210.288V197.058C95.0958 196.92 94.9839 196.808 94.8458 196.808H86C84.3431 196.808 83 195.465 83 193.808V160.446C83 158.789 84.3431 157.446 86 157.446L255 157.446C256.657 157.446 258 158.789 258 160.446V193.808C258 195.465 256.657 196.808 255 196.808H244.294C244.156 196.808 244.044 196.92 244.044 197.058V210.288C244.044 210.427 244.156 210.538 244.294 210.538H257.788C257.905 210.538 258 210.633 258 210.75V210.75C258 210.888 258.112 211 258.25 211H271.75C271.888 211 272 210.888 272 210.75V210.75C272 210.633 272.095 210.538 272.212 210.538H285.829C285.967 210.538 286.079 210.427 286.079 210.288V197.058C286.079 196.92 285.967 196.808 285.829 196.808H275C273.343 196.808 272 195.465 272 193.808V160.446C272 158.789 273.343 157.446 275 157.446H349.336C349.474 157.446 349.586 157.334 349.586 157.196V144.881C349.586 144.743 349.474 144.631 349.336 144.631H275C273.343 144.631 272 143.288 272 141.631V74.5827C272 71.8881 275.335 70.5036 277.358 72.284C278.19 73.0169 279.054 73.7518 279.95 74.4862C295.717 87.4088 321.035 99.8712 359.578 99.8712C398.122 99.8712 423.44 87.4088 439.206 74.4862C447.035 68.0703 452.41 61.6231 455.86 56.7129C457.585 54.2568 458.833 52.1793 459.668 50.673C460.086 49.9194 460.401 49.3077 460.622 48.8615C460.733 48.6384 460.82 48.4566 460.884 48.319C460.917 48.2502 460.943 48.1924 460.964 48.1461L460.992 48.0852L461.003 48.0612L461.007 48.0509C461.009 48.0462 461.011 48.0416 454.156 45C447.775 42.169 447.335 41.9694 447.306 41.9521C447.306 41.9519 447.303 41.9526 447.302 41.9528V41.9528C447.283 41.9945 447.243 42.0786 447.182 42.2025C447.059 42.4502 446.851 42.8562 446.55 43.398C445.949 44.4823 444.98 46.1056 443.586 48.0906C440.795 52.0625 436.319 57.4581 429.698 62.885C416.566 73.6479 394.595 84.8712 359.578 84.8712C324.562 84.8712 302.591 73.6479 289.459 62.885C282.837 57.4581 278.361 52.0625 275.571 48.0906C274.177 46.1056 273.208 44.4823 272.606 43.398C272.501 43.2085 272.408 43.0356 272.325 42.8803C272.106 42.47 272 42.0104 272 41.5454V41.25C272 41.1119 271.888 41 271.75 41H258.25C258.112 41 258 41.1119 258 41.25V41.8301C258 42.3099 257.887 42.7837 257.657 43.2046C257.623 43.267 257.587 43.3315 257.55 43.398C256.949 44.4823 255.98 46.1056 254.585 48.0906C251.795 52.0625 247.319 57.4581 240.698 62.885C227.566 73.6479 205.595 84.8712 170.578 84.8712C135.561 84.8712 113.59 73.6479 100.459 62.885C93.8373 57.4581 89.3613 52.0625 86.5711 48.0906C85.1767 46.1056 84.2076 44.4823 83.6063 43.398C83.5012 43.2086 83.4075 43.0358 83.3247 42.8805C83.1061 42.4702 83 42.0106 83 41.5456V41.25C83 41.1119 82.8881 41 82.75 41H69.25C69.1119 41 69 41.1119 69 41.25V41.4539C69 41.9336 68.887 42.4073 68.6568 42.8281C68.6225 42.891 68.5867 42.956 68.5495 43.023C67.9482 44.1073 66.9791 45.7306 65.5847 47.7156C62.7945 51.6875 58.3185 57.0831 51.6972 62.51C38.5654 73.2729 16.5944 84.4962 -18.4225 84.4962C-53.4393 84.4962 -75.4103 73.2729 -88.5421 62.51C-95.1634 57.0831 -99.6394 51.6875 -102.43 47.7156C-103.824 45.7306 -104.793 44.1073 -105.394 43.023C-105.695 42.4812 -105.903 42.0752 -106.026 41.8275C-106.087 41.7036 -106.127 41.6195 -106.146 41.5778L-106.161 41.5477L-106.156 41.5571L-106.151 41.5681L-106.148 41.5752C-106.146 41.5792 -106.144 41.5834 -113 44.625C-119.856 47.6666 -119.854 47.6712 -119.851 47.6759L-119.847 47.6862L-119.836 47.7102L-119.809 47.7711C-119.787 47.8174 -119.761 47.8752 -119.729 47.944C-119.664 48.0816 -119.577 48.2634 -119.466 48.4865C-119.245 48.9327 -118.93 49.5445 -118.512 50.298C-117.677 51.8043 -116.429 53.8818 -114.704 56.3379C-111.255 61.2481 -105.879 67.6953 -98.0506 74.1112C-82.2838 87.0338 -56.966 99.4962 -18.4225 99.4962C-3.60165 99.4962 9.26366 97.6535 20.3824 94.6506C22.3284 94.125 24.2761 95.5681 24.2761 97.5838V141.631C24.2761 143.288 22.9329 144.631 21.2761 144.631H-12.0257C-12.1637 144.631 -12.2757 144.743 -12.2757 144.881V157.196C-12.2757 157.334 -12.1637 157.446 -12.0257 157.446H66C67.6569 157.446 69 158.789 69 160.446V193.808C69 195.465 67.6569 196.808 66 196.808H53.3114C53.1733 196.808 53.0614 196.92 53.0614 197.058V210.288C53.0614 210.427 53.1733 210.538 53.3114 210.538H68.7885C68.9053 210.538 69 210.633 69 210.75V210.75C69 210.888 69.1119 211 69.25 211H82.75ZM36.6344 88.9937C35.5196 89.4769 34.7847 90.5687 34.7847 91.7837V141.631C34.7847 143.288 36.1278 144.631 37.7847 144.631H66C67.6569 144.631 69 143.288 69 141.631V74.3423C69 71.6513 65.6732 70.2658 63.6496 72.0397C62.863 72.7292 62.0485 73.4204 61.2057 74.1112C54.7178 79.4287 46.6127 84.6683 36.6344 88.9937ZM88.3576 72.2841C86.335 70.5038 83 71.8883 83 74.5828V141.631C83 143.288 84.3431 144.631 86 144.631H113.111C114.768 144.631 116.111 143.288 116.111 141.631V91.6041C116.111 90.4022 115.392 89.3197 114.295 88.8285C104.877 84.6107 97.1702 79.5843 90.9501 74.4862C90.054 73.7518 89.1901 73.017 88.3576 72.2841ZM130.547 94.6877C128.593 94.1388 126.62 95.5836 126.62 97.6129V141.631C126.62 143.288 127.963 144.631 129.62 144.631H160.401C162.058 144.631 163.401 143.288 163.401 141.631V102.602C163.401 100.993 162.131 99.674 160.526 99.5792C149.337 98.9182 139.38 97.1696 130.547 94.6877ZM176.853 99.7588C175.219 99.8179 173.909 101.149 173.909 102.784V141.631C173.909 143.288 175.252 144.631 176.909 144.631H207.69C209.346 144.631 210.69 143.288 210.69 141.631V98.627C210.69 96.6385 208.79 95.2001 206.86 95.6792C197.967 97.8872 187.998 99.3556 176.853 99.7588ZM223.116 90.4245C221.966 90.8906 221.198 92.0008 221.198 93.2424V141.631C221.198 143.288 222.541 144.631 224.198 144.631H255C256.657 144.631 258 143.288 258 141.631V74.7179C258 72.0269 254.673 70.6414 252.65 72.4153C251.863 73.1047 251.049 73.7956 250.206 74.4862C243.181 80.2443 234.259 85.911 223.116 90.4245Z" fill="#B9E1C7"/>
</g>
<defs>
<clipPath id="clip0_1519_45354">
<rect width="330" height="266" fill="white"/>
</clipPath>
</defs>
</svg>
