<svg width="262" height="238" viewBox="0 0 262 238" fill="none" xmlns="http://www.w3.org/2000/svg">
<g clip-path="url(#clip0_1761_7635)">
<path fill-rule="evenodd" clip-rule="evenodd" d="M76.75 211C76.8881 211 77 210.888 77 210.75C77 210.633 77.0947 210.538 77.2115 210.538H88.8458C88.9839 210.538 89.0958 210.427 89.0958 210.288V197.058C89.0958 196.92 88.9839 196.808 88.8458 196.808H80C78.3431 196.808 77 195.465 77 193.808V160.446C77 158.789 78.3431 157.446 80 157.446L249 157.446C250.657 157.446 252 158.789 252 160.446V193.808C252 195.465 250.657 196.808 249 196.808H238.294C238.156 196.808 238.044 196.92 238.044 197.058V210.288C238.044 210.427 238.156 210.538 238.294 210.538H251.788C251.905 210.538 252 210.633 252 210.75C252 210.888 252.112 211 252.25 211H265.75C265.888 211 266 210.888 266 210.75C266 210.633 266.095 210.538 266.212 210.538H279.829C279.967 210.538 280.079 210.427 280.079 210.288V197.058C280.079 196.92 279.967 196.808 279.829 196.808H269C267.343 196.808 266 195.465 266 193.808V160.446C266 158.789 267.343 157.446 269 157.446H343.336C343.474 157.446 343.586 157.334 343.586 157.196V144.881C343.586 144.743 343.474 144.631 343.336 144.631H269C267.343 144.631 266 143.288 266 141.631V74.5827C266 71.8881 269.335 70.5036 271.358 72.284C272.19 73.0169 273.054 73.7518 273.95 74.4862C289.717 87.4088 315.035 99.8712 353.578 99.8712C392.122 99.8712 417.44 87.4088 433.206 74.4862C441.035 68.0703 446.41 61.6231 449.86 56.7129C451.585 54.2568 452.833 52.1793 453.668 50.673C454.086 49.9194 454.401 49.3077 454.622 48.8615C454.733 48.6384 454.82 48.4566 454.884 48.319C454.917 48.2502 454.943 48.1924 454.964 48.1461L454.992 48.0851L455.003 48.0612L455.007 48.0509C455.009 48.0461 455.011 48.0416 448.156 45C441.775 42.169 441.335 41.9694 441.306 41.9521C441.306 41.9519 441.303 41.9526 441.302 41.9528C441.283 41.9945 441.243 42.0786 441.182 42.2025C441.059 42.4502 440.851 42.8562 440.55 43.398C439.949 44.4823 438.98 46.1056 437.586 48.0906C434.795 52.0625 430.319 57.4581 423.698 62.885C410.566 73.6479 388.595 84.8712 353.578 84.8712C318.562 84.8712 296.591 73.6479 283.459 62.885C276.837 57.4581 272.361 52.0625 269.571 48.0906C268.177 46.1056 267.208 44.4823 266.606 43.398C266.501 43.2085 266.408 43.0356 266.325 42.8803C266.106 42.47 266 42.0103 266 41.5454V41.25C266 41.1119 265.888 41 265.75 41H252.25C252.112 41 252 41.1119 252 41.25V41.8301C252 42.3099 251.887 42.7837 251.657 43.2046C251.623 43.267 251.587 43.3315 251.55 43.398C250.949 44.4823 249.98 46.1056 248.585 48.0906C245.795 52.0625 241.319 57.4581 234.698 62.885C221.566 73.6479 199.595 84.8712 164.578 84.8712C129.561 84.8712 107.59 73.6479 94.4586 62.885C87.8373 57.4581 83.3613 52.0625 80.5711 48.0906C79.1767 46.1056 78.2076 44.4823 77.6063 43.398C77.5012 43.2086 77.4075 43.0358 77.3247 42.8805C77.1061 42.4702 77 42.0106 77 41.5456V41.25C77 41.1119 76.8881 41 76.75 41H63.25C63.1119 41 63 41.1119 63 41.25V41.4539C63 41.9335 62.8869 42.4073 62.6568 42.8281C62.6225 42.891 62.5867 42.956 62.5495 43.023C61.9482 44.1073 60.9791 45.7306 59.5847 47.7156C56.7945 51.6875 52.3185 57.0831 45.6972 62.51C32.5654 73.2729 10.5944 84.4962 -24.4225 84.4962C-59.4393 84.4962 -81.4103 73.2729 -94.5421 62.51C-101.163 57.0831 -105.639 51.6875 -108.43 47.7156C-109.824 45.7306 -110.793 44.1073 -111.394 43.023C-111.695 42.4812 -111.903 42.0752 -112.026 41.8275C-112.087 41.7036 -112.127 41.6195 -112.146 41.5778L-112.161 41.5476L-112.156 41.5571L-112.151 41.5681L-112.148 41.5752C-112.146 41.5792 -112.144 41.5834 -119 44.625C-125.856 47.6666 -125.854 47.6711 -125.851 47.6759L-125.847 47.6862L-125.836 47.7101L-125.809 47.7711C-125.787 47.8174 -125.761 47.8752 -125.729 47.944C-125.664 48.0816 -125.577 48.2634 -125.466 48.4865C-125.245 48.9327 -124.93 49.5444 -124.512 50.298C-123.677 51.8043 -122.429 53.8818 -120.704 56.3379C-117.255 61.2481 -111.879 67.6953 -104.051 74.1112C-88.2838 87.0338 -62.966 99.4962 -24.4225 99.4962C-9.60165 99.4962 3.26366 97.6535 14.3824 94.6506C16.3284 94.125 18.2761 95.5681 18.2761 97.5838V141.631C18.2761 143.288 16.9329 144.631 15.2761 144.631H-18.0257C-18.1637 144.631 -18.2757 144.743 -18.2757 144.881V157.196C-18.2757 157.334 -18.1637 157.446 -18.0257 157.446H60C61.6569 157.446 63 158.789 63 160.446V193.808C63 195.465 61.6569 196.808 60 196.808H47.3114C47.1733 196.808 47.0614 196.92 47.0614 197.058V210.288C47.0614 210.427 47.1733 210.538 47.3114 210.538H62.7885C62.9053 210.538 63 210.633 63 210.75C63 210.888 63.1119 211 63.25 211H76.75ZM30.6344 88.9937C29.5196 89.4769 28.7847 90.5687 28.7847 91.7837V141.631C28.7847 143.288 30.1278 144.631 31.7847 144.631H60C61.6569 144.631 63 143.288 63 141.631V74.3423C63 71.6513 59.6732 70.2658 57.6496 72.0397C56.863 72.7292 56.0485 73.4204 55.2057 74.1112C48.7178 79.4287 40.6127 84.6683 30.6344 88.9937ZM82.3576 72.2841C80.335 70.5038 77 71.8883 77 74.5828V141.631C77 143.288 78.3432 144.631 80 144.631H107.111C108.768 144.631 110.111 143.288 110.111 141.631V91.604C110.111 90.4022 109.392 89.3197 108.295 88.8285C98.8768 84.6107 91.1702 79.5843 84.9501 74.4862C84.054 73.7518 83.1901 73.017 82.3576 72.2841ZM124.547 94.6877C122.593 94.1387 120.62 95.5836 120.62 97.6129V141.631C120.62 143.288 121.963 144.631 123.62 144.631H154.401C156.058 144.631 157.401 143.288 157.401 141.631V102.602C157.401 100.993 156.131 99.674 154.526 99.5792C143.337 98.9182 133.38 97.1696 124.547 94.6877ZM170.853 99.7588C169.219 99.8179 167.909 101.149 167.909 102.784V141.631C167.909 143.288 169.252 144.631 170.909 144.631H201.69C203.346 144.631 204.69 143.288 204.69 141.631V98.627C204.69 96.6385 202.79 95.2001 200.86 95.6792C191.967 97.8872 181.998 99.3556 170.853 99.7588ZM217.116 90.4245C215.966 90.8906 215.198 92.0008 215.198 93.2424V141.631C215.198 143.288 216.541 144.631 218.198 144.631H249C250.657 144.631 252 143.288 252 141.631V74.7179C252 72.0269 248.673 70.6414 246.65 72.4153C245.863 73.1046 245.049 73.7956 244.206 74.4862C237.181 80.2443 228.259 85.911 217.116 90.4245Z" fill="#B9E1C7"/>
</g>
<defs>
<clipPath id="clip0_1761_7635">
<rect width="295" height="238" fill="white"/>
</clipPath>
</defs>
</svg>
