<svg width="105" height="101" viewBox="0 0 105 101" fill="none" xmlns="http://www.w3.org/2000/svg">
<path fill-rule="evenodd" clip-rule="evenodd" d="M52.3552 70.5H46.5503C46.0351 71.7928 45.3707 73.0095 44.5786 74.1286V81.5H55.3517C56.1711 82.9107 57.1587 84.2534 58.3143 85.5H44.5786V95.6589C44.5786 96.5035 43.5962 96.9678 42.9437 96.4315L30.7538 86.4145L32.0236 84.8693L42.5786 93.5428V76.4838C39.4345 79.5863 35.1237 81.5 30.3678 81.5C25.3558 81.5 20.838 79.3746 17.6592 75.9721V93.5428L28.2142 84.8693C29.3211 83.9597 30.9167 83.9597 32.0235 84.8692L30.7538 86.4145C30.3848 86.1113 29.853 86.1113 29.484 86.4145L17.2941 96.4315C16.6415 96.9678 15.6592 96.5035 15.6592 95.6589V85.5H5.22852C5.09045 85.5 4.97852 85.3881 4.97852 85.25V17.75C4.97852 17.6119 5.09044 17.5 5.22852 17.5H94.3378C94.4758 17.5 94.5878 17.6119 94.5878 17.75V57.9105C93.7537 56.6833 92.7836 55.5184 91.6775 54.4362C91.3227 54.0891 90.9593 53.7557 90.5878 53.4359V21.5H8.97852V81.5H15.6592V74.0967C13.6348 71.2094 12.446 67.6884 12.446 63.8886C12.446 57.3091 16.0102 51.5658 21.3053 48.5H19.1677C19.0297 48.5 18.9177 48.3881 18.9177 48.25V44.75C18.9177 44.6119 19.0297 44.5 19.1677 44.5L80.3986 44.5C80.5366 44.5 80.6486 44.6119 80.6486 44.75V48.25C80.6486 48.3125 80.6256 48.3697 80.5877 48.4135C77.0472 47.6146 73.3511 47.6435 69.8218 48.5L38.9325 48.5C41.7857 50.152 44.1363 52.5813 45.6976 55.5H58.0813C56.9573 56.7498 55.9988 58.0922 55.2057 59.5H47.2475C47.6029 60.9036 47.7918 62.3739 47.7918 63.8886L47.7917 63.9439L47.7918 64C47.7918 64.8488 47.7317 65.6835 47.6154 66.5H52.6954C52.4609 67.8225 52.3475 69.1615 52.3552 70.5ZM94.5878 82.8343C93.9577 83.7614 93.25 84.6529 92.4647 85.5H94.3378C94.4758 85.5 94.5878 85.3881 94.5878 85.25V82.8343ZM38.0852 37.5C37.9472 37.5 37.8352 37.3881 37.8352 37.25V33.75C37.8352 33.6119 37.9472 33.5 38.0852 33.5H61.481C61.6191 33.5 61.731 33.6119 61.731 33.75V37.25C61.731 37.3881 61.6191 37.5 61.481 37.5L38.0852 37.5ZM42.5786 73.4654L42.941 72.9485C44.7271 70.4012 45.7803 67.2991 45.7917 63.944C45.7617 55.4012 38.8595 48.5 30.3678 48.5C21.8575 48.5 14.9438 55.4314 14.9438 64C14.9438 72.5686 21.8575 79.5 30.3678 79.5C35.3339 79.5 39.7563 77.1397 42.5786 73.4712V73.4654ZM27.6537 53.5691L25.6475 57.8292L21.106 58.5208C18.6892 58.8889 17.7037 61.8382 19.4138 63.5852L22.7858 67.0299L21.9961 71.8551C21.5918 74.3254 24.2121 76.1751 26.4045 74.9672L30.3678 72.7835L34.3312 74.9672C36.5235 76.1751 39.1438 74.3254 38.7395 71.8551L37.9498 67.0299L41.3218 63.5852C43.0319 61.8382 42.0465 58.8889 39.6296 58.5208L35.0881 57.8292L33.0819 53.5691C32.0008 51.2733 28.7348 51.2733 27.6537 53.5691ZM29.0392 60.0157L30.3678 57.1944L31.6964 60.0157C32.1222 60.92 32.9706 61.5529 33.9588 61.7034L37.0984 62.1815L34.7374 64.5934C34.0697 65.2755 33.7665 66.2346 33.9206 67.1765L34.4598 70.4711L31.8155 69.0142C30.9143 68.5176 29.8214 68.5176 28.9201 69.0142L26.2758 70.4711L26.815 67.1765C26.9691 66.2346 26.6659 65.2755 25.9982 64.5934L23.6372 62.1815L26.7768 61.7034C27.765 61.5529 28.6134 60.92 29.0392 60.0157Z" fill="#8F8F8F"/>
<mask id="path-2-inside-1_5908_47060" fill="white">
<path fill-rule="evenodd" clip-rule="evenodd" d="M84.2011 60.5895L64.994 79.3818C60.4752 74.142 60.7384 66.2986 65.7838 61.3622C70.8292 56.4258 78.8457 56.1682 84.2011 60.5895ZM86.8461 63.5124L67.9814 81.9696C73.2665 85.345 80.4201 84.7627 85.0605 80.2226C89.7008 75.6825 90.296 68.6833 86.8461 63.5124ZM87.9196 58.5648C94.3961 64.9015 94.7955 74.9325 89.1177 81.7247C89.1971 81.7821 89.2731 81.8459 89.345 81.9163L100.367 92.6998C101.144 93.4607 101.144 94.6943 100.367 95.4552C99.5891 96.216 98.3283 96.216 97.5506 95.4552L86.5289 84.6716C86.447 84.5915 86.3738 84.5062 86.3092 84.4167C79.3739 89.7356 69.3126 89.27 62.9247 83.02C56.0225 76.2669 56.0225 65.3179 62.9247 58.5648C69.8268 51.8117 81.0174 51.8117 87.9196 58.5648Z"/>
</mask>
<path fill-rule="evenodd" clip-rule="evenodd" d="M84.2011 60.5895L64.994 79.3818C60.4752 74.142 60.7384 66.2986 65.7838 61.3622C70.8292 56.4258 78.8457 56.1682 84.2011 60.5895ZM86.8461 63.5124L67.9814 81.9696C73.2665 85.345 80.4201 84.7627 85.0605 80.2226C89.7008 75.6825 90.296 68.6833 86.8461 63.5124ZM87.9196 58.5648C94.3961 64.9015 94.7955 74.9325 89.1177 81.7247C89.1971 81.7821 89.2731 81.8459 89.345 81.9163L100.367 92.6998C101.144 93.4607 101.144 94.6943 100.367 95.4552C99.5891 96.216 98.3283 96.216 97.5506 95.4552L86.5289 84.6716C86.447 84.5915 86.3738 84.5062 86.3092 84.4167C79.3739 89.7356 69.3126 89.27 62.9247 83.02C56.0225 76.2669 56.0225 65.3179 62.9247 58.5648C69.8268 51.8117 81.0174 51.8117 87.9196 58.5648Z" fill="#8F8F8F"/>
<path d="M64.994 79.3818L64.2367 80.0349L64.9322 80.8413L65.6934 80.0966L64.994 79.3818ZM84.2011 60.5895L84.9005 61.3043L85.6955 60.5264L84.8378 59.8183L84.2011 60.5895ZM65.7838 61.3622L66.4831 62.077L65.7838 61.3622ZM86.8461 63.5124L87.6779 62.9574L87.0087 61.9543L86.1467 62.7976L86.8461 63.5124ZM67.9814 81.9696L67.2821 81.2548L66.3825 82.135L67.4431 82.8124L67.9814 81.9696ZM85.0605 80.2226L84.3611 79.5078L85.0605 80.2226ZM89.1177 81.7247L88.3505 81.0834L87.662 81.907L88.5323 82.5354L89.1177 81.7247ZM87.9196 58.5648L87.2202 59.2796L87.9196 58.5648ZM89.345 81.9163L88.6457 82.631L88.6457 82.631L89.345 81.9163ZM100.367 92.6998L99.6674 93.4146H99.6674L100.367 92.6998ZM97.5506 95.4552L98.2499 94.7404L97.5506 95.4552ZM86.5289 84.6716L85.8295 85.3864L86.5289 84.6716ZM86.3092 84.4167L87.1198 83.8311L86.5172 82.997L85.7006 83.6232L86.3092 84.4167ZM62.9247 83.02L62.2253 83.7347L62.9247 83.02ZM62.9247 58.5648L63.624 59.2796L62.9247 58.5648ZM65.6934 80.0966L84.9005 61.3043L83.5018 59.8747L64.2947 78.667L65.6934 80.0966ZM65.7513 78.7287C61.5753 73.8865 61.8173 66.6421 66.4831 62.077L65.0844 60.6474C59.6596 65.9551 59.3751 74.3976 64.2367 80.0349L65.7513 78.7287ZM66.4831 62.077C71.1589 57.5022 78.5989 57.2612 83.5645 61.3607L84.8378 59.8183C79.0926 55.0753 70.4994 55.3495 65.0844 60.6474L66.4831 62.077ZM86.1467 62.7976L67.2821 81.2548L68.6807 82.6844L87.5454 64.2271L86.1467 62.7976ZM84.3611 79.5078C80.0621 83.714 73.4231 84.2585 68.5197 81.1268L67.4431 82.8124C73.1099 86.4316 80.7782 85.8114 85.7598 80.9374L84.3611 79.5078ZM86.0142 64.0674C89.201 68.8439 88.6529 75.3087 84.3611 79.5078L85.7598 80.9374C90.7487 76.0562 91.391 68.5227 87.6779 62.9574L86.0142 64.0674ZM89.885 82.3661C95.8953 75.176 95.4711 64.5542 88.6189 57.85L87.2202 59.2796C93.3212 65.2488 93.6957 74.6889 88.3505 81.0834L89.885 82.3661ZM90.0444 81.2015C89.9367 81.0961 89.8226 81.0003 89.7032 80.9141L88.5323 82.5354C88.5716 82.5639 88.6096 82.5957 88.6457 82.631L90.0444 81.2015ZM101.066 91.9851L90.0444 81.2015L88.6457 82.631L99.6674 93.4146L101.066 91.9851ZM101.066 96.17C102.245 95.0169 102.245 93.1381 101.066 91.9851L99.6674 93.4146C100.044 93.7833 100.044 94.3717 99.6674 94.7404L101.066 96.17ZM96.8513 96.17C98.0176 97.3111 99.8998 97.3111 101.066 96.17L99.6674 94.7404C99.2784 95.121 98.6389 95.121 98.2499 94.7404L96.8513 96.17ZM85.8295 85.3864L96.8513 96.17L98.2499 94.7404L87.2282 83.9568L85.8295 85.3864ZM85.4986 85.0024C85.5965 85.1379 85.707 85.2664 85.8295 85.3864L87.2282 83.9568C87.1871 83.9166 87.1511 83.8745 87.1198 83.8311L85.4986 85.0024ZM62.2253 83.7347C68.9746 90.3383 79.594 90.8271 86.9178 85.2103L85.7006 83.6232C79.1539 88.6441 69.6507 88.2017 63.624 82.3052L62.2253 83.7347ZM62.2253 57.85C54.9223 64.9954 54.9223 76.5894 62.2253 83.7347L63.624 82.3052C57.1227 75.9443 57.1227 65.6405 63.624 59.2796L62.2253 57.85ZM88.6189 57.85C81.3281 50.7167 69.5162 50.7167 62.2253 57.85L63.624 59.2796C70.1375 52.9068 80.7068 52.9068 87.2202 59.2796L88.6189 57.85Z" fill="#8F8F8F" mask="url(#path-2-inside-1_5908_47060)"/>
</svg>
