<svg xmlns="http://www.w3.org/2000/svg" width="101" height="100" viewBox="0 0 101 100" fill="none">
<path fill-rule="evenodd" clip-rule="evenodd" d="M47.255 9.08984C36.676 9.08984 28.1 17.6658 28.1 28.2448C28.1 38.8239 36.676 47.3998 47.255 47.3998C57.834 47.3998 66.41 38.8239 66.41 28.2448C66.41 17.6658 57.834 9.08984 47.255 9.08984ZM25.1 28.2448C25.1 16.009 35.0191 6.08984 47.255 6.08984C59.4909 6.08984 69.41 16.009 69.41 28.2448C69.41 40.4807 59.4909 50.3998 47.255 50.3998C35.0191 50.3998 25.1 40.4807 25.1 28.2448ZM47.845 24.7138V35.9998H45.128V24.7138H47.845ZM48.252 21.4248C48.252 21.6594 48.2043 21.8794 48.109 22.0848C48.0137 22.2901 47.8853 22.4698 47.724 22.6238C47.57 22.7778 47.3867 22.9024 47.174 22.9978C46.9613 23.0858 46.734 23.1298 46.492 23.1298C46.2573 23.1298 46.0337 23.0858 45.821 22.9978C45.6157 22.9024 45.436 22.7778 45.282 22.6238C45.128 22.4698 45.0033 22.2901 44.908 22.0848C44.82 21.8794 44.776 21.6594 44.776 21.4248C44.776 21.1828 44.82 20.9554 44.908 20.7428C45.0033 20.5301 45.128 20.3468 45.282 20.1928C45.436 20.0388 45.6157 19.9178 45.821 19.8298C46.0337 19.7344 46.2573 19.6868 46.492 19.6868C46.734 19.6868 46.9613 19.7344 47.174 19.8298C47.3867 19.9178 47.57 20.0388 47.724 20.1928C47.8853 20.3468 48.0137 20.5301 48.109 20.7428C48.2043 20.9554 48.252 21.1828 48.252 21.4248ZM88.4698 55.4893C85.7552 53.068 82.2382 53.9779 80.6529 55.5407C80.6419 55.5516 80.631 55.5627 80.6203 55.5739L66.7658 70.1075H53.1597C52.3297 70.1075 51.7615 69.5167 51.7615 68.7504C51.7615 67.984 52.3297 67.3932 53.1597 67.3932H63.9403C65.6928 67.3932 67.0219 66.7055 67.8751 65.6156C68.6824 64.5844 68.9602 63.3293 68.9602 62.2907C68.9602 59.8906 67.1827 57.3124 63.9403 57.3124H44.096C41.5412 57.3124 39.1517 58.3504 37.3724 60.1045L26.8356 70.473L24.8161 68.4679C24.5221 68.176 24.0456 68.176 23.7516 68.4679L15.7205 76.442C15.4265 76.7338 15.4265 77.207 15.7205 77.4988L35.1508 96.7909C35.4447 97.0828 35.9213 97.0828 36.2152 96.7909L44.2464 88.8169C44.5403 88.525 44.5403 88.0518 44.2464 87.76L43.6238 87.1418L48.9817 81.8496H68.5277C71.2663 81.8496 73.8116 80.5158 75.4619 78.4714L89.3796 63.3761C90.103 62.6387 90.6188 61.3665 90.6188 59.9934C90.6187 58.5141 90.0267 56.8778 88.4699 55.4894L88.4698 55.4893ZM41.4948 85.028L28.9646 72.5869L39.4776 62.2418L39.4785 62.2409C40.7235 61.0136 42.3664 60.3124 44.096 60.3124H63.9403C65.2585 60.3124 65.9602 61.2668 65.9602 62.2907C65.9602 62.8496 65.803 63.3957 65.5129 63.7664C65.2686 64.0784 64.8378 64.3932 63.9403 64.3932H53.1597C50.7134 64.3932 48.7615 66.2869 48.7615 68.7504C48.7615 71.2139 50.7134 73.1075 53.1597 73.1075H67.4082C67.8185 73.1075 68.2108 72.9395 68.4939 72.6425L82.7729 57.6636C83.465 56.998 85.1693 56.5653 86.4729 57.7281L86.473 57.7282C87.3871 58.5434 87.6187 59.3631 87.6188 59.9935C87.6188 60.7132 87.3237 61.1901 87.2377 61.2756C87.2223 61.2909 87.2072 61.3066 87.1924 61.3226L73.2214 76.4757C73.197 76.5021 73.1736 76.5294 73.1512 76.5575C72.0282 77.9666 70.3058 78.8496 68.5277 78.8496H48.3658C47.9711 78.8496 47.5924 79.0051 47.3117 79.2824L41.4948 85.028ZM24.2839 70.0532L40.4276 86.0821L40.3655 86.1435L42.4737 88.2778L42.5566 88.196L42.6497 88.2884L35.683 95.2056L17.3171 76.9704L24.2839 70.0532Z" fill="url(#paint0_linear_3915_7679)"/>
<defs>
<linearGradient id="paint0_linear_3915_7679" x1="76.3104" y1="6.08985" x2="25.0445" y2="99.4617" gradientUnits="userSpaceOnUse">
<stop stop-color="#527984"/>
<stop offset="0.5" stop-color="#79C6AA"/>
<stop offset="1" stop-color="#C4DAB5"/>
</linearGradient>
</defs>
</svg>