<svg width="126" height="126" viewBox="0 0 126 126" fill="none" xmlns="http://www.w3.org/2000/svg">
<ellipse cx="29.9999" cy="29.9999" rx="29.9999" ry="29.9999" transform="matrix(-0.900719 0.434402 0.434402 0.900719 77.498 7.56006)" fill="url(#paint0_linear_8429_31741)" stroke="url(#paint1_linear_8429_31741)" stroke-width="2" stroke-linecap="round" stroke-linejoin="round"/>
<path fill-rule="evenodd" clip-rule="evenodd" d="M100.723 29.6667C90.8106 9.11465 66.1146 0.489099 45.5625 10.401C25.0104 20.313 16.3849 45.009 26.2968 65.5611C34.9067 83.4135 54.6693 92.265 73.1832 87.7886L85.8617 114.077C87.8135 118.124 92.6767 119.823 96.7239 117.871C100.771 115.919 102.47 111.056 100.518 107.009L87.944 80.9372C103.718 69.3975 109.517 47.9023 100.723 29.6667ZM46.8657 13.1032C65.9254 3.911 88.8282 11.9102 98.0204 30.97C106.355 48.2508 100.556 68.6936 85.1945 79.2082C84.5827 79.627 84.3686 80.4299 84.6907 81.0977L97.8156 108.312C99.0477 110.867 97.9755 113.937 95.4207 115.169C92.8659 116.401 89.796 115.329 88.5638 112.774L75.351 85.3774C75.0365 84.7253 74.3012 84.3909 73.6031 84.5824C56.117 89.3789 37.157 81.1734 28.9989 64.2578C19.8067 45.1981 27.806 22.2954 46.8657 13.1032ZM76.6307 27.7673C80.4195 37.5333 79.7973 46.5875 75.5205 53.0671C71.3552 59.3777 63.9179 62.9509 54.5155 62.4564C52.3264 63.9606 50.0079 65.1156 47.5746 65.7774C46.7752 65.9948 45.9509 65.523 45.7335 64.7237C45.5161 63.9243 45.9879 63.1 46.7873 62.8826C48.5762 62.396 50.3243 61.5829 52.0196 60.51C49.7249 53.4029 49.8242 47.6589 51.4383 43.042C53.1159 38.2431 56.3671 34.8419 59.8719 32.457C63.3676 30.0784 67.1637 28.6757 70.0566 27.867C71.5089 27.461 72.7482 27.2006 73.6293 27.0411C74.0701 26.9613 74.4223 26.9066 74.6677 26.8714C74.7904 26.8538 74.8865 26.8411 74.9537 26.8326C74.9873 26.8284 75.0138 26.8252 75.0327 26.8229L75.0554 26.8203L75.0625 26.8194L75.065 26.8192C75.0657 26.8191 75.0664 26.819 75.1477 27.5496L75.1478 27.5496L75.0667 26.819C75.7427 26.7439 76.3847 27.1331 76.6307 27.7673ZM75.237 33.2502C77.0459 40.5193 76.0329 46.8449 73.0167 51.4145C70.0492 55.9105 65.0032 58.9191 58.288 59.4263C61.2689 56.6817 63.9524 53.3697 66.2927 49.9466C70.1585 44.2923 73.2156 38.1457 75.237 33.2502ZM68.1377 41.1579C67.2944 42.7061 66.3837 44.2726 65.4108 45.8201L61.5163 34.9668L61.5596 34.9373C62.7888 34.1009 64.0682 33.394 65.3328 32.798L68.1377 41.1579ZM70.0557 37.4431C71.3477 34.8008 72.4159 32.3099 73.232 30.1758C72.5577 30.3177 71.755 30.5072 70.8643 30.7562C70.0098 30.9951 69.0801 31.2872 68.1093 31.6421L70.0557 37.4431ZM54.5871 58.6612C55.8433 57.6471 57.0647 56.5004 58.2459 55.2511C58.2209 55.2005 58.1986 55.1479 58.1791 55.0936L54.2406 44.1175C52.9768 47.7958 52.7694 52.5378 54.5871 58.6612ZM56.0824 40.3678L60.5026 52.6862C61.4835 51.493 62.4313 50.2369 63.3423 48.9379L59.033 36.9286C57.934 37.9359 56.9318 39.0763 56.0824 40.3678Z" fill="url(#paint2_linear_8429_31741)"/>
<defs>
<linearGradient id="paint0_linear_8429_31741" x1="48.5713" y1="1.08503e-06" x2="18.4016" y2="66.5071" gradientUnits="userSpaceOnUse">
<stop stop-color="#EEF1F3"/>
<stop offset="0.5" stop-color="#F1F9F6"/>
<stop offset="1" stop-color="#F9FBF8"/>
</linearGradient>
<linearGradient id="paint1_linear_8429_31741" x1="31.8986" y1="-2.51496" x2="15.9165" y2="48.3063" gradientUnits="userSpaceOnUse">
<stop stop-color="#7D9AA2"/>
<stop offset="0.5" stop-color="#9AD3BE"/>
<stop offset="1" stop-color="#D1E2C7"/>
</linearGradient>
<linearGradient id="paint2_linear_8429_31741" x1="89.0913" y1="6.2898" x2="21.969" y2="115.1" gradientUnits="userSpaceOnUse">
<stop stop-color="#527984"/>
<stop offset="0.5" stop-color="#79C6AA"/>
<stop offset="1" stop-color="#C4DAB5"/>
</linearGradient>
</defs>
</svg>
