<svg width="120" height="120" viewBox="0 0 120 120" fill="none" xmlns="http://www.w3.org/2000/svg">
<path d="M99.1837 16.3266H65.8586L57.5511 8.57148L47.164 4.89801L35.5103 4.28577L25.1021 6.73475L14.6939 13.4694L9.18373 19.5919L4.28577 31.2245L3.06128 39.796L5.51026 51.4286L10.4082 61.2245L17.0901 69.1837V97.9592H21.967H86.9916L99.1837 89.796V16.3266Z" fill="white"/>
<path d="M90.7779 98.7412H20.5619C18.7923 98.7412 17.4019 97.3508 17.4019 95.5812V68.5312" stroke="#8F8F8F" stroke-width="3" stroke-miterlimit="10" stroke-linejoin="round"/>
<path d="M66.6985 15.8218H97.1612C98.9309 15.8218 100.321 17.2122 100.321 18.9818V92.1051" stroke="#8F8F8F" stroke-width="3" stroke-miterlimit="10" stroke-linejoin="round"/>
<rect x="68.739" y="61.124" width="20.0862" height="10.7692" transform="rotate(45 68.739 61.124)" stroke="#8F8F8F" stroke-width="2" stroke-miterlimit="10"/>
<path d="M39.5853 75.4201C59.3763 75.4201 75.4201 59.3763 75.4201 39.5853C75.4201 19.7943 59.3763 3.75049 39.5853 3.75049C19.7943 3.75049 3.75049 19.7943 3.75049 39.5853C3.75049 59.3763 19.7943 75.4201 39.5853 75.4201Z" fill="#EFEFEF" stroke="#8F8F8F" stroke-width="3" stroke-miterlimit="10"/>
<path d="M39.5853 66.0665C54.2105 66.0665 66.0664 54.2105 66.0664 39.5854C66.0664 24.9602 54.2105 13.1042 39.5853 13.1042C24.9602 13.1042 13.1042 24.9602 13.1042 39.5854C13.1042 54.2105 24.9602 66.0665 39.5853 66.0665Z" fill="white" stroke="#8F8F8F" stroke-width="2" stroke-miterlimit="10"/>
<mask id="path-7-outside-1" maskUnits="userSpaceOnUse" x="21.0769" y="28.7693" width="38" height="23" fill="black">
<rect fill="white" x="21.0769" y="28.7693" width="38" height="23"/>
<path fill-rule="evenodd" clip-rule="evenodd" d="M23.0769 40.0001C26.604 34.4512 32.806 30.7693 39.868 30.7693C46.9299 30.7693 53.1319 34.4512 56.659 40.0001C53.1319 45.5489 46.9299 49.2308 39.868 49.2308C32.806 49.2308 26.604 45.5489 23.0769 40.0001Z"/>
</mask>
<path fill-rule="evenodd" clip-rule="evenodd" d="M23.0769 40.0001C26.604 34.4512 32.806 30.7693 39.868 30.7693C46.9299 30.7693 53.1319 34.4512 56.659 40.0001C53.1319 45.5489 46.9299 49.2308 39.868 49.2308C32.806 49.2308 26.604 45.5489 23.0769 40.0001Z" fill="#EFEFEF"/>
<path d="M23.0769 40.0001L21.389 38.9272C20.9729 39.5819 20.9729 40.4182 21.389 41.0729L23.0769 40.0001ZM56.659 40.0001L58.3469 41.0729C58.763 40.4182 58.763 39.5819 58.3469 38.9272L56.659 40.0001ZM24.7648 41.0729C27.9404 36.0771 33.5186 32.7693 39.868 32.7693V28.7693C32.0935 28.7693 25.2677 32.8253 21.389 38.9272L24.7648 41.0729ZM39.868 32.7693C46.2174 32.7693 51.7955 36.0771 54.9711 41.0729L58.3469 38.9272C54.4682 32.8253 47.6424 28.7693 39.868 28.7693V32.7693ZM54.9711 38.9272C51.7955 43.923 46.2174 47.2308 39.868 47.2308V51.2308C47.6424 51.2308 54.4682 47.1748 58.3469 41.0729L54.9711 38.9272ZM39.868 47.2308C33.5186 47.2308 27.9404 43.923 24.7648 38.9272L21.389 41.0729C25.2677 47.1748 32.0935 51.2308 39.868 51.2308V47.2308Z" fill="#8F8F8F" mask="url(#path-7-outside-1)"/>
<rect x="85.0574" y="73.3268" width="45.2007" height="16.5898" rx="2" transform="rotate(45 85.0574 73.3268)" fill="#EFEFEF" stroke="#8F8F8F" stroke-width="2" stroke-miterlimit="10"/>
<path d="M40 47.1539C43.951 47.1539 47.1539 43.951 47.1539 40C47.1539 36.0491 43.951 32.8462 40 32.8462C36.0491 32.8462 32.8462 36.0491 32.8462 40C32.8462 43.951 36.0491 47.1539 40 47.1539Z" fill="white" stroke="#8F8F8F" stroke-width="2" stroke-linejoin="round"/>
</svg>
