<svg width="150" height="150" viewBox="0 0 150 150" fill="none" xmlns="http://www.w3.org/2000/svg">
<circle cx="75" cy="75" r="75" fill="#DCF0E3"/>
<path d="M72.8548 28.618C73.4088 28.1108 74.0635 27.8572 74.7685 27.8572C75.4736 27.8572 76.1282 28.1108 76.8333 28.618C85.5457 36.6822 96.6753 41.5005 108.812 41.5005C109.723 41.5005 110.589 41.4545 111.496 41.4063L111.632 41.399H111.783C113.244 41.399 114.553 42.5655 114.805 44.2393C115.46 48.2967 115.812 52.5064 115.812 56.8174C115.812 86.6399 99.1933 112.05 75.8764 121.889C75.5239 122.041 75.1714 122.092 74.8189 122.092C74.4664 122.092 74.1138 122.041 73.7613 121.889C50.4444 112.05 33.8254 86.6399 33.8254 56.8174C33.8254 52.5064 34.178 48.2967 34.8326 44.2393C35.0845 42.6163 36.3938 41.399 37.8543 41.399H38.0054C38.9622 41.4497 39.8687 41.5005 40.8255 41.5005C52.9624 41.5005 64.0921 36.6822 72.8548 28.618Z" fill="white" stroke="#4FB573" stroke-width="3"/>
<path d="M106.877 49.9895L106.878 50.0001C107.411 53.2696 107.698 56.6619 107.698 60.136C107.698 84.1856 94.1603 104.598 75.283 112.482L75.2755 112.486C75.1383 112.544 74.9874 112.571 74.7937 112.571C74.6 112.571 74.4491 112.544 74.3119 112.486L74.3044 112.482C55.427 104.598 41.8889 84.1856 41.8889 60.136C41.8889 56.6619 42.1759 53.2696 42.7089 50.0001L42.7089 50.0001L42.7099 49.9941C42.853 49.081 43.5742 48.5141 44.2211 48.5141H44.3198C44.3511 48.5158 44.3824 48.5174 44.4137 48.5191C45.1579 48.5582 45.8978 48.5972 46.6785 48.5972C56.988 48.5972 66.4277 44.5443 73.8416 37.7915C74.1205 37.5391 74.4239 37.4285 74.752 37.4285C75.0587 37.4285 75.3887 37.5258 75.8323 37.8326C83.1991 44.5617 92.6217 48.5972 102.909 48.5972C103.689 48.5972 104.427 48.5583 105.169 48.5193L105.181 48.5187L105.268 48.5141H105.366C106.026 48.5141 106.734 49.0524 106.877 49.9895Z" fill="#DCF0E3" stroke="#4FB573" stroke-width="2"/>
<path d="M74.8188 89.4801C84.1641 89.4801 91.74 81.8504 91.74 72.4386C91.74 63.0269 84.1641 55.3972 74.8188 55.3972C65.4736 55.3972 57.8977 63.0269 57.8977 72.4386C57.8977 81.8504 65.4736 89.4801 74.8188 89.4801Z" fill="white" stroke="#4FB573" stroke-width="2" stroke-miterlimit="10"/>
<path d="M66.1064 75.5832L70.9914 80.5029L83.4808 67.874" stroke="#4FB573" stroke-width="2" stroke-miterlimit="10" stroke-linecap="round" stroke-linejoin="round"/>
</svg>
