<svg width="183" height="64" viewBox="0 0 183 64" fill="none" xmlns="http://www.w3.org/2000/svg">
<line x1="79.5" y1="62.5" x2="104.5" y2="62.5" stroke="#4FB573" stroke-width="3" stroke-linecap="round"/>
<path d="M111.5 20.5C111.5 30.9269 102.614 39.5 91.5 39.5C80.3862 39.5 71.5 30.9269 71.5 20.5C71.5 10.0731 80.3862 1.5 91.5 1.5C102.614 1.5 111.5 10.0731 111.5 20.5Z" fill="#DCF0E3" stroke="#4FB573" stroke-width="3"/>
<path d="M104.789 21.7987C105.249 21.4924 105.358 20.8819 105.034 20.4351C104.709 19.9884 104.073 19.8745 103.614 20.1808L104.789 21.7987ZM91.8701 30.4093L104.789 21.7987L103.614 20.1808L90.6944 28.7914L91.8701 30.4093Z" fill="#4FB573"/>
<path d="M77.875 21.7987C77.4155 21.4924 77.3061 20.8819 77.6308 20.4351C77.9554 19.9884 78.5911 19.8745 79.0507 20.1808L77.875 21.7987ZM90.7942 30.4093L77.875 21.7987L79.0507 20.1808L91.9699 28.7914L90.7942 30.4093Z" fill="#4FB573"/>
<path d="M92.5 13C92.5 12.1716 91.8284 11.5 91 11.5C90.1716 11.5 89.5 12.1716 89.5 13L92.5 13ZM92.5 63L92.5 13L89.5 13L89.5 63L92.5 63Z" fill="#4FB573"/>
<line x1="8.5" y1="62.5" x2="33.5" y2="62.5" stroke="#4FB573" stroke-width="3" stroke-linecap="round"/>
<path d="M41.5 20.5C41.5 30.9269 32.6138 39.5 21.5 39.5C10.3862 39.5 1.5 30.9269 1.5 20.5C1.5 10.0731 10.3862 1.5 21.5 1.5C32.6138 1.5 41.5 10.0731 41.5 20.5Z" fill="#DCF0E3" stroke="#4FB573" stroke-width="3"/>
<path d="M34.7893 21.7987C35.2488 21.4924 35.3582 20.8819 35.0335 20.4351C34.7089 19.9884 34.0732 19.8745 33.6136 20.1808L34.7893 21.7987ZM21.8701 30.4093L34.7893 21.7987L33.6136 20.1808L20.6944 28.7914L21.8701 30.4093Z" fill="#4FB573"/>
<path d="M7.87504 21.7987C7.41548 21.4924 7.30611 20.8819 7.63076 20.4351C7.95541 19.9884 8.59115 19.8745 9.05071 20.1808L7.87504 21.7987ZM20.7942 30.4093L7.87504 21.7987L9.05071 20.1808L21.9699 28.7914L20.7942 30.4093Z" fill="#4FB573"/>
<path d="M22.5 13C22.5 12.1716 21.8284 11.5 21 11.5C20.1716 11.5 19.5 12.1716 19.5 13L22.5 13ZM22.5 63L22.5 13L19.5 13L19.5 63L22.5 63Z" fill="#4FB573"/>
<line x1="149.5" y1="62.5" x2="173.5" y2="62.5" stroke="#4FB573" stroke-width="3" stroke-linecap="round"/>
<path d="M181.5 20.5C181.5 30.9269 172.614 39.5 161.5 39.5C150.386 39.5 141.5 30.9269 141.5 20.5C141.5 10.0731 150.386 1.5 161.5 1.5C172.614 1.5 181.5 10.0731 181.5 20.5Z" fill="#DCF0E3" stroke="#4FB573" stroke-width="3"/>
<path d="M174.705 21.7987C175.165 21.4924 175.274 20.8819 174.95 20.4351C174.625 19.9884 173.989 19.8745 173.53 20.1808L174.705 21.7987ZM161.786 30.4093L174.705 21.7987L173.53 20.1808L160.61 28.7914L161.786 30.4093Z" fill="#4FB573"/>
<path d="M147.791 21.7987C147.332 21.4924 147.222 20.8819 147.547 20.4351C147.872 19.9884 148.507 19.8745 148.967 20.1808L147.791 21.7987ZM160.711 30.4093L147.791 21.7987L148.967 20.1808L161.886 28.7914L160.711 30.4093Z" fill="#4FB573"/>
<path d="M162.5 13C162.5 12.1716 161.828 11.5 161 11.5C160.172 11.5 159.5 12.1716 159.5 13L162.5 13ZM162.5 63L162.5 13L159.5 13L159.5 63L162.5 63Z" fill="#4FB573"/>
<path d="M56 36L56 63" stroke="#4FB573" stroke-width="2" stroke-linecap="round"/>
<mask id="path-17-inside-1" fill="white">
<path fill-rule="evenodd" clip-rule="evenodd" d="M58.9422 57.2199C61.7624 57.2199 64.0487 54.9337 64.0487 52.1134C64.0487 51.9034 64.036 51.6963 64.0113 51.4929C64.0048 51.4385 63.9796 51.3881 63.9401 51.3501C63.0223 50.4675 61.7751 49.9249 60.4012 49.9249C57.5809 49.9249 55.2947 52.2112 55.2947 55.0314C55.2947 55.2415 55.3074 55.4485 55.332 55.652C55.3386 55.7063 55.3638 55.7568 55.4032 55.7947C56.3211 56.6773 57.5683 57.2199 58.9422 57.2199Z"/>
</mask>
<path fill-rule="evenodd" clip-rule="evenodd" d="M58.9422 57.2199C61.7624 57.2199 64.0487 54.9337 64.0487 52.1134C64.0487 51.9034 64.036 51.6963 64.0113 51.4929C64.0048 51.4385 63.9796 51.3881 63.9401 51.3501C63.0223 50.4675 61.7751 49.9249 60.4012 49.9249C57.5809 49.9249 55.2947 52.2112 55.2947 55.0314C55.2947 55.2415 55.3074 55.4485 55.332 55.652C55.3386 55.7063 55.3638 55.7568 55.4032 55.7947C56.3211 56.6773 57.5683 57.2199 58.9422 57.2199Z" fill="white"/>
<path d="M55.332 55.652L53.3465 55.8925L55.332 55.652ZM55.4032 55.7947L54.017 57.2364L55.4032 55.7947ZM64.0113 51.4929L62.0259 51.7334L64.0113 51.4929ZM62.0487 52.1134C62.0487 53.8291 60.6579 55.2199 58.9422 55.2199V59.2199C62.867 59.2199 66.0487 56.0382 66.0487 52.1134H62.0487ZM62.0259 51.7334C62.0409 51.8572 62.0487 51.984 62.0487 52.1134H66.0487C66.0487 51.8228 66.0311 51.5354 65.9968 51.2523L62.0259 51.7334ZM60.4012 51.9249C61.2378 51.9249 61.9936 52.253 62.5539 52.7918L65.3264 49.9085C64.0509 48.682 62.3124 47.9249 60.4012 47.9249V51.9249ZM57.2947 55.0314C57.2947 53.3157 58.6855 51.9249 60.4012 51.9249V47.9249C56.4764 47.9249 53.2947 51.1066 53.2947 55.0314H57.2947ZM57.3175 55.4114C57.3025 55.2876 57.2947 55.1609 57.2947 55.0314H53.2947C53.2947 55.322 53.3122 55.6095 53.3465 55.8925L57.3175 55.4114ZM58.9422 55.2199C58.1056 55.2199 57.3498 54.8918 56.7895 54.3531L54.017 57.2364C55.2924 58.4628 57.031 59.2199 58.9422 59.2199V55.2199ZM53.3465 55.8925C53.4085 56.4044 53.6454 56.8791 54.017 57.2364L56.7895 54.3531C57.0821 54.6344 57.2686 55.0082 57.3175 55.4114L53.3465 55.8925ZM65.9968 51.2523C65.9348 50.7404 65.6979 50.2657 65.3264 49.9085L62.5539 52.7918C62.2613 52.5104 62.0747 52.1366 62.0259 51.7334L65.9968 51.2523Z" fill="#4FB573" mask="url(#path-17-inside-1)"/>
<mask id="path-19-inside-2" fill="white">
<path fill-rule="evenodd" clip-rule="evenodd" d="M58.9422 48.466C61.7624 48.466 64.0487 46.1798 64.0487 43.3595C64.0487 43.1495 64.036 42.9424 64.0113 42.739C64.0048 42.6846 63.9796 42.6342 63.9401 42.5962C63.0223 41.7136 61.7751 41.171 60.4012 41.171C57.5809 41.171 55.2947 43.4573 55.2947 46.2775C55.2947 46.4875 55.3074 46.6946 55.332 46.8981C55.3386 46.9524 55.3638 47.0029 55.4032 47.0408C56.3211 47.9234 57.5683 48.466 58.9422 48.466Z"/>
</mask>
<path fill-rule="evenodd" clip-rule="evenodd" d="M58.9422 48.466C61.7624 48.466 64.0487 46.1798 64.0487 43.3595C64.0487 43.1495 64.036 42.9424 64.0113 42.739C64.0048 42.6846 63.9796 42.6342 63.9401 42.5962C63.0223 41.7136 61.7751 41.171 60.4012 41.171C57.5809 41.171 55.2947 43.4573 55.2947 46.2775C55.2947 46.4875 55.3074 46.6946 55.332 46.8981C55.3386 46.9524 55.3638 47.0029 55.4032 47.0408C56.3211 47.9234 57.5683 48.466 58.9422 48.466Z" fill="white"/>
<path d="M55.332 46.8981L53.3465 47.1386L55.332 46.8981ZM55.4032 47.0408L54.017 48.4825L55.4032 47.0408ZM64.0113 42.739L62.0259 42.9795L64.0113 42.739ZM62.0487 43.3595C62.0487 45.0752 60.6579 46.466 58.9422 46.466V50.466C62.867 50.466 66.0487 47.2843 66.0487 43.3595H62.0487ZM62.0259 42.9795C62.0409 43.1033 62.0487 43.2301 62.0487 43.3595H66.0487C66.0487 43.0689 66.0311 42.7815 65.9968 42.4984L62.0259 42.9795ZM60.4012 43.171C61.2378 43.171 61.9936 43.4991 62.5539 44.0378L65.3264 41.1546C64.0509 39.9281 62.3124 39.171 60.4012 39.171V43.171ZM57.2947 46.2775C57.2947 44.5618 58.6855 43.171 60.4012 43.171V39.171C56.4764 39.171 53.2947 42.3527 53.2947 46.2775H57.2947ZM57.3175 46.6575C57.3025 46.5337 57.2947 46.407 57.2947 46.2775H53.2947C53.2947 46.5681 53.3122 46.8555 53.3465 47.1386L57.3175 46.6575ZM58.9422 46.466C58.1056 46.466 57.3498 46.1379 56.7895 45.5992L54.017 48.4825C55.2924 49.7089 57.031 50.466 58.9422 50.466V46.466ZM53.3465 47.1386C53.4085 47.6505 53.6454 48.1252 54.017 48.4825L56.7895 45.5992C57.0821 45.8805 57.2686 46.2543 57.3175 46.6575L53.3465 47.1386ZM65.9968 42.4984C65.9348 41.9865 65.6979 41.5118 65.3264 41.1546L62.5539 44.0378C62.2613 43.7565 62.0747 43.3827 62.0259 42.9795L65.9968 42.4984Z" fill="#4FB573" mask="url(#path-19-inside-2)"/>
<mask id="path-21-inside-3" fill="white">
<path fill-rule="evenodd" clip-rule="evenodd" d="M58.9422 39.712C61.7624 39.712 64.0487 37.4257 64.0487 34.6055C64.0487 34.3954 64.036 34.1884 64.0113 33.9849C64.0048 33.9306 63.9796 33.8801 63.9401 33.8422C63.0223 32.9596 61.7751 32.417 60.4012 32.417C57.5809 32.417 55.2947 34.7032 55.2947 37.5235C55.2947 37.7335 55.3074 37.9406 55.332 38.144C55.3386 38.1984 55.3638 38.2488 55.4032 38.2868C56.3211 39.1694 57.5683 39.712 58.9422 39.712Z"/>
</mask>
<path fill-rule="evenodd" clip-rule="evenodd" d="M58.9422 39.712C61.7624 39.712 64.0487 37.4257 64.0487 34.6055C64.0487 34.3954 64.036 34.1884 64.0113 33.9849C64.0048 33.9306 63.9796 33.8801 63.9401 33.8422C63.0223 32.9596 61.7751 32.417 60.4012 32.417C57.5809 32.417 55.2947 34.7032 55.2947 37.5235C55.2947 37.7335 55.3074 37.9406 55.332 38.144C55.3386 38.1984 55.3638 38.2488 55.4032 38.2868C56.3211 39.1694 57.5683 39.712 58.9422 39.712Z" fill="white"/>
<path d="M55.332 38.144L53.3465 38.3846L55.332 38.144ZM55.4032 38.2868L54.017 39.7284L55.4032 38.2868ZM64.0113 33.9849L62.0259 34.2255L64.0113 33.9849ZM62.0487 34.6055C62.0487 36.3212 60.6579 37.712 58.9422 37.712V41.712C62.867 41.712 66.0487 38.5303 66.0487 34.6055H62.0487ZM62.0259 34.2255C62.0409 34.3493 62.0487 34.476 62.0487 34.6055H66.0487C66.0487 34.3149 66.0311 34.0274 65.9968 33.7444L62.0259 34.2255ZM60.4012 34.417C61.2378 34.417 61.9936 34.7451 62.5539 35.2838L65.3264 32.4005C64.0509 31.1741 62.3124 30.417 60.4012 30.417V34.417ZM57.2947 37.5235C57.2947 35.8078 58.6855 34.417 60.4012 34.417V30.417C56.4764 30.417 53.2947 33.5987 53.2947 37.5235H57.2947ZM57.3175 37.9035C57.3025 37.7797 57.2947 37.6529 57.2947 37.5235H53.2947C53.2947 37.8141 53.3122 38.1015 53.3465 38.3846L57.3175 37.9035ZM58.9422 37.712C58.1056 37.712 57.3498 37.3839 56.7895 36.8451L54.017 39.7284C55.2924 40.9549 57.031 41.712 58.9422 41.712V37.712ZM53.3465 38.3846C53.4085 38.8965 53.6454 39.3712 54.017 39.7284L56.7895 36.8451C57.0821 37.1265 57.2686 37.5003 57.3175 37.9035L53.3465 38.3846ZM65.9968 33.7444C65.9348 33.2325 65.6979 32.7578 65.3264 32.4005L62.5539 35.2838C62.2613 35.0025 62.0747 34.6287 62.0259 34.2255L65.9968 33.7444Z" fill="#4FB573" mask="url(#path-21-inside-3)"/>
<mask id="path-23-inside-4" fill="white">
<path fill-rule="evenodd" clip-rule="evenodd" d="M53.1064 57.2199C50.2862 57.2199 47.9999 54.9337 47.9999 52.1134C47.9999 51.9034 48.0126 51.6963 48.0372 51.4929C48.0438 51.4385 48.069 51.3881 48.1085 51.3501C49.0263 50.4675 50.2735 49.9249 51.6474 49.9249C54.4677 49.9249 56.7539 52.2112 56.7539 55.0314C56.7539 55.2415 56.7412 55.4485 56.7166 55.652C56.71 55.7063 56.6848 55.7568 56.6454 55.7947C55.7275 56.6773 54.4803 57.2199 53.1064 57.2199Z"/>
</mask>
<path fill-rule="evenodd" clip-rule="evenodd" d="M53.1064 57.2199C50.2862 57.2199 47.9999 54.9337 47.9999 52.1134C47.9999 51.9034 48.0126 51.6963 48.0372 51.4929C48.0438 51.4385 48.069 51.3881 48.1085 51.3501C49.0263 50.4675 50.2735 49.9249 51.6474 49.9249C54.4677 49.9249 56.7539 52.2112 56.7539 55.0314C56.7539 55.2415 56.7412 55.4485 56.7166 55.652C56.71 55.7063 56.6848 55.7568 56.6454 55.7947C55.7275 56.6773 54.4803 57.2199 53.1064 57.2199Z" fill="white"/>
<path d="M56.7166 55.652L58.7021 55.8925L56.7166 55.652ZM56.6454 55.7947L58.0316 57.2364L56.6454 55.7947ZM48.0372 51.4929L50.0227 51.7334L48.0372 51.4929ZM49.9999 52.1134C49.9999 53.8291 51.3907 55.2199 53.1064 55.2199V59.2199C49.1816 59.2199 45.9999 56.0382 45.9999 52.1134H49.9999ZM50.0227 51.7334C50.0077 51.8572 49.9999 51.984 49.9999 52.1134H45.9999C45.9999 51.8228 46.0175 51.5354 46.0518 51.2523L50.0227 51.7334ZM51.6474 51.9249C50.8108 51.9249 50.055 52.253 49.4947 52.7918L46.7222 49.9085C47.9977 48.682 49.7362 47.9249 51.6474 47.9249V51.9249ZM54.7539 55.0314C54.7539 53.3157 53.3631 51.9249 51.6474 51.9249V47.9249C55.5722 47.9249 58.7539 51.1066 58.7539 55.0314H54.7539ZM54.7311 55.4114C54.7461 55.2876 54.7539 55.1609 54.7539 55.0314H58.7539C58.7539 55.322 58.7364 55.6095 58.7021 55.8925L54.7311 55.4114ZM53.1064 55.2199C53.943 55.2199 54.6988 54.8918 55.2591 54.3531L58.0316 57.2364C56.7561 58.4628 55.0176 59.2199 53.1064 59.2199V55.2199ZM58.7021 55.8925C58.64 56.4044 58.4031 56.8791 58.0316 57.2364L55.2591 54.3531C54.9665 54.6344 54.7799 55.0082 54.7311 55.4114L58.7021 55.8925ZM46.0518 51.2523C46.1138 50.7404 46.3507 50.2657 46.7222 49.9085L49.4947 52.7918C49.7873 52.5104 49.9739 52.1366 50.0227 51.7334L46.0518 51.2523Z" fill="#4FB573" mask="url(#path-23-inside-4)"/>
<mask id="path-25-inside-5" fill="white">
<path fill-rule="evenodd" clip-rule="evenodd" d="M53.1064 48.466C50.2862 48.466 47.9999 46.1798 47.9999 43.3595C47.9999 43.1495 48.0126 42.9424 48.0372 42.739C48.0438 42.6846 48.069 42.6342 48.1085 42.5962C49.0263 41.7136 50.2735 41.171 51.6474 41.171C54.4677 41.171 56.7539 43.4573 56.7539 46.2775C56.7539 46.4875 56.7412 46.6946 56.7166 46.8981C56.71 46.9524 56.6848 47.0029 56.6454 47.0408C55.7275 47.9234 54.4803 48.466 53.1064 48.466Z"/>
</mask>
<path fill-rule="evenodd" clip-rule="evenodd" d="M53.1064 48.466C50.2862 48.466 47.9999 46.1798 47.9999 43.3595C47.9999 43.1495 48.0126 42.9424 48.0372 42.739C48.0438 42.6846 48.069 42.6342 48.1085 42.5962C49.0263 41.7136 50.2735 41.171 51.6474 41.171C54.4677 41.171 56.7539 43.4573 56.7539 46.2775C56.7539 46.4875 56.7412 46.6946 56.7166 46.8981C56.71 46.9524 56.6848 47.0029 56.6454 47.0408C55.7275 47.9234 54.4803 48.466 53.1064 48.466Z" fill="white"/>
<path d="M56.7166 46.8981L58.7021 47.1386L56.7166 46.8981ZM56.6454 47.0408L58.0316 48.4825L56.6454 47.0408ZM48.0372 42.739L50.0227 42.9795L48.0372 42.739ZM49.9999 43.3595C49.9999 45.0752 51.3907 46.466 53.1064 46.466V50.466C49.1816 50.466 45.9999 47.2843 45.9999 43.3595H49.9999ZM50.0227 42.9795C50.0077 43.1033 49.9999 43.2301 49.9999 43.3595H45.9999C45.9999 43.0689 46.0175 42.7815 46.0518 42.4984L50.0227 42.9795ZM51.6474 43.171C50.8108 43.171 50.055 43.4991 49.4947 44.0378L46.7222 41.1546C47.9977 39.9281 49.7362 39.171 51.6474 39.171V43.171ZM54.7539 46.2775C54.7539 44.5618 53.3631 43.171 51.6474 43.171V39.171C55.5722 39.171 58.7539 42.3527 58.7539 46.2775H54.7539ZM54.7311 46.6575C54.7461 46.5337 54.7539 46.407 54.7539 46.2775H58.7539C58.7539 46.5681 58.7364 46.8555 58.7021 47.1386L54.7311 46.6575ZM53.1064 46.466C53.943 46.466 54.6988 46.1379 55.2591 45.5992L58.0316 48.4825C56.7561 49.7089 55.0176 50.466 53.1064 50.466V46.466ZM58.7021 47.1386C58.64 47.6505 58.4031 48.1252 58.0316 48.4825L55.2591 45.5992C54.9665 45.8805 54.7799 46.2543 54.7311 46.6575L58.7021 47.1386ZM46.0518 42.4984C46.1138 41.9865 46.3507 41.5118 46.7222 41.1546L49.4947 44.0378C49.7873 43.7565 49.9739 43.3827 50.0227 42.9795L46.0518 42.4984Z" fill="#4FB573" mask="url(#path-25-inside-5)"/>
<mask id="path-27-inside-6" fill="white">
<path fill-rule="evenodd" clip-rule="evenodd" d="M53.1064 39.712C50.2862 39.712 47.9999 37.4257 47.9999 34.6055C47.9999 34.3954 48.0126 34.1884 48.0372 33.9849C48.0438 33.9306 48.069 33.8801 48.1085 33.8422C49.0263 32.9596 50.2735 32.417 51.6474 32.417C54.4677 32.417 56.7539 34.7032 56.7539 37.5235C56.7539 37.7335 56.7412 37.9406 56.7166 38.144C56.71 38.1984 56.6848 38.2488 56.6454 38.2868C55.7275 39.1694 54.4803 39.712 53.1064 39.712Z"/>
</mask>
<path fill-rule="evenodd" clip-rule="evenodd" d="M53.1064 39.712C50.2862 39.712 47.9999 37.4257 47.9999 34.6055C47.9999 34.3954 48.0126 34.1884 48.0372 33.9849C48.0438 33.9306 48.069 33.8801 48.1085 33.8422C49.0263 32.9596 50.2735 32.417 51.6474 32.417C54.4677 32.417 56.7539 34.7032 56.7539 37.5235C56.7539 37.7335 56.7412 37.9406 56.7166 38.144C56.71 38.1984 56.6848 38.2488 56.6454 38.2868C55.7275 39.1694 54.4803 39.712 53.1064 39.712Z" fill="white"/>
<path d="M56.7166 38.144L58.7021 38.3846L56.7166 38.144ZM56.6454 38.2868L58.0316 39.7284L56.6454 38.2868ZM48.0372 33.9849L50.0227 34.2255L48.0372 33.9849ZM49.9999 34.6055C49.9999 36.3212 51.3907 37.712 53.1064 37.712V41.712C49.1816 41.712 45.9999 38.5303 45.9999 34.6055H49.9999ZM50.0227 34.2255C50.0077 34.3493 49.9999 34.476 49.9999 34.6055H45.9999C45.9999 34.3149 46.0175 34.0274 46.0518 33.7444L50.0227 34.2255ZM51.6474 34.417C50.8108 34.417 50.055 34.7451 49.4947 35.2838L46.7222 32.4005C47.9977 31.1741 49.7362 30.417 51.6474 30.417V34.417ZM54.7539 37.5235C54.7539 35.8078 53.3631 34.417 51.6474 34.417V30.417C55.5722 30.417 58.7539 33.5987 58.7539 37.5235H54.7539ZM54.7311 37.9035C54.7461 37.7797 54.7539 37.6529 54.7539 37.5235H58.7539C58.7539 37.8141 58.7364 38.1015 58.7021 38.3846L54.7311 37.9035ZM53.1064 37.712C53.943 37.712 54.6988 37.3839 55.2591 36.8451L58.0316 39.7284C56.7561 40.9549 55.0176 41.712 53.1064 41.712V37.712ZM58.7021 38.3846C58.64 38.8965 58.4031 39.3712 58.0316 39.7284L55.2591 36.8451C54.9665 37.1265 54.7799 37.5003 54.7311 37.9035L58.7021 38.3846ZM46.0518 33.7444C46.1138 33.2325 46.3507 32.7578 46.7222 32.4005L49.4947 35.2838C49.7873 35.0025 49.9739 34.6287 50.0227 34.2255L46.0518 33.7444Z" fill="#4FB573" mask="url(#path-27-inside-6)"/>
<path d="M125.196 36L125.196 63" stroke="#4FB573" stroke-width="2" stroke-linecap="round"/>
<mask id="path-30-inside-7" fill="white">
<path fill-rule="evenodd" clip-rule="evenodd" d="M128.942 57.2199C131.762 57.2199 134.049 54.9337 134.049 52.1134C134.049 51.9034 134.036 51.6963 134.011 51.4929C134.005 51.4385 133.98 51.3881 133.94 51.3501C133.022 50.4675 131.775 49.9249 130.401 49.9249C127.581 49.9249 125.295 52.2112 125.295 55.0314C125.295 55.2415 125.307 55.4485 125.332 55.652C125.339 55.7063 125.364 55.7568 125.403 55.7947C126.321 56.6773 127.568 57.2199 128.942 57.2199Z"/>
</mask>
<path fill-rule="evenodd" clip-rule="evenodd" d="M128.942 57.2199C131.762 57.2199 134.049 54.9337 134.049 52.1134C134.049 51.9034 134.036 51.6963 134.011 51.4929C134.005 51.4385 133.98 51.3881 133.94 51.3501C133.022 50.4675 131.775 49.9249 130.401 49.9249C127.581 49.9249 125.295 52.2112 125.295 55.0314C125.295 55.2415 125.307 55.4485 125.332 55.652C125.339 55.7063 125.364 55.7568 125.403 55.7947C126.321 56.6773 127.568 57.2199 128.942 57.2199Z" fill="white"/>
<path d="M125.332 55.652L123.347 55.8925L125.332 55.652ZM125.403 55.7947L124.017 57.2364L125.403 55.7947ZM134.011 51.4929L132.026 51.7334L134.011 51.4929ZM132.049 52.1134C132.049 53.8291 130.658 55.2199 128.942 55.2199V59.2199C132.867 59.2199 136.049 56.0382 136.049 52.1134H132.049ZM132.026 51.7334C132.041 51.8572 132.049 51.984 132.049 52.1134H136.049C136.049 51.8228 136.031 51.5354 135.997 51.2523L132.026 51.7334ZM130.401 51.9249C131.238 51.9249 131.994 52.253 132.554 52.7918L135.326 49.9085C134.051 48.682 132.312 47.9249 130.401 47.9249V51.9249ZM127.295 55.0314C127.295 53.3157 128.685 51.9249 130.401 51.9249V47.9249C126.476 47.9249 123.295 51.1066 123.295 55.0314H127.295ZM127.317 55.4114C127.302 55.2876 127.295 55.1609 127.295 55.0314H123.295C123.295 55.322 123.312 55.6095 123.347 55.8925L127.317 55.4114ZM128.942 55.2199C128.106 55.2199 127.35 54.8918 126.789 54.3531L124.017 57.2364C125.292 58.4628 127.031 59.2199 128.942 59.2199V55.2199ZM123.347 55.8925C123.409 56.4044 123.645 56.8791 124.017 57.2364L126.789 54.3531C127.082 54.6344 127.269 55.0082 127.317 55.4114L123.347 55.8925ZM135.997 51.2523C135.935 50.7404 135.698 50.2657 135.326 49.9085L132.554 52.7918C132.261 52.5104 132.075 52.1366 132.026 51.7334L135.997 51.2523Z" fill="#4FB573" mask="url(#path-30-inside-7)"/>
<mask id="path-32-inside-8" fill="white">
<path fill-rule="evenodd" clip-rule="evenodd" d="M128.942 48.466C131.762 48.466 134.049 46.1798 134.049 43.3595C134.049 43.1495 134.036 42.9424 134.011 42.739C134.005 42.6846 133.98 42.6342 133.94 42.5962C133.022 41.7136 131.775 41.171 130.401 41.171C127.581 41.171 125.295 43.4573 125.295 46.2775C125.295 46.4875 125.307 46.6946 125.332 46.8981C125.339 46.9524 125.364 47.0029 125.403 47.0408C126.321 47.9234 127.568 48.466 128.942 48.466Z"/>
</mask>
<path fill-rule="evenodd" clip-rule="evenodd" d="M128.942 48.466C131.762 48.466 134.049 46.1798 134.049 43.3595C134.049 43.1495 134.036 42.9424 134.011 42.739C134.005 42.6846 133.98 42.6342 133.94 42.5962C133.022 41.7136 131.775 41.171 130.401 41.171C127.581 41.171 125.295 43.4573 125.295 46.2775C125.295 46.4875 125.307 46.6946 125.332 46.8981C125.339 46.9524 125.364 47.0029 125.403 47.0408C126.321 47.9234 127.568 48.466 128.942 48.466Z" fill="white"/>
<path d="M125.332 46.8981L123.347 47.1386L125.332 46.8981ZM125.403 47.0408L124.017 48.4825L125.403 47.0408ZM134.011 42.739L132.026 42.9795L134.011 42.739ZM132.049 43.3595C132.049 45.0752 130.658 46.466 128.942 46.466V50.466C132.867 50.466 136.049 47.2843 136.049 43.3595H132.049ZM132.026 42.9795C132.041 43.1033 132.049 43.2301 132.049 43.3595H136.049C136.049 43.0689 136.031 42.7815 135.997 42.4984L132.026 42.9795ZM130.401 43.171C131.238 43.171 131.994 43.4991 132.554 44.0378L135.326 41.1546C134.051 39.9281 132.312 39.171 130.401 39.171V43.171ZM127.295 46.2775C127.295 44.5618 128.685 43.171 130.401 43.171V39.171C126.476 39.171 123.295 42.3527 123.295 46.2775H127.295ZM127.317 46.6575C127.302 46.5337 127.295 46.407 127.295 46.2775H123.295C123.295 46.5681 123.312 46.8555 123.347 47.1386L127.317 46.6575ZM128.942 46.466C128.106 46.466 127.35 46.1379 126.789 45.5992L124.017 48.4825C125.292 49.7089 127.031 50.466 128.942 50.466V46.466ZM123.347 47.1386C123.409 47.6505 123.645 48.1252 124.017 48.4825L126.789 45.5992C127.082 45.8805 127.269 46.2543 127.317 46.6575L123.347 47.1386ZM135.997 42.4984C135.935 41.9865 135.698 41.5118 135.326 41.1546L132.554 44.0378C132.261 43.7565 132.075 43.3827 132.026 42.9795L135.997 42.4984Z" fill="#4FB573" mask="url(#path-32-inside-8)"/>
<mask id="path-34-inside-9" fill="white">
<path fill-rule="evenodd" clip-rule="evenodd" d="M128.942 39.712C131.762 39.712 134.049 37.4257 134.049 34.6055C134.049 34.3954 134.036 34.1884 134.011 33.9849C134.005 33.9306 133.98 33.8801 133.94 33.8422C133.022 32.9596 131.775 32.417 130.401 32.417C127.581 32.417 125.295 34.7032 125.295 37.5235C125.295 37.7335 125.307 37.9406 125.332 38.144C125.339 38.1984 125.364 38.2488 125.403 38.2868C126.321 39.1694 127.568 39.712 128.942 39.712Z"/>
</mask>
<path fill-rule="evenodd" clip-rule="evenodd" d="M128.942 39.712C131.762 39.712 134.049 37.4257 134.049 34.6055C134.049 34.3954 134.036 34.1884 134.011 33.9849C134.005 33.9306 133.98 33.8801 133.94 33.8422C133.022 32.9596 131.775 32.417 130.401 32.417C127.581 32.417 125.295 34.7032 125.295 37.5235C125.295 37.7335 125.307 37.9406 125.332 38.144C125.339 38.1984 125.364 38.2488 125.403 38.2868C126.321 39.1694 127.568 39.712 128.942 39.712Z" fill="white"/>
<path d="M125.332 38.144L123.347 38.3846L125.332 38.144ZM125.403 38.2868L124.017 39.7284L125.403 38.2868ZM134.011 33.9849L132.026 34.2255L134.011 33.9849ZM132.049 34.6055C132.049 36.3212 130.658 37.712 128.942 37.712V41.712C132.867 41.712 136.049 38.5303 136.049 34.6055H132.049ZM132.026 34.2255C132.041 34.3493 132.049 34.476 132.049 34.6055H136.049C136.049 34.3149 136.031 34.0274 135.997 33.7444L132.026 34.2255ZM130.401 34.417C131.238 34.417 131.994 34.7451 132.554 35.2838L135.326 32.4005C134.051 31.1741 132.312 30.417 130.401 30.417V34.417ZM127.295 37.5235C127.295 35.8078 128.685 34.417 130.401 34.417V30.417C126.476 30.417 123.295 33.5987 123.295 37.5235H127.295ZM127.317 37.9035C127.302 37.7797 127.295 37.6529 127.295 37.5235H123.295C123.295 37.8141 123.312 38.1015 123.347 38.3846L127.317 37.9035ZM128.942 37.712C128.106 37.712 127.35 37.3839 126.789 36.8451L124.017 39.7284C125.292 40.9549 127.031 41.712 128.942 41.712V37.712ZM123.347 38.3846C123.409 38.8965 123.645 39.3712 124.017 39.7284L126.789 36.8451C127.082 37.1265 127.269 37.5003 127.317 37.9035L123.347 38.3846ZM135.997 33.7444C135.935 33.2325 135.698 32.7578 135.326 32.4005L132.554 35.2838C132.261 35.0025 132.075 34.6287 132.026 34.2255L135.997 33.7444Z" fill="#4FB573" mask="url(#path-34-inside-9)"/>
<mask id="path-36-inside-10" fill="white">
<path fill-rule="evenodd" clip-rule="evenodd" d="M123.106 57.2199C120.286 57.2199 118 54.9337 118 52.1134C118 51.9034 118.013 51.6963 118.037 51.4929C118.044 51.4385 118.069 51.3881 118.108 51.3501C119.026 50.4675 120.274 49.9249 121.647 49.9249C124.468 49.9249 126.754 52.2112 126.754 55.0314C126.754 55.2415 126.741 55.4485 126.717 55.652C126.71 55.7063 126.685 55.7568 126.645 55.7947C125.727 56.6773 124.48 57.2199 123.106 57.2199Z"/>
</mask>
<path fill-rule="evenodd" clip-rule="evenodd" d="M123.106 57.2199C120.286 57.2199 118 54.9337 118 52.1134C118 51.9034 118.013 51.6963 118.037 51.4929C118.044 51.4385 118.069 51.3881 118.108 51.3501C119.026 50.4675 120.274 49.9249 121.647 49.9249C124.468 49.9249 126.754 52.2112 126.754 55.0314C126.754 55.2415 126.741 55.4485 126.717 55.652C126.71 55.7063 126.685 55.7568 126.645 55.7947C125.727 56.6773 124.48 57.2199 123.106 57.2199Z" fill="white"/>
<path d="M126.717 55.652L128.702 55.8925L126.717 55.652ZM126.645 55.7947L128.032 57.2364L126.645 55.7947ZM118.037 51.4929L120.023 51.7334L118.037 51.4929ZM120 52.1134C120 53.8291 121.391 55.2199 123.106 55.2199V59.2199C119.182 59.2199 116 56.0382 116 52.1134H120ZM120.023 51.7334C120.008 51.8572 120 51.984 120 52.1134H116C116 51.8228 116.017 51.5354 116.052 51.2523L120.023 51.7334ZM121.647 51.9249C120.811 51.9249 120.055 52.253 119.495 52.7918L116.722 49.9085C117.998 48.682 119.736 47.9249 121.647 47.9249V51.9249ZM124.754 55.0314C124.754 53.3157 123.363 51.9249 121.647 51.9249V47.9249C125.572 47.9249 128.754 51.1066 128.754 55.0314H124.754ZM124.731 55.4114C124.746 55.2876 124.754 55.1609 124.754 55.0314H128.754C128.754 55.322 128.736 55.6095 128.702 55.8925L124.731 55.4114ZM123.106 55.2199C123.943 55.2199 124.699 54.8918 125.259 54.3531L128.032 57.2364C126.756 58.4628 125.018 59.2199 123.106 59.2199V55.2199ZM128.702 55.8925C128.64 56.4044 128.403 56.8791 128.032 57.2364L125.259 54.3531C124.967 54.6344 124.78 55.0082 124.731 55.4114L128.702 55.8925ZM116.052 51.2523C116.114 50.7404 116.351 50.2657 116.722 49.9085L119.495 52.7918C119.787 52.5104 119.974 52.1366 120.023 51.7334L116.052 51.2523Z" fill="#4FB573" mask="url(#path-36-inside-10)"/>
<mask id="path-38-inside-11" fill="white">
<path fill-rule="evenodd" clip-rule="evenodd" d="M123.106 48.466C120.286 48.466 118 46.1798 118 43.3595C118 43.1495 118.013 42.9424 118.037 42.739C118.044 42.6846 118.069 42.6342 118.108 42.5962C119.026 41.7136 120.274 41.171 121.647 41.171C124.468 41.171 126.754 43.4573 126.754 46.2775C126.754 46.4875 126.741 46.6946 126.717 46.8981C126.71 46.9524 126.685 47.0029 126.645 47.0408C125.727 47.9234 124.48 48.466 123.106 48.466Z"/>
</mask>
<path fill-rule="evenodd" clip-rule="evenodd" d="M123.106 48.466C120.286 48.466 118 46.1798 118 43.3595C118 43.1495 118.013 42.9424 118.037 42.739C118.044 42.6846 118.069 42.6342 118.108 42.5962C119.026 41.7136 120.274 41.171 121.647 41.171C124.468 41.171 126.754 43.4573 126.754 46.2775C126.754 46.4875 126.741 46.6946 126.717 46.8981C126.71 46.9524 126.685 47.0029 126.645 47.0408C125.727 47.9234 124.48 48.466 123.106 48.466Z" fill="white"/>
<path d="M126.717 46.8981L128.702 47.1386L126.717 46.8981ZM126.645 47.0408L128.032 48.4825L126.645 47.0408ZM118.037 42.739L120.023 42.9795L118.037 42.739ZM120 43.3595C120 45.0752 121.391 46.466 123.106 46.466V50.466C119.182 50.466 116 47.2843 116 43.3595H120ZM120.023 42.9795C120.008 43.1033 120 43.2301 120 43.3595H116C116 43.0689 116.017 42.7815 116.052 42.4984L120.023 42.9795ZM121.647 43.171C120.811 43.171 120.055 43.4991 119.495 44.0378L116.722 41.1546C117.998 39.9281 119.736 39.171 121.647 39.171V43.171ZM124.754 46.2775C124.754 44.5618 123.363 43.171 121.647 43.171V39.171C125.572 39.171 128.754 42.3527 128.754 46.2775H124.754ZM124.731 46.6575C124.746 46.5337 124.754 46.407 124.754 46.2775H128.754C128.754 46.5681 128.736 46.8555 128.702 47.1386L124.731 46.6575ZM123.106 46.466C123.943 46.466 124.699 46.1379 125.259 45.5992L128.032 48.4825C126.756 49.7089 125.018 50.466 123.106 50.466V46.466ZM128.702 47.1386C128.64 47.6505 128.403 48.1252 128.032 48.4825L125.259 45.5992C124.967 45.8805 124.78 46.2543 124.731 46.6575L128.702 47.1386ZM116.052 42.4984C116.114 41.9865 116.351 41.5118 116.722 41.1546L119.495 44.0378C119.787 43.7565 119.974 43.3827 120.023 42.9795L116.052 42.4984Z" fill="#4FB573" mask="url(#path-38-inside-11)"/>
<mask id="path-40-inside-12" fill="white">
<path fill-rule="evenodd" clip-rule="evenodd" d="M123.106 39.712C120.286 39.712 118 37.4257 118 34.6055C118 34.3954 118.013 34.1884 118.037 33.9849C118.044 33.9306 118.069 33.8801 118.108 33.8422C119.026 32.9596 120.274 32.417 121.647 32.417C124.468 32.417 126.754 34.7032 126.754 37.5235C126.754 37.7335 126.741 37.9406 126.717 38.144C126.71 38.1984 126.685 38.2488 126.645 38.2868C125.727 39.1694 124.48 39.712 123.106 39.712Z"/>
</mask>
<path fill-rule="evenodd" clip-rule="evenodd" d="M123.106 39.712C120.286 39.712 118 37.4257 118 34.6055C118 34.3954 118.013 34.1884 118.037 33.9849C118.044 33.9306 118.069 33.8801 118.108 33.8422C119.026 32.9596 120.274 32.417 121.647 32.417C124.468 32.417 126.754 34.7032 126.754 37.5235C126.754 37.7335 126.741 37.9406 126.717 38.144C126.71 38.1984 126.685 38.2488 126.645 38.2868C125.727 39.1694 124.48 39.712 123.106 39.712Z" fill="white"/>
<path d="M126.717 38.144L128.702 38.3846L126.717 38.144ZM126.645 38.2868L128.032 39.7284L126.645 38.2868ZM118.037 33.9849L120.023 34.2255L118.037 33.9849ZM120 34.6055C120 36.3212 121.391 37.712 123.106 37.712V41.712C119.182 41.712 116 38.5303 116 34.6055H120ZM120.023 34.2255C120.008 34.3493 120 34.476 120 34.6055H116C116 34.3149 116.017 34.0274 116.052 33.7444L120.023 34.2255ZM121.647 34.417C120.811 34.417 120.055 34.7451 119.495 35.2838L116.722 32.4005C117.998 31.1741 119.736 30.417 121.647 30.417V34.417ZM124.754 37.5235C124.754 35.8078 123.363 34.417 121.647 34.417V30.417C125.572 30.417 128.754 33.5987 128.754 37.5235H124.754ZM124.731 37.9035C124.746 37.7797 124.754 37.6529 124.754 37.5235H128.754C128.754 37.8141 128.736 38.1015 128.702 38.3846L124.731 37.9035ZM123.106 37.712C123.943 37.712 124.699 37.3839 125.259 36.8451L128.032 39.7284C126.756 40.9549 125.018 41.712 123.106 41.712V37.712ZM128.702 38.3846C128.64 38.8965 128.403 39.3712 128.032 39.7284L125.259 36.8451C124.967 37.1265 124.78 37.5003 124.731 37.9035L128.702 38.3846ZM116.052 33.7444C116.114 33.2325 116.351 32.7578 116.722 32.4005L119.495 35.2838C119.787 35.0025 119.974 34.6287 120.023 34.2255L116.052 33.7444Z" fill="#4FB573" mask="url(#path-40-inside-12)"/>
</svg>
