<svg width="148" height="87" viewBox="0 0 148 87" fill="none" xmlns="http://www.w3.org/2000/svg">
<path d="M17.0001 41C9.80015 48.6 8.66681 55.8333 9.00014 58.5C9.33343 59.3333 12.6489 63.9428 15 66C19 69.5 22 71 25.5 73V58.5C26.5 55.1667 28.6 48.4 29 48C29.4 47.6 38.1667 36.5 42.5 31L59 22L55.5 20L40 25C35.3334 27.1667 24.2001 33.4 17.0001 41Z" fill="#DCF0E3"/>
<path d="M50 48.5C44.9158 57.6516 47.1666 79.3333 47.4999 82C48.5 83 53.4503 84.3223 56.5 85C61.5 86.1111 65 85 67.5 85L64 75.5C63.4487 71 62.7308 61.5 64 57C67.9487 43 75.1667 38 79.5 32.5L102 23L90.5 20L71.5 26C66.8334 28.1667 55 39.5 50 48.5Z" fill="#DCF0E3"/>
<path d="M95.2827 46.5C85.5607 64 91.1667 78.3333 91.5 81C91.8333 81.8333 99.5454 80.0144 102.5 79C109.783 76.5 110.717 76 113.5 74.5L111.5 66C110.949 61.5 108.013 59.5 109.283 55C113.231 41 115.167 44.5 119.5 39L137.5 32L129 29L115 32C110.333 34.1667 100.283 37.5 95.2827 46.5Z" fill="#DCF0E3"/>
<path d="M2 37C11.3333 31 38.8 19 74 19C109.2 19 136.667 31 146 37" stroke="#4FB573" stroke-width="3" stroke-miterlimit="10" stroke-linecap="round"/>
<path d="M52 20.5C35.3548 23.8636 13.8548 34.4545 9 58" stroke="#4FB573" stroke-width="3" stroke-miterlimit="10" stroke-linecap="round"/>
<path d="M69.9997 19C50.5 19 19 44.5 25.9997 72.5" stroke="#4FB573" stroke-width="3" stroke-miterlimit="10" stroke-linecap="round"/>
<path d="M108.5 23C89.0005 23 51.0001 41 67.0002 84.5" stroke="#4FB573" stroke-width="3" stroke-miterlimit="10" stroke-linecap="round"/>
<path d="M130 29.5C103.5 29.5 82.9996 48.5 91.4999 81" stroke="#4FB573" stroke-width="3" stroke-miterlimit="10" stroke-linecap="round"/>
<path d="M133 14.5C133 19.1467 129.02 23 124 23C118.98 23 115 19.1467 115 14.5C115 9.85329 118.98 6 124 6C129.02 6 133 9.85329 133 14.5Z" fill="#DCF0E3" stroke="#4FB573" stroke-width="2"/>
<path d="M125 11C125 10.4477 124.552 10 124 10C123.448 10 123 10.4477 123 11L125 11ZM125 35L125 11L123 11L123 35L125 35Z" fill="#4FB573"/>
<path d="M129 16.1136C129.46 15.8073 129.569 15.1968 129.245 14.75C128.92 14.3032 128.284 14.1893 127.825 14.4956L129 16.1136ZM124.587 19.0548L129 16.1136L127.825 14.4956L123.412 17.4369L124.587 19.0548Z" fill="#4FB573"/>
<path d="M119.033 16.1136C118.573 15.8073 118.464 15.1968 118.789 14.75C119.113 14.3032 119.749 14.1893 120.208 14.4956L119.033 16.1136ZM123.446 19.0548L119.033 16.1136L120.208 14.4956L124.622 17.4369L123.446 19.0548Z" fill="#4FB573"/>
<path d="M92 7.5C92 11.03 88.9278 14 85 14C81.0722 14 78 11.03 78 7.5C78 3.96996 81.0722 1 85 1C88.9278 1 92 3.96996 92 7.5Z" fill="#DCF0E3" stroke="#4FB573" stroke-width="2"/>
<path d="M86 5C86 4.44772 85.5523 4 85 4C84.4477 4 84 4.44772 84 5L86 5ZM86 24L86 5L84 5L84 24L86 24Z" fill="#4FB573"/>
<path d="M89.1178 9.05266C89.5773 8.74637 89.6867 8.13587 89.3621 7.68909C89.0374 7.2423 88.4017 7.12841 87.9421 7.43471L89.1178 9.05266ZM85.5873 11.4057L89.1178 9.05266L87.9421 7.43471L84.4117 9.7877L85.5873 11.4057Z" fill="#4FB573"/>
<path d="M80.9086 9.05266C80.449 8.74637 80.3397 8.13587 80.6643 7.68909C80.989 7.2423 81.6247 7.12841 82.0843 7.43471L80.9086 9.05266ZM84.439 11.4057L80.9086 9.05266L82.0843 7.43471L85.6147 9.7877L84.439 11.4057Z" fill="#4FB573"/>
<path d="M140.5 34C129.049 32.524 100.72 42.0195 113.115 74" stroke="#4FB573" stroke-width="3" stroke-miterlimit="10" stroke-linecap="round"/>
<path d="M46.8267 82.4502C47.0753 83.2405 47.9175 83.6795 48.7078 83.4308C49.498 83.1822 49.937 82.34 49.6883 81.5498L46.8267 82.4502ZM92 18.5C81.9091 18.5 67.6462 24.8683 57.4125 35.9183C47.1034 47.0496 40.736 63.0947 46.8267 82.4502L49.6883 81.5498C43.9788 63.4053 49.8951 48.4504 59.6136 37.9567C69.4074 27.3817 82.9159 21.5 92 21.5V18.5Z" fill="#4FB573"/>
<circle cx="53" cy="41" r="13.5" fill="#DCF0E3" stroke="#4FB573" stroke-width="3"/>
<path d="M63.1011 42.2394C63.5607 41.9331 63.6701 41.3226 63.3454 40.8758C63.0208 40.429 62.385 40.3152 61.9255 40.6215L63.1011 42.2394ZM54.2192 48.1592L63.1011 42.2394L61.9255 40.6215L53.0435 46.5412L54.2192 48.1592Z" fill="#4FB573"/>
<path d="M43.412 42.2394C42.9525 41.9331 42.8431 41.3226 43.1678 40.8758C43.4924 40.429 44.1282 40.3152 44.5877 40.6215L43.412 42.2394ZM52.294 48.1592L43.412 42.2394L44.5877 40.6215L53.4697 46.5412L52.294 48.1592Z" fill="#4FB573"/>
<path d="M54.5 36C54.5 35.1716 53.8284 34.5 53 34.5C52.1716 34.5 51.5 35.1716 51.5 36L54.5 36ZM54.5 72L54.5 36L51.5 36L51.5 72L54.5 72Z" fill="#4FB573"/>
</svg>
