<svg width="132" height="96" viewBox="0 0 132 96" fill="none" xmlns="http://www.w3.org/2000/svg">
<g clip-path="url(#clip0)">
<path d="M130.207 94.2744V17.8121L1.77162 17.8121V94.2744L130.207 94.2744Z" fill="#EFEFEF"/>
<path d="M2.61401 93.1056V74.0503L16.9903 79.3568L21.8615 93.3468L2.61401 93.1056Z" fill="white"/>
<path d="M129.624 93.1056V74.0503L122.351 75.4839L115.404 80.1291L111.158 86.7097L109.228 93.1056H129.624Z" fill="white"/>
<path d="M2.61401 20.0201V39.0754L16.9903 33.8895L21.8615 19.7789L2.61401 20.0201Z" fill="white"/>
<path d="M128.912 18.842V39.4839L114.379 33.8662L109.614 18.5807L128.912 18.842Z" fill="white"/>
<path d="M130.099 38.7136C118.931 38.7136 109.901 29.5477 109.901 18.2111" stroke="#D2D5D9" stroke-width="2" stroke-miterlimit="10" stroke-linecap="round"/>
<path d="M2.02002 38.7136C13.1883 38.7136 22.218 29.5477 22.218 18.2111" stroke="#D2D5D9" stroke-width="2" stroke-miterlimit="10" stroke-linecap="round"/>
<path d="M130.099 73.8091C118.931 73.8091 109.901 82.9749 109.901 94.3116" stroke="#D2D5D9" stroke-width="2" stroke-miterlimit="10"/>
<path d="M22.218 94.3116C22.218 82.9749 13.1883 73.8091 2.02002 73.8091" stroke="#D2D5D9" stroke-width="2" stroke-miterlimit="10"/>
<path d="M130.207 94.2744V17.8121L1.77162 17.8121V94.2744L130.207 94.2744Z" stroke="#D2D5D9" stroke-width="3" stroke-miterlimit="10" stroke-linecap="round" stroke-linejoin="round"/>
<mask id="mask0" mask-type="alpha" maskUnits="userSpaceOnUse" x="-5" y="7" width="124" height="97">
<rect x="-4.63159" y="7.74194" width="122.737" height="96" fill="#C4C4C4"/>
</mask>
<g mask="url(#mask0)">
<path d="M130.207 94.2744V17.8121L1.77162 17.8121V94.2744L130.207 94.2744Z" fill="#DCF0E3"/>
<path d="M63.5645 77.9096C74.7195 77.9096 83.7625 68.7303 83.7625 57.407C83.7625 46.0838 74.7195 36.9045 63.5645 36.9045C52.4094 36.9045 43.3665 46.0838 43.3665 57.407C43.3665 68.7303 52.4094 77.9096 63.5645 77.9096Z" fill="white" stroke="#4FB573" stroke-width="3" stroke-miterlimit="10" stroke-linecap="round"/>
<path d="M2.61401 93.1056V74.0503L9.64928 75.4839L16.9903 79.3568L20.8423 86.3226L21.8615 93.3468L2.61401 93.1056Z" fill="white"/>
<path d="M129.624 93.1056V74.0503L122.351 75.0968L115.129 79.3568L111.158 86.3226L110.376 93.3468L129.624 93.1056Z" fill="white"/>
<path d="M2.61401 18.5807V39.0754L9.64928 37.1613L16.5966 32.9033L20.8423 27.0968L22.3861 18.5807H2.61401Z" fill="white"/>
<path d="M129.684 18.8323V38.7097L122.351 37.1613L115.789 32.9033L111.158 25.5484L110.386 18.5807L129.684 18.8323Z" fill="white"/>
<path d="M130.099 38.7136C118.931 38.7136 109.901 29.5477 109.901 18.2111" stroke="#4FB573" stroke-width="2" stroke-miterlimit="10" stroke-linecap="round"/>
<path d="M2.02002 38.7136C13.1883 38.7136 22.218 29.5477 22.218 18.2111" stroke="#4FB573" stroke-width="2" stroke-miterlimit="10" stroke-linecap="round"/>
<path d="M130.099 73.8091C118.931 73.8091 109.901 82.9749 109.901 94.3116" stroke="#4FB573" stroke-width="2" stroke-miterlimit="10"/>
<path d="M22.218 94.3116C22.218 82.9749 13.1883 73.8091 2.02002 73.8091" stroke="#4FB573" stroke-width="2" stroke-miterlimit="10"/>
<path d="M130.207 94.2744V17.8121L1.77162 17.8121V94.2744L130.207 94.2744Z" stroke="#4FB573" stroke-width="3" stroke-miterlimit="10" stroke-linecap="round" stroke-linejoin="round"/>
</g>
</g>
<defs>
<clipPath id="clip0">
<rect width="132" height="96" fill="white"/>
</clipPath>
</defs>
</svg>
