<svg width="152" height="70" viewBox="0 0 152 70" fill="none" xmlns="http://www.w3.org/2000/svg">
<path d="M75 7L75 67" stroke="#4FB573" stroke-width="3" stroke-linecap="round"/>
<path d="M135 7L135 67" stroke="#4FB573" stroke-width="3" stroke-linecap="round"/>
<path d="M16 7L16 67" stroke="#4FB573" stroke-width="3" stroke-linecap="round"/>
<mask id="path-4-inside-1" fill="white">
<path fill-rule="evenodd" clip-rule="evenodd" d="M81.1431 50.1905C86.8501 50.1905 91.4765 45.5641 91.4765 39.8571C91.4765 39.4025 91.4471 38.9547 91.3902 38.5156C91.3832 38.4613 91.358 38.4109 91.3189 38.3726C89.4559 36.5512 86.9068 35.4286 84.0955 35.4286C78.3886 35.4286 73.7622 40.055 73.7622 45.7619C73.7622 46.2166 73.7916 46.6643 73.8485 47.1035C73.8555 47.1578 73.8807 47.2081 73.9198 47.2464C75.7828 49.0678 78.3319 50.1905 81.1431 50.1905Z"/>
</mask>
<path fill-rule="evenodd" clip-rule="evenodd" d="M81.1431 50.1905C86.8501 50.1905 91.4765 45.5641 91.4765 39.8571C91.4765 39.4025 91.4471 38.9547 91.3902 38.5156C91.3832 38.4613 91.358 38.4109 91.3189 38.3726C89.4559 36.5512 86.9068 35.4286 84.0955 35.4286C78.3886 35.4286 73.7622 40.055 73.7622 45.7619C73.7622 46.2166 73.7916 46.6643 73.8485 47.1035C73.8555 47.1578 73.8807 47.2081 73.9198 47.2464C75.7828 49.0678 78.3319 50.1905 81.1431 50.1905Z" fill="white"/>
<path d="M73.9198 47.2464L71.8226 49.3916L73.9198 47.2464ZM91.3902 38.5156L88.4151 38.9013L91.3902 38.5156ZM91.3189 38.3726L89.2216 40.5178L91.3189 38.3726ZM88.4765 39.8571C88.4765 43.9072 85.1932 47.1905 81.1431 47.1905V53.1905C88.5069 53.1905 94.4765 47.2209 94.4765 39.8571H88.4765ZM88.4151 38.9013C88.4555 39.2129 88.4765 39.5318 88.4765 39.8571H94.4765C94.4765 39.2732 94.4388 38.6966 94.3653 38.1299L88.4151 38.9013ZM84.0955 38.4286C86.0917 38.4286 87.8964 39.2222 89.2216 40.5178L93.4161 36.2275C91.0153 33.8803 87.7219 32.4286 84.0955 32.4286V38.4286ZM76.7622 45.7619C76.7622 41.7118 80.0455 38.4286 84.0955 38.4286V32.4286C76.7317 32.4286 70.7622 38.3981 70.7622 45.7619H76.7622ZM76.8236 46.7178C76.7832 46.4062 76.7622 46.0873 76.7622 45.7619H70.7622C70.7622 46.3459 70.7999 46.9225 70.8734 47.4891L76.8236 46.7178ZM81.1431 47.1905C79.147 47.1905 77.3422 46.3969 76.0171 45.1013L71.8226 49.3916C74.2234 51.7388 77.5168 53.1905 81.1431 53.1905V47.1905ZM70.8734 47.4891C70.9671 48.212 71.3015 48.8821 71.8226 49.3916L76.0171 45.1013C76.4598 45.5341 76.744 46.1035 76.8236 46.7178L70.8734 47.4891ZM94.3653 38.1299C94.2716 37.4071 93.9372 36.7369 93.4161 36.2275L89.2216 40.5178C88.7789 40.0849 88.4947 39.5155 88.4151 38.9013L94.3653 38.1299Z" fill="#4FB573" mask="url(#path-4-inside-1)"/>
<mask id="path-6-inside-2" fill="white">
<path fill-rule="evenodd" clip-rule="evenodd" d="M141.143 50.1905C146.85 50.1905 151.476 45.5641 151.476 39.8571C151.476 39.4025 151.447 38.9547 151.39 38.5156C151.383 38.4613 151.358 38.4109 151.319 38.3726C149.456 36.5512 146.907 35.4286 144.096 35.4286C138.389 35.4286 133.762 40.055 133.762 45.7619C133.762 46.2166 133.792 46.6643 133.848 47.1035C133.856 47.1578 133.881 47.2081 133.92 47.2464C135.783 49.0678 138.332 50.1905 141.143 50.1905Z"/>
</mask>
<path fill-rule="evenodd" clip-rule="evenodd" d="M141.143 50.1905C146.85 50.1905 151.476 45.5641 151.476 39.8571C151.476 39.4025 151.447 38.9547 151.39 38.5156C151.383 38.4613 151.358 38.4109 151.319 38.3726C149.456 36.5512 146.907 35.4286 144.096 35.4286C138.389 35.4286 133.762 40.055 133.762 45.7619C133.762 46.2166 133.792 46.6643 133.848 47.1035C133.856 47.1578 133.881 47.2081 133.92 47.2464C135.783 49.0678 138.332 50.1905 141.143 50.1905Z" fill="white"/>
<path d="M133.92 47.2464L131.823 49.3916L133.92 47.2464ZM151.39 38.5156L148.415 38.9013L151.39 38.5156ZM151.319 38.3726L149.222 40.5178L151.319 38.3726ZM148.476 39.8571C148.476 43.9072 145.193 47.1905 141.143 47.1905V53.1905C148.507 53.1905 154.476 47.2209 154.476 39.8571H148.476ZM148.415 38.9013C148.455 39.2129 148.476 39.5318 148.476 39.8571H154.476C154.476 39.2732 154.439 38.6966 154.365 38.1299L148.415 38.9013ZM144.096 38.4286C146.092 38.4286 147.896 39.2222 149.222 40.5178L153.416 36.2275C151.015 33.8803 147.722 32.4286 144.096 32.4286V38.4286ZM136.762 45.7619C136.762 41.7118 140.045 38.4286 144.096 38.4286V32.4286C136.732 32.4286 130.762 38.3981 130.762 45.7619H136.762ZM136.824 46.7178C136.783 46.4062 136.762 46.0873 136.762 45.7619H130.762C130.762 46.3459 130.8 46.9225 130.873 47.4891L136.824 46.7178ZM141.143 47.1905C139.147 47.1905 137.342 46.3969 136.017 45.1013L131.823 49.3916C134.223 51.7388 137.517 53.1905 141.143 53.1905V47.1905ZM130.873 47.4891C130.967 48.212 131.302 48.8821 131.823 49.3916L136.017 45.1013C136.46 45.5341 136.744 46.1035 136.824 46.7178L130.873 47.4891ZM154.365 38.1299C154.272 37.4071 153.937 36.7369 153.416 36.2275L149.222 40.5178C148.779 40.0849 148.495 39.5155 148.415 38.9013L154.365 38.1299Z" fill="#4FB573" mask="url(#path-6-inside-2)"/>
<mask id="path-8-inside-3" fill="white">
<path fill-rule="evenodd" clip-rule="evenodd" d="M22.1431 50.1905C27.8501 50.1905 32.4765 45.5641 32.4765 39.8571C32.4765 39.4025 32.4471 38.9547 32.3902 38.5156C32.3832 38.4613 32.358 38.4109 32.3189 38.3726C30.4559 36.5512 27.9068 35.4286 25.0955 35.4286C19.3886 35.4286 14.7622 40.055 14.7622 45.7619C14.7622 46.2166 14.7916 46.6643 14.8485 47.1035C14.8555 47.1578 14.8807 47.2081 14.9198 47.2464C16.7828 49.0678 19.3319 50.1905 22.1431 50.1905Z"/>
</mask>
<path fill-rule="evenodd" clip-rule="evenodd" d="M22.1431 50.1905C27.8501 50.1905 32.4765 45.5641 32.4765 39.8571C32.4765 39.4025 32.4471 38.9547 32.3902 38.5156C32.3832 38.4613 32.358 38.4109 32.3189 38.3726C30.4559 36.5512 27.9068 35.4286 25.0955 35.4286C19.3886 35.4286 14.7622 40.055 14.7622 45.7619C14.7622 46.2166 14.7916 46.6643 14.8485 47.1035C14.8555 47.1578 14.8807 47.2081 14.9198 47.2464C16.7828 49.0678 19.3319 50.1905 22.1431 50.1905Z" fill="white"/>
<path d="M14.9198 47.2464L12.8226 49.3916L14.9198 47.2464ZM32.3902 38.5156L29.4151 38.9013L32.3902 38.5156ZM32.3189 38.3726L30.2216 40.5178L32.3189 38.3726ZM29.4765 39.8571C29.4765 43.9072 26.1932 47.1905 22.1431 47.1905V53.1905C29.5069 53.1905 35.4765 47.2209 35.4765 39.8571H29.4765ZM29.4151 38.9013C29.4555 39.2129 29.4765 39.5318 29.4765 39.8571H35.4765C35.4765 39.2732 35.4388 38.6966 35.3653 38.1299L29.4151 38.9013ZM25.0955 38.4286C27.0917 38.4286 28.8964 39.2222 30.2216 40.5178L34.4161 36.2275C32.0153 33.8803 28.7219 32.4286 25.0955 32.4286V38.4286ZM17.7622 45.7619C17.7622 41.7118 21.0455 38.4286 25.0955 38.4286V32.4286C17.7317 32.4286 11.7622 38.3981 11.7622 45.7619H17.7622ZM17.8236 46.7178C17.7832 46.4062 17.7622 46.0873 17.7622 45.7619H11.7622C11.7622 46.3459 11.7999 46.9225 11.8734 47.4891L17.8236 46.7178ZM22.1431 47.1905C20.147 47.1905 18.3422 46.3969 17.0171 45.1013L12.8226 49.3916C15.2234 51.7388 18.5168 53.1905 22.1431 53.1905V47.1905ZM11.8734 47.4891C11.9671 48.212 12.3015 48.8821 12.8226 49.3916L17.0171 45.1013C17.4598 45.5341 17.744 46.1035 17.8236 46.7178L11.8734 47.4891ZM35.3653 38.1299C35.2716 37.4071 34.9372 36.7369 34.4161 36.2275L30.2216 40.5178C29.7789 40.0849 29.4947 39.5155 29.4151 38.9013L35.3653 38.1299Z" fill="#4FB573" mask="url(#path-8-inside-3)"/>
<mask id="path-10-inside-4" fill="white">
<path fill-rule="evenodd" clip-rule="evenodd" d="M81.1431 32.4761C86.8501 32.4761 91.4765 27.8497 91.4765 22.1428C91.4765 21.6882 91.4471 21.2404 91.3902 20.8013C91.3832 20.7469 91.358 20.6966 91.3189 20.6583C89.4559 18.8369 86.9068 17.7142 84.0955 17.7142C78.3886 17.7142 73.7622 22.3406 73.7622 28.0476C73.7622 28.5022 73.7916 28.95 73.8485 29.3891C73.8555 29.4434 73.8807 29.4938 73.9198 29.5321C75.7828 31.3535 78.3319 32.4761 81.1431 32.4761Z"/>
</mask>
<path fill-rule="evenodd" clip-rule="evenodd" d="M81.1431 32.4761C86.8501 32.4761 91.4765 27.8497 91.4765 22.1428C91.4765 21.6882 91.4471 21.2404 91.3902 20.8013C91.3832 20.7469 91.358 20.6966 91.3189 20.6583C89.4559 18.8369 86.9068 17.7142 84.0955 17.7142C78.3886 17.7142 73.7622 22.3406 73.7622 28.0476C73.7622 28.5022 73.7916 28.95 73.8485 29.3891C73.8555 29.4434 73.8807 29.4938 73.9198 29.5321C75.7828 31.3535 78.3319 32.4761 81.1431 32.4761Z" fill="white"/>
<path d="M73.9198 29.5321L71.8226 31.6772L73.9198 29.5321ZM91.3902 20.8013L88.4151 21.1869L91.3902 20.8013ZM91.3189 20.6583L89.2216 22.8034L91.3189 20.6583ZM88.4765 22.1428C88.4765 26.1929 85.1932 29.4761 81.1431 29.4761V35.4761C88.5069 35.4761 94.4765 29.5066 94.4765 22.1428H88.4765ZM88.4151 21.1869C88.4555 21.4985 88.4765 21.8174 88.4765 22.1428H94.4765C94.4765 21.5589 94.4388 20.9823 94.3653 20.4156L88.4151 21.1869ZM84.0955 20.7142C86.0917 20.7142 87.8964 21.5078 89.2216 22.8034L93.4161 18.5132C91.0153 16.1659 87.7219 14.7142 84.0955 14.7142V20.7142ZM76.7622 28.0476C76.7622 23.9975 80.0455 20.7142 84.0955 20.7142V14.7142C76.7317 14.7142 70.7622 20.6838 70.7622 28.0476H76.7622ZM76.8236 29.0034C76.7832 28.6918 76.7622 28.3729 76.7622 28.0476H70.7622C70.7622 28.6315 70.7999 29.2081 70.8734 29.7748L76.8236 29.0034ZM81.1431 29.4761C79.147 29.4761 77.3422 28.6825 76.0171 27.3869L71.8226 31.6772C74.2234 34.0244 77.5168 35.4761 81.1431 35.4761V29.4761ZM70.8734 29.7748C70.9671 30.4976 71.3015 31.1678 71.8226 31.6772L76.0171 27.3869C76.4598 27.8198 76.744 28.3892 76.8236 29.0034L70.8734 29.7748ZM94.3653 20.4156C94.2716 19.6927 93.9372 19.0226 93.4161 18.5132L89.2216 22.8034C88.7789 22.3706 88.4947 21.8012 88.4151 21.1869L94.3653 20.4156Z" fill="#4FB573" mask="url(#path-10-inside-4)"/>
<mask id="path-12-inside-5" fill="white">
<path fill-rule="evenodd" clip-rule="evenodd" d="M141.143 32.4761C146.85 32.4761 151.476 27.8497 151.476 22.1428C151.476 21.6882 151.447 21.2404 151.39 20.8013C151.383 20.7469 151.358 20.6966 151.319 20.6583C149.456 18.8369 146.907 17.7142 144.096 17.7142C138.389 17.7142 133.762 22.3406 133.762 28.0476C133.762 28.5022 133.792 28.95 133.848 29.3891C133.856 29.4434 133.881 29.4938 133.92 29.5321C135.783 31.3535 138.332 32.4761 141.143 32.4761Z"/>
</mask>
<path fill-rule="evenodd" clip-rule="evenodd" d="M141.143 32.4761C146.85 32.4761 151.476 27.8497 151.476 22.1428C151.476 21.6882 151.447 21.2404 151.39 20.8013C151.383 20.7469 151.358 20.6966 151.319 20.6583C149.456 18.8369 146.907 17.7142 144.096 17.7142C138.389 17.7142 133.762 22.3406 133.762 28.0476C133.762 28.5022 133.792 28.95 133.848 29.3891C133.856 29.4434 133.881 29.4938 133.92 29.5321C135.783 31.3535 138.332 32.4761 141.143 32.4761Z" fill="white"/>
<path d="M133.92 29.5321L131.823 31.6772L133.92 29.5321ZM151.39 20.8013L148.415 21.1869L151.39 20.8013ZM151.319 20.6583L149.222 22.8034L151.319 20.6583ZM148.476 22.1428C148.476 26.1929 145.193 29.4761 141.143 29.4761V35.4761C148.507 35.4761 154.476 29.5066 154.476 22.1428H148.476ZM148.415 21.1869C148.455 21.4985 148.476 21.8174 148.476 22.1428H154.476C154.476 21.5589 154.439 20.9823 154.365 20.4156L148.415 21.1869ZM144.096 20.7142C146.092 20.7142 147.896 21.5078 149.222 22.8034L153.416 18.5132C151.015 16.1659 147.722 14.7142 144.096 14.7142V20.7142ZM136.762 28.0476C136.762 23.9975 140.045 20.7142 144.096 20.7142V14.7142C136.732 14.7142 130.762 20.6838 130.762 28.0476H136.762ZM136.824 29.0034C136.783 28.6918 136.762 28.3729 136.762 28.0476H130.762C130.762 28.6315 130.8 29.2081 130.873 29.7748L136.824 29.0034ZM141.143 29.4761C139.147 29.4761 137.342 28.6825 136.017 27.3869L131.823 31.6772C134.223 34.0244 137.517 35.4761 141.143 35.4761V29.4761ZM130.873 29.7748C130.967 30.4976 131.302 31.1678 131.823 31.6772L136.017 27.3869C136.46 27.8198 136.744 28.3892 136.824 29.0034L130.873 29.7748ZM154.365 20.4156C154.272 19.6927 153.937 19.0226 153.416 18.5132L149.222 22.8034C148.779 22.3706 148.495 21.8012 148.415 21.1869L154.365 20.4156Z" fill="#4FB573" mask="url(#path-12-inside-5)"/>
<mask id="path-14-inside-6" fill="white">
<path fill-rule="evenodd" clip-rule="evenodd" d="M22.1431 32.4761C27.8501 32.4761 32.4765 27.8497 32.4765 22.1428C32.4765 21.6882 32.4471 21.2404 32.3902 20.8013C32.3832 20.7469 32.358 20.6966 32.3189 20.6583C30.4559 18.8369 27.9068 17.7142 25.0955 17.7142C19.3886 17.7142 14.7622 22.3406 14.7622 28.0476C14.7622 28.5022 14.7916 28.95 14.8485 29.3891C14.8555 29.4434 14.8807 29.4938 14.9198 29.5321C16.7828 31.3535 19.3319 32.4761 22.1431 32.4761Z"/>
</mask>
<path fill-rule="evenodd" clip-rule="evenodd" d="M22.1431 32.4761C27.8501 32.4761 32.4765 27.8497 32.4765 22.1428C32.4765 21.6882 32.4471 21.2404 32.3902 20.8013C32.3832 20.7469 32.358 20.6966 32.3189 20.6583C30.4559 18.8369 27.9068 17.7142 25.0955 17.7142C19.3886 17.7142 14.7622 22.3406 14.7622 28.0476C14.7622 28.5022 14.7916 28.95 14.8485 29.3891C14.8555 29.4434 14.8807 29.4938 14.9198 29.5321C16.7828 31.3535 19.3319 32.4761 22.1431 32.4761Z" fill="white"/>
<path d="M14.9198 29.5321L12.8226 31.6772L14.9198 29.5321ZM32.3902 20.8013L29.4151 21.1869L32.3902 20.8013ZM32.3189 20.6583L30.2216 22.8034L32.3189 20.6583ZM29.4765 22.1428C29.4765 26.1929 26.1932 29.4761 22.1431 29.4761V35.4761C29.5069 35.4761 35.4765 29.5066 35.4765 22.1428H29.4765ZM29.4151 21.1869C29.4555 21.4985 29.4765 21.8174 29.4765 22.1428H35.4765C35.4765 21.5589 35.4388 20.9823 35.3653 20.4156L29.4151 21.1869ZM25.0955 20.7142C27.0917 20.7142 28.8964 21.5078 30.2216 22.8034L34.4161 18.5132C32.0153 16.1659 28.7219 14.7142 25.0955 14.7142V20.7142ZM17.7622 28.0476C17.7622 23.9975 21.0455 20.7142 25.0955 20.7142V14.7142C17.7317 14.7142 11.7622 20.6838 11.7622 28.0476H17.7622ZM17.8236 29.0034C17.7832 28.6918 17.7622 28.3729 17.7622 28.0476H11.7622C11.7622 28.6315 11.7999 29.2081 11.8734 29.7748L17.8236 29.0034ZM22.1431 29.4761C20.147 29.4761 18.3422 28.6825 17.0171 27.3869L12.8226 31.6772C15.2234 34.0244 18.5168 35.4761 22.1431 35.4761V29.4761ZM11.8734 29.7748C11.9671 30.4976 12.3015 31.1678 12.8226 31.6772L17.0171 27.3869C17.4598 27.8198 17.744 28.3892 17.8236 29.0034L11.8734 29.7748ZM35.3653 20.4156C35.2716 19.6927 34.9372 19.0226 34.4161 18.5132L30.2216 22.8034C29.7789 22.3706 29.4947 21.8012 29.4151 21.1869L35.3653 20.4156Z" fill="#4FB573" mask="url(#path-14-inside-6)"/>
<mask id="path-16-inside-7" fill="white">
<path fill-rule="evenodd" clip-rule="evenodd" d="M81.1431 14.7619C86.8501 14.7619 91.4765 10.1355 91.4765 4.42855C91.4765 3.97392 91.4471 3.52614 91.3902 3.08702C91.3832 3.0327 91.358 2.98234 91.3189 2.94405C89.4559 1.12264 86.9068 0 84.0955 0C78.3886 0 73.7622 4.62639 73.7622 10.3333C73.7622 10.788 73.7916 11.2357 73.8485 11.6749C73.8555 11.7292 73.8807 11.7795 73.9198 11.8178C75.7828 13.6392 78.3319 14.7619 81.1431 14.7619Z"/>
</mask>
<path fill-rule="evenodd" clip-rule="evenodd" d="M81.1431 14.7619C86.8501 14.7619 91.4765 10.1355 91.4765 4.42855C91.4765 3.97392 91.4471 3.52614 91.3902 3.08702C91.3832 3.0327 91.358 2.98234 91.3189 2.94405C89.4559 1.12264 86.9068 0 84.0955 0C78.3886 0 73.7622 4.62639 73.7622 10.3333C73.7622 10.788 73.7916 11.2357 73.8485 11.6749C73.8555 11.7292 73.8807 11.7795 73.9198 11.8178C75.7828 13.6392 78.3319 14.7619 81.1431 14.7619Z" fill="white"/>
<path d="M73.9198 11.8178L71.8226 13.963L73.9198 11.8178ZM91.3902 3.08702L88.4151 3.4727L91.3902 3.08702ZM91.3189 2.94405L89.2216 5.08918L91.3189 2.94405ZM88.4765 4.42855C88.4765 8.47864 85.1932 11.7619 81.1431 11.7619V17.7619C88.5069 17.7619 94.4765 11.7923 94.4765 4.42855H88.4765ZM88.4151 3.4727C88.4555 3.78427 88.4765 4.10322 88.4765 4.42855H94.4765C94.4765 3.84462 94.4388 3.26802 94.3653 2.70134L88.4151 3.4727ZM84.0955 3C86.0917 3 87.8964 3.79359 89.2216 5.08918L93.4161 0.79892C91.0153 -1.54832 87.7219 -3 84.0955 -3V3ZM76.7622 10.3333C76.7622 6.28325 80.0455 3 84.0955 3V-3C76.7317 -3 70.7622 2.96954 70.7622 10.3333H76.7622ZM76.8236 11.2892C76.7832 10.9776 76.7622 10.6587 76.7622 10.3333H70.7622C70.7622 10.9173 70.7999 11.4939 70.8734 12.0606L76.8236 11.2892ZM81.1431 11.7619C79.147 11.7619 77.3422 10.9683 76.0171 9.67271L71.8226 13.963C74.2234 16.3102 77.5168 17.7619 81.1431 17.7619V11.7619ZM70.8734 12.0606C70.9671 12.7834 71.3015 13.4535 71.8226 13.963L76.0171 9.67271C76.4598 10.1056 76.744 10.675 76.8236 11.2892L70.8734 12.0606ZM94.3653 2.70134C94.2716 1.97848 93.9372 1.30836 93.4161 0.79892L89.2216 5.08918C88.7789 4.65632 88.4947 4.08692 88.4151 3.4727L94.3653 2.70134Z" fill="#4FB573" mask="url(#path-16-inside-7)"/>
<mask id="path-18-inside-8" fill="white">
<path fill-rule="evenodd" clip-rule="evenodd" d="M141.143 14.7619C146.85 14.7619 151.476 10.1355 151.476 4.42855C151.476 3.97392 151.447 3.52614 151.39 3.08702C151.383 3.0327 151.358 2.98234 151.319 2.94405C149.456 1.12264 146.907 0 144.096 0C138.389 0 133.762 4.62639 133.762 10.3333C133.762 10.788 133.792 11.2357 133.848 11.6749C133.856 11.7292 133.881 11.7795 133.92 11.8178C135.783 13.6392 138.332 14.7619 141.143 14.7619Z"/>
</mask>
<path fill-rule="evenodd" clip-rule="evenodd" d="M141.143 14.7619C146.85 14.7619 151.476 10.1355 151.476 4.42855C151.476 3.97392 151.447 3.52614 151.39 3.08702C151.383 3.0327 151.358 2.98234 151.319 2.94405C149.456 1.12264 146.907 0 144.096 0C138.389 0 133.762 4.62639 133.762 10.3333C133.762 10.788 133.792 11.2357 133.848 11.6749C133.856 11.7292 133.881 11.7795 133.92 11.8178C135.783 13.6392 138.332 14.7619 141.143 14.7619Z" fill="white"/>
<path d="M133.92 11.8178L131.823 13.963L133.92 11.8178ZM151.39 3.08702L148.415 3.4727L151.39 3.08702ZM151.319 2.94405L149.222 5.08918L151.319 2.94405ZM148.476 4.42855C148.476 8.47864 145.193 11.7619 141.143 11.7619V17.7619C148.507 17.7619 154.476 11.7923 154.476 4.42855H148.476ZM148.415 3.4727C148.455 3.78427 148.476 4.10322 148.476 4.42855H154.476C154.476 3.84462 154.439 3.26802 154.365 2.70134L148.415 3.4727ZM144.096 3C146.092 3 147.896 3.79359 149.222 5.08918L153.416 0.79892C151.015 -1.54832 147.722 -3 144.096 -3V3ZM136.762 10.3333C136.762 6.28325 140.045 3 144.096 3V-3C136.732 -3 130.762 2.96954 130.762 10.3333H136.762ZM136.824 11.2892C136.783 10.9776 136.762 10.6587 136.762 10.3333H130.762C130.762 10.9173 130.8 11.4939 130.873 12.0606L136.824 11.2892ZM141.143 11.7619C139.147 11.7619 137.342 10.9683 136.017 9.67271L131.823 13.963C134.223 16.3102 137.517 17.7619 141.143 17.7619V11.7619ZM130.873 12.0606C130.967 12.7834 131.302 13.4535 131.823 13.963L136.017 9.67271C136.46 10.1056 136.744 10.675 136.824 11.2892L130.873 12.0606ZM154.365 2.70134C154.272 1.97848 153.937 1.30836 153.416 0.79892L149.222 5.08918C148.779 4.65632 148.495 4.08692 148.415 3.4727L154.365 2.70134Z" fill="#4FB573" mask="url(#path-18-inside-8)"/>
<mask id="path-20-inside-9" fill="white">
<path fill-rule="evenodd" clip-rule="evenodd" d="M22.1431 14.7619C27.8501 14.7619 32.4765 10.1355 32.4765 4.42855C32.4765 3.97392 32.4471 3.52614 32.3902 3.08702C32.3832 3.0327 32.358 2.98234 32.3189 2.94405C30.4559 1.12264 27.9068 0 25.0955 0C19.3886 0 14.7622 4.62639 14.7622 10.3333C14.7622 10.788 14.7916 11.2357 14.8485 11.6749C14.8555 11.7292 14.8807 11.7795 14.9198 11.8178C16.7828 13.6392 19.3319 14.7619 22.1431 14.7619Z"/>
</mask>
<path fill-rule="evenodd" clip-rule="evenodd" d="M22.1431 14.7619C27.8501 14.7619 32.4765 10.1355 32.4765 4.42855C32.4765 3.97392 32.4471 3.52614 32.3902 3.08702C32.3832 3.0327 32.358 2.98234 32.3189 2.94405C30.4559 1.12264 27.9068 0 25.0955 0C19.3886 0 14.7622 4.62639 14.7622 10.3333C14.7622 10.788 14.7916 11.2357 14.8485 11.6749C14.8555 11.7292 14.8807 11.7795 14.9198 11.8178C16.7828 13.6392 19.3319 14.7619 22.1431 14.7619Z" fill="white"/>
<path d="M14.9198 11.8178L12.8226 13.963L14.9198 11.8178ZM32.3902 3.08702L29.4151 3.4727L32.3902 3.08702ZM32.3189 2.94405L30.2216 5.08918L32.3189 2.94405ZM29.4765 4.42855C29.4765 8.47864 26.1932 11.7619 22.1431 11.7619V17.7619C29.5069 17.7619 35.4765 11.7923 35.4765 4.42855H29.4765ZM29.4151 3.4727C29.4555 3.78427 29.4765 4.10322 29.4765 4.42855H35.4765C35.4765 3.84462 35.4388 3.26802 35.3653 2.70134L29.4151 3.4727ZM25.0955 3C27.0917 3 28.8964 3.79359 30.2216 5.08918L34.4161 0.79892C32.0153 -1.54832 28.7219 -3 25.0955 -3V3ZM17.7622 10.3333C17.7622 6.28325 21.0455 3 25.0955 3V-3C17.7317 -3 11.7622 2.96954 11.7622 10.3333H17.7622ZM17.8236 11.2892C17.7832 10.9776 17.7622 10.6587 17.7622 10.3333H11.7622C11.7622 10.9173 11.7999 11.4939 11.8734 12.0606L17.8236 11.2892ZM22.1431 11.7619C20.147 11.7619 18.3422 10.9683 17.0171 9.67271L12.8226 13.963C15.2234 16.3102 18.5168 17.7619 22.1431 17.7619V11.7619ZM11.8734 12.0606C11.9671 12.7834 12.3015 13.4535 12.8226 13.963L17.0171 9.67271C17.4598 10.1056 17.744 10.675 17.8236 11.2892L11.8734 12.0606ZM35.3653 2.70134C35.2716 1.97848 34.9372 1.30836 34.4161 0.79892L30.2216 5.08918C29.7789 4.65632 29.4947 4.08692 29.4151 3.4727L35.3653 2.70134Z" fill="#4FB573" mask="url(#path-20-inside-9)"/>
<mask id="path-22-inside-10" fill="white">
<path fill-rule="evenodd" clip-rule="evenodd" d="M69.3334 50.1905C63.6265 50.1905 59.0001 45.5641 59.0001 39.8571C59.0001 39.4025 59.0294 38.9547 59.0864 38.5156C59.0934 38.4613 59.1185 38.4109 59.1577 38.3726C61.0207 36.5512 63.5698 35.4286 66.381 35.4286C72.088 35.4286 76.7144 40.055 76.7144 45.7619C76.7144 46.2166 76.685 46.6643 76.6281 47.1035C76.621 47.1578 76.5959 47.2081 76.5567 47.2464C74.6937 49.0678 72.1447 50.1905 69.3334 50.1905Z"/>
</mask>
<path fill-rule="evenodd" clip-rule="evenodd" d="M69.3334 50.1905C63.6265 50.1905 59.0001 45.5641 59.0001 39.8571C59.0001 39.4025 59.0294 38.9547 59.0864 38.5156C59.0934 38.4613 59.1185 38.4109 59.1577 38.3726C61.0207 36.5512 63.5698 35.4286 66.381 35.4286C72.088 35.4286 76.7144 40.055 76.7144 45.7619C76.7144 46.2166 76.685 46.6643 76.6281 47.1035C76.621 47.1578 76.5959 47.2081 76.5567 47.2464C74.6937 49.0678 72.1447 50.1905 69.3334 50.1905Z" fill="white"/>
<path d="M76.5567 47.2464L78.654 49.3916L76.5567 47.2464ZM59.0864 38.5156L62.0615 38.9013L59.0864 38.5156ZM59.1577 38.3726L61.2549 40.5178L59.1577 38.3726ZM62.0001 39.8571C62.0001 43.9072 65.2833 47.1905 69.3334 47.1905V53.1905C61.9696 53.1905 56.0001 47.2209 56.0001 39.8571H62.0001ZM62.0615 38.9013C62.0211 39.2129 62.0001 39.5318 62.0001 39.8571H56.0001C56.0001 39.2732 56.0378 38.6966 56.1113 38.1299L62.0615 38.9013ZM66.381 38.4286C64.3849 38.4286 62.5801 39.2222 61.2549 40.5178L57.0605 36.2275C59.4613 33.8803 62.7546 32.4286 66.381 32.4286V38.4286ZM73.7144 45.7619C73.7144 41.7118 70.4311 38.4286 66.381 38.4286V32.4286C73.7448 32.4286 79.7144 38.3981 79.7144 45.7619H73.7144ZM73.653 46.7178C73.6934 46.4062 73.7144 46.0873 73.7144 45.7619H79.7144C79.7144 46.3459 79.6766 46.9225 79.6032 47.4891L73.653 46.7178ZM69.3334 47.1905C71.3296 47.1905 73.1343 46.3969 74.4595 45.1013L78.654 49.3916C76.2531 51.7388 72.9598 53.1905 69.3334 53.1905V47.1905ZM79.6032 47.4891C79.5095 48.212 79.175 48.8821 78.654 49.3916L74.4595 45.1013C74.0168 45.5341 73.7326 46.1035 73.653 46.7178L79.6032 47.4891ZM56.1113 38.1299C56.205 37.4071 56.5394 36.7369 57.0605 36.2275L61.2549 40.5178C61.6977 40.0849 61.9818 39.5155 62.0615 38.9013L56.1113 38.1299Z" fill="#4FB573" mask="url(#path-22-inside-10)"/>
<mask id="path-24-inside-11" fill="white">
<path fill-rule="evenodd" clip-rule="evenodd" d="M129.333 50.1905C123.626 50.1905 119 45.5641 119 39.8571C119 39.4025 119.029 38.9547 119.086 38.5156C119.093 38.4613 119.119 38.4109 119.158 38.3726C121.021 36.5512 123.57 35.4286 126.381 35.4286C132.088 35.4286 136.714 40.055 136.714 45.7619C136.714 46.2166 136.685 46.6643 136.628 47.1035C136.621 47.1578 136.596 47.2081 136.557 47.2464C134.694 49.0678 132.145 50.1905 129.333 50.1905Z"/>
</mask>
<path fill-rule="evenodd" clip-rule="evenodd" d="M129.333 50.1905C123.626 50.1905 119 45.5641 119 39.8571C119 39.4025 119.029 38.9547 119.086 38.5156C119.093 38.4613 119.119 38.4109 119.158 38.3726C121.021 36.5512 123.57 35.4286 126.381 35.4286C132.088 35.4286 136.714 40.055 136.714 45.7619C136.714 46.2166 136.685 46.6643 136.628 47.1035C136.621 47.1578 136.596 47.2081 136.557 47.2464C134.694 49.0678 132.145 50.1905 129.333 50.1905Z" fill="white"/>
<path d="M136.557 47.2464L138.654 49.3916L136.557 47.2464ZM119.086 38.5156L122.061 38.9013L119.086 38.5156ZM119.158 38.3726L121.255 40.5178L119.158 38.3726ZM122 39.8571C122 43.9072 125.283 47.1905 129.333 47.1905V53.1905C121.97 53.1905 116 47.2209 116 39.8571H122ZM122.061 38.9013C122.021 39.2129 122 39.5318 122 39.8571H116C116 39.2732 116.038 38.6966 116.111 38.1299L122.061 38.9013ZM126.381 38.4286C124.385 38.4286 122.58 39.2222 121.255 40.5178L117.06 36.2275C119.461 33.8803 122.755 32.4286 126.381 32.4286V38.4286ZM133.714 45.7619C133.714 41.7118 130.431 38.4286 126.381 38.4286V32.4286C133.745 32.4286 139.714 38.3981 139.714 45.7619H133.714ZM133.653 46.7178C133.693 46.4062 133.714 46.0873 133.714 45.7619H139.714C139.714 46.3459 139.677 46.9225 139.603 47.4891L133.653 46.7178ZM129.333 47.1905C131.33 47.1905 133.134 46.3969 134.459 45.1013L138.654 49.3916C136.253 51.7388 132.96 53.1905 129.333 53.1905V47.1905ZM139.603 47.4891C139.509 48.212 139.175 48.8821 138.654 49.3916L134.459 45.1013C134.017 45.5341 133.733 46.1035 133.653 46.7178L139.603 47.4891ZM116.111 38.1299C116.205 37.4071 116.539 36.7369 117.06 36.2275L121.255 40.5178C121.698 40.0849 121.982 39.5155 122.061 38.9013L116.111 38.1299Z" fill="#4FB573" mask="url(#path-24-inside-11)"/>
<mask id="path-26-inside-12" fill="white">
<path fill-rule="evenodd" clip-rule="evenodd" d="M10.3334 50.1905C4.62647 50.1905 8.2016e-05 45.5641 8.2016e-05 39.8571C8.2016e-05 39.4025 0.0294418 38.9547 0.0863686 38.5156C0.0934105 38.4613 0.11854 38.4109 0.157705 38.3726C2.02071 36.5512 4.56976 35.4286 7.38102 35.4286C13.088 35.4286 17.7144 40.055 17.7144 45.7619C17.7144 46.2166 17.685 46.6643 17.6281 47.1035C17.621 47.1578 17.5959 47.2081 17.5567 47.2464C15.6937 49.0678 13.1447 50.1905 10.3334 50.1905Z"/>
</mask>
<path fill-rule="evenodd" clip-rule="evenodd" d="M10.3334 50.1905C4.62647 50.1905 8.2016e-05 45.5641 8.2016e-05 39.8571C8.2016e-05 39.4025 0.0294418 38.9547 0.0863686 38.5156C0.0934105 38.4613 0.11854 38.4109 0.157705 38.3726C2.02071 36.5512 4.56976 35.4286 7.38102 35.4286C13.088 35.4286 17.7144 40.055 17.7144 45.7619C17.7144 46.2166 17.685 46.6643 17.6281 47.1035C17.621 47.1578 17.5959 47.2081 17.5567 47.2464C15.6937 49.0678 13.1447 50.1905 10.3334 50.1905Z" fill="white"/>
<path d="M17.5567 47.2464L19.654 49.3916L17.5567 47.2464ZM0.0863686 38.5156L3.06147 38.9013L0.0863686 38.5156ZM0.157705 38.3726L2.25495 40.5178L0.157705 38.3726ZM3.00008 39.8571C3.00008 43.9072 6.28333 47.1905 10.3334 47.1905V53.1905C2.96962 53.1905 -2.99992 47.2209 -2.99992 39.8571H3.00008ZM3.06147 38.9013C3.02108 39.2129 3.00008 39.5318 3.00008 39.8571H-2.99992C-2.99992 39.2732 -2.9622 38.6966 -2.88874 38.1299L3.06147 38.9013ZM7.38102 38.4286C5.38488 38.4286 3.58012 39.2222 2.25495 40.5178L-1.93954 36.2275C0.461292 33.8803 3.75465 32.4286 7.38102 32.4286V38.4286ZM14.7144 45.7619C14.7144 41.7118 11.4311 38.4286 7.38102 38.4286V32.4286C14.7448 32.4286 20.7144 38.3981 20.7144 45.7619H14.7144ZM14.653 46.7178C14.6934 46.4062 14.7144 46.0873 14.7144 45.7619H20.7144C20.7144 46.3459 20.6766 46.9225 20.6032 47.4891L14.653 46.7178ZM10.3334 47.1905C12.3296 47.1905 14.1343 46.3969 15.4595 45.1013L19.654 49.3916C17.2531 51.7388 13.9598 53.1905 10.3334 53.1905V47.1905ZM20.6032 47.4891C20.5095 48.212 20.175 48.8821 19.654 49.3916L15.4595 45.1013C15.0168 45.5341 14.7326 46.1035 14.653 46.7178L20.6032 47.4891ZM-2.88874 38.1299C-2.79503 37.4071 -2.4606 36.7369 -1.93954 36.2275L2.25495 40.5178C2.69768 40.0849 2.98185 39.5155 3.06147 38.9013L-2.88874 38.1299Z" fill="#4FB573" mask="url(#path-26-inside-12)"/>
<mask id="path-28-inside-13" fill="white">
<path fill-rule="evenodd" clip-rule="evenodd" d="M69.3334 32.4761C63.6265 32.4761 59.0001 27.8497 59.0001 22.1428C59.0001 21.6882 59.0294 21.2404 59.0864 20.8013C59.0934 20.7469 59.1185 20.6966 59.1577 20.6583C61.0207 18.8369 63.5698 17.7142 66.381 17.7142C72.088 17.7142 76.7144 22.3406 76.7144 28.0476C76.7144 28.5022 76.685 28.95 76.6281 29.3891C76.621 29.4434 76.5959 29.4938 76.5567 29.5321C74.6937 31.3535 72.1447 32.4761 69.3334 32.4761Z"/>
</mask>
<path fill-rule="evenodd" clip-rule="evenodd" d="M69.3334 32.4761C63.6265 32.4761 59.0001 27.8497 59.0001 22.1428C59.0001 21.6882 59.0294 21.2404 59.0864 20.8013C59.0934 20.7469 59.1185 20.6966 59.1577 20.6583C61.0207 18.8369 63.5698 17.7142 66.381 17.7142C72.088 17.7142 76.7144 22.3406 76.7144 28.0476C76.7144 28.5022 76.685 28.95 76.6281 29.3891C76.621 29.4434 76.5959 29.4938 76.5567 29.5321C74.6937 31.3535 72.1447 32.4761 69.3334 32.4761Z" fill="white"/>
<path d="M76.5567 29.5321L78.654 31.6772L76.5567 29.5321ZM59.0864 20.8013L62.0615 21.1869L59.0864 20.8013ZM59.1577 20.6583L61.2549 22.8034L59.1577 20.6583ZM62.0001 22.1428C62.0001 26.1929 65.2833 29.4761 69.3334 29.4761V35.4761C61.9696 35.4761 56.0001 29.5066 56.0001 22.1428H62.0001ZM62.0615 21.1869C62.0211 21.4985 62.0001 21.8174 62.0001 22.1428H56.0001C56.0001 21.5589 56.0378 20.9823 56.1113 20.4156L62.0615 21.1869ZM66.381 20.7142C64.3849 20.7142 62.5801 21.5078 61.2549 22.8034L57.0605 18.5132C59.4613 16.1659 62.7546 14.7142 66.381 14.7142V20.7142ZM73.7144 28.0476C73.7144 23.9975 70.4311 20.7142 66.381 20.7142V14.7142C73.7448 14.7142 79.7144 20.6838 79.7144 28.0476H73.7144ZM73.653 29.0034C73.6934 28.6918 73.7144 28.3729 73.7144 28.0476H79.7144C79.7144 28.6315 79.6766 29.2081 79.6032 29.7748L73.653 29.0034ZM69.3334 29.4761C71.3296 29.4761 73.1343 28.6825 74.4595 27.3869L78.654 31.6772C76.2531 34.0244 72.9598 35.4761 69.3334 35.4761V29.4761ZM79.6032 29.7748C79.5095 30.4976 79.175 31.1678 78.654 31.6772L74.4595 27.3869C74.0168 27.8198 73.7326 28.3892 73.653 29.0034L79.6032 29.7748ZM56.1113 20.4156C56.205 19.6927 56.5394 19.0226 57.0605 18.5132L61.2549 22.8034C61.6977 22.3706 61.9818 21.8012 62.0615 21.1869L56.1113 20.4156Z" fill="#4FB573" mask="url(#path-28-inside-13)"/>
<mask id="path-30-inside-14" fill="white">
<path fill-rule="evenodd" clip-rule="evenodd" d="M129.333 32.4761C123.626 32.4761 119 27.8497 119 22.1428C119 21.6882 119.029 21.2404 119.086 20.8013C119.093 20.7469 119.119 20.6966 119.158 20.6583C121.021 18.8369 123.57 17.7142 126.381 17.7142C132.088 17.7142 136.714 22.3406 136.714 28.0476C136.714 28.5022 136.685 28.95 136.628 29.3891C136.621 29.4434 136.596 29.4938 136.557 29.5321C134.694 31.3535 132.145 32.4761 129.333 32.4761Z"/>
</mask>
<path fill-rule="evenodd" clip-rule="evenodd" d="M129.333 32.4761C123.626 32.4761 119 27.8497 119 22.1428C119 21.6882 119.029 21.2404 119.086 20.8013C119.093 20.7469 119.119 20.6966 119.158 20.6583C121.021 18.8369 123.57 17.7142 126.381 17.7142C132.088 17.7142 136.714 22.3406 136.714 28.0476C136.714 28.5022 136.685 28.95 136.628 29.3891C136.621 29.4434 136.596 29.4938 136.557 29.5321C134.694 31.3535 132.145 32.4761 129.333 32.4761Z" fill="white"/>
<path d="M136.557 29.5321L138.654 31.6772L136.557 29.5321ZM119.086 20.8013L122.061 21.1869L119.086 20.8013ZM119.158 20.6583L121.255 22.8034L119.158 20.6583ZM122 22.1428C122 26.1929 125.283 29.4761 129.333 29.4761V35.4761C121.97 35.4761 116 29.5066 116 22.1428H122ZM122.061 21.1869C122.021 21.4985 122 21.8174 122 22.1428H116C116 21.5589 116.038 20.9823 116.111 20.4156L122.061 21.1869ZM126.381 20.7142C124.385 20.7142 122.58 21.5078 121.255 22.8034L117.06 18.5132C119.461 16.1659 122.755 14.7142 126.381 14.7142V20.7142ZM133.714 28.0476C133.714 23.9975 130.431 20.7142 126.381 20.7142V14.7142C133.745 14.7142 139.714 20.6838 139.714 28.0476H133.714ZM133.653 29.0034C133.693 28.6918 133.714 28.3729 133.714 28.0476H139.714C139.714 28.6315 139.677 29.2081 139.603 29.7748L133.653 29.0034ZM129.333 29.4761C131.33 29.4761 133.134 28.6825 134.459 27.3869L138.654 31.6772C136.253 34.0244 132.96 35.4761 129.333 35.4761V29.4761ZM139.603 29.7748C139.509 30.4976 139.175 31.1678 138.654 31.6772L134.459 27.3869C134.017 27.8198 133.733 28.3892 133.653 29.0034L139.603 29.7748ZM116.111 20.4156C116.205 19.6927 116.539 19.0226 117.06 18.5132L121.255 22.8034C121.698 22.3706 121.982 21.8012 122.061 21.1869L116.111 20.4156Z" fill="#4FB573" mask="url(#path-30-inside-14)"/>
<mask id="path-32-inside-15" fill="white">
<path fill-rule="evenodd" clip-rule="evenodd" d="M10.3334 32.4761C4.62647 32.4761 8.2016e-05 27.8497 8.2016e-05 22.1428C8.2016e-05 21.6882 0.0294418 21.2404 0.0863686 20.8013C0.0934105 20.7469 0.11854 20.6966 0.157705 20.6583C2.02071 18.8369 4.56976 17.7142 7.38102 17.7142C13.088 17.7142 17.7144 22.3406 17.7144 28.0476C17.7144 28.5022 17.685 28.95 17.6281 29.3891C17.621 29.4434 17.5959 29.4938 17.5567 29.5321C15.6937 31.3535 13.1447 32.4761 10.3334 32.4761Z"/>
</mask>
<path fill-rule="evenodd" clip-rule="evenodd" d="M10.3334 32.4761C4.62647 32.4761 8.2016e-05 27.8497 8.2016e-05 22.1428C8.2016e-05 21.6882 0.0294418 21.2404 0.0863686 20.8013C0.0934105 20.7469 0.11854 20.6966 0.157705 20.6583C2.02071 18.8369 4.56976 17.7142 7.38102 17.7142C13.088 17.7142 17.7144 22.3406 17.7144 28.0476C17.7144 28.5022 17.685 28.95 17.6281 29.3891C17.621 29.4434 17.5959 29.4938 17.5567 29.5321C15.6937 31.3535 13.1447 32.4761 10.3334 32.4761Z" fill="white"/>
<path d="M17.5567 29.5321L19.654 31.6772L17.5567 29.5321ZM0.0863686 20.8013L3.06147 21.1869L0.0863686 20.8013ZM0.157705 20.6583L2.25495 22.8034L0.157705 20.6583ZM3.00008 22.1428C3.00008 26.1929 6.28333 29.4761 10.3334 29.4761V35.4761C2.96962 35.4761 -2.99992 29.5066 -2.99992 22.1428H3.00008ZM3.06147 21.1869C3.02108 21.4985 3.00008 21.8174 3.00008 22.1428H-2.99992C-2.99992 21.5589 -2.9622 20.9823 -2.88874 20.4156L3.06147 21.1869ZM7.38102 20.7142C5.38488 20.7142 3.58012 21.5078 2.25495 22.8034L-1.93954 18.5132C0.461292 16.1659 3.75465 14.7142 7.38102 14.7142V20.7142ZM14.7144 28.0476C14.7144 23.9975 11.4311 20.7142 7.38102 20.7142V14.7142C14.7448 14.7142 20.7144 20.6838 20.7144 28.0476H14.7144ZM14.653 29.0034C14.6934 28.6918 14.7144 28.3729 14.7144 28.0476H20.7144C20.7144 28.6315 20.6766 29.2081 20.6032 29.7748L14.653 29.0034ZM10.3334 29.4761C12.3296 29.4761 14.1343 28.6825 15.4595 27.3869L19.654 31.6772C17.2531 34.0244 13.9598 35.4761 10.3334 35.4761V29.4761ZM20.6032 29.7748C20.5095 30.4976 20.175 31.1678 19.654 31.6772L15.4595 27.3869C15.0168 27.8198 14.7326 28.3892 14.653 29.0034L20.6032 29.7748ZM-2.88874 20.4156C-2.79503 19.6927 -2.4606 19.0226 -1.93954 18.5132L2.25495 22.8034C2.69768 22.3706 2.98185 21.8012 3.06147 21.1869L-2.88874 20.4156Z" fill="#4FB573" mask="url(#path-32-inside-15)"/>
<mask id="path-34-inside-16" fill="white">
<path fill-rule="evenodd" clip-rule="evenodd" d="M69.3334 14.7619C63.6265 14.7619 59.0001 10.1355 59.0001 4.42855C59.0001 3.97392 59.0294 3.52614 59.0864 3.08702C59.0934 3.0327 59.1185 2.98234 59.1577 2.94405C61.0207 1.12264 63.5698 0 66.381 0C72.088 0 76.7144 4.62639 76.7144 10.3333C76.7144 10.788 76.685 11.2357 76.6281 11.6749C76.621 11.7292 76.5959 11.7795 76.5567 11.8178C74.6937 13.6392 72.1447 14.7619 69.3334 14.7619Z"/>
</mask>
<path fill-rule="evenodd" clip-rule="evenodd" d="M69.3334 14.7619C63.6265 14.7619 59.0001 10.1355 59.0001 4.42855C59.0001 3.97392 59.0294 3.52614 59.0864 3.08702C59.0934 3.0327 59.1185 2.98234 59.1577 2.94405C61.0207 1.12264 63.5698 0 66.381 0C72.088 0 76.7144 4.62639 76.7144 10.3333C76.7144 10.788 76.685 11.2357 76.6281 11.6749C76.621 11.7292 76.5959 11.7795 76.5567 11.8178C74.6937 13.6392 72.1447 14.7619 69.3334 14.7619Z" fill="white"/>
<path d="M76.5567 11.8178L78.654 13.963L76.5567 11.8178ZM59.0864 3.08702L62.0615 3.4727L59.0864 3.08702ZM59.1577 2.94405L61.2549 5.08918L59.1577 2.94405ZM62.0001 4.42855C62.0001 8.47864 65.2833 11.7619 69.3334 11.7619V17.7619C61.9696 17.7619 56.0001 11.7923 56.0001 4.42855H62.0001ZM62.0615 3.4727C62.0211 3.78427 62.0001 4.10322 62.0001 4.42855H56.0001C56.0001 3.84462 56.0378 3.26802 56.1113 2.70134L62.0615 3.4727ZM66.381 3C64.3849 3 62.5801 3.79359 61.2549 5.08918L57.0605 0.79892C59.4613 -1.54832 62.7546 -3 66.381 -3V3ZM73.7144 10.3333C73.7144 6.28325 70.4311 3 66.381 3V-3C73.7448 -3 79.7144 2.96954 79.7144 10.3333H73.7144ZM73.653 11.2892C73.6934 10.9776 73.7144 10.6587 73.7144 10.3333H79.7144C79.7144 10.9173 79.6766 11.4939 79.6032 12.0606L73.653 11.2892ZM69.3334 11.7619C71.3296 11.7619 73.1343 10.9683 74.4595 9.67271L78.654 13.963C76.2531 16.3102 72.9598 17.7619 69.3334 17.7619V11.7619ZM79.6032 12.0606C79.5095 12.7834 79.175 13.4535 78.654 13.963L74.4595 9.67271C74.0168 10.1056 73.7326 10.675 73.653 11.2892L79.6032 12.0606ZM56.1113 2.70134C56.205 1.97848 56.5394 1.30836 57.0605 0.79892L61.2549 5.08918C61.6977 4.65632 61.9818 4.08692 62.0615 3.4727L56.1113 2.70134Z" fill="#4FB573" mask="url(#path-34-inside-16)"/>
<mask id="path-36-inside-17" fill="white">
<path fill-rule="evenodd" clip-rule="evenodd" d="M129.333 14.7619C123.626 14.7619 119 10.1355 119 4.42855C119 3.97392 119.029 3.52614 119.086 3.08702C119.093 3.0327 119.119 2.98234 119.158 2.94405C121.021 1.12264 123.57 0 126.381 0C132.088 0 136.714 4.62639 136.714 10.3333C136.714 10.788 136.685 11.2357 136.628 11.6749C136.621 11.7292 136.596 11.7795 136.557 11.8178C134.694 13.6392 132.145 14.7619 129.333 14.7619Z"/>
</mask>
<path fill-rule="evenodd" clip-rule="evenodd" d="M129.333 14.7619C123.626 14.7619 119 10.1355 119 4.42855C119 3.97392 119.029 3.52614 119.086 3.08702C119.093 3.0327 119.119 2.98234 119.158 2.94405C121.021 1.12264 123.57 0 126.381 0C132.088 0 136.714 4.62639 136.714 10.3333C136.714 10.788 136.685 11.2357 136.628 11.6749C136.621 11.7292 136.596 11.7795 136.557 11.8178C134.694 13.6392 132.145 14.7619 129.333 14.7619Z" fill="white"/>
<path d="M136.557 11.8178L138.654 13.963L136.557 11.8178ZM119.086 3.08702L122.061 3.4727L119.086 3.08702ZM119.158 2.94405L121.255 5.08918L119.158 2.94405ZM122 4.42855C122 8.47864 125.283 11.7619 129.333 11.7619V17.7619C121.97 17.7619 116 11.7923 116 4.42855H122ZM122.061 3.4727C122.021 3.78427 122 4.10322 122 4.42855H116C116 3.84462 116.038 3.26802 116.111 2.70134L122.061 3.4727ZM126.381 3C124.385 3 122.58 3.79359 121.255 5.08918L117.06 0.79892C119.461 -1.54832 122.755 -3 126.381 -3V3ZM133.714 10.3333C133.714 6.28325 130.431 3 126.381 3V-3C133.745 -3 139.714 2.96954 139.714 10.3333H133.714ZM133.653 11.2892C133.693 10.9776 133.714 10.6587 133.714 10.3333H139.714C139.714 10.9173 139.677 11.4939 139.603 12.0606L133.653 11.2892ZM129.333 11.7619C131.33 11.7619 133.134 10.9683 134.459 9.67271L138.654 13.963C136.253 16.3102 132.96 17.7619 129.333 17.7619V11.7619ZM139.603 12.0606C139.509 12.7834 139.175 13.4535 138.654 13.963L134.459 9.67271C134.017 10.1056 133.733 10.675 133.653 11.2892L139.603 12.0606ZM116.111 2.70134C116.205 1.97848 116.539 1.30836 117.06 0.79892L121.255 5.08918C121.698 4.65632 121.982 4.08692 122.061 3.4727L116.111 2.70134Z" fill="#4FB573" mask="url(#path-36-inside-17)"/>
<mask id="path-38-inside-18" fill="white">
<path fill-rule="evenodd" clip-rule="evenodd" d="M10.3334 14.7619C4.62647 14.7619 8.2016e-05 10.1355 8.2016e-05 4.42855C8.2016e-05 3.97392 0.0294418 3.52614 0.0863686 3.08702C0.0934105 3.0327 0.11854 2.98234 0.157705 2.94405C2.02071 1.12264 4.56976 0 7.38102 0C13.088 0 17.7144 4.62639 17.7144 10.3333C17.7144 10.788 17.685 11.2357 17.6281 11.6749C17.621 11.7292 17.5959 11.7795 17.5567 11.8178C15.6937 13.6392 13.1447 14.7619 10.3334 14.7619Z"/>
</mask>
<path fill-rule="evenodd" clip-rule="evenodd" d="M10.3334 14.7619C4.62647 14.7619 8.2016e-05 10.1355 8.2016e-05 4.42855C8.2016e-05 3.97392 0.0294418 3.52614 0.0863686 3.08702C0.0934105 3.0327 0.11854 2.98234 0.157705 2.94405C2.02071 1.12264 4.56976 0 7.38102 0C13.088 0 17.7144 4.62639 17.7144 10.3333C17.7144 10.788 17.685 11.2357 17.6281 11.6749C17.621 11.7292 17.5959 11.7795 17.5567 11.8178C15.6937 13.6392 13.1447 14.7619 10.3334 14.7619Z" fill="white"/>
<path d="M17.5567 11.8178L19.654 13.963L17.5567 11.8178ZM0.0863686 3.08702L3.06147 3.4727L0.0863686 3.08702ZM0.157705 2.94405L2.25495 5.08918L0.157705 2.94405ZM3.00008 4.42855C3.00008 8.47864 6.28333 11.7619 10.3334 11.7619V17.7619C2.96962 17.7619 -2.99992 11.7923 -2.99992 4.42855H3.00008ZM3.06147 3.4727C3.02108 3.78427 3.00008 4.10322 3.00008 4.42855H-2.99992C-2.99992 3.84462 -2.9622 3.26802 -2.88874 2.70134L3.06147 3.4727ZM7.38102 3C5.38488 3 3.58012 3.79359 2.25495 5.08918L-1.93954 0.79892C0.461292 -1.54832 3.75465 -3 7.38102 -3V3ZM14.7144 10.3333C14.7144 6.28325 11.4311 3 7.38102 3V-3C14.7448 -3 20.7144 2.96954 20.7144 10.3333H14.7144ZM14.653 11.2892C14.6934 10.9776 14.7144 10.6587 14.7144 10.3333H20.7144C20.7144 10.9173 20.6766 11.4939 20.6032 12.0606L14.653 11.2892ZM10.3334 11.7619C12.3296 11.7619 14.1343 10.9683 15.4595 9.67271L19.654 13.963C17.2531 16.3102 13.9598 17.7619 10.3334 17.7619V11.7619ZM20.6032 12.0606C20.5095 12.7834 20.175 13.4535 19.654 13.963L15.4595 9.67271C15.0168 10.1056 14.7326 10.675 14.653 11.2892L20.6032 12.0606ZM-2.88874 2.70134C-2.79503 1.97848 -2.4606 1.30836 -1.93954 0.79892L2.25495 5.08918C2.69768 4.65632 2.98185 4.08692 3.06147 3.4727L-2.88874 2.70134Z" fill="#4FB573" mask="url(#path-38-inside-18)"/>
<path d="M102.654 52.3081C103.686 52.8546 104.49 53.6733 105.026 54.6339C105.165 54.8829 105.535 54.906 105.703 54.6764C105.879 54.4363 106.074 54.2066 106.29 53.99C107.401 52.8737 108.839 52.3067 110.282 52.286C110.356 52.2849 110.429 52.3105 110.487 52.3582C110.664 52.5037 110.834 52.6614 110.998 52.8312C111.844 53.7128 112.368 54.7959 112.57 55.9266C112.617 56.1955 112.93 56.3423 113.161 56.2045C113.44 56.0375 113.738 55.8921 114.051 55.7716C115.509 55.211 117.048 55.288 118.375 55.8668C118.444 55.8967 118.5 55.95 118.534 56.0177C118.639 56.2241 118.732 56.439 118.814 56.6618C119.124 57.5047 119.235 58.3742 119.17 59.2162C119.153 59.4411 119.332 59.6371 119.553 59.6342C119.702 59.6323 119.852 59.6362 120.003 59.6461C121.557 59.7476 122.93 60.4648 123.907 61.5504C123.958 61.6064 123.988 61.6787 123.992 61.7547C124.004 61.9868 124.003 62.2221 123.988 62.4597C123.803 65.4172 121.534 67.731 118.739 68C111.762 68 97.9926 67.7925 92.4407 67.7925C90.5678 67.6676 88.7886 66.6188 87.7797 64.8315C87.0012 63.4522 86.8244 61.8865 87.166 60.4524C87.1836 60.3784 87.2259 60.313 87.2856 60.2674C87.4677 60.1285 87.6597 59.9989 87.8613 59.8799C89.0506 59.1775 90.3817 58.954 91.6413 59.1507C91.8775 59.1876 92.0947 58.9872 92.0835 58.7431C92.0669 58.385 92.0819 58.0203 92.1309 57.6524C92.3413 56.0743 93.1389 54.7258 94.2676 53.806C94.3259 53.7585 94.3985 53.7333 94.473 53.7347C94.7001 53.7389 94.9294 53.7568 95.1601 53.7889C96.2352 53.9388 97.2013 54.3804 97.9926 55.025C98.166 55.1663 98.4302 55.1088 98.5321 54.9075C99.2481 53.4931 100.442 52.4966 101.807 52.0177C101.878 51.993 101.954 51.9942 102.024 52.021C102.237 52.103 102.447 52.1986 102.654 52.3081Z" fill="#DCF0E3" stroke="#4FB573" stroke-width="3"/>
<path d="M43.6536 52.3081C44.6855 52.8546 45.4899 53.6733 46.0263 54.6339C46.1653 54.8829 46.5354 54.906 46.7032 54.6764C46.8788 54.4363 47.0743 54.2066 47.2899 53.99C48.4007 52.8737 49.8385 52.3067 51.2816 52.286C51.3561 52.2849 51.4286 52.3105 51.4866 52.3582C51.6637 52.5037 51.8344 52.6614 51.9976 52.8312C52.8445 53.7128 53.368 54.7959 53.5695 55.9266C53.6174 56.1955 53.9298 56.3423 54.1605 56.2045C54.4404 56.0375 54.7377 55.8921 55.0512 55.7716C56.5087 55.211 58.0479 55.288 59.3755 55.8668C59.444 55.8967 59.5002 55.95 59.5344 56.0177C59.6387 56.2241 59.7323 56.439 59.8142 56.6618C60.1241 57.5047 60.2347 58.3742 60.17 59.2162C60.1528 59.4411 60.3322 59.6371 60.5526 59.6342C60.7018 59.6323 60.8521 59.6362 61.0035 59.6461C62.5574 59.7476 63.9296 60.4648 64.9074 61.5504C64.9578 61.6064 64.9876 61.6787 64.9916 61.7547C65.0038 61.9868 65.0028 62.2221 64.988 62.4597C64.8032 65.4172 62.5345 67.731 59.7387 68C52.7619 68 38.9926 67.7925 33.4407 67.7925C31.5678 67.6676 29.7886 66.6188 28.7797 64.8315C28.0012 63.4522 27.8244 61.8865 28.166 60.4524C28.1836 60.3784 28.2259 60.313 28.2856 60.2674C28.4677 60.1285 28.6597 59.9989 28.8613 59.8799C30.0506 59.1775 31.3817 58.954 32.6413 59.1507C32.8775 59.1876 33.0947 58.9872 33.0835 58.7431C33.0669 58.385 33.0819 58.0203 33.1309 57.6524C33.3413 56.0743 34.1389 54.7258 35.2676 53.806C35.3259 53.7585 35.3985 53.7333 35.473 53.7347C35.7001 53.7389 35.9294 53.7568 36.1601 53.7889C37.2352 53.9388 38.2013 54.3804 38.9926 55.025C39.166 55.1663 39.4302 55.1088 39.5321 54.9075C40.2481 53.4931 41.442 52.4966 42.8072 52.0177C42.8776 51.993 42.9543 51.9942 43.024 52.021C43.2366 52.103 43.4469 52.1986 43.6536 52.3081Z" fill="#DCF0E3" stroke="#4FB573" stroke-width="3"/>
</svg>
