<svg width="90" height="97" viewBox="0 0 90 97" fill="none" xmlns="http://www.w3.org/2000/svg">
<path d="M23.3064 11.6532L4.99414 16.6474V69.0871L10.8208 74.9137L22.474 76.5785L32.4625 74.9137V49.9425V32.4626L44.1158 27.4683L62.428 29.1331L66.5899 35.7921L68.2547 69.0871H77.4108L85.7345 63.2605L89.064 11.6532L84.0698 6.65895L69.087 2.49707L51.6072 9.15607V25.8036L39.1215 26.6359L39.9539 19.1446L23.3064 11.6532Z" fill="#EFEFEF"/>
<path d="M43.2834 27.4673L33.2949 34.9587V86.5659L43.2834 92.3925L58.2662 93.2249L67.4223 84.9012L68.2547 34.9587L58.2662 27.4673H43.2834Z" fill="white"/>
<path d="M4.12866 38.0811C4.12866 43.3577 11.8503 47.6353 21.3755 47.6353C25.5973 47.6353 29.4647 46.795 32.4626 45.3998" stroke="#8F8F8F" stroke-width="1.5"/>
<path d="M4.03394 45.7493C4.03394 51.0259 11.7556 55.3035 21.2808 55.3035C25.5472 55.3035 29.4518 54.4453 32.4628 53.0235" stroke="#8F8F8F" stroke-width="1.5"/>
<path d="M4.03394 52.9026C4.03394 58.1792 11.7556 62.4568 21.2808 62.4568C25.5472 62.4568 29.4518 61.5986 32.4628 60.1768" stroke="#8F8F8F" stroke-width="1.5"/>
<path d="M4.03394 60.0562C4.03394 65.3328 11.7556 69.6104 21.2808 69.6104C25.4543 69.6104 29.2816 68.7891 32.2649 67.4225" stroke="#8F8F8F" stroke-width="1.5"/>
<path d="M4.09302 21.4856V67.2662C4.09302 72.5429 11.8147 76.8204 21.3398 76.8204C25.2188 76.8204 28.7987 76.111 31.6798 74.9137M38.5866 22.0579V25.8035" stroke="#8F8F8F" stroke-width="3"/>
<path d="M4.12866 60.0759C4.12866 65.3526 11.8503 69.6301 21.3755 69.6301C22.5813 69.6301 23.7582 69.5616 24.8942 69.4311" stroke="#8F8F8F" stroke-width="1.5"/>
<path d="M4.12866 52.9102C4.12866 58.1868 11.8503 62.4644 21.3755 62.4644C22.212 62.4644 23.0346 62.4314 23.8393 62.3676" stroke="#8F8F8F" stroke-width="1.5"/>
<path d="M4.12866 45.7446C4.12866 51.0213 11.8503 55.2988 21.3755 55.2988C22.212 55.2988 23.0346 55.2658 23.8393 55.2021" stroke="#8F8F8F" stroke-width="1.5"/>
<ellipse cx="21.3755" cy="21.3115" rx="17.2468" ry="9.55422" stroke="#8F8F8F" stroke-width="3"/>
<path d="M4.12866 30.0696C4.12866 35.3462 11.8503 39.6238 21.3755 39.6238C25.5276 39.6238 29.337 38.811 32.3135 37.4569" stroke="#8F8F8F" stroke-width="1.5"/>
<path d="M86.8053 38.0046C86.8053 43.4412 79.0836 47.8484 69.5585 47.8484C68.6754 47.8484 67.8078 47.8105 66.9604 47.7374" stroke="#8F8F8F" stroke-width="1.5"/>
<path d="M86.8053 30.1321C86.8053 35.5686 79.0836 39.9758 69.5585 39.9758C68.6754 39.9758 67.8078 39.9379 66.9604 39.8649" stroke="#8F8F8F" stroke-width="1.5"/>
<path d="M86.8052 45.3748C86.8052 50.8113 79.0835 55.2185 69.5584 55.2185C68.2524 55.2185 66.9804 55.1357 65.7576 54.9787" stroke="#8F8F8F" stroke-width="1.5"/>
<path d="M86.8052 52.7451C86.8052 58.1817 79.0836 62.5889 69.5584 62.5889C68.8351 62.5889 68.1222 62.5634 67.4224 62.5141" stroke="#8F8F8F" stroke-width="1.5"/>
<path d="M52.3708 13.0059V25.8036M86.8645 13.5955V60.1738C86.8645 65.6103 79.1428 70.0175 69.6177 70.0175C68.5848 70.0175 67.5731 69.9657 66.5901 69.8663" stroke="#8F8F8F" stroke-width="3"/>
<ellipse cx="69.6531" cy="12.8264" rx="17.2468" ry="9.84374" stroke="#8F8F8F" stroke-width="3"/>
<path d="M86.9 21.8499C86.9 27.2864 79.1784 31.6936 69.6532 31.6936C68.2566 31.6936 66.8988 31.5988 65.5984 31.42" stroke="#8F8F8F" stroke-width="1.5"/>
<path d="M66.9231 53.4106C66.9231 58.8472 59.2014 63.2544 49.6763 63.2544C40.1511 63.2544 32.4294 58.8472 32.4294 53.4106" stroke="#8F8F8F" stroke-width="1.5"/>
<path d="M66.8281 61.311C66.8281 66.7476 59.1064 71.1548 49.5813 71.1548C40.0561 71.1548 32.3345 66.7476 32.3345 61.311" stroke="#8F8F8F" stroke-width="1.5"/>
<path d="M66.8281 68.6812C66.8281 74.1177 59.1064 78.5249 49.5813 78.5249C40.0561 78.5249 32.3345 74.1177 32.3345 68.6812" stroke="#8F8F8F" stroke-width="1.5"/>
<path d="M66.8281 76.0515C66.8281 81.4881 59.1064 85.8953 49.5813 85.8953C40.0561 85.8953 32.3345 81.4881 32.3345 76.0515" stroke="#8F8F8F" stroke-width="1.5"/>
<path d="M32.3938 36.3123V83.4802C32.3938 88.9167 40.1155 93.3239 49.6406 93.3239C59.1658 93.3239 66.8874 88.9167 66.8874 83.4802V36.9019" stroke="#8F8F8F" stroke-width="3"/>
<path d="M32.4294 76.0718C32.4294 81.5083 40.1511 85.9155 49.6763 85.9155C50.8821 85.9155 52.059 85.8449 53.195 85.7105" stroke="#8F8F8F" stroke-width="1.5"/>
<path d="M32.4294 68.689C32.4294 74.1255 40.1511 78.5327 49.6763 78.5327C50.5128 78.5327 51.3354 78.4987 52.1401 78.433" stroke="#8F8F8F" stroke-width="1.5"/>
<path d="M32.4292 61.3064C32.4292 66.7429 40.1509 71.1501 49.676 71.1501C50.5125 71.1501 51.3352 71.1161 52.1398 71.0505" stroke="#8F8F8F" stroke-width="1.5"/>
<ellipse cx="49.676" cy="36.1328" rx="17.2468" ry="9.84374" stroke="#8F8F8F" stroke-width="3"/>
<path d="M66.9228 45.1562C66.9228 50.5928 59.2012 55 49.676 55C40.1509 55 32.4292 50.5928 32.4292 45.1562" stroke="#8F8F8F" stroke-width="1.5"/>
</svg>
