<svg width="92" height="114" viewBox="0 0 92 114" fill="none" xmlns="http://www.w3.org/2000/svg">
<path d="M14.3149 83.4898L28.1051 69.7722C29.9379 67.9458 32.3816 66.8804 34.978 66.8804H59.0298C61.7937 66.8804 63.2961 69.0445 63.2961 71.142C63.2961 73.0992 62.2417 75.5558 59.0298 75.5558H45.9635C43.978 75.5558 42.4507 77.0778 42.4507 79.0565C42.4507 81.0351 43.978 82.5571 45.9635 82.5571H63.2331L80.5624 64.1806C81.9369 62.8108 85.1098 61.9799 87.5503 64.1804C90.5451 66.8804 89.5469 70.1987 88.5487 71.2017L71.6155 89.7673C69.9354 91.8981 67.339 93.2679 64.5899 93.2679H40.1531L31.7341 101.674" stroke="#8F8F8F" stroke-width="3" stroke-miterlimit="10" stroke-linejoin="round"/>
<path d="M24.781 112.765L1.23096 89.1277L10.965 79.3578L34.5151 102.995L24.781 112.765Z" fill="white" stroke="#8F8F8F" stroke-width="1.5" stroke-miterlimit="10" stroke-linejoin="round"/>
<path d="M66.7855 28.1055C66.7855 42.8146 54.9939 54.7109 40.4823 54.7109C25.9708 54.7109 14.1792 42.8146 14.1792 28.1055C14.1792 13.3963 25.9708 1.5 40.4823 1.5C54.9939 1.5 66.7855 13.3963 66.7855 28.1055Z" fill="#EFEFEF" stroke="#8F8F8F" stroke-width="3"/>
<ellipse cx="40.4825" cy="28.1054" rx="16.3548" ry="16.5326" stroke="#8F8F8F" stroke-width="2" stroke-linecap="round" stroke-dasharray="0.1 3.5"/>
</svg>
