<svg width="134" height="144" viewBox="0 0 134 144" fill="none" xmlns="http://www.w3.org/2000/svg">
<path d="M66 50.9999L66 106" stroke="#4FB573" stroke-width="3" stroke-linecap="round"/>
<mask id="path-2-inside-1" fill="white">
<path fill-rule="evenodd" clip-rule="evenodd" d="M72.1429 94.1903C77.8499 94.1903 82.4762 89.5639 82.4762 83.857C82.4762 83.4023 82.4469 82.9546 82.39 82.5154C82.3829 82.4611 82.3578 82.4108 82.3186 82.3725C80.4556 80.551 77.9066 79.4284 75.0953 79.4284C69.3884 79.4284 64.762 84.0548 64.762 89.7617C64.762 90.2164 64.7913 90.6642 64.8483 91.1033C64.8553 91.1576 64.8804 91.208 64.9196 91.2463C66.7826 93.0677 69.3317 94.1903 72.1429 94.1903Z"/>
</mask>
<path fill-rule="evenodd" clip-rule="evenodd" d="M72.1429 94.1903C77.8499 94.1903 82.4762 89.5639 82.4762 83.857C82.4762 83.4023 82.4469 82.9546 82.39 82.5154C82.3829 82.4611 82.3578 82.4108 82.3186 82.3725C80.4556 80.551 77.9066 79.4284 75.0953 79.4284C69.3884 79.4284 64.762 84.0548 64.762 89.7617C64.762 90.2164 64.7913 90.6642 64.8483 91.1033C64.8553 91.1576 64.8804 91.208 64.9196 91.2463C66.7826 93.0677 69.3317 94.1903 72.1429 94.1903Z" fill="#DCF0E3"/>
<path d="M64.8483 91.1033L61.8731 91.489L64.8483 91.1033ZM64.9196 91.2463L67.0168 89.1011L64.9196 91.2463ZM82.39 82.5154L85.3651 82.1297L82.39 82.5154ZM82.3186 82.3725L80.2214 84.5176L82.3186 82.3725ZM79.4762 83.857C79.4762 87.9071 76.193 91.1903 72.1429 91.1903V97.1903C79.5067 97.1903 85.4762 91.2208 85.4762 83.857H79.4762ZM79.4149 82.9011C79.4552 83.2127 79.4762 83.5316 79.4762 83.857H85.4762C85.4762 83.273 85.4385 82.6964 85.3651 82.1297L79.4149 82.9011ZM75.0953 82.4284C77.0914 82.4284 78.8962 83.222 80.2214 84.5176L84.4159 80.2273C82.015 77.8801 78.7217 76.4284 75.0953 76.4284V82.4284ZM67.762 89.7617C67.762 85.7117 71.0452 82.4284 75.0953 82.4284V76.4284C67.7315 76.4284 61.762 82.3979 61.762 89.7617H67.762ZM67.8234 90.7176C67.783 90.406 67.762 90.0871 67.762 89.7617H61.762C61.762 90.3457 61.7997 90.9223 61.8731 91.489L67.8234 90.7176ZM72.1429 91.1903C70.1468 91.1903 68.342 90.3967 67.0168 89.1011L62.8223 93.3914C65.2232 95.7386 68.5165 97.1903 72.1429 97.1903V91.1903ZM61.8731 91.489C61.9669 92.2118 62.3013 92.8819 62.8223 93.3914L67.0168 89.1011C67.4596 89.534 67.7437 90.1034 67.8234 90.7176L61.8731 91.489ZM85.3651 82.1297C85.2714 81.4069 84.9369 80.7368 84.4159 80.2273L80.2214 84.5176C79.7786 84.0847 79.4945 83.5153 79.4149 82.9011L85.3651 82.1297Z" fill="#4FB573" mask="url(#path-2-inside-1)"/>
<mask id="path-4-inside-2" fill="white">
<path fill-rule="evenodd" clip-rule="evenodd" d="M72.1429 76.476C77.8499 76.476 82.4762 71.8497 82.4762 66.1427C82.4762 65.6881 82.4469 65.2403 82.39 64.8012C82.3829 64.7469 82.3578 64.6965 82.3186 64.6582C80.4556 62.8368 77.9066 61.7141 75.0953 61.7141C69.3884 61.7141 64.762 66.3405 64.762 72.0475C64.762 72.5021 64.7913 72.9499 64.8483 73.389C64.8553 73.4433 64.8804 73.4937 64.9196 73.532C66.7826 75.3534 69.3317 76.476 72.1429 76.476Z"/>
</mask>
<path fill-rule="evenodd" clip-rule="evenodd" d="M72.1429 76.476C77.8499 76.476 82.4762 71.8497 82.4762 66.1427C82.4762 65.6881 82.4469 65.2403 82.39 64.8012C82.3829 64.7469 82.3578 64.6965 82.3186 64.6582C80.4556 62.8368 77.9066 61.7141 75.0953 61.7141C69.3884 61.7141 64.762 66.3405 64.762 72.0475C64.762 72.5021 64.7913 72.9499 64.8483 73.389C64.8553 73.4433 64.8804 73.4937 64.9196 73.532C66.7826 75.3534 69.3317 76.476 72.1429 76.476Z" fill="#DCF0E3"/>
<path d="M64.8483 73.389L67.8234 73.0033L64.8483 73.389ZM64.9196 73.532L67.0168 71.3869L64.9196 73.532ZM82.39 64.8012L85.3651 64.4155L82.39 64.8012ZM82.3186 64.6582L84.4159 62.5131L82.3186 64.6582ZM79.4762 66.1427C79.4762 70.1928 76.193 73.476 72.1429 73.476V79.476C79.5067 79.476 85.4762 73.5065 85.4762 66.1427H79.4762ZM79.4149 65.1869C79.4552 65.4984 79.4762 65.8174 79.4762 66.1427H85.4762C85.4762 65.5588 85.4385 64.9822 85.3651 64.4155L79.4149 65.1869ZM75.0953 64.7141C77.0914 64.7141 78.8962 65.5077 80.2214 66.8033L84.4159 62.5131C82.015 60.1658 78.7217 58.7141 75.0953 58.7141V64.7141ZM67.762 72.0475C67.762 67.9974 71.0452 64.7141 75.0953 64.7141V58.7141C67.7315 58.7141 61.762 64.6837 61.762 72.0475H67.762ZM67.8234 73.0033C67.783 72.6918 67.762 72.3728 67.762 72.0475H61.762C61.762 72.6314 61.7997 73.208 61.8731 73.7747L67.8234 73.0033ZM72.1429 73.476C70.1468 73.476 68.342 72.6825 67.0168 71.3869L62.8223 75.6771C65.2232 78.0244 68.5165 79.476 72.1429 79.476V73.476ZM61.8731 73.7747C61.9669 74.4976 62.3013 75.1677 62.8223 75.6771L67.0168 71.3869C67.4596 71.8197 67.7437 72.3891 67.8234 73.0033L61.8731 73.7747ZM85.3651 64.4155C85.2714 63.6926 84.9369 63.0225 84.4159 62.5131L80.2214 66.8033C79.7786 66.3705 79.4945 65.8011 79.4149 65.1869L85.3651 64.4155Z" fill="#4FB573" mask="url(#path-4-inside-2)"/>
<mask id="path-6-inside-3" fill="white">
<path fill-rule="evenodd" clip-rule="evenodd" d="M72.1429 58.7618C77.8499 58.7618 82.4762 54.1354 82.4762 48.4285C82.4762 47.9738 82.4469 47.5261 82.39 47.0869C82.3829 47.0326 82.3578 46.9823 82.3186 46.944C80.4556 45.1225 77.9066 43.9999 75.0953 43.9999C69.3884 43.9999 64.762 48.6263 64.762 54.3332C64.762 54.7879 64.7913 55.2357 64.8483 55.6748C64.8553 55.7291 64.8804 55.7795 64.9196 55.8178C66.7826 57.6392 69.3317 58.7618 72.1429 58.7618Z"/>
</mask>
<path fill-rule="evenodd" clip-rule="evenodd" d="M72.1429 58.7618C77.8499 58.7618 82.4762 54.1354 82.4762 48.4285C82.4762 47.9738 82.4469 47.5261 82.39 47.0869C82.3829 47.0326 82.3578 46.9823 82.3186 46.944C80.4556 45.1225 77.9066 43.9999 75.0953 43.9999C69.3884 43.9999 64.762 48.6263 64.762 54.3332C64.762 54.7879 64.7913 55.2357 64.8483 55.6748C64.8553 55.7291 64.8804 55.7795 64.9196 55.8178C66.7826 57.6392 69.3317 58.7618 72.1429 58.7618Z" fill="#DCF0E3"/>
<path d="M64.8483 55.6748L61.8731 56.0605L64.8483 55.6748ZM64.9196 55.8178L67.0168 53.6726L64.9196 55.8178ZM82.39 47.0869L85.3651 46.7012L82.39 47.0869ZM82.3186 46.944L80.2214 49.0891L82.3186 46.944ZM79.4762 48.4285C79.4762 52.4786 76.193 55.7618 72.1429 55.7618V61.7618C79.5067 61.7618 85.4762 55.7923 85.4762 48.4285H79.4762ZM79.4149 47.4726C79.4552 47.7842 79.4762 48.1031 79.4762 48.4285H85.4762C85.4762 47.8445 85.4385 47.2679 85.3651 46.7012L79.4149 47.4726ZM75.0953 46.9999C77.0914 46.9999 78.8962 47.7935 80.2214 49.0891L84.4159 44.7988C82.015 42.4516 78.7217 40.9999 75.0953 40.9999V46.9999ZM67.762 54.3332C67.762 50.2832 71.0452 46.9999 75.0953 46.9999V40.9999C67.7315 40.9999 61.762 46.9694 61.762 54.3332H67.762ZM67.8234 55.2891C67.783 54.9775 67.762 54.6586 67.762 54.3332H61.762C61.762 54.9172 61.7997 55.4938 61.8731 56.0605L67.8234 55.2891ZM72.1429 55.7618C70.1468 55.7618 68.342 54.9682 67.0168 53.6726L62.8223 57.9629C65.2232 60.3101 68.5165 61.7618 72.1429 61.7618V55.7618ZM61.8731 56.0605C61.9669 56.7833 62.3013 57.4535 62.8223 57.9629L67.0168 53.6726C67.4596 54.1055 67.7437 54.6749 67.8234 55.2891L61.8731 56.0605ZM85.3651 46.7012C85.2714 45.9784 84.9369 45.3083 84.4159 44.7988L80.2214 49.0891C79.7786 48.6562 79.4945 48.0868 79.4149 47.4726L85.3651 46.7012Z" fill="#4FB573" mask="url(#path-6-inside-3)"/>
<mask id="path-8-inside-4" fill="white">
<path fill-rule="evenodd" clip-rule="evenodd" d="M60.3334 94.1903C54.6265 94.1903 50.0001 89.5639 50.0001 83.857C50.0001 83.4023 50.0294 82.9546 50.0864 82.5154C50.0934 82.4611 50.1185 82.4108 50.1577 82.3725C52.0207 80.551 54.5698 79.4284 57.381 79.4284C63.088 79.4284 67.7144 84.0548 67.7144 89.7617C67.7144 90.2164 67.685 90.6642 67.6281 91.1033C67.621 91.1576 67.5959 91.208 67.5567 91.2463C65.6937 93.0677 63.1447 94.1903 60.3334 94.1903Z"/>
</mask>
<path fill-rule="evenodd" clip-rule="evenodd" d="M60.3334 94.1903C54.6265 94.1903 50.0001 89.5639 50.0001 83.857C50.0001 83.4023 50.0294 82.9546 50.0864 82.5154C50.0934 82.4611 50.1185 82.4108 50.1577 82.3725C52.0207 80.551 54.5698 79.4284 57.381 79.4284C63.088 79.4284 67.7144 84.0548 67.7144 89.7617C67.7144 90.2164 67.685 90.6642 67.6281 91.1033C67.621 91.1576 67.5959 91.208 67.5567 91.2463C65.6937 93.0677 63.1447 94.1903 60.3334 94.1903Z" fill="#DCF0E3"/>
<path d="M67.5567 91.2463L65.4595 89.1011L67.5567 91.2463ZM50.0864 82.5154L47.1113 82.1297L50.0864 82.5154ZM50.1577 82.3725L52.2549 84.5176L50.1577 82.3725ZM53.0001 83.857C53.0001 87.9071 56.2833 91.1903 60.3334 91.1903V97.1903C52.9696 97.1903 47.0001 91.2208 47.0001 83.857H53.0001ZM53.0615 82.9011C53.0211 83.2127 53.0001 83.5316 53.0001 83.857H47.0001C47.0001 83.273 47.0378 82.6964 47.1113 82.1297L53.0615 82.9011ZM57.381 82.4284C55.3849 82.4284 53.5801 83.222 52.2549 84.5176L48.0605 80.2273C50.4613 77.8801 53.7546 76.4284 57.381 76.4284V82.4284ZM64.7144 89.7617C64.7144 85.7117 61.4311 82.4284 57.381 82.4284V76.4284C64.7448 76.4284 70.7144 82.3979 70.7144 89.7617H64.7144ZM64.653 90.7176C64.6934 90.406 64.7144 90.0871 64.7144 89.7617H70.7144C70.7144 90.3457 70.6766 90.9223 70.6032 91.489L64.653 90.7176ZM60.3334 91.1903C62.3295 91.1903 64.1343 90.3967 65.4595 89.1011L69.654 93.3914C67.2531 95.7386 63.9598 97.1903 60.3334 97.1903V91.1903ZM70.6032 91.489C70.5095 92.2118 70.175 92.8819 69.654 93.3914L65.4595 89.1011C65.0168 89.534 64.7326 90.1034 64.653 90.7176L70.6032 91.489ZM47.1113 82.1297C47.205 81.4069 47.5394 80.7368 48.0605 80.2273L52.2549 84.5176C52.6977 84.0847 52.9818 83.5153 53.0615 82.9011L47.1113 82.1297Z" fill="#4FB573" mask="url(#path-8-inside-4)"/>
<mask id="path-10-inside-5" fill="white">
<path fill-rule="evenodd" clip-rule="evenodd" d="M60.3334 76.476C54.6265 76.476 50.0001 71.8497 50.0001 66.1427C50.0001 65.6881 50.0294 65.2403 50.0864 64.8012C50.0934 64.7469 50.1185 64.6965 50.1577 64.6582C52.0207 62.8368 54.5698 61.7141 57.381 61.7141C63.088 61.7141 67.7144 66.3405 67.7144 72.0475C67.7144 72.5021 67.685 72.9499 67.6281 73.389C67.621 73.4433 67.5959 73.4937 67.5567 73.532C65.6937 75.3534 63.1447 76.476 60.3334 76.476Z"/>
</mask>
<path fill-rule="evenodd" clip-rule="evenodd" d="M60.3334 76.476C54.6265 76.476 50.0001 71.8497 50.0001 66.1427C50.0001 65.6881 50.0294 65.2403 50.0864 64.8012C50.0934 64.7469 50.1185 64.6965 50.1577 64.6582C52.0207 62.8368 54.5698 61.7141 57.381 61.7141C63.088 61.7141 67.7144 66.3405 67.7144 72.0475C67.7144 72.5021 67.685 72.9499 67.6281 73.389C67.621 73.4433 67.5959 73.4937 67.5567 73.532C65.6937 75.3534 63.1447 76.476 60.3334 76.476Z" fill="#DCF0E3"/>
<path d="M67.6281 73.389L70.6032 73.7747L67.6281 73.389ZM67.5567 73.532L65.4595 71.3869L67.5567 73.532ZM50.0864 64.8012L47.1113 64.4155L50.0864 64.8012ZM50.1577 64.6582L48.0605 62.5131L50.1577 64.6582ZM53.0001 66.1427C53.0001 70.1928 56.2833 73.476 60.3334 73.476V79.476C52.9696 79.476 47.0001 73.5065 47.0001 66.1427H53.0001ZM53.0615 65.1869C53.0211 65.4984 53.0001 65.8174 53.0001 66.1427H47.0001C47.0001 65.5588 47.0378 64.9822 47.1113 64.4155L53.0615 65.1869ZM57.381 64.7141C55.3849 64.7141 53.5801 65.5077 52.2549 66.8033L48.0605 62.5131C50.4613 60.1658 53.7546 58.7141 57.381 58.7141V64.7141ZM64.7144 72.0475C64.7144 67.9974 61.4311 64.7141 57.381 64.7141V58.7141C64.7448 58.7141 70.7144 64.6837 70.7144 72.0475H64.7144ZM64.653 73.0033C64.6934 72.6918 64.7144 72.3728 64.7144 72.0475H70.7144C70.7144 72.6314 70.6766 73.208 70.6032 73.7747L64.653 73.0033ZM60.3334 73.476C62.3295 73.476 64.1343 72.6825 65.4595 71.3869L69.654 75.6771C67.2531 78.0244 63.9598 79.476 60.3334 79.476V73.476ZM70.6032 73.7747C70.5095 74.4976 70.175 75.1677 69.654 75.6771L65.4595 71.3869C65.0168 71.8197 64.7326 72.3891 64.653 73.0033L70.6032 73.7747ZM47.1113 64.4155C47.205 63.6926 47.5394 63.0225 48.0605 62.5131L52.2549 66.8033C52.6977 66.3705 52.9818 65.8011 53.0615 65.1869L47.1113 64.4155Z" fill="#4FB573" mask="url(#path-10-inside-5)"/>
<mask id="path-12-inside-6" fill="white">
<path fill-rule="evenodd" clip-rule="evenodd" d="M60.3334 58.7618C54.6265 58.7618 50.0001 54.1354 50.0001 48.4285C50.0001 47.9738 50.0294 47.5261 50.0864 47.0869C50.0934 47.0326 50.1185 46.9823 50.1577 46.944C52.0207 45.1225 54.5698 43.9999 57.381 43.9999C63.088 43.9999 67.7144 48.6263 67.7144 54.3332C67.7144 54.7879 67.685 55.2357 67.6281 55.6748C67.621 55.7291 67.5959 55.7795 67.5567 55.8178C65.6937 57.6392 63.1447 58.7618 60.3334 58.7618Z"/>
</mask>
<path fill-rule="evenodd" clip-rule="evenodd" d="M60.3334 58.7618C54.6265 58.7618 50.0001 54.1354 50.0001 48.4285C50.0001 47.9738 50.0294 47.5261 50.0864 47.0869C50.0934 47.0326 50.1185 46.9823 50.1577 46.944C52.0207 45.1225 54.5698 43.9999 57.381 43.9999C63.088 43.9999 67.7144 48.6263 67.7144 54.3332C67.7144 54.7879 67.685 55.2357 67.6281 55.6748C67.621 55.7291 67.5959 55.7795 67.5567 55.8178C65.6937 57.6392 63.1447 58.7618 60.3334 58.7618Z" fill="#DCF0E3"/>
<path d="M67.5567 55.8178L65.4595 53.6726L67.5567 55.8178ZM50.0864 47.0869L47.1113 46.7012L50.0864 47.0869ZM50.1577 46.944L52.2549 49.0891L50.1577 46.944ZM53.0001 48.4285C53.0001 52.4786 56.2833 55.7618 60.3334 55.7618V61.7618C52.9696 61.7618 47.0001 55.7923 47.0001 48.4285H53.0001ZM53.0615 47.4726C53.0211 47.7842 53.0001 48.1031 53.0001 48.4285H47.0001C47.0001 47.8445 47.0378 47.2679 47.1113 46.7012L53.0615 47.4726ZM57.381 46.9999C55.3849 46.9999 53.5801 47.7935 52.2549 49.0891L48.0605 44.7988C50.4613 42.4516 53.7546 40.9999 57.381 40.9999V46.9999ZM64.7144 54.3332C64.7144 50.2832 61.4311 46.9999 57.381 46.9999V40.9999C64.7448 40.9999 70.7144 46.9694 70.7144 54.3332H64.7144ZM64.653 55.2891C64.6934 54.9775 64.7144 54.6586 64.7144 54.3332H70.7144C70.7144 54.9172 70.6766 55.4938 70.6032 56.0605L64.653 55.2891ZM60.3334 55.7618C62.3295 55.7618 64.1343 54.9682 65.4595 53.6726L69.654 57.9629C67.2531 60.3101 63.9598 61.7618 60.3334 61.7618V55.7618ZM70.6032 56.0605C70.5095 56.7833 70.175 57.4535 69.654 57.9629L65.4595 53.6726C65.0168 54.1055 64.7326 54.6749 64.653 55.2891L70.6032 56.0605ZM47.1113 46.7012C47.205 45.9784 47.5394 45.3083 48.0605 44.7988L52.2549 49.0891C52.6977 48.6562 52.9818 48.0868 53.0615 47.4726L47.1113 46.7012Z" fill="#4FB573" mask="url(#path-12-inside-6)"/>
<path d="M93.4311 110.942C71.9371 125.496 42.7151 119.869 28.162 98.3749C16.3424 80.9182 17.8337 58.364 30.3256 42.7107" stroke="#7BC796" stroke-width="3" stroke-linecap="round"/>
<mask id="path-15-inside-7" fill="white">
<rect x="83.9424" y="109.414" width="2" height="11.0576" rx="0.25" transform="rotate(-79.1011 83.9424 109.414)"/>
</mask>
<rect x="83.9424" y="109.414" width="2" height="11.0576" rx="0.25" transform="rotate(-79.1011 83.9424 109.414)" fill="#7BC796" stroke="#7BC796" stroke-width="2" stroke-linecap="round" mask="url(#path-15-inside-7)"/>
<mask id="path-16-inside-8" fill="white">
<rect width="2" height="11.0576" rx="0.25" transform="matrix(0.981962 0.189077 0.189077 -0.981962 91.1301 120.029)"/>
</mask>
<rect width="2" height="11.0576" rx="0.25" transform="matrix(0.981962 0.189077 0.189077 -0.981962 91.1301 120.029)" fill="#7BC796" stroke="#7BC796" stroke-width="2" stroke-linecap="round" mask="url(#path-16-inside-8)"/>
<path d="M40.7255 32.6841C62.2195 18.1309 91.4414 23.7576 105.995 45.2516C117.929 62.8778 116.293 85.701 103.464 101.37" stroke="#7BC796" stroke-width="3" stroke-linecap="round"/>
<mask id="path-18-inside-9" fill="white">
<rect x="50.2141" y="34.2129" width="2" height="11.0576" rx="0.25" transform="rotate(100.899 50.2141 34.2129)"/>
</mask>
<rect x="50.2141" y="34.2129" width="2" height="11.0576" rx="0.25" transform="rotate(100.899 50.2141 34.2129)" fill="#7BC796" stroke="#7BC796" stroke-width="2" stroke-linecap="round" mask="url(#path-18-inside-9)"/>
<mask id="path-19-inside-10" fill="white">
<rect width="2" height="11.0576" rx="0.25" transform="matrix(-0.981962 -0.189077 -0.189077 0.981962 43.0266 23.5972)"/>
</mask>
<rect width="2" height="11.0576" rx="0.25" transform="matrix(-0.981962 -0.189077 -0.189077 0.981962 43.0266 23.5972)" fill="#7BC796" stroke="#7BC796" stroke-width="2" stroke-linecap="round" mask="url(#path-19-inside-10)"/>
</svg>
