<svg width="130" height="112" viewBox="0 0 130 112" fill="none" xmlns="http://www.w3.org/2000/svg">
<line x1="21.5" y1="109.732" x2="32.5" y2="109.732" stroke="#4FB573" stroke-width="3" stroke-linecap="round"/>
<line x1="53.5" y1="109.253" x2="71.5" y2="109.253" stroke="#4FB573" stroke-width="3" stroke-linecap="round"/>
<line x1="94.5" y1="109.253" x2="120.5" y2="109.253" stroke="#4FB573" stroke-width="3" stroke-linecap="round"/>
<path d="M36.5 89.683C36.5 94.6125 32.3084 98.718 27 98.718C21.6916 98.718 17.5 94.6125 17.5 89.683C17.5 84.7536 21.6916 80.6481 27 80.6481C32.3084 80.6481 36.5 84.7536 36.5 89.683Z" fill="#DCF0E3" stroke="#4FB573" stroke-width="3"/>
<path d="M77.5 78.1904C77.5 85.7646 71.0698 92.014 63 92.014C54.9302 92.014 48.5 85.7646 48.5 78.1904C48.5 70.6162 54.9302 64.3667 63 64.3667C71.0698 64.3667 77.5 70.6162 77.5 78.1904Z" fill="#DCF0E3" stroke="#4FB573" stroke-width="3"/>
<path d="M128.5 64.7823C128.5 76.059 118.936 85.3099 107 85.3099C95.0642 85.3099 85.5 76.059 85.5 64.7823C85.5 53.5056 95.0642 44.2546 107 44.2546C118.936 44.2546 128.5 53.5056 128.5 64.7823Z" fill="#DCF0E3" stroke="#4FB573" stroke-width="3"/>
<path d="M28.5 91.1196C28.5 90.2912 27.8284 89.6196 27 89.6196C26.1716 89.6196 25.5 90.2912 25.5 91.1196L28.5 91.1196ZM28.5 111.232L28.5 91.1196L25.5 91.1196L25.5 111.232L28.5 111.232Z" fill="#4FB573"/>
<path d="M64.5 72.444C64.5 71.6155 63.8284 70.944 63 70.944C62.1716 70.944 61.5 71.6155 61.5 72.444L64.5 72.444ZM64.5 110.753L64.5 72.444L61.5 72.444L61.5 110.753L64.5 110.753Z" fill="#4FB573"/>
<path d="M70.6659 79.6424C71.1255 79.3361 71.2349 78.7256 70.9102 78.2788C70.5856 77.832 69.9498 77.7181 69.4903 78.0244L70.6659 79.6424ZM63.5995 84.3521L70.6659 79.6424L69.4903 78.0244L62.4238 82.7341L63.5995 84.3521Z" fill="#4FB573"/>
<path d="M121.179 66.0047C121.638 65.6984 121.748 65.0879 121.423 64.6411C121.098 64.1943 120.463 64.0804 120.003 64.3867L121.179 66.0047ZM107.494 75.1255L121.179 66.0047L120.003 64.3867L106.318 73.5075L107.494 75.1255Z" fill="#4FB573"/>
<path d="M55.4122 79.6424C54.9526 79.3361 54.8432 78.7256 55.1679 78.2788C55.4925 77.832 56.1283 77.7181 56.5878 78.0244L55.4122 79.6424ZM62.4786 84.3521L55.4122 79.6424L56.5878 78.0244L63.6543 82.7341L62.4786 84.3521Z" fill="#4FB573"/>
<path d="M92.7396 66.0047C92.28 65.6984 92.1707 65.0879 92.4953 64.6411C92.82 64.1943 93.4557 64.0804 93.9153 64.3867L92.7396 66.0047ZM106.424 75.1255L92.7396 66.0047L93.9153 64.3867L107.6 73.5075L106.424 75.1255Z" fill="#4FB573"/>
<path d="M108.5 57.1204C108.5 56.2919 107.828 55.6204 107 55.6204C106.172 55.6204 105.5 56.2919 105.5 57.1204L108.5 57.1204ZM108.5 109.795L108.5 57.1204L105.5 57.1204L105.5 109.795L108.5 109.795Z" fill="#4FB573"/>
<path d="M6.33563 60.8258C5.59289 61.1927 5.28823 62.0923 5.65515 62.835C6.02207 63.5778 6.92163 63.8824 7.66437 63.5155L6.33563 60.8258ZM112.003 11.4812C112.269 10.6965 111.848 9.84502 111.064 9.57928L98.2773 5.24871C97.4926 4.98296 96.6411 5.40362 96.3754 6.18827C96.1096 6.97291 96.5303 7.82442 97.3149 8.09017L108.681 11.9396L104.831 23.3054C104.566 24.09 104.986 24.9416 105.771 25.2073C106.556 25.473 107.407 25.0524 107.673 24.2677L112.003 11.4812ZM7.66437 63.5155L111.247 12.3449L109.918 9.65516L6.33563 60.8258L7.66437 63.5155Z" fill="#4FB573"/>
</svg>
