<svg width="102" height="91" viewBox="0 0 102 91" fill="none" xmlns="http://www.w3.org/2000/svg">
<path fill-rule="evenodd" clip-rule="evenodd" d="M44.0132 39.9929C43.7737 39.9303 43.7502 39.5843 43.9785 39.4882C51.0536 36.5098 56.0122 29.5879 56.0122 21.5242C56.0122 10.7413 47.1455 2 36.2077 2C25.27 2 16.4032 10.7413 16.4032 21.5242C16.4032 29.5369 21.2993 36.4223 28.3031 39.4312C28.5306 39.529 28.5046 39.8748 28.2646 39.9357C13.6095 43.6511 2.59442 57.6559 2.02329 74.5579C2.02307 74.5642 2.01792 74.5692 2.01165 74.5692C2.00521 74.5692 2 74.5744 2 74.5809V75.9385V87.2615C2 87.8138 2.44771 88.2615 3 88.2615H69.0556C69.6078 88.2615 70.0556 87.8138 70.0556 87.2615V75.9385V74.5809C70.0556 74.5744 70.0503 74.5692 70.0439 74.5692C70.0376 74.5692 70.0325 74.5642 70.0323 74.5579C69.464 57.7414 58.5573 43.7929 44.0132 39.9929Z" fill="white"/>
<path d="M70.0323 74.5579L68.0334 74.6255L70.0323 74.5579ZM2.02329 74.5579L0.0244278 74.4904L2.02329 74.5579ZM28.3031 39.4312L29.0925 37.5936L28.3031 39.4312ZM28.2646 39.9357L28.7561 41.8744L28.2646 39.9357ZM43.9785 39.4882L43.2025 37.6448L43.9785 39.4882ZM44.0132 39.9929L43.5077 41.9279L44.0132 39.9929ZM54.0122 21.5242C54.0122 28.7422 49.5744 34.9625 43.2025 37.6448L44.7544 41.3315C52.5328 38.0571 58.0122 30.4336 58.0122 21.5242H54.0122ZM36.2077 4C46.0679 4 54.0122 11.8726 54.0122 21.5242H58.0122C58.0122 9.60994 48.223 0 36.2077 0V4ZM18.4032 21.5242C18.4032 11.8726 26.3476 4 36.2077 4V0C24.1924 0 14.4032 9.60994 14.4032 21.5242H18.4032ZM29.0925 37.5936C22.785 34.8838 18.4032 28.6966 18.4032 21.5242H14.4032C14.4032 30.3772 19.8137 37.9608 27.5136 41.2688L29.0925 37.5936ZM4.02215 74.6255C4.566 58.5305 15.0414 45.3514 28.7561 41.8744L27.7731 37.997C12.1776 41.9508 0.622828 56.7812 0.0244278 74.4904L4.02215 74.6255ZM4 75.9385V74.5809H0V75.9385H4ZM4 87.2615V75.9385H0V87.2615H4ZM3 86.2615C3.55229 86.2615 4 86.7093 4 87.2615H0C0 88.9184 1.34314 90.2615 3 90.2615V86.2615ZM69.0556 86.2615H3V90.2615H69.0556V86.2615ZM68.0556 87.2615C68.0556 86.7093 68.5033 86.2615 69.0556 86.2615V90.2615C70.7124 90.2615 72.0556 88.9184 72.0556 87.2615H68.0556ZM68.0556 75.9385V87.2615H72.0556V75.9385H68.0556ZM68.0556 74.5809V75.9385H72.0556V74.5809H68.0556ZM43.5077 41.9279C57.12 45.4845 67.4923 58.6125 68.0334 74.6255L72.0311 74.4904C71.4357 56.8703 59.9947 42.1014 44.5188 38.0579L43.5077 41.9279ZM70.0439 72.5692C71.1284 72.5692 71.9954 73.4315 72.0311 74.4904L68.0334 74.6255C68.0696 75.6968 68.9468 76.5692 70.0439 76.5692V72.5692ZM72.0556 74.5809C72.0556 73.4699 71.1549 72.5692 70.0439 72.5692V76.5692C68.9458 76.5692 68.0556 75.679 68.0556 74.5809H72.0556ZM0.0244278 74.4904C0.0602214 73.4311 0.927577 72.5692 2.01165 72.5692V76.5692C3.10827 76.5692 3.98593 75.6973 4.02215 74.6255L0.0244278 74.4904ZM27.5136 41.2688C26.7148 40.9256 26.4194 40.1453 26.4649 39.5461C26.5104 38.9453 26.9234 38.2124 27.7731 37.997L28.7561 41.8744C30.8735 41.3375 31.0528 38.4358 29.0925 37.5936L27.5136 41.2688ZM2.01165 72.5692C0.900645 72.5692 0 73.4699 0 74.5809H4C4 75.679 3.10978 76.5692 2.01165 76.5692V72.5692ZM43.2025 37.6448C41.2367 38.4724 41.3935 41.3756 43.5077 41.9279L44.5188 38.0579C45.367 38.2795 45.7746 39.0155 45.8158 39.6166C45.8568 40.2161 45.5557 40.9942 44.7544 41.3315L43.2025 37.6448Z" fill="#8F8F8F"/>
<path d="M20.0557 41.8154V59.6154M52.0001 41.8154V59.6154" stroke="#8F8F8F" stroke-width="2"/>
<mask id="path-4-inside-1" fill="white">
<rect x="14.5" y="59" width="43.0556" height="29.4" rx="0.25"/>
</mask>
<rect x="14.5" y="59" width="43.0556" height="29.4" rx="0.25" fill="#EFEFEF" stroke="#8F8F8F" stroke-width="4" mask="url(#path-4-inside-1)"/>
<path d="M8.25 15.6923H64.5" stroke="#8F8F8F" stroke-width="2" stroke-linecap="round"/>
<path d="M86.7222 10.2153L86.7222 60.8769" stroke="#8F8F8F" stroke-width="2" stroke-linecap="round"/>
<mask id="path-7-inside-2" fill="white">
<path fill-rule="evenodd" clip-rule="evenodd" d="M92.2777 49.923C97.6471 49.923 102 45.6318 102 40.3384C102 39.919 101.973 39.506 101.92 39.1008C101.912 39.0461 101.887 38.9954 101.847 38.9571C100.095 37.2702 97.6982 36.2307 95.0555 36.2307C89.686 36.2307 85.3333 40.5219 85.3333 45.8153C85.3333 46.2347 85.3606 46.6478 85.4136 47.0529C85.4207 47.1077 85.4463 47.1583 85.4861 47.1966C87.2385 48.8835 89.635 49.923 92.2777 49.923Z"/>
</mask>
<path fill-rule="evenodd" clip-rule="evenodd" d="M92.2777 49.923C97.6471 49.923 102 45.6318 102 40.3384C102 39.919 101.973 39.506 101.92 39.1008C101.912 39.0461 101.887 38.9954 101.847 38.9571C100.095 37.2702 97.6982 36.2307 95.0555 36.2307C89.686 36.2307 85.3333 40.5219 85.3333 45.8153C85.3333 46.2347 85.3606 46.6478 85.4136 47.0529C85.4207 47.1077 85.4463 47.1583 85.4861 47.1966C87.2385 48.8835 89.635 49.923 92.2777 49.923Z" fill="white"/>
<path d="M85.4136 47.0529L83.4304 47.3122L85.4136 47.0529ZM85.4861 47.1966L86.8731 45.7557L85.4861 47.1966ZM101.92 39.1008L103.903 38.8415L101.92 39.1008ZM101.847 38.9571L100.46 40.398L101.847 38.9571ZM99.9999 40.3384C99.9999 44.5005 96.5695 47.923 92.2777 47.923V51.923C98.7247 51.923 104 46.7632 104 40.3384H99.9999ZM99.9365 39.3602C99.9783 39.6796 99.9999 40.006 99.9999 40.3384H104C104 39.8321 103.967 39.3324 103.903 38.8415L99.9365 39.3602ZM95.0555 38.2307C97.1644 38.2307 99.0682 39.0582 100.46 40.398L103.234 37.5162C101.121 35.4823 98.232 34.2307 95.0555 34.2307V38.2307ZM87.3333 45.8153C87.3333 41.6532 90.7636 38.2307 95.0555 38.2307V34.2307C88.6084 34.2307 83.3333 39.3905 83.3333 45.8153H87.3333ZM87.3967 46.7936C87.3549 46.4742 87.3333 46.1477 87.3333 45.8153H83.3333C83.3333 46.3216 83.3662 46.8213 83.4304 47.3122L87.3967 46.7936ZM92.2777 47.923C90.1688 47.923 88.265 47.0956 86.8731 45.7557L84.099 48.6375C86.212 50.6714 89.1011 51.923 92.2777 51.923V47.923ZM83.4304 47.3122C83.4965 47.8173 83.7324 48.2846 84.099 48.6375L86.8731 45.7557C87.1602 46.0321 87.3449 46.398 87.3967 46.7936L83.4304 47.3122ZM103.903 38.8415C103.837 38.3365 103.601 37.8692 103.234 37.5162L100.46 40.398C100.173 40.1216 99.9882 39.7557 99.9365 39.3602L103.903 38.8415Z" fill="#8F8F8F" mask="url(#path-7-inside-2)"/>
<mask id="path-9-inside-3" fill="white">
<path fill-rule="evenodd" clip-rule="evenodd" d="M92.2777 33.4924C97.6471 33.4924 102 29.2012 102 23.9077C102 23.4884 101.973 23.0753 101.92 22.6702C101.912 22.6154 101.887 22.5647 101.847 22.5264C100.095 20.8396 97.6982 19.8 95.0555 19.8C89.686 19.8 85.3333 24.0912 85.3333 29.3847C85.3333 29.804 85.3606 30.2171 85.4136 30.6222C85.4207 30.677 85.4463 30.7277 85.4861 30.766C87.2385 32.4528 89.635 33.4924 92.2777 33.4924Z"/>
</mask>
<path fill-rule="evenodd" clip-rule="evenodd" d="M92.2777 33.4924C97.6471 33.4924 102 29.2012 102 23.9077C102 23.4884 101.973 23.0753 101.92 22.6702C101.912 22.6154 101.887 22.5647 101.847 22.5264C100.095 20.8396 97.6982 19.8 95.0555 19.8C89.686 19.8 85.3333 24.0912 85.3333 29.3847C85.3333 29.804 85.3606 30.2171 85.4136 30.6222C85.4207 30.677 85.4463 30.7277 85.4861 30.766C87.2385 32.4528 89.635 33.4924 92.2777 33.4924Z" fill="white"/>
<path d="M85.4136 30.6222L83.4304 30.8816L85.4136 30.6222ZM85.4861 30.766L84.099 32.2069L85.4861 30.766ZM101.92 22.6702L99.9365 22.9295L101.92 22.6702ZM101.847 22.5264L103.234 21.0855L101.847 22.5264ZM99.9999 23.9077C99.9999 28.0698 96.5695 31.4924 92.2777 31.4924V35.4924C98.7247 35.4924 104 30.3325 104 23.9077H99.9999ZM99.9365 22.9295C99.9783 23.2489 99.9999 23.5753 99.9999 23.9077H104C104 23.4014 103.967 22.9017 103.903 22.4108L99.9365 22.9295ZM95.0555 21.8C97.1644 21.8 99.0682 22.6275 100.46 23.9674L103.234 21.0855C101.121 19.0516 98.232 17.8 95.0555 17.8V21.8ZM87.3333 29.3847C87.3333 25.2226 90.7636 21.8 95.0555 21.8V17.8C88.6084 17.8 83.3333 22.9599 83.3333 29.3847H87.3333ZM87.3967 30.3629C87.3549 30.0435 87.3333 29.7171 87.3333 29.3847H83.3333C83.3333 29.891 83.3662 30.3907 83.4304 30.8816L87.3967 30.3629ZM92.2777 31.4924C90.1688 31.4924 88.265 30.6649 86.8731 29.3251L84.099 32.2069C86.212 34.2408 89.1011 35.4924 92.2777 35.4924V31.4924ZM83.4304 30.8816C83.4965 31.3866 83.7324 31.8539 84.099 32.2069L86.8731 29.3251C87.1602 29.6014 87.3449 29.9674 87.3967 30.3629L83.4304 30.8816ZM103.903 22.4108C103.837 21.9058 103.601 21.4385 103.234 21.0855L100.46 23.9674C100.173 23.691 99.9882 23.325 99.9365 22.9295L103.903 22.4108Z" fill="#8F8F8F" mask="url(#path-9-inside-3)"/>
<mask id="path-11-inside-4" fill="white">
<path fill-rule="evenodd" clip-rule="evenodd" d="M92.2777 17.0616C97.6471 17.0616 102 12.7704 102 7.47696C102 7.05759 101.973 6.64452 101.92 6.23938C101.912 6.18463 101.887 6.13396 101.847 6.09566C100.095 4.40878 97.6982 3.36926 95.0555 3.36926C89.686 3.36926 85.3333 7.66044 85.3333 12.9539C85.3333 13.3732 85.3606 13.7863 85.4136 14.1914C85.4207 14.2462 85.4463 14.2969 85.4861 14.3352C87.2385 16.0221 89.635 17.0616 92.2777 17.0616Z"/>
</mask>
<path fill-rule="evenodd" clip-rule="evenodd" d="M92.2777 17.0616C97.6471 17.0616 102 12.7704 102 7.47696C102 7.05759 101.973 6.64452 101.92 6.23938C101.912 6.18463 101.887 6.13396 101.847 6.09566C100.095 4.40878 97.6982 3.36926 95.0555 3.36926C89.686 3.36926 85.3333 7.66044 85.3333 12.9539C85.3333 13.3732 85.3606 13.7863 85.4136 14.1914C85.4207 14.2462 85.4463 14.2969 85.4861 14.3352C87.2385 16.0221 89.635 17.0616 92.2777 17.0616Z" fill="white"/>
<path d="M85.4136 14.1914L83.4304 14.4508L85.4136 14.1914ZM85.4861 14.3352L84.099 15.7761L85.4861 14.3352ZM101.92 6.23938L99.9365 6.4987L101.92 6.23938ZM101.847 6.09566L100.46 7.53656L101.847 6.09566ZM99.9999 7.47696C99.9999 11.639 96.5695 15.0616 92.2777 15.0616V19.0616C98.7247 19.0616 104 13.9017 104 7.47696H99.9999ZM99.9365 6.4987C99.9783 6.8181 99.9999 7.14455 99.9999 7.47696H104C104 6.97064 103.967 6.47094 103.903 5.98006L99.9365 6.4987ZM95.0555 5.36926C97.1644 5.36926 99.0682 6.19671 100.46 7.53656L103.234 4.65476C101.121 2.62084 98.232 1.36926 95.0555 1.36926V5.36926ZM87.3333 12.9539C87.3333 8.79179 90.7636 5.36926 95.0555 5.36926V1.36926C88.6084 1.36926 83.3333 6.52909 83.3333 12.9539H87.3333ZM87.3967 13.9321C87.3549 13.6127 87.3333 13.2863 87.3333 12.9539H83.3333C83.3333 13.4602 83.3662 13.9599 83.4304 14.4508L87.3967 13.9321ZM92.2777 15.0616C90.1688 15.0616 88.265 14.2341 86.8731 12.8943L84.099 15.7761C86.212 17.81 89.1011 19.0616 92.2777 19.0616V15.0616ZM83.4304 14.4508C83.4965 14.9558 83.7324 15.4231 84.099 15.7761L86.8731 12.8943C87.1602 13.1706 87.3449 13.5366 87.3967 13.9321L83.4304 14.4508ZM103.903 5.98006C103.837 5.47502 103.601 5.00772 103.234 4.65476L100.46 7.53656C100.173 7.26019 99.9882 6.89423 99.9365 6.4987L103.903 5.98006Z" fill="#8F8F8F" mask="url(#path-11-inside-4)"/>
<mask id="path-13-inside-5" fill="white">
<path fill-rule="evenodd" clip-rule="evenodd" d="M81.1666 49.923C75.7972 49.923 71.4444 45.6318 71.4444 40.3384C71.4444 39.919 71.4717 39.506 71.5247 39.1008C71.5319 39.0461 71.5574 38.9954 71.5972 38.9571C73.3497 37.2702 75.7461 36.2307 78.3889 36.2307C83.7583 36.2307 88.1111 40.5219 88.1111 45.8153C88.1111 46.2347 88.0838 46.6478 88.0308 47.0529C88.0236 47.1077 87.9981 47.1583 87.9583 47.1966C86.2058 48.8835 83.8094 49.923 81.1666 49.923Z"/>
</mask>
<path fill-rule="evenodd" clip-rule="evenodd" d="M81.1666 49.923C75.7972 49.923 71.4444 45.6318 71.4444 40.3384C71.4444 39.919 71.4717 39.506 71.5247 39.1008C71.5319 39.0461 71.5574 38.9954 71.5972 38.9571C73.3497 37.2702 75.7461 36.2307 78.3889 36.2307C83.7583 36.2307 88.1111 40.5219 88.1111 45.8153C88.1111 46.2347 88.0838 46.6478 88.0308 47.0529C88.0236 47.1077 87.9981 47.1583 87.9583 47.1966C86.2058 48.8835 83.8094 49.923 81.1666 49.923Z" fill="white"/>
<path d="M88.0308 47.0529L86.0477 46.7936L88.0308 47.0529ZM87.9583 47.1966L89.3453 48.6375L87.9583 47.1966ZM71.5247 39.1008L73.5078 39.3602L71.5247 39.1008ZM71.5972 38.9571L72.9842 40.398V40.398L71.5972 38.9571ZM73.4444 40.3384C73.4444 44.5005 76.8748 47.923 81.1666 47.923V51.923C74.7196 51.923 69.4444 46.7632 69.4444 40.3384H73.4444ZM73.5078 39.3602C73.4661 39.6796 73.4444 40.006 73.4444 40.3384H69.4444C69.4444 39.8321 69.4774 39.3324 69.5416 38.8415L73.5078 39.3602ZM78.3889 38.2307C76.28 38.2307 74.3762 39.0582 72.9842 40.398L70.2102 37.5162C72.3232 35.4823 75.2123 34.2307 78.3889 34.2307V38.2307ZM86.1111 45.8153C86.1111 41.6532 82.6807 38.2307 78.3889 38.2307V34.2307C84.8359 34.2307 90.1111 39.3905 90.1111 45.8153H86.1111ZM86.0477 46.7936C86.0894 46.4742 86.1111 46.1477 86.1111 45.8153H90.1111C90.1111 46.3217 90.0781 46.8214 90.0139 47.3122L86.0477 46.7936ZM81.1666 47.923C83.2756 47.923 85.1794 47.0956 86.5713 45.7557L89.3453 48.6375C87.2323 50.6715 84.3432 51.923 81.1666 51.923V47.923ZM90.0139 47.3122C89.9479 47.8173 89.712 48.2846 89.3453 48.6375L86.5713 45.7557C86.2841 46.0321 86.0994 46.3981 86.0477 46.7936L90.0139 47.3122ZM69.5416 38.8415C69.6076 38.3365 69.8435 37.8692 70.2102 37.5162L72.9842 40.398C73.2714 40.1216 73.4561 39.7557 73.5078 39.3602L69.5416 38.8415Z" fill="#8F8F8F" mask="url(#path-13-inside-5)"/>
<mask id="path-15-inside-6" fill="white">
<path fill-rule="evenodd" clip-rule="evenodd" d="M81.1666 33.4924C75.7972 33.4924 71.4444 29.2012 71.4444 23.9077C71.4444 23.4884 71.4717 23.0753 71.5247 22.6702C71.5319 22.6154 71.5574 22.5647 71.5972 22.5265C73.3497 20.8396 75.7461 19.8 78.3889 19.8C83.7583 19.8 88.1111 24.0912 88.1111 29.3847C88.1111 29.804 88.0838 30.2171 88.0308 30.6223C88.0236 30.677 87.9981 30.7277 87.9583 30.766C86.2058 32.4529 83.8094 33.4924 81.1666 33.4924Z"/>
</mask>
<path fill-rule="evenodd" clip-rule="evenodd" d="M81.1666 33.4924C75.7972 33.4924 71.4444 29.2012 71.4444 23.9077C71.4444 23.4884 71.4717 23.0753 71.5247 22.6702C71.5319 22.6154 71.5574 22.5647 71.5972 22.5265C73.3497 20.8396 75.7461 19.8 78.3889 19.8C83.7583 19.8 88.1111 24.0912 88.1111 29.3847C88.1111 29.804 88.0838 30.2171 88.0308 30.6223C88.0236 30.677 87.9981 30.7277 87.9583 30.766C86.2058 32.4529 83.8094 33.4924 81.1666 33.4924Z" fill="white"/>
<path d="M88.0308 30.6223L90.0139 30.8816L88.0308 30.6223ZM87.9583 30.766L89.3453 32.2069L87.9583 30.766ZM71.5247 22.6702L73.5078 22.9295L71.5247 22.6702ZM71.5972 22.5265L72.9842 23.9674V23.9674L71.5972 22.5265ZM73.4444 23.9077C73.4444 28.0698 76.8748 31.4924 81.1666 31.4924V35.4924C74.7196 35.4924 69.4444 30.3325 69.4444 23.9077H73.4444ZM73.5078 22.9295C73.4661 23.2489 73.4444 23.5753 73.4444 23.9077H69.4444C69.4444 23.4014 69.4774 22.9017 69.5416 22.4108L73.5078 22.9295ZM78.3889 21.8C76.28 21.8 74.3762 22.6275 72.9842 23.9674L70.2102 21.0856C72.3232 19.0516 75.2123 17.8 78.3889 17.8V21.8ZM86.1111 29.3847C86.1111 25.2226 82.6807 21.8 78.3889 21.8V17.8C84.8359 17.8 90.1111 22.9599 90.1111 29.3847H86.1111ZM86.0477 30.3629C86.0894 30.0435 86.1111 29.7171 86.1111 29.3847H90.1111C90.1111 29.891 90.0781 30.3907 90.0139 30.8816L86.0477 30.3629ZM81.1666 31.4924C83.2756 31.4924 85.1794 30.6649 86.5713 29.3251L89.3453 32.2069C87.2323 34.2408 84.3432 35.4924 81.1666 35.4924V31.4924ZM90.0139 30.8816C89.9479 31.3866 89.712 31.8539 89.3453 32.2069L86.5713 29.3251C86.2841 29.6014 86.0994 29.9674 86.0477 30.3629L90.0139 30.8816ZM69.5416 22.4108C69.6076 21.9058 69.8435 21.4385 70.2102 21.0856L72.9842 23.9674C73.2714 23.691 73.4561 23.325 73.5078 22.9295L69.5416 22.4108Z" fill="#8F8F8F" mask="url(#path-15-inside-6)"/>
<mask id="path-17-inside-7" fill="white">
<path fill-rule="evenodd" clip-rule="evenodd" d="M81.1666 17.0616C75.7972 17.0616 71.4444 12.7704 71.4444 7.47696C71.4444 7.0576 71.4717 6.64453 71.5247 6.23939C71.5319 6.18463 71.5574 6.13396 71.5972 6.09567C73.3497 4.40878 75.7461 3.36926 78.3889 3.36926C83.7583 3.36926 88.1111 7.66044 88.1111 12.9539C88.1111 13.3732 88.0838 13.7863 88.0308 14.1915C88.0236 14.2462 87.9981 14.2969 87.9583 14.3352C86.2058 16.0221 83.8094 17.0616 81.1666 17.0616Z"/>
</mask>
<path fill-rule="evenodd" clip-rule="evenodd" d="M81.1666 17.0616C75.7972 17.0616 71.4444 12.7704 71.4444 7.47696C71.4444 7.0576 71.4717 6.64453 71.5247 6.23939C71.5319 6.18463 71.5574 6.13396 71.5972 6.09567C73.3497 4.40878 75.7461 3.36926 78.3889 3.36926C83.7583 3.36926 88.1111 7.66044 88.1111 12.9539C88.1111 13.3732 88.0838 13.7863 88.0308 14.1915C88.0236 14.2462 87.9981 14.2969 87.9583 14.3352C86.2058 16.0221 83.8094 17.0616 81.1666 17.0616Z" fill="white"/>
<path d="M88.0308 14.1915L86.0477 13.9321L88.0308 14.1915ZM87.9583 14.3352L86.5713 12.8943L87.9583 14.3352ZM71.5247 6.23939L69.5416 5.98006L71.5247 6.23939ZM71.5972 6.09567L72.9842 7.53657L71.5972 6.09567ZM73.4444 7.47696C73.4444 11.639 76.8748 15.0616 81.1666 15.0616V19.0616C74.7196 19.0616 69.4444 13.9017 69.4444 7.47696H73.4444ZM73.5078 6.49871C73.4661 6.81811 73.4444 7.14456 73.4444 7.47696H69.4444C69.4444 6.97064 69.4774 6.47095 69.5416 5.98006L73.5078 6.49871ZM78.3889 5.36926C76.28 5.36926 74.3762 6.19671 72.9842 7.53657L70.2102 4.65477C72.3232 2.62084 75.2123 1.36926 78.3889 1.36926V5.36926ZM86.1111 12.9539C86.1111 8.79179 82.6807 5.36926 78.3889 5.36926V1.36926C84.8359 1.36926 90.1111 6.52909 90.1111 12.9539H86.1111ZM86.0477 13.9321C86.0894 13.6127 86.1111 13.2863 86.1111 12.9539H90.1111C90.1111 13.4602 90.0781 13.9599 90.0139 14.4508L86.0477 13.9321ZM81.1666 15.0616C83.2756 15.0616 85.1794 14.2341 86.5713 12.8943L89.3453 15.7761C87.2323 17.81 84.3432 19.0616 81.1666 19.0616V15.0616ZM90.0139 14.4508C89.9479 14.9558 89.712 15.4231 89.3453 15.7761L86.5713 12.8943C86.2841 13.1707 86.0994 13.5366 86.0477 13.9321L90.0139 14.4508ZM69.5416 5.98006C69.6076 5.47503 69.8435 5.00773 70.2102 4.65477L72.9842 7.53657C73.2714 7.26019 73.4561 6.89424 73.5078 6.49871L69.5416 5.98006Z" fill="#8F8F8F" mask="url(#path-17-inside-7)"/>
</svg>
