<svg width="91" height="112" viewBox="0 0 91 112" fill="none" xmlns="http://www.w3.org/2000/svg">
<path d="M14.1592 82.025L27.7996 68.5481C29.6124 66.7538 32.0295 65.707 34.5977 65.707H58.3881C61.1219 65.707 62.608 67.8332 62.608 69.8939C62.608 71.8168 61.5651 74.2303 58.3881 74.2303H45.4638C43.4999 74.2303 41.9892 75.7256 41.9892 77.6695C41.9892 79.6134 43.4999 81.1087 45.4638 81.1087H62.5457L79.6866 63.0546C81.0462 61.7089 84.1846 60.8925 86.5986 63.0545C89.5609 65.707 88.5735 68.9671 87.5861 69.9525L70.837 88.1925C69.1752 90.2859 66.607 91.6317 63.8877 91.6317H39.7166L31.3891 99.8904" stroke="#4FB573" stroke-width="3" stroke-miterlimit="10" stroke-linejoin="round"/>
<path d="M24.5117 110.786L1.21759 87.564L10.8458 77.9655L34.1399 101.188L24.5117 110.786Z" fill="#DCF0E3" stroke="#4FB573" stroke-width="2" stroke-miterlimit="10" stroke-linejoin="round"/>
<path d="M66.0433 27.6124C66.0433 42.0396 54.3966 53.7248 40.0424 53.7248C25.6882 53.7248 14.0415 42.0396 14.0415 27.6124C14.0415 13.1852 25.6882 1.5 40.0424 1.5C54.3966 1.5 66.0433 13.1852 66.0433 27.6124Z" fill="#DCF0E3" stroke="#4FB573" stroke-width="3"/>
<ellipse cx="40.0424" cy="27.6123" rx="16.177" ry="16.2426" stroke="#4FB573" stroke-width="2" stroke-linecap="round" stroke-dasharray="0.1 3.5"/>
</svg>
