<svg width="103" height="93" viewBox="0 0 103 93" fill="none" xmlns="http://www.w3.org/2000/svg">
<path d="M64.3829 47.4029C64.3829 52.7694 59.9003 57.1893 54.2838 57.1893C48.6673 57.1893 44.1847 52.7694 44.1847 47.4029C44.1847 42.0364 48.6673 37.6165 54.2838 37.6165C59.9003 37.6165 64.3829 42.0364 64.3829 47.4029Z" fill="#DCF0E3" stroke="#4FB573" stroke-width="3"/>
<path d="M101.5 47.8544C101.5 51.4755 98.4715 54.4806 94.6487 54.4806C90.8259 54.4806 87.7973 51.4755 87.7973 47.8544C87.7973 44.2332 90.8259 41.2281 94.6487 41.2281C98.4715 41.2281 101.5 44.2332 101.5 47.8544Z" fill="white" stroke="#4FB573" stroke-width="3"/>
<path d="M1.5 48.7573C1.5 45.1361 4.52854 42.1311 8.35135 42.1311C12.1742 42.1311 15.2027 45.1361 15.2027 48.7573C15.2027 52.3785 12.1741 55.3835 8.35135 55.3835C4.52854 55.3835 1.49999 52.3785 1.5 48.7573Z" fill="white" stroke="#4FB573" stroke-width="3"/>
<circle r="6.66599" transform="matrix(0.716701 0.69738 -0.716701 0.69738 78.5159 70.9818)" fill="white" stroke="#4FB573" stroke-width="3"/>
<circle r="6.66598" transform="matrix(-0.716701 0.69738 -0.716701 -0.69738 31.9374 68.6036)" fill="white" stroke="#4FB573" stroke-width="3"/>
<path d="M53.8198 2.4029C57.6426 2.4029 60.6712 5.40794 60.6712 9.02912C60.6712 12.6503 57.6426 15.6553 53.8198 15.6553C49.997 15.6553 46.9685 12.6503 46.9685 9.02912C46.9685 5.40794 49.997 2.4029 53.8198 2.4029Z" fill="white" stroke="#4FB573" stroke-width="3"/>
<path d="M53.8198 91.5C49.997 91.5 46.9685 88.495 46.9685 84.8738C46.9685 81.2526 49.997 78.2476 53.8198 78.2476C57.6426 78.2476 60.6712 81.2526 60.6712 84.8738C60.6712 88.495 57.6426 91.5 53.8198 91.5Z" fill="white" stroke="#4FB573" stroke-width="3"/>
<circle r="6.66598" transform="matrix(-0.716701 -0.69738 0.716701 -0.69738 25.4999 19.3868)" fill="white" stroke="#4FB573" stroke-width="3"/>
<path d="M100.572 7.67476C100.572 11.0466 97.7513 13.8495 94.1847 13.8495C90.6181 13.8495 87.7973 11.0466 87.7973 7.67476C87.7973 4.30291 90.6181 1.5 94.1847 1.5C97.7513 1.5 100.572 4.30291 100.572 7.67476Z" fill="white" stroke="#4FB573" stroke-width="3"/>
<path d="M65.8829 47.8544H86.2973" stroke="#4FB573" stroke-width="2"/>
<path d="M43.6126 47.8544H16.7027" stroke="#4FB573" stroke-width="2"/>
<path d="M59.7768 54.5294L74.0831 68.4501" stroke="#4FB573" stroke-width="2"/>
<path d="M46.8477 53.8968L36.7316 63.7402" stroke="#4FB573" stroke-width="2"/>
<path d="M53.8198 37.9223L53.8198 17.1553" stroke="#4FB573" stroke-width="2"/>
<path d="M53.8198 56.8835L53.8198 77.6505" stroke="#4FB573" stroke-width="2"/>
<path d="M46.309 39.6349L31.3524 25.0816" stroke="#4FB573" stroke-width="2"/>
<path d="M60.7763 39.707L89.1843 12.1408" stroke="#4FB573" stroke-width="2"/>
</svg>
