<svg width="87" height="99" viewBox="0 0 87 99" fill="none" xmlns="http://www.w3.org/2000/svg">
<path d="M40.9142 3.58174C41.4557 3.07962 42.0957 2.82857 42.7849 2.82857C43.4741 2.82857 44.1141 3.07962 44.8033 3.58174C53.3199 11.5653 64.1994 16.3354 76.0636 16.3354C76.9543 16.3354 77.8003 16.2899 78.6867 16.2422L78.8204 16.235H78.9681C80.3957 16.235 81.6757 17.3899 81.9218 19.0468C82.5618 23.0637 82.9064 27.2313 82.9064 31.4992C82.9064 61.0235 66.6609 86.1794 43.8679 95.9204C43.5233 96.071 43.1787 96.1212 42.8341 96.1212C42.4895 96.1212 42.1449 96.071 41.8003 95.9204C19.0074 86.1794 2.7619 61.0235 2.7619 31.4992C2.7619 27.2313 3.1065 23.0637 3.74648 19.0468C3.99262 17.4401 5.27257 16.235 6.7002 16.235H6.84789C7.78324 16.2852 8.66936 16.3354 9.6047 16.3354C21.4688 16.3354 32.3484 11.5653 40.9142 3.58174Z" fill="#DCF0E3" stroke="#4FB573" stroke-width="3"/>
<path d="M74.1491 24.7393L74.1491 24.7393L74.1508 24.7498C74.6718 27.9867 74.9524 31.3452 74.9524 34.7847C74.9524 58.5975 61.7165 78.7996 43.275 86.6003L43.2675 86.6035C43.1381 86.6595 42.9953 86.6857 42.8095 86.6857C42.6238 86.6857 42.481 86.6595 42.3516 86.6035L42.3441 86.6003C23.9026 78.7996 10.6667 58.5975 10.6667 34.7847C10.6667 31.3452 10.9472 27.9867 11.4683 24.7498L11.4683 24.7498L11.4692 24.7439C11.6099 23.8351 12.314 23.2891 12.9239 23.2891H13.0195C13.0499 23.2907 13.0803 23.2923 13.1106 23.2939C13.8379 23.3327 14.5621 23.3713 15.3262 23.3713C25.4138 23.3713 34.6479 19.355 41.8981 12.6673C42.1674 12.4202 42.4574 12.3143 42.7688 12.3143C43.0592 12.3143 43.3753 12.407 43.806 12.7084C51.0101 19.3725 60.2273 23.3713 70.2928 23.3713C71.0562 23.3713 71.7784 23.3328 72.5038 23.2942L72.5156 23.2936L72.5156 23.2935L72.5995 23.2891H72.6951C73.3175 23.2891 74.0092 23.807 74.1491 24.7393Z" fill="white" stroke="#4FB573" stroke-width="2"/>
<path d="M42.8341 63.8353C51.9694 63.8353 59.375 56.2819 59.375 46.9643C59.375 37.6467 51.9694 30.0933 42.8341 30.0933C33.6989 30.0933 26.2933 37.6467 26.2933 46.9643C26.2933 56.2819 33.6989 63.8353 42.8341 63.8353Z" fill="#DCF0E3" stroke="#4FB573" stroke-width="2" stroke-miterlimit="10"/>
<path d="M34.3176 50.0774L39.0928 54.9479L51.3015 42.4453" stroke="#4FB573" stroke-width="2" stroke-miterlimit="10" stroke-linecap="round" stroke-linejoin="round"/>
</svg>
