<svg width="68" height="91" viewBox="0 0 68 91" fill="none" xmlns="http://www.w3.org/2000/svg">
<path fill-rule="evenodd" clip-rule="evenodd" d="M42.3808 64.2769C27.8629 68.2329 12.1222 61.4673 5.3487 47.5154C-2.28275 31.7964 4.35828 12.9081 20.1819 5.32704C36.0054 -2.25396 55.0195 4.34317 62.6509 20.0622C69.5706 34.3151 64.756 51.1738 52.0014 59.846L62.4778 81.4248C63.755 84.0555 62.6524 87.2124 60.0151 88.4759C57.3779 89.7394 54.2046 88.6311 52.9274 86.0004L42.3808 64.2769Z" fill="white"/>
<path d="M5.3487 47.5154L3.99932 48.1705L5.3487 47.5154ZM42.3808 64.2769L43.7302 63.6218C43.4151 62.9728 42.6826 62.64 41.9865 62.8297L42.3808 64.2769ZM20.1819 5.32704L20.83 6.67981L20.1819 5.32704ZM62.6509 20.0622L64.0003 19.407L62.6509 20.0622ZM52.0014 59.846L51.158 58.6056C50.5423 59.0243 50.3269 59.8313 50.6521 60.5011L52.0014 59.846ZM62.4778 81.4248L63.8272 80.7697V80.7697L62.4778 81.4248ZM60.0151 88.4759L60.6632 89.8286V89.8286L60.0151 88.4759ZM52.9274 86.0004L54.2768 85.3453L52.9274 86.0004ZM3.99932 48.1705C11.0959 62.7878 27.5789 69.865 42.7752 65.7241L41.9865 62.8297C28.147 66.6008 13.1486 60.1468 6.69808 46.8603L3.99932 48.1705ZM19.5337 3.97428C2.96564 11.912 -3.99784 31.6983 3.99932 48.1705L6.69808 46.8603C-0.567665 31.8946 5.75092 13.9041 20.83 6.67981L19.5337 3.97428ZM64.0003 19.407C56.0058 2.94034 36.0965 -3.96084 19.5337 3.97428L20.83 6.67981C35.9144 -0.547084 54.0331 5.746 61.3015 20.7173L64.0003 19.407ZM52.8449 61.0865C66.2027 52.004 71.2517 34.3433 64.0003 19.407L61.3015 20.7173C67.8895 34.2869 63.3092 50.3436 51.158 58.6056L52.8449 61.0865ZM63.8272 80.7697L53.3508 59.1909L50.6521 60.5011L61.1284 82.08L63.8272 80.7697ZM60.6632 89.8286C64.0504 88.2059 65.4675 84.1484 63.8272 80.7697L61.1284 82.08C62.0425 83.9627 61.2544 86.2189 59.367 87.1231L60.6632 89.8286ZM51.5781 86.6555C53.2157 90.0287 57.2816 91.4488 60.6632 89.8286L59.367 87.1231C57.4741 88.03 55.1935 87.2334 54.2768 85.3453L51.5781 86.6555ZM41.0315 64.932L51.5781 86.6555L54.2768 85.3453L43.7302 63.6218L41.0315 64.932Z" fill="#4FB573"/>
<ellipse rx="23.938" ry="23.8394" transform="matrix(-0.901841 0.432068 0.436742 0.899587 34 33.7885)" fill="#DCF0E3" stroke="#4FB573" stroke-width="2" stroke-linecap="round" stroke-linejoin="round"/>
<path d="M26.1911 44.3344C18.1638 21.2436 43.3623 18.4682 43.3623 18.4682C49.2145 33.4499 41.1902 45.5172 26.1911 44.3344Z" fill="white" stroke="#4FB573" stroke-width="3" stroke-linecap="round" stroke-linejoin="round"/>
<path d="M43.3727 19.0531C40.5057 27.1437 32.0089 44.0711 20.9576 47.0556" stroke="#4FB573" stroke-width="3" stroke-linecap="round" stroke-linejoin="round"/>
<path d="M31.1131 23.693L35.1116 34.7625" stroke="#4FB573" stroke-width="3" stroke-linecap="round" stroke-linejoin="round"/>
<path d="M36.2145 20.532L38.8661 28.3825" stroke="#4FB573" stroke-width="3" stroke-linecap="round" stroke-linejoin="round"/>
<path d="M26.8706 28.2534L30.8691 39.3229" stroke="#4FB573" stroke-width="3" stroke-linecap="round" stroke-linejoin="round"/>
</svg>
