<svg width="153" height="87" viewBox="0 0 153 87" fill="none" xmlns="http://www.w3.org/2000/svg">
<path d="M22.2632 32.5854C30.6987 32.5854 37.5371 25.7284 37.5371 17.2697C37.5371 8.81106 30.6987 1.95398 22.2632 1.95398C13.8276 1.95398 6.98923 8.81106 6.98923 17.2697C6.98923 25.7284 13.8276 32.5854 22.2632 32.5854Z" fill="white" stroke="#4FB573" stroke-width="2" stroke-miterlimit="10" stroke-linecap="round" stroke-linejoin="round"/>
<path d="M14.3881 18.5434L18.8019 22.9693L30.1066 11.6019" stroke="#4FB573" stroke-width="2" stroke-miterlimit="10" stroke-linecap="round" stroke-linejoin="round"/>
<path d="M8.67224 24.2748C11.2126 29.2102 16.3251 32.6173 22.2632 32.6173C30.7099 32.6173 37.5372 25.7713 37.5372 17.3015C37.5372 10.4556 33.0598 4.66047 26.8994 2.71814" stroke="#4FB573" stroke-width="2" stroke-miterlimit="10" stroke-linecap="round" stroke-linejoin="round"/>
<path d="M43.7924 64.4587H45.6152" stroke="#4FB573" stroke-width="2" stroke-linecap="round" stroke-linejoin="round" stroke-dasharray="3 4"/>
<path d="M48.6534 64.4587H53.1802" stroke="#4FB573" stroke-width="2" stroke-linecap="round" stroke-linejoin="round" stroke-dasharray="3 4"/>
<path d="M54.6992 64.4587H56.5221" stroke="#4FB573" stroke-width="2" stroke-linecap="round" stroke-linejoin="round" stroke-dasharray="3 4"/>
<path d="M97.9339 64.4587H99.7568" stroke="#4FB573" stroke-width="2" stroke-linecap="round" stroke-linejoin="round" stroke-dasharray="3 4"/>
<path d="M102.795 64.4587H107.322" stroke="#4FB573" stroke-width="2" stroke-linecap="round" stroke-linejoin="round" stroke-dasharray="3 4"/>
<path d="M108.841 64.4587H110.664" stroke="#4FB573" stroke-width="2" stroke-linecap="round" stroke-linejoin="round" stroke-dasharray="3 4"/>
<path d="M22.2632 85.0283L1.94025 74.839V54.4923L22.2632 64.6816V85.0283Z" stroke="#4FB573" stroke-width="3" stroke-miterlimit="10" stroke-linecap="round" stroke-linejoin="round"/>
<path d="M22.4537 85.0601L42.7766 74.8708V54.5242L22.4537 64.7134V85.0601Z" stroke="#4FB573" stroke-width="3" stroke-miterlimit="10" stroke-linecap="round" stroke-linejoin="round"/>
<path d="M22.4537 64.204L42.7766 54.0147L22.2632 43.8254L1.94025 54.0147L22.4537 64.204Z" fill="#DCF0E3" stroke="#4FB573" stroke-width="3" stroke-miterlimit="10" stroke-linecap="round" stroke-linejoin="round"/>
<path d="M76.4048 32.5854C84.8403 32.5854 91.6787 25.7284 91.6787 17.2697C91.6787 8.81106 84.8403 1.95398 76.4048 1.95398C67.9692 1.95398 61.1308 8.81106 61.1308 17.2697C61.1308 25.7284 67.9692 32.5854 76.4048 32.5854Z" fill="white" stroke="#4FB573" stroke-width="2" stroke-miterlimit="10" stroke-linecap="round"/>
<path d="M68.5296 18.5434L72.9435 22.9693L84.2481 11.6019" stroke="#4FB573" stroke-width="2" stroke-miterlimit="10" stroke-linecap="round" stroke-linejoin="round"/>
<path d="M76.4048 85.0283L56.0818 74.839V54.4923L76.4048 64.6816V85.0283Z" stroke="#4FB573" stroke-width="3" stroke-miterlimit="10" stroke-linecap="round" stroke-linejoin="round"/>
<path d="M76.5953 85.0601L96.9182 74.8708V54.5242L76.5953 64.7134V85.0601Z" stroke="#4FB573" stroke-width="3" stroke-miterlimit="10" stroke-linecap="round" stroke-linejoin="round"/>
<path d="M76.5953 64.204L96.9182 54.0147L76.4048 43.8254L56.0818 54.0147L76.5953 64.204Z" fill="#DCF0E3" stroke="#4FB573" stroke-width="3" stroke-miterlimit="10" stroke-linecap="round" stroke-linejoin="round"/>
<path d="M130.546 32.5854C138.982 32.5854 145.82 25.7284 145.82 17.2697C145.82 8.81106 138.982 1.95398 130.546 1.95398C122.111 1.95398 115.272 8.81106 115.272 17.2697C115.272 25.7284 122.111 32.5854 130.546 32.5854Z" fill="white" stroke="#4FB573" stroke-width="2" stroke-miterlimit="10" stroke-linecap="round"/>
<path d="M122.671 18.5434L127.085 22.9693L138.39 11.6019" stroke="#4FB573" stroke-width="2" stroke-miterlimit="10" stroke-linecap="round" stroke-linejoin="round"/>
<path d="M130.546 85.0283L110.223 74.839V54.4923L130.546 64.6816V85.0283Z" stroke="#4FB573" stroke-width="3" stroke-miterlimit="10" stroke-linecap="round" stroke-linejoin="round"/>
<path d="M130.737 85.0601L151.06 74.8708V54.5242L130.737 64.7134V85.0601Z" stroke="#4FB573" stroke-width="3" stroke-miterlimit="10" stroke-linecap="round" stroke-linejoin="round"/>
<path d="M130.737 64.204L151.06 54.0147L130.546 43.8254L110.223 54.0147L130.737 64.204Z" fill="#DCF0E3" stroke="#4FB573" stroke-width="3" stroke-miterlimit="10" stroke-linecap="round" stroke-linejoin="round"/>
</svg>
