<svg width="80" height="84" viewBox="0 0 80 84" fill="none" xmlns="http://www.w3.org/2000/svg">
<rect x="52.8433" y="1.5" width="5.35822" height="75.0426" stroke="#4FB573" stroke-width="3"/>
<rect x="1.5" y="1.5" width="5.35821" height="75.0426" stroke="#4FB573" stroke-width="3"/>
<rect x="8.35821" y="11.3192" width="42.9851" height="2.97872" fill="#4FB573"/>
<rect x="8.35821" y="28.5958" width="42.9851" height="2.97872" fill="#4FB573"/>
<rect x="8.35821" y="45.8724" width="42.9851" height="2.97873" fill="#4FB573"/>
<rect x="8.35821" y="63.149" width="42.9851" height="2.97872" fill="#4FB573"/>
<path d="M24.0746 12.8085C24.0746 15.3799 21.9851 17.4681 19.403 17.4681C16.8209 17.4681 14.7313 15.3799 14.7313 12.8085C14.7313 10.2371 16.8209 8.14894 19.403 8.14894C21.9851 8.14894 24.0746 10.2371 24.0746 12.8085Z" fill="#DCF0E3" stroke="#4FB573" stroke-width="2"/>
<path d="M24.0746 64.6383C24.0746 67.2097 21.9851 69.2979 19.403 69.2979C16.8209 69.2979 14.7313 67.2097 14.7313 64.6383C14.7313 62.0669 16.8209 59.9788 19.403 59.9788C21.9851 59.9788 24.0746 62.0669 24.0746 64.6383Z" fill="#DCF0E3" stroke="#4FB573" stroke-width="2"/>
<path d="M30.6418 30.0851C30.6418 32.6566 28.5522 34.7447 25.9701 34.7447C23.3881 34.7447 21.2985 32.6566 21.2985 30.0851C21.2985 27.5137 23.3881 25.4256 25.9701 25.4256C28.5522 25.4256 30.6418 27.5137 30.6418 30.0851Z" fill="#DCF0E3" stroke="#4FB573" stroke-width="2"/>
<path d="M44.3731 30.0851C44.3731 32.6566 42.2836 34.7447 39.7015 34.7447C37.1194 34.7447 35.0299 32.6566 35.0299 30.0851C35.0299 27.5137 37.1194 25.4256 39.7015 25.4256C42.2836 25.4256 44.3731 27.5137 44.3731 30.0851Z" fill="#DCF0E3" stroke="#4FB573" stroke-width="2"/>
<path d="M32.4328 47.3617C32.4328 49.9331 30.3433 52.0213 27.7612 52.0213C25.1791 52.0213 23.0896 49.9331 23.0896 47.3617C23.0896 44.7903 25.1791 42.7021 27.7612 42.7021C30.3433 42.7021 32.4328 44.7903 32.4328 47.3617Z" fill="#DCF0E3" stroke="#4FB573" stroke-width="2"/>
<path d="M49.1493 47.3617C49.1493 49.9331 47.0597 52.0213 44.4776 52.0213C41.8955 52.0213 39.806 49.9331 39.806 47.3617C39.806 44.7903 41.8955 42.7021 44.4776 42.7021C47.0597 42.7021 49.1493 44.7903 49.1493 47.3617Z" fill="white" stroke="#4FB573" stroke-width="2"/>
<path d="M19.8955 47.3617C19.8955 49.9331 17.806 52.0213 15.2239 52.0213C12.6418 52.0213 10.5522 49.9331 10.5522 47.3617C10.5522 44.7903 12.6418 42.7021 15.2239 42.7021C17.806 42.7021 19.8955 44.7903 19.8955 47.3617Z" fill="#DCF0E3" stroke="#4FB573" stroke-width="2"/>
<rect x="40.903" y="37.8404" width="37.597" height="44.6596" rx="6.5" fill="white" stroke="#4FB573" stroke-width="3"/>
<rect x="46.9701" y="45.6808" width="25.4627" height="6.93617" rx="3.46808" fill="#DCF0E3" stroke="#4FB573" stroke-width="2"/>
<rect x="45.9701" y="57.1915" width="7.76119" height="2.97873" rx="1.48936" fill="#4FB573"/>
<rect x="45.9701" y="62.5532" width="7.76119" height="2.97873" rx="1.48936" fill="#4FB573"/>
<rect x="45.9701" y="67.9149" width="7.76119" height="2.97872" rx="1.48936" fill="#4FB573"/>
<rect x="45.9701" y="73.2766" width="7.76119" height="2.97873" rx="1.48936" fill="#4FB573"/>
<rect x="56.1194" y="57.1915" width="7.7612" height="2.97873" rx="1.48936" fill="#4FB573"/>
<rect x="56.1194" y="62.5532" width="7.7612" height="2.97873" rx="1.48936" fill="#4FB573"/>
<rect x="56.1194" y="67.9149" width="7.7612" height="2.97872" rx="1.48936" fill="#4FB573"/>
<rect x="56.1194" y="73.2766" width="7.7612" height="2.97873" rx="1.48936" fill="#4FB573"/>
<rect x="65.6716" y="57.1915" width="7.76119" height="2.97873" rx="1.48936" fill="#4FB573"/>
<rect x="65.6716" y="62.5532" width="7.76119" height="2.97873" rx="1.48936" fill="#4FB573"/>
<rect x="65.6716" y="67.9149" width="7.76119" height="2.97872" rx="1.48936" fill="#4FB573"/>
<rect x="65.6716" y="73.2766" width="7.76119" height="2.97873" rx="1.48936" fill="#4FB573"/>
</svg>
