<svg width="90" height="82" viewBox="0 0 90 82" fill="none" xmlns="http://www.w3.org/2000/svg">
<circle cx="59" cy="51" r="28" fill="white"/>
<path d="M22 2.5C7.6 2.5 3.33333 11.1667 3 15.5C3 31.6667 3.6 64.8 6 68C9 72 22 74.5 26.5 75C30.1 75.4 37.3333 73.8333 40.5 73C39.1667 71.5 35.8 67.9 33 65.5C29.5 62.5 30 50.5 31 44.5C31.8 39.7 36 33.1667 38 30.5L52.5 22C52.8333 19.8333 53.3 14.9 52.5 12.5C51.5 9.5 40 2.5 22 2.5Z" fill="#DCF0E3"/>
<path d="M59.0402 29.5468L58.9611 29.547C58.1062 29.55 57.4156 30.2432 57.4187 31.0952C57.4218 31.9472 58.1173 32.6355 58.9722 32.6324L59.0402 32.6323L59.1083 32.6324C59.9632 32.6355 60.6587 31.9472 60.6618 31.0952C60.6649 30.2432 59.9743 29.55 59.1194 29.547L59.0402 29.5468Z" fill="#4FB573"/>
<path d="M54.2951 33.2414C55.1218 33.0244 55.6155 32.1806 55.3977 31.3566C55.18 30.5327 54.3333 30.0407 53.5066 30.2577C53.4556 30.2711 53.4047 30.2846 53.3539 30.2984C52.5288 30.5214 52.0413 31.3688 52.2651 32.1912C52.4889 33.0135 53.3393 33.4993 54.1644 33.2762C54.2079 33.2645 54.2514 33.2529 54.2951 33.2414Z" fill="#4FB573"/>
<path d="M64.5739 30.2577C63.7472 30.0407 62.9005 30.5327 62.6828 31.3566C62.465 32.1806 62.9587 33.0244 63.7854 33.2414C63.8291 33.2529 63.8726 33.2645 63.9161 33.2762C64.7412 33.4993 65.5916 33.0135 65.8154 32.1912C66.0392 31.3688 65.5517 30.5214 64.7266 30.2984C64.6758 30.2846 64.6249 30.2711 64.5739 30.2577Z" fill="#4FB573"/>
<path d="M69.8107 32.399C69.0692 31.975 68.1231 32.2304 67.6977 32.9694C67.2722 33.7085 67.5285 34.6513 68.27 35.0753C68.2906 35.0871 68.3111 35.0989 68.3316 35.1107C68.3501 35.1213 68.3685 35.132 68.3869 35.1427C69.1253 35.5721 70.0732 35.3236 70.5041 34.5877C70.9349 33.8518 70.6856 32.9071 69.9471 32.4777C69.9232 32.4638 69.8992 32.4499 69.8752 32.436C69.8537 32.4237 69.8322 32.4113 69.8107 32.399Z" fill="#4FB573"/>
<path d="M49.8105 35.0753C50.552 34.6513 50.8083 33.7085 50.3828 32.9694C49.9574 32.2304 49.0113 31.975 48.2698 32.399C48.2412 32.4154 48.2126 32.4318 48.1841 32.4483C48.1671 32.4581 48.1502 32.4679 48.1334 32.4777C47.3949 32.9071 47.1456 33.8518 47.5764 34.5877C48.0073 35.3236 48.9551 35.5721 49.6936 35.1427C49.7325 35.1201 49.7714 35.0976 49.8105 35.0753Z" fill="#4FB573"/>
<path d="M74.3087 35.8174C73.702 35.2171 72.7219 35.2207 72.1196 35.8253C71.5172 36.43 71.5208 37.4068 72.1275 38.0071C72.1595 38.0387 72.1913 38.0705 72.2231 38.1023C72.8254 38.707 73.8055 38.7105 74.4122 38.1102C75.0189 37.5099 75.0225 36.5331 74.4201 35.9285C74.3831 35.8913 74.346 35.8543 74.3087 35.8174Z" fill="#4FB573"/>
<path d="M45.953 38.0071C46.5597 37.4068 46.5633 36.43 45.9609 35.8253C45.3586 35.2207 44.3785 35.2171 43.7718 35.8174C43.7345 35.8543 43.6974 35.8913 43.6604 35.9285C43.058 36.5331 43.0616 37.5099 43.6683 38.1102C44.275 38.7105 45.2551 38.707 45.8574 38.1023C45.8892 38.0705 45.921 38.0387 45.953 38.0071Z" fill="#4FB573"/>
<path d="M77.7712 40.2753C77.3404 39.5393 76.3925 39.2908 75.6541 39.7202C74.9156 40.1496 74.6663 41.0943 75.0971 41.8302C75.1198 41.8689 75.1424 41.9078 75.1648 41.9467C75.5902 42.6857 76.5363 42.9411 77.2778 42.5171C78.0194 42.0931 78.2756 41.1503 77.8502 40.4112C77.8401 40.3938 77.83 40.3763 77.82 40.3589C77.8038 40.331 77.7875 40.3031 77.7712 40.2753Z" fill="#4FB573"/>
<path d="M42.9834 41.8302C43.4142 41.0943 43.1649 40.1496 42.4264 39.7202C41.688 39.2908 40.7401 39.5393 40.3093 40.2753C40.2828 40.3205 40.2565 40.3658 40.2303 40.4112C39.8049 41.1503 40.0611 42.0931 40.8027 42.5171C41.5442 42.9411 42.4903 42.6857 42.9157 41.9467C42.9381 41.9078 42.9607 41.8689 42.9834 41.8302Z" fill="#4FB573"/>
<path d="M41.1105 46.2858C41.3343 45.4635 40.8469 44.6161 40.0218 44.393C39.1966 44.17 38.3463 44.6558 38.1225 45.4781C38.1134 45.5117 38.1043 45.5454 38.0953 45.5791C38.0907 45.5961 38.0862 45.6132 38.0817 45.6303C37.864 46.4542 38.3577 47.298 39.1844 47.515C40.0111 47.732 40.8578 47.24 41.0756 46.4161C41.0871 46.3726 41.0987 46.3292 41.1105 46.2858Z" fill="#4FB573"/>
<path d="M79.958 45.4781C79.7342 44.6558 78.8839 44.17 78.0587 44.393C77.2336 44.6161 76.7462 45.4635 76.97 46.2858C76.9818 46.3292 76.9934 46.3726 77.0049 46.4161C77.2226 47.24 78.0694 47.732 78.8961 47.515C79.7228 47.298 80.2165 46.4542 79.9988 45.6303C79.9854 45.5795 79.9718 45.5288 79.958 45.4781Z" fill="#4FB573"/>
<path d="M40.4645 51.0774C40.4676 50.2254 39.777 49.5322 38.9221 49.5291C38.0672 49.5261 37.3716 50.2143 37.3686 51.0663L37.3684 51.1452L37.3686 51.224C37.3716 52.0761 38.0672 52.7643 38.9221 52.7612C39.777 52.7582 40.4676 52.065 40.4645 51.213L40.4644 51.1452L40.4645 51.0774Z" fill="#4FB573"/>
<path d="M80.7119 51.0663C80.7089 50.2143 80.0133 49.5261 79.1584 49.5291C78.3035 49.5322 77.6129 50.2254 77.616 51.0774L77.6161 51.1452L77.616 51.213C77.6129 52.065 78.3035 52.7582 79.1584 52.7612C80.0133 52.7643 80.7089 52.0761 80.7119 51.224L80.7121 51.1452L80.7119 51.0663Z" fill="#4FB573"/>
<path d="M41.0756 55.8743C40.8578 55.0504 40.0111 54.5583 39.1844 54.7753C38.3577 54.9923 37.864 55.8362 38.0817 56.6601C38.0951 56.7109 38.1087 56.7616 38.1225 56.8123C38.3463 57.6346 39.1966 58.1204 40.0218 57.8973C40.8469 57.6743 41.3343 56.8269 41.1105 56.0045C41.1068 55.9908 41.1031 55.9771 41.0994 55.9634C41.0914 55.9337 41.0834 55.904 41.0756 55.8743Z" fill="#4FB573"/>
<path d="M79.9988 56.6601C80.2165 55.8362 79.7228 54.9924 78.8961 54.7753C78.0694 54.5583 77.2226 55.0504 77.0049 55.8743C76.9934 55.9178 76.9818 55.9612 76.97 56.0045C76.7462 56.8269 77.2336 57.6743 78.0587 57.8973C78.8839 58.1204 79.7342 57.6346 79.958 56.8123C79.9718 56.7616 79.9854 56.7109 79.9988 56.6601Z" fill="#4FB573"/>
<path d="M42.9157 60.3437C42.4903 59.6046 41.5442 59.3493 40.8027 59.7733C40.0611 60.1973 39.8049 61.1401 40.2303 61.8792C40.2565 61.9246 40.2828 61.9699 40.3093 62.0151C40.7401 62.751 41.688 62.9995 42.4264 62.5702C43.1649 62.1408 43.4142 61.1961 42.9834 60.4602C42.9607 60.4214 42.9381 60.3826 42.9157 60.3437Z" fill="#4FB573"/>
<path d="M77.8502 61.8792C78.2756 61.1401 78.0194 60.1973 77.2778 59.7733C76.5363 59.3493 75.5902 59.6046 75.1648 60.3437L75.1346 60.3959L75.0971 60.4602C74.6663 61.1961 74.9156 62.1408 75.6541 62.5702C76.3925 62.9995 77.3404 62.751 77.7712 62.0151C77.7977 61.9699 77.824 61.9246 77.8502 61.8792Z" fill="#4FB573"/>
<path d="M45.8574 64.1881C45.2551 63.5834 44.275 63.5799 43.6683 64.1802C43.0616 64.7805 43.058 65.7573 43.6604 66.3619C43.6974 66.3991 43.7345 66.4361 43.7718 66.473C44.3785 67.0732 45.3586 67.0697 45.9609 66.4651C46.5633 65.8604 46.5597 64.8836 45.953 64.2833C45.921 64.2517 45.8892 64.2199 45.8574 64.1881Z" fill="#4FB573"/>
<path d="M74.4201 66.3619C75.0225 65.7573 75.0189 64.7805 74.4122 64.1802C73.8055 63.5799 72.8254 63.5834 72.2231 64.1881C72.1913 64.2199 72.1595 64.2517 72.1275 64.2833C71.5208 64.8836 71.5172 65.8604 72.1196 66.4651C72.7219 67.0697 73.702 67.0732 74.3087 66.473L74.3706 66.4115L74.4201 66.3619Z" fill="#4FB573"/>
<path d="M49.6936 67.1477C48.9551 66.7183 48.0073 66.9668 47.5764 67.7027C47.1456 68.4386 47.3949 69.3833 48.1334 69.8127C48.1787 69.8391 48.2242 69.8653 48.2698 69.8913C49.0113 70.3154 49.9574 70.06 50.3828 69.321C50.8083 68.5819 50.552 67.6391 49.8105 67.2151C49.7882 67.2023 49.766 67.1896 49.7438 67.1767C49.727 67.1671 49.7103 67.1574 49.6936 67.1477Z" fill="#4FB573"/>
<path d="M69.9471 69.8127C70.6856 69.3833 70.9349 68.4386 70.5041 67.7027C70.0732 66.9668 69.1253 66.7183 68.3869 67.1477C68.348 67.1703 68.3091 67.1927 68.27 67.2151C67.5285 67.6391 67.2722 68.5819 67.6977 69.321C68.1231 70.06 69.0692 70.3154 69.8107 69.8913C69.8563 69.8653 69.9018 69.8391 69.9471 69.8127Z" fill="#4FB573"/>
<path d="M54.1644 69.0141C53.3393 68.7911 52.4889 69.2769 52.2651 70.0992C52.0413 70.9215 52.5288 71.769 53.3539 71.992C53.4047 72.0058 53.4556 72.0193 53.5066 72.0327C54.3333 72.2497 55.18 71.7577 55.3977 70.9337C55.6155 70.1098 55.1218 69.266 54.2951 69.049C54.2713 69.0427 54.2476 69.0364 54.2239 69.0301C54.204 69.0248 54.1842 69.0195 54.1644 69.0141Z" fill="#4FB573"/>
<path d="M64.7266 71.992C65.5517 71.769 66.0392 70.9215 65.8154 70.0992C65.5916 69.2769 64.7412 68.7911 63.9161 69.0141C63.8726 69.0259 63.8291 69.0375 63.7854 69.049C62.9587 69.266 62.465 70.1098 62.6828 70.9337C62.9005 71.7577 63.7472 72.2497 64.5739 72.0327C64.6249 72.0193 64.6758 72.0058 64.7266 71.992Z" fill="#4FB573"/>
<path d="M58.9722 69.658C58.1173 69.6549 57.4218 70.3431 57.4187 71.1952C57.4156 72.0472 58.1062 72.7404 58.9611 72.7434L59.0402 72.7436L59.1194 72.7434C59.9743 72.7404 60.6649 72.0472 60.6618 71.1952C60.6587 70.3431 59.9632 69.6549 59.1083 69.658L59.0402 69.6581L58.9722 69.658Z" fill="#4FB573"/>
<path fill-rule="evenodd" clip-rule="evenodd" d="M55.7895 16.8025C55.7895 18.1529 55.5363 19.4435 55.076 20.6615C56.3443 20.5051 57.6364 20.4245 58.9474 20.4245C76.0973 20.4245 90 34.2087 90 51.2123C90 68.2159 76.0973 82 58.9474 82C51.745 82 45.1153 79.5689 39.8476 75.4891C36.2155 76.5071 32.1581 77.0699 27.8947 77.0699C20.5058 77.0699 13.702 75.378 8.66453 72.524C3.69503 69.7086 0 65.4632 0 60.2675V16.8025C0 11.6067 3.69503 7.36138 8.66453 4.54589C13.702 1.69189 20.5058 0 27.8947 0C35.2837 0 42.0874 1.69189 47.1249 4.54589C52.0944 7.36138 55.7895 11.6067 55.7895 16.8025ZM4.64396 16.8025C4.64396 13.9965 6.67359 10.9977 10.9596 8.56941C15.1776 6.17966 21.1603 4.62822 27.8947 4.62822C34.6292 4.62822 40.6118 6.17966 44.8299 8.56941C49.1159 10.9977 51.1455 13.9965 51.1455 16.8025C51.1455 18.5815 50.3504 20.4098 48.6594 22.1545C45.2297 23.3481 42.0754 25.1216 39.316 27.3565C35.9468 28.3837 32.0561 28.9767 27.8947 28.9767C21.1603 28.9767 15.1776 27.4252 10.9596 25.0355C6.67359 22.6072 4.64396 19.6084 4.64396 16.8025ZM41.1461 70.2022L41.3356 70.7057C46.0052 74.8493 52.1746 77.3718 58.9474 77.3718C73.5552 77.3718 85.356 65.6372 85.356 51.2123C85.356 36.7873 73.5552 25.0528 58.9474 25.0528C44.3396 25.0528 32.5387 36.7873 32.5387 51.2123C32.5387 58.7325 35.7461 65.5216 40.8865 70.2979C40.9734 70.2663 41.06 70.2344 41.1461 70.2022ZM27.8947 72.4417C30.6655 72.4417 33.3146 72.1788 35.7687 71.7007C33.9403 69.6689 32.3797 67.3951 31.1417 64.9339C30.0773 65.0083 28.9936 65.0466 27.8947 65.0466C20.6694 65.0466 14.0709 63.3898 9.2383 60.6519C7.47156 59.651 5.91086 58.4853 4.64396 57.1824V60.2675C4.64396 63.0734 6.67359 66.0723 10.9596 68.5005C15.1776 70.8903 21.1603 72.4417 27.8947 72.4417ZM28.0372 54.1802C28.3243 57.1565 29.0388 60.0091 30.1192 62.677C29.3866 62.7137 28.6447 62.7325 27.8947 62.7325C20.9966 62.7325 14.8087 61.146 10.3858 58.6401C7.72329 57.1317 5.77841 55.3429 4.64396 53.4215V46.3162C5.91086 47.619 7.47156 48.7847 9.2383 49.7857C14.0709 52.5236 20.6694 54.1804 27.8947 54.1804L28.0372 54.1802ZM27.8948 51.2123C27.8948 51.4308 27.8971 51.6488 27.9016 51.8663H27.8947C20.9966 51.8663 14.8087 50.2797 10.3858 47.7739C7.72329 46.2654 5.77841 44.4767 4.64396 42.5552V35.4499C5.91086 36.7528 7.47156 37.9184 9.2383 38.9194C14.0709 41.6573 20.6694 43.3141 27.8947 43.3141C28.2411 43.3141 28.5859 43.3103 28.9291 43.3028C28.2543 45.8267 27.8948 48.4779 27.8948 51.2123ZM33.7278 33.2455C32.0237 35.5928 30.6446 38.1877 29.6562 40.9653C29.0744 40.9883 28.4871 41 27.8947 41C20.9966 41 14.8087 39.4134 10.3858 36.9076C7.72329 35.3992 5.77841 33.6104 4.64396 31.689V26.1906C5.8301 27.264 7.19131 28.2244 8.66453 29.059C13.702 31.913 20.5058 33.6049 27.8947 33.6049C29.8925 33.6049 31.8443 33.4813 33.7278 33.2455Z" fill="#4FB573"/>
</svg>
