<svg width="118" height="101" viewBox="0 0 118 101" fill="none" xmlns="http://www.w3.org/2000/svg">
<path fill-rule="evenodd" clip-rule="evenodd" d="M23 67.9943C11.3568 67.7286 2 58.207 2 46.5C2 34.6259 11.6259 25 23.5 25C24.5105 25 25.5047 25.0697 26.4781 25.2046C30.6507 11.7622 43.1853 2 58 2C70.173 2 80.8065 8.59105 86.5266 18.3991C87.978 18.1369 89.473 18 91 18C104.807 18 116 29.1929 116 43C116 56.8071 104.807 68 91 68H58H23.5H23V67.9943Z" fill="white"/>
<path d="M23 67.9943H24.5V66.5281L23.0342 66.4947L23 67.9943ZM26.4781 25.2046L26.2722 26.6904L27.5332 26.8651L27.9107 25.6493L26.4781 25.2046ZM86.5266 18.3991L85.2308 19.1548L85.7599 20.0619L86.7932 19.8752L86.5266 18.3991ZM23 68H21.5V69.5H23V68ZM23.0342 66.4947C12.2041 66.2475 3.5 57.39 3.5 46.5H0.5C0.5 59.024 10.5096 69.2097 22.9658 69.4939L23.0342 66.4947ZM3.5 46.5C3.5 35.4543 12.4543 26.5 23.5 26.5V23.5C10.7975 23.5 0.5 33.7975 0.5 46.5H3.5ZM23.5 26.5C24.4414 26.5 25.3668 26.5649 26.2722 26.6904L26.684 23.7188C25.6426 23.5745 24.5796 23.5 23.5 23.5V26.5ZM27.9107 25.6493C31.894 12.8166 43.861 3.5 58 3.5V0.5C42.5097 0.5 29.4074 10.7077 25.0455 24.7599L27.9107 25.6493ZM58 3.5C69.6178 3.5 79.7685 9.78863 85.2308 19.1548L87.8223 17.6434C81.8445 7.39346 70.7281 0.5 58 0.5V3.5ZM86.7932 19.8752C88.1571 19.6288 89.5629 19.5 91 19.5V16.5C89.3832 16.5 87.7989 16.645 86.2599 16.923L86.7932 19.8752ZM91 19.5C103.979 19.5 114.5 30.0213 114.5 43H117.5C117.5 28.3645 105.636 16.5 91 16.5V19.5ZM114.5 43C114.5 55.9787 103.979 66.5 91 66.5V69.5C105.636 69.5 117.5 57.6355 117.5 43H114.5ZM91 66.5H58V69.5H91V66.5ZM58 66.5H23.5V69.5H58V66.5ZM23.5 66.5H23V69.5H23.5V66.5ZM24.5 68V67.9943H21.5V68H24.5Z" fill="#4FB573"/>
<circle cx="64.0208" cy="25.0209" r="7" transform="rotate(-45 64.0208 25.0209)" fill="#DCF0E3" stroke="#4FB573" stroke-width="3"/>
<circle cx="43.5104" cy="33.5104" r="5.01774" transform="rotate(-45 43.5104 33.5104)" fill="#DCF0E3" stroke="#4FB573" stroke-width="2"/>
<circle cx="43.5104" cy="54.5104" r="5.01774" transform="rotate(-45 43.5104 54.5104)" fill="#DCF0E3" stroke="#4FB573" stroke-width="2"/>
<circle cx="83.0208" cy="49.0209" r="7" transform="rotate(-45 83.0208 49.0209)" fill="#DCF0E3" stroke="#4FB573" stroke-width="3"/>
<circle cx="23.0208" cy="47.0209" r="7" transform="rotate(-45 23.0208 47.0209)" fill="#DCF0E3" stroke="#4FB573" stroke-width="3"/>
<path d="M64 90L64 33" stroke="#4FB573" stroke-width="2"/>
<path d="M64 101L64 93" stroke="#4FB573" stroke-width="2"/>
<path d="M83 101L83 93" stroke="#4FB573" stroke-width="3"/>
<path d="M83 90L83 85" stroke="#4FB573" stroke-width="3"/>
<path d="M44 50L44 39" stroke="#4FB573" stroke-width="2"/>
<path d="M83 82L83 57" stroke="#4FB573" stroke-width="3"/>
<path d="M23 54V59.7476L35 71.6019V101" stroke="#4FB573" stroke-width="3"/>
<path d="M88 54L96 61.0959V91" stroke="#4FB573" stroke-width="2"/>
</svg>
