<svg width="104" height="76" viewBox="0 0 104 76" fill="none" xmlns="http://www.w3.org/2000/svg">
<g clip-path="url(#clip0)">
<path d="M102.587 74.634L102.587 14.1013L1.39568 14.1013L1.39568 74.634L102.587 74.634Z" fill="#EFEFEF"/>
<path d="M50.0808 61.6784C58.8697 61.6784 65.9944 54.4114 65.9944 45.4472C65.9944 36.483 58.8697 29.2161 50.0808 29.2161C41.292 29.2161 34.1672 36.483 34.1672 45.4472C34.1672 54.4114 41.292 61.6784 50.0808 61.6784Z" fill="white" stroke="#8F8F8F" stroke-width="3" stroke-miterlimit="10" stroke-linecap="round"/>
<path d="M2.05933 73.7085V58.623L13.3861 62.8241L17.224 73.8994L2.05933 73.7085Z" fill="white"/>
<path d="M102.128 73.7085V58.623L90.7075 62.8241L86.9631 73.8994L102.128 73.7085Z" fill="white"/>
<path d="M2.05933 15.8492V30.9346L13.3861 26.8291L17.224 15.6582L2.05933 15.8492Z" fill="white"/>
<path d="M102.128 15.8492V30.9346L90.7075 26.8291L86.9631 15.6582L102.128 15.8492Z" fill="white"/>
<path d="M102.502 30.6481C93.7029 30.6481 86.5886 23.3919 86.5886 14.417" stroke="#8F8F8F" stroke-width="2" stroke-miterlimit="10" stroke-linecap="round"/>
<path d="M1.59131 30.6481C10.3906 30.6481 17.5049 23.3919 17.5049 14.417" stroke="#8F8F8F" stroke-width="2" stroke-miterlimit="10" stroke-linecap="round"/>
<path d="M102.502 58.4321C93.7029 58.4321 86.5886 65.6884 86.5886 74.6633" stroke="#8F8F8F" stroke-width="2" stroke-miterlimit="10"/>
<path d="M17.5049 74.6633C17.5049 65.6884 10.3906 58.4321 1.59131 58.4321" stroke="#8F8F8F" stroke-width="2" stroke-miterlimit="10"/>
<path d="M11.6074 7.8291H93.7028" stroke="#8F8F8F" stroke-width="2" stroke-miterlimit="10" stroke-linecap="round"/>
<path d="M23.6831 1.43213H81.6273" stroke="#8F8F8F" stroke-width="2" stroke-miterlimit="10" stroke-linecap="round"/>
<path d="M102.587 74.634L102.587 14.1013L1.39568 14.1013L1.39568 74.634L102.587 74.634Z" stroke="#8F8F8F" stroke-width="3" stroke-miterlimit="10" stroke-linecap="round" stroke-linejoin="round"/>
</g>
<defs>
<clipPath id="clip0">
<rect width="104" height="76" fill="white"/>
</clipPath>
</defs>
</svg>
