<svg width="147" height="76" viewBox="0 0 147 76" fill="none" xmlns="http://www.w3.org/2000/svg">
<path d="M16.1182 59.7341C23.0638 59.7341 28.6943 54.0731 28.6943 47.0899C28.6943 40.1068 23.0638 34.4458 16.1182 34.4458C9.17254 34.4458 3.54199 40.1068 3.54199 47.0899C3.54199 54.0731 9.17254 59.7341 16.1182 59.7341Z" stroke="#4FB573" stroke-width="3" stroke-miterlimit="10" stroke-linecap="round"/>
<path d="M1.79761 39.2146C3.05201 36.3755 5.0986 33.9632 7.68933 32.2701C10.2801 30.577 13.3036 29.6758 16.3936 29.6758C19.4835 29.6758 22.5071 30.577 25.0978 32.2701C27.6886 33.9632 29.7352 36.3755 30.9896 39.2146" stroke="#4FB573" stroke-width="3" stroke-miterlimit="10" stroke-linecap="round"/>
<path d="M63.2475 59.7341C68.1095 59.7341 72.0509 55.7714 72.0509 50.8832C72.0509 45.9949 68.1095 42.0322 63.2475 42.0322C58.3855 42.0322 54.4441 45.9949 54.4441 50.8832C54.4441 55.7714 58.3855 59.7341 63.2475 59.7341Z" stroke="#4FB573" stroke-width="3" stroke-miterlimit="10" stroke-linecap="round"/>
<path d="M32.3604 50.9819H50.1782" stroke="#4FB573" stroke-width="3" stroke-miterlimit="10" stroke-linecap="round"/>
<path d="M31.4463 43.1733H53.8328" stroke="#4FB573" stroke-width="3" stroke-miterlimit="10" stroke-linecap="round"/>
<path d="M15.9124 29.3928V11.4786H41.0402L51.5481 29.3928H69.8232V35.8233" stroke="#4FB573" stroke-width="3" stroke-linecap="round" stroke-linejoin="round"/>
<path d="M58.039 17.4774L55.4849 18.9328V29.033" stroke="#4FB573" stroke-width="3" stroke-linecap="round" stroke-linejoin="round"/>
<path d="M19.9963 17.7556V23.5782C19.9986 24.0884 20.2011 24.5769 20.5599 24.9377C20.9186 25.2985 21.4045 25.5023 21.9119 25.5048H43.942L39.4338 17.3705L38.8782 16.3695C38.5239 16.0242 38.0501 15.8309 37.5566 15.8303H21.9119C21.4044 15.8317 20.9181 16.035 20.5592 16.3958C20.2003 16.7565 19.9979 17.2454 19.9963 17.7556V17.7556Z" stroke="#4FB573" stroke-width="3" stroke-linecap="round" stroke-linejoin="round"/>
<path d="M23.78 57.1129C40.1225 56.6541 56.4292 58.8918 72.0517 63.7369" stroke="#4FB573" stroke-width="3" stroke-linecap="round" stroke-linejoin="round"/>
<path d="M5.00293 58.8945C5.00293 58.8945 6.78511 58.5295 9.9811 58.1251" stroke="#4FB573" stroke-width="3" stroke-linecap="round" stroke-linejoin="round"/>
<path d="M144.207 52.4748C144.207 52.4748 95.654 47.8068 50.3 74.2961" stroke="#4FB573" stroke-width="3" stroke-linecap="round" stroke-linejoin="round"/>
<path d="M95.103 12.006L95.103 63.646" stroke="#4FB573" stroke-width="3" stroke-linecap="round"/>
<mask id="path-13-inside-1" fill="white">
<path fill-rule="evenodd" clip-rule="evenodd" d="M100.876 52.558C106.239 52.558 110.587 48.2142 110.587 42.8559C110.587 42.4308 110.56 42.0121 110.507 41.6015C110.5 41.5471 110.474 41.4967 110.435 41.4585C108.685 39.7504 106.291 38.6978 103.651 38.6978C98.2873 38.6978 93.9395 43.0416 93.9395 48.3999C93.9395 48.825 93.9668 49.2437 94.0199 49.6543C94.0269 49.7087 94.0521 49.7591 94.0913 49.7973C95.8418 51.5054 98.2358 52.558 100.876 52.558Z"/>
</mask>
<path fill-rule="evenodd" clip-rule="evenodd" d="M100.876 52.558C106.239 52.558 110.587 48.2142 110.587 42.8559C110.587 42.4308 110.56 42.0121 110.507 41.6015C110.5 41.5471 110.474 41.4967 110.435 41.4585C108.685 39.7504 106.291 38.6978 103.651 38.6978C98.2873 38.6978 93.9395 43.0416 93.9395 48.3999C93.9395 48.825 93.9668 49.2437 94.0199 49.6543C94.0269 49.7087 94.0521 49.7591 94.0913 49.7973C95.8418 51.5054 98.2358 52.558 100.876 52.558Z" fill="#DCF0E3"/>
<path d="M94.0913 49.7973L91.9962 51.9445L94.0913 49.7973ZM110.507 41.6015L107.531 41.9859L110.507 41.6015ZM110.435 41.4585L112.53 39.3113L110.435 41.4585ZM107.587 42.8559C107.587 46.5547 104.585 49.558 100.876 49.558V55.558C107.894 55.558 113.587 49.8737 113.587 42.8559H107.587ZM107.531 41.9859C107.568 42.2694 107.587 42.5597 107.587 42.8559H113.587C113.587 42.3019 113.551 41.7548 113.482 41.217L107.531 41.9859ZM103.651 41.6978C105.477 41.6978 107.128 42.4225 108.34 43.6057L112.53 39.3113C110.242 37.0783 107.104 35.6978 103.651 35.6978V41.6978ZM96.9395 48.3999C96.9395 44.7011 99.9415 41.6978 103.651 41.6978V35.6978C96.633 35.6978 90.9395 41.3821 90.9395 48.3999H96.9395ZM96.9951 49.2699C96.9585 48.9864 96.9395 48.6961 96.9395 48.3999H90.9395C90.9395 48.9539 90.9751 49.501 91.0446 50.0388L96.9951 49.2699ZM100.876 49.558C99.0495 49.558 97.399 48.8333 96.1864 47.6501L91.9962 51.9445C94.2846 54.1775 97.4222 55.558 100.876 55.558V49.558ZM91.0446 50.0388C91.1382 50.7631 91.4735 51.4346 91.9962 51.9445L96.1864 47.6501C96.6306 48.0835 96.9156 48.6542 96.9951 49.2699L91.0446 50.0388ZM113.482 41.217C113.388 40.4927 113.053 39.8212 112.53 39.3113L108.34 43.6057C107.896 43.1723 107.611 42.6016 107.531 41.9859L113.482 41.217Z" fill="#4FB573" mask="url(#path-13-inside-1)"/>
<mask id="path-15-inside-2" fill="white">
<path fill-rule="evenodd" clip-rule="evenodd" d="M100.876 35.9257C106.239 35.9257 110.587 31.582 110.587 26.2237C110.587 25.7986 110.56 25.3799 110.507 24.9693C110.5 24.915 110.475 24.8646 110.435 24.8263C108.685 23.1183 106.291 22.0657 103.651 22.0657C98.2873 22.0657 93.9395 26.4094 93.9395 31.7677C93.9395 32.1928 93.9668 32.6115 94.0199 33.0221C94.0269 33.0764 94.0521 33.1268 94.0913 33.1651C95.8418 34.8731 98.2358 35.9257 100.876 35.9257Z"/>
</mask>
<path fill-rule="evenodd" clip-rule="evenodd" d="M100.876 35.9257C106.239 35.9257 110.587 31.582 110.587 26.2237C110.587 25.7986 110.56 25.3799 110.507 24.9693C110.5 24.915 110.475 24.8646 110.435 24.8263C108.685 23.1183 106.291 22.0657 103.651 22.0657C98.2873 22.0657 93.9395 26.4094 93.9395 31.7677C93.9395 32.1928 93.9668 32.6115 94.0199 33.0221C94.0269 33.0764 94.0521 33.1268 94.0913 33.1651C95.8418 34.8731 98.2358 35.9257 100.876 35.9257Z" fill="#DCF0E3"/>
<path d="M94.0199 33.0221L96.9951 32.6377L94.0199 33.0221ZM94.0913 33.1651L96.1864 31.0179L94.0913 33.1651ZM110.507 24.9693L113.482 24.5849L110.507 24.9693ZM110.435 24.8263L108.34 26.9735L110.435 24.8263ZM107.587 26.2237C107.587 29.9225 104.585 32.9257 100.876 32.9257V38.9257C107.894 38.9257 113.587 33.2415 113.587 26.2237H107.587ZM107.531 25.3537C107.568 25.6372 107.587 25.9275 107.587 26.2237H113.587C113.587 25.6697 113.551 25.1227 113.482 24.5849L107.531 25.3537ZM103.651 25.0657C105.477 25.0657 107.128 25.7904 108.34 26.9735L112.53 22.6791C110.242 20.4462 107.104 19.0657 103.651 19.0657V25.0657ZM96.9395 31.7677C96.9395 28.0689 99.9415 25.0657 103.651 25.0657V19.0657C96.633 19.0657 90.9395 24.7499 90.9395 31.7677H96.9395ZM96.9951 32.6377C96.9585 32.3542 96.9395 32.0639 96.9395 31.7677H90.9395C90.9395 32.3217 90.9751 32.8687 91.0446 33.4065L96.9951 32.6377ZM100.876 32.9257C99.0495 32.9257 97.3989 32.201 96.1864 31.0179L91.9961 35.3123C94.2846 37.5452 97.4222 38.9257 100.876 38.9257V32.9257ZM91.0446 33.4065C91.1382 34.1309 91.4735 34.8023 91.9961 35.3123L96.1864 31.0179C96.6306 31.4513 96.9156 32.022 96.9951 32.6377L91.0446 33.4065ZM113.482 24.5849C113.388 23.8605 113.053 23.1891 112.53 22.6791L108.34 26.9735C107.896 26.5401 107.611 25.9694 107.531 25.3537L113.482 24.5849Z" fill="#4FB573" mask="url(#path-15-inside-2)"/>
<mask id="path-17-inside-3" fill="white">
<path fill-rule="evenodd" clip-rule="evenodd" d="M100.876 19.2937C106.239 19.2937 110.587 14.9499 110.587 9.59163C110.587 9.16657 110.56 8.74789 110.507 8.33726C110.5 8.28291 110.474 8.23253 110.435 8.19425C108.685 6.48621 106.291 5.43362 103.651 5.43362C98.2873 5.43362 93.9395 9.77739 93.9395 15.1357C93.9395 15.5607 93.9668 15.9794 94.0199 16.39C94.0269 16.4444 94.0521 16.4948 94.0913 16.5331C95.8418 18.2411 98.2358 19.2937 100.876 19.2937Z"/>
</mask>
<path fill-rule="evenodd" clip-rule="evenodd" d="M100.876 19.2937C106.239 19.2937 110.587 14.9499 110.587 9.59163C110.587 9.16657 110.56 8.74789 110.507 8.33726C110.5 8.28291 110.474 8.23253 110.435 8.19425C108.685 6.48621 106.291 5.43362 103.651 5.43362C98.2873 5.43362 93.9395 9.77739 93.9395 15.1357C93.9395 15.5607 93.9668 15.9794 94.0199 16.39C94.0269 16.4444 94.0521 16.4948 94.0913 16.5331C95.8418 18.2411 98.2358 19.2937 100.876 19.2937Z" fill="#DCF0E3"/>
<path d="M94.0199 16.39L96.9951 16.0056L94.0199 16.39ZM94.0913 16.5331L91.9962 18.6803L94.0913 16.5331ZM110.507 8.33726L107.531 8.72169L110.507 8.33726ZM110.435 8.19425L112.53 6.04705L110.435 8.19425ZM107.587 9.59163C107.587 13.2904 104.585 16.2937 100.876 16.2937V22.2937C107.894 22.2937 113.587 16.6094 113.587 9.59163H107.587ZM107.531 8.72169C107.568 9.00517 107.587 9.29544 107.587 9.59163H113.587C113.587 9.03769 113.551 8.49061 113.482 7.95284L107.531 8.72169ZM103.651 8.43362C105.477 8.43362 107.128 9.15831 108.34 10.3415L112.53 6.04705C110.242 3.81411 107.104 2.43362 103.651 2.43362V8.43362ZM96.9395 15.1357C96.9395 11.4369 99.9415 8.43362 103.651 8.43362V2.43362C96.633 2.43362 90.9395 8.1179 90.9395 15.1357H96.9395ZM96.9951 16.0056C96.9585 15.7221 96.9395 15.4319 96.9395 15.1357H90.9395C90.9395 15.6896 90.9751 16.2367 91.0446 16.7745L96.9951 16.0056ZM100.876 16.2937C99.0495 16.2937 97.3989 15.569 96.1864 14.3859L91.9962 18.6803C94.2846 20.9132 97.4222 22.2937 100.876 22.2937V16.2937ZM91.0446 16.7745C91.1382 17.4988 91.4735 18.1703 91.9962 18.6803L96.1864 14.3859C96.6306 14.8193 96.9156 15.3899 96.9951 16.0056L91.0446 16.7745ZM113.482 7.95284C113.388 7.22846 113.053 6.557 112.53 6.04705L108.34 10.3415C107.896 9.90805 107.611 9.33736 107.531 8.72169L113.482 7.95284Z" fill="#4FB573" mask="url(#path-17-inside-3)"/>
<mask id="path-19-inside-4" fill="white">
<path fill-rule="evenodd" clip-rule="evenodd" d="M89.7778 52.558C84.4145 52.558 80.0666 48.2142 80.0666 42.8559C80.0666 42.4307 80.094 42.012 80.1471 41.6013C80.1541 41.5469 80.1793 41.4965 80.2185 41.4583C81.969 39.7503 84.363 38.6978 87.003 38.6978C92.3663 38.6978 96.7141 43.0416 96.7141 48.3999C96.7141 48.8251 96.6867 49.2438 96.6337 49.6545C96.6266 49.7089 96.6015 49.7593 96.5622 49.7975C94.8118 51.5055 92.4178 52.558 89.7778 52.558Z"/>
</mask>
<path fill-rule="evenodd" clip-rule="evenodd" d="M89.7778 52.558C84.4145 52.558 80.0666 48.2142 80.0666 42.8559C80.0666 42.4307 80.094 42.012 80.1471 41.6013C80.1541 41.5469 80.1793 41.4965 80.2185 41.4583C81.969 39.7503 84.363 38.6978 87.003 38.6978C92.3663 38.6978 96.7141 43.0416 96.7141 48.3999C96.7141 48.8251 96.6867 49.2438 96.6337 49.6545C96.6266 49.7089 96.6015 49.7593 96.5622 49.7975C94.8118 51.5055 92.4178 52.558 89.7778 52.558Z" fill="#DCF0E3"/>
<path d="M96.5622 49.7975L94.4672 47.6503L96.5622 49.7975ZM80.1471 41.6013L83.1223 41.9858L80.1471 41.6013ZM80.2185 41.4583L82.3136 43.6055L80.2185 41.4583ZM83.0666 42.8559C83.0666 46.5547 86.0687 49.558 89.7778 49.558V55.558C82.7602 55.558 77.0666 49.8737 77.0666 42.8559H83.0666ZM83.1223 41.9858C83.0857 42.2693 83.0666 42.5596 83.0666 42.8559H77.0666C77.0666 42.3018 77.1023 41.7547 77.1718 41.2168L83.1223 41.9858ZM87.003 41.6978C85.1766 41.6978 83.5261 42.4225 82.3136 43.6055L78.1234 39.311C80.4119 37.0782 83.5494 35.6978 87.003 35.6978V41.6978ZM93.7141 48.3999C93.7141 44.7011 90.7121 41.6978 87.003 41.6978V35.6978C94.0205 35.6978 99.7141 41.3821 99.7141 48.3999H93.7141ZM93.6584 49.27C93.695 48.9865 93.7141 48.6962 93.7141 48.3999H99.7141C99.7141 48.954 99.6784 49.5012 99.6089 50.039L93.6584 49.27ZM89.7778 49.558C91.6042 49.558 93.2547 48.8333 94.4672 47.6503L98.6573 51.9448C96.3689 54.1776 93.2314 55.558 89.7778 55.558V49.558ZM99.6089 50.039C99.5153 50.7634 99.1799 51.4349 98.6573 51.9448L94.4672 47.6503C94.023 48.0837 93.738 48.6543 93.6584 49.27L99.6089 50.039ZM77.1718 41.2168C77.2654 40.4924 77.6008 39.8209 78.1234 39.311L82.3136 43.6055C82.7577 43.1721 83.0428 42.6015 83.1223 41.9858L77.1718 41.2168Z" fill="#4FB573" mask="url(#path-19-inside-4)"/>
<mask id="path-21-inside-5" fill="white">
<path fill-rule="evenodd" clip-rule="evenodd" d="M89.7778 35.9257C84.4145 35.9257 80.0666 31.582 80.0666 26.2237C80.0666 25.7985 80.094 25.3798 80.1471 24.9691C80.1541 24.9148 80.1793 24.8644 80.2185 24.8261C81.969 23.1182 84.363 22.0657 87.003 22.0657C92.3663 22.0657 96.7141 26.4094 96.7141 31.7677C96.7141 32.1929 96.6867 32.6116 96.6337 33.0223C96.6266 33.0767 96.6015 33.127 96.5623 33.1653C94.8118 34.8732 92.4178 35.9257 89.7778 35.9257Z"/>
</mask>
<path fill-rule="evenodd" clip-rule="evenodd" d="M89.7778 35.9257C84.4145 35.9257 80.0666 31.582 80.0666 26.2237C80.0666 25.7985 80.094 25.3798 80.1471 24.9691C80.1541 24.9148 80.1793 24.8644 80.2185 24.8261C81.969 23.1182 84.363 22.0657 87.003 22.0657C92.3663 22.0657 96.7141 26.4094 96.7141 31.7677C96.7141 32.1929 96.6867 32.6116 96.6337 33.0223C96.6266 33.0767 96.6015 33.127 96.5623 33.1653C94.8118 34.8732 92.4178 35.9257 89.7778 35.9257Z" fill="#DCF0E3"/>
<path d="M96.6337 33.0223L99.6089 33.4068L96.6337 33.0223ZM96.5623 33.1653L98.6573 35.3126L96.5623 33.1653ZM80.1471 24.9691L83.1223 25.3536L80.1471 24.9691ZM80.2185 24.8261L78.1234 22.6788L80.2185 24.8261ZM83.0666 26.2237C83.0666 29.9225 86.0687 32.9257 89.7778 32.9257V38.9257C82.7602 38.9257 77.0666 33.2415 77.0666 26.2237H83.0666ZM83.1223 25.3536C83.0857 25.6371 83.0666 25.9274 83.0666 26.2237H77.0666C77.0666 25.6696 77.1023 25.1225 77.1718 24.5846L83.1223 25.3536ZM87.003 25.0657C85.1766 25.0657 83.5261 25.7903 82.3136 26.9734L78.1234 22.6788C80.4119 20.4461 83.5494 19.0657 87.003 19.0657V25.0657ZM93.7141 31.7677C93.7141 28.0689 90.7121 25.0657 87.003 25.0657V19.0657C94.0205 19.0657 99.7141 24.7499 99.7141 31.7677H93.7141ZM93.6584 32.6378C93.695 32.3543 93.7141 32.064 93.7141 31.7677H99.7141C99.7141 32.3218 99.6784 32.8689 99.6089 33.4068L93.6584 32.6378ZM89.7778 32.9257C91.6042 32.9257 93.2547 32.2011 94.4672 31.018L98.6573 35.3126C96.3689 37.5454 93.2314 38.9257 89.7778 38.9257V32.9257ZM99.6089 33.4068C99.5153 34.1312 99.18 34.8026 98.6573 35.3126L94.4672 31.018C94.023 31.4514 93.738 32.0221 93.6584 32.6378L99.6089 33.4068ZM77.1718 24.5846C77.2654 23.8602 77.6008 23.1888 78.1234 22.6788L82.3136 26.9734C82.7577 26.54 83.0428 25.9693 83.1223 25.3536L77.1718 24.5846Z" fill="#4FB573" mask="url(#path-21-inside-5)"/>
<mask id="path-23-inside-6" fill="white">
<path fill-rule="evenodd" clip-rule="evenodd" d="M89.7778 19.2937C84.4145 19.2937 80.0666 14.9499 80.0666 9.59163C80.0666 9.1665 80.094 8.74776 80.1471 8.33706C80.1541 8.28271 80.1793 8.23233 80.2185 8.19405C81.969 6.48613 84.363 5.43362 87.003 5.43362C92.3663 5.43362 96.7141 9.77739 96.7141 15.1357C96.7141 15.5608 96.6867 15.9796 96.6337 16.3903C96.6266 16.4446 96.6015 16.495 96.5623 16.5333C94.8118 18.2412 92.4178 19.2937 89.7778 19.2937Z"/>
</mask>
<path fill-rule="evenodd" clip-rule="evenodd" d="M89.7778 19.2937C84.4145 19.2937 80.0666 14.9499 80.0666 9.59163C80.0666 9.1665 80.094 8.74776 80.1471 8.33706C80.1541 8.28271 80.1793 8.23233 80.2185 8.19405C81.969 6.48613 84.363 5.43362 87.003 5.43362C92.3663 5.43362 96.7141 9.77739 96.7141 15.1357C96.7141 15.5608 96.6867 15.9796 96.6337 16.3903C96.6266 16.4446 96.6015 16.495 96.5623 16.5333C94.8118 18.2412 92.4178 19.2937 89.7778 19.2937Z" fill="#DCF0E3"/>
<path d="M96.6337 16.3903L99.6089 16.7748L96.6337 16.3903ZM96.5623 16.5333L98.6573 18.6805L96.5623 16.5333ZM80.1471 8.33706L77.1718 7.95257L80.1471 8.33706ZM80.2185 8.19405L78.1234 6.04679L80.2185 8.19405ZM83.0666 9.59163C83.0666 13.2904 86.0687 16.2937 89.7778 16.2937V22.2937C82.7602 22.2937 77.0666 16.6094 77.0666 9.59163H83.0666ZM83.1223 8.72156C83.0857 9.00507 83.0666 9.29538 83.0666 9.59163H77.0666C77.0666 9.03761 77.1023 8.49044 77.1718 7.95257L83.1223 8.72156ZM87.003 8.43362C85.1766 8.43362 83.5261 9.15826 82.3136 10.3413L78.1234 6.04679C80.4119 3.814 83.5494 2.43362 87.003 2.43362V8.43362ZM93.7141 15.1357C93.7141 11.4369 90.7121 8.43362 87.003 8.43362V2.43362C94.0205 2.43362 99.7141 8.1179 99.7141 15.1357H93.7141ZM93.6584 16.0058C93.695 15.7222 93.7141 15.4319 93.7141 15.1357H99.7141C99.7141 15.6897 99.6784 16.2369 99.6089 16.7748L93.6584 16.0058ZM89.7778 16.2937C91.6042 16.2937 93.2547 15.5691 94.4672 14.386L98.6573 18.6805C96.3689 20.9133 93.2314 22.2937 89.7778 22.2937V16.2937ZM99.6089 16.7748C99.5153 17.4991 99.18 18.1706 98.6573 18.6805L94.4672 14.386C94.023 14.8194 93.738 15.3901 93.6584 16.0058L99.6089 16.7748ZM77.1718 7.95257C77.2654 7.22818 77.6008 6.55673 78.1234 6.04679L82.3136 10.3413C82.7577 9.90793 83.0428 9.33724 83.1223 8.72156L77.1718 7.95257Z" fill="#4FB573" mask="url(#path-23-inside-6)"/>
<path d="M130.57 6.94403L130.57 58.5841" stroke="#4FB573" stroke-width="3" stroke-linecap="round"/>
<mask id="path-26-inside-7" fill="white">
<path fill-rule="evenodd" clip-rule="evenodd" d="M136.343 47.496C141.706 47.496 146.054 43.1523 146.054 37.794C146.054 37.3689 146.027 36.9502 145.973 36.5396C145.966 36.4852 145.941 36.4348 145.902 36.3966C144.152 34.6885 141.758 33.6359 139.117 33.6359C133.754 33.6359 129.406 37.9797 129.406 43.338C129.406 43.7631 129.434 44.1818 129.487 44.5924C129.494 44.6467 129.519 44.6971 129.558 44.7354C131.309 46.4434 133.703 47.496 136.343 47.496Z"/>
</mask>
<path fill-rule="evenodd" clip-rule="evenodd" d="M136.343 47.496C141.706 47.496 146.054 43.1523 146.054 37.794C146.054 37.3689 146.027 36.9502 145.973 36.5396C145.966 36.4852 145.941 36.4348 145.902 36.3966C144.152 34.6885 141.758 33.6359 139.117 33.6359C133.754 33.6359 129.406 37.9797 129.406 43.338C129.406 43.7631 129.434 44.1818 129.487 44.5924C129.494 44.6467 129.519 44.6971 129.558 44.7354C131.309 46.4434 133.703 47.496 136.343 47.496Z" fill="#DCF0E3"/>
<path d="M129.558 44.7354L127.463 46.8826L129.558 44.7354ZM145.973 36.5396L148.949 36.1551L145.973 36.5396ZM145.902 36.3966L147.997 34.2494L145.902 36.3966ZM143.054 37.794C143.054 41.4928 140.052 44.496 136.343 44.496V50.496C143.36 50.496 149.054 44.8118 149.054 37.794H143.054ZM142.998 36.924C143.035 37.2075 143.054 37.4978 143.054 37.794H149.054C149.054 37.24 149.018 36.6929 148.949 36.1551L142.998 36.924ZM139.117 36.6359C140.944 36.6359 142.594 37.3606 143.807 38.5438L147.997 34.2494C145.709 32.0164 142.571 30.6359 139.117 30.6359V36.6359ZM132.406 43.338C132.406 39.6392 135.408 36.6359 139.117 36.6359V30.6359C132.1 30.6359 126.406 36.3202 126.406 43.338H132.406ZM132.462 44.208C132.425 43.9245 132.406 43.6342 132.406 43.338H126.406C126.406 43.8919 126.442 44.439 126.511 44.9768L132.462 44.208ZM136.343 44.496C134.516 44.496 132.866 43.7713 131.653 42.5882L127.463 46.8826C129.751 49.1155 132.889 50.496 136.343 50.496V44.496ZM126.511 44.9768C126.605 45.7012 126.94 46.3727 127.463 46.8826L131.653 42.5882C132.097 43.0216 132.382 43.5923 132.462 44.208L126.511 44.9768ZM148.949 36.1551C148.855 35.4308 148.52 34.7593 147.997 34.2494L143.807 38.5438C143.363 38.1104 143.078 37.5397 142.998 36.924L148.949 36.1551Z" fill="#4FB573" mask="url(#path-26-inside-7)"/>
<mask id="path-28-inside-8" fill="white">
<path fill-rule="evenodd" clip-rule="evenodd" d="M136.343 30.8638C141.706 30.8638 146.054 26.52 146.054 21.1617C146.054 20.7367 146.027 20.318 145.973 19.9074C145.966 19.853 145.941 19.8027 145.902 19.7644C144.152 18.0563 141.758 17.0037 139.117 17.0037C133.754 17.0037 129.406 21.3475 129.406 26.7058C129.406 27.1308 129.434 27.5495 129.487 27.9601C129.494 28.0145 129.519 28.0649 129.558 28.1032C131.309 29.8112 133.703 30.8638 136.343 30.8638Z"/>
</mask>
<path fill-rule="evenodd" clip-rule="evenodd" d="M136.343 30.8638C141.706 30.8638 146.054 26.52 146.054 21.1617C146.054 20.7367 146.027 20.318 145.973 19.9074C145.966 19.853 145.941 19.8027 145.902 19.7644C144.152 18.0563 141.758 17.0037 139.117 17.0037C133.754 17.0037 129.406 21.3475 129.406 26.7058C129.406 27.1308 129.434 27.5495 129.487 27.9601C129.494 28.0145 129.519 28.0649 129.558 28.1032C131.309 29.8112 133.703 30.8638 136.343 30.8638Z" fill="#DCF0E3"/>
<path d="M129.487 27.9601L126.511 28.3446L129.487 27.9601ZM129.558 28.1032L131.653 25.956L129.558 28.1032ZM145.973 19.9074L142.998 20.2918L145.973 19.9074ZM145.902 19.7644L143.807 21.9116L145.902 19.7644ZM143.054 21.1617C143.054 24.8605 140.052 27.8638 136.343 27.8638V33.8638C143.36 33.8638 149.054 28.1795 149.054 21.1617H143.054ZM142.998 20.2918C143.035 20.5753 143.054 20.8655 143.054 21.1617H149.054C149.054 20.6078 149.018 20.0607 148.949 19.523L142.998 20.2918ZM139.117 20.0037C140.944 20.0037 142.594 20.7284 143.807 21.9116L147.997 17.6172C145.709 15.3842 142.571 14.0037 139.117 14.0037V20.0037ZM132.406 26.7058C132.406 23.007 135.408 20.0037 139.117 20.0037V14.0037C132.1 14.0037 126.406 19.688 126.406 26.7058H132.406ZM132.462 27.5757C132.425 27.2922 132.406 27.002 132.406 26.7058H126.406C126.406 27.2597 126.442 27.8068 126.511 28.3446L132.462 27.5757ZM136.343 27.8638C134.516 27.8638 132.866 27.1391 131.653 25.956L127.463 30.2504C129.751 32.4833 132.889 33.8638 136.343 33.8638V27.8638ZM126.511 28.3446C126.605 29.069 126.94 29.7404 127.463 30.2504L131.653 25.956C132.097 26.3894 132.382 26.96 132.462 27.5757L126.511 28.3446ZM148.949 19.523C148.855 18.7986 148.52 18.1271 147.997 17.6172L143.807 21.9116C143.363 21.4782 143.078 20.9075 142.998 20.2918L148.949 19.523Z" fill="#4FB573" mask="url(#path-28-inside-8)"/>
<mask id="path-30-inside-9" fill="white">
<path fill-rule="evenodd" clip-rule="evenodd" d="M136.343 14.2317C141.706 14.2317 146.054 9.88798 146.054 4.52968C146.054 4.10463 146.027 3.68596 145.973 3.27534C145.966 3.22099 145.941 3.1706 145.902 3.13233C144.152 1.42427 141.758 0.371674 139.117 0.371674C133.754 0.371674 129.406 4.71544 129.406 10.0737C129.406 10.4988 129.434 10.9175 129.487 11.3281C129.494 11.3825 129.519 11.4328 129.558 11.4711C131.309 13.1792 133.703 14.2317 136.343 14.2317Z"/>
</mask>
<path fill-rule="evenodd" clip-rule="evenodd" d="M136.343 14.2317C141.706 14.2317 146.054 9.88798 146.054 4.52968C146.054 4.10463 146.027 3.68596 145.973 3.27534C145.966 3.22099 145.941 3.1706 145.902 3.13233C144.152 1.42427 141.758 0.371674 139.117 0.371674C133.754 0.371674 129.406 4.71544 129.406 10.0737C129.406 10.4988 129.434 10.9175 129.487 11.3281C129.494 11.3825 129.519 11.4328 129.558 11.4711C131.309 13.1792 133.703 14.2317 136.343 14.2317Z" fill="#DCF0E3"/>
<path d="M129.558 11.4711L131.653 9.32391L129.558 11.4711ZM145.973 3.27534L148.949 2.89092L145.973 3.27534ZM145.902 3.13233L147.997 0.985136L145.902 3.13233ZM143.054 4.52968C143.054 8.22849 140.052 11.2317 136.343 11.2317V17.2317C143.36 17.2317 149.054 11.5475 149.054 4.52968H143.054ZM142.998 3.65976C143.035 3.94323 143.054 4.23349 143.054 4.52968H149.054C149.054 3.97576 149.018 3.42869 148.949 2.89092L142.998 3.65976ZM139.117 3.37167C140.944 3.37167 142.594 4.09637 143.807 5.27952L147.997 0.985136C145.709 -1.24782 142.571 -2.62833 139.117 -2.62833V3.37167ZM132.406 10.0737C132.406 6.37492 135.408 3.37167 139.117 3.37167V-2.62833C132.1 -2.62833 126.406 3.05595 126.406 10.0737H132.406ZM132.462 10.9437C132.425 10.6602 132.406 10.3699 132.406 10.0737H126.406C126.406 10.6277 126.442 11.1747 126.511 11.7125L132.462 10.9437ZM136.343 11.2317C134.516 11.2317 132.866 10.5071 131.653 9.32391L127.463 13.6183C129.751 15.8513 132.889 17.2317 136.343 17.2317V11.2317ZM126.511 11.7125C126.605 12.4369 126.94 13.1084 127.463 13.6183L131.653 9.32391C132.097 9.75731 132.382 10.328 132.462 10.9437L126.511 11.7125ZM148.949 2.89092C148.855 2.16654 148.52 1.49508 147.997 0.985136L143.807 5.27952C143.363 4.84612 143.078 4.27543 142.998 3.65976L148.949 2.89092Z" fill="#4FB573" mask="url(#path-30-inside-9)"/>
<mask id="path-32-inside-10" fill="white">
<path fill-rule="evenodd" clip-rule="evenodd" d="M125.245 47.496C119.881 47.496 115.533 43.1523 115.533 37.794C115.533 37.3688 115.561 36.9501 115.614 36.5394C115.621 36.485 115.646 36.4346 115.685 36.3963C117.436 34.6884 119.83 33.6359 122.47 33.6359C127.833 33.6359 132.181 37.9797 132.181 43.338C132.181 43.7631 132.154 44.1819 132.1 44.5926C132.093 44.6469 132.068 44.6973 132.029 44.7356C130.279 46.4435 127.885 47.496 125.245 47.496Z"/>
</mask>
<path fill-rule="evenodd" clip-rule="evenodd" d="M125.245 47.496C119.881 47.496 115.533 43.1523 115.533 37.794C115.533 37.3688 115.561 36.9501 115.614 36.5394C115.621 36.485 115.646 36.4346 115.685 36.3963C117.436 34.6884 119.83 33.6359 122.47 33.6359C127.833 33.6359 132.181 37.9797 132.181 43.338C132.181 43.7631 132.154 44.1819 132.1 44.5926C132.093 44.6469 132.068 44.6973 132.029 44.7356C130.279 46.4435 127.885 47.496 125.245 47.496Z" fill="#DCF0E3"/>
<path d="M132.029 44.7356L129.934 42.5883L132.029 44.7356ZM115.614 36.5394L118.589 36.9239L115.614 36.5394ZM115.685 36.3963L117.78 38.5436L115.685 36.3963ZM118.533 37.794C118.533 41.4928 121.535 44.496 125.245 44.496V50.496C118.227 50.496 112.533 44.8118 112.533 37.794H118.533ZM118.589 36.9239C118.553 37.2074 118.533 37.4977 118.533 37.794H112.533C112.533 37.2399 112.569 36.6927 112.639 36.1548L118.589 36.9239ZM122.47 36.6359C120.643 36.6359 118.993 37.3606 117.78 38.5436L113.59 34.2491C115.879 32.0163 119.016 30.6359 122.47 30.6359V36.6359ZM129.181 43.338C129.181 39.6392 126.179 36.6359 122.47 36.6359V30.6359C129.487 30.6359 135.181 36.3202 135.181 43.338H129.181ZM129.125 44.2081C129.162 43.9246 129.181 43.6342 129.181 43.338H135.181C135.181 43.892 135.145 44.4392 135.076 44.9771L129.125 44.2081ZM125.245 44.496C127.071 44.496 128.721 43.7714 129.934 42.5883L134.124 46.8829C131.836 49.1157 128.698 50.496 125.245 50.496V44.496ZM135.076 44.9771C134.982 45.7015 134.647 46.3729 134.124 46.8829L129.934 42.5883C129.49 43.0217 129.205 43.5924 129.125 44.2081L135.076 44.9771ZM112.639 36.1548C112.732 35.4305 113.068 34.759 113.59 34.2491L117.78 38.5436C118.225 38.1102 118.51 37.5395 118.589 36.9239L112.639 36.1548Z" fill="#4FB573" mask="url(#path-32-inside-10)"/>
<mask id="path-34-inside-11" fill="white">
<path fill-rule="evenodd" clip-rule="evenodd" d="M125.245 30.8638C119.881 30.8638 115.533 26.52 115.533 21.1617C115.533 20.7366 115.561 20.3178 115.614 19.9072C115.621 19.8528 115.646 19.8024 115.685 19.7641C117.436 18.0562 119.83 17.0037 122.47 17.0037C127.833 17.0037 132.181 21.3475 132.181 26.7058C132.181 27.1309 132.154 27.5497 132.1 27.9604C132.093 28.0147 132.068 28.0651 132.029 28.1034C130.279 29.8113 127.885 30.8638 125.245 30.8638Z"/>
</mask>
<path fill-rule="evenodd" clip-rule="evenodd" d="M125.245 30.8638C119.881 30.8638 115.533 26.52 115.533 21.1617C115.533 20.7366 115.561 20.3178 115.614 19.9072C115.621 19.8528 115.646 19.8024 115.685 19.7641C117.436 18.0562 119.83 17.0037 122.47 17.0037C127.833 17.0037 132.181 21.3475 132.181 26.7058C132.181 27.1309 132.154 27.5497 132.1 27.9604C132.093 28.0147 132.068 28.0651 132.029 28.1034C130.279 29.8113 127.885 30.8638 125.245 30.8638Z" fill="#DCF0E3"/>
<path d="M132.1 27.9604L135.076 28.3448L132.1 27.9604ZM132.029 28.1034L129.934 25.9561L132.029 28.1034ZM115.614 19.9072L112.639 19.5227L115.614 19.9072ZM115.685 19.7641L113.59 17.6169L115.685 19.7641ZM118.533 21.1617C118.533 24.8605 121.535 27.8638 125.245 27.8638V33.8638C118.227 33.8638 112.533 28.1795 112.533 21.1617H118.533ZM118.589 20.2916C118.553 20.5752 118.533 20.8655 118.533 21.1617H112.533C112.533 20.6077 112.569 20.0605 112.639 19.5227L118.589 20.2916ZM122.47 20.0037C120.643 20.0037 118.993 20.7284 117.78 21.9114L113.59 17.6169C115.879 15.3841 119.016 14.0037 122.47 14.0037V20.0037ZM129.181 26.7058C129.181 23.007 126.179 20.0037 122.47 20.0037V14.0037C129.487 14.0037 135.181 19.688 135.181 26.7058H129.181ZM129.125 27.5759C129.162 27.2923 129.181 27.002 129.181 26.7058H135.181C135.181 27.2598 135.145 27.807 135.076 28.3448L129.125 27.5759ZM125.245 27.8638C127.071 27.8638 128.721 27.1392 129.934 25.9561L134.124 30.2506C131.836 32.4834 128.698 33.8638 125.245 33.8638V27.8638ZM135.076 28.3448C134.982 29.0692 134.647 29.7407 134.124 30.2506L129.934 25.9561C129.49 26.3895 129.205 26.9602 129.125 27.5759L135.076 28.3448ZM112.639 19.5227C112.732 18.7983 113.068 18.1268 113.59 17.6169L117.78 21.9114C118.225 21.478 118.51 20.9073 118.589 20.2916L112.639 19.5227Z" fill="#4FB573" mask="url(#path-34-inside-11)"/>
<mask id="path-36-inside-12" fill="white">
<path fill-rule="evenodd" clip-rule="evenodd" d="M125.245 14.2317C119.881 14.2317 115.533 9.88798 115.533 4.52968C115.533 4.10455 115.561 3.6858 115.614 3.2751C115.621 3.22075 115.646 3.17037 115.685 3.1321C117.436 1.42418 119.83 0.371674 122.47 0.371674C127.833 0.371674 132.181 4.71544 132.181 10.0737C132.181 10.4989 132.154 10.9176 132.1 11.3283C132.093 11.3827 132.068 11.433 132.029 11.4713C130.279 13.1792 127.885 14.2317 125.245 14.2317Z"/>
</mask>
<path fill-rule="evenodd" clip-rule="evenodd" d="M125.245 14.2317C119.881 14.2317 115.533 9.88798 115.533 4.52968C115.533 4.10455 115.561 3.6858 115.614 3.2751C115.621 3.22075 115.646 3.17037 115.685 3.1321C117.436 1.42418 119.83 0.371674 122.47 0.371674C127.833 0.371674 132.181 4.71544 132.181 10.0737C132.181 10.4989 132.154 10.9176 132.1 11.3283C132.093 11.3827 132.068 11.433 132.029 11.4713C130.279 13.1792 127.885 14.2317 125.245 14.2317Z" fill="#DCF0E3"/>
<path d="M132.1 11.3283L135.076 11.7128L132.1 11.3283ZM132.029 11.4713L129.934 9.32406L132.029 11.4713ZM115.614 3.2751L118.589 3.6596L115.614 3.2751ZM115.685 3.1321L117.78 5.27936L115.685 3.1321ZM118.533 4.52968C118.533 8.22849 121.535 11.2317 125.245 11.2317V17.2317C118.227 17.2317 112.533 11.5475 112.533 4.52968H118.533ZM118.589 3.6596C118.553 3.94312 118.533 4.23344 118.533 4.52968H112.533C112.533 3.97565 112.569 3.42848 112.639 2.89061L118.589 3.6596ZM122.47 3.37167C120.643 3.37167 118.993 4.0963 117.78 5.27936L113.59 0.984831C115.879 -1.24795 119.016 -2.62833 122.47 -2.62833V3.37167ZM129.181 10.0737C129.181 6.37493 126.179 3.37167 122.47 3.37167V-2.62833C129.487 -2.62833 135.181 3.05594 135.181 10.0737H129.181ZM129.125 10.9438C129.162 10.6603 129.181 10.37 129.181 10.0737H135.181C135.181 10.6278 135.145 11.1749 135.076 11.7128L129.125 10.9438ZM125.245 11.2317C127.071 11.2317 128.721 10.5071 129.934 9.32406L134.124 13.6186C131.836 15.8514 128.698 17.2317 125.245 17.2317V11.2317ZM135.076 11.7128C134.982 12.4372 134.647 13.1086 134.124 13.6186L129.934 9.32406C129.49 9.75744 129.205 10.3281 129.125 10.9438L135.076 11.7128ZM112.639 2.89061C112.732 2.16623 113.068 1.49477 113.59 0.984831L117.78 5.27936C118.225 4.84597 118.51 4.27527 118.589 3.6596L112.639 2.89061Z" fill="#4FB573" mask="url(#path-36-inside-12)"/>
</svg>
