<svg width="171" height="120" viewBox="0 0 171 120" fill="none" xmlns="http://www.w3.org/2000/svg">
<g clip-path="url(#clip0)">
<path d="M168.678 117.843L168.678 22.2651L2.29504 22.2651L2.29504 117.843L168.678 117.843Z" fill="#EFEFEF"/>
<path d="M82.3448 97.3869C96.7956 97.3869 108.51 85.9128 108.51 71.7588C108.51 57.6048 96.7956 46.1306 82.3448 46.1306C67.8939 46.1306 56.1791 57.6048 56.1791 71.7588C56.1791 85.9128 67.8939 97.3869 82.3448 97.3869Z" fill="white"/>
<path fill-rule="evenodd" clip-rule="evenodd" d="M82.3448 47.7285C68.6013 47.7285 57.6791 58.6108 57.6791 71.7588C57.6791 84.9067 68.6013 95.7891 82.3448 95.7891C96.0882 95.7891 107.01 84.9067 107.01 71.7588C107.01 58.6108 96.0882 47.7285 82.3448 47.7285ZM54.6791 71.7588C54.6791 56.5987 67.1865 44.5328 82.3448 44.5328C97.503 44.5328 110.01 56.5987 110.01 71.7588C110.01 86.9189 97.503 98.9848 82.3448 98.9848C67.1865 98.9848 54.6791 86.9189 54.6791 71.7588Z" fill="#D2D5D9"/>
<path d="M3.38614 116.382V92.5628L22.0099 99.196L28.3204 116.683L3.38614 116.382Z" fill="white"/>
<path d="M167.922 116.382V92.5628L149.144 99.196L142.987 116.683L167.922 116.382Z" fill="white"/>
<path d="M3.38614 25.0251V48.8442L22.0099 42.3618L28.3204 24.7236L3.38614 25.0251Z" fill="white"/>
<path d="M167.922 25.0251V48.8442L149.144 42.3618L142.987 24.7236L167.922 25.0251Z" fill="white"/>
<path fill-rule="evenodd" clip-rule="evenodd" d="M142.372 21.6986C142.924 21.6986 143.372 22.1755 143.372 22.7638C143.372 36.264 154.541 47.3267 168.537 47.3267C169.09 47.3267 169.537 47.8037 169.537 48.392C169.537 48.9803 169.09 49.4572 168.537 49.4572C153.598 49.4572 141.372 37.6054 141.372 22.7638C141.372 22.1755 141.819 21.6986 142.372 21.6986Z" fill="#D2D5D9"/>
<path fill-rule="evenodd" clip-rule="evenodd" d="M28.7822 21.6986C29.3345 21.6986 29.7822 22.1755 29.7822 22.7638C29.7822 37.6054 17.5562 49.4572 2.61658 49.4572C2.06429 49.4572 1.61658 48.9803 1.61658 48.392C1.61658 47.8037 2.06429 47.3267 2.61658 47.3267C16.613 47.3267 27.7822 36.264 27.7822 22.7638C27.7822 22.1755 28.2299 21.6986 28.7822 21.6986Z" fill="#D2D5D9"/>
<path fill-rule="evenodd" clip-rule="evenodd" d="M141.372 117.889C141.372 103.048 153.598 91.1961 168.537 91.1961V93.3265C154.541 93.3265 143.372 104.389 143.372 117.889H141.372Z" fill="#D2D5D9"/>
<path fill-rule="evenodd" clip-rule="evenodd" d="M2.61658 91.1961C17.5562 91.1961 29.7822 103.048 29.7822 117.889H27.7822C27.7822 104.389 16.613 93.3265 2.61658 93.3265V91.1961Z" fill="#D2D5D9"/>
<path fill-rule="evenodd" clip-rule="evenodd" d="M168.678 20.6673C169.506 20.6673 170.178 21.3827 170.178 22.2651L170.178 117.843C170.178 118.726 169.506 119.441 168.678 119.441L2.29504 119.441C1.46661 119.441 0.795044 118.726 0.795044 117.843L0.795044 22.2651C0.795044 21.3827 1.46661 20.6673 2.29504 20.6673L168.678 20.6673ZM167.178 23.863L3.79504 23.863L3.79504 116.245L167.178 116.245L167.178 23.863Z" fill="#D2D5D9"/>
<mask id="mask0" mask-type="alpha" maskUnits="userSpaceOnUse" x="-8" y="9" width="66" height="121">
<path d="M-8 9.67743H58V129.677H-8V9.67743Z" fill="#C4C4C4"/>
</mask>
<g mask="url(#mask0)">
<path d="M168.678 117.843L168.678 22.2651L2.29504 22.2651L2.29504 117.843L168.678 117.843Z" fill="#F2B5A8"/>
<path d="M82.3448 97.3869C96.7956 97.3869 108.51 85.9128 108.51 71.7588C108.51 57.6048 96.7956 46.1306 82.3448 46.1306C67.8939 46.1306 56.1791 57.6048 56.1791 71.7588C56.1791 85.9128 67.8939 97.3869 82.3448 97.3869Z" fill="white"/>
<path fill-rule="evenodd" clip-rule="evenodd" d="M82.3448 47.7285C68.6013 47.7285 57.6791 58.6108 57.6791 71.7588C57.6791 84.9067 68.6013 95.7891 82.3448 95.7891C96.0882 95.7891 107.01 84.9067 107.01 71.7588C107.01 58.6108 96.0882 47.7285 82.3448 47.7285ZM54.6791 71.7588C54.6791 56.5987 67.1865 44.5328 82.3448 44.5328C97.503 44.5328 110.01 56.5987 110.01 71.7588C110.01 86.9189 97.503 98.9848 82.3448 98.9848C67.1865 98.9848 54.6791 86.9189 54.6791 71.7588Z" fill="#DE4526"/>
<path d="M3.38614 116.382V92.5628L22.0099 99.196L28.3204 116.683L3.38614 116.382Z" fill="white"/>
<path d="M3.38614 25.0251V48.8442L22.0099 42.3618L28.3204 24.7236L3.38614 25.0251Z" fill="white"/>
<path fill-rule="evenodd" clip-rule="evenodd" d="M28.7822 21.6986C29.3345 21.6986 29.7822 22.1755 29.7822 22.7638C29.7822 37.6054 17.5562 49.4572 2.61658 49.4572C2.06429 49.4572 1.61658 48.9803 1.61658 48.392C1.61658 47.8037 2.06429 47.3267 2.61658 47.3267C16.613 47.3267 27.7822 36.264 27.7822 22.7638C27.7822 22.1755 28.2299 21.6986 28.7822 21.6986Z" fill="#DE4526"/>
<path fill-rule="evenodd" clip-rule="evenodd" d="M2.61658 91.1961C17.5562 91.1961 29.7822 103.048 29.7822 117.889H27.7822C27.7822 104.389 16.613 93.3265 2.61658 93.3265V91.1961Z" fill="#DE4526"/>
<path fill-rule="evenodd" clip-rule="evenodd" d="M168.678 20.6673C169.506 20.6673 170.178 21.3827 170.178 22.2651L170.178 117.843C170.178 118.726 169.506 119.441 168.678 119.441L2.29504 119.441C1.46661 119.441 0.795044 118.726 0.795044 117.843L0.795044 22.2651C0.795044 21.3827 1.46661 20.6673 2.29504 20.6673L168.678 20.6673ZM167.178 23.863L3.79504 23.863L3.79504 116.245L167.178 116.245L167.178 23.863Z" fill="#DE4526"/>
</g>
</g>
<defs>
<clipPath id="clip0">
<rect width="171" height="120" fill="white"/>
</clipPath>
</defs>
</svg>
