<svg width="124" height="64" viewBox="0 0 124 64" fill="none" xmlns="http://www.w3.org/2000/svg">
<path d="M16 7L16 62" stroke="#4FB573" stroke-width="3" stroke-linecap="round"/>
<path d="M62 7L62 62" stroke="#4FB573" stroke-width="3" stroke-linecap="round"/>
<path d="M108 7L108 62" stroke="#4FB573" stroke-width="3" stroke-linecap="round"/>
<mask id="path-4-inside-1" fill="white">
<path fill-rule="evenodd" clip-rule="evenodd" d="M22.1427 50.1905C27.8496 50.1905 32.476 45.5641 32.476 39.8572C32.476 39.4025 32.4466 38.9547 32.3897 38.5156C32.3827 38.4613 32.3575 38.4109 32.3184 38.3726C30.4554 36.5512 27.9063 35.4286 25.0951 35.4286C19.3881 35.4286 14.7617 40.055 14.7617 45.7619C14.7617 46.2166 14.7911 46.6643 14.848 47.1035C14.855 47.1578 14.8802 47.2081 14.9193 47.2464C16.7823 49.0679 19.3314 50.1905 22.1427 50.1905Z"/>
</mask>
<path fill-rule="evenodd" clip-rule="evenodd" d="M22.1427 50.1905C27.8496 50.1905 32.476 45.5641 32.476 39.8572C32.476 39.4025 32.4466 38.9547 32.3897 38.5156C32.3827 38.4613 32.3575 38.4109 32.3184 38.3726C30.4554 36.5512 27.9063 35.4286 25.0951 35.4286C19.3881 35.4286 14.7617 40.055 14.7617 45.7619C14.7617 46.2166 14.7911 46.6643 14.848 47.1035C14.855 47.1578 14.8802 47.2081 14.9193 47.2464C16.7823 49.0679 19.3314 50.1905 22.1427 50.1905Z" fill="#DCF0E3"/>
<path d="M14.848 47.1035L11.8729 47.4892L14.848 47.1035ZM14.9193 47.2464L17.0166 45.1013L14.9193 47.2464ZM32.3897 38.5156L35.3648 38.1299L32.3897 38.5156ZM32.3184 38.3726L30.2211 40.5178L32.3184 38.3726ZM29.476 39.8572C29.476 43.9072 26.1928 47.1905 22.1427 47.1905V53.1905C29.5065 53.1905 35.476 47.221 35.476 39.8572H29.476ZM29.4146 38.9013C29.455 39.2129 29.476 39.5318 29.476 39.8572H35.476C35.476 39.2732 35.4383 38.6966 35.3648 38.1299L29.4146 38.9013ZM25.0951 38.4286C27.0912 38.4286 28.896 39.2222 30.2211 40.5178L34.4156 36.2275C32.0148 33.8803 28.7214 32.4286 25.0951 32.4286V38.4286ZM17.7617 45.7619C17.7617 41.7118 21.045 38.4286 25.0951 38.4286V32.4286C17.7313 32.4286 11.7617 38.3981 11.7617 45.7619H17.7617ZM17.8231 46.7178C17.7827 46.4062 17.7617 46.0873 17.7617 45.7619H11.7617C11.7617 46.3459 11.7994 46.9225 11.8729 47.4892L17.8231 46.7178ZM22.1427 47.1905C20.1465 47.1905 18.3418 46.3969 17.0166 45.1013L12.8221 49.3916C15.2229 51.7388 18.5163 53.1905 22.1427 53.1905V47.1905ZM11.8729 47.4892C11.9666 48.212 12.301 48.8821 12.8221 49.3916L17.0166 45.1013C17.4593 45.5342 17.7435 46.1036 17.8231 46.7178L11.8729 47.4892ZM35.3648 38.1299C35.2711 37.4071 34.9367 36.737 34.4156 36.2275L30.2211 40.5178C29.7784 40.0849 29.4942 39.5155 29.4146 38.9013L35.3648 38.1299Z" fill="#4FB573" mask="url(#path-4-inside-1)"/>
<mask id="path-6-inside-2" fill="white">
<path fill-rule="evenodd" clip-rule="evenodd" d="M67.9049 50.1905C73.6118 50.1905 78.2382 45.5641 78.2382 39.8572C78.2382 39.4025 78.2089 38.9547 78.1519 38.5156C78.1449 38.4613 78.1198 38.4109 78.0806 38.3726C76.2176 36.5512 73.6685 35.4286 70.8573 35.4286C65.1503 35.4286 60.5239 40.055 60.5239 45.7619C60.5239 46.2166 60.5533 46.6643 60.6102 47.1035C60.6173 47.1578 60.6424 47.2081 60.6816 47.2464C62.5446 49.0679 65.0936 50.1905 67.9049 50.1905Z"/>
</mask>
<path fill-rule="evenodd" clip-rule="evenodd" d="M67.9049 50.1905C73.6118 50.1905 78.2382 45.5641 78.2382 39.8572C78.2382 39.4025 78.2089 38.9547 78.1519 38.5156C78.1449 38.4613 78.1198 38.4109 78.0806 38.3726C76.2176 36.5512 73.6685 35.4286 70.8573 35.4286C65.1503 35.4286 60.5239 40.055 60.5239 45.7619C60.5239 46.2166 60.5533 46.6643 60.6102 47.1035C60.6173 47.1578 60.6424 47.2081 60.6816 47.2464C62.5446 49.0679 65.0936 50.1905 67.9049 50.1905Z" fill="white"/>
<path d="M60.6102 47.1035L57.6351 47.4892L60.6102 47.1035ZM60.6816 47.2464L62.7788 45.1013L60.6816 47.2464ZM78.1519 38.5156L81.127 38.1299L78.1519 38.5156ZM78.0806 38.3726L75.9833 40.5178L78.0806 38.3726ZM75.2382 39.8572C75.2382 43.9072 71.955 47.1905 67.9049 47.1905V53.1905C75.2687 53.1905 81.2382 47.221 81.2382 39.8572H75.2382ZM75.1768 38.9013C75.2172 39.2129 75.2382 39.5318 75.2382 39.8572H81.2382C81.2382 39.2732 81.2005 38.6966 81.127 38.1299L75.1768 38.9013ZM70.8573 38.4286C72.8534 38.4286 74.6582 39.2222 75.9833 40.5178L80.1778 36.2275C77.777 33.8803 74.4836 32.4286 70.8573 32.4286V38.4286ZM63.5239 45.7619C63.5239 41.7118 66.8072 38.4286 70.8573 38.4286V32.4286C63.4935 32.4286 57.5239 38.3981 57.5239 45.7619H63.5239ZM63.5853 46.7178C63.5449 46.4062 63.5239 46.0873 63.5239 45.7619H57.5239C57.5239 46.3459 57.5616 46.9225 57.6351 47.4892L63.5853 46.7178ZM67.9049 47.1905C65.9087 47.1905 64.104 46.3969 62.7788 45.1013L58.5843 49.3916C60.9851 51.7388 64.2785 53.1905 67.9049 53.1905V47.1905ZM57.6351 47.4892C57.7288 48.212 58.0632 48.8821 58.5843 49.3916L62.7788 45.1013C63.2215 45.5342 63.5057 46.1036 63.5853 46.7178L57.6351 47.4892ZM81.127 38.1299C81.0333 37.4071 80.6989 36.737 80.1778 36.2275L75.9833 40.5178C75.5406 40.0849 75.2564 39.5155 75.1768 38.9013L81.127 38.1299Z" fill="#4FB573" mask="url(#path-6-inside-2)"/>
<mask id="path-8-inside-3" fill="white">
<path fill-rule="evenodd" clip-rule="evenodd" d="M113.667 50.1905C119.374 50.1905 124 45.5641 124 39.8572C124 39.4025 123.971 38.9547 123.914 38.5156C123.907 38.4613 123.881 38.4109 123.842 38.3726C121.979 36.5512 119.43 35.4286 116.619 35.4286C110.912 35.4286 106.286 40.055 106.286 45.7619C106.286 46.2166 106.315 46.6643 106.372 47.1035C106.379 47.1578 106.404 47.2081 106.443 47.2464C108.306 49.0679 110.855 50.1905 113.667 50.1905Z"/>
</mask>
<path fill-rule="evenodd" clip-rule="evenodd" d="M113.667 50.1905C119.374 50.1905 124 45.5641 124 39.8572C124 39.4025 123.971 38.9547 123.914 38.5156C123.907 38.4613 123.881 38.4109 123.842 38.3726C121.979 36.5512 119.43 35.4286 116.619 35.4286C110.912 35.4286 106.286 40.055 106.286 45.7619C106.286 46.2166 106.315 46.6643 106.372 47.1035C106.379 47.1578 106.404 47.2081 106.443 47.2464C108.306 49.0679 110.855 50.1905 113.667 50.1905Z" fill="#DCF0E3"/>
<path d="M106.443 47.2464L108.541 45.1013L106.443 47.2464ZM123.914 38.5156L126.889 38.1299L123.914 38.5156ZM123.842 38.3726L121.745 40.5178L123.842 38.3726ZM121 39.8572C121 43.9072 117.717 47.1905 113.667 47.1905V53.1905C121.03 53.1905 127 47.221 127 39.8572H121ZM120.939 38.9013C120.979 39.2129 121 39.5318 121 39.8572H127C127 39.2732 126.962 38.6966 126.889 38.1299L120.939 38.9013ZM116.619 38.4286C118.615 38.4286 120.42 39.2222 121.745 40.5178L125.94 36.2275C123.539 33.8803 120.245 32.4286 116.619 32.4286V38.4286ZM109.286 45.7619C109.286 41.7118 112.569 38.4286 116.619 38.4286V32.4286C109.255 32.4286 103.286 38.3981 103.286 45.7619H109.286ZM109.347 46.7178C109.307 46.4062 109.286 46.0873 109.286 45.7619H103.286C103.286 46.3459 103.323 46.9225 103.397 47.4892L109.347 46.7178ZM113.667 47.1905C111.67 47.1905 109.866 46.3969 108.541 45.1013L104.346 49.3916C106.747 51.7388 110.04 53.1905 113.667 53.1905V47.1905ZM103.397 47.4892C103.491 48.212 103.825 48.8821 104.346 49.3916L108.541 45.1013C108.983 45.5342 109.267 46.1036 109.347 46.7178L103.397 47.4892ZM126.889 38.1299C126.795 37.4071 126.461 36.737 125.94 36.2275L121.745 40.5178C121.302 40.0849 121.018 39.5155 120.939 38.9013L126.889 38.1299Z" fill="#4FB573" mask="url(#path-8-inside-3)"/>
<mask id="path-10-inside-4" fill="white">
<path fill-rule="evenodd" clip-rule="evenodd" d="M22.1427 32.4761C27.8496 32.4761 32.476 27.8497 32.476 22.1428C32.476 21.6882 32.4466 21.2404 32.3897 20.8013C32.3827 20.7469 32.3575 20.6966 32.3184 20.6583C30.4554 18.8369 27.9063 17.7142 25.0951 17.7142C19.3881 17.7142 14.7617 22.3406 14.7617 28.0476C14.7617 28.5022 14.7911 28.95 14.848 29.3891C14.855 29.4434 14.8802 29.4938 14.9193 29.5321C16.7823 31.3535 19.3314 32.4761 22.1427 32.4761Z"/>
</mask>
<path fill-rule="evenodd" clip-rule="evenodd" d="M22.1427 32.4761C27.8496 32.4761 32.476 27.8497 32.476 22.1428C32.476 21.6882 32.4466 21.2404 32.3897 20.8013C32.3827 20.7469 32.3575 20.6966 32.3184 20.6583C30.4554 18.8369 27.9063 17.7142 25.0951 17.7142C19.3881 17.7142 14.7617 22.3406 14.7617 28.0476C14.7617 28.5022 14.7911 28.95 14.848 29.3891C14.855 29.4434 14.8802 29.4938 14.9193 29.5321C16.7823 31.3535 19.3314 32.4761 22.1427 32.4761Z" fill="#DCF0E3"/>
<path d="M14.848 29.3891L17.8231 29.0034L14.848 29.3891ZM14.9193 29.5321L17.0166 27.387L14.9193 29.5321ZM32.3897 20.8013L35.3648 20.4156L32.3897 20.8013ZM32.3184 20.6583L34.4156 18.5132L32.3184 20.6583ZM29.476 22.1428C29.476 26.1929 26.1928 29.4761 22.1427 29.4761V35.4761C29.5065 35.4761 35.476 29.5066 35.476 22.1428H29.476ZM29.4146 21.187C29.455 21.4985 29.476 21.8175 29.476 22.1428H35.476C35.476 21.5589 35.4383 20.9823 35.3648 20.4156L29.4146 21.187ZM25.0951 20.7142C27.0912 20.7142 28.896 21.5078 30.2211 22.8034L34.4156 18.5132C32.0148 16.1659 28.7214 14.7142 25.0951 14.7142V20.7142ZM17.7617 28.0476C17.7617 23.9975 21.045 20.7142 25.0951 20.7142V14.7142C17.7313 14.7142 11.7617 20.6838 11.7617 28.0476H17.7617ZM17.8231 29.0034C17.7827 28.6919 17.7617 28.3729 17.7617 28.0476H11.7617C11.7617 28.6315 11.7994 29.2081 11.8729 29.7748L17.8231 29.0034ZM22.1427 29.4761C20.1465 29.4761 18.3418 28.6826 17.0166 27.387L12.8221 31.6772C15.2229 34.0245 18.5163 35.4761 22.1427 35.4761V29.4761ZM11.8729 29.7748C11.9666 30.4977 12.301 31.1678 12.8221 31.6772L17.0166 27.387C17.4593 27.8198 17.7435 28.3892 17.8231 29.0034L11.8729 29.7748ZM35.3648 20.4156C35.2711 19.6927 34.9367 19.0226 34.4156 18.5132L30.2211 22.8034C29.7784 22.3706 29.4942 21.8012 29.4146 21.187L35.3648 20.4156Z" fill="#4FB573" mask="url(#path-10-inside-4)"/>
<mask id="path-12-inside-5" fill="white">
<path fill-rule="evenodd" clip-rule="evenodd" d="M67.9049 32.4761C73.6118 32.4761 78.2382 27.8497 78.2382 22.1428C78.2382 21.6882 78.2089 21.2404 78.1519 20.8013C78.1449 20.7469 78.1198 20.6966 78.0806 20.6583C76.2176 18.8369 73.6685 17.7142 70.8573 17.7142C65.1503 17.7142 60.5239 22.3406 60.5239 28.0476C60.5239 28.5022 60.5533 28.95 60.6102 29.3891C60.6173 29.4434 60.6424 29.4938 60.6816 29.5321C62.5446 31.3535 65.0936 32.4761 67.9049 32.4761Z"/>
</mask>
<path fill-rule="evenodd" clip-rule="evenodd" d="M67.9049 32.4761C73.6118 32.4761 78.2382 27.8497 78.2382 22.1428C78.2382 21.6882 78.2089 21.2404 78.1519 20.8013C78.1449 20.7469 78.1198 20.6966 78.0806 20.6583C76.2176 18.8369 73.6685 17.7142 70.8573 17.7142C65.1503 17.7142 60.5239 22.3406 60.5239 28.0476C60.5239 28.5022 60.5533 28.95 60.6102 29.3891C60.6173 29.4434 60.6424 29.4938 60.6816 29.5321C62.5446 31.3535 65.0936 32.4761 67.9049 32.4761Z" fill="white"/>
<path d="M60.6102 29.3891L63.5853 29.0034L60.6102 29.3891ZM60.6816 29.5321L62.7788 27.387L60.6816 29.5321ZM78.1519 20.8013L81.127 20.4156L78.1519 20.8013ZM78.0806 20.6583L80.1778 18.5132L78.0806 20.6583ZM75.2382 22.1428C75.2382 26.1929 71.955 29.4761 67.9049 29.4761V35.4761C75.2687 35.4761 81.2382 29.5066 81.2382 22.1428H75.2382ZM75.1768 21.187C75.2172 21.4985 75.2382 21.8175 75.2382 22.1428H81.2382C81.2382 21.5589 81.2005 20.9823 81.127 20.4156L75.1768 21.187ZM70.8573 20.7142C72.8534 20.7142 74.6582 21.5078 75.9833 22.8034L80.1778 18.5132C77.777 16.1659 74.4836 14.7142 70.8573 14.7142V20.7142ZM63.5239 28.0476C63.5239 23.9975 66.8072 20.7142 70.8573 20.7142V14.7142C63.4935 14.7142 57.5239 20.6838 57.5239 28.0476H63.5239ZM63.5853 29.0034C63.5449 28.6919 63.5239 28.3729 63.5239 28.0476H57.5239C57.5239 28.6315 57.5616 29.2081 57.6351 29.7748L63.5853 29.0034ZM67.9049 29.4761C65.9087 29.4761 64.104 28.6826 62.7788 27.387L58.5843 31.6772C60.9851 34.0245 64.2785 35.4761 67.9049 35.4761V29.4761ZM57.6351 29.7748C57.7288 30.4977 58.0632 31.1678 58.5843 31.6772L62.7788 27.387C63.2215 27.8198 63.5057 28.3892 63.5853 29.0034L57.6351 29.7748ZM81.127 20.4156C81.0333 19.6927 80.6989 19.0226 80.1778 18.5132L75.9833 22.8034C75.5406 22.3706 75.2564 21.8012 75.1768 21.187L81.127 20.4156Z" fill="#4FB573" mask="url(#path-12-inside-5)"/>
<mask id="path-14-inside-6" fill="white">
<path fill-rule="evenodd" clip-rule="evenodd" d="M113.667 32.4761C119.374 32.4761 124 27.8497 124 22.1428C124 21.6882 123.971 21.2404 123.914 20.8013C123.907 20.7469 123.881 20.6966 123.842 20.6583C121.979 18.8369 119.43 17.7142 116.619 17.7142C110.912 17.7142 106.286 22.3406 106.286 28.0476C106.286 28.5022 106.315 28.95 106.372 29.3891C106.379 29.4434 106.404 29.4938 106.443 29.5321C108.306 31.3535 110.855 32.4761 113.667 32.4761Z"/>
</mask>
<path fill-rule="evenodd" clip-rule="evenodd" d="M113.667 32.4761C119.374 32.4761 124 27.8497 124 22.1428C124 21.6882 123.971 21.2404 123.914 20.8013C123.907 20.7469 123.881 20.6966 123.842 20.6583C121.979 18.8369 119.43 17.7142 116.619 17.7142C110.912 17.7142 106.286 22.3406 106.286 28.0476C106.286 28.5022 106.315 28.95 106.372 29.3891C106.379 29.4434 106.404 29.4938 106.443 29.5321C108.306 31.3535 110.855 32.4761 113.667 32.4761Z" fill="#DCF0E3"/>
<path d="M106.372 29.3891L103.397 29.7748L106.372 29.3891ZM106.443 29.5321L108.541 27.387L106.443 29.5321ZM123.914 20.8013L126.889 20.4156L123.914 20.8013ZM123.842 20.6583L125.94 18.5132L123.842 20.6583ZM121 22.1428C121 26.1929 117.717 29.4761 113.667 29.4761V35.4761C121.03 35.4761 127 29.5066 127 22.1428H121ZM120.939 21.187C120.979 21.4985 121 21.8175 121 22.1428H127C127 21.5589 126.962 20.9823 126.889 20.4156L120.939 21.187ZM116.619 20.7142C118.615 20.7142 120.42 21.5078 121.745 22.8034L125.94 18.5132C123.539 16.1659 120.245 14.7142 116.619 14.7142V20.7142ZM109.286 28.0476C109.286 23.9975 112.569 20.7142 116.619 20.7142V14.7142C109.255 14.7142 103.286 20.6838 103.286 28.0476H109.286ZM109.347 29.0034C109.307 28.6919 109.286 28.3729 109.286 28.0476H103.286C103.286 28.6315 103.323 29.2081 103.397 29.7748L109.347 29.0034ZM113.667 29.4761C111.67 29.4761 109.866 28.6826 108.541 27.387L104.346 31.6772C106.747 34.0245 110.04 35.4761 113.667 35.4761V29.4761ZM103.397 29.7748C103.491 30.4977 103.825 31.1678 104.346 31.6772L108.541 27.387C108.983 27.8198 109.267 28.3892 109.347 29.0034L103.397 29.7748ZM126.889 20.4156C126.795 19.6927 126.461 19.0226 125.94 18.5132L121.745 22.8034C121.302 22.3706 121.018 21.8012 120.939 21.187L126.889 20.4156Z" fill="#4FB573" mask="url(#path-14-inside-6)"/>
<mask id="path-16-inside-7" fill="white">
<path fill-rule="evenodd" clip-rule="evenodd" d="M22.1427 14.7619C27.8496 14.7619 32.476 10.1355 32.476 4.42857C32.476 3.97394 32.4466 3.52616 32.3897 3.08703C32.3827 3.03271 32.3575 2.98235 32.3184 2.94406C30.4554 1.12264 27.9063 0 25.0951 0C19.3881 0 14.7617 4.62639 14.7617 10.3333C14.7617 10.788 14.7911 11.2357 14.848 11.6749C14.855 11.7292 14.8802 11.7796 14.9193 11.8178C16.7823 13.6393 19.3314 14.7619 22.1427 14.7619Z"/>
</mask>
<path fill-rule="evenodd" clip-rule="evenodd" d="M22.1427 14.7619C27.8496 14.7619 32.476 10.1355 32.476 4.42857C32.476 3.97394 32.4466 3.52616 32.3897 3.08703C32.3827 3.03271 32.3575 2.98235 32.3184 2.94406C30.4554 1.12264 27.9063 0 25.0951 0C19.3881 0 14.7617 4.62639 14.7617 10.3333C14.7617 10.788 14.7911 11.2357 14.848 11.6749C14.855 11.7292 14.8802 11.7796 14.9193 11.8178C16.7823 13.6393 19.3314 14.7619 22.1427 14.7619Z" fill="#DCF0E3"/>
<path d="M14.848 11.6749L11.8729 12.0606L14.848 11.6749ZM14.9193 11.8178L17.0166 9.67272L14.9193 11.8178ZM32.3897 3.08703L35.3648 2.70134L32.3897 3.08703ZM32.3184 2.94406L30.2211 5.08918L32.3184 2.94406ZM29.476 4.42857C29.476 8.47866 26.1928 11.7619 22.1427 11.7619V17.7619C29.5065 17.7619 35.476 11.7924 35.476 4.42857H29.476ZM29.4146 3.47272C29.455 3.78428 29.476 4.10323 29.476 4.42857H35.476C35.476 3.84464 35.4383 3.26803 35.3648 2.70134L29.4146 3.47272ZM25.0951 3C27.0912 3 28.896 3.79359 30.2211 5.08918L34.4156 0.798932C32.0148 -1.54831 28.7214 -3 25.0951 -3V3ZM17.7617 10.3333C17.7617 6.28325 21.045 3 25.0951 3V-3C17.7313 -3 11.7617 2.96954 11.7617 10.3333H17.7617ZM17.8231 11.2892C17.7827 10.9776 17.7617 10.6587 17.7617 10.3333H11.7617C11.7617 10.9173 11.7994 11.4939 11.8729 12.0606L17.8231 11.2892ZM22.1427 11.7619C20.1465 11.7619 18.3418 10.9683 17.0166 9.67272L12.8221 13.963C15.2229 16.3102 18.5163 17.7619 22.1427 17.7619V11.7619ZM11.8729 12.0606C11.9666 12.7834 12.301 13.4535 12.8221 13.963L17.0166 9.67272C17.4593 10.1056 17.7435 10.675 17.8231 11.2892L11.8729 12.0606ZM35.3648 2.70134C35.2711 1.97849 34.9367 1.30837 34.4156 0.798932L30.2211 5.08918C29.7784 4.65633 29.4942 4.08693 29.4146 3.47272L35.3648 2.70134Z" fill="#4FB573" mask="url(#path-16-inside-7)"/>
<mask id="path-18-inside-8" fill="white">
<path fill-rule="evenodd" clip-rule="evenodd" d="M67.9049 14.7619C73.6118 14.7619 78.2382 10.1355 78.2382 4.42857C78.2382 3.97394 78.2089 3.52616 78.1519 3.08703C78.1449 3.03271 78.1198 2.98235 78.0806 2.94406C76.2176 1.12264 73.6685 0 70.8573 0C65.1503 0 60.5239 4.62639 60.5239 10.3333C60.5239 10.788 60.5533 11.2357 60.6102 11.6749C60.6173 11.7292 60.6424 11.7796 60.6816 11.8178C62.5446 13.6393 65.0936 14.7619 67.9049 14.7619Z"/>
</mask>
<path fill-rule="evenodd" clip-rule="evenodd" d="M67.9049 14.7619C73.6118 14.7619 78.2382 10.1355 78.2382 4.42857C78.2382 3.97394 78.2089 3.52616 78.1519 3.08703C78.1449 3.03271 78.1198 2.98235 78.0806 2.94406C76.2176 1.12264 73.6685 0 70.8573 0C65.1503 0 60.5239 4.62639 60.5239 10.3333C60.5239 10.788 60.5533 11.2357 60.6102 11.6749C60.6173 11.7292 60.6424 11.7796 60.6816 11.8178C62.5446 13.6393 65.0936 14.7619 67.9049 14.7619Z" fill="white"/>
<path d="M60.6102 11.6749L57.6351 12.0606L60.6102 11.6749ZM60.6816 11.8178L62.7788 9.67272L60.6816 11.8178ZM78.1519 3.08703L81.127 2.70134L78.1519 3.08703ZM78.0806 2.94406L75.9833 5.08918L78.0806 2.94406ZM75.2382 4.42857C75.2382 8.47866 71.955 11.7619 67.9049 11.7619V17.7619C75.2687 17.7619 81.2382 11.7924 81.2382 4.42857H75.2382ZM75.1768 3.47272C75.2172 3.78428 75.2382 4.10323 75.2382 4.42857H81.2382C81.2382 3.84464 81.2005 3.26803 81.127 2.70134L75.1768 3.47272ZM70.8573 3C72.8534 3 74.6582 3.79359 75.9833 5.08918L80.1778 0.798932C77.777 -1.54831 74.4836 -3 70.8573 -3V3ZM63.5239 10.3333C63.5239 6.28325 66.8072 3 70.8573 3V-3C63.4935 -3 57.5239 2.96954 57.5239 10.3333H63.5239ZM63.5853 11.2892C63.5449 10.9776 63.5239 10.6587 63.5239 10.3333H57.5239C57.5239 10.9173 57.5616 11.4939 57.6351 12.0606L63.5853 11.2892ZM67.9049 11.7619C65.9087 11.7619 64.104 10.9683 62.7788 9.67272L58.5843 13.963C60.9851 16.3102 64.2785 17.7619 67.9049 17.7619V11.7619ZM57.6351 12.0606C57.7288 12.7834 58.0632 13.4535 58.5843 13.963L62.7788 9.67272C63.2215 10.1056 63.5057 10.675 63.5853 11.2892L57.6351 12.0606ZM81.127 2.70134C81.0333 1.97849 80.6989 1.30837 80.1778 0.798932L75.9833 5.08918C75.5406 4.65633 75.2564 4.08693 75.1768 3.47272L81.127 2.70134Z" fill="#4FB573" mask="url(#path-18-inside-8)"/>
<mask id="path-20-inside-9" fill="white">
<path fill-rule="evenodd" clip-rule="evenodd" d="M113.667 14.7619C119.374 14.7619 124 10.1355 124 4.42857C124 3.97394 123.971 3.52616 123.914 3.08703C123.907 3.03271 123.881 2.98235 123.842 2.94406C121.979 1.12264 119.43 0 116.619 0C110.912 0 106.286 4.62639 106.286 10.3333C106.286 10.788 106.315 11.2357 106.372 11.6749C106.379 11.7292 106.404 11.7796 106.443 11.8178C108.306 13.6393 110.855 14.7619 113.667 14.7619Z"/>
</mask>
<path fill-rule="evenodd" clip-rule="evenodd" d="M113.667 14.7619C119.374 14.7619 124 10.1355 124 4.42857C124 3.97394 123.971 3.52616 123.914 3.08703C123.907 3.03271 123.881 2.98235 123.842 2.94406C121.979 1.12264 119.43 0 116.619 0C110.912 0 106.286 4.62639 106.286 10.3333C106.286 10.788 106.315 11.2357 106.372 11.6749C106.379 11.7292 106.404 11.7796 106.443 11.8178C108.306 13.6393 110.855 14.7619 113.667 14.7619Z" fill="#DCF0E3"/>
<path d="M106.443 11.8178L108.541 9.67272L106.443 11.8178ZM123.914 3.08703L126.889 2.70134L123.914 3.08703ZM123.842 2.94406L121.745 5.08918L123.842 2.94406ZM121 4.42857C121 8.47866 117.717 11.7619 113.667 11.7619V17.7619C121.03 17.7619 127 11.7924 127 4.42857H121ZM120.939 3.47272C120.979 3.78428 121 4.10323 121 4.42857H127C127 3.84464 126.962 3.26803 126.889 2.70134L120.939 3.47272ZM116.619 3C118.615 3 120.42 3.79359 121.745 5.08918L125.94 0.798932C123.539 -1.54831 120.245 -3 116.619 -3V3ZM109.286 10.3333C109.286 6.28325 112.569 3 116.619 3V-3C109.255 -3 103.286 2.96954 103.286 10.3333H109.286ZM109.347 11.2892C109.307 10.9776 109.286 10.6587 109.286 10.3333H103.286C103.286 10.9173 103.323 11.4939 103.397 12.0606L109.347 11.2892ZM113.667 11.7619C111.67 11.7619 109.866 10.9683 108.541 9.67272L104.346 13.963C106.747 16.3102 110.04 17.7619 113.667 17.7619V11.7619ZM103.397 12.0606C103.491 12.7834 103.825 13.4535 104.346 13.963L108.541 9.67272C108.983 10.1056 109.267 10.675 109.347 11.2892L103.397 12.0606ZM126.889 2.70134C126.795 1.97849 126.461 1.30837 125.94 0.798932L121.745 5.08918C121.302 4.65633 121.018 4.08693 120.939 3.47272L126.889 2.70134Z" fill="#4FB573" mask="url(#path-20-inside-9)"/>
<mask id="path-22-inside-10" fill="white">
<path fill-rule="evenodd" clip-rule="evenodd" d="M10.3334 50.1905C4.62646 50.1905 7.05719e-05 45.5641 7.05719e-05 39.8572C7.05719e-05 39.4025 0.0294304 38.9547 0.086359 38.5156C0.093401 38.4613 0.11853 38.4109 0.157696 38.3726C2.0207 36.5512 4.56976 35.4286 7.38102 35.4286C13.088 35.4286 17.7144 40.055 17.7144 45.7619C17.7144 46.2166 17.685 46.6643 17.6281 47.1035C17.621 47.1578 17.5959 47.2081 17.5567 47.2464C15.6937 49.0679 13.1447 50.1905 10.3334 50.1905Z"/>
</mask>
<path fill-rule="evenodd" clip-rule="evenodd" d="M10.3334 50.1905C4.62646 50.1905 7.05719e-05 45.5641 7.05719e-05 39.8572C7.05719e-05 39.4025 0.0294304 38.9547 0.086359 38.5156C0.093401 38.4613 0.11853 38.4109 0.157696 38.3726C2.0207 36.5512 4.56976 35.4286 7.38102 35.4286C13.088 35.4286 17.7144 40.055 17.7144 45.7619C17.7144 46.2166 17.685 46.6643 17.6281 47.1035C17.621 47.1578 17.5959 47.2081 17.5567 47.2464C15.6937 49.0679 13.1447 50.1905 10.3334 50.1905Z" fill="#DCF0E3"/>
<path d="M17.5567 47.2464L15.4595 45.1013L17.5567 47.2464ZM0.086359 38.5156L-2.88874 38.1299L0.086359 38.5156ZM0.157696 38.3726L2.25494 40.5178L0.157696 38.3726ZM3.00007 39.8572C3.00007 43.9072 6.28332 47.1905 10.3334 47.1905V53.1905C2.96961 53.1905 -2.99993 47.221 -2.99993 39.8572H3.00007ZM3.06146 38.9013C3.02107 39.2129 3.00007 39.5318 3.00007 39.8572H-2.99993C-2.99993 39.2732 -2.96221 38.6966 -2.88874 38.1299L3.06146 38.9013ZM7.38102 38.4286C5.38488 38.4286 3.58011 39.2222 2.25494 40.5178L-1.93955 36.2275C0.461281 33.8803 3.75464 32.4286 7.38102 32.4286V38.4286ZM14.7144 45.7619C14.7144 41.7118 11.4311 38.4286 7.38102 38.4286V32.4286C14.7448 32.4286 20.7144 38.3981 20.7144 45.7619H14.7144ZM14.653 46.7178C14.6934 46.4062 14.7144 46.0873 14.7144 45.7619H20.7144C20.7144 46.3459 20.6766 46.9225 20.6032 47.4892L14.653 46.7178ZM10.3334 47.1905C12.3295 47.1905 14.1343 46.3969 15.4595 45.1013L19.654 49.3916C17.2531 51.7388 13.9598 53.1905 10.3334 53.1905V47.1905ZM20.6032 47.4892C20.5095 48.212 20.175 48.8821 19.654 49.3916L15.4595 45.1013C15.0168 45.5342 14.7326 46.1036 14.653 46.7178L20.6032 47.4892ZM-2.88874 38.1299C-2.79503 37.4071 -2.46062 36.737 -1.93955 36.2275L2.25494 40.5178C2.69767 40.0849 2.98184 39.5155 3.06146 38.9013L-2.88874 38.1299Z" fill="#4FB573" mask="url(#path-22-inside-10)"/>
<mask id="path-24-inside-11" fill="white">
<path fill-rule="evenodd" clip-rule="evenodd" d="M56.0951 50.1905C50.3882 50.1905 45.7618 45.5641 45.7618 39.8572C45.7618 39.4025 45.7911 38.9547 45.8481 38.5156C45.8551 38.4613 45.8802 38.4109 45.9194 38.3726C47.7824 36.5512 50.3315 35.4286 53.1427 35.4286C58.8497 35.4286 63.4761 40.055 63.4761 45.7619C63.4761 46.2166 63.4467 46.6643 63.3898 47.1035C63.3827 47.1578 63.3576 47.2081 63.3184 47.2464C61.4554 49.0679 58.9064 50.1905 56.0951 50.1905Z"/>
</mask>
<path fill-rule="evenodd" clip-rule="evenodd" d="M56.0951 50.1905C50.3882 50.1905 45.7618 45.5641 45.7618 39.8572C45.7618 39.4025 45.7911 38.9547 45.8481 38.5156C45.8551 38.4613 45.8802 38.4109 45.9194 38.3726C47.7824 36.5512 50.3315 35.4286 53.1427 35.4286C58.8497 35.4286 63.4761 40.055 63.4761 45.7619C63.4761 46.2166 63.4467 46.6643 63.3898 47.1035C63.3827 47.1578 63.3576 47.2081 63.3184 47.2464C61.4554 49.0679 58.9064 50.1905 56.0951 50.1905Z" fill="white"/>
<path d="M63.3898 47.1035L66.3649 47.4892L63.3898 47.1035ZM63.3184 47.2464L61.2212 45.1013L63.3184 47.2464ZM45.8481 38.5156L42.873 38.1299L45.8481 38.5156ZM45.9194 38.3726L48.0167 40.5178L45.9194 38.3726ZM48.7618 39.8572C48.7618 43.9072 52.045 47.1905 56.0951 47.1905V53.1905C48.7313 53.1905 42.7618 47.221 42.7618 39.8572H48.7618ZM48.8232 38.9013C48.7828 39.2129 48.7618 39.5318 48.7618 39.8572H42.7618C42.7618 39.2732 42.7995 38.6966 42.873 38.1299L48.8232 38.9013ZM53.1427 38.4286C51.1466 38.4286 49.3418 39.2222 48.0167 40.5178L43.8222 36.2275C46.223 33.8803 49.5164 32.4286 53.1427 32.4286V38.4286ZM60.4761 45.7619C60.4761 41.7118 57.1928 38.4286 53.1427 38.4286V32.4286C60.5065 32.4286 66.4761 38.3981 66.4761 45.7619H60.4761ZM60.4147 46.7178C60.4551 46.4062 60.4761 46.0873 60.4761 45.7619H66.4761C66.4761 46.3459 66.4384 46.9225 66.3649 47.4892L60.4147 46.7178ZM56.0951 47.1905C58.0913 47.1905 59.896 46.3969 61.2212 45.1013L65.4157 49.3916C63.0149 51.7388 59.7215 53.1905 56.0951 53.1905V47.1905ZM66.3649 47.4892C66.2712 48.212 65.9368 48.8821 65.4157 49.3916L61.2212 45.1013C60.7785 45.5342 60.4943 46.1036 60.4147 46.7178L66.3649 47.4892ZM42.873 38.1299C42.9667 37.4071 43.3011 36.737 43.8222 36.2275L48.0167 40.5178C48.4594 40.0849 48.7436 39.5155 48.8232 38.9013L42.873 38.1299Z" fill="#4FB573" mask="url(#path-24-inside-11)"/>
<mask id="path-26-inside-12" fill="white">
<path fill-rule="evenodd" clip-rule="evenodd" d="M101.857 50.1905C96.1499 50.1905 91.5235 45.5641 91.5235 39.8572C91.5235 39.4025 91.5529 38.9547 91.6098 38.5156C91.6168 38.4613 91.642 38.4109 91.6811 38.3726C93.5441 36.5512 96.0932 35.4286 98.9045 35.4286C104.611 35.4286 109.238 40.055 109.238 45.7619C109.238 46.2166 109.208 46.6643 109.152 47.1035C109.144 47.1578 109.119 47.2081 109.08 47.2464C107.217 49.0679 104.668 50.1905 101.857 50.1905Z"/>
</mask>
<path fill-rule="evenodd" clip-rule="evenodd" d="M101.857 50.1905C96.1499 50.1905 91.5235 45.5641 91.5235 39.8572C91.5235 39.4025 91.5529 38.9547 91.6098 38.5156C91.6168 38.4613 91.642 38.4109 91.6811 38.3726C93.5441 36.5512 96.0932 35.4286 98.9045 35.4286C104.611 35.4286 109.238 40.055 109.238 45.7619C109.238 46.2166 109.208 46.6643 109.152 47.1035C109.144 47.1578 109.119 47.2081 109.08 47.2464C107.217 49.0679 104.668 50.1905 101.857 50.1905Z" fill="#DCF0E3"/>
<path d="M109.152 47.1035L112.127 47.4892L109.152 47.1035ZM109.08 47.2464L106.983 45.1013L109.08 47.2464ZM91.6098 38.5156L88.6347 38.1299L91.6098 38.5156ZM91.6811 38.3726L93.7784 40.5178L91.6811 38.3726ZM94.5235 39.8572C94.5235 43.9072 97.8068 47.1905 101.857 47.1905V53.1905C94.493 53.1905 88.5235 47.221 88.5235 39.8572H94.5235ZM94.5849 38.9013C94.5445 39.2129 94.5235 39.5318 94.5235 39.8572H88.5235C88.5235 39.2732 88.5612 38.6966 88.6347 38.1299L94.5849 38.9013ZM98.9045 38.4286C96.9083 38.4286 95.1036 39.2222 93.7784 40.5178L89.5839 36.2275C91.9847 33.8803 95.2781 32.4286 98.9045 32.4286V38.4286ZM106.238 45.7619C106.238 41.7118 102.955 38.4286 98.9045 38.4286V32.4286C106.268 32.4286 112.238 38.3981 112.238 45.7619H106.238ZM106.176 46.7178C106.217 46.4062 106.238 46.0873 106.238 45.7619H112.238C112.238 46.3459 112.2 46.9225 112.127 47.4892L106.176 46.7178ZM101.857 47.1905C103.853 47.1905 105.658 46.3969 106.983 45.1013L111.177 49.3916C108.777 51.7388 105.483 53.1905 101.857 53.1905V47.1905ZM112.127 47.4892C112.033 48.212 111.698 48.8821 111.177 49.3916L106.983 45.1013C106.54 45.5342 106.256 46.1036 106.176 46.7178L112.127 47.4892ZM88.6347 38.1299C88.7284 37.4071 89.0628 36.737 89.5839 36.2275L93.7784 40.5178C94.2211 40.0849 94.5053 39.5155 94.5849 38.9013L88.6347 38.1299Z" fill="#4FB573" mask="url(#path-26-inside-12)"/>
<mask id="path-28-inside-13" fill="white">
<path fill-rule="evenodd" clip-rule="evenodd" d="M10.3334 32.4761C4.62646 32.4761 7.05719e-05 27.8497 7.05719e-05 22.1428C7.05719e-05 21.6882 0.0294304 21.2404 0.086359 20.8013C0.093401 20.7469 0.11853 20.6966 0.157696 20.6583C2.0207 18.8369 4.56976 17.7142 7.38102 17.7142C13.088 17.7142 17.7144 22.3406 17.7144 28.0476C17.7144 28.5022 17.685 28.95 17.6281 29.3891C17.621 29.4434 17.5959 29.4938 17.5567 29.5321C15.6937 31.3535 13.1447 32.4761 10.3334 32.4761Z"/>
</mask>
<path fill-rule="evenodd" clip-rule="evenodd" d="M10.3334 32.4761C4.62646 32.4761 7.05719e-05 27.8497 7.05719e-05 22.1428C7.05719e-05 21.6882 0.0294304 21.2404 0.086359 20.8013C0.093401 20.7469 0.11853 20.6966 0.157696 20.6583C2.0207 18.8369 4.56976 17.7142 7.38102 17.7142C13.088 17.7142 17.7144 22.3406 17.7144 28.0476C17.7144 28.5022 17.685 28.95 17.6281 29.3891C17.621 29.4434 17.5959 29.4938 17.5567 29.5321C15.6937 31.3535 13.1447 32.4761 10.3334 32.4761Z" fill="#DCF0E3"/>
<path d="M17.6281 29.3891L20.6032 29.7748L17.6281 29.3891ZM17.5567 29.5321L15.4595 27.387L17.5567 29.5321ZM0.086359 20.8013L-2.88874 20.4156L0.086359 20.8013ZM0.157696 20.6583L-1.93955 18.5132L0.157696 20.6583ZM3.00007 22.1428C3.00007 26.1929 6.28332 29.4761 10.3334 29.4761V35.4761C2.96961 35.4761 -2.99993 29.5066 -2.99993 22.1428H3.00007ZM3.06146 21.187C3.02107 21.4985 3.00007 21.8175 3.00007 22.1428H-2.99993C-2.99993 21.5589 -2.96221 20.9823 -2.88874 20.4156L3.06146 21.187ZM7.38102 20.7142C5.38488 20.7142 3.58011 21.5078 2.25494 22.8034L-1.93955 18.5132C0.461281 16.1659 3.75464 14.7142 7.38102 14.7142V20.7142ZM14.7144 28.0476C14.7144 23.9975 11.4311 20.7142 7.38102 20.7142V14.7142C14.7448 14.7142 20.7144 20.6838 20.7144 28.0476H14.7144ZM14.653 29.0034C14.6934 28.6919 14.7144 28.3729 14.7144 28.0476H20.7144C20.7144 28.6315 20.6766 29.2081 20.6032 29.7748L14.653 29.0034ZM10.3334 29.4761C12.3295 29.4761 14.1343 28.6826 15.4595 27.387L19.654 31.6772C17.2531 34.0245 13.9598 35.4761 10.3334 35.4761V29.4761ZM20.6032 29.7748C20.5095 30.4977 20.175 31.1678 19.654 31.6772L15.4595 27.387C15.0168 27.8198 14.7326 28.3892 14.653 29.0034L20.6032 29.7748ZM-2.88874 20.4156C-2.79503 19.6927 -2.46062 19.0226 -1.93955 18.5132L2.25494 22.8034C2.69767 22.3706 2.98184 21.8012 3.06146 21.187L-2.88874 20.4156Z" fill="#4FB573" mask="url(#path-28-inside-13)"/>
<mask id="path-30-inside-14" fill="white">
<path fill-rule="evenodd" clip-rule="evenodd" d="M56.0951 32.4761C50.3882 32.4761 45.7618 27.8497 45.7618 22.1428C45.7618 21.6882 45.7911 21.2404 45.8481 20.8013C45.8551 20.7469 45.8802 20.6966 45.9194 20.6583C47.7824 18.8369 50.3315 17.7142 53.1427 17.7142C58.8497 17.7142 63.4761 22.3406 63.4761 28.0476C63.4761 28.5022 63.4467 28.95 63.3898 29.3891C63.3827 29.4434 63.3576 29.4938 63.3184 29.5321C61.4554 31.3535 58.9064 32.4761 56.0951 32.4761Z"/>
</mask>
<path fill-rule="evenodd" clip-rule="evenodd" d="M56.0951 32.4761C50.3882 32.4761 45.7618 27.8497 45.7618 22.1428C45.7618 21.6882 45.7911 21.2404 45.8481 20.8013C45.8551 20.7469 45.8802 20.6966 45.9194 20.6583C47.7824 18.8369 50.3315 17.7142 53.1427 17.7142C58.8497 17.7142 63.4761 22.3406 63.4761 28.0476C63.4761 28.5022 63.4467 28.95 63.3898 29.3891C63.3827 29.4434 63.3576 29.4938 63.3184 29.5321C61.4554 31.3535 58.9064 32.4761 56.0951 32.4761Z" fill="white"/>
<path d="M63.3898 29.3891L60.4147 29.0034L63.3898 29.3891ZM63.3184 29.5321L61.2212 27.387L63.3184 29.5321ZM45.8481 20.8013L42.873 20.4156L45.8481 20.8013ZM45.9194 20.6583L43.8222 18.5132L45.9194 20.6583ZM48.7618 22.1428C48.7618 26.1929 52.045 29.4761 56.0951 29.4761V35.4761C48.7313 35.4761 42.7618 29.5066 42.7618 22.1428H48.7618ZM48.8232 21.187C48.7828 21.4985 48.7618 21.8175 48.7618 22.1428H42.7618C42.7618 21.5589 42.7995 20.9823 42.873 20.4156L48.8232 21.187ZM53.1427 20.7142C51.1466 20.7142 49.3418 21.5078 48.0167 22.8034L43.8222 18.5132C46.223 16.1659 49.5164 14.7142 53.1427 14.7142V20.7142ZM60.4761 28.0476C60.4761 23.9975 57.1928 20.7142 53.1427 20.7142V14.7142C60.5065 14.7142 66.4761 20.6838 66.4761 28.0476H60.4761ZM60.4147 29.0034C60.4551 28.6919 60.4761 28.3729 60.4761 28.0476H66.4761C66.4761 28.6315 66.4384 29.2081 66.3649 29.7748L60.4147 29.0034ZM56.0951 29.4761C58.0913 29.4761 59.896 28.6826 61.2212 27.387L65.4157 31.6772C63.0149 34.0245 59.7215 35.4761 56.0951 35.4761V29.4761ZM66.3649 29.7748C66.2712 30.4977 65.9368 31.1678 65.4157 31.6772L61.2212 27.387C60.7785 27.8198 60.4943 28.3892 60.4147 29.0034L66.3649 29.7748ZM42.873 20.4156C42.9667 19.6927 43.3011 19.0226 43.8222 18.5132L48.0167 22.8034C48.4594 22.3706 48.7436 21.8012 48.8232 21.187L42.873 20.4156Z" fill="#4FB573" mask="url(#path-30-inside-14)"/>
<mask id="path-32-inside-15" fill="white">
<path fill-rule="evenodd" clip-rule="evenodd" d="M101.857 32.4761C96.1499 32.4761 91.5235 27.8497 91.5235 22.1428C91.5235 21.6882 91.5529 21.2404 91.6098 20.8013C91.6168 20.7469 91.642 20.6966 91.6811 20.6583C93.5441 18.8369 96.0932 17.7142 98.9045 17.7142C104.611 17.7142 109.238 22.3406 109.238 28.0476C109.238 28.5022 109.208 28.95 109.152 29.3891C109.144 29.4434 109.119 29.4938 109.08 29.5321C107.217 31.3535 104.668 32.4761 101.857 32.4761Z"/>
</mask>
<path fill-rule="evenodd" clip-rule="evenodd" d="M101.857 32.4761C96.1499 32.4761 91.5235 27.8497 91.5235 22.1428C91.5235 21.6882 91.5529 21.2404 91.6098 20.8013C91.6168 20.7469 91.642 20.6966 91.6811 20.6583C93.5441 18.8369 96.0932 17.7142 98.9045 17.7142C104.611 17.7142 109.238 22.3406 109.238 28.0476C109.238 28.5022 109.208 28.95 109.152 29.3891C109.144 29.4434 109.119 29.4938 109.08 29.5321C107.217 31.3535 104.668 32.4761 101.857 32.4761Z" fill="#DCF0E3"/>
<path d="M109.152 29.3891L106.176 29.0034L109.152 29.3891ZM109.08 29.5321L106.983 27.387L109.08 29.5321ZM91.6098 20.8013L88.6347 20.4156L91.6098 20.8013ZM91.6811 20.6583L89.5839 18.5132L91.6811 20.6583ZM94.5235 22.1428C94.5235 26.1929 97.8068 29.4761 101.857 29.4761V35.4761C94.493 35.4761 88.5235 29.5066 88.5235 22.1428H94.5235ZM94.5849 21.187C94.5445 21.4985 94.5235 21.8175 94.5235 22.1428H88.5235C88.5235 21.5589 88.5612 20.9823 88.6347 20.4156L94.5849 21.187ZM98.9045 20.7142C96.9083 20.7142 95.1036 21.5078 93.7784 22.8034L89.5839 18.5132C91.9847 16.1659 95.2781 14.7142 98.9045 14.7142V20.7142ZM106.238 28.0476C106.238 23.9975 102.955 20.7142 98.9045 20.7142V14.7142C106.268 14.7142 112.238 20.6838 112.238 28.0476H106.238ZM106.176 29.0034C106.217 28.6919 106.238 28.3729 106.238 28.0476H112.238C112.238 28.6315 112.2 29.2081 112.127 29.7748L106.176 29.0034ZM101.857 29.4761C103.853 29.4761 105.658 28.6826 106.983 27.387L111.177 31.6772C108.777 34.0245 105.483 35.4761 101.857 35.4761V29.4761ZM112.127 29.7748C112.033 30.4977 111.698 31.1678 111.177 31.6772L106.983 27.387C106.54 27.8198 106.256 28.3892 106.176 29.0034L112.127 29.7748ZM88.6347 20.4156C88.7284 19.6927 89.0628 19.0226 89.5839 18.5132L93.7784 22.8034C94.2211 22.3706 94.5053 21.8012 94.5849 21.187L88.6347 20.4156Z" fill="#4FB573" mask="url(#path-32-inside-15)"/>
<mask id="path-34-inside-16" fill="white">
<path fill-rule="evenodd" clip-rule="evenodd" d="M10.3334 14.7619C4.62646 14.7619 7.05719e-05 10.1355 7.05719e-05 4.42857C7.05719e-05 3.97394 0.0294304 3.52616 0.086359 3.08703C0.093401 3.03271 0.11853 2.98235 0.157696 2.94406C2.0207 1.12264 4.56976 0 7.38102 0C13.088 0 17.7144 4.62639 17.7144 10.3333C17.7144 10.788 17.685 11.2357 17.6281 11.6749C17.621 11.7292 17.5959 11.7796 17.5567 11.8178C15.6937 13.6393 13.1447 14.7619 10.3334 14.7619Z"/>
</mask>
<path fill-rule="evenodd" clip-rule="evenodd" d="M10.3334 14.7619C4.62646 14.7619 7.05719e-05 10.1355 7.05719e-05 4.42857C7.05719e-05 3.97394 0.0294304 3.52616 0.086359 3.08703C0.093401 3.03271 0.11853 2.98235 0.157696 2.94406C2.0207 1.12264 4.56976 0 7.38102 0C13.088 0 17.7144 4.62639 17.7144 10.3333C17.7144 10.788 17.685 11.2357 17.6281 11.6749C17.621 11.7292 17.5959 11.7796 17.5567 11.8178C15.6937 13.6393 13.1447 14.7619 10.3334 14.7619Z" fill="#DCF0E3"/>
<path d="M17.5567 11.8178L15.4595 9.67272L17.5567 11.8178ZM0.086359 3.08703L-2.88874 2.70134L0.086359 3.08703ZM0.157696 2.94406L2.25494 5.08918L0.157696 2.94406ZM3.00007 4.42857C3.00007 8.47866 6.28332 11.7619 10.3334 11.7619V17.7619C2.96961 17.7619 -2.99993 11.7924 -2.99993 4.42857H3.00007ZM3.06146 3.47272C3.02107 3.78428 3.00007 4.10323 3.00007 4.42857H-2.99993C-2.99993 3.84464 -2.96221 3.26803 -2.88874 2.70134L3.06146 3.47272ZM7.38102 3C5.38488 3 3.58011 3.79359 2.25494 5.08918L-1.93955 0.798932C0.461281 -1.54831 3.75464 -3 7.38102 -3V3ZM14.7144 10.3333C14.7144 6.28325 11.4311 3 7.38102 3V-3C14.7448 -3 20.7144 2.96954 20.7144 10.3333H14.7144ZM14.653 11.2892C14.6934 10.9776 14.7144 10.6587 14.7144 10.3333H20.7144C20.7144 10.9173 20.6766 11.4939 20.6032 12.0606L14.653 11.2892ZM10.3334 11.7619C12.3295 11.7619 14.1343 10.9683 15.4595 9.67272L19.654 13.963C17.2531 16.3102 13.9598 17.7619 10.3334 17.7619V11.7619ZM20.6032 12.0606C20.5095 12.7834 20.175 13.4535 19.654 13.963L15.4595 9.67272C15.0168 10.1056 14.7326 10.675 14.653 11.2892L20.6032 12.0606ZM-2.88874 2.70134C-2.79503 1.97849 -2.46062 1.30837 -1.93955 0.798932L2.25494 5.08918C2.69767 4.65633 2.98184 4.08693 3.06146 3.47272L-2.88874 2.70134Z" fill="#4FB573" mask="url(#path-34-inside-16)"/>
<mask id="path-36-inside-17" fill="white">
<path fill-rule="evenodd" clip-rule="evenodd" d="M56.0951 14.7619C50.3882 14.7619 45.7618 10.1355 45.7618 4.42857C45.7618 3.97394 45.7911 3.52616 45.8481 3.08703C45.8551 3.03271 45.8802 2.98235 45.9194 2.94406C47.7824 1.12264 50.3315 0 53.1427 0C58.8497 0 63.4761 4.62639 63.4761 10.3333C63.4761 10.788 63.4467 11.2357 63.3898 11.6749C63.3827 11.7292 63.3576 11.7796 63.3184 11.8178C61.4554 13.6393 58.9064 14.7619 56.0951 14.7619Z"/>
</mask>
<path fill-rule="evenodd" clip-rule="evenodd" d="M56.0951 14.7619C50.3882 14.7619 45.7618 10.1355 45.7618 4.42857C45.7618 3.97394 45.7911 3.52616 45.8481 3.08703C45.8551 3.03271 45.8802 2.98235 45.9194 2.94406C47.7824 1.12264 50.3315 0 53.1427 0C58.8497 0 63.4761 4.62639 63.4761 10.3333C63.4761 10.788 63.4467 11.2357 63.3898 11.6749C63.3827 11.7292 63.3576 11.7796 63.3184 11.8178C61.4554 13.6393 58.9064 14.7619 56.0951 14.7619Z" fill="white"/>
<path d="M63.3898 11.6749L66.3649 12.0606L63.3898 11.6749ZM63.3184 11.8178L61.2212 9.67272L63.3184 11.8178ZM45.8481 3.08703L42.873 2.70134L45.8481 3.08703ZM45.9194 2.94406L48.0167 5.08918L45.9194 2.94406ZM48.7618 4.42857C48.7618 8.47866 52.045 11.7619 56.0951 11.7619V17.7619C48.7313 17.7619 42.7618 11.7924 42.7618 4.42857H48.7618ZM48.8232 3.47272C48.7828 3.78428 48.7618 4.10323 48.7618 4.42857H42.7618C42.7618 3.84464 42.7995 3.26803 42.873 2.70134L48.8232 3.47272ZM53.1427 3C51.1466 3 49.3418 3.79359 48.0167 5.08918L43.8222 0.798932C46.223 -1.54831 49.5164 -3 53.1427 -3V3ZM60.4761 10.3333C60.4761 6.28325 57.1928 3 53.1427 3V-3C60.5065 -3 66.4761 2.96954 66.4761 10.3333H60.4761ZM60.4147 11.2892C60.4551 10.9776 60.4761 10.6587 60.4761 10.3333H66.4761C66.4761 10.9173 66.4384 11.4939 66.3649 12.0606L60.4147 11.2892ZM56.0951 11.7619C58.0913 11.7619 59.896 10.9683 61.2212 9.67272L65.4157 13.963C63.0149 16.3102 59.7215 17.7619 56.0951 17.7619V11.7619ZM66.3649 12.0606C66.2712 12.7834 65.9368 13.4535 65.4157 13.963L61.2212 9.67272C60.7785 10.1056 60.4943 10.675 60.4147 11.2892L66.3649 12.0606ZM42.873 2.70134C42.9667 1.97849 43.3011 1.30837 43.8222 0.798932L48.0167 5.08918C48.4594 4.65633 48.7436 4.08693 48.8232 3.47272L42.873 2.70134Z" fill="#4FB573" mask="url(#path-36-inside-17)"/>
<mask id="path-38-inside-18" fill="white">
<path fill-rule="evenodd" clip-rule="evenodd" d="M101.857 14.7619C96.1499 14.7619 91.5235 10.1355 91.5235 4.42857C91.5235 3.97394 91.5529 3.52616 91.6098 3.08703C91.6168 3.03271 91.642 2.98235 91.6811 2.94406C93.5441 1.12264 96.0932 0 98.9045 0C104.611 0 109.238 4.62639 109.238 10.3333C109.238 10.788 109.208 11.2357 109.152 11.6749C109.144 11.7292 109.119 11.7796 109.08 11.8178C107.217 13.6393 104.668 14.7619 101.857 14.7619Z"/>
</mask>
<path fill-rule="evenodd" clip-rule="evenodd" d="M101.857 14.7619C96.1499 14.7619 91.5235 10.1355 91.5235 4.42857C91.5235 3.97394 91.5529 3.52616 91.6098 3.08703C91.6168 3.03271 91.642 2.98235 91.6811 2.94406C93.5441 1.12264 96.0932 0 98.9045 0C104.611 0 109.238 4.62639 109.238 10.3333C109.238 10.788 109.208 11.2357 109.152 11.6749C109.144 11.7292 109.119 11.7796 109.08 11.8178C107.217 13.6393 104.668 14.7619 101.857 14.7619Z" fill="#DCF0E3"/>
<path d="M109.152 11.6749L112.127 12.0606L109.152 11.6749ZM109.08 11.8178L106.983 9.67272L109.08 11.8178ZM91.6098 3.08703L88.6347 2.70134L91.6098 3.08703ZM91.6811 2.94406L93.7784 5.08918L91.6811 2.94406ZM94.5235 4.42857C94.5235 8.47866 97.8068 11.7619 101.857 11.7619V17.7619C94.493 17.7619 88.5235 11.7924 88.5235 4.42857H94.5235ZM94.5849 3.47272C94.5445 3.78428 94.5235 4.10323 94.5235 4.42857H88.5235C88.5235 3.84464 88.5612 3.26803 88.6347 2.70134L94.5849 3.47272ZM98.9045 3C96.9083 3 95.1036 3.79359 93.7784 5.08918L89.5839 0.798932C91.9847 -1.54831 95.2781 -3 98.9045 -3V3ZM106.238 10.3333C106.238 6.28325 102.955 3 98.9045 3V-3C106.268 -3 112.238 2.96954 112.238 10.3333H106.238ZM106.176 11.2892C106.217 10.9776 106.238 10.6587 106.238 10.3333H112.238C112.238 10.9173 112.2 11.4939 112.127 12.0606L106.176 11.2892ZM101.857 11.7619C103.853 11.7619 105.658 10.9683 106.983 9.67272L111.177 13.963C108.777 16.3102 105.483 17.7619 101.857 17.7619V11.7619ZM112.127 12.0606C112.033 12.7834 111.698 13.4535 111.177 13.963L106.983 9.67272C106.54 10.1056 106.256 10.675 106.176 11.2892L112.127 12.0606ZM88.6347 2.70134C88.7284 1.97849 89.0628 1.30837 89.5839 0.798932L93.7784 5.08918C94.2211 4.65633 94.5053 4.08693 94.5849 3.47272L88.6347 2.70134Z" fill="#4FB573" mask="url(#path-38-inside-18)"/>
</svg>
