<svg width="75" height="75" viewBox="0 0 75 75" fill="none" xmlns="http://www.w3.org/2000/svg">
<circle cx="37.5" cy="37.5" r="37.5" fill="white"/>
<path fill-rule="evenodd" clip-rule="evenodd" d="M30.4405 13.4832L32.8757 14.2474L32.8794 16.7343L30.4461 17.5057L28.9387 15.4971L30.4405 13.4832Z" fill="#4FB573"/>
<path fill-rule="evenodd" clip-rule="evenodd" d="M30.4459 17.5062L32.8792 16.733L33.5533 22.5284L30.4459 17.5062Z" fill="#4FB573"/>
<path fill-rule="evenodd" clip-rule="evenodd" d="M33.553 22.5293L32.8807 16.7339L32.877 14.2488L34.4141 24.0595L28.94 15.4967L30.4456 17.5071L33.553 22.5293Z" fill="#4FB573"/>
<path fill-rule="evenodd" clip-rule="evenodd" d="M57.6343 22.049L60.0694 22.8132L60.0731 25.3L57.6398 26.0697L56.1306 24.0629L57.6343 22.049Z" fill="#4FB573"/>
<path fill-rule="evenodd" clip-rule="evenodd" d="M46.3168 25.1623L44.8983 26.4192L43.2298 25.4985L43.615 23.6716L45.5224 23.4648L46.3168 25.1623Z" fill="#4FB573"/>
<path fill-rule="evenodd" clip-rule="evenodd" d="M51.4059 29.224L57.6337 22.0494L56.1319 24.0615L51.4059 29.224Z" fill="#4FB573"/>
<path fill-rule="evenodd" clip-rule="evenodd" d="M56.1313 24.0622L57.6387 26.0707L51.4054 29.2247L56.1313 24.0622Z" fill="#4FB573"/>
<path fill-rule="evenodd" clip-rule="evenodd" d="M57.6396 26.0702L60.0729 25.2988L51.4063 29.2241L57.6396 26.0702Z" fill="#4FB573"/>
<path fill-rule="evenodd" clip-rule="evenodd" d="M25.8235 28.1046L27.9087 27.5562L29.0902 29.3129L27.7328 30.9474L25.7143 30.1994L25.8235 28.1046Z" fill="#4FB573"/>
<path fill-rule="evenodd" clip-rule="evenodd" d="M51.4022 37.0268L53.2281 36.4496L54.3596 37.9564L53.2319 39.4651L51.4041 38.8933L51.4022 37.0268Z" fill="#4FB573"/>
<path fill-rule="evenodd" clip-rule="evenodd" d="M13.6455 35.974L23.5529 37.9861L16.0807 36.74L13.6455 35.974Z" fill="#4FB573"/>
<path fill-rule="evenodd" clip-rule="evenodd" d="M16.085 39.2236L16.0813 36.7404L23.5517 37.9865L16.085 39.2236Z" fill="#4FB573"/>
<path fill-rule="evenodd" clip-rule="evenodd" d="M16.0815 36.7396L16.0852 39.2229L13.6518 39.9961L12.1444 37.9876L13.6463 35.9736L16.0815 36.7396Z" fill="#4FB573"/>
<path fill-rule="evenodd" clip-rule="evenodd" d="M23.5522 37.9856L13.6522 39.9959L16.0856 39.2227L23.5522 37.9856Z" fill="#4FB573"/>
<path fill-rule="evenodd" clip-rule="evenodd" d="M25.7222 45.3932L27.3204 44.3593L28.8278 45.5173L28.1593 47.265L26.2389 47.1895L25.7222 45.3932Z" fill="#4FB573"/>
<path fill-rule="evenodd" clip-rule="evenodd" d="M57.6776 49.7762L50.9591 45.9533L60.1128 50.5404L57.6776 49.7762Z" fill="#4FB573"/>
<path fill-rule="evenodd" clip-rule="evenodd" d="M56.1748 51.7886L50.9489 45.9465L50.96 45.9519L57.6785 49.7765L56.1748 51.7886Z" fill="#4FB573"/>
<path fill-rule="evenodd" clip-rule="evenodd" d="M43.7561 52.4734L41.9302 51.8998L41.9265 50.0351L43.7524 49.4561L44.8839 50.9648L43.7561 52.4734Z" fill="#4FB573"/>
<path fill-rule="evenodd" clip-rule="evenodd" d="M34.0918 51.7859L32.9715 59.1799L30.5344 58.4157L34.0918 51.7859Z" fill="#4FB573"/>
<path fill-rule="evenodd" clip-rule="evenodd" d="M56.1748 51.7886L57.6822 53.7972L49.5526 45.247L50.9489 45.9465L56.1748 51.7886Z" fill="#4FB573"/>
<path fill-rule="evenodd" clip-rule="evenodd" d="M60.1135 50.54L60.1172 53.0269L57.6839 53.7983L56.1746 51.7879L57.6783 49.7758L60.1135 50.54Z" fill="#4FB573"/>
<path fill-rule="evenodd" clip-rule="evenodd" d="M34.0919 51.7859L30.5345 58.4157L29.0345 60.4296L34.0919 51.7859Z" fill="#4FB573"/>
<path fill-rule="evenodd" clip-rule="evenodd" d="M32.9706 59.1795L34.0909 51.7856L32.9743 61.6646L32.9706 59.1795Z" fill="#4FB573"/>
<path fill-rule="evenodd" clip-rule="evenodd" d="M32.9705 59.1796L32.9742 61.6646L30.5409 62.4378L29.0335 60.4293L30.5354 58.4153L32.9705 59.1796Z" fill="#4FB573"/>
<path fill-rule="evenodd" clip-rule="evenodd" d="M13.6456 35.974L12.1437 37.9879L13.653 39.9964L16.0844 39.2232L16.0807 36.74L13.6456 35.974Z" stroke="#4FB573" stroke-width="1.44"/>
<path fill-rule="evenodd" clip-rule="evenodd" d="M28.9395 15.4966L30.445 17.5069L32.8802 16.7337L32.8765 14.2487L30.4413 13.4827L28.9395 15.4966Z" stroke="#4FB573" stroke-width="1.44"/>
<path fill-rule="evenodd" clip-rule="evenodd" d="M56.1313 24.0622L57.6387 26.0707L60.0739 25.2993L60.0702 22.8143L57.635 22.0483L56.1313 24.0622Z" stroke="#4FB573" stroke-width="1.44"/>
<path fill-rule="evenodd" clip-rule="evenodd" d="M56.1748 51.7886L57.6822 53.7971L60.1174 53.0257L60.1137 50.5407L57.6785 49.7765L56.1748 51.7886Z" stroke="#4FB573" stroke-width="1.44"/>
<path fill-rule="evenodd" clip-rule="evenodd" d="M29.0335 60.4289L30.5391 62.4374L32.9743 61.6642L32.9706 59.1792L30.5354 58.415L29.0335 60.4289Z" stroke="#4FB573" stroke-width="1.44"/>
<path d="M13.6528 39.9963L23.5528 37.9859L13.6454 35.9738" stroke="#4FB573" stroke-width="1.44"/>
<path d="M28.9395 15.4966L34.4135 24.0593L32.8765 14.2487" stroke="#4FB573" stroke-width="1.44"/>
<path d="M57.6343 22.049L51.4065 29.2236L60.0732 25.3" stroke="#4FB573" stroke-width="1.44"/>
<path d="M60.1135 50.54L50.9598 45.9529" stroke="#4FB573" stroke-width="1.44"/>
<path d="M32.9743 61.6651L34.0928 51.7861L29.0335 60.4298" stroke="#4FB573" stroke-width="1.44"/>
<path d="M16.085 39.2236L23.5516 37.9865L16.0813 36.7404" stroke="#4FB573" stroke-width="1.44"/>
<path d="M30.4459 17.5062L33.5533 22.5284L32.8792 16.733" stroke="#4FB573" stroke-width="1.44"/>
<path d="M56.1313 24.0622L51.4054 29.2247L57.6387 26.0707" stroke="#4FB573" stroke-width="1.44"/>
<path d="M50.9483 45.9463L56.1743 51.7884" stroke="#4FB573" stroke-width="1.44"/>
<path d="M57.6776 49.7762L50.959 45.9533L50.9479 45.9461L49.5516 45.2466L57.6831 53.7968" stroke="#4FB573" stroke-width="1.44"/>
<path d="M32.9706 59.1795L34.0909 51.7856L30.5354 58.4153" stroke="#4FB573" stroke-width="1.44"/>
<path fill-rule="evenodd" clip-rule="evenodd" d="M25.7222 45.3932L26.2389 47.1895L28.1592 47.265L28.8278 45.5173L27.3203 44.3593L25.7222 45.3932Z" stroke="#4FB573" stroke-width="1.44"/>
<path fill-rule="evenodd" clip-rule="evenodd" d="M25.8235 28.1046L25.7143 30.1994L27.7328 30.9474L29.0902 29.3129L27.9087 27.5562L25.8235 28.1046Z" stroke="#4FB573" stroke-width="1.44"/>
<path fill-rule="evenodd" clip-rule="evenodd" d="M43.6152 23.6723L43.23 25.4992L44.8985 26.4199L46.3171 25.163L45.5226 23.4637L43.6152 23.6723Z" stroke="#4FB573" stroke-width="1.44"/>
<path fill-rule="evenodd" clip-rule="evenodd" d="M51.4022 37.0268L51.4041 38.8933L53.2319 39.4651L54.3596 37.9564L53.2281 36.4496L51.4022 37.0268Z" stroke="#4FB573" stroke-width="1.44"/>
<path fill-rule="evenodd" clip-rule="evenodd" d="M43.7526 49.4557L41.9267 50.0347L41.9304 51.8994L43.7563 52.473L44.8841 50.9643L43.7526 49.4557Z" stroke="#4FB573" stroke-width="1.44"/>
<path fill-rule="evenodd" clip-rule="evenodd" d="M27.7333 30.9466L30.0148 31.3835L29.0889 29.3138" fill="#4FB573"/>
<path d="M27.7333 30.9466L30.0148 31.3835L29.0889 29.3138" stroke="#4FB573" stroke-width="1.44"/>
<path fill-rule="evenodd" clip-rule="evenodd" d="M43.21 25.3151L42.8396 28.0501L44.8804 26.2376" fill="#4FB573"/>
<path d="M43.21 25.3151L42.8396 28.0501L44.8804 26.2376" stroke="#4FB573" stroke-width="1.44"/>
<path fill-rule="evenodd" clip-rule="evenodd" d="M51.4022 37.0277L48.893 37.9573L51.4041 38.8924" fill="#4FB573"/>
<path d="M51.4022 37.0277L48.893 37.9573L51.4041 38.8924" stroke="#4FB573" stroke-width="1.44"/>
<path fill-rule="evenodd" clip-rule="evenodd" d="M41.9267 50.0358L43.7526 49.4568L41.9267 47.5094V50.0358Z" fill="#4FB573"/>
<path d="M41.9259 50.0352V47.5089L43.7518 49.4562" stroke="#4FB573" stroke-width="1.44"/>
<path fill-rule="evenodd" clip-rule="evenodd" d="M27.2541 44.5346L29.7059 43.2291L28.7596 45.6926" fill="#4FB573"/>
<path d="M27.2541 44.5346L29.7059 43.2291L28.7596 45.6926" stroke="#4FB573" stroke-width="1.44"/>
</svg>
