<svg width="86" height="89" viewBox="0 0 86 89" fill="none" xmlns="http://www.w3.org/2000/svg">
<path fill-rule="evenodd" clip-rule="evenodd" d="M33.4377 0.843216L37.6263 2.17684L37.6326 6.5166L33.4473 7.86277L30.8546 4.3577L33.4377 0.843216Z" fill="black"/>
<path fill-rule="evenodd" clip-rule="evenodd" d="M33.447 7.86371L37.6324 6.5144L38.7918 16.6279L33.447 7.86371Z" fill="black"/>
<path fill-rule="evenodd" clip-rule="evenodd" d="M38.7911 16.6295L37.6349 6.51596L37.6285 2.17934L40.2722 19.2999L30.8568 4.35707L33.4464 7.86528L38.7911 16.6295Z" fill="black"/>
<path fill-rule="evenodd" clip-rule="evenodd" d="M80.2109 15.7914L84.3995 17.125L84.4058 21.4648L80.2205 22.8078L77.6246 19.3059L80.2109 15.7914Z" fill="black"/>
<path fill-rule="evenodd" clip-rule="evenodd" d="M60.745 21.2244L58.3052 23.4178L55.4353 21.8112L56.0978 18.623L59.3786 18.2622L60.745 21.2244Z" fill="black"/>
<path fill-rule="evenodd" clip-rule="evenodd" d="M69.4982 28.3124L80.2099 15.792L77.6268 19.3034L69.4982 28.3124Z" fill="black"/>
<path fill-rule="evenodd" clip-rule="evenodd" d="M77.6258 19.3046L80.2186 22.8097L69.4973 28.3136L77.6258 19.3046Z" fill="black"/>
<path fill-rule="evenodd" clip-rule="evenodd" d="M80.2202 22.8087L84.4055 21.4626L69.4988 28.3127L80.2202 22.8087Z" fill="black"/>
<path fill-rule="evenodd" clip-rule="evenodd" d="M25.4965 26.359L29.083 25.4019L31.1151 28.4677L28.7804 31.3201L25.3085 30.0147L25.4965 26.359Z" fill="black"/>
<path fill-rule="evenodd" clip-rule="evenodd" d="M69.4918 41.9291L72.6324 40.9218L74.5786 43.5514L72.6388 46.1841L69.495 45.1863L69.4918 41.9291Z" fill="black"/>
<path fill-rule="evenodd" clip-rule="evenodd" d="M4.55035 40.0918L21.5911 43.6032L8.73887 41.4286L4.55035 40.0918Z" fill="black"/>
<path fill-rule="evenodd" clip-rule="evenodd" d="M8.74618 45.7627L8.73981 41.4292L21.5888 43.6038L8.74618 45.7627Z" fill="black"/>
<path fill-rule="evenodd" clip-rule="evenodd" d="M8.74015 41.428L8.74652 45.7614L4.56119 47.1108L1.96844 43.6057L4.55163 40.0912L8.74015 41.428Z" fill="black"/>
<path fill-rule="evenodd" clip-rule="evenodd" d="M21.5898 43.6022L4.56183 47.1104L8.74716 45.7611L21.5898 43.6022Z" fill="black"/>
<path fill-rule="evenodd" clip-rule="evenodd" d="M25.3222 56.5293L28.071 54.7249L30.6638 56.7458L29.5139 59.7958L26.2109 59.664L25.3222 56.5293Z" fill="black"/>
<path fill-rule="evenodd" clip-rule="evenodd" d="M80.2855 64.178L68.7296 57.5067L84.474 65.5116L80.2855 64.178Z" fill="black"/>
<path fill-rule="evenodd" clip-rule="evenodd" d="M77.7007 67.6899L68.7121 57.4948L68.7312 57.5042L80.2871 64.1786L77.7007 67.6899Z" fill="black"/>
<path fill-rule="evenodd" clip-rule="evenodd" d="M56.3405 68.8849L53.1999 67.8839L53.1935 64.6298L56.3341 63.6194L58.2803 66.2521L56.3405 68.8849Z" fill="black"/>
<path fill-rule="evenodd" clip-rule="evenodd" d="M39.718 67.6852L37.7909 80.5884L33.5992 79.2548L39.718 67.6852Z" fill="black"/>
<path fill-rule="evenodd" clip-rule="evenodd" d="M77.7007 67.6899L80.2934 71.195L66.3105 56.2741L68.7121 57.4948L77.7007 67.6899Z" fill="black"/>
<path fill-rule="evenodd" clip-rule="evenodd" d="M84.4753 65.511L84.4816 69.8507L80.2963 71.1969L77.7004 67.6887L80.2867 64.1773L84.4753 65.511Z" fill="black"/>
<path fill-rule="evenodd" clip-rule="evenodd" d="M39.718 67.6852L33.5992 79.2548L31.0192 82.7693L39.718 67.6852Z" fill="black"/>
<path fill-rule="evenodd" clip-rule="evenodd" d="M37.7894 80.5878L39.7164 67.6846L37.7957 84.9244L37.7894 80.5878Z" fill="black"/>
<path fill-rule="evenodd" clip-rule="evenodd" d="M37.7893 80.5878L37.7957 84.9244L33.6104 86.2737L31.0176 82.7686L33.6008 79.2542L37.7893 80.5878Z" fill="black"/>
<path fill-rule="evenodd" clip-rule="evenodd" d="M4.55035 40.0918L1.96716 43.6063L4.56309 47.1114L8.74524 45.7621L8.73887 41.4286L4.55035 40.0918Z" stroke="black" stroke-width="1.44"/>
<path fill-rule="evenodd" clip-rule="evenodd" d="M30.8558 4.35676L33.4454 7.86497L37.6339 6.51566L37.6275 2.17904L33.439 0.842278L30.8558 4.35676Z" stroke="black" stroke-width="1.44"/>
<path fill-rule="evenodd" clip-rule="evenodd" d="M77.6259 19.3046L80.2186 22.8097L84.4071 21.4635L84.4007 17.1269L80.2122 15.7901L77.6259 19.3046Z" stroke="black" stroke-width="1.44"/>
<path fill-rule="evenodd" clip-rule="evenodd" d="M77.7007 67.6899L80.2934 71.195L84.4819 69.8488L84.4756 65.5122L80.2871 64.1786L77.7007 67.6899Z" stroke="black" stroke-width="1.44"/>
<path fill-rule="evenodd" clip-rule="evenodd" d="M31.0176 82.768L33.6072 86.2731L37.7957 84.9238L37.7893 80.5872L33.6008 79.2535L31.0176 82.768Z" stroke="black" stroke-width="1.44"/>
<path d="M4.56279 47.1111L21.5908 43.6029L4.55005 40.0915" stroke="black" stroke-width="1.44"/>
<path d="M30.8558 4.35676L40.2712 19.2996L37.6275 2.17904" stroke="black" stroke-width="1.44"/>
<path d="M80.2109 15.7914L69.4991 28.3117L84.4058 21.4648" stroke="black" stroke-width="1.44"/>
<path d="M84.4753 65.511L68.7309 57.5061" stroke="black" stroke-width="1.44"/>
<path d="M37.7957 84.9253L39.7196 67.6855L31.0176 82.7696" stroke="black" stroke-width="1.44"/>
<path d="M8.74618 45.7627L21.5888 43.6038L8.73981 41.4292" stroke="black" stroke-width="1.44"/>
<path d="M33.447 7.86371L38.7917 16.628L37.6323 6.5144" stroke="black" stroke-width="1.44"/>
<path d="M77.6258 19.3046L69.4973 28.3136L80.2186 22.8097" stroke="black" stroke-width="1.44"/>
<path d="M68.7111 57.4945L77.6997 67.6896" stroke="black" stroke-width="1.44"/>
<path d="M80.2854 64.178L68.7296 57.5067L68.7105 57.4942L66.3088 56.2735L80.295 71.1944" stroke="black" stroke-width="1.44"/>
<path d="M37.7893 80.5878L39.7164 67.6846L33.6008 79.2542" stroke="black" stroke-width="1.44"/>
<path fill-rule="evenodd" clip-rule="evenodd" d="M25.3222 56.5293L26.2109 59.6641L29.5139 59.7958L30.6638 56.7458L28.071 54.7249L25.3222 56.5293Z" stroke="black" stroke-width="1.44"/>
<path fill-rule="evenodd" clip-rule="evenodd" d="M25.4965 26.359L25.3085 30.0147L28.7804 31.3201L31.1151 28.4677L29.083 25.4019L25.4965 26.359Z" stroke="black" stroke-width="1.44"/>
<path fill-rule="evenodd" clip-rule="evenodd" d="M56.0981 18.6243L55.4356 21.8124L58.3055 23.4191L60.7453 21.2257L59.3789 18.2603L56.0981 18.6243Z" stroke="black" stroke-width="1.44"/>
<path fill-rule="evenodd" clip-rule="evenodd" d="M69.4918 41.9291L69.495 45.1863L72.6388 46.1841L74.5786 43.5514L72.6324 40.9218L69.4918 41.9291Z" stroke="black" stroke-width="1.44"/>
<path fill-rule="evenodd" clip-rule="evenodd" d="M56.3344 63.6188L53.1938 64.6292L53.2002 67.8832L56.3408 68.8842L58.2806 66.2515L56.3344 63.6188Z" stroke="black" stroke-width="1.44"/>
<path fill-rule="evenodd" clip-rule="evenodd" d="M28.7813 31.3185L32.7055 32.081L31.1129 28.4692" fill="black"/>
<path d="M28.7813 31.3185L32.7055 32.081L31.1129 28.4692" stroke="black" stroke-width="1.44"/>
<path fill-rule="evenodd" clip-rule="evenodd" d="M55.4012 21.4911L54.7642 26.2639L58.2742 23.1009" fill="black"/>
<path d="M55.4012 21.4911L54.7642 26.2639L58.2742 23.1009" stroke="black" stroke-width="1.44"/>
<path fill-rule="evenodd" clip-rule="evenodd" d="M69.4918 41.9307L65.1759 43.553L69.495 45.1847" fill="black"/>
<path d="M69.4918 41.9307L65.1759 43.553L69.495 45.1847" stroke="black" stroke-width="1.44"/>
<path fill-rule="evenodd" clip-rule="evenodd" d="M53.1938 64.6311L56.3344 63.6207L53.1938 60.2223V64.6311Z" fill="black"/>
<path d="M53.1926 64.6301V60.2213L56.3332 63.6197" stroke="black" stroke-width="1.44"/>
<path fill-rule="evenodd" clip-rule="evenodd" d="M27.957 55.0309L32.1742 52.7528L30.5466 57.0517" fill="black"/>
<path d="M27.957 55.0309L32.1742 52.7528L30.5466 57.0517" stroke="black" stroke-width="1.44"/>
</svg>
