<svg width="120" height="89" viewBox="0 0 120 89" fill="none" xmlns="http://www.w3.org/2000/svg">
<mask id="path-1-inside-1" fill="white">
<rect width="120" height="89" rx="2"/>
</mask>
<rect width="120" height="89" rx="2" fill="white" stroke="#8F8F8F" stroke-width="6" mask="url(#path-1-inside-1)"/>
<path d="M4.28564 20.8146H117.143" stroke="#8F8F8F" stroke-width="2"/>
<rect x="67.1428" y="40.1936" width="4.30645" height="32.8571" rx="0.25" transform="rotate(-90 67.1428 40.1936)" fill="#8F8F8F"/>
<rect x="67.1428" y="48.8064" width="2.87097" height="40" rx="0.25" transform="rotate(-90 67.1428 48.8064)" fill="#8F8F8F"/>
<rect x="67.1428" y="55.9839" width="2.87096" height="40" rx="0.25" transform="rotate(-90 67.1428 55.9839)" fill="#8F8F8F"/>
<rect x="67.1428" y="63.1613" width="2.87096" height="40" rx="0.25" transform="rotate(-90 67.1428 63.1613)" fill="#8F8F8F"/>
<rect x="67.1428" y="70.3387" width="2.87097" height="21.4286" rx="0.25" transform="rotate(-90 67.1428 70.3387)" fill="#8F8F8F"/>
<ellipse cx="12.8571" cy="12.9193" rx="2.85714" ry="2.87097" fill="#8F8F8F"/>
<ellipse cx="21.4287" cy="12.9193" rx="2.85714" ry="2.87097" fill="#8F8F8F"/>
<ellipse cx="30" cy="12.9193" rx="2.85714" ry="2.87097" fill="#8F8F8F"/>
<mask id="path-11-inside-2" fill="white">
<rect x="12.8572" y="31.5807" width="47.1429" height="41.629" rx="2"/>
</mask>
<rect x="12.8572" y="31.5807" width="47.1429" height="41.629" rx="2" fill="#D2D5D9" stroke="#8F8F8F" stroke-width="6" mask="url(#path-11-inside-2)"/>
<path d="M33.5713 45.8764L43.2856 55.0635V55.9839V69.3387H23.857V55.9839V55.0635L33.5713 45.8764Z" fill="white" stroke="#8F8F8F" stroke-width="2"/>
<mask id="path-13-inside-3" fill="white">
<path d="M42.8569 45.9147C42.8569 43.5478 44.7757 41.629 47.1426 41.629C49.5096 41.629 51.4284 43.5478 51.4284 45.9147V70.0887C51.4284 70.2268 51.3164 70.3387 51.1784 70.3387H43.1069C42.9689 70.3387 42.8569 70.2268 42.8569 70.0887V45.9147Z"/>
</mask>
<path d="M42.8569 45.9147C42.8569 43.5478 44.7757 41.629 47.1426 41.629C49.5096 41.629 51.4284 43.5478 51.4284 45.9147V70.0887C51.4284 70.2268 51.3164 70.3387 51.1784 70.3387H43.1069C42.9689 70.3387 42.8569 70.2268 42.8569 70.0887V45.9147Z" fill="white" stroke="#8F8F8F" stroke-width="4" mask="url(#path-13-inside-3)"/>
<mask id="path-14-inside-4" fill="white">
<rect x="28.5713" y="60.2903" width="10" height="8.61291" rx="0.25"/>
</mask>
<rect x="28.5713" y="60.2903" width="10" height="8.61291" rx="0.25" stroke="#8F8F8F" stroke-width="2" mask="url(#path-14-inside-4)"/>
<mask id="path-15-inside-5" fill="white">
<rect x="30" y="54.5483" width="7.14286" height="2.87097" rx="0.25"/>
</mask>
<rect x="30" y="54.5483" width="7.14286" height="2.87097" rx="0.25" stroke="#8F8F8F" stroke-width="2" mask="url(#path-15-inside-5)"/>
<line y1="-0.5" x2="11.1797" y2="-0.5" transform="matrix(0.766699 0.642007 -0.63836 0.769738 28.5713 61.7258)" stroke="#8F8F8F"/>
<path d="M45 51.6774H49.2857" stroke="#8F8F8F"/>
<path d="M45 58.8549H49.2857" stroke="#8F8F8F"/>
<line y1="-0.5" x2="11.1797" y2="-0.5" transform="matrix(-0.766699 0.642007 0.63836 0.769738 38.5713 61.7258)" stroke="#8F8F8F"/>
</svg>
