<svg width="120" height="89" viewBox="0 0 120 89" fill="none" xmlns="http://www.w3.org/2000/svg">
<mask id="path-1-inside-1" fill="white">
<rect width="120" height="89" rx="2"/>
</mask>
<rect width="120" height="89" rx="2" fill="white" stroke="#8F8F8F" stroke-width="6" mask="url(#path-1-inside-1)"/>
<path d="M0 21L117 21" stroke="#8F8F8F" stroke-width="2"/>
<rect x="67.1428" y="40.1936" width="4.30645" height="32.8571" rx="0.25" transform="rotate(-90 67.1428 40.1936)" fill="#8F8F8F"/>
<rect x="67.1428" y="48.8064" width="2.87097" height="40" rx="0.25" transform="rotate(-90 67.1428 48.8064)" fill="#8F8F8F"/>
<rect x="67.1428" y="55.9839" width="2.87096" height="40" rx="0.25" transform="rotate(-90 67.1428 55.9839)" fill="#8F8F8F"/>
<rect x="67.1428" y="63.1613" width="2.87096" height="40" rx="0.25" transform="rotate(-90 67.1428 63.1613)" fill="#8F8F8F"/>
<rect x="67.1428" y="70.3387" width="2.87097" height="21.4286" rx="0.25" transform="rotate(-90 67.1428 70.3387)" fill="#8F8F8F"/>
<ellipse cx="12.8571" cy="12.9193" rx="2.85714" ry="2.87097" fill="#8F8F8F"/>
<ellipse cx="21.4287" cy="12.9193" rx="2.85714" ry="2.87097" fill="#8F8F8F"/>
<ellipse cx="30" cy="12.9193" rx="2.85714" ry="2.87097" fill="#8F8F8F"/>
<mask id="path-11-inside-2" fill="white">
<rect x="13" y="32" width="47" height="41.7" rx="2"/>
</mask>
<rect x="13" y="32" width="47" height="41.7" rx="2" fill="#EFEFEF" stroke="#8F8F8F" stroke-width="6" mask="url(#path-11-inside-2)"/>
<path d="M34.1429 48.2473L43.8571 57.4344V58.3548V71.7097H24.4286V58.3548V57.4344L34.1429 48.2473Z" fill="white" stroke="#8F8F8F" stroke-width="2"/>
<mask id="path-13-inside-3" fill="white">
<path d="M43.4285 48.2857C43.4285 45.9188 45.3472 44 47.7142 44V44C50.0811 44 51.9999 45.9188 51.9999 48.2857V72.4597C51.9999 72.5978 51.888 72.7097 51.7499 72.7097H43.6785C43.5404 72.7097 43.4285 72.5978 43.4285 72.4597V48.2857Z"/>
</mask>
<path d="M43.4285 48.2857C43.4285 45.9188 45.3472 44 47.7142 44V44C50.0811 44 51.9999 45.9188 51.9999 48.2857V72.4597C51.9999 72.5978 51.888 72.7097 51.7499 72.7097H43.6785C43.5404 72.7097 43.4285 72.5978 43.4285 72.4597V48.2857Z" fill="white" stroke="#8F8F8F" stroke-width="4" mask="url(#path-13-inside-3)"/>
<mask id="path-14-inside-4" fill="white">
<rect x="29.1428" y="62.6613" width="10" height="8.61291" rx="0.25"/>
</mask>
<rect x="29.1428" y="62.6613" width="10" height="8.61291" rx="0.25" stroke="#8F8F8F" stroke-width="2" mask="url(#path-14-inside-4)"/>
<mask id="path-15-inside-5" fill="white">
<rect x="30.5715" y="56.9193" width="7.14286" height="2.87097" rx="0.25"/>
</mask>
<rect x="30.5715" y="56.9193" width="7.14286" height="2.87097" rx="0.25" stroke="#8F8F8F" stroke-width="2" mask="url(#path-15-inside-5)"/>
<line y1="-0.5" x2="11.1797" y2="-0.5" transform="matrix(0.766699 0.642007 -0.63836 0.769738 29.1428 64.0968)" stroke="#8F8F8F"/>
<path d="M45 54H50" stroke="#8F8F8F"/>
<path d="M45 61H50" stroke="#8F8F8F"/>
<line y1="-0.5" x2="11.1797" y2="-0.5" transform="matrix(-0.766699 0.642007 0.63836 0.769738 39.1428 64.0968)" stroke="#8F8F8F"/>
</svg>
