<svg width="104" height="81" viewBox="0 0 104 81" fill="none" xmlns="http://www.w3.org/2000/svg">
<path d="M63.8213 24.0667C56.8904 25.8411 33.9109 28.3294 31.5778 37.0802C31.2622 38.2488 31.7882 39.5767 32.5246 40.3203C38.0549 46.1044 66.5 41 84.5 45.5C95.7168 48.3042 100.588 57.5832 100.273 63.2667" stroke="#4FB573" stroke-width="3" stroke-miterlimit="10" stroke-linecap="round"/>
<path d="M2 25.5C19 12.5 48.597 14.7899 64.0234 24.0667" stroke="#4FB573" stroke-width="3" stroke-miterlimit="10" stroke-linecap="round"/>
<path d="M56.5859 32.4667C56.5859 32.4667 71.9639 16.2886 81.6542 13.8244C86.9206 12.4315 95.6102 12.753 102.141 13.5565" stroke="#4FB573" stroke-width="3" stroke-miterlimit="10" stroke-linecap="round"/>
<path d="M37.6444 11.2667C37.8554 10.6216 37.9609 9.97662 37.9609 9.27784C37.9609 5.89145 35.2701 3.09633 31.8934 3.09633C30.9437 3.09633 30.0995 3.31134 29.3081 3.68761C27.8308 2.02129 25.6676 1 23.2933 1C20.0222 1 17.2258 2.93508 15.9595 5.78394C15.5375 5.62269 15.1154 5.56894 14.6933 5.56894C12.6356 5.56894 11 7.23526 11 9.33159C11 10.0304 11.211 10.7291 11.5276 11.2667H37.6444Z" stroke="#4FB573" stroke-width="2" stroke-miterlimit="10" stroke-linecap="round" stroke-linejoin="round"/>
<path d="M26.9408 49.2667C36.1373 51.644 62.2189 48.7259 66 58.5C70.3626 70.003 24.3732 77.6596 17.5391 79.1333" stroke="#4FB573" stroke-width="3" stroke-miterlimit="10" stroke-linecap="round"/>
<path d="M62.1641 23.1333C49 23.1333 32.2844 24.8526 22.5 34.5" stroke="#4FB573" stroke-width="3" stroke-miterlimit="10" stroke-linecap="round"/>
<path d="M33.0625 48.0938C33.0625 54.9826 27.1844 60.6875 19.7812 60.6875C12.3781 60.6875 6.5 54.9826 6.5 48.0938C6.5 41.2049 12.3781 35.5 19.7812 35.5C27.1844 35.5 33.0625 41.2049 33.0625 48.0938Z" fill="#DCF0E3" stroke="#4FB573" stroke-width="3"/>
<path d="M29.1011 49.2394C29.5607 48.9331 29.6701 48.3226 29.3454 47.8758C29.0208 47.429 28.385 47.3152 27.9255 47.6215L29.1011 49.2394ZM20.2192 55.1592L29.1011 49.2394L27.9255 47.6215L19.0435 53.5412L20.2192 55.1592Z" fill="#4FB573"/>
<path d="M10.2304 49.2394C9.77084 48.9331 9.66148 48.3226 9.98613 47.8758C10.3108 47.429 10.9465 47.3152 11.4061 47.6215L10.2304 49.2394ZM19.1124 55.1592L10.2304 49.2394L11.4061 47.6215L20.288 53.5412L19.1124 55.1592Z" fill="#4FB573"/>
<path d="M20.5 43C20.5 42.1716 19.8284 41.5 19 41.5C18.1716 41.5 17.5 42.1716 17.5 43L20.5 43ZM20.5 79L20.5 43L17.5 43L17.5 79L20.5 79Z" fill="#4FB573"/>
<path d="M90.5 23.5C90.5 27.8467 86.7678 31.5 82 31.5C77.2322 31.5 73.5 27.8467 73.5 23.5C73.5 19.1533 77.2322 15.5 82 15.5C86.7678 15.5 90.5 19.1533 90.5 23.5Z" fill="#DCF0E3" stroke="#4FB573" stroke-width="3"/>
<path d="M83.5 20C83.5 19.1716 82.8284 18.5 82 18.5C81.1716 18.5 80.5 19.1716 80.5 20L83.5 20ZM83.5 44L83.5 20L80.5 20L80.5 44L83.5 44Z" fill="#4FB573"/>
<path d="M87.0004 25.1136C87.4599 24.8073 87.5693 24.1968 87.2447 23.75C86.92 23.3032 86.2843 23.1893 85.8247 23.4956L87.0004 25.1136ZM82.5873 28.0548L87.0004 25.1136L85.8247 23.4956L81.4117 26.4369L82.5873 28.0548Z" fill="#4FB573"/>
<path d="M77.0328 25.1136C76.5733 24.8073 76.4639 24.1968 76.7885 23.75C77.1132 23.3032 77.7489 23.1893 78.2085 23.4956L77.0328 25.1136ZM81.4459 28.0548L77.0328 25.1136L78.2085 23.4956L82.6215 26.4369L81.4459 28.0548Z" fill="#4FB573"/>
</svg>
