<svg width="116" height="88" viewBox="0 0 116 88" fill="none" xmlns="http://www.w3.org/2000/svg">
<path d="M33.0771 77.247C33.9988 70.5346 29.8108 69.3629 29.8108 69.3629" stroke="#4FB573" stroke-width="3" stroke-miterlimit="10" stroke-linecap="round"/>
<path d="M36.8855 75.8852C37.7434 69.6399 40.8342 68.9413 40.8342 68.9413L36.8855 75.8852Z" fill="white"/>
<path d="M36.8855 75.8852C37.7434 69.6399 40.8342 68.9413 40.8342 68.9413" stroke="#4FB573" stroke-width="3" stroke-miterlimit="10" stroke-linecap="round"/>
<path d="M56.7774 85.5866C56.7774 77.7439 51.7893 77.0583 51.7893 77.0583" stroke="#4FB573" stroke-width="3" stroke-miterlimit="10" stroke-linecap="round"/>
<path d="M60.1802 83.7198C60.1802 78.9808 62.4105 78.1465 62.4105 78.1465L60.1802 83.7198Z" fill="white"/>
<path d="M60.1802 83.7198C60.1802 78.9808 62.4105 78.1465 62.4105 78.1465" stroke="#4FB573" stroke-width="3" stroke-miterlimit="10" stroke-linecap="round"/>
<path d="M85.9724 77.4405C85.9724 69.5978 90.9604 68.9122 90.9604 68.9122" stroke="#4FB573" stroke-width="3" stroke-miterlimit="10" stroke-linecap="round"/>
<path d="M82.5694 73.5371C82.5694 68.7981 80.3391 67.9638 80.3391 67.9638L82.5694 73.5371Z" fill="white"/>
<path d="M82.5694 73.5371C82.5694 68.7981 80.3391 67.9638 80.3391 67.9638" stroke="#4FB573" stroke-width="3" stroke-miterlimit="10" stroke-linecap="round"/>
<path d="M109.871 59.5251C109.871 53.423 105.989 52.8895 105.989 52.8895" stroke="#4FB573" stroke-width="3" stroke-miterlimit="10" stroke-linecap="round"/>
<path d="M112.518 54.6768C112.518 50.9894 114.253 50.3404 114.253 50.3404L112.518 54.6768Z" fill="white"/>
<path d="M112.518 54.6768C112.518 50.9894 114.253 50.3404 114.253 50.3404" stroke="#4FB573" stroke-width="3" stroke-miterlimit="10" stroke-linecap="round"/>
<path d="M4.88608 71.766C4.62981 65.0516 1.89038 62.3932 1.89038 62.3932" stroke="#4FB573" stroke-width="3" stroke-miterlimit="10" stroke-linecap="round"/>
<path d="M8.39158 74.3002C8.28086 72.089 8.66078 69.8807 9.50416 67.8333C10.3475 65.7858 11.6335 63.9497 13.2702 62.4564" stroke="#4FB573" stroke-width="3" stroke-miterlimit="10" stroke-linecap="round"/>
<path d="M66.8595 64.9307C67.3068 63.0522 67.2637 61.0904 66.7341 59.2333C66.2046 57.3762 65.2064 55.6859 63.8352 54.3245" stroke="#4FB573" stroke-width="3" stroke-miterlimit="10" stroke-linecap="round"/>
<path d="M70.6269 66.4684C70.2376 64.2889 70.3353 62.0505 70.9131 59.9131C71.4909 57.7757 72.5345 55.7923 73.9693 54.1046" stroke="#4FB573" stroke-width="3" stroke-miterlimit="10" stroke-linecap="round"/>
<path d="M79.5 32.3077L75 30L68.2667 31.6538L60 32.3077L62.7556 34.9231L66.2 38.8462L67.5778 44.0769L73.7778 48L80.6667 46.6923L82.7333 40.1538L87.5556 36.2308L91 32.3077L85.5 31L79.5 32.3077Z" fill="#DCF0E3"/>
<path d="M89.9085 32.6124C88.9038 31.6098 87.5858 30.9806 86.1735 30.8296C84.7611 30.6786 83.3396 31.0147 82.145 31.7822C82.041 31.6125 81.9336 31.4469 81.8174 31.2853C81.1936 31.7057 80.4669 31.9486 79.7154 31.988C78.9639 32.0274 78.2158 31.8618 77.5513 31.5089C76.8868 31.156 76.331 30.6292 75.9435 29.985C75.556 29.3407 75.3513 28.6033 75.3515 27.8517C75.3515 27.7159 75.3597 27.5802 75.3726 27.4498C75.2271 27.4417 75.0819 27.4376 74.9369 27.4376C74.7914 27.4376 74.6466 27.4417 74.5012 27.4498C74.5141 27.5822 74.5222 27.7146 74.5222 27.8517C74.5218 28.6035 74.3165 29.3409 73.9286 29.9851C73.5406 30.6293 72.9845 31.156 72.3197 31.5088C71.655 31.8615 70.9067 32.0271 70.155 31.9877C69.4033 31.9484 68.6764 31.7056 68.0523 31.2853C67.9401 31.4469 67.828 31.6166 67.7287 31.7863C66.534 31.0173 65.1116 30.6801 63.6983 30.8307C62.285 30.9812 60.9659 31.6105 59.9604 32.6138" stroke="#4FB573" stroke-width="3" stroke-linecap="round" stroke-linejoin="round"/>
<path d="M59.9573 32.8195C60.4604 34.0085 61.3219 35.0114 62.4221 35.6888C63.5223 36.3662 64.8065 36.6844 66.0962 36.5993C66.0427 37.0626 66.0164 37.5286 66.0173 37.995C66.0173 43.8269 70.0068 48.5564 74.9344 48.5564C79.862 48.5564 83.8515 43.8269 83.8515 37.995C83.8524 37.5286 83.8261 37.0626 83.7726 36.5993V36.5993C85.0618 36.6839 86.3453 36.3654 87.4449 35.688C88.5444 35.0106 89.4054 34.008 89.9081 32.8195" stroke="#4FB573" stroke-width="3" stroke-linecap="round" stroke-linejoin="round"/>
<path d="M72.6511 37.3752C73.2237 37.3752 73.6878 36.9117 73.6878 36.34C73.6878 35.7682 73.2237 35.3047 72.6511 35.3047C72.0786 35.3047 71.6145 35.7682 71.6145 36.34C71.6145 36.9117 72.0786 37.3752 72.6511 37.3752Z" fill="#4FB573"/>
<path d="M77.2136 37.3752C77.7862 37.3752 78.2503 36.9117 78.2503 36.34C78.2503 35.7682 77.7862 35.3047 77.2136 35.3047C76.6411 35.3047 76.177 35.7682 76.177 36.34C76.177 36.9117 76.6411 37.3752 77.2136 37.3752Z" fill="#4FB573"/>
<path d="M84.8208 46.9903V53.9077C84.8208 54.5378 84.5701 55.1422 84.124 55.5877C83.6778 56.0333 83.0726 56.2836 82.4417 56.2836C81.8107 56.2836 81.2055 56.0333 80.7594 55.5877C80.3132 55.1422 80.0625 54.5378 80.0625 53.9077V47.4587C80.8986 48.1172 82.0134 47.513 83.2098 47.418C83.7683 47.3741 84.3142 47.2292 84.8208 46.9903V46.9903Z" stroke="#4FB573" stroke-width="3" stroke-linecap="round" stroke-linejoin="round"/>
<path d="M95.0173 46.4812V53.9077C95.0173 54.5379 94.7667 55.1422 94.3205 55.5878C93.8743 56.0334 93.2692 56.2837 92.6382 56.2837C92.0072 56.2837 91.4021 56.0334 90.9559 55.5878C90.5097 55.1422 90.259 54.5379 90.259 53.9077V47.7371C90.7873 47.8558 91.3306 47.8924 91.8701 47.8457C93.0442 47.7622 94.1545 47.2808 95.0173 46.4812V46.4812Z" stroke="#4FB573" stroke-width="3" stroke-linecap="round" stroke-linejoin="round"/>
<path d="M80.7424 46.7799C81.5785 47.4384 82.0135 47.513 83.2099 47.418C83.7684 47.3741 84.3143 47.2292 84.8209 46.9903C85.7346 46.577 86.4667 45.8459 86.8806 44.9335C87.1706 45.6414 87.6303 46.2674 88.2194 46.7563C88.8086 47.2452 89.5089 47.582 90.259 47.7371C90.7872 47.8558 91.3306 47.8924 91.87 47.8457C93.0441 47.7622 94.1545 47.2808 95.0173 46.4812C95.4816 46.0529 95.8506 45.5318 96.1001 44.9518C96.6608 45.2338 97.2753 45.393 97.9025 45.4186C98.5298 45.4441 99.1552 45.3355 99.737 45.0999C100.319 44.8644 100.843 44.5074 101.276 44.0529C101.708 43.5984 102.038 43.0568 102.244 42.4645C103.143 42.2442 103.938 41.72 104.494 40.981C105.05 40.2419 105.333 39.3335 105.295 38.4098C105.276 38.2174 105.242 38.0268 105.193 37.8396C107.953 37.3644 109.958 35.0631 109.754 32.4767C109.656 31.5241 109.284 30.6202 108.684 29.8736C108.083 29.127 107.279 28.5694 106.369 28.2679C107.159 28.1646 107.881 27.7717 108.396 27.1656C108.912 26.5595 109.182 25.7836 109.156 24.9891C109.077 24.2958 108.767 23.649 108.277 23.1519C107.787 22.6548 107.144 22.3361 106.451 22.2466C106.41 21.9207 106.362 21.6016 106.308 21.2758C107.507 20.8512 108.538 20.0521 109.247 18.9969C109.956 17.9417 110.305 16.6866 110.244 15.4174C109.986 12.1997 106.899 9.82374 103.351 10.1021C102.244 10.1868 101.174 10.536 100.231 11.1203C100.095 11.0049 99.9523 10.8895 99.8096 10.7741C100.279 9.96444 100.492 9.03222 100.421 8.09949C100.204 5.34339 97.5596 3.30686 94.5143 3.54445C93.112 3.64752 91.7941 4.25255 90.8028 5.24834C90.3886 4.20123 89.6413 3.31908 88.6759 2.73767C87.7105 2.15627 86.5805 1.90785 85.4599 2.03064C82.5845 2.26144 80.4229 4.55593 80.6268 7.1559C80.6336 7.23057 80.6472 7.29845 80.654 7.36634C80.4297 7.43422 80.2122 7.5021 79.9946 7.57677C79.7839 6.91601 79.3504 6.34858 78.7679 5.97108C78.1854 5.59358 77.4899 5.42934 76.7998 5.5063C76.0224 5.53236 75.2871 5.86483 74.7546 6.43095C74.2221 6.99707 73.9358 7.75077 73.9584 8.52715C74.0178 9.15418 74.2999 9.73929 74.7537 10.1767C74.3458 10.4551 73.9448 10.747 73.5641 11.0524C72.9474 10.9248 72.3157 10.8859 71.688 10.937C68.3028 11.2018 65.7605 13.9036 66.0052 16.9719C66.096 18.1021 66.5571 19.1709 67.3171 20.0132C66.0159 20.4867 64.9004 21.3634 64.1336 22.5151C63.3668 23.6668 62.9889 25.0332 63.055 26.4146C63.1781 27.8395 63.8074 29.1734 64.8292 30.1754" stroke="#4FB573" stroke-width="3" stroke-linecap="round" stroke-linejoin="round"/>
<path d="M36.4575 54.7753C37.3365 54.9643 38.2544 54.8228 39.0353 54.3779C39.8163 53.9329 40.4054 53.2159 40.6897 52.3641" stroke="#4FB573" stroke-width="3" stroke-linecap="round" stroke-linejoin="round"/>
<path d="M49.5 45L46 43L41.5 43.5L35.5 44L37.5 46L40 49L41 53L45.5 56L50.5 55L52 50L55.5 47L58 44H54L49.5 45Z" fill="#DCF0E3"/>
<path d="M56.9514 44.5845C56.2292 43.8635 55.2816 43.4111 54.2662 43.3024C53.2508 43.1937 52.2287 43.4353 51.3699 43.9872V43.9872C51.2952 43.865 51.2177 43.7462 51.1347 43.6301C50.6862 43.9324 50.1638 44.107 49.6235 44.1353C49.0831 44.1636 48.5453 44.0445 48.0676 43.7908C47.5898 43.5371 47.1903 43.1582 46.9118 42.695C46.6333 42.2317 46.4862 41.7015 46.4865 41.1611C46.4865 41.0634 46.492 40.9677 46.5015 40.8726C46.3968 40.8665 46.2921 40.8638 46.1881 40.8638C46.0841 40.8638 45.9795 40.8638 45.8748 40.8726C45.8846 40.9685 45.8896 41.0648 45.8897 41.1611C45.8896 41.7016 45.7423 42.2319 45.4635 42.6952C45.1847 43.1585 44.7849 43.5372 44.307 43.7909C43.8291 44.0446 43.291 44.1637 42.7506 44.1354C42.2101 44.107 41.6875 43.9324 41.2388 43.6301C41.1579 43.7462 41.0777 43.8684 41.0064 43.9899C40.1475 43.437 39.125 43.1945 38.109 43.3028C37.0929 43.4112 36.1447 43.8637 35.4221 44.5852" stroke="#4FB573" stroke-width="3" stroke-linecap="round" stroke-linejoin="round"/>
<path d="M35.4202 44.7346C35.7821 45.5889 36.4016 46.3095 37.1924 46.7961C37.9833 47.2827 38.9063 47.5113 39.8332 47.4499V47.4499C39.7947 47.783 39.7759 48.118 39.7767 48.4533C39.7767 52.6451 42.6446 56.0461 46.1869 56.0461C49.7291 56.0461 52.597 52.6451 52.597 48.4533C52.5979 48.118 52.579 47.783 52.5406 47.4499V47.4499C53.467 47.5107 54.3894 47.2819 55.1797 46.7953C55.97 46.3087 56.5891 45.5885 56.9508 44.7346" stroke="#4FB573" stroke-width="3" stroke-linecap="round" stroke-linejoin="round"/>
<path d="M44.546 48.0107C44.9578 48.0107 45.2917 47.6772 45.2917 47.266C45.2917 46.8547 44.9578 46.5213 44.546 46.5213C44.1342 46.5213 43.8003 46.8547 43.8003 47.266C43.8003 47.6772 44.1342 48.0107 44.546 48.0107Z" fill="#4FB573"/>
<path d="M47.8258 48.0107C48.2376 48.0107 48.5715 47.6772 48.5715 47.266C48.5715 46.8547 48.2376 46.5213 47.8258 46.5213C47.4139 46.5213 47.0801 46.8547 47.0801 47.266C47.0801 47.6772 47.4139 48.0107 47.8258 48.0107Z" fill="#4FB573"/>
<path d="M26.6846 52.5351C26.8813 52.9933 27.1864 53.397 27.5737 53.7116C27.8962 53.9753 28.2676 54.173 28.6666 54.2934C29.0656 54.4138 29.4845 54.4545 29.8993 54.4132C30.314 54.3719 30.7166 54.2494 31.084 54.0527C31.4514 53.8561 31.7764 53.589 32.0404 53.2669C32.119 53.1731 32.1908 53.0737 32.2552 52.9696C32.5142 52.994 32.7779 53.0083 33.0369 53.0137" stroke="#4FB573" stroke-width="3" stroke-linecap="round" stroke-linejoin="round"/>
<path d="M25.7968 53.3382C24.8878 53.6303 23.9052 53.5962 23.0187 53.2418C21.4314 52.5711 20.9386 50.9684 21.9025 49.6528C21.7951 49.5747 21.6829 49.4973 21.5803 49.4186C20.1666 49.9836 18.5899 49.9865 17.1741 49.4267C14.8921 48.4655 14.1879 46.1533 15.5991 44.2634C16.0273 43.7048 16.5707 43.2446 17.1924 42.9139C17.1814 42.8746 17.1728 42.8347 17.1666 42.7944C16.6972 42.8094 16.2299 42.725 15.7955 42.5466C15.4904 42.4516 15.2131 42.2835 14.9879 42.057C14.7627 41.8305 14.5964 41.5524 14.5034 41.247C14.4105 40.9416 14.3937 40.6181 14.4546 40.3047C14.5155 39.9914 14.6521 39.6976 14.8527 39.4491C15.134 39.0996 15.4827 38.81 15.8782 38.5978C16.2737 38.3856 16.708 38.2549 17.1551 38.2136C17.1884 38.0609 17.2169 37.9095 17.2604 37.7595C17.2439 37.7544 17.2277 37.748 17.2122 37.7404C15.6147 37.0677 15.1192 35.4494 16.1069 34.1263C16.449 33.7044 16.8748 33.3576 17.3574 33.1076C17.84 32.8576 18.3691 32.7099 18.9116 32.6736C18.827 32.2721 18.8326 31.857 18.9278 31.4579C19.023 31.0588 19.2055 30.6858 19.4622 30.3655C19.921 29.8052 20.4995 29.3546 21.1554 29.0466C21.8112 28.7386 22.5278 28.5811 23.2525 28.5856C23.1936 28.3014 23.1979 28.0078 23.2651 27.7255C23.3323 27.4431 23.4607 27.179 23.6413 26.9516C24.1184 26.3834 24.7631 25.9801 25.4833 25.7993C26.2034 25.6185 26.9624 25.6695 27.6519 25.9449C27.8978 26.0479 28.1269 26.187 28.3316 26.3576C28.3764 25.8966 28.55 25.4574 28.8326 25.0902C29.3895 24.4266 30.1421 23.9557 30.983 23.7447C31.8238 23.5337 32.7099 23.5933 33.5148 23.9152C33.8403 24.0386 34.1374 24.2265 34.3883 24.4675C34.6392 24.7085 34.8388 24.9977 34.9749 25.3176C35.4846 25.0233 36.054 24.8471 36.641 24.8022C37.228 24.7573 37.8176 24.8449 38.3662 25.0583C38.6775 25.177 38.9608 25.3589 39.198 25.5926C39.4352 25.8263 39.6212 26.1067 39.7441 26.416C40.0949 26.4954 40.4483 26.5891 40.7971 26.6875C41.3727 26.2216 42.0619 25.9166 42.7942 25.8036C43.5265 25.6907 44.2757 25.7739 44.9653 26.0447C45.272 26.1411 45.5549 26.301 45.7956 26.5138C46.0363 26.7267 46.2294 26.9878 46.3623 27.2801C46.4952 27.5725 46.565 27.8895 46.5671 28.2106C46.5692 28.5316 46.5036 28.8496 46.3745 29.1436C47.3533 28.8318 48.4101 28.8678 49.3654 29.2454C51.0757 29.9684 51.6086 31.7042 50.5455 33.1209C50.4539 33.2408 50.3542 33.3542 50.247 33.4604C50.661 33.4787 51.0688 33.5683 51.4523 33.7251C51.7824 33.829 52.0822 34.0118 52.3257 34.2575C52.5691 34.5033 52.7489 34.8047 52.8493 35.1355C52.9498 35.4664 52.9679 35.8167 52.9021 36.1561C52.8364 36.4955 52.6887 36.8138 52.4719 37.0833C52.0715 37.5953 51.5317 37.9812 50.9173 38.1946C50.9173 38.4845 50.9118 38.7709 50.8921 39.0601C51.4385 39.4471 51.861 39.9838 52.1084 40.6054C52.3558 41.2271 52.4176 41.907 52.2863 42.5629" stroke="#4FB573" stroke-width="3" stroke-linecap="round" stroke-linejoin="round"/>
<path d="M26.6846 53.5113V59.4064C26.6846 59.8595 26.5044 60.294 26.1836 60.6143C25.8628 60.9347 25.4277 61.1147 24.974 61.1147C24.5203 61.1147 24.0853 60.9347 23.7645 60.6143C23.4436 60.294 23.2634 59.8595 23.2634 59.4064V53.7842" stroke="#4FB573" stroke-width="3" stroke-linecap="round" stroke-linejoin="round"/>
<path d="M36.4574 54.7753V59.4064C36.4574 59.8593 36.2772 60.2938 35.9565 60.6141C35.6358 60.9344 35.2007 61.1143 34.7471 61.1143C34.2935 61.1143 33.8585 60.9344 33.5378 60.6141C33.2171 60.2938 33.0369 59.8593 33.0369 59.4064V53.0137C33.3767 53.0232 33.7064 53.028 34.0436 53.0185C34.2641 53.4034 34.5521 53.7455 34.894 54.0286C35.3459 54.4018 35.8828 54.6583 36.4574 54.7753V54.7753Z" stroke="#4FB573" stroke-width="3" stroke-linecap="round" stroke-linejoin="round"/>
</svg>
