<svg width="150" height="150" viewBox="0 0 150 150" fill="none" xmlns="http://www.w3.org/2000/svg">
<circle cx="75" cy="75" r="75" fill="#DCF0E3"/>
<g clip-path="url(#clip0)">
<rect x="81.001" y="74.4648" width="17.2407" height="9.24359" transform="rotate(45 81.001 74.4648)" fill="white" stroke="#4FB573" stroke-width="4" stroke-miterlimit="10"/>
<path d="M55.9775 86.7357C72.9647 86.7357 86.7357 72.9647 86.7357 55.9775C86.7357 38.9902 72.9647 25.2192 55.9775 25.2192C38.9902 25.2192 25.2192 38.9902 25.2192 55.9775C25.2192 72.9647 38.9902 86.7357 55.9775 86.7357Z" fill="white" stroke="#4FB573" stroke-width="3" stroke-miterlimit="10"/>
<path d="M55.9774 78.707C68.5306 78.707 78.707 68.5306 78.707 55.9774C78.707 43.4242 68.5306 33.2478 55.9774 33.2478C43.4242 33.2478 33.2478 43.4242 33.2478 55.9774C33.2478 68.5306 43.4242 78.707 55.9774 78.707Z" fill="#DCF0E3" stroke="#4FB573" stroke-width="2" stroke-miterlimit="10"/>
<mask id="path-5-outside-1" maskUnits="userSpaceOnUse" x="39.8076" y="46.4102" width="33" height="20" fill="black">
<rect fill="white" x="39.8076" y="46.4102" width="33" height="20"/>
<path fill-rule="evenodd" clip-rule="evenodd" d="M41.8076 56.3332C44.8351 51.5704 50.1584 48.4102 56.2199 48.4102C62.2814 48.4102 67.6048 51.5704 70.6322 56.3332C67.6048 61.096 62.2814 64.2563 56.2199 64.2563C50.1584 64.2563 44.8351 61.096 41.8076 56.3332Z"/>
</mask>
<path fill-rule="evenodd" clip-rule="evenodd" d="M41.8076 56.3332C44.8351 51.5704 50.1584 48.4102 56.2199 48.4102C62.2814 48.4102 67.6048 51.5704 70.6322 56.3332C67.6048 61.096 62.2814 64.2563 56.2199 64.2563C50.1584 64.2563 44.8351 61.096 41.8076 56.3332Z" fill="white"/>
<path d="M41.8076 56.3332L40.1197 55.2603C39.7036 55.9151 39.7036 56.7514 40.1197 57.4061L41.8076 56.3332ZM70.6322 56.3332L72.3201 57.4061C72.7363 56.7514 72.7363 55.9151 72.3201 55.2603L70.6322 56.3332ZM43.4955 57.4061C46.1714 53.1964 50.871 50.4102 56.2199 50.4102V46.4102C49.4459 46.4102 43.4987 49.9445 40.1197 55.2603L43.4955 57.4061ZM56.2199 50.4102C61.5689 50.4102 66.2685 53.1964 68.9444 57.4061L72.3201 55.2603C68.9411 49.9445 62.994 46.4102 56.2199 46.4102V50.4102ZM68.9444 55.2603C66.2685 59.4701 61.5689 62.2563 56.2199 62.2563V66.2563C62.994 66.2563 68.9411 62.7219 72.3201 57.4061L68.9444 55.2603ZM56.2199 62.2563C50.871 62.2563 46.1714 59.4701 43.4955 55.2603L40.1197 57.4061C43.4987 62.7219 49.4459 66.2563 56.2199 66.2563V62.2563Z" fill="#4FB573" mask="url(#path-5-outside-1)"/>
<rect x="95.0076" y="84.9387" width="38.7973" height="14.2396" rx="2" transform="rotate(45 95.0076 84.9387)" fill="white" stroke="#4FB573" stroke-width="4" stroke-miterlimit="10"/>
<path d="M56.3333 62.6154C59.8028 62.6154 62.6154 59.8028 62.6154 56.3333C62.6154 52.8638 59.8028 50.0513 56.3333 50.0513C52.8638 50.0513 50.0513 52.8638 50.0513 56.3333C50.0513 59.8028 52.8638 62.6154 56.3333 62.6154Z" fill="#DCF0E3" stroke="#4FB573" stroke-width="2" stroke-linejoin="round"/>
</g>
<defs>
<clipPath id="clip0">
<rect width="103" height="103" fill="white" transform="translate(22 22)"/>
</clipPath>
</defs>
</svg>
