<svg width="150" height="150" viewBox="0 0 150 150" fill="none" xmlns="http://www.w3.org/2000/svg">
<circle cx="75" cy="75" r="75" fill="#DCF0E3"/>
<path d="M69.5726 56L59 68.8333L64.0565 72.0417L74.629 67.4583H84.2823L106.347 89H114.621L116 64.25H100.831L90.7177 56H69.5726Z" fill="white"/>
<path d="M56.5217 77L44 88.1486V93.5H49.5652L51.4203 98.8514H56.5217L58.8406 104.203H64.8696L66.7246 108.216L70.4348 110L76 105.541L74.6087 100.635L70.4348 98.8514L69.0435 93.5L64.8696 92.1622V86.3649L60.6957 83.6892L61.6232 79.6757L56.5217 77Z" fill="white"/>
<g clip-path="url(#clip0)">
<path d="M59.88 84.413L50.6807 93.4691C48.968 95.1641 46.2278 95.1641 44.5152 93.4691C42.8026 91.7741 42.8026 89.0621 44.5152 87.3671L53.6655 78.311C55.3782 76.616 58.1184 76.616 59.831 78.311C61.5437 80.006 61.5437 82.718 59.88 84.413Z" stroke="#4FB573" stroke-width="3" stroke-miterlimit="10" stroke-linejoin="round"/>
<path d="M64.6753 91.8225L57.678 98.6993C55.9653 100.394 53.2251 100.394 51.5125 98.6993C49.7999 97.0043 49.7999 94.2923 51.5125 92.5974L58.5098 85.6721C60.2225 83.9771 62.9627 83.9771 64.6753 85.6721C66.3879 87.3671 66.3879 90.1275 64.6753 91.8225Z" stroke="#4FB573" stroke-width="3" stroke-miterlimit="10" stroke-linejoin="round"/>
<path d="M123.786 62.9109V91.2898" stroke="#4FB573" stroke-width="2" stroke-miterlimit="10" stroke-linejoin="round"/>
<path d="M113.51 64.0731H107.638H102.891C102.06 64.0731 101.277 63.831 100.592 63.3467L91.0498 56.4215C90.3648 55.9372 89.5819 55.6951 88.75 55.6951H70.3514L57.9226 68.1411C57.9226 68.1411 59.2927 72.0638 64.0881 72.4512C68.8835 72.8387 74.315 67.3663 74.315 67.3663H85.4715L105.681 87.4155C107.393 89.1105 107.393 91.8225 105.681 93.5175C103.968 95.2125 101.228 95.2125 99.5151 93.5175L87.0374 81.1199" stroke="#4FB573" stroke-width="3" stroke-miterlimit="10" stroke-linecap="round" stroke-linejoin="round"/>
<path d="M75.6362 106.303L77.3978 108.046C79.1104 109.741 81.8506 109.741 83.5632 108.046C85.2759 106.351 85.2759 103.639 83.5632 101.944L74.1682 92.4522L85.2269 103.591C86.9396 105.286 89.6798 105.286 91.3924 103.591C93.105 101.896 93.105 99.1837 91.3924 97.4887L92.5668 98.651C94.2794 100.346 97.0196 100.346 98.7323 98.651C100.445 96.956 100.445 94.244 98.7323 92.549L91.7349 85.6238" stroke="#4FB573" stroke-width="3" stroke-miterlimit="10" stroke-linecap="round" stroke-linejoin="round"/>
<path d="M80.3826 86.6892L91.5392 97.6824" stroke="#4FB573" stroke-width="3" stroke-miterlimit="10" stroke-linecap="round" stroke-linejoin="round"/>
<path d="M68.9814 99.7162L65.0178 103.639C63.3052 105.334 60.565 105.334 58.8523 103.639C57.1397 101.944 57.1397 99.2319 58.8523 97.5369L62.8159 93.6143C64.5285 91.9193 67.2687 91.9193 68.9814 93.6143C70.694 95.3092 70.694 98.0212 68.9814 99.7162Z" stroke="#4FB573" stroke-width="3" stroke-miterlimit="10" stroke-linejoin="round"/>
<path d="M74.6085 106.303L72.8469 108.046C71.1343 109.741 68.3941 109.741 66.6814 108.046C64.9688 106.351 64.9688 103.639 66.6814 101.944L68.443 100.201C70.1556 98.5057 72.8959 98.5057 74.6085 100.201C76.2722 101.896 76.2722 104.656 74.6085 106.303Z" stroke="#4FB573" stroke-width="3" stroke-miterlimit="10" stroke-linejoin="round"/>
<path d="M113.51 89.3528H107.638" stroke="#4FB573" stroke-width="3" stroke-miterlimit="10" stroke-linecap="round" stroke-linejoin="round"/>
<path d="M42.362 89.3528H35.854" stroke="#4FB573" stroke-width="3" stroke-miterlimit="10" stroke-linecap="round" stroke-linejoin="round"/>
<path d="M35.854 64.0731H42.362H46.717C47.5978 64.0731 48.4786 63.7826 49.1636 63.2499L57.6778 56.5183C58.3629 55.9856 59.2437 55.6951 60.1245 55.6951H70.3513" stroke="#4FB573" stroke-width="3" stroke-miterlimit="10" stroke-linecap="round" stroke-linejoin="round"/>
<rect x="21.25" y="61.5476" width="14" height="29.2381" rx="2.5" fill="white" stroke="#4FB573" stroke-width="3"/>
<rect x="114.75" y="61.5476" width="14" height="29.2381" rx="2.5" stroke="#4FB573" stroke-width="3"/>
<path d="M26.2144 62.9109V91.2898" stroke="#4FB573" stroke-width="2" stroke-miterlimit="10" stroke-linejoin="round"/>
</g>
<defs>
<clipPath id="clip0">
<rect width="110" height="57" fill="white" transform="translate(20 54)"/>
</clipPath>
</defs>
</svg>
