<svg width="89" height="99" viewBox="0 0 89 99" fill="none" xmlns="http://www.w3.org/2000/svg">
<path d="M41.8548 3.58178C42.4088 3.07967 43.0635 2.82861 43.7685 2.82861C44.4736 2.82861 45.1282 3.07967 45.8333 3.58178C54.5457 11.5654 65.6753 16.3355 77.8122 16.3355C78.7234 16.3355 79.5889 16.2899 80.4957 16.2422L80.6324 16.235H80.7835C82.2439 16.235 83.5533 17.3899 83.8051 19.0469C84.4598 23.0638 84.8123 27.2313 84.8123 31.4993C84.8123 61.0235 68.1933 86.1794 44.8764 95.9204C44.5239 96.071 44.1714 96.1213 43.8189 96.1213C43.4664 96.1213 43.1138 96.071 42.7613 95.9204C19.4444 86.1794 2.82544 61.0235 2.82544 31.4993C2.82544 27.2313 3.17796 23.0638 3.83265 19.0469C4.08445 17.4401 5.39382 16.235 6.85428 16.235H7.00536C7.96221 16.2852 8.8687 16.3355 9.82555 16.3355C21.9624 16.3355 33.0921 11.5654 41.8548 3.58178Z" fill="white" stroke="#8F8F8F" stroke-width="3"/>
<path d="M11.7087 24.7534L11.7087 24.7534L11.7097 24.7473C11.851 23.8546 12.5665 23.2891 13.2211 23.2891H13.3201C13.3514 23.2908 13.3828 23.2924 13.4141 23.294C14.1584 23.3328 14.8981 23.3713 15.6785 23.3713C25.985 23.3713 35.4235 19.3602 42.8381 12.6743C43.1164 12.4251 43.421 12.3143 43.752 12.3143C44.0614 12.3143 44.3926 12.4117 44.8361 12.7153C52.2035 19.3776 61.6248 23.3713 71.9088 23.3713C72.6885 23.3713 73.4263 23.3329 74.1688 23.2943L74.1803 23.2937L74.2673 23.2891H74.3663C75.0335 23.2891 75.7363 23.8263 75.877 24.7427L75.8769 24.7427L75.8787 24.7534C76.4115 27.9892 76.6984 31.3465 76.6984 34.7848C76.6984 58.5844 63.1657 78.7907 44.2862 86.5972L44.2789 86.6003C44.1406 86.6588 43.9885 86.6858 43.7937 86.6858C43.5989 86.6858 43.4468 86.6588 43.3085 86.6003L43.3011 86.5972C24.4216 78.7907 10.8889 58.5844 10.8889 34.7848C10.8889 31.3465 11.1758 27.9892 11.7087 24.7534Z" stroke="#8F8F8F" stroke-width="2"/>
<path d="M43.8188 63.8353C53.1641 63.8353 60.74 56.2819 60.74 46.9643C60.74 37.6467 53.1641 30.0933 43.8188 30.0933C34.4736 30.0933 26.8977 37.6467 26.8977 46.9643C26.8977 56.2819 34.4736 63.8353 43.8188 63.8353Z" fill="#EFEFEF" stroke="#8F8F8F" stroke-width="2" stroke-miterlimit="10"/>
<path d="M35.1064 50.0774L39.9914 54.9479L52.4808 42.4453" stroke="#8F8F8F" stroke-width="3" stroke-miterlimit="10" stroke-linecap="round" stroke-linejoin="round"/>
</svg>
