<svg width="50" height="9" viewBox="0 0 50 9" fill="none" xmlns="http://www.w3.org/2000/svg">
<g id="BeZero logo" clip-path="url(#clip0_9213_272038)">
<g id="Clip path group">
<mask id="mask0_9213_272038" style="mask-type:luminance" maskUnits="userSpaceOnUse" x="0" y="0" width="50" height="9">
<g id="logo_svg__clip0_510:5914">
<path id="Vector" d="M0 0H49.9463V9H0V0Z" fill="white"/>
</g>
</mask>
<g mask="url(#mask0_9213_272038)">
<g id="Group">
<path id="Vector_2" d="M17.2751 8.74192H13.6053V0.555974H17.2507C18.7502 0.555974 19.6767 1.42897 19.6767 2.76165C19.6757 3.10659 19.576 3.44452 19.3888 3.73809C19.2016 4.03165 18.9342 4.26941 18.616 4.42507C19.5318 4.73152 19.9083 5.49832 19.9083 6.34725C19.9083 7.69207 18.8965 8.74192 17.2751 8.74192ZM14.6416 3.98767H17.2869C17.9209 3.98767 18.6404 3.65737 18.6404 2.74905C18.6404 1.8765 18.0918 1.51065 17.2507 1.51065H14.6418V3.9879L14.6416 3.98767ZM17.2869 4.94392H14.6418V7.77442H17.3237C18.226 7.77442 18.8721 7.24387 18.8721 6.35917C18.8721 5.34442 18.2258 4.94392 17.2869 4.94392ZM26.6986 6.85462C26.2595 8.15197 25.1869 8.88345 23.7362 8.88345C21.933 8.88345 20.5176 7.4916 20.5176 5.7105C20.5176 3.95325 21.9318 2.51415 23.6753 2.51415C25.2967 2.51415 26.8572 3.8115 26.8449 5.96992H21.566C21.7004 7.23217 22.6997 7.97512 23.7362 7.97512C24.626 7.97512 25.2602 7.56225 25.6014 6.85462H26.6986ZM25.6988 5.07352C25.443 4.08262 24.5895 3.42202 23.6753 3.42202C22.8097 3.42202 21.8953 4.0356 21.6269 5.07352H25.6988ZM33.4888 8.74192H27.0518V7.84552L32.1844 1.51155H27.2104V0.555749H33.4644V1.476L28.3697 7.77442H33.49L33.4888 8.74192ZM39.6697 6.85462C39.2311 8.15197 38.1583 8.88345 36.7074 8.88345C34.9042 8.88345 33.489 7.4916 33.489 5.7105C33.489 3.95325 34.903 2.51415 36.6465 2.51415C38.2679 2.51415 39.8283 3.8115 39.816 5.96992H34.5372C34.6711 7.23217 35.6709 7.97512 36.7072 7.97512C37.597 7.97512 38.2309 7.56225 38.5725 6.85462H39.6697ZM38.6704 5.07352C38.4128 4.08262 37.5609 3.42202 36.6465 3.42202C35.7809 3.42202 34.8667 4.0356 34.5986 5.07352H38.6704ZM43.4732 3.51697C42.3881 3.45802 41.4616 4.01242 41.4616 5.2272V8.74192H40.4251V2.66737H41.4249V3.3507C41.9004 2.70202 42.7539 2.44237 43.4732 2.52495V3.51697ZM49.7879 5.72265C49.7879 7.4673 48.4225 8.8839 46.6302 8.8839C44.8504 8.8839 43.473 7.46842 43.473 5.72265C43.473 3.95325 44.8504 2.51437 46.6302 2.51437C48.4225 2.51437 49.7879 3.95325 49.7879 5.72265ZM48.7518 5.72265C48.7518 4.4604 47.8007 3.4344 46.6302 3.4344C45.4723 3.4344 44.5214 4.4604 44.5214 5.72265C44.5214 6.96105 45.4723 7.96365 46.6302 7.96365C47.8007 7.96365 48.7518 6.96105 48.7518 5.72265ZM11.1414 2.0493C11.1416 1.66773 11.025 1.29464 10.8064 0.977077C10.5877 0.659516 10.2768 0.411704 9.91275 0.26489C9.54872 0.118076 9.14792 0.0788355 8.76087 0.152116C8.37382 0.225397 8.01787 0.407918 7.7379 0.676662C7.45793 0.945406 7.26647 1.28834 7.18767 1.66222C7.10888 2.03609 7.14627 2.42417 7.29514 2.77752C7.44401 3.13086 7.69768 3.43364 8.02418 3.64769C8.35067 3.86173 8.73536 3.97745 9.12974 3.98025H3.69555V0.555749H0.15625V4.48965H5.38323L2.84602 8.74192H8.22462L5.68741 4.48965H10.9139V3.98025H9.15811C9.68514 3.97674 10.1894 3.77179 10.5608 3.41007C10.9323 3.04835 11.1411 2.55921 11.1414 2.0493Z" fill="url(#paint0_linear_9213_272038)"/>
</g>
</g>
</g>
</g>
<defs>
<linearGradient id="paint0_linear_9213_272038" x1="24.9721" y1="0.11615" x2="24.2495" y2="9.71001" gradientUnits="userSpaceOnUse">
<stop offset="0.395959"/>
<stop offset="1" stop-color="#5E9078"/>
</linearGradient>
<clipPath id="clip0_9213_272038">
<rect width="50" height="9" fill="white"/>
</clipPath>
</defs>
</svg>
