<svg width="227" height="45" viewBox="0 0 227 45" fill="none" xmlns="http://www.w3.org/2000/svg">
<path d="M12.719 15.4697V34.285H7.58828V15.4697H0.5V10.715H19.7438V15.4697H12.7239H12.719Z" fill="white"/>
<path d="M21.8821 34.3189V10.6811H39.0316V15.368H26.8126V20.1227H37.5476V24.7418H26.8126V29.695H39.1683V34.3141H21.8821V34.3189Z" fill="white"/>
<path d="M54.1795 34.3867C52.4465 31.2298 50.7135 28.0778 48.9805 24.9209C48.1506 24.9306 47.3256 24.9355 46.4957 24.9451C46.5054 28.0778 46.5103 31.2105 46.5201 34.3431C44.7822 34.3528 43.0394 34.3577 41.3015 34.3674C41.2771 26.451 41.2527 18.5346 41.2234 10.6182H51.3237C53.955 10.6182 56.0004 11.3057 57.46 12.6759C58.9197 14.0462 59.6519 15.9587 59.6519 18.4038C59.5592 19.072 59.4616 19.7402 59.3688 20.4132C59.2468 20.8102 59.0173 21.3912 58.5926 22.0062C57.8896 23.0229 57.05 23.5459 56.6594 23.7831C56.2347 24.0446 55.5611 24.3883 54.6579 24.6062C56.5813 27.8696 58.5047 31.1282 60.4281 34.3916H54.1746L54.1795 34.3867ZM53.9403 17.8809C53.9403 17.0675 53.5986 16.1475 52.9347 15.581C52.466 15.1792 51.9388 14.9274 50.8209 14.9177C49.371 14.908 47.926 14.9032 46.4761 14.8935C46.4664 16.7721 46.4615 18.6459 46.4517 20.5246H51.1187C51.4213 20.5246 51.9876 20.5778 52.5685 20.2728C53.4863 19.7838 53.7987 18.7573 53.8329 18.6459C53.8622 18.5442 53.9403 18.2586 53.9403 17.8761V17.8809Z" fill="white"/>
<path d="M75.6641 34.3867C73.9311 31.2298 72.1981 28.0778 70.4651 24.9209C69.6352 24.9306 68.8102 24.9355 67.9803 24.9451C67.99 28.0778 67.9949 31.2105 68.0047 34.3431C66.2668 34.3528 64.524 34.3577 62.7861 34.3674C62.7617 26.451 62.7373 18.5346 62.708 10.6182H72.8083C75.4396 10.6182 77.485 11.3057 78.9447 12.6759C80.4043 14.0462 81.1366 15.9587 81.1366 18.4038L80.8534 20.4132C80.7314 20.8102 80.5019 21.3912 80.0772 22.0062C79.3743 23.0229 78.5346 23.5459 78.1441 23.7831C77.7193 24.0446 77.0457 24.3883 76.1425 24.6062C78.0659 27.8696 79.9894 31.1282 81.9128 34.3916H75.6593L75.6641 34.3867ZM75.4249 17.8809C75.4249 17.0675 75.0832 16.1475 74.4193 15.581C73.9506 15.1792 73.4234 14.9274 72.3055 14.9177C70.8556 14.908 69.4106 14.9032 67.9608 14.8935C67.951 16.7721 67.9461 18.6459 67.9363 20.5246H72.6033C72.906 20.5246 73.4722 20.5778 74.0532 20.2728C74.9709 19.7838 75.2834 18.7573 75.3175 18.6459C75.3468 18.5442 75.4249 18.2586 75.4249 17.8761V17.8809Z" fill="white"/>
<path d="M102.03 34.3867L100.092 29.0898H91.1246L89.1865 34.3867C87.3657 34.3867 85.5448 34.3867 83.7239 34.3867C86.9898 26.4606 90.2556 18.5346 93.5215 10.6036H97.8223C101.059 18.4813 104.3 26.3541 107.537 34.2318C105.701 34.2802 103.866 34.3335 102.03 34.3819V34.3867ZM95.4742 17.2079C94.5418 19.7838 93.6094 22.3596 92.677 24.9403H98.3154C97.3683 22.3644 96.4213 19.7886 95.4742 17.2079Z" fill="white"/>
<path d="M125.448 30.4987C124.252 32.9487 122.055 33.9461 121.24 34.3189C117.413 36.062 113.717 34.6433 112.829 34.3044C110.974 33.5927 109.685 32.5565 108.943 31.8641C110.163 30.5036 111.379 29.143 112.599 27.7825C112.775 28.0149 113.024 28.3054 113.356 28.6007C113.888 29.0752 114.391 29.3512 114.659 29.4868C114.947 29.632 115.68 29.9613 116.666 30.063C117.667 30.1646 119.346 30.3341 120.273 29.2205C120.947 28.4119 121.098 27.0852 120.547 26.2524C120.283 25.8506 119.814 25.5746 118.828 25.2066C117.559 24.7369 116.534 24.4125 116.231 24.3157C114.903 23.8945 114.235 23.6814 113.82 23.4974C113.014 23.1391 112.302 22.8196 111.569 22.132C111.35 21.9287 110.651 21.2363 110.144 20.1033C109.524 18.7137 109.573 17.4984 109.592 17.1837C109.646 16.2783 109.895 15.6149 110.075 15.155C110.285 14.6078 110.681 13.7605 111.408 12.8987C111.618 12.6517 112.624 11.48 114.42 10.6666C115.763 10.0565 116.9 9.93546 117.574 9.86767C117.93 9.83378 119.702 9.674 121.923 10.2889C123.901 10.836 125.36 11.7463 126.278 12.4435C125.038 13.7702 123.793 15.1017 122.553 16.4284C122.241 16.1233 121.958 15.8958 121.728 15.7263C121.596 15.6295 121.401 15.4842 121.123 15.3244C121.123 15.3244 120.796 15.1356 120.464 14.9952C119.868 14.7434 117.447 14.1624 115.982 15.4261C115.577 15.7795 115.401 16.133 115.357 16.225C115.035 16.9222 115.182 17.5807 115.221 17.7308C115.309 18.0843 115.465 18.3312 115.519 18.4135C115.875 18.9509 116.402 19.1979 116.793 19.3625C117.779 19.7741 118.516 19.9048 119.165 20.0936C120.288 20.418 121.294 20.786 122.172 21.1879C123.051 21.5946 123.793 22.0788 124.398 22.6501C124.711 22.9455 124.984 23.265 125.219 23.6136C125.219 23.6136 125.541 24.093 125.765 24.6498C126.029 25.2986 126.722 27.8745 125.443 30.4939L125.448 30.4987Z" fill="white"/>
<path d="M153.205 22.5C153.205 24.2479 152.883 25.8845 152.234 27.4096C151.585 28.9348 150.691 30.276 149.549 31.4284C148.407 32.5807 147.04 33.491 145.458 34.1543C143.876 34.8176 142.148 35.1517 140.274 35.1517C138.399 35.1517 136.681 34.8176 135.109 34.1543C133.537 33.491 132.18 32.5952 131.038 31.4623C129.895 30.3341 129.002 29.0074 128.367 27.4823C127.733 25.9571 127.415 24.3205 127.415 22.5726V22.5049C127.415 20.757 127.737 19.1204 128.387 17.5952C129.031 16.0701 129.929 14.7289 131.072 13.5765C132.214 12.4242 133.581 11.5139 135.163 10.8506C136.744 10.1872 138.472 9.85315 140.347 9.85315C142.222 9.85315 143.94 10.1872 145.512 10.8506C147.084 11.5139 148.441 12.4096 149.583 13.5426C150.726 14.6708 151.619 16.0023 152.254 17.5226C152.888 19.0478 153.205 20.6843 153.205 22.4322V22.5ZM147.601 22.5C147.601 21.4493 147.421 20.4616 147.064 19.5271C146.703 18.5927 146.195 17.7792 145.536 17.0772C144.877 16.3751 144.101 15.8231 143.213 15.4164C142.319 15.0097 141.333 14.8063 140.244 14.8063C139.156 14.8063 138.194 15.0049 137.291 15.4019C136.388 15.7989 135.617 16.346 134.982 17.0481C134.347 17.7502 133.849 18.5588 133.488 19.4787C133.127 20.3987 132.951 21.3864 132.951 22.4371V22.5049C132.951 23.5555 133.132 24.5481 133.488 25.4777C133.845 26.4122 134.357 27.2256 135.016 27.9277C135.675 28.6298 136.456 29.1817 137.359 29.5885C138.262 29.9952 139.244 30.1985 140.308 30.1985C141.372 30.1985 142.383 30 143.276 29.603C144.165 29.206 144.931 28.6588 145.566 27.9568C146.2 27.2547 146.698 26.4461 147.059 25.5262C147.416 24.6062 147.596 23.6185 147.596 22.5678V22.5H147.601Z" fill="white"/>
<path d="M170.37 30.4987C169.174 32.9487 166.977 33.9461 166.162 34.3189C162.335 36.062 158.639 34.6433 157.751 34.3044C155.896 33.5927 154.607 32.5565 153.865 31.8641C155.085 30.5036 156.301 29.143 157.521 27.7825C157.697 28.0149 157.946 28.3054 158.278 28.6007C158.81 29.0752 159.313 29.3512 159.581 29.4868C159.869 29.632 160.602 29.9613 161.588 30.063C162.588 30.1646 164.268 30.3341 165.195 29.2205C165.869 28.4119 166.02 27.0852 165.469 26.2524C165.205 25.8506 164.736 25.5746 163.75 25.2066C162.481 24.7369 161.456 24.4125 161.153 24.3157C159.825 23.8945 159.157 23.6814 158.742 23.4974C157.936 23.1391 157.223 22.8196 156.491 22.132C156.271 21.9287 155.573 21.2363 155.066 20.1033C154.446 18.7137 154.494 17.4984 154.514 17.1837C154.568 16.2783 154.817 15.6149 154.997 15.155C155.207 14.6078 155.603 13.7605 156.33 12.8987C156.54 12.6517 157.546 11.48 159.342 10.6666C160.685 10.0565 161.822 9.93546 162.496 9.86767C162.852 9.83378 164.624 9.674 166.845 10.2889C168.822 10.836 170.282 11.7463 171.2 12.4435C169.96 13.7702 168.715 15.1017 167.475 16.4284C167.163 16.1233 166.879 15.8958 166.65 15.7263C166.518 15.6295 166.323 15.4842 166.045 15.3244C166.045 15.3244 165.718 15.1356 165.386 14.9952C164.79 14.7434 162.369 14.1624 160.904 15.4261C160.499 15.7795 160.323 16.133 160.279 16.225C159.957 16.9222 160.104 17.5807 160.143 17.7308C160.231 18.0843 160.387 18.3312 160.44 18.4135C160.797 18.9509 161.324 19.1979 161.715 19.3625C162.701 19.7741 163.438 19.9048 164.087 20.0936C165.21 20.418 166.216 20.786 167.094 21.1879C167.973 21.5946 168.715 22.0788 169.32 22.6501C169.633 22.9455 169.906 23.265 170.14 23.6136C170.14 23.6136 170.463 24.093 170.687 24.6498C170.951 25.2986 171.644 27.8745 170.365 30.4939L170.37 30.4987Z" fill="white"/>
<path d="M203.815 45C216.343 45 226.5 34.9264 226.5 22.5C226.5 10.0736 216.343 0 203.815 0C191.286 0 181.129 10.0736 181.129 22.5C181.129 34.9264 191.286 45 203.815 45Z" fill="#FFCE18"/>
</svg>
