<svg width="50" height="50" viewBox="0 0 50 50" fill="none" xmlns="http://www.w3.org/2000/svg">
<path fill-rule="evenodd" clip-rule="evenodd" d="M27.85 0.75L45.35 10.35C47.25 11.4 48.45 13.4 48.45 15.6V34.4C48.45 36.6 47.25 38.6 45.35 39.65L27.85 49.25C27 49.75 26 50 25 50C24 50 23 49.75 22.1 49.25L4.6 39.65C2.7 38.6 1.5 36.6 1.5 34.4V15.6C1.5 13.4 2.7 11.4 4.6 10.35L22.1 0.75C23.9 -0.25 26.05 -0.25 27.85 0.75ZM23.05 2.5L5.55 12.1C4.25 12.8 3.5 14.15 3.5 15.6V33.25H12.45V29.45C12.45 28.9 12.9 28.45 13.45 28.45C14 28.45 14.45 28.9 14.45 29.45V33.25H24.3V29.45C24.3 28.9 24.75 28.45 25.3 28.45C25.85 28.45 26.3 28.9 26.3 29.45V33.25H36.3V29.45C36.3 28.9 36.75 28.45 37.3 28.45C37.85 28.45 38.3 28.9 38.3 29.45V33.25H46.45V15.6C46.45 14.15 45.65 12.8 44.35 12.1L26.9 2.5C26.3 2.15 25.65 2 25 2C24.35 2 23.7 2.15 23.05 2.5ZM26.9 47.5L44.4 37.9C45.4405 37.34 46.1205 36.361 46.3535 35.25H3.601C3.8455 36.361 4.5495 37.34 5.55 37.9L23.05 47.5C24.25 48.15 25.7 48.15 26.9 47.5ZM34.2 24.7502C34.05 24.8502 33.85 24.9002 33.65 24.9002C33.35 24.9002 33.05 24.7502 32.85 24.4502C32.5 24.0002 32.65 23.3502 33.1 23.0502L36.6 20.7002C36.95 20.4502 37.4 20.4502 37.75 20.7002L41.1 23.0502C41.55 23.3502 41.65 24.0002 41.35 24.4502C41.05 24.9002 40.4 25.0002 39.95 24.7002L37.15 22.7502L34.2 24.7502ZM34.9 20.15C35.15 20.15 35.35 20.05 35.55 19.9L37.3 18.45L38.95 19.8C39.4 20.15 40 20.1 40.35 19.65C40.7 19.2 40.65 18.6 40.2 18.25L37.9 16.35C37.55 16.05 37 16.05 36.6 16.35L34.25 18.3C33.8 18.65 33.75 19.3 34.1 19.7C34.3 20 34.6 20.15 34.9 20.15ZM37.4 26.9503L33.4 29.4503C32.9 29.7503 32.3 29.6003 31.95 29.1003C31.65 28.6003 31.8 28.0003 32.25 27.7003L36.85 24.8503C37.2 24.6503 37.65 24.6503 38 24.9003L42.1 27.9003C42.55 28.2003 42.7 28.8503 42.35 29.3003C42.15 29.5503 41.85 29.7003 41.55 29.7003C41.35 29.7003 41.15 29.6503 40.95 29.5003L37.4 26.9503ZM21.65 24.9C21.85 24.9 22.05 24.85 22.2 24.75L25.15 22.75L27.95 24.7C28.4 25 29.05 24.9 29.35 24.45C29.65 24 29.55 23.3499 29.1 23.0499L25.75 20.7C25.4 20.45 24.95 20.45 24.6 20.7L21.1 23.0499C20.65 23.3499 20.5 24 20.85 24.45C21 24.75 21.35 24.9 21.65 24.9ZM23.55 19.9C23.35 20.05 23.15 20.15 22.9 20.15C22.6 20.15 22.3 20 22.1 19.7C21.75 19.3 21.8 18.65 22.25 18.3L24.6 16.35C25 16.05 25.55 16.05 25.9 16.35L28.2 18.25C28.65 18.6 28.7 19.2 28.35 19.65C28 20.1 27.4 20.15 26.95 19.8L25.3 18.45L23.55 19.9ZM21.35 29.4501L25.35 26.9501L28.9 29.5001C29.1 29.6501 29.3 29.7001 29.5 29.7001C29.8 29.7001 30.1 29.5501 30.3 29.3001C30.65 28.8501 30.5 28.2001 30.05 27.9001L26 24.9001C25.65 24.6501 25.2 24.6501 24.85 24.8501L20.3 27.7001C19.85 28.0001 19.7 28.6001 20 29.1001C20.25 29.6001 20.9 29.7501 21.35 29.4501ZM10.4 24.75C10.25 24.85 10.05 24.9 9.85 24.9C9.5 24.9 9.2 24.75 9.05 24.45C8.7 24 8.85 23.3499 9.3 23.0499L12.8 20.7C13.15 20.45 13.6 20.45 13.95 20.7L17.3 23.0499C17.75 23.3499 17.85 24 17.55 24.45C17.25 24.9 16.6 25 16.15 24.7L13.35 22.75L10.4 24.75ZM11.05 20.15C11.3 20.15 11.5 20.05 11.7 19.9L13.45 18.45L15.1 19.8C15.55 20.15 16.15 20.1 16.5 19.65C16.85 19.2 16.8 18.6 16.35 18.25L14.05 16.35C13.7 16.05 13.15 16.05 12.75 16.35L10.4 18.3C9.95 18.65 9.9 19.3 10.25 19.7C10.45 20 10.75 20.15 11.05 20.15ZM13.55 26.9499L9.55 29.4499C9.05 29.7499 8.45 29.5999 8.15 29.1499C7.85 28.6499 8 28.0499 8.45 27.7499L13 24.8999C13.35 24.6999 13.8 24.6999 14.15 24.9499L18.25 27.8999C18.7 28.1999 18.85 28.8499 18.5 29.2999C18.3 29.5499 18 29.6999 17.7 29.6999C17.5 29.6999 17.3 29.6499 17.1 29.4999L13.55 26.9499Z" fill="url(#paint0_linear_6922_27941)"/>
<defs>
<linearGradient id="paint0_linear_6922_27941" x1="39.5071" y1="9.04192e-07" x2="13.3317" y2="54.1824" gradientUnits="userSpaceOnUse">
<stop stop-color="#527984"/>
<stop offset="0.5" stop-color="#79C6AA"/>
<stop offset="1" stop-color="#C4DAB5"/>
</linearGradient>
</defs>
</svg>
