<svg width="24" height="24" viewBox="0 0 24 24" fill="none" xmlns="http://www.w3.org/2000/svg">
<rect x="0.5" y="0.5" width="23" height="23" rx="11.5" fill="#EFEFEF"/>
<rect x="0.5" y="0.5" width="23" height="23" rx="11.5" stroke="#D2D5D9" stroke-dasharray="2 2"/>
<path d="M7.53877 10.14C8.05077 10.14 8.49877 10.24 8.88277 10.44C9.27477 10.632 9.57877 10.928 9.79477 11.328C10.0188 11.728 10.1308 12.232 10.1308 12.84V16.5H9.27877V12.924C9.27877 12.26 9.11077 11.76 8.77477 11.424C8.44677 11.08 7.98277 10.908 7.38277 10.908C6.93477 10.908 6.54277 11 6.20677 11.184C5.87877 11.36 5.62277 11.62 5.43877 11.964C5.26277 12.3 5.17477 12.708 5.17477 13.188V16.5H4.32277V7.596H5.17477V11.928L5.00677 11.604C5.20677 11.148 5.52677 10.792 5.96677 10.536C6.40677 10.272 6.93077 10.14 7.53877 10.14ZM16.3801 16.5V15.108L16.3441 14.88V12.552C16.3441 12.016 16.1921 11.604 15.8881 11.316C15.5921 11.028 15.1481 10.884 14.5561 10.884C14.1481 10.884 13.7601 10.952 13.3921 11.088C13.0241 11.224 12.7121 11.404 12.4561 11.628L12.0721 10.992C12.3921 10.72 12.7761 10.512 13.2241 10.368C13.6721 10.216 14.1441 10.14 14.6401 10.14C15.4561 10.14 16.0841 10.344 16.5241 10.752C16.9721 11.152 17.1961 11.764 17.1961 12.588V16.5H16.3801ZM14.2081 16.56C13.7361 16.56 13.3241 16.484 12.9721 16.332C12.6281 16.172 12.3641 15.956 12.1801 15.684C11.9961 15.404 11.9041 15.084 11.9041 14.724C11.9041 14.396 11.9801 14.1 12.1321 13.836C12.2921 13.564 12.5481 13.348 12.9001 13.188C13.2601 13.02 13.7401 12.936 14.3401 12.936H16.5121V13.572H14.3641C13.7561 13.572 13.3321 13.68 13.0921 13.896C12.8601 14.112 12.7441 14.38 12.7441 14.7C12.7441 15.06 12.8841 15.348 13.1641 15.564C13.4441 15.78 13.8361 15.888 14.3401 15.888C14.8201 15.888 15.2321 15.78 15.5761 15.564C15.9281 15.34 16.1841 15.02 16.3441 14.604L16.5361 15.192C16.3761 15.608 16.0961 15.94 15.6961 16.188C15.3041 16.436 14.8081 16.56 14.2081 16.56ZM19.5943 16.56C19.4183 16.56 19.2663 16.496 19.1383 16.368C19.0183 16.24 18.9583 16.084 18.9583 15.9C18.9583 15.708 19.0183 15.552 19.1383 15.432C19.2663 15.312 19.4183 15.252 19.5943 15.252C19.7703 15.252 19.9183 15.312 20.0383 15.432C20.1663 15.552 20.2303 15.708 20.2303 15.9C20.2303 16.084 20.1663 16.24 20.0383 16.368C19.9183 16.496 19.7703 16.56 19.5943 16.56Z" fill="black"/>
</svg>
