<svg width="56" height="57" viewBox="0 0 56 57" fill="none" xmlns="http://www.w3.org/2000/svg">
<circle cx="28" cy="28.7275" r="28" fill="#F8DAD4"/>
<rect x="22.1467" y="11.2275" width="24.8533" height="20" rx="1" fill="white" stroke="#DE4526" stroke-width="2"/>
<rect x="22.1467" y="11.2275" width="24.8533" height="3" rx="1" fill="white" stroke="#DE4526" stroke-width="2"/>
<path fill-rule="evenodd" clip-rule="evenodd" d="M24.1172 31.0389C23.8815 30.9632 23.8555 30.595 24.0744 30.4793C26.0882 29.4151 27.458 27.3188 27.458 24.9069C27.458 21.4181 24.592 18.5898 21.0567 18.5898C17.5214 18.5898 14.6554 21.4181 14.6554 24.9069C14.6554 27.3023 16.0065 29.3862 17.9975 30.4572C18.2156 30.5745 18.1868 30.9425 17.9506 31.0165C13.4848 32.4143 10.1851 36.8066 10.0075 42.0659C10.0075 42.0679 10.0058 42.0695 10.0038 42.0695C10.0017 42.0695 10 42.0712 10 42.0733V42.5125V43.7276C10 44.2799 10.4477 44.7276 11 44.7276H30.9971C31.5494 44.7276 31.9971 44.2799 31.9971 43.7276V42.5151L31.9971 42.5125L31.9971 42.5025V42.0733C31.9971 42.0712 31.9954 42.0695 31.9933 42.0695C31.9913 42.0695 31.9896 42.0679 31.9896 42.0659C31.813 36.8344 28.5471 32.4608 24.1172 31.0389Z" fill="white"/>
<path d="M31.9971 42.5151L30.9971 42.5137V42.5151H31.9971ZM31.9971 42.5125L32.9971 42.514V42.5122L31.9971 42.5125ZM31.9971 42.5025H30.9971V42.5028L31.9971 42.5025ZM17.9975 30.4572L18.4713 29.5765L17.9975 30.4572ZM17.9506 31.0165L17.6519 30.0621L17.9506 31.0165ZM31.9896 42.0659L30.9901 42.0996L31.9896 42.0659ZM10.0075 42.0659L9.0081 42.0321L10.0075 42.0659ZM24.0744 30.4793L23.6071 29.5952L24.0744 30.4793ZM24.1172 31.0389L23.8116 31.991L24.1172 31.0389ZM26.458 24.9069C26.458 26.9288 25.3107 28.6949 23.6071 29.5952L24.5416 31.3635C26.8657 30.1352 28.458 27.7089 28.458 24.9069H26.458ZM21.0567 19.5898C24.0523 19.5898 26.458 21.9828 26.458 24.9069H28.458C28.458 20.8533 25.1318 17.5898 21.0567 17.5898V19.5898ZM15.6554 24.9069C15.6554 21.9828 18.0611 19.5898 21.0567 19.5898V17.5898C16.9816 17.5898 13.6554 20.8533 13.6554 24.9069H15.6554ZM18.4713 29.5765C16.787 28.6706 15.6554 26.9149 15.6554 24.9069H13.6554C13.6554 27.6896 15.2259 30.1019 17.5238 31.3379L18.4713 29.5765ZM11.007 42.0996C11.1713 37.2296 14.2216 33.2315 18.2493 31.9708L17.6519 30.0621C12.748 31.5971 9.19877 36.3836 9.0081 42.0321L11.007 42.0996ZM11 42.5125V42.0733H9V42.5125H11ZM11 43.7276V42.5125H9V43.7276H11ZM11 43.7276H11H9C9 44.8322 9.89543 45.7276 11 45.7276V43.7276ZM30.9971 43.7276H11V45.7276H30.9971V43.7276ZM30.9971 43.7276V43.7276V45.7276C32.1016 45.7276 32.9971 44.8322 32.9971 43.7276H30.9971ZM30.9971 42.5151V43.7276H32.9971V42.5151H30.9971ZM30.9971 42.5111L30.9971 42.5137L32.9971 42.5166L32.9971 42.514L30.9971 42.5111ZM30.9971 42.5028L30.9971 42.5129L32.9971 42.5122L32.9971 42.5021L30.9971 42.5028ZM30.9971 42.0733V42.5025H32.9971V42.0733H30.9971ZM23.8116 31.991C27.8077 33.2737 30.8266 37.2556 30.9901 42.0996L32.989 42.0321C32.7993 36.4132 29.2865 31.6479 24.4229 30.0867L23.8116 31.991ZM17.5238 31.3379C17.1997 31.1635 17.1333 30.8484 17.1477 30.6717C17.1623 30.4937 17.2841 30.1772 17.6519 30.0621L18.2493 31.9708C18.8533 31.7817 19.1076 31.2443 19.1411 30.8344C19.1744 30.426 19.0134 29.8682 18.4713 29.5765L17.5238 31.3379ZM32.9971 42.0733C32.9971 41.5189 32.5477 41.0695 31.9933 41.0695V43.0695C31.4431 43.0695 30.9971 42.6235 30.9971 42.0733H32.9971ZM31.9933 41.0695C32.5363 41.0695 32.9711 41.5012 32.989 42.0321L30.9901 42.0996C31.0082 42.6346 31.4463 43.0695 31.9933 43.0695V41.0695ZM9.0081 42.0321C9.02601 41.5014 9.4606 41.0695 10.0038 41.0695V43.0695C10.551 43.0695 10.9889 42.6344 11.007 42.0996L9.0081 42.0321ZM10.0038 41.0695C9.4494 41.0695 9 41.5189 9 42.0733H11C11 42.6235 10.554 43.0695 10.0038 43.0695V41.0695ZM23.6071 29.5952C23.0628 29.8829 22.8978 30.4394 22.9281 30.8481C22.9585 31.2583 23.2089 31.7976 23.8116 31.991L24.4229 30.0867C24.7899 30.2045 24.9094 30.5219 24.9226 30.7001C24.9357 30.8768 24.8671 31.1915 24.5416 31.3635L23.6071 29.5952Z" fill="#DE4526"/>
<path d="M31.7867 18.7275L28.24 22.2275L31.7867 25.7275" stroke="#DE4526" stroke-linecap="round"/>
<path d="M38.8801 18.7275L42.4268 22.2275L38.8801 25.7275" stroke="#DE4526" stroke-linecap="round"/>
<line x1="0.5" y1="-0.5" x2="10.5828" y2="-0.5" transform="matrix(0.320015 -0.947412 0.949926 0.312476 33.8132 28.2275)" stroke="#DE4526" stroke-linecap="round"/>
</svg>
