<svg width="56" height="56" viewBox="0 0 56 56" fill="none" xmlns="http://www.w3.org/2000/svg">
<circle cx="28" cy="28" r="28" fill="#FFF3D6"/>
<path fill-rule="evenodd" clip-rule="evenodd" d="M9.49267 27.9497H10.5233C10.8432 27.9497 11.0742 27.8967 11.2341 27.7731C11.3763 27.6671 11.4474 27.4728 11.4474 27.2255C11.4474 26.9783 11.3763 26.8016 11.2341 26.678C11.092 26.572 10.8432 26.5014 10.5233 26.5014H9.49267V27.9497ZM10.3989 28.9918H9.49267V31.0584H8V25.4062H10.7899C11.5007 25.4062 12.0338 25.5652 12.4247 25.8655C12.7979 26.1658 12.9933 26.625 12.9933 27.2079C12.9933 27.6141 12.9045 27.9674 12.709 28.2323C12.5135 28.4973 12.2292 28.7092 11.8561 28.8329L13.3487 31.0584H11.6606L10.3989 28.9918Z" fill="black"/>
<path fill-rule="evenodd" clip-rule="evenodd" d="M18.6619 29.9279V31.076H14.0417V25.4238H18.5553V26.5543H15.5522V27.7024H17.9334V28.7798H15.5522V29.9279H18.6619Z" fill="black"/>
<path fill-rule="evenodd" clip-rule="evenodd" d="M24.526 28.0026V31.1466H23.4954L23.4598 30.4578C23.14 30.97 22.5891 31.2349 21.8428 31.2349C21.3275 31.2349 20.8654 31.1113 20.4745 30.8817C20.0836 30.652 19.7637 30.3164 19.5505 29.8572C19.3017 29.4156 19.1951 28.8681 19.1951 28.2499C19.1951 27.6317 19.3017 27.0841 19.5327 26.6425C19.7637 26.1833 20.0836 25.8477 20.51 25.6004C20.9365 25.3531 21.4341 25.2295 22.0205 25.2295C22.6602 25.2295 23.1933 25.3531 23.5842 25.5828C23.9752 25.8124 24.295 26.201 24.526 26.7309L23.1577 27.2784C23.0867 26.9958 22.9623 26.7838 22.7668 26.6425C22.5713 26.5012 22.3403 26.4306 22.056 26.4306C21.6295 26.4306 21.2919 26.5895 21.0609 26.8898C20.8299 27.1901 20.7055 27.6493 20.7055 28.2322C20.7055 29.451 21.1675 30.0692 22.0916 30.0692C22.447 30.0692 22.7313 29.9809 22.9445 29.8219C23.1577 29.6629 23.2644 29.4156 23.2644 29.1154V29.027H21.8605V28.0026H24.526Z" fill="black"/>
<path fill-rule="evenodd" clip-rule="evenodd" d="M30.2125 29.9279V31.076H25.5923V25.4238H30.1058V26.5543H27.1027V27.7024H29.4839V28.7798H27.1027V29.9279H30.2125Z" fill="black"/>
<path fill-rule="evenodd" clip-rule="evenodd" d="M36.4318 31.0585H34.7792L33.0022 28.0028L32.5758 27.1373L32.6113 28.1971V31.0408H31.2786V25.3887H32.9312L34.7082 28.4444L35.1346 29.2922H35.1524L35.1169 28.2324V25.4063H36.4318V31.0585Z" fill="black"/>
<path d="M34.0504 21.1848V21.2024L32.3801 12.4416L30.9762 12L30.1233 13.1658L34.0504 21.1848Z" fill="black"/>
<path d="M34.9568 17.5285L35.6676 20.9198L36.4139 17.4755L35.6676 16.981L34.9568 17.5285Z" fill="black"/>
<path d="M40.2344 18.1289L39.3282 18.2172L38.262 21.5732L40.6076 18.9414L40.2344 18.1289Z" fill="black"/>
<path d="M47.9821 18.8357V17.405L46.5783 16.9634L40.0034 23.0925L47.9821 18.8357Z" fill="black"/>
<path d="M31.9004 22.4564L29.9457 19.542L29.9812 19.6126L29.9457 19.542L29.0572 19.6833L28.915 20.5664L31.9004 22.4564Z" fill="black"/>
<path d="M44.4814 25.4238L40.9985 26.1127L44.4814 26.8722H44.4992L45.0145 26.148L44.4814 25.4238Z" fill="black"/>
<path d="M47.9999 33.4251L40.0034 29.2036L46.6138 35.2974L47.9999 34.8558V33.4251Z" fill="black"/>
<path d="M9.45718 36.287H8.49761V37.9297H8.01782V33.9731H9.52826C10.3457 33.9731 10.8788 34.4147 10.8788 35.1389C10.8788 35.7041 10.5411 36.0927 9.99028 36.2517L11.1098 37.9473H10.5411L9.45718 36.287ZM8.49761 35.8454H9.51049C10.0791 35.8454 10.3634 35.6158 10.3634 35.1389C10.3634 34.662 10.0791 34.4324 9.51049 34.4324H8.49761V35.8454Z" fill="black"/>
<path d="M14.9837 37.4881V37.9297H12.0872V33.9731H14.877V34.4147H12.5669V35.6865H14.3617V36.128H12.5847V37.4528H14.9837V37.4881Z" fill="black"/>
<path d="M19.1594 35.9336V37.9295H18.804L18.7862 37.3996C18.5552 37.7705 18.1465 38.0002 17.5246 38.0002C16.3873 38.0002 15.6765 37.2053 15.6765 35.9513C15.6765 34.6972 16.4228 33.9023 17.5423 33.9023C18.342 33.9023 18.8218 34.2026 19.1416 34.8032L18.6974 35.0504C18.5197 34.5912 18.0932 34.3616 17.5423 34.3616C16.7249 34.3616 16.1918 34.9621 16.1918 35.9513C16.1918 36.9404 16.6716 37.5409 17.5423 37.5409C18.1998 37.5409 18.7152 37.2053 18.7152 36.5165V36.3752H17.4535V35.9336H19.1594Z" fill="black"/>
<path d="M20.8299 37.9297H20.3501V33.9731H20.8299V37.9297Z" fill="black"/>
<path d="M25.0236 34.7502L24.6149 35.0858C24.3661 34.5559 24.0818 34.3616 23.4954 34.3616C22.8557 34.3616 22.518 34.6619 22.518 35.0328C22.518 35.4037 22.7846 35.598 23.6198 35.7393C24.686 35.9159 25.0769 36.2515 25.0769 36.8697C25.0769 37.5409 24.4727 38.0002 23.5309 38.0002C22.678 38.0002 22.1271 37.6292 21.8428 37.1347L22.2515 36.7991C22.4647 37.2583 22.8734 37.5409 23.5309 37.5409C24.1529 37.5409 24.5616 37.3113 24.5616 36.8874C24.5616 36.5518 24.295 36.3398 23.4598 36.1985C22.3759 36.0042 22.0027 35.6863 22.0027 35.0858C22.0027 34.4499 22.5713 33.9023 23.4954 33.9023C24.2062 33.92 24.7215 34.2026 25.0236 34.7502Z" fill="black"/>
<path d="M28.7553 34.4147H27.3693V37.9297H26.8895V34.4147H25.5034V33.9731H28.7731V34.4147H28.7553Z" fill="black"/>
<path d="M31.1007 36.287H30.1412V37.9297H29.6614V33.9731H31.1718C31.9892 33.9731 32.5223 34.4147 32.5223 35.1389C32.5223 35.7041 32.1847 36.0927 31.6338 36.2517L32.7533 37.9473H32.1847L31.1007 36.287ZM30.1412 35.8454H31.1541C31.7227 35.8454 32.007 35.6158 32.007 35.1389C32.007 34.662 31.7227 34.4324 31.1541 34.4324H30.1412V35.8454Z" fill="black"/>
<path d="M34.9214 36.393V37.9473H34.4416V36.393L33.02 33.9731H33.5887L34.6904 35.8984L35.7921 33.9731H36.3608L34.9214 36.393Z" fill="black"/>
</svg>
