<svg width="56" height="57" viewBox="0 0 56 57" fill="none" xmlns="http://www.w3.org/2000/svg">
<circle cx="28" cy="28.7275" r="28" fill="#DCF0E3"/>
<path fill-rule="evenodd" clip-rule="evenodd" d="M29.3296 24.4153C29.0942 24.3428 29.069 23.9846 29.289 23.874C31.8962 22.562 33.6862 19.8518 33.6862 16.7213C33.6862 12.3065 30.1261 8.72754 25.7346 8.72754C21.343 8.72754 17.7829 12.3065 17.7829 16.7213C17.7829 19.8309 19.5491 22.5257 22.128 23.8474C22.3471 23.9597 22.3192 24.3177 22.0833 24.3885C16.4311 26.0837 12.2326 31.697 12.0093 38.4349C12.0093 38.4374 12.0072 38.4394 12.0047 38.4394C12.0021 38.4394 12 38.4415 12 38.4441V39.0001V40.8031C12 41.3553 12.4477 41.8031 13 41.8031H38.3246C38.8769 41.8031 39.3246 41.3553 39.3246 40.8031V39.0001V38.4441C39.3246 38.4415 39.3225 38.4394 39.3199 38.4394C39.3174 38.4394 39.3154 38.4374 39.3153 38.4349C39.0932 31.7321 34.9372 26.1422 29.3296 24.4153Z" fill="white"/>
<path d="M39.3153 38.4349L38.3158 38.468L39.3153 38.4349ZM12.0093 38.4349L13.0088 38.468L12.0093 38.4349ZM22.128 23.8474L22.5841 22.9575L22.128 23.8474ZM22.0833 24.3885L21.7961 23.4306L22.0833 24.3885ZM29.289 23.874L29.7385 24.7672L29.289 23.874ZM29.3296 24.4153L29.6239 23.4596L29.3296 24.4153ZM32.6862 16.7213C32.6862 19.4616 31.1204 21.8329 28.8395 22.9807L29.7385 24.7672C32.672 23.2911 34.6862 20.2421 34.6862 16.7213H32.6862ZM25.7346 9.72754C29.5688 9.72754 32.6862 12.8538 32.6862 16.7213H34.6862C34.6862 11.7592 30.6834 7.72754 25.7346 7.72754V9.72754ZM18.7829 16.7213C18.7829 12.8538 21.9003 9.72754 25.7346 9.72754V7.72754C20.7857 7.72754 16.7829 11.7592 16.7829 16.7213H18.7829ZM22.5841 22.9575C20.3278 21.8012 18.7829 19.4432 18.7829 16.7213H16.7829C16.7829 20.2185 18.7703 23.2503 21.6719 24.7374L22.5841 22.9575ZM13.0088 38.468C13.2194 32.1119 17.1733 26.9051 22.3706 25.3463L21.7961 23.4306C15.6888 25.2623 11.2458 31.2821 11.0099 38.4018L13.0088 38.468ZM13 39.0001V38.4441H11V39.0001H13ZM13 40.8031V39.0001H11V40.8031H13ZM13 40.8031H13H11C11 41.9076 11.8954 42.8031 13 42.8031V40.8031ZM38.3246 40.8031H13V42.8031H38.3246V40.8031ZM38.3246 40.8031V42.8031C39.4292 42.8031 40.3246 41.9076 40.3246 40.8031H38.3246ZM38.3246 39.0001V40.8031H40.3246V39.0001H38.3246ZM38.3246 38.4441V39.0001H40.3246V38.4441H38.3246ZM29.0352 25.371C34.1924 26.9592 38.1063 32.1454 38.3158 38.468L40.3147 38.4018C40.08 31.3189 35.682 25.3252 29.6239 23.4596L29.0352 25.371ZM39.3199 37.4394C39.8626 37.4394 40.2971 37.871 40.3147 38.4018L38.3158 38.468C38.3336 39.0038 38.7722 39.4394 39.3199 39.4394V37.4394ZM40.3246 38.4441C40.3246 37.8892 39.8748 37.4394 39.3199 37.4394V39.4394C38.7702 39.4394 38.3246 38.9938 38.3246 38.4441H40.3246ZM11.0099 38.4018C11.0275 37.8713 11.4617 37.4394 12.0047 37.4394V39.4394C12.5527 39.4394 12.9911 39.0035 13.0088 38.468L11.0099 38.4018ZM21.6719 24.7374C21.345 24.5698 21.2636 24.2504 21.2795 24.0531C21.2955 23.8543 21.4316 23.5399 21.7961 23.4306L22.3706 25.3463C22.9709 25.1663 23.2389 24.6375 23.273 24.2139C23.3071 23.792 23.1301 23.2374 22.5841 22.9575L21.6719 24.7374ZM12.0047 37.4394C11.4498 37.4394 11 37.8892 11 38.4441H13C13 38.9938 12.5544 39.4394 12.0047 39.4394V37.4394ZM28.8395 22.9807C28.2914 23.2565 28.1103 23.8097 28.1412 24.2319C28.1722 24.6557 28.4362 25.1865 29.0352 25.371L29.6239 23.4596C29.9876 23.5716 30.1213 23.887 30.1359 24.086C30.1503 24.2833 30.0666 24.6021 29.7385 24.7672L28.8395 22.9807Z" fill="#4FB573"/>
<path d="M29.1692 26.4673L39.1846 26.4673" stroke="#4FB573" stroke-width="2" stroke-linecap="round"/>
<path d="M31.1137 31.1923V26.4673H37.4531V31.1923L43 45.6454H25.8308L31.1137 31.1923Z" fill="white" stroke="#4FB573" stroke-width="2" stroke-linejoin="round"/>
<path d="M25.8308 45.6453L29.0103 37.8081C29.0103 37.8081 30.918 38.4351 32.8257 38.4351C34.7334 38.4351 35.0513 37.4946 36.959 37.4946C38.8667 37.4946 39.8206 37.8081 39.8206 37.8081L43 45.6453H25.8308Z" fill="#B9E1C7" stroke="#4FB573" stroke-width="2" stroke-linejoin="round"/>
</svg>
