<svg width="56" height="57" viewBox="0 0 56 57" fill="none" xmlns="http://www.w3.org/2000/svg">
<circle cx="28" cy="28.7275" r="28" fill="#D8E4F5"/>
<path d="M28.0034 16.7133C30.4961 16.7133 32.5168 14.7017 32.5168 12.2204C32.5168 9.73906 30.4961 7.72754 28.0034 7.72754C25.5107 7.72754 23.49 9.73906 23.49 12.2204C23.49 14.7017 25.5107 16.7133 28.0034 16.7133Z" fill="#B1CAEC" stroke="#3D7ACF" stroke-width="2" stroke-miterlimit="10" stroke-linecap="round"/>
<path d="M25.6763 12.5939L26.9806 13.8922L30.3211 10.5576" stroke="#3D7ACF" stroke-miterlimit="10" stroke-linecap="round" stroke-linejoin="round"/>
<path d="M28.0034 52.7274C30.4961 52.7274 32.5168 50.7159 32.5168 48.2346C32.5168 45.7532 30.4961 43.7417 28.0034 43.7417C25.5107 43.7417 23.49 45.7532 23.49 48.2346C23.49 50.7159 25.5107 52.7274 28.0034 52.7274Z" fill="#B1CAEC" stroke="#3D7ACF" stroke-width="2" stroke-miterlimit="10" stroke-linecap="round"/>
<path d="M25.6763 48.608L26.9806 49.9064L30.3211 46.5718" stroke="#3D7ACF" stroke-miterlimit="10" stroke-linecap="round" stroke-linejoin="round"/>
<path d="M47.4866 33.0834C49.9793 33.0834 52 31.0718 52 28.5905C52 26.1092 49.9793 24.0977 47.4866 24.0977C44.9939 24.0977 42.9731 26.1092 42.9731 28.5905C42.9731 31.0718 44.9939 33.0834 47.4866 33.0834Z" fill="#B1CAEC" stroke="#3D7ACF" stroke-width="2" stroke-miterlimit="10" stroke-linecap="round"/>
<path d="M45.1594 28.964L46.4637 30.2623L49.8042 26.9277" stroke="#3D7ACF" stroke-miterlimit="10" stroke-linecap="round" stroke-linejoin="round"/>
<path d="M9.51342 33.0834C12.0061 33.0834 14.0268 31.0718 14.0268 28.5905C14.0268 26.1092 12.0061 24.0977 9.51342 24.0977C7.02073 24.0977 5 26.1092 5 28.5905C5 31.0718 7.02073 33.0834 9.51342 33.0834Z" fill="#B1CAEC" stroke="#3D7ACF" stroke-width="2" stroke-miterlimit="10" stroke-linecap="round"/>
<path d="M7.18628 28.964L8.49057 30.2623L11.8311 26.9277" stroke="#3D7ACF" stroke-miterlimit="10" stroke-linecap="round" stroke-linejoin="round"/>
<path d="M28.114 18.6411L28.114 21.9151" stroke="#3D7ACF" stroke-linecap="round" stroke-linejoin="round" stroke-dasharray="3 3"/>
<path d="M28.114 39.9224L28.114 43.7421" stroke="#3D7ACF" stroke-linecap="round" stroke-linejoin="round" stroke-dasharray="3 3"/>
<path d="M36.9194 29.0088L41.3221 29.0088" stroke="#3D7ACF" stroke-linecap="round" stroke-linejoin="round" stroke-dasharray="3 3"/>
<path d="M15.4563 29.0088L19.3086 29.0088" stroke="#3D7ACF" stroke-linecap="round" stroke-linejoin="round" stroke-dasharray="3 3"/>
<path d="M28.3169 38.3759L20.4094 34.4402V26.5811L28.3169 30.5168V38.3759Z" fill="white" stroke="#3D7ACF" stroke-width="2" stroke-miterlimit="10" stroke-linecap="round" stroke-linejoin="round"/>
<path d="M28.3911 38.3881L36.2986 34.4524V26.5933L28.3911 30.529V38.3881Z" fill="#B1CAEC" stroke="#3D7ACF" stroke-width="2" stroke-miterlimit="10" stroke-linecap="round" stroke-linejoin="round"/>
<path d="M28.391 30.3319L36.2985 26.3962L28.3169 22.4604L20.4094 26.3962L28.391 30.3319Z" fill="white" stroke="#3D7ACF" stroke-width="2" stroke-miterlimit="10" stroke-linecap="round" stroke-linejoin="round"/>
</svg>
