<svg width="25" height="25" viewBox="0 0 25 25" fill="none" xmlns="http://www.w3.org/2000/svg">
<path fill-rule="evenodd" clip-rule="evenodd" d="M7.5 1.75C7.5 1.61193 7.61193 1.5 7.75 1.5H8.25C8.38807 1.5 8.5 1.61193 8.5 1.75V3.5L16.5 3.5V1.75C16.5 1.61193 16.6119 1.5 16.75 1.5H17.25C17.3881 1.5 17.5 1.61193 17.5 1.75V3.5H19.5C21.1569 3.5 22.5 4.84315 22.5 6.5L22.5 20.5C22.5 22.1569 21.1569 23.5 19.5 23.5L5.5 23.5C3.84315 23.5 2.5 22.1569 2.5 20.5L2.5 9.25V8.75L2.5 6.5C2.5 4.84315 3.84315 3.5 5.5 3.5L7.5 3.5V1.75ZM16.5 5.5V7.25C16.5 7.38807 16.6119 7.5 16.75 7.5H17.25C17.3881 7.5 17.5 7.38807 17.5 7.25V5.5H19.5C20.0523 5.5 20.5 5.94771 20.5 6.5V8.5L4.5 8.5L4.5 6.5C4.5 5.94772 4.94771 5.5 5.5 5.5H7.5V7.25C7.5 7.38807 7.61193 7.5 7.75 7.5H8.25C8.38807 7.5 8.5 7.38807 8.5 7.25V5.5L16.5 5.5ZM4.5 9.5L20.5 9.5L20.5 20.5C20.5 21.0523 20.0523 21.5 19.5 21.5L5.5 21.5C4.94772 21.5 4.5 21.0523 4.5 20.5L4.5 9.5Z" fill="url(#paint0_linear_985_16632)"/>
<path fill-rule="evenodd" clip-rule="evenodd" d="M7.5 1.75C7.5 1.61193 7.61193 1.5 7.75 1.5H8.25C8.38807 1.5 8.5 1.61193 8.5 1.75V3.5L16.5 3.5V1.75C16.5 1.61193 16.6119 1.5 16.75 1.5H17.25C17.3881 1.5 17.5 1.61193 17.5 1.75V3.5H19.5C21.1569 3.5 22.5 4.84315 22.5 6.5L22.5 20.5C22.5 22.1569 21.1569 23.5 19.5 23.5L5.5 23.5C3.84315 23.5 2.5 22.1569 2.5 20.5L2.5 9.25V8.75L2.5 6.5C2.5 4.84315 3.84315 3.5 5.5 3.5L7.5 3.5V1.75ZM16.5 5.5V7.25C16.5 7.38807 16.6119 7.5 16.75 7.5H17.25C17.3881 7.5 17.5 7.38807 17.5 7.25V5.5H19.5C20.0523 5.5 20.5 5.94771 20.5 6.5V8.5L4.5 8.5L4.5 6.5C4.5 5.94772 4.94771 5.5 5.5 5.5H7.5V7.25C7.5 7.38807 7.61193 7.5 7.75 7.5H8.25C8.38807 7.5 8.5 7.38807 8.5 7.25V5.5L16.5 5.5ZM4.5 9.5L20.5 9.5L20.5 20.5C20.5 21.0523 20.0523 21.5 19.5 21.5L5.5 21.5C4.94772 21.5 4.5 21.0523 4.5 20.5L4.5 9.5Z" fill="url(#paint1_linear_985_16632)"/>
<defs>
<linearGradient id="paint0_linear_985_16632" x1="12.5" y1="1.5" x2="3.09249" y2="22.8807" gradientUnits="userSpaceOnUse">
<stop offset="0.00458717" stop-color="#4FB573"/>
<stop offset="1" stop-color="#B9E1C7"/>
</linearGradient>
<linearGradient id="paint1_linear_985_16632" x1="17.5" y1="5.625" x2="18.3259" y2="46.1428" gradientUnits="userSpaceOnUse">
<stop stop-color="#515D89"/>
<stop offset="0.52118" stop-color="#7DC9BF"/>
<stop offset="1" stop-color="#FAEBD1"/>
</linearGradient>
</defs>
</svg>
