<svg width="50" height="50" viewBox="0 0 50 50" fill="none" xmlns="http://www.w3.org/2000/svg">
<path d="M43.875 10.0001H8.125C8.05596 10.0001 8 10.0541 8 10.1207V48.8795C8 48.9461 8.05596 49.0001 8.125 49.0001H43.875C43.944 49.0001 44 48.9461 44 48.8795V10.1207C44 10.0541 43.944 10.0001 43.875 10.0001Z" fill="#FFCD00"/>
<path d="M7.75 47.25V9.75H42.25V47.25H7.75Z" fill="white" stroke="black" stroke-width="1.5"/>
<mask id="mask0_972_73248" style="mask-type:luminance" maskUnits="userSpaceOnUse" x="20" y="21" width="17" height="3">
<path d="M20.8462 21.7597V22.8943C20.8462 22.9633 20.9022 23.0193 20.9712 23.0193H36.6443C36.7133 23.0193 36.7693 22.9633 36.7693 22.8943V21.7597C36.7693 21.6906 36.7133 21.6347 36.6443 21.6347H20.9712C20.9022 21.6347 20.8462 21.6906 20.8462 21.7597Z" fill="white"/>
</mask>
<g mask="url(#mask0_972_73248)">
<path d="M20.8462 21.7597V22.8943C20.8462 22.9633 20.9022 23.0193 20.9712 23.0193H36.6443C36.7133 23.0193 36.7693 22.9633 36.7693 22.8943V21.7597C36.7693 21.6906 36.7133 21.6347 36.6443 21.6347H20.9712C20.9022 21.6347 20.8462 21.6906 20.8462 21.7597Z" fill="black" stroke="black" stroke-width="2"/>
</g>
<path d="M20.8462 30.7597V31.8943C20.8462 31.9633 20.9022 32.0193 20.9712 32.0193H36.6443C36.7133 32.0193 36.7693 31.9633 36.7693 31.8943V30.7597C36.7693 30.6906 36.7133 30.6347 36.6443 30.6347H20.9712C20.9022 30.6347 20.8462 30.6906 20.8462 30.7597Z" fill="black"/>
<path d="M20.8462 39.0673V40.2019C20.8462 40.2709 20.9022 40.3269 20.9712 40.3269H36.6443C36.7133 40.3269 36.7693 40.2709 36.7693 40.2019V39.0673C36.7693 38.9982 36.7133 38.9423 36.6443 38.9423H20.9712C20.9022 38.9423 20.8462 38.9982 20.8462 39.0673Z" fill="black"/>
<path d="M13.7948 21.4591L13.078 22.3574C13.0349 22.4114 13.0434 22.4905 13.0969 22.5341L15.5286 24.5166C15.5821 24.5602 15.6603 24.5518 15.7034 24.4979L16.4202 23.5996C16.4633 23.5456 16.4548 23.4665 16.4013 23.4229L13.9697 21.4404C13.9162 21.3968 13.8379 21.4051 13.7948 21.4591Z" fill="black"/>
<path d="M13.7948 30.3207L13.078 31.2189C13.0349 31.2729 13.0434 31.352 13.0969 31.3956L15.5286 33.3782C15.5821 33.4218 15.6603 33.4134 15.7034 33.3594L16.4202 32.4611C16.4633 32.4072 16.4548 32.3281 16.4013 32.2845L13.9697 30.3019C13.9162 30.2583 13.8379 30.2667 13.7948 30.3207Z" fill="black"/>
<path d="M13.7948 38.6284L13.078 39.5267C13.0349 39.5807 13.0434 39.6598 13.0969 39.7034L15.5286 41.6859C15.5821 41.7295 15.6603 41.7211 15.7034 41.6672L16.4202 40.7689C16.4633 40.7149 16.4548 40.6358 16.4013 40.5922L13.9697 38.6097C13.9162 38.5661 13.8379 38.5744 13.7948 38.6284Z" fill="black"/>
<path d="M19.2972 19.7976L18.4206 19.0829C18.3671 19.0393 18.2888 19.0476 18.2458 19.1016L14.6347 23.6266C14.5917 23.6806 14.6001 23.7597 14.6537 23.8033L15.5303 24.518C15.5838 24.5617 15.6621 24.5533 15.7051 24.4993L19.3162 19.9743C19.3592 19.9203 19.3507 19.8412 19.2972 19.7976Z" fill="black"/>
<path d="M19.2972 28.659L18.4206 27.9443C18.3671 27.9007 18.2888 27.9091 18.2458 27.9631L14.6347 32.4881C14.5917 32.542 14.6001 32.6212 14.6537 32.6648L15.5303 33.3795C15.5838 33.4231 15.6621 33.4147 15.7051 33.3608L19.3162 28.8357C19.3592 28.7818 19.3507 28.7027 19.2972 28.659Z" fill="black"/>
<path d="M19.2972 36.9668L18.4206 36.2521C18.3671 36.2085 18.2888 36.2168 18.2458 36.2708L14.6347 40.7958C14.5917 40.8498 14.6001 40.9289 14.6537 40.9725L15.5303 41.6872C15.5838 41.7309 15.6621 41.7225 15.7051 41.6685L19.3162 37.1435C19.3592 37.0895 19.3507 37.0104 19.2972 36.9668Z" fill="black"/>
<path fill-rule="evenodd" clip-rule="evenodd" d="M31.5095 5.01925H38.0289C38.0979 5.01925 38.1539 5.0752 38.1539 5.14425V14.5865C38.1539 14.6556 38.0979 14.7115 38.0289 14.7115H24.6539H11.9712C11.9021 14.7115 11.8462 14.6556 11.8462 14.5865V5.14425C11.8462 5.0752 11.9021 5.01925 11.9712 5.01925H17.7983C18.7962 2.1959 21.4888 0.173096 24.6539 0.173096C27.8189 0.173096 30.5115 2.1959 31.5095 5.01925Z" fill="white"/>
<path d="M17.8821 5.75688H18.4195L18.5923 5.24804C19.4869 2.61351 21.8795 0.75 24.6639 0.75C27.4483 0.75 29.8306 2.60307 30.7253 5.24728L30.8978 5.75688H31.4357H31.7719H37.25V14.25H12.75V5.75688H17.8821Z" fill="#FFCD00" stroke="black" stroke-width="1.5"/>
</svg>
