<svg width="106" height="91" viewBox="0 0 106 91" fill="none" xmlns="http://www.w3.org/2000/svg">
<path d="M20.7895 61.3282H22.2895V59.8622L20.8239 59.8286L20.7895 61.3282ZM23.9014 22.8607L23.6946 24.3464L24.9581 24.5223L25.3346 23.3035L23.9014 22.8607ZM77.629 16.7426L76.3317 17.4956L76.8605 18.4066L77.8969 18.2185L77.629 16.7426ZM20.7895 61.3333H19.2895V62.8333H20.7895V61.3333ZM20.8239 59.8286C11.2257 59.6085 3.5 51.7191 3.5 42.0051H0.5C0.5 53.34 9.5181 62.5702 20.7551 62.8278L20.8239 59.8286ZM3.5 42.0051C3.5 32.152 11.4478 24.1768 21.2368 24.1768V21.1768C9.7775 21.1768 0.5 30.5086 0.5 42.0051H3.5ZM21.2368 24.1768C22.0716 24.1768 22.892 24.2346 23.6946 24.3464L24.1083 21.375C23.169 21.2443 22.2104 21.1768 21.2368 21.1768V24.1768ZM25.3346 23.3035C28.8806 11.8257 39.5304 3.5 52.1053 3.5V0.5C38.1697 0.5 26.3892 9.72649 22.4683 22.4179L25.3346 23.3035ZM52.1053 3.5C62.4382 3.5 71.4699 9.11955 76.3317 17.4956L78.9263 15.9896C73.5522 6.73102 63.5555 0.5 52.1053 0.5V3.5ZM77.8969 18.2185C79.1076 17.9988 80.3556 17.8838 81.6316 17.8838V14.8838C80.1751 14.8838 78.7478 15.0151 77.3612 15.2667L77.8969 18.2185ZM81.6316 17.8838C93.1502 17.8838 102.5 27.2678 102.5 38.8586H105.5C105.5 25.6244 94.8204 14.8838 81.6316 14.8838V17.8838ZM102.5 38.8586C102.5 50.4493 93.1502 59.8333 81.6316 59.8333V62.8333C94.8204 62.8333 105.5 52.0928 105.5 38.8586H102.5ZM81.6316 59.8333H52.1053V62.8333H81.6316V59.8333ZM52.1053 59.8333H21.2368V62.8333H52.1053V59.8333ZM21.2368 59.8333H20.7895V62.8333H21.2368V59.8333ZM22.2895 61.3333V61.3282H19.2895V61.3333H22.2895Z" fill="#4FB573"/>
<circle r="6.12336" transform="matrix(0.705428 -0.708781 0.705428 0.708781 57.4923 22.6956)" fill="#DCF0E3" stroke="#4FB573" stroke-width="3"/>
<circle r="4.39711" transform="matrix(0.705428 -0.708781 0.705428 0.708781 39.1409 30.3274)" fill="#DCF0E3" stroke="#4FB573" stroke-width="2"/>
<circle r="4.39711" transform="matrix(0.705428 -0.708781 0.705428 0.708781 39.1409 49.2063)" fill="#DCF0E3" stroke="#4FB573" stroke-width="2"/>
<circle r="6.12336" transform="matrix(0.705428 -0.708781 0.705428 0.708781 74.4923 44.2712)" fill="#DCF0E3" stroke="#4FB573" stroke-width="3"/>
<circle r="6.12336" transform="matrix(0.705428 -0.708781 0.705428 0.708781 20.8082 42.4734)" fill="#DCF0E3" stroke="#4FB573" stroke-width="3"/>
<path d="M57.4736 81.1111L57.4736 29.8687" stroke="#4FB573" stroke-width="2"/>
<path d="M57.4736 91L57.4736 83.8081" stroke="#4FB573" stroke-width="2"/>
<path d="M74.4736 91L74.4736 83.8081" stroke="#4FB573" stroke-width="3"/>
<path d="M74.4736 81.1111L74.4736 76.6161" stroke="#4FB573" stroke-width="3"/>
<path d="M39.5791 45.1516L39.5791 35.2627" stroke="#4FB573" stroke-width="2"/>
<path d="M74.4736 73.9192L74.4736 51.4444" stroke="#4FB573" stroke-width="3"/>
<path d="M20.7896 48.7476V53.9146L31.5264 64.5715V91.0001" stroke="#4FB573" stroke-width="3"/>
<path d="M78.9473 48.7476L86.1052 55.1267V82.0102" stroke="#4FB573" stroke-width="2"/>
</svg>
