<svg width="149" height="149" viewBox="0 0 149 149" fill="none" xmlns="http://www.w3.org/2000/svg">
<path d="M0 0H149V149H0V0Z" fill="#D2D5D9"/>
<path fill-rule="evenodd" clip-rule="evenodd" d="M74.5996 30.0836C74.8549 29.9721 75.1451 29.9721 75.4004 30.0836C78.106 31.2658 80 33.9666 80 37.1119C80 40.2573 78.106 42.9581 75.4004 44.1402C75.1451 44.2518 74.8549 44.2518 74.5996 44.1402C71.894 42.9581 70 40.2573 70 37.1119C70 33.9666 71.894 31.2658 74.5996 30.0836ZM75 32.1104C73.2133 33.0652 72 34.9478 72 37.1119C72 39.276 73.2133 41.1587 75 42.1135C76.7868 41.1587 78 39.276 78 37.1119C78 34.9478 76.7868 33.0652 75 32.1104ZM63.745 55.9908C67.1006 53.9168 71.0555 52.72 75.29 52.72C76.9187 52.72 78.506 52.897 80.0338 53.2329C79.7584 53.937 79.6652 54.7249 79.8064 55.5362C79.8272 55.6557 79.8588 55.7731 79.9009 55.887C79.8992 55.8823 79.9068 55.9028 79.9197 55.9483C79.932 55.9915 79.9467 56.0488 79.9611 56.117C79.9907 56.2562 80.0148 56.4193 80.0219 56.5848C80.0336 56.8545 79.9972 57.0148 79.9665 57.0965C79.9114 57.1319 79.7902 57.191 79.5542 57.2338C78.7012 57.1655 77.7768 57.2179 76.9974 57.3744C76.5818 57.4579 76.0921 57.5932 75.65 57.8271C75.3376 57.9924 74.3695 58.5631 74.2543 59.7807L74.2484 59.8404C74.2219 60.1124 74.1921 60.4186 74.1135 60.75C74.0476 61.0277 73.9681 61.2258 73.8947 61.3547C73.8309 61.4071 73.7783 61.4485 73.7277 61.4854C73.6858 61.516 73.6554 61.5359 73.6339 61.5487C73.6129 61.5614 73.6034 61.5654 73.6041 61.5651C73.5739 61.5783 73.544 61.5921 73.5144 61.6068L73.4902 61.6178L73.4869 61.6193C73.4564 61.6331 73.3902 61.6631 73.3176 61.7C73.1767 61.7714 72.8916 61.9261 72.6187 62.2028C72.1489 62.6792 71.9678 63.2962 71.941 63.3877L71.9379 63.3981C71.7514 63.9653 71.8282 64.5862 72.1471 65.091C72.4661 65.5958 72.994 65.9317 73.5864 66.0068C74.5542 66.1294 75.4932 66.1277 76.3817 66.0731L76.4409 66.0718C77.5778 66.0454 78.6226 66.0212 79.5674 66.1528C80.5175 66.2852 81.0807 66.5419 81.4077 66.8606C81.7895 67.2857 81.9733 67.8702 81.8931 68.4938C81.8892 68.5242 81.886 68.5546 81.8835 68.5851C81.876 68.6761 81.8598 68.7241 81.8176 68.7732C81.427 69.0425 80.993 69.1442 80.5549 69.0974C80.4844 69.0899 80.4136 69.0861 80.3427 69.0861H80.283C79.1532 69.0372 78.0903 68.9437 77.0565 68.7327C75.0115 68.0914 72.6358 67.3761 70.1713 68.0704C70.1588 68.0739 70.1464 68.0775 70.134 68.0812C70.1226 68.0847 70.1112 68.0883 70.0998 68.0919L70.0875 68.0959C67.2929 69.0169 65.2829 71.4896 64.937 74.4366L64.9343 74.4606L64.9325 74.4783C64.8145 75.7052 64.873 76.9282 65.339 78.0236C65.8366 79.1933 66.7092 80.0108 67.8128 80.5304C67.8458 80.5459 67.8792 80.5606 67.913 80.5743L68.0911 80.6465C68.9506 81.0825 70.0575 81.6365 71.4546 81.5479C71.56 81.5412 71.6648 81.5262 71.7678 81.503L71.768 81.503C71.771 81.5023 71.8055 81.4951 71.8703 81.4856C71.936 81.476 72.023 81.4654 72.1264 81.4573C72.3357 81.4408 72.5913 81.4357 72.8598 81.4596C73.4291 81.5104 73.8635 81.6721 74.1345 81.9175C74.1514 81.9328 74.1686 81.9478 74.186 81.9625C74.2598 82.0248 74.3774 82.151 74.4723 82.3873C74.567 82.6234 74.665 83.0346 74.6104 83.6989C74.6059 83.7534 74.6037 83.8081 74.6037 83.8627C74.6037 84.6593 74.8799 85.2752 75.1385 85.7122C75.1833 85.7879 75.2287 85.8838 75.2993 86.0923C75.4504 86.6856 75.5256 87.2758 75.5256 87.9139C75.5256 88.5526 75.5874 89.1886 75.7095 89.8202C75.9173 91.1106 76.4601 92.4382 77.3882 93.5241C77.419 93.5602 77.4511 93.5952 77.4845 93.629C78.2099 94.3645 79.151 94.4967 79.9207 94.3406C80.5734 94.2082 81.1445 93.8729 81.5914 93.5522C82.7107 92.7907 83.6039 91.8701 84.3666 90.9863C84.8753 90.3968 85.3415 89.632 85.5897 88.7929C85.6133 88.7131 85.6319 88.6319 85.6454 88.5499C85.7621 87.8401 85.8185 87.1988 85.87 86.5715C85.8713 86.5555 85.8725 86.5395 85.8734 86.5235C85.9151 85.8048 86.0385 85.043 86.2399 84.3293C86.5102 83.6098 86.94 82.8881 87.4794 82.2134C87.7728 81.8553 88.0504 81.4629 88.2694 81.1333C88.5547 80.76 88.7639 80.3953 88.9485 80.0209C88.9728 79.9718 88.995 79.9217 89.015 79.8708L89.0217 79.8602L89.0477 79.8201L89.082 79.7677C89.6002 78.9795 89.4972 77.9363 88.8349 77.2647C88.8305 77.2603 88.8173 77.2468 88.8036 77.2332C88.7901 77.2197 88.7629 77.1929 88.7286 77.1617C88.6687 77.107 88.5068 76.9628 88.264 76.8397C88.073 76.7429 87.8913 76.6881 87.7355 76.6572C87.222 76.4918 86.742 76.197 86.3704 75.8088C85.8669 75.1526 85.6426 74.3899 85.7004 73.6491C85.8689 73.8418 86.0729 74.0005 86.3016 74.1164C87.0123 74.4768 87.8917 74.6169 88.7869 74.3575C89.3083 74.2065 89.7458 73.85 89.9991 73.37C90.2525 72.8899 90.2998 72.3276 90.1303 71.8119C90.0986 71.7153 90.065 71.6287 90.0398 71.5659C90.0153 71.5051 89.99 71.4453 89.9723 71.4033L89.9701 71.3982C89.9557 71.364 89.9455 71.3397 89.9372 71.3199L89.9277 71.2965L89.9217 71.2812C89.877 71.1479 89.8184 71.0197 89.7467 70.8987C89.7477 70.9002 89.7427 70.892 89.7327 70.8705C89.7227 70.8489 89.7095 70.8182 89.6929 70.7751C89.6641 70.7005 89.6357 70.6177 89.5981 70.5041C89.5701 70.3393 89.6056 70.1706 89.766 69.9784L89.7755 69.9668C89.8511 69.8748 89.9798 69.7959 90.2038 69.8101L90.2382 69.8119C90.8478 69.84 91.4247 70.0883 91.923 70.562C92.4611 71.0735 93.2382 71.2449 93.9414 71.0072C93.9684 70.9981 94.0126 70.9849 94.1137 70.9556L94.1272 70.9517C94.2068 70.9286 94.3339 70.8918 94.4536 70.8514L94.466 70.8472L94.4871 70.8397C94.9306 70.681 95.3249 70.5439 95.7266 70.4587C96.1216 70.3748 96.4373 70.3619 96.6927 70.4069C96.7496 70.417 96.8067 70.4245 96.8636 70.4295C97.1368 71.8141 97.28 73.2453 97.28 74.71C97.28 86.8547 87.4347 96.7 75.29 96.7C72.7981 96.7 70.4029 96.2854 68.1698 95.5216C66.5554 93.3312 63.8697 89.8219 62.3329 88.3187C61.9558 87.9499 61.5956 87.3096 61.235 86.3938C60.9175 85.5873 60.6366 84.6686 60.3377 83.691L60.2318 83.3448C59.8995 82.2614 59.5393 81.1203 59.0953 80.1128C58.6563 79.1167 58.0914 78.1452 57.2933 77.4762C56.1052 76.4802 54.9274 76.192 53.8703 76.3685C53.6959 76.3976 53.5294 76.4387 53.3709 76.4888C53.3239 75.902 53.3 75.3088 53.3 74.71C53.3 72.926 53.5124 71.1917 53.9134 69.5309C54.5477 69.4607 55.2354 69.3438 55.8901 69.1624C56.5152 68.9892 57.1557 68.7448 57.6998 68.3942C58.2429 68.0443 58.7601 67.5415 58.9987 66.8326C59.2965 65.9475 59.6428 65.4735 60.1917 64.9661C60.4898 64.6905 60.8453 64.408 61.3113 64.041L61.3743 63.9914C61.8193 63.641 62.3439 63.2279 62.9513 62.7123C64.3182 61.5518 64.5121 59.8134 64.3522 58.3974C64.2552 57.5385 64.0202 56.6996 63.745 55.9908ZM81.9872 53.7584C88.8678 55.9559 94.276 61.449 96.3557 68.3815C95.8811 68.3843 95.4163 68.4669 94.9821 68.5804C94.5566 68.6916 94.1605 68.8324 93.8132 68.9567C93.7365 68.9826 93.647 69.0085 93.5575 69.0345L93.5575 69.0345L93.5574 69.0345L93.5574 69.0345L93.5574 69.0345L93.5573 69.0345L93.5573 69.0345L93.5571 69.0346C93.4675 69.0606 93.3778 69.0865 93.301 69.1125C92.4815 68.3334 91.4571 67.866 90.3303 67.8141C89.5108 67.7621 88.7425 68.0738 88.2304 68.697C87.8809 69.1157 87.6694 69.5944 87.608 70.0958C87.5704 70.4029 87.5891 70.7186 87.6669 71.0342L87.6672 71.035C87.6929 71.1133 87.7187 71.1916 87.7452 71.269C87.8 71.4289 87.8583 71.5852 87.9272 71.7308C87.9577 71.7952 87.9902 71.8575 88.0255 71.9171C88.0511 71.995 88.0895 72.0858 88.1279 72.1767L88.1279 72.1768L88.1279 72.1769C88.1663 72.2677 88.2047 72.3586 88.2304 72.4365C87.8968 72.5331 87.5632 72.4949 87.2709 72.3636C87.249 72.3538 87.2274 72.3435 87.206 72.3326C87.1734 72.2936 87.1398 72.2559 87.1052 72.2196C86.7929 71.8921 86.4024 71.6788 85.9849 71.5871C85.9021 71.569 85.8183 71.5556 85.7338 71.547C85.4758 71.5209 85.2115 71.5398 84.9523 71.6055C84.2353 71.8652 83.7743 72.5404 83.7231 73.3194C83.5694 74.6698 83.9792 76.0202 84.8499 77.1109C85.0784 77.3604 85.3311 77.5855 85.6017 77.784C86.1195 78.1639 86.7029 78.4465 87.3084 78.6171L87.3201 78.6171L87.3324 78.6174C87.3375 78.6176 87.342 78.6181 87.3461 78.6189C87.3488 78.6195 87.3513 78.6201 87.3537 78.621C87.3688 78.6264 87.3813 78.639 87.4108 78.6689L87.4109 78.669C87.376 78.722 87.3412 78.7749 87.3084 78.8279C87.2603 78.9055 87.2165 78.9832 87.1834 79.0608C87.1727 79.086 87.163 79.1112 87.1548 79.1364C87.0011 79.4481 86.8474 79.7077 86.6426 79.9674C86.5599 80.0931 86.4689 80.2273 86.373 80.3631L86.341 80.4081C86.2083 80.5943 86.0669 80.7822 85.9255 80.9542C85.2597 81.7852 84.6963 82.7201 84.3377 83.7069C84.0816 84.5899 83.928 85.5247 83.8768 86.4077C83.8255 87.0309 83.7743 87.6022 83.6719 88.2255C83.5182 88.7449 83.2109 89.2642 82.8524 89.6797C82.1353 90.5107 81.367 91.2898 80.4451 91.913C79.728 92.4324 79.2158 92.5363 78.9085 92.2247C78.2427 91.4456 77.8329 90.4588 77.6793 89.472C77.5768 88.9526 77.5256 88.4332 77.5256 87.9139C77.5256 87.0829 77.4232 86.3038 77.2183 85.5247C77.1159 85.2131 77.0134 84.9534 76.8598 84.6937C76.7061 84.434 76.6037 84.1744 76.6037 83.8627C76.7573 81.993 76.0915 80.9542 75.4769 80.4349C74.0427 79.1364 71.7891 79.4481 71.3281 79.5519C70.5086 79.6039 69.8428 79.2922 68.9208 78.8248L68.6648 78.7209C67.2306 78.0457 66.7184 76.7992 66.9233 74.6698C67.1794 72.4884 68.6648 70.6706 70.7135 69.9954C72.5574 69.4761 74.4013 69.9954 76.5525 70.6706C77.7817 70.9303 79.011 71.0342 80.2402 71.0861H80.3427C81.3158 71.19 82.289 70.9303 83.1085 70.3071C83.5694 69.8916 83.8255 69.3722 83.8768 68.7489C84.0304 67.5544 83.6719 66.3598 82.8524 65.4769C81.4421 64.0468 78.9963 64.0168 76.8614 64.0617C76.7437 64.0641 76.6269 64.0668 76.5113 64.0695L76.4585 64.0708L76.2964 64.0746C75.7828 64.1071 75.2692 64.1193 74.7556 64.0982L74.704 64.096C74.6457 64.0934 74.5874 64.0903 74.5291 64.0868C74.2987 64.0728 74.0683 64.0518 73.8379 64.0226C73.8891 63.8668 73.9403 63.711 74.0427 63.6071C74.121 63.5278 74.2291 63.4787 74.3215 63.4368C74.35 63.4239 74.3771 63.4116 74.4013 63.3994C74.7598 63.2436 75.0671 62.9839 75.3744 62.7242C75.5294 62.5334 75.6556 62.3208 75.7589 62.0994C76.1134 61.3393 76.1965 60.4763 76.2384 60.041L76.2451 59.9715C76.2964 59.4002 78.1402 59.0886 79.5744 59.2444H79.6256C80.4963 59.1405 81.1622 58.8289 81.5719 58.3095C82.3402 57.2188 81.9304 55.6088 81.7768 55.1933C81.6875 54.6805 81.7711 54.1853 81.9872 53.7584ZM60.9344 89.7485C61.7968 90.592 63.101 92.1832 64.3518 93.7908C60.6162 91.6448 57.5706 88.4332 55.6296 84.5709C55.1753 83.6033 54.7926 82.6494 54.4773 81.7757C54.4002 81.5619 54.3273 81.3535 54.2585 81.1515C53.9988 80.3026 53.7891 79.4319 53.6329 78.5427C53.8064 78.4481 53.997 78.3751 54.1997 78.3412C54.6018 78.2741 55.2035 78.334 56.0085 79.0089C56.4561 79.3842 56.8699 80.0226 57.2651 80.9193C57.6553 81.8047 57.9847 82.8391 58.3197 83.9313L58.4261 84.2793C58.7207 85.2433 59.0257 86.2417 59.374 87.1264C59.7587 88.1034 60.2438 89.073 60.9344 89.7485ZM54.537 67.4205C55.9838 63.3013 58.6224 59.7429 62.039 57.1593C62.1867 57.6136 62.3077 58.1163 62.3648 58.6219C62.4943 59.7686 62.2747 60.6631 61.6569 61.1876C61.0783 61.6789 60.5789 62.0721 60.1327 62.4234L60.1327 62.4234L60.0738 62.4698C59.6204 62.8269 59.2006 63.1587 58.8341 63.4975C58.0539 64.2188 57.5141 64.9735 57.1031 66.1947C57.0582 66.3283 56.9315 66.5101 56.6165 66.713C56.3026 66.9153 55.871 67.0923 55.356 67.235C55.0898 67.3088 54.8136 67.3701 54.537 67.4205ZM75.29 49.72C61.4884 49.72 50.3 60.9084 50.3 74.71C50.3 88.5116 61.4884 99.7 75.29 99.7C89.0916 99.7 100.28 88.5116 100.28 74.71C100.28 60.9084 89.0916 49.72 75.29 49.72ZM87.3084 80.6171C87.3302 80.6171 87.3226 80.6175 87.2976 80.617L87.3084 80.6171ZM80 113.112C80 109.967 78.106 107.266 75.4004 106.084C75.1451 105.972 74.8549 105.972 74.5996 106.084C71.894 107.266 70 109.967 70 113.112C70 116.257 71.894 118.958 74.5996 120.14C74.8549 120.252 75.1451 120.252 75.4004 120.14C78.106 118.958 80 116.257 80 113.112ZM72 113.112C72 110.948 73.2133 109.065 75 108.11C76.7868 109.065 78 110.948 78 113.112C78 115.276 76.7868 117.159 75 118.113C73.2133 117.159 72 115.276 72 113.112ZM120.028 75.5123C118.846 78.2179 116.145 80.1119 113 80.1119C109.855 80.1119 107.154 78.2179 105.972 75.5123C105.86 75.257 105.86 74.9668 105.972 74.7116C107.154 72.0059 109.855 70.1119 113 70.1119C116.145 70.1119 118.846 72.0059 120.028 74.7116C120.14 74.9668 120.14 75.257 120.028 75.5123ZM118.002 75.1119C117.047 73.3252 115.164 72.1119 113 72.1119C110.836 72.1119 108.953 73.3252 107.998 75.1119C108.953 76.8987 110.836 78.1119 113 78.1119C115.164 78.1119 117.047 76.8987 118.002 75.1119ZM37 80.1119C40.1454 80.1119 42.8462 78.2179 44.0283 75.5123C44.1398 75.257 44.1398 74.9668 44.0283 74.7116C42.8462 72.0059 40.1454 70.1119 37 70.1119C33.8546 70.1119 31.1538 72.0059 29.9717 74.7116C29.8602 74.9668 29.8602 75.257 29.9717 75.5123C31.1538 78.2179 33.8546 80.1119 37 80.1119ZM37 72.1119C39.1641 72.1119 41.0468 73.3252 42.0015 75.1119C41.0468 76.8987 39.1641 78.1119 37 78.1119C34.8359 78.1119 32.9532 76.8987 31.9985 75.1119C32.9532 73.3252 34.8359 72.1119 37 72.1119ZM52.1391 36.3165C52.3044 36.0923 52.5558 35.9472 52.8326 35.9161C55.7668 35.5871 58.7574 36.979 60.3301 39.703C61.9028 42.427 61.613 45.7129 59.8609 48.0895C59.6956 48.3137 59.4442 48.4588 59.1674 48.4898C56.2332 48.8189 53.2426 47.427 51.6699 44.703C50.0972 41.979 50.387 38.6931 52.1391 36.3165ZM53.4992 37.8715C52.4292 39.5917 52.3199 41.8288 53.4019 43.703C54.484 45.5771 56.476 46.601 58.5008 46.5344C59.5708 44.8142 59.6801 42.5771 58.5981 40.703C57.516 38.8288 55.524 37.805 53.4992 37.8715ZM90.8326 101.734C90.5558 101.765 90.3044 101.91 90.1391 102.134C88.3871 104.511 88.0972 107.797 89.6699 110.521C91.2426 113.245 94.2332 114.637 97.1674 114.308C97.4443 114.277 97.6956 114.132 97.8609 113.907C99.613 111.531 99.9028 108.245 98.3301 105.521C96.7574 102.797 93.7668 101.405 90.8326 101.734ZM91.4019 109.521C90.3199 107.647 90.4292 105.41 91.4992 103.689C93.524 103.623 95.516 104.647 96.5981 106.521C97.6801 108.395 97.5708 110.632 96.5008 112.352C94.476 112.419 92.484 111.395 91.4019 109.521ZM113.796 52.2512C114.02 52.4165 114.165 52.6678 114.196 52.9446C114.525 55.8788 113.133 58.8695 110.409 60.4422C107.685 62.0149 104.399 61.725 102.023 59.9729C101.798 59.8076 101.653 59.5563 101.622 59.2795C101.293 56.3452 102.685 53.3546 105.409 51.7819C108.133 50.2092 111.419 50.4991 113.796 52.2512ZM112.24 53.6113C110.52 52.5413 108.283 52.4319 106.409 53.514C104.535 54.596 103.511 56.5881 103.578 58.6128C105.298 59.6828 107.535 59.7922 109.409 58.7101C111.283 57.6281 112.307 55.636 112.24 53.6113ZM48.3778 90.9444C48.3468 90.6676 48.2017 90.4163 47.9775 90.251C45.6009 88.4989 42.3149 88.209 39.591 89.7817C36.867 91.3544 35.4751 94.345 35.8041 97.2793C35.8351 97.5561 35.9803 97.8074 36.2045 97.9727C38.5811 99.7248 41.867 100.015 44.591 98.442C47.3149 96.8693 48.7069 93.8786 48.3778 90.9444ZM40.591 91.5138C42.4651 90.4317 44.7022 90.5411 46.4224 91.6111C46.489 93.6358 45.4651 95.6279 43.591 96.7099C41.7168 97.792 39.4797 97.6826 37.7595 96.6126C37.693 94.5879 38.7168 92.5958 40.591 91.5138ZM35.8042 52.9446C35.8352 52.6677 35.9803 52.4164 36.2045 52.2511C38.5811 50.499 41.8671 50.2092 44.591 51.7818C47.315 53.3545 48.707 56.3452 48.3779 59.2794C48.3469 59.5562 48.2018 59.8076 47.9775 59.9729C45.601 61.7249 42.315 62.0148 39.591 60.4421C36.8671 58.8694 35.4751 55.8788 35.8042 52.9446ZM37.7596 53.6112C37.6931 55.636 38.7169 57.628 40.591 58.7101C42.4652 59.7921 44.7023 59.6827 46.4225 58.6127C46.489 56.588 45.4652 54.5959 43.591 53.5139C41.7169 52.4318 39.4798 52.5412 37.7596 53.6112ZM102.022 90.251C101.798 90.4163 101.653 90.6677 101.622 90.9445C101.293 93.8787 102.685 96.8694 105.409 98.442C108.133 100.015 111.419 99.7249 113.795 97.9728C114.02 97.8075 114.165 97.5562 114.196 97.2793C114.525 94.3451 113.133 91.3545 110.409 89.7818C107.685 88.2091 104.399 88.499 102.022 90.251ZM106.409 96.71C104.535 95.6279 103.511 93.6359 103.578 91.6112C105.298 90.5412 107.535 90.4318 109.409 91.5138C111.283 92.5959 112.307 94.5879 112.24 96.6127C110.52 97.6827 108.283 97.792 106.409 96.71ZM97.1675 35.9162C97.4444 35.9473 97.6957 36.0924 97.861 36.3166C99.6131 38.6932 99.9029 41.9791 98.3303 44.7031C96.7576 47.4271 93.7669 48.819 90.8327 48.49C90.5559 48.4589 90.3046 48.3138 90.1393 48.0896C88.3872 45.713 88.0973 42.4271 89.67 39.7031C91.2427 36.9791 94.2333 35.5872 97.1675 35.9162ZM96.5009 37.8717C94.4762 37.8051 92.4841 38.8289 91.4021 40.7031C90.32 42.5773 90.4294 44.8143 91.4994 46.5345C93.5241 46.6011 95.5162 45.5773 96.5982 43.7031C97.6803 41.8289 97.5709 39.5919 96.5009 37.8717ZM59.8608 102.134C59.6955 101.91 59.4442 101.765 59.1673 101.734C56.2331 101.405 53.2425 102.797 51.6698 105.521C50.0971 108.245 50.387 111.531 52.139 113.907C52.3043 114.132 52.5557 114.277 52.8325 114.308C55.7667 114.637 58.7573 113.245 60.33 110.521C61.9027 107.797 61.6129 104.511 59.8608 102.134ZM53.4018 106.521C54.4839 104.647 56.4759 103.623 58.5007 103.689C59.5707 105.41 59.68 107.647 58.598 109.521C57.5159 111.395 55.5239 112.419 53.4991 112.352C52.4292 110.632 52.3198 108.395 53.4018 106.521Z" fill="#8F8F8F"/>
</svg>
