<svg width="25" height="25" viewBox="0 0 25 25" fill="none" xmlns="http://www.w3.org/2000/svg">
<g clip-path="url(#clip0_985_16583)">
<path fill-rule="evenodd" clip-rule="evenodd" d="M0.5 1.5L0.5 22.5L0.5 23.5H1.5L23.5 23.5V21.5L2.5 21.5L2.5 1.5L0.5 1.5ZM7 16.5C6.72386 16.5 6.5 16.2761 6.5 16C6.5 15.7239 6.72386 15.5 7 15.5C7.27614 15.5 7.5 15.7239 7.5 16C7.5 16.2761 7.27614 16.5 7 16.5ZM4.5 16C4.5 17.3807 5.61929 18.5 7 18.5C8.33934 18.5 9.43269 17.4468 9.49701 16.1234L13.2758 14.8103C13.7244 15.2376 14.3315 15.5 15 15.5C16.3807 15.5 17.5 14.3807 17.5 13C17.5 12.6774 17.4389 12.369 17.3276 12.0858L20.0833 9.32659C20.3671 9.43851 20.6764 9.5 21 9.5C22.3807 9.5 23.5 8.38071 23.5 7C23.5 5.61929 22.3807 4.5 21 4.5C19.6193 4.5 18.5 5.61929 18.5 7C18.5 7.32125 18.5606 7.62835 18.671 7.91049L15.913 10.672C15.6302 10.561 15.3222 10.5 15 10.5C13.6318 10.5 12.5203 11.5991 12.5003 12.9625L8.78781 14.2525C8.33391 13.7882 7.70061 13.5 7 13.5C5.61929 13.5 4.5 14.6193 4.5 16ZM14.5 13C14.5 13.2761 14.7239 13.5 15 13.5C15.2761 13.5 15.5 13.2761 15.5 13C15.5 12.7239 15.2761 12.5 15 12.5C14.7239 12.5 14.5 12.7239 14.5 13ZM21 7.5C20.7239 7.5 20.5 7.27614 20.5 7C20.5 6.72386 20.7239 6.5 21 6.5C21.2761 6.5 21.5 6.72386 21.5 7C21.5 7.27614 21.2761 7.5 21 7.5Z" fill="url(#paint0_linear_985_16583)"/>
<path fill-rule="evenodd" clip-rule="evenodd" d="M0.5 1.5L0.5 22.5L0.5 23.5H1.5L23.5 23.5V21.5L2.5 21.5L2.5 1.5L0.5 1.5ZM7 16.5C6.72386 16.5 6.5 16.2761 6.5 16C6.5 15.7239 6.72386 15.5 7 15.5C7.27614 15.5 7.5 15.7239 7.5 16C7.5 16.2761 7.27614 16.5 7 16.5ZM4.5 16C4.5 17.3807 5.61929 18.5 7 18.5C8.33934 18.5 9.43269 17.4468 9.49701 16.1234L13.2758 14.8103C13.7244 15.2376 14.3315 15.5 15 15.5C16.3807 15.5 17.5 14.3807 17.5 13C17.5 12.6774 17.4389 12.369 17.3276 12.0858L20.0833 9.32659C20.3671 9.43851 20.6764 9.5 21 9.5C22.3807 9.5 23.5 8.38071 23.5 7C23.5 5.61929 22.3807 4.5 21 4.5C19.6193 4.5 18.5 5.61929 18.5 7C18.5 7.32125 18.5606 7.62835 18.671 7.91049L15.913 10.672C15.6302 10.561 15.3222 10.5 15 10.5C13.6318 10.5 12.5203 11.5991 12.5003 12.9625L8.78781 14.2525C8.33391 13.7882 7.70061 13.5 7 13.5C5.61929 13.5 4.5 14.6193 4.5 16ZM14.5 13C14.5 13.2761 14.7239 13.5 15 13.5C15.2761 13.5 15.5 13.2761 15.5 13C15.5 12.7239 15.2761 12.5 15 12.5C14.7239 12.5 14.5 12.7239 14.5 13ZM21 7.5C20.7239 7.5 20.5 7.27614 20.5 7C20.5 6.72386 20.7239 6.5 21 6.5C21.2761 6.5 21.5 6.72386 21.5 7C21.5 7.27614 21.2761 7.5 21 7.5Z" fill="url(#paint1_linear_985_16583)"/>
</g>
<defs>
<linearGradient id="paint0_linear_985_16583" x1="17.75" y1="5.625" x2="2.18079" y2="24.1864" gradientUnits="userSpaceOnUse">
<stop stop-color="#515D89"/>
<stop offset="0.52118" stop-color="#7DC9BF"/>
<stop offset="1" stop-color="#FAEBD1"/>
</linearGradient>
<linearGradient id="paint1_linear_985_16583" x1="17.75" y1="5.625" x2="18.4683" y2="46.1469" gradientUnits="userSpaceOnUse">
<stop stop-color="#515D89"/>
<stop offset="0.52118" stop-color="#7DC9BF"/>
<stop offset="1" stop-color="#FAEBD1"/>
</linearGradient>
<clipPath id="clip0_985_16583">
<rect x="0.5" y="0.5" width="24" height="24" rx="0.25" fill="white"/>
</clipPath>
</defs>
</svg>
