<svg width="125" height="123" viewBox="0 0 125 123" fill="none" xmlns="http://www.w3.org/2000/svg">
<path d="M75.1881 13.635C60.3894 15.8409 48.4275 4.11947 35.1158 11.1347C27.1442 15.3358 28.5034 33.1881 22.4027 42.3177C16.3019 51.4473 -8.69625 72.3928 4.32277 94.3762C17.3418 116.36 36.1986 101.633 63.2643 109.891C83.002 115.913 87.8617 129.49 102.997 116.865C118.132 104.241 114.481 77.2706 116.878 62.7569C119.036 49.6949 134.953 24.0352 114.371 11.5149C93.7885 -1.00543 92.6509 11.0319 75.1881 13.635Z" fill="url(#paint0_linear_136_19671)"/>
<path fill-rule="evenodd" clip-rule="evenodd" d="M97.5075 45.1997L97.3457 37.0196C97.3195 35.699 96.0467 34.7456 94.7629 35.0564C92.909 35.5052 90.1038 36.1213 86.5728 36.7073C87.9448 41.509 92.3012 45.0513 97.5075 45.1997ZM97.547 47.2013C91.3243 47.0675 86.1214 42.7922 84.5843 37.0215C77.8287 38.036 68.8924 38.8408 59.0554 38.3151C48.3426 37.7427 39.7515 39.7784 33.871 41.9341C34.0233 42.7527 34.1029 43.5969 34.1029 44.4596C34.1029 50.3556 30.3851 55.3833 25.166 57.3263L25.5092 74.6812C31.1372 75.0296 35.8469 78.7698 37.6192 83.8825C43.8697 82.0608 51.8916 80.489 59.9085 81.0438C68.8939 81.6658 79.0199 80.3503 86.5902 78.9663C86.9908 72.5863 91.7504 67.3886 97.9251 66.3172L97.547 47.2013ZM97.9652 68.3446C93.0038 69.3417 89.1752 73.4704 88.6297 78.5806C92.185 77.8858 95.0059 77.2175 96.6213 76.8142C97.5097 76.5924 98.1123 75.7843 98.0942 74.8688L97.9652 68.3446ZM35.7034 84.4647C34.1877 80.1845 30.2568 77.0464 25.5489 76.6887L25.7164 85.1572C25.7453 86.6225 27.301 87.5918 28.6547 87.0301C30.3791 86.3145 32.8008 85.3832 35.7034 84.4647ZM31.9675 42.672C29.0092 43.8827 26.9312 45.0416 25.8387 45.7048C25.271 46.0494 24.9553 46.6734 24.9684 47.3374L25.1236 55.1844C29.2349 53.3625 32.1029 49.246 32.1029 44.4596C32.1029 43.8518 32.0567 43.2548 31.9675 42.672ZM73.5829 60.9296C73.5829 67.4051 68.3334 72.6546 61.8579 72.6546C55.3824 72.6546 50.1329 67.4051 50.1329 60.9296C50.1329 54.454 55.3824 49.2046 61.8579 49.2046C68.3334 49.2046 73.5829 54.454 73.5829 60.9296ZM75.5829 60.9296C75.5829 68.5097 69.438 74.6546 61.8579 74.6546C54.2778 74.6546 48.1329 68.5097 48.1329 60.9296C48.1329 53.3495 54.2778 47.2046 61.8579 47.2046C69.438 47.2046 75.5829 53.3495 75.5829 60.9296Z" fill="url(#paint1_linear_136_19671)"/>
<path d="M12.7331 9.95962C13.049 9.07437 14.3009 9.07437 14.6168 9.95962L15.7447 13.1206C15.8427 13.3954 16.0559 13.6136 16.3282 13.7182L19.477 14.9264C20.3326 15.2548 20.3326 16.4653 19.477 16.7937L16.3282 18.002C16.0559 18.1065 15.8427 18.3248 15.7447 18.5995L14.6168 21.7605C14.3009 22.6458 13.049 22.6458 12.7331 21.7605L11.6052 18.5995C11.5072 18.3248 11.294 18.1065 11.0216 18.002L7.8729 16.7937C7.01725 16.4653 7.01725 15.2548 7.8729 14.9264L11.0216 13.7182C11.294 13.6136 11.5072 13.3954 11.6052 13.1206L12.7331 9.95962Z" fill="url(#paint2_linear_136_19671)"/>
<path d="M63.3631 92.9196C63.679 92.0343 64.9309 92.0343 65.2468 92.9196L66.3747 96.0806C66.4727 96.3553 66.6859 96.5736 66.9583 96.6781L70.107 97.8864C70.9626 98.2148 70.9626 99.4253 70.107 99.7536L66.9583 100.962C66.6859 101.066 66.4727 101.285 66.3747 101.559L65.2468 104.72C64.9309 105.606 63.679 105.606 63.3631 104.72L62.2352 101.559C62.1372 101.285 61.924 101.066 61.6516 100.962L58.5029 99.7536C57.6473 99.4253 57.6473 98.2148 58.5029 97.8864L61.6516 96.6781C61.924 96.5736 62.1372 96.3553 62.2352 96.0806L63.3631 92.9196Z" fill="url(#paint3_linear_136_19671)"/>
<path d="M107.893 9.95962C108.209 9.07437 109.461 9.07437 109.777 9.95962L110.905 13.1206C111.003 13.3954 111.216 13.6136 111.488 13.7182L114.637 14.9264C115.493 15.2548 115.493 16.4653 114.637 16.7937L111.488 18.002C111.216 18.1065 111.003 18.3248 110.905 18.5995L109.777 21.7605C109.461 22.6458 108.209 22.6458 107.893 21.7605L106.765 18.5995C106.667 18.3248 106.454 18.1065 106.182 18.002L103.033 16.7937C102.177 16.4653 102.177 15.2548 103.033 14.9264L106.182 13.7182C106.454 13.6136 106.667 13.3954 106.765 13.1206L107.893 9.95962Z" fill="url(#paint4_linear_136_19671)"/>
<path fill-rule="evenodd" clip-rule="evenodd" d="M34.4425 10.1088C34.5781 10.1349 34.6668 10.266 34.6407 10.4016L33.2055 17.8556C57.803 2.6632 90.2305 9.4502 106.592 33.6155C120.367 53.9598 118.476 80.2993 103.671 98.382C103.146 99.023 102.201 99.1172 101.56 98.5924C100.919 98.0676 100.825 97.1225 101.35 96.4815C115.337 79.3973 117.119 54.513 104.108 35.2974C88.6173 12.4186 57.8827 6.02898 34.6273 20.5039L42.5085 22.0215C42.6441 22.0476 42.7328 22.1787 42.7067 22.3142L42.3769 24.0271C42.3508 24.1627 42.2197 24.2515 42.0841 24.2254L30.3901 21.9737C30.3211 21.9604 30.2642 21.9199 30.2284 21.8654C30.1892 21.8114 30.1715 21.7419 30.1852 21.6712L32.4368 9.97719C32.4629 9.84161 32.594 9.75286 32.7296 9.77897L34.4425 10.1088ZM21.6076 32.5409C22.1244 31.8934 22.0183 30.9496 21.3708 30.4329C20.7233 29.9161 19.7795 30.0222 19.2628 30.6697C4.84665 48.7342 3.1228 74.7633 16.7651 94.9121C33.1269 119.077 65.5543 125.864 90.1518 110.672L88.7166 118.126C88.6905 118.262 88.7792 118.393 88.9148 118.419L90.6277 118.749C90.7633 118.775 90.8944 118.686 90.9205 118.55L93.1721 106.856C93.1855 106.787 93.1688 106.719 93.1311 106.665C93.0955 106.609 93.0377 106.567 92.9672 106.554L81.2732 104.302C81.1376 104.276 81.0065 104.365 80.9804 104.5L80.6506 106.213C80.6245 106.349 80.7133 106.48 80.8488 106.506L88.7304 108.023C65.4749 122.499 34.7401 116.109 19.2492 93.2301C6.36392 74.1994 7.98714 49.6085 21.6076 32.5409Z" fill="url(#paint5_linear_136_19671)"/>
<defs>
<linearGradient id="paint0_linear_136_19671" x1="147.31" y1="48.9379" x2="-14.6297" y2="86.2436" gradientUnits="userSpaceOnUse">
<stop stop-color="#EEF1F3"/>
<stop offset="0.5" stop-color="#F1F9F6"/>
<stop offset="1" stop-color="#F9FBF8"/>
</linearGradient>
<linearGradient id="paint1_linear_136_19671" x1="63.8455" y1="32.8095" x2="53.4638" y2="79.0613" gradientUnits="userSpaceOnUse">
<stop stop-color="#7D9AA2"/>
<stop offset="0.5" stop-color="#9AD3BE"/>
<stop offset="1" stop-color="#D1E2C7"/>
</linearGradient>
<linearGradient id="paint2_linear_136_19671" x1="7.91044" y1="24.4001" x2="7.46939" y2="7.48185" gradientUnits="userSpaceOnUse">
<stop offset="0.447472" stop-color="#FFECBC"/>
<stop offset="1" stop-color="#ECD59F"/>
</linearGradient>
<linearGradient id="paint3_linear_136_19671" x1="58.5404" y1="107.36" x2="58.0994" y2="90.4418" gradientUnits="userSpaceOnUse">
<stop offset="0.447472" stop-color="#FFECBC"/>
<stop offset="1" stop-color="#ECD59F"/>
</linearGradient>
<linearGradient id="paint4_linear_136_19671" x1="103.07" y1="24.4001" x2="102.629" y2="7.48185" gradientUnits="userSpaceOnUse">
<stop offset="0.447472" stop-color="#FFECBC"/>
<stop offset="1" stop-color="#ECD59F"/>
</linearGradient>
<linearGradient id="paint5_linear_136_19671" x1="65.112" y1="5.20645" x2="35.9768" y2="97.4394" gradientUnits="userSpaceOnUse">
<stop stop-color="#A8BCC1"/>
<stop offset="0.5" stop-color="#BCE1D4"/>
<stop offset="1" stop-color="#DFECDA"/>
</linearGradient>
</defs>
</svg>
