<svg width="100" height="100" viewBox="0 0 100 100" fill="none" xmlns="http://www.w3.org/2000/svg">
<path d="M89.7431 48.1162C95.4076 51.3195 97.3793 58.4669 94.1469 64.0805C90.9146 69.694 83.7022 71.648 78.0377 68.4447C73.1678 65.6908 64.4252 56.153 57.993 48.6926C55.0519 45.2813 57.9264 40.2891 62.3862 41.063C72.1396 42.7555 84.8732 45.3623 89.7431 48.1162Z" fill="white" stroke="#8F8F8F" stroke-width="3" stroke-linejoin="round"/>
<path d="M10.2569 48.1162C4.59239 51.3195 2.62072 58.4669 5.85307 64.0805C9.08542 69.694 16.2978 71.648 21.9623 68.4447C26.8322 65.6908 35.5748 56.153 42.007 48.6926C44.9481 45.2813 42.0736 40.2891 37.6138 41.063C27.8604 42.7555 15.1268 45.3623 10.2569 48.1162Z" fill="white" stroke="#8F8F8F" stroke-width="3" stroke-linejoin="round"/>
<path d="M37.2148 54.6102C37.2148 47.5793 42.6386 41.7388 49.6503 41.2193C49.9437 41.1975 50.2383 41.1975 50.5317 41.2193C57.5434 41.7388 62.967 47.5792 62.967 54.6101V73.9313C62.967 79.5218 60.439 84.8125 56.0894 88.3247L50.405 92.9147C50.2218 93.0627 49.9601 93.0627 49.7768 92.9147L44.0924 88.3247C39.7429 84.8125 37.2148 79.5218 37.2148 73.9313V54.6102Z" fill="white" stroke="#8F8F8F" stroke-width="3"/>
<line x1="37.6777" y1="77.0475" x2="62.3225" y2="77.0475" stroke="#8F8F8F" stroke-width="3" stroke-linejoin="round"/>
<path d="M37.1246 54.0577C37.232 46.9456 42.8751 41.1362 49.9992 40.8394C57.1233 41.1362 62.7664 46.9456 62.8737 54.0577H37.1246Z" fill="#EFEFEF" stroke="#8F8F8F" stroke-width="3"/>
<mask id="path-6-inside-1_2549_33545" fill="white">
<path fill-rule="evenodd" clip-rule="evenodd" d="M36.3611 78.5474C35.8765 76.814 35.623 75.0046 35.623 73.1639V65.2803H49.9991H64.3752V73.1639C64.3752 75.0046 64.1218 76.814 63.6372 78.5474H36.3611Z"/>
</mask>
<path fill-rule="evenodd" clip-rule="evenodd" d="M36.3611 78.5474C35.8765 76.814 35.623 75.0046 35.623 73.1639V65.2803H49.9991H64.3752V73.1639C64.3752 75.0046 64.1218 76.814 63.6372 78.5474H36.3611Z" fill="#EFEFEF"/>
<path d="M36.3611 78.5474L33.4718 79.3551L34.0847 81.5474H36.3611V78.5474ZM35.623 65.2803V62.2803H32.623V65.2803H35.623ZM64.3752 65.2803H67.3752V62.2803H64.3752V65.2803ZM63.6372 78.5474V81.5474H65.9136L66.5264 79.3551L63.6372 78.5474ZM39.2503 77.7398C38.8385 76.2666 38.623 74.7289 38.623 73.1639H32.623C32.623 75.2804 32.9145 77.3614 33.4718 79.3551L39.2503 77.7398ZM38.623 73.1639V65.2803H32.623V73.1639H38.623ZM35.623 68.2803H49.9991V62.2803H35.623V68.2803ZM49.9991 68.2803H64.3752V62.2803H49.9991V68.2803ZM61.3752 65.2803V73.1639H67.3752V65.2803H61.3752ZM61.3752 73.1639C61.3752 74.7289 61.1598 76.2666 60.748 77.7398L66.5264 79.3551C67.0838 77.3614 67.3752 75.2804 67.3752 73.1639H61.3752ZM63.6372 75.5474H36.3611V81.5474H63.6372V75.5474Z" fill="#8F8F8F" mask="url(#path-6-inside-1_2549_33545)"/>
<path d="M60.8374 30.927C60.8374 36.8976 55.9878 41.7424 49.9998 41.7424C44.0117 41.7424 39.1621 36.8976 39.1621 30.927C39.1621 24.9564 44.0117 20.1117 49.9998 20.1117C55.9878 20.1117 60.8374 24.9564 60.8374 30.927Z" fill="white" stroke="#8F8F8F" stroke-width="3"/>
<path d="M70.5312 11.0321C71.3624 11.0321 72.0389 10.3628 72.0422 9.53723C72.0454 8.71162 71.3742 8.04232 70.543 8.04233L70.5312 11.0321ZM60.4294 9.53725L60.4353 8.04234C59.8284 8.04234 59.2795 8.40438 59.0432 8.9605L60.4294 9.53725ZM70.543 8.04233L60.4353 8.04234L60.4235 11.0322L70.5312 11.0321L70.543 8.04233ZM59.0432 8.9605L54.055 20.6984L56.8275 21.8519L61.8157 10.114L59.0432 8.9605Z" fill="#8F8F8F"/>
<path d="M29.877 10.8323C29.0458 10.8323 28.3693 10.163 28.366 9.3374C28.3628 8.51179 29.034 7.84249 29.8652 7.8425L29.877 10.8323ZM39.9788 9.33742L39.9729 7.84251C40.5798 7.84251 41.1287 8.20455 41.365 8.76067L39.9788 9.33742ZM29.8652 7.8425L39.9729 7.84251L39.9847 10.8323L29.877 10.8323L29.8652 7.8425ZM41.365 8.76067L46.3532 20.4986L43.5807 21.652L38.5925 9.91416L41.365 8.76067Z" fill="#8F8F8F"/>
<path d="M53.8968 35.4642C53.3207 34.7036 51.9387 34.1678 50.3253 34.1678C48.712 34.1678 47.33 34.7036 46.7539 35.4642" stroke="#8F8F8F" stroke-width="2" stroke-linecap="round"/>
<path d="M45.4544 28.3343C45.7163 29.0949 46.3445 29.6306 47.0778 29.6306C47.8111 29.6306 48.4393 29.0949 48.7012 28.3343" stroke="#8F8F8F" stroke-width="2" stroke-linecap="round"/>
<path d="M51.9486 28.3343C52.2104 29.0949 52.8386 29.6306 53.5719 29.6306C54.3053 29.6306 54.9335 29.0949 55.1953 28.3343" stroke="#8F8F8F" stroke-width="2" stroke-linecap="round"/>
</svg>
