<svg width="211" height="180" viewBox="0 0 211 180" fill="none" xmlns="http://www.w3.org/2000/svg">
<path d="M52.4535 41.6211C32.3256 59.0647 8.28592 46.1399 3.37862 69.1446C0.439935 82.9207 14.8295 95.0248 19.328 110.635C25.998 117.388 6.24159 140.623 22.1907 154.18C38.1398 167.736 47.4534 149.656 67.1754 158.698C78.5312 163.905 84.7603 184.8 120.339 182.935C155.918 181.071 157.145 152.947 184.136 135.283C211.127 117.619 221.76 116.386 221.76 85.5765C221.76 54.7667 195.178 67.5014 168.596 36.6916C142.014 5.88175 123.611 -8.08536 103.164 -1.10179C67.5271 11.0693 73.3101 23.5461 52.4535 41.6211Z" fill="url(#paint0_linear_5697_460833)"/>
<g clip-path="url(#clip0_5697_460833)">
<path d="M120.538 32.102C150.336 43.5185 155.062 10.9728 155.062 10.9728C135.757 2.73088 119.65 12.6056 120.538 32.102Z" fill="url(#paint1_linear_5697_460833)"/>
<path d="M110.401 55.9213C81.1851 68.7406 74.9028 36.4562 74.9028 36.4562C93.7905 27.3065 110.353 36.4048 110.401 55.9213Z" fill="url(#paint2_linear_5697_460833)"/>
<path fill-rule="evenodd" clip-rule="evenodd" d="M99.8996 11.8609C99.2378 11.4873 98.3872 11.6679 97.9388 12.3018C97.4904 12.9361 97.6039 13.7991 98.1775 14.2984L98.2974 14.393L98.8672 14.803C104.72 19.0954 109.57 25.1166 112.111 34.0806C113.869 40.2793 114.535 47.9338 113.618 57.4583C107.94 48.2865 99.1836 44.9193 89.2456 41.0979L88.9522 40.9851C88.1789 40.688 87.3116 41.0734 87.0144 41.8461C86.7172 42.6191 87.1027 43.4873 87.8762 43.7848C99.3763 48.2076 108.036 51.5606 112.981 62.6767C112.499 65.9689 111.844 69.4636 110.997 73.1747C110.813 73.9824 111.319 74.7862 112.127 74.9704C112.934 75.1546 113.738 74.6495 113.922 73.8419C116.852 60.9987 117.578 50.5292 116.65 41.9412C116.695 41.8572 116.733 41.7676 116.762 41.673C120.926 28.1778 133.448 20.9083 143.955 17.6028C144.745 17.354 145.184 16.512 144.936 15.7219C144.687 14.9319 143.845 14.4933 143.055 14.7419C133.375 17.7872 121.459 24.2502 115.718 36.1461C115.503 35.1562 115.262 34.1952 114.998 33.2623C112.257 23.5964 106.982 17.0356 100.646 12.3873L100.03 11.9433L99.8996 11.8609Z" fill="url(#paint3_linear_5697_460833)"/>
<path fill-rule="evenodd" clip-rule="evenodd" d="M97.5645 74.4102L123.752 117.966C117.899 121.479 121.408 119.373 115.555 122.886C107.177 127.915 94.5235 122.241 87.2919 110.214C80.0604 98.1861 80.9896 84.3592 89.3674 79.3304C95.2145 75.8207 91.7125 77.9228 97.5645 74.4102Z" fill="url(#paint4_linear_5697_460833)"/>
<ellipse cx="25.4324" cy="17.5837" rx="25.4324" ry="17.5837" transform="matrix(0.515331 0.857096 -0.857321 0.514608 113.127 65.041)" fill="url(#paint5_linear_5697_460833)"/>
</g>
<path fill-rule="evenodd" clip-rule="evenodd" d="M165.014 50.1602C166.243 50.1602 167.24 51.157 167.24 52.3867C167.24 53.6165 166.243 54.6133 165.014 54.6133C163.784 54.6132 162.787 53.6164 162.787 52.3867C162.787 51.1571 163.784 50.1602 165.014 50.1602ZM164.261 57.5595C161.818 57.2072 159.921 55.1653 159.794 52.6562L159.787 52.3867C159.787 49.5002 162.127 47.1602 165.014 47.1602L165.283 47.167C168.045 47.3072 170.24 49.5905 170.24 52.3867L170.233 52.6562C170.132 54.6527 168.91 56.3534 167.185 57.1424C167.234 57.2906 167.26 57.4489 167.26 57.6135V70.76C167.26 77.1112 162.112 82.26 155.76 82.26H142.614C141.785 82.26 141.114 81.5884 141.114 80.76C141.114 79.9316 141.785 79.26 142.614 79.26H155.76C160.455 79.26 164.26 75.4544 164.26 70.76V57.6135L164.261 57.584L164.261 57.5595ZM53.7673 57.6135V70.76C53.7673 75.4544 57.5729 79.26 62.2673 79.26H75.4138C76.2421 79.26 76.9137 79.9316 76.9138 80.76C76.9138 81.5884 76.2422 82.26 75.4138 82.26H62.2673C55.916 82.26 50.7673 77.1112 50.7673 70.76V57.6135C50.7673 57.4489 50.7938 57.2906 50.8428 57.1424C49.1171 56.3534 47.8955 54.6527 47.7942 52.6562L47.7873 52.3867C47.7874 49.5905 49.983 47.3072 52.7443 47.167L53.0139 47.1602C55.9004 47.1602 58.2404 49.5002 58.2404 52.3867L58.2336 52.6562C58.1062 55.1653 56.2095 57.2072 53.7663 57.5595C53.767 57.5774 53.7673 57.5954 53.7673 57.6135ZM81.0936 159.9H67.9471C67.929 159.9 67.911 159.9 67.8931 159.901C67.5408 157.458 65.4989 155.561 62.9899 155.434L62.7203 155.427C59.8338 155.427 57.4938 157.767 57.4938 160.653L57.5006 160.923C57.6408 163.684 59.9241 165.88 62.7203 165.88L62.9899 165.873C64.9863 165.772 66.687 164.55 67.476 162.825C67.6242 162.873 67.7826 162.9 67.9471 162.9H81.0936C87.4449 162.9 92.5936 157.751 92.5936 151.4V138.253C92.5936 137.425 91.922 136.753 91.0936 136.753C90.2653 136.754 89.5936 137.425 89.5936 138.253V151.4C89.5936 156.094 85.788 159.9 81.0936 159.9ZM175.552 102.406C173.528 102.303 171.787 101.126 170.89 99.4335H142.614C141.785 99.4335 141.114 98.7619 141.114 97.9335C141.114 97.1051 141.785 96.4335 142.614 96.4335H170.253C170.448 93.518 172.875 91.2137 175.84 91.2135L176.128 91.2203C179.087 91.3701 181.44 93.817 181.441 96.8131L181.433 97.1012C181.283 100.06 178.836 102.414 175.84 102.414L175.552 102.406ZM47.138 99.4335C46.2402 101.126 44.4995 102.303 42.4756 102.406L42.1875 102.414C39.1912 102.414 36.7445 100.06 36.5947 97.1012L36.5869 96.8131C36.5871 93.817 38.9404 91.37 41.8994 91.2203L42.1875 91.2135C45.1524 91.2137 47.5791 93.518 47.7744 96.4335H75.4138C76.2422 96.4335 76.9138 97.1051 76.9138 97.9335C76.9138 98.7619 76.2422 99.4335 75.4138 99.4335H47.138ZM112.739 171.192C112.637 169.168 111.46 167.427 109.767 166.529V138.253C109.767 137.425 109.096 136.753 108.267 136.753C107.439 136.753 106.767 137.425 106.767 138.253V165.893C103.852 166.088 101.547 168.515 101.547 171.48L101.554 171.768C101.704 174.727 104.151 177.08 107.147 177.08L107.435 177.073C110.394 176.923 112.747 174.476 112.747 171.48L112.739 171.192ZM164.26 125.106V137.507C164.26 137.526 164.261 137.546 164.261 137.565C161.818 137.942 159.921 140.13 159.794 142.819L159.787 143.107C159.787 146.2 162.127 148.707 165.014 148.707L165.283 148.7C168.044 148.55 170.24 146.103 170.24 143.107L170.233 142.819C170.132 140.676 168.906 138.85 167.175 138.006C167.23 137.85 167.26 137.682 167.26 137.507V125.106C167.26 118.755 162.111 113.606 155.76 113.606H142.614C141.785 113.606 141.114 114.278 141.114 115.106C141.114 115.935 141.785 116.606 142.614 116.606H155.76C160.455 116.606 164.26 120.412 164.26 125.106ZM53.7673 137.507V125.106C53.7675 120.412 57.573 116.606 62.2673 116.606H75.4138C76.2422 116.606 76.9138 115.935 76.9138 115.106C76.9136 114.278 76.2421 113.606 75.4138 113.606H62.2673C55.9162 113.606 50.7675 118.755 50.7673 125.106V137.507C50.7673 137.682 50.7973 137.85 50.8525 138.006C49.1214 138.85 47.8954 140.676 47.7942 142.819L47.7873 143.107C47.7875 146.103 49.9831 148.55 52.7443 148.7L53.0139 148.707C55.9003 148.707 58.2402 146.2 58.2404 143.107L58.2336 142.819C58.1066 140.13 56.2097 137.942 53.7662 137.565C53.7669 137.546 53.7673 137.526 53.7673 137.507ZM135.44 159.9H147.84C147.86 159.9 147.879 159.9 147.898 159.901C148.276 157.458 150.464 155.561 153.153 155.434L153.441 155.427C156.533 155.427 159.04 157.767 159.04 160.653L159.034 160.923C158.883 163.684 156.437 165.88 153.441 165.88L153.153 165.873C151.009 165.772 149.184 164.546 148.34 162.815C148.184 162.87 148.016 162.9 147.84 162.9H135.44C129.089 162.9 123.94 157.751 123.94 151.4V138.253C123.94 137.425 124.612 136.754 125.44 136.753C126.268 136.753 126.94 137.425 126.94 138.253V151.4C126.94 156.094 130.746 159.9 135.44 159.9ZM50.7873 52.3867C50.7874 51.157 51.7842 50.1602 53.0139 50.1602C54.2436 50.1602 55.2404 51.157 55.2404 52.3867C55.2404 53.6164 54.2436 54.6132 53.0139 54.6133C51.7841 54.6133 50.7873 53.6165 50.7873 52.3867ZM60.4938 160.653C60.4938 161.883 61.4906 162.88 62.7203 162.88C63.9501 162.88 64.9469 161.883 64.9469 160.653C64.9468 159.424 63.9501 158.427 62.7203 158.427C61.4907 158.427 60.4938 159.424 60.4938 160.653ZM178.441 96.8131C178.44 95.3773 177.276 94.2135 175.84 94.2135C174.404 94.2137 173.241 95.3775 173.24 96.8131C173.24 98.2489 174.404 99.4135 175.84 99.4137C177.276 99.4137 178.441 98.249 178.441 96.8131ZM42.1875 94.2135C40.7517 94.2135 39.5871 95.3773 39.5869 96.8131C39.5869 98.249 40.7516 99.4137 42.1875 99.4137C43.6233 99.4135 44.7871 98.2489 44.7871 96.8131C44.7869 95.3775 43.6231 94.2137 42.1875 94.2135ZM107.147 174.08C105.711 174.08 104.547 172.916 104.547 171.48C104.547 170.044 105.711 168.88 107.147 168.88C108.583 168.88 109.747 170.044 109.747 171.48C109.747 172.916 108.583 174.08 107.147 174.08ZM165.014 145.707C166.052 145.707 167.24 144.741 167.24 143.107C167.24 141.473 166.052 140.507 165.014 140.507C163.976 140.507 162.787 141.473 162.787 143.107C162.787 144.741 163.976 145.707 165.014 145.707ZM50.7873 143.107C50.7875 144.741 51.9758 145.707 53.0139 145.707C54.0519 145.707 55.2403 144.741 55.2404 143.107C55.2404 141.473 54.052 140.507 53.0139 140.507C51.9757 140.507 50.7873 141.473 50.7873 143.107ZM156.04 160.653C156.04 161.691 155.075 162.88 153.441 162.88C151.807 162.88 150.84 161.692 150.84 160.653C150.84 159.615 151.807 158.427 153.441 158.427C155.075 158.427 156.04 159.615 156.04 160.653Z" fill="url(#paint6_linear_5697_460833)"/>
<path d="M47.6034 6.21014C47.9365 5.36633 49.1307 5.36633 49.4637 6.21014L51.5917 11.6014C51.6987 11.8725 51.9187 12.0835 52.1941 12.179L57.7568 14.1088C58.6532 14.4197 58.6532 15.6873 57.7568 15.9983L52.1941 17.928C51.9187 18.0236 51.6987 18.2345 51.5917 18.5057L49.4637 23.8969C49.1307 24.7407 47.9365 24.7407 47.6034 23.8969L45.4755 18.5057C45.3685 18.2345 45.1485 18.0236 44.8731 17.928L39.3103 15.9983C38.414 15.6873 38.414 14.4197 39.3103 14.1088L44.8731 12.179C45.1485 12.0835 45.3685 11.8725 45.4755 11.6014L47.6034 6.21014Z" fill="url(#paint7_linear_5697_460833)"/>
<path d="M197.683 31.5969C198.017 30.753 199.211 30.753 199.544 31.5969L201.672 36.9881C201.779 37.2592 201.999 37.4702 202.274 37.5657L207.837 39.4955C208.733 39.8064 208.733 41.0741 207.837 41.385L202.274 43.3148C201.999 43.4103 201.779 43.6212 201.672 43.8924L199.544 49.2836C199.211 50.1274 198.017 50.1274 197.683 49.2836L195.556 43.8924C195.449 43.6212 195.229 43.4103 194.953 43.3148L189.39 41.385C188.494 41.0741 188.494 39.8064 189.39 39.4955L194.953 37.5657C195.229 37.4702 195.449 37.2592 195.556 36.9881L197.683 31.5969Z" fill="url(#paint8_linear_5697_460833)"/>
<path d="M23.7099 123.437C24.0429 122.593 25.2371 122.593 25.5702 123.437L27.6981 128.828C27.8051 129.099 28.0251 129.31 28.3005 129.406L33.8633 131.335C34.7596 131.646 34.7596 132.914 33.8633 133.225L28.3005 135.155C28.0251 135.25 27.8051 135.461 27.6981 135.732L25.5702 141.123C25.2371 141.967 24.0429 141.967 23.7099 141.123L21.5819 135.732C21.4749 135.461 21.2549 135.25 20.9795 135.155L15.4168 133.225C14.5204 132.914 14.5204 131.646 15.4168 131.335L20.9795 129.406C21.2549 129.31 21.4749 129.099 21.5819 128.828L23.7099 123.437Z" fill="url(#paint9_linear_5697_460833)"/>
<defs>
<linearGradient id="paint0_linear_5697_460833" x1="180.089" y1="-2.86718" x2="96.6875" y2="213.473" gradientUnits="userSpaceOnUse">
<stop stop-color="#EEF1F3"/>
<stop offset="0.5" stop-color="#F1F9F6"/>
<stop offset="1" stop-color="#F9FBF8"/>
</linearGradient>
<linearGradient id="paint1_linear_5697_460833" x1="143.278" y1="5.51335" x2="126.585" y2="27.2769" gradientUnits="userSpaceOnUse">
<stop stop-color="#A8BCC1"/>
<stop offset="0.5" stop-color="#BCE1D4"/>
<stop offset="1" stop-color="#DFECDA"/>
</linearGradient>
<linearGradient id="paint2_linear_5697_460833" x1="86.4115" y1="30.4431" x2="104.128" y2="51.3904" gradientUnits="userSpaceOnUse">
<stop stop-color="#A8BCC1"/>
<stop offset="0.5" stop-color="#BCE1D4"/>
<stop offset="1" stop-color="#DFECDA"/>
</linearGradient>
<linearGradient id="paint3_linear_5697_460833" x1="115.96" y1="11.668" x2="89.0354" y2="73.3999" gradientUnits="userSpaceOnUse">
<stop offset="0.00458717" stop-color="#7BC796"/>
<stop offset="1" stop-color="#C5E6D1"/>
</linearGradient>
<linearGradient id="paint4_linear_5697_460833" x1="78.1262" y1="94.9692" x2="101.085" y2="80.7405" gradientUnits="userSpaceOnUse">
<stop offset="0.447472" stop-color="#FFF6DE"/>
<stop offset="1" stop-color="#F5E9CE"/>
</linearGradient>
<linearGradient id="paint5_linear_5697_460833" x1="7.62973" y1="35.1673" x2="7.02406" y2="0.31995" gradientUnits="userSpaceOnUse">
<stop offset="0.447472" stop-color="#FFECBC"/>
<stop offset="1" stop-color="#ECD59F"/>
</linearGradient>
<linearGradient id="paint6_linear_5697_460833" x1="113.598" y1="41.7144" x2="82.0027" y2="153.731" gradientUnits="userSpaceOnUse">
<stop stop-color="#A8BCC1"/>
<stop offset="0.5" stop-color="#BCE1D4"/>
<stop offset="1" stop-color="#DFECDA"/>
</linearGradient>
<linearGradient id="paint7_linear_5697_460833" x1="40.1709" y1="26.2535" x2="39.6479" y2="4.06293" gradientUnits="userSpaceOnUse">
<stop offset="0.447472" stop-color="#FFECBC"/>
<stop offset="1" stop-color="#ECD59F"/>
</linearGradient>
<linearGradient id="paint8_linear_5697_460833" x1="190.251" y1="51.6402" x2="189.728" y2="29.4496" gradientUnits="userSpaceOnUse">
<stop offset="0.447472" stop-color="#FFECBC"/>
<stop offset="1" stop-color="#ECD59F"/>
</linearGradient>
<linearGradient id="paint9_linear_5697_460833" x1="16.2774" y1="143.48" x2="16.6729" y2="120.919" gradientUnits="userSpaceOnUse">
<stop offset="0.447472" stop-color="#FFE19A"/>
<stop offset="1" stop-color="#DFBE6C"/>
</linearGradient>
<clipPath id="clip0_5697_460833">
<rect width="124.693" height="124.693" fill="white" transform="translate(50.0264 3.85352)"/>
</clipPath>
</defs>
</svg>
