<svg width="40" height="40" viewBox="0 0 40 40" fill="none" xmlns="http://www.w3.org/2000/svg">
<rect width="40" height="40" fill="#D2D5D9"/>
<path fill-rule="evenodd" clip-rule="evenodd" d="M27 19.2572V16H22.75C22.3358 16 22 15.6642 22 15.25V11H20H13V29H19V31H11.25C11.1119 31 11 30.8881 11 30.75V9.25C11 9.11193 11.1119 9 11.25 9H20H23.39C23.4601 9 23.527 9.02941 23.5743 9.08107L28.9343 14.9283C28.9766 14.9744 29 15.0347 29 15.0972V23.5C29 21.7921 28.2215 20.266 27 19.2572ZM20.3369 19H15.25C15.1119 19 15 19.1119 15 19.25V19.75C15 19.8881 15.1119 20 15.25 20H19.2572C19.5705 19.6206 19.9338 19.2839 20.3369 19ZM18.207 22H15.25C15.1119 22 15 22.1119 15 22.25V22.75C15 22.8881 15.1119 23 15.25 23H18.0224C18.0534 22.6566 18.1159 22.3223 18.207 22ZM18.207 25H15.25C15.1119 25 15 25.1119 15 25.25V25.75C15 25.8881 15.1119 26 15.25 26H18.5997C18.4378 25.6832 18.3056 25.3486 18.207 25ZM28 31V26.6631C28.63 25.7684 29 24.6774 29 23.5V30.75C29 30.8881 28.8881 31 28.75 31H28ZM24.3333 31L24.1332 30.8363C23.7649 30.5349 23.2351 30.5349 22.8668 30.8363L22.6667 31H24.3333ZM26.2869 15L23 11.4143V15H26.2869Z" fill="#8F8F8F"/>
<mask id="path-3-inside-1_7028_28104" fill="white">
<path fill-rule="evenodd" clip-rule="evenodd" d="M28 26.6631C28.63 25.7684 29 24.6774 29 23.5C29 20.4624 26.5376 18 23.5 18C20.4624 18 18 20.4624 18 23.5C18 24.6774 18.37 25.7684 19 26.6631V31.8898C19 32.7334 19.9803 33.1979 20.6332 32.6637L22.8668 30.8363C23.2351 30.5349 23.7649 30.5349 24.1332 30.8363L26.3668 32.6637C27.0197 33.1979 28 32.7334 28 31.8898V26.6631Z"/>
</mask>
<path d="M28 26.6631L27.1824 26.0873L27 26.3463V26.6631H28ZM19 26.6631H20V26.3463L19.8176 26.0873L19 26.6631ZM20.6332 32.6637L20 31.8898L20 31.8898L20.6332 32.6637ZM22.8668 30.8363L23.5 31.6102L23.5 31.6102L22.8668 30.8363ZM24.1332 30.8363L24.7665 30.0623L24.7665 30.0623L24.1332 30.8363ZM26.3668 32.6637L25.7335 33.4377L25.7335 33.4377L26.3668 32.6637ZM28 23.5C28 24.4646 27.6976 25.3557 27.1824 26.0873L28.8176 27.2388C29.5625 26.1811 30 24.8902 30 23.5H28ZM23.5 19C25.9853 19 28 21.0147 28 23.5H30C30 19.9101 27.0899 17 23.5 17V19ZM19 23.5C19 21.0147 21.0147 19 23.5 19V17C19.9101 17 17 19.9101 17 23.5H19ZM19.8176 26.0873C19.3024 25.3557 19 24.4646 19 23.5H17C17 24.8902 17.4376 26.1811 18.1824 27.2388L19.8176 26.0873ZM20 31.8898V26.6631H18V31.8898H20ZM20 31.8898L20 31.8898H18C18 33.577 19.9606 34.5061 21.2665 33.4377L20 31.8898ZM22.2335 30.0623L20 31.8898L21.2665 33.4377L23.5 31.6102L22.2335 30.0623ZM24.7665 30.0623C24.0297 29.4595 22.9703 29.4595 22.2335 30.0623L23.5 31.6102L23.5 31.6102L24.7665 30.0623ZM27 31.8898L24.7665 30.0623L23.5 31.6102L25.7335 33.4377L27 31.8898ZM27 31.8898L27 31.8898L25.7335 33.4377C27.0394 34.5061 29 33.577 29 31.8898H27ZM27 26.6631V31.8898H29V26.6631H27Z" fill="#8F8F8F" mask="url(#path-3-inside-1_7028_28104)"/>
<circle cx="23.5" cy="23.5" r="5" stroke="#8F8F8F"/>
<path d="M23.9484 21.0383L24.1415 21.4296C24.36 21.8723 24.7823 22.1791 25.2709 22.2501L25.7027 22.3129C26.1128 22.3725 26.2766 22.8764 25.9798 23.1657L25.6673 23.4703C25.3138 23.8149 25.1525 24.3114 25.2359 24.798L25.3097 25.228C25.3798 25.6365 24.951 25.948 24.5842 25.7551L24.198 25.5521C23.761 25.3223 23.239 25.3223 22.802 25.5521L22.4158 25.7551C22.049 25.948 21.6202 25.6365 21.6903 25.228L21.7641 24.798C21.8475 24.3114 21.6862 23.8149 21.3327 23.4703L21.0202 23.1657C20.7234 22.8764 20.8872 22.3725 21.2973 22.3129L21.7291 22.2501C22.2177 22.1791 22.64 21.8723 22.8585 21.4296L23.0516 21.0383C23.235 20.6666 23.765 20.6666 23.9484 21.0383Z" stroke="#8F8F8F"/>
</svg>
