<svg width="40" height="40" viewBox="0 0 40 40" fill="none" xmlns="http://www.w3.org/2000/svg">
<rect width="40" height="40" fill="#D2D5D9"/>
<path d="M19.1033 10.817C19.4701 10.0737 20.5299 10.0737 20.8967 10.817L23.294 15.6745C23.4397 15.9696 23.7213 16.1742 24.047 16.2215L29.4075 17.0004C30.2277 17.1196 30.5552 18.1276 29.9617 18.7061L26.0828 22.4871C25.8471 22.7169 25.7396 23.0479 25.7952 23.3723L26.7109 28.7111C26.851 29.528 25.9936 30.151 25.26 29.7653L20.4653 27.2446C20.174 27.0915 19.826 27.0915 19.5347 27.2446L14.7401 29.7653C14.0064 30.151 13.149 29.528 13.2891 28.7111L14.2048 23.3723C14.2604 23.0479 14.1529 22.7169 13.9172 22.4871L10.0383 18.7061C9.44476 18.1276 9.77226 17.1196 10.5925 17.0004L15.953 16.2215C16.2787 16.1742 16.5603 15.9696 16.706 15.6745L19.1033 10.817Z" fill="#D2D5D9" stroke="#8F8F8F" stroke-width="2"/>
</svg>
