<svg width="107" height="107" viewBox="0 0 107 107" fill="none" xmlns="http://www.w3.org/2000/svg">
<rect x="14.2667" y="14.2666" width="74.1867" height="72.76" fill="white"/>
<path d="M80.9436 88.0441H18.3343C16.7564 88.0441 15.5166 86.8043 15.5166 85.2264V61.1069" stroke="#4FB573" stroke-width="3" stroke-miterlimit="10" stroke-linejoin="round"/>
<path d="M59.4727 14.1079H86.6354C88.2133 14.1079 89.4531 15.3477 89.4531 16.9256V82.1272" stroke="#4FB573" stroke-width="3" stroke-miterlimit="10" stroke-linejoin="round"/>
<rect x="61.2923" y="54.5022" width="17.9102" height="9.60257" transform="rotate(45 61.2923 54.5022)" stroke="#4FB573" stroke-width="2" stroke-miterlimit="10"/>
<path d="M35.2969 67.2497C52.9439 67.2497 67.2496 52.9439 67.2496 35.2969C67.2496 17.65 52.9439 3.34424 35.2969 3.34424C17.6499 3.34424 3.34418 17.65 3.34418 35.2969C3.34418 52.9439 17.6499 67.2497 35.2969 67.2497Z" fill="#DCF0E3" stroke="#4FB573" stroke-width="3" stroke-miterlimit="10"/>
<path d="M35.2969 58.9092C48.3376 58.9092 58.9092 48.3376 58.9092 35.2969C58.9092 22.2562 48.3376 11.6846 35.2969 11.6846C22.2562 11.6846 11.6846 22.2562 11.6846 35.2969C11.6846 48.3376 22.2562 58.9092 35.2969 58.9092Z" fill="white" stroke="#4FB573" stroke-width="2" stroke-miterlimit="10"/>
<mask id="path-7-outside-1" maskUnits="userSpaceOnUse" x="18.5769" y="25.4358" width="34" height="21" fill="black">
<rect fill="white" x="18.5769" y="25.4358" width="34" height="21"/>
<path fill-rule="evenodd" clip-rule="evenodd" d="M20.5769 35.6666C23.7219 30.7188 29.252 27.4358 35.5489 27.4358C41.8458 27.4358 47.3759 30.7188 50.521 35.6666C47.3759 40.6143 41.8458 43.8973 35.5489 43.8973C29.252 43.8973 23.7219 40.6143 20.5769 35.6666Z"/>
</mask>
<path d="M20.5769 35.6666L18.889 34.5937C18.4729 35.2484 18.4729 36.0847 18.889 36.7395L20.5769 35.6666ZM50.521 35.6666L52.2088 36.7395C52.625 36.0847 52.625 35.2484 52.2088 34.5937L50.521 35.6666ZM22.2648 36.7395C25.0583 32.3447 29.9646 29.4358 35.5489 29.4358V25.4358C28.5395 25.4358 22.3856 29.0929 18.889 34.5937L22.2648 36.7395ZM35.5489 29.4358C41.1333 29.4358 46.0396 32.3447 48.8331 36.7395L52.2088 34.5937C48.7123 29.0929 42.5584 25.4358 35.5489 25.4358V29.4358ZM48.8331 34.5937C46.0396 38.9884 41.1333 41.8973 35.5489 41.8973V45.8973C42.5584 45.8973 48.7123 42.2402 52.2088 36.7395L48.8331 34.5937ZM35.5489 41.8973C29.9646 41.8973 25.0583 38.9884 22.2648 34.5937L18.889 36.7395C22.3856 42.2402 28.5395 45.8973 35.5489 45.8973V41.8973Z" fill="#4FB573" mask="url(#path-7-outside-1)"/>
<rect x="75.8429" y="65.3831" width="40.304" height="14.7926" rx="2" transform="rotate(45 75.8429 65.3831)" fill="#DCF0E3" stroke="#4FB573" stroke-width="2" stroke-miterlimit="10"/>
<path d="M35.6667 42.1538C39.2494 42.1538 42.1538 39.2494 42.1538 35.6666C42.1538 32.0839 39.2494 29.1794 35.6667 29.1794C32.0839 29.1794 29.1795 32.0839 29.1795 35.6666C29.1795 39.2494 32.0839 42.1538 35.6667 42.1538Z" fill="#B9E1C7" stroke="#4FB573" stroke-width="2" stroke-linejoin="round"/>
</svg>
