<svg width="18" height="23" viewBox="0 0 18 23" fill="none" xmlns="http://www.w3.org/2000/svg">
<path d="M3.63204 16.6166L6.12412 14.216C6.45532 13.8963 6.89692 13.7099 7.36613 13.7099H11.7126C12.2121 13.7099 12.4836 14.0886 12.4836 14.4557C12.4836 14.7982 12.293 15.2282 11.7126 15.2282H9.35135C8.99254 15.2282 8.71654 15.4945 8.71654 15.8408C8.71654 16.1871 8.99254 16.4534 9.35135 16.4534H12.4722L15.6038 13.2374C15.8522 12.9977 16.4256 12.8523 16.8666 13.2374C17.4078 13.7099 17.2274 14.2906 17.047 14.4661L13.987 17.7152C13.6834 18.0882 13.2142 18.3279 12.7174 18.3279H8.30133L6.77992 19.799" stroke="#4FB573" stroke-miterlimit="10" stroke-linejoin="round"/>
<path d="M5.52341 21.7399L1.26761 17.6033L3.02667 15.8935L7.28247 20.0301L5.52341 21.7399Z" stroke="#4FB573" stroke-miterlimit="10" stroke-linejoin="round"/>
<circle cx="9" cy="6" r="5" stroke="#4FB573" stroke-width="2"/>
<circle cx="9" cy="6" r="3" stroke="#4FB573" stroke-linecap="round" stroke-dasharray="0.1 2"/>
</svg>
