<svg width="150" height="112" viewBox="0 0 150 112" fill="none" xmlns="http://www.w3.org/2000/svg">
<path d="M48 40H126" stroke="#4FB573" stroke-width="2" stroke-linecap="round" stroke-linejoin="round"/>
<path d="M48 74H126" stroke="#4FB573" stroke-width="2" stroke-linecap="round" stroke-linejoin="round"/>
<path d="M48 50H106" stroke="#4FB573" stroke-width="2" stroke-linecap="round" stroke-linejoin="round"/>
<path d="M48 84H126" stroke="#4FB573" stroke-width="2" stroke-linecap="round" stroke-linejoin="round"/>
<path d="M48 60H96" stroke="#4FB573" stroke-width="2" stroke-linecap="round" stroke-linejoin="round"/>
<path d="M48 94H96" stroke="#4FB573" stroke-width="2" stroke-linecap="round" stroke-linejoin="round"/>
<rect x="18" y="60" width="20" height="20" transform="rotate(-90 18 60)" fill="#FFF3D6" stroke="#FFC432" stroke-width="2" stroke-linecap="round" stroke-linejoin="round"/>
<rect x="18" y="94" width="20" height="20" transform="rotate(-90 18 94)" fill="#FFF3D6" stroke="#FFC432" stroke-width="2" stroke-linecap="round" stroke-linejoin="round"/>
<mask id="path-9-inside-1" fill="white">
<rect width="150" height="112" rx="2"/>
</mask>
<rect width="150" height="112" rx="2" stroke="#4FB573" stroke-width="6" mask="url(#path-9-inside-1)"/>
<mask id="path-10-inside-2" fill="white">
<rect width="150" height="26" rx="2"/>
</mask>
<rect width="150" height="26" rx="2" fill="white" stroke="#4FB573" stroke-width="6" mask="url(#path-10-inside-2)"/>
<mask id="path-11-outside-3" maskUnits="userSpaceOnUse" x="98" y="23.5857" width="41" height="41" fill="black">
<rect fill="white" x="98" y="23.5857" width="41" height="41"/>
<path d="M100 55.2553C100 55.189 100.026 55.1254 100.073 55.0785L129.273 25.8786C129.664 25.4881 130.297 25.4881 130.687 25.8786L136.047 31.2385C136.438 31.629 136.438 32.2622 136.047 32.6527L106.847 61.8528C106.8 61.8996 106.737 61.9259 106.671 61.926L100.25 61.936C100.112 61.9362 100 61.8242 100 61.686L100 55.2553Z"/>
</mask>
<path d="M100 55.2553C100 55.189 100.026 55.1254 100.073 55.0785L129.273 25.8786C129.664 25.4881 130.297 25.4881 130.687 25.8786L136.047 31.2385C136.438 31.629 136.438 32.2622 136.047 32.6527L106.847 61.8528C106.8 61.8996 106.737 61.9259 106.671 61.926L100.25 61.936C100.112 61.9362 100 61.8242 100 61.686L100 55.2553Z" fill="#4FB573"/>
<path d="M100.25 61.936L100.254 63.936L100.25 61.936ZM100 61.686L98 61.686L100 61.686ZM106.847 61.8528L105.433 60.4386L106.847 61.8528ZM106.671 61.926L106.668 59.926L106.671 61.926ZM136.047 31.2385L137.462 29.8243L136.047 31.2385ZM136.047 32.6527L134.633 31.2385L136.047 32.6527ZM129.273 25.8786L130.687 27.2928L129.273 25.8786ZM130.687 25.8786L129.273 27.2928L130.687 25.8786ZM100.073 55.0785L98.659 53.6643L100.073 55.0785ZM101.487 56.4927L130.687 27.2928L127.859 24.4644L98.659 53.6643L101.487 56.4927ZM129.273 27.2928L134.633 32.6527L137.462 29.8243L132.102 24.4644L129.273 27.2928ZM134.633 31.2385L105.433 60.4386L108.261 63.267L137.462 34.0669L134.633 31.2385ZM106.668 59.926L100.247 59.936L100.254 63.936L106.674 63.926L106.668 59.926ZM102 61.686L102 55.2553L98 55.2553L98 61.686L102 61.686ZM100.247 59.936C101.215 59.9345 102 60.7185 102 61.686L98 61.686C98 62.93 99.0095 63.938 100.254 63.936L100.247 59.936ZM105.433 60.4386C105.761 60.111 106.205 59.9267 106.668 59.926L106.674 63.926C107.269 63.9251 107.84 63.6881 108.261 63.267L105.433 60.4386ZM134.633 32.6527C134.243 32.2622 134.243 31.629 134.633 31.2385L137.462 34.0669C138.633 32.8954 138.633 30.9959 137.462 29.8243L134.633 32.6527ZM130.687 27.2928C130.297 27.6833 129.664 27.6833 129.273 27.2928L132.102 24.4644C130.93 23.2928 129.031 23.2928 127.859 24.4644L130.687 27.2928ZM98.659 53.6643C98.2371 54.0862 98 54.6585 98 55.2553L102 55.2553C102 55.7194 101.816 56.1645 101.487 56.4927L98.659 53.6643Z" fill="white" mask="url(#path-11-outside-3)"/>
</svg>
