<svg width="133" height="115" viewBox="0 0 133 115" fill="none" xmlns="http://www.w3.org/2000/svg">
<mask id="path-1-inside-1" fill="white">
<path fill-rule="evenodd" clip-rule="evenodd" d="M56.0385 0C50.5156 0 46.0385 4.47716 46.0385 10V44.303C46.0385 49.8259 50.5156 54.303 56.0385 54.303H92.3312L100.565 68.4966C101.721 70.4894 104.599 70.4894 105.755 68.4966L113.989 54.303H123C128.523 54.303 133 49.8259 133 44.303V10C133 4.47715 128.523 0 123 0H56.0385Z"/>
</mask>
<path fill-rule="evenodd" clip-rule="evenodd" d="M56.0385 0C50.5156 0 46.0385 4.47716 46.0385 10V44.303C46.0385 49.8259 50.5156 54.303 56.0385 54.303H92.3312L100.565 68.4966C101.721 70.4894 104.599 70.4894 105.755 68.4966L113.989 54.303H123C128.523 54.303 133 49.8259 133 44.303V10C133 4.47715 128.523 0 123 0H56.0385Z" fill="white"/>
<path d="M92.3312 54.303L94.9262 52.7976L94.0591 51.303H92.3312V54.303ZM100.565 68.4966L97.9703 70.002L100.565 68.4966ZM105.755 68.4966L103.16 66.9912L103.16 66.9912L105.755 68.4966ZM113.989 54.303V51.303H112.261L111.394 52.7976L113.989 54.303ZM49.0385 10C49.0385 6.13401 52.1725 3 56.0385 3V-3C48.8587 -3 43.0385 2.82031 43.0385 10H49.0385ZM49.0385 44.303V10H43.0385V44.303H49.0385ZM56.0385 51.303C52.1725 51.303 49.0385 48.169 49.0385 44.303H43.0385C43.0385 51.4827 48.8588 57.303 56.0385 57.303V51.303ZM92.3312 51.303H56.0385V57.303H92.3312V51.303ZM103.16 66.9912L94.9262 52.7976L89.7363 55.8084L97.9703 70.002L103.16 66.9912ZM103.16 66.9912L103.16 66.9912L97.9703 70.002C100.282 73.9876 106.038 73.9876 108.35 70.002L103.16 66.9912ZM111.394 52.7976L103.16 66.9912L108.35 70.002L116.584 55.8084L111.394 52.7976ZM123 51.303H113.989V57.303H123V51.303ZM130 44.303C130 48.169 126.866 51.303 123 51.303V57.303C130.18 57.303 136 51.4827 136 44.303H130ZM130 10V44.303H136V10H130ZM123 3C126.866 3 130 6.13401 130 10H136C136 2.82029 130.18 -3 123 -3V3ZM56.0385 3H123V-3H56.0385V3Z" fill="#4FB573" mask="url(#path-1-inside-1)"/>
<mask id="path-3-inside-2" fill="white">
<path fill-rule="evenodd" clip-rule="evenodd" d="M76.9615 44.1211C82.4844 44.1211 86.9615 48.5983 86.9615 54.1211V88.4241C86.9615 93.947 82.4844 98.4241 76.9615 98.4241H40.6688L32.4347 112.618C31.2786 114.611 28.4009 114.611 27.2448 112.618L19.0107 98.4241H10C4.47716 98.4241 7.62939e-06 93.947 7.62939e-06 88.4241V54.1211C7.62939e-06 48.5982 4.47717 44.1211 10 44.1211H76.9615Z"/>
</mask>
<path fill-rule="evenodd" clip-rule="evenodd" d="M76.9615 44.1211C82.4844 44.1211 86.9615 48.5983 86.9615 54.1211V88.4241C86.9615 93.947 82.4844 98.4241 76.9615 98.4241H40.6688L32.4347 112.618C31.2786 114.611 28.4009 114.611 27.2448 112.618L19.0107 98.4241H10C4.47716 98.4241 7.62939e-06 93.947 7.62939e-06 88.4241V54.1211C7.62939e-06 48.5982 4.47717 44.1211 10 44.1211H76.9615Z" fill="white"/>
<path d="M40.6688 98.4241L38.0738 96.9187L38.9409 95.4241H40.6688V98.4241ZM32.4347 112.618L35.0297 114.123L32.4347 112.618ZM27.2448 112.618L24.6498 114.123L27.2448 112.618ZM19.0107 98.4241V95.4241H20.7386L21.6057 96.9187L19.0107 98.4241ZM83.9615 54.1211C83.9615 50.2551 80.8275 47.1211 76.9615 47.1211V41.1211C84.1413 41.1211 89.9615 46.9414 89.9615 54.1211H83.9615ZM83.9615 88.4241V54.1211H89.9615V88.4241H83.9615ZM76.9615 95.4241C80.8275 95.4241 83.9615 92.2901 83.9615 88.4241H89.9615C89.9615 95.6038 84.1412 101.424 76.9615 101.424V95.4241ZM40.6688 95.4241H76.9615V101.424H40.6688V95.4241ZM29.8398 111.112L38.0738 96.9187L43.2637 99.9295L35.0297 114.123L29.8398 111.112ZM29.8398 111.112L35.0297 114.123C32.7175 118.109 26.962 118.109 24.6498 114.123L29.8398 111.112ZM21.6057 96.9187L29.8398 111.112L24.6498 114.123L16.4158 99.9295L21.6057 96.9187ZM10 95.4241H19.0107V101.424H10V95.4241ZM3.00001 88.4241C3.00001 92.2901 6.13402 95.4241 10 95.4241V101.424C2.8203 101.424 -2.99999 95.6038 -2.99999 88.4241H3.00001ZM3.00001 54.1211V88.4241H-2.99999V54.1211H3.00001ZM10 47.1211C6.13402 47.1211 3.00001 50.2551 3.00001 54.1211H-2.99999C-2.99999 46.9414 2.82033 41.1211 10 41.1211V47.1211ZM76.9615 47.1211H10V41.1211H76.9615V47.1211Z" fill="#4FB573" mask="url(#path-3-inside-2)"/>
<path d="M61.3846 16.9697L117.654 16.9697" stroke="#4FB573" stroke-width="1.5" stroke-linecap="round" stroke-linejoin="round"/>
<path d="M15.3462 61.0908L71.6154 61.0908" stroke="#FFC432" stroke-width="1.5" stroke-linecap="round" stroke-linejoin="round"/>
<path d="M61.3846 27.1516L117.654 27.1516" stroke="#4FB573" stroke-width="1.5" stroke-linecap="round" stroke-linejoin="round"/>
<path d="M15.3462 71.2727L71.6154 71.2727" stroke="#FFC432" stroke-width="1.5" stroke-linecap="round" stroke-linejoin="round"/>
<path d="M61.3846 37.3333L117.654 37.3333" stroke="#4FB573" stroke-width="1.5" stroke-linecap="round" stroke-linejoin="round"/>
<path d="M15.3462 81.4546L71.6154 81.4546" stroke="#FFC432" stroke-width="1.5" stroke-linecap="round" stroke-linejoin="round"/>
</svg>
