<svg width="128" height="103" viewBox="0 0 128 103" fill="none" xmlns="http://www.w3.org/2000/svg">
<mask id="path-1-inside-1" fill="white">
<rect x="62" y="27.5774" width="66" height="74.7025" rx="2"/>
</mask>
<rect x="62" y="27.5774" width="66" height="74.7025" rx="2" fill="white" stroke="#4FB573" stroke-width="8" mask="url(#path-1-inside-1)"/>
<mask id="path-2-inside-2" fill="white">
<rect x="62" y="27.5774" width="66" height="74.7025" rx="2"/>
</mask>
<rect x="62" y="27.5774" width="66" height="74.7025" rx="2" fill="#DCF0E3" stroke="#4FB573" stroke-width="6" mask="url(#path-2-inside-2)"/>
<mask id="path-3-inside-3" fill="white">
<rect y="27.5774" width="66" height="74.7025" rx="2"/>
</mask>
<rect y="27.5774" width="66" height="74.7025" rx="2" fill="#DCF0E3" stroke="#4FB573" stroke-width="6" mask="url(#path-3-inside-3)"/>
<path d="M63.5 29.2833C63.5 29.0376 63.6785 28.8283 63.9212 28.7896L119.921 19.8508C120.225 19.8023 120.5 20.037 120.5 20.3446V90.9966C120.5 91.2423 120.321 91.4516 120.079 91.4903L64.0788 100.429C63.7751 100.478 63.5 100.243 63.5 99.9353V29.2833Z" fill="white" stroke="#4FB573" stroke-width="3"/>
<path d="M64.5 29.2833C64.5 29.0376 64.3215 28.8283 64.0788 28.7896L8.07881 19.8508C7.77508 19.8023 7.5 20.037 7.5 20.3446V90.9966C7.5 91.2423 7.67854 91.4516 7.92118 91.4903L63.9212 100.429C64.2249 100.478 64.5 100.243 64.5 99.9353V29.2833Z" fill="white" stroke="#4FB573" stroke-width="3"/>
<path d="M69.2089 36.4652L113.709 29.0485C113.861 29.0231 114 29.1406 114 29.2951V30.7882C114 30.9104 113.912 31.0147 113.791 31.0348L69.2911 38.4515C69.1387 38.4769 69 38.3594 69 38.2049V36.7118C69 36.5896 69.0884 36.4853 69.2089 36.4652Z" fill="#4FB573"/>
<path d="M58.7911 36.4652L14.2911 29.0485C14.1387 29.0231 14 29.1406 14 29.2951V30.7882C14 30.9104 14.0884 31.0147 14.2089 31.0348L58.7089 38.4515C58.8613 38.4769 59 38.3594 59 38.2049V36.7118C59 36.5896 58.9116 36.4853 58.7911 36.4652Z" fill="#4FB573"/>
<path d="M69.2089 49.4652L113.709 42.0485C113.861 42.0231 114 42.1406 114 42.2951V43.7882C114 43.9104 113.912 44.0147 113.791 44.0348L69.2911 51.4515C69.1387 51.4769 69 51.3594 69 51.2049V49.7118C69 49.5896 69.0884 49.4853 69.2089 49.4652Z" fill="#4FB573"/>
<path d="M58.7911 49.4652L14.2911 42.0485C14.1387 42.0231 14 42.1406 14 42.2951V43.7882C14 43.9104 14.0884 44.0147 14.2089 44.0348L58.7089 51.4515C58.8613 51.4769 59 51.3594 59 51.2049V49.7118C59 49.5896 58.9116 49.4853 58.7911 49.4652Z" fill="#4FB573"/>
<path d="M69.2089 62.4652L113.709 55.0485C113.861 55.0231 114 55.1406 114 55.2951V56.7882C114 56.9104 113.912 57.0147 113.791 57.0348L69.2911 64.4515C69.1387 64.4769 69 64.3594 69 64.2049V62.7118C69 62.5896 69.0884 62.4853 69.2089 62.4652Z" fill="#4FB573"/>
<path d="M58.7911 62.4652L14.2911 55.0485C14.1387 55.0231 14 55.1406 14 55.2951V56.7882C14 56.9104 14.0884 57.0147 14.2089 57.0348L58.7089 64.4515C58.8613 64.4769 59 64.3594 59 64.2049V62.7118C59 62.5896 58.9116 62.4853 58.7911 62.4652Z" fill="#4FB573"/>
<path d="M69.2089 75.4652L113.709 68.0485C113.861 68.0231 114 68.1406 114 68.2951V69.7882C114 69.9104 113.912 70.0147 113.791 70.0348L69.2911 77.4515C69.1387 77.4769 69 77.3594 69 77.2049V75.7118C69 75.5896 69.0884 75.4853 69.2089 75.4652Z" fill="#4FB573"/>
<path d="M58.7911 75.4652L14.2911 68.0485C14.1387 68.0231 14 68.1406 14 68.2951V69.7882C14 69.9104 14.0884 70.0147 14.2089 70.0348L58.7089 77.4515C58.8613 77.4769 59 77.3594 59 77.2049V75.7118C59 75.5896 58.9116 75.4853 58.7911 75.4652Z" fill="#4FB573"/>
<path d="M69.2089 88.4652L113.709 81.0485C113.861 81.0231 114 81.1406 114 81.2951V82.7882C114 82.9104 113.912 83.0147 113.791 83.0348L69.2911 90.4515C69.1387 90.4769 69 90.3594 69 90.2049V88.7118C69 88.5896 69.0884 88.4853 69.2089 88.4652Z" fill="#4FB573"/>
<path d="M58.7911 88.4652L14.2911 81.0485C14.1387 81.0231 14 81.1406 14 81.2951V82.7882C14 82.9104 14.0884 83.0147 14.2089 83.0348L58.7089 90.4515C58.8613 90.4769 59 90.3594 59 90.2049V88.7118C59 88.5896 58.9116 88.4853 58.7911 88.4652Z" fill="#4FB573"/>
<rect x="63" width="2" height="13" rx="0.25" fill="#4FB573"/>
<rect x="79.384" y="4" width="2" height="13" rx="0.25" transform="rotate(30 79.384 4)" fill="#4FB573"/>
<rect width="2" height="13" rx="0.25" transform="matrix(-0.866025 0.5 0.5 0.866025 48.7321 4)" fill="#4FB573"/>
</svg>
