<svg width="77" height="108" viewBox="0 0 77 108" fill="none" xmlns="http://www.w3.org/2000/svg">
<mask id="path-1-inside-1" fill="white">
<rect y="21.6" width="77" height="86.4" rx="0.25"/>
</mask>
<rect y="21.6" width="77" height="86.4" rx="0.25" fill="white" stroke="#4FB573" stroke-width="6" mask="url(#path-1-inside-1)"/>
<rect x="29.6154" y="51.7808" width="2.9589" height="34.0577" rx="0.25" transform="rotate(-90 29.6154 51.7808)" fill="#4FB573"/>
<rect x="29.6154" y="71.0137" width="2.9589" height="34.0577" rx="0.25" transform="rotate(-90 29.6154 71.0137)" fill="#4FB573"/>
<rect x="29.6154" y="88.7672" width="2.95891" height="34.0577" rx="0.25" transform="rotate(-90 29.6154 88.7672)" fill="#4FB573"/>
<rect width="2.99123" height="7.24274" rx="0.25" transform="matrix(0.624085 -0.781356 0.77533 0.631557 12.8333 50.5753)" fill="#4FB573"/>
<rect width="2.99123" height="7.24274" rx="0.25" transform="matrix(0.624085 -0.781356 0.77533 0.631556 12.8333 69.5123)" fill="#4FB573"/>
<rect width="2.99123" height="7.24274" rx="0.25" transform="matrix(0.624085 -0.781356 0.77533 0.631556 12.8333 87.2657)" fill="#4FB573"/>
<rect width="2.95288" height="12.9102" rx="0.25" transform="matrix(0.77533 0.631557 -0.624085 0.781356 24.2201 43.2)" fill="#4FB573"/>
<rect width="2.95288" height="12.9102" rx="0.25" transform="matrix(0.77533 0.631557 -0.624085 0.781356 24.2201 62.137)" fill="#4FB573"/>
<rect width="2.95288" height="12.9102" rx="0.25" transform="matrix(0.77533 0.631557 -0.624085 0.781356 24.2201 79.8904)" fill="#4FB573"/>
<mask id="path-11-inside-2" fill="white">
<path fill-rule="evenodd" clip-rule="evenodd" d="M23.0963 13.315C25.2307 7.28156 30.9899 2.95886 37.7596 2.95886C44.5294 2.95886 50.2886 7.28156 52.423 13.315H66.3846C66.5227 13.315 66.6346 13.427 66.6346 13.565V33.7774C66.6346 33.9154 66.5227 34.0274 66.3846 34.0274H37.7596H10.6154C10.4773 34.0274 10.3654 33.9154 10.3654 33.7774V13.565C10.3654 13.427 10.4773 13.315 10.6154 13.315H23.0963Z"/>
</mask>
<path fill-rule="evenodd" clip-rule="evenodd" d="M23.0963 13.315C25.2307 7.28156 30.9899 2.95886 37.7596 2.95886C44.5294 2.95886 50.2886 7.28156 52.423 13.315H66.3846C66.5227 13.315 66.6346 13.427 66.6346 13.565V33.7774C66.6346 33.9154 66.5227 34.0274 66.3846 34.0274H37.7596H10.6154C10.4773 34.0274 10.3654 33.9154 10.3654 33.7774V13.565C10.3654 13.427 10.4773 13.315 10.6154 13.315H23.0963Z" fill="#DCF0E3"/>
<path d="M23.0963 13.315V16.315H25.2172L25.9245 14.3156L23.0963 13.315ZM52.423 13.315L49.5947 14.3156L50.3021 16.315H52.423V13.315ZM25.9245 14.3156C27.6478 9.44416 32.2991 5.95886 37.7596 5.95886V-0.0411377C29.6807 -0.0411377 22.8135 5.11897 20.268 12.3145L25.9245 14.3156ZM37.7596 5.95886C43.2201 5.95886 47.8714 9.44416 49.5947 14.3156L55.2512 12.3145C52.7057 5.11897 45.8386 -0.0411377 37.7596 -0.0411377V5.95886ZM52.423 16.315H66.3846V10.315H52.423V16.315ZM66.3846 16.315C64.8659 16.315 63.6346 15.0839 63.6346 13.565H69.6346C69.6346 11.7701 68.1795 10.315 66.3846 10.315V16.315ZM63.6346 13.565V33.7774H69.6346V13.565H63.6346ZM63.6346 33.7774C63.6346 32.2586 64.8659 31.0274 66.3846 31.0274V37.0274C68.1795 37.0274 69.6346 35.5723 69.6346 33.7774H63.6346ZM66.3846 31.0274H37.7596V37.0274H66.3846V31.0274ZM37.7596 31.0274H10.6154V37.0274H37.7596V31.0274ZM10.6154 31.0274C12.1342 31.0274 13.3654 32.2586 13.3654 33.7774H7.36539C7.36539 35.5723 8.82048 37.0274 10.6154 37.0274V31.0274ZM13.3654 33.7774V13.565H7.36539V33.7774H13.3654ZM13.3654 13.565C13.3654 15.0838 12.1342 16.315 10.6154 16.315V10.315C8.82046 10.315 7.36539 11.7701 7.36539 13.565H13.3654ZM10.6154 16.315H23.0963V10.315H10.6154V16.315Z" fill="#4FB573" mask="url(#path-11-inside-2)"/>
</svg>
