<svg xmlns="http://www.w3.org/2000/svg" fill="none" viewBox="0 0 157 157" height="157" width="157">
<rect fill="#D2D5D9" rx="2" height="153" width="153" y="4" x="4"></rect>
<path stroke="#D2D5D9" fill="white" d="M2 0.5H151C151.828 0.5 152.5 1.17157 152.5 2V151C152.5 151.828 151.828 152.5 151 152.5H2C1.17157 152.5 0.5 151.828 0.5 151V2C0.5 1.17157 1.17157 0.5 2 0.5Z"></path>
<path stroke="#4FB573" fill="#4FB573" d="M97.1708 75.963L97.1708 75.9631L97.1784 75.9612C98.7351 75.5893 101.725 75.4169 105.169 76.0048C108.605 76.5914 112.45 77.9281 115.745 80.5346C119.392 83.4264 123.786 89.053 123.786 99.4902C123.786 107.299 121.386 112.479 118.506 115.896C115.619 119.322 112.22 121.007 110.183 121.77C107.566 122.739 105.03 123.09 102.697 123.09C97.1133 123.09 92.8276 121.038 91.9258 120.587L91.9145 120.581L91.903 120.576C84.8219 117.468 79.1562 111.551 74.6129 102.415C70.1863 93.5115 66.3444 88.643 62.9822 85.8667C59.6022 83.0756 56.7373 82.4265 54.3746 81.8939L54.3746 81.8938L54.3628 81.8914L54.0542 81.8297C53.0695 81.6001 50.9617 81.5076 48.529 81.9286C46.0796 82.3525 43.2441 83.3063 40.8482 85.2221C37.0392 88.2416 35.1727 93.0593 35.1727 99.4268C35.1727 101.924 35.3802 103.91 35.9166 105.696C36.4547 107.488 37.3158 109.051 38.5889 110.714L38.5888 110.714L38.5953 110.722L38.6708 110.817C39.0371 111.327 44.4844 118.322 55.3085 116.245L55.3085 116.245L55.3154 116.244C56.7028 115.957 58.491 115.343 60.5494 114.02L61.1008 113.666L60.6133 113.228L57.5112 110.439L57.5112 110.439L57.5063 110.435L57.3374 110.287L57.3312 110.282L57.3249 110.277C57.324 110.276 57.3232 110.275 57.3226 110.275L57.333 110.264L57.5547 110.227L57.5813 110.223L57.6073 110.216L71.3772 106.359L71.4573 106.348H71.5272C71.5275 106.348 71.5278 106.348 71.528 106.348C71.5283 106.348 71.5286 106.348 71.5289 106.348C71.5315 106.352 71.533 106.354 71.5337 106.356V106.483L69.1977 120.87L69.1912 120.909V120.95V120.992C69.1912 121.002 69.1893 121.011 69.1848 121.021C69.182 121.022 69.1783 121.023 69.1738 121.024C69.1682 121.024 69.1641 121.023 69.1619 121.022L69.1606 121.022L69.1605 121.022L69.1605 121.022L65.9112 118.086L65.6049 117.81L65.2751 118.058C61.8356 120.65 58.6999 121.76 56.4094 122.19L56.4074 122.191C41.9481 124.965 34.4784 115.346 33.7765 114.382L33.7766 114.382L33.7714 114.375C30.4481 109.975 29.1453 105.839 29.1453 99.4691C29.1453 89.0291 33.4778 83.4242 37.0815 80.5551L37.0827 80.5541C40.542 77.7822 44.4832 76.4931 47.8906 75.9718C51.3046 75.4495 54.1477 75.7033 55.3776 75.9836L55.3776 75.9836L55.3838 75.9849L55.6757 76.0475L55.7046 76.0542C58.5327 76.7041 62.0138 77.5041 66.0654 80.6613C70.1442 83.8396 74.835 89.4355 79.964 99.755L79.9643 99.7555C85.1377 110.133 90.6409 113.494 94.3741 115.127L94.6241 115.261C94.6402 115.27 94.6538 115.278 94.6576 115.28L94.6585 115.28C94.676 115.289 94.699 115.301 94.727 115.315C94.7831 115.343 94.8622 115.382 94.9626 115.429C95.1635 115.522 95.4514 115.649 95.8147 115.791C96.5408 116.075 97.5711 116.422 98.8116 116.689C101.289 117.222 104.632 117.439 108.063 116.159L108.064 116.159C110.276 115.33 112.709 113.851 114.587 111.218C116.465 108.583 117.758 104.833 117.758 99.5113C117.758 93.1602 115.847 88.3441 111.997 85.3056C109.548 83.369 106.639 82.3999 104.138 81.9656C101.656 81.5347 99.5138 81.6203 98.5555 81.8518L98.162 81.9347L98.162 81.9346L98.151 81.9371C96.4745 82.3301 94.3465 82.8352 91.8484 84.3544C89.3579 85.869 86.5263 88.3738 83.38 92.7302C83.3356 92.7798 83.2963 92.8337 83.2663 92.8774C83.2657 92.8777 83.2651 92.8779 83.2645 92.8782C83.2547 92.8821 83.2399 92.886 83.2185 92.886C83.2124 92.886 83.2032 92.885 83.1875 92.8743C83.1818 92.8704 83.1756 92.8655 83.1692 92.8595L83.1116 92.7507C82.1766 90.9854 81.0525 89.0751 80.1653 87.5951L80.1653 87.5951L80.1624 87.5904L79.9936 87.3158L79.9838 87.2998C79.9838 87.2995 79.9837 87.2991 79.9837 87.2987C79.9869 87.2916 79.9921 87.2813 80.0004 87.2662C80.0067 87.2549 80.0134 87.2433 80.0216 87.2295L80.071 87.1677C80.0855 87.1521 80.0981 87.1375 80.1084 87.1253C80.1231 87.1078 80.1371 87.0904 80.1468 87.0781L80.148 87.0767C80.1593 87.0625 80.1659 87.0543 80.1717 87.0474C80.174 87.0447 80.1754 87.0431 80.1761 87.0423C80.1764 87.0419 80.1766 87.0418 80.1766 87.0418L80.1933 87.0251L80.2101 87.0043C83.6982 82.677 86.9152 80.1604 89.712 78.6162C92.5075 77.0727 94.9044 76.4881 96.7935 76.0469C96.7943 76.0467 96.7952 76.0465 96.796 76.0463L97.1708 75.963Z"></path>
<path fill="url(#paint0_linear_4530_7167)" d="M116.055 80.1428C109.302 74.799 100.333 74.6934 97.0622 75.4749L96.6823 75.5594C92.8837 76.4465 86.8693 77.9462 79.8208 86.6905C79.7786 86.7327 79.7364 86.7961 79.6942 86.8383L79.6098 86.944C79.5465 87.0496 79.4831 87.1552 79.4831 87.2819C79.4831 87.3875 79.5043 87.4931 79.5676 87.5776L79.7364 87.8522C80.6227 89.3307 81.7412 91.2317 82.6697 92.9848C82.6697 93.0059 82.6909 93.027 82.6909 93.0481C82.7964 93.2382 82.9863 93.386 83.2185 93.386C83.3873 93.386 83.535 93.3227 83.6405 93.2171C83.6827 93.1537 83.725 93.0903 83.7672 93.0481C90.0137 84.3882 94.9308 83.2054 98.2651 82.4239L98.6661 82.3395C100.397 81.917 106.96 81.9593 111.687 85.6978C115.38 88.6126 117.258 93.2593 117.258 99.5113C117.258 109.988 112.172 114.085 107.888 115.69C101.262 118.162 94.9308 114.867 94.8675 114.824L94.5931 114.677C90.9633 113.093 85.5399 109.819 80.4118 99.5325C70.1133 78.8122 61.482 76.869 55.7841 75.5594L55.4887 75.496C52.893 74.9046 43.8608 74.4822 36.77 80.1639C33.0559 83.1209 28.6453 88.866 28.6453 99.4691C28.6453 105.932 29.9748 110.178 33.3724 114.677C34.111 115.69 41.7504 125.512 56.5016 122.682C58.8652 122.238 62.0729 121.098 65.5761 118.457L68.826 121.393C69.037 121.583 69.3746 121.562 69.5646 121.351C69.649 121.245 69.6912 121.119 69.6912 120.992V120.95L72.0337 106.524V106.355C72.0337 106.207 71.9704 106.08 71.8649 105.975C71.7594 105.89 71.6539 105.848 71.5272 105.848H71.4217L71.274 105.869L57.4724 109.734L57.2191 109.776C57.1136 109.798 57.0293 109.84 56.966 109.924C56.7549 110.135 56.776 110.473 57.0081 110.664L57.177 110.811L60.2791 113.599C58.2743 114.888 56.5438 115.479 55.2143 115.754C44.536 117.803 39.2602 110.79 39.0703 110.516L38.9859 110.41C36.4957 107.157 35.6727 104.369 35.6727 99.4268C35.6727 93.1537 37.5087 88.507 41.1596 85.6133C45.7812 81.917 52.1543 81.8959 53.9481 82.3183L54.2647 82.3817C58.9496 83.4378 65.344 84.8952 74.1652 102.637C78.7446 111.846 84.4847 117.866 91.702 121.034C92.6306 121.499 96.9989 123.59 102.697 123.59C105.081 123.59 107.677 123.231 110.357 122.238C114.536 120.675 124.286 115.331 124.286 99.4902C124.286 88.8871 119.812 83.121 116.055 80.1428Z"></path>
<path fill="#7BC796" d="M15.8892 20.4761H15.9307V43.7996H21.0491V13.3333H16.9502L12.248 18.8726V24.2037H12.2896L15.8892 20.4761Z"></path>
<path fill="#7BC796" d="M24.087 19.6224V23.3083H28.7476V19.4974C28.7476 17.6648 29.6423 17.1234 30.7242 17.1234C31.7229 17.1234 32.5552 17.5191 32.5552 19.4141V21.9339C32.5552 24.4537 32.3264 25.4324 30.6619 27.1817L27.7905 30.2429C25.0025 33.2 23.9622 35.1783 23.9622 38.1978V43.8205H37.2574V39.6347H28.8517V38.1978C28.8517 35.8238 29.7047 34.9076 31.0155 33.5331L34.303 30.0763C36.9454 27.2441 37.528 25.4532 37.528 22.392V19.4349C37.528 15.0826 35.4265 13.0001 30.8491 13.0001C26.3757 12.9793 24.087 15.3741 24.087 19.6224Z"></path>
<path fill="#202020" d="M51.4476 20.2262V26.0571H49.3044V13.3333H52.4254C54.5892 13.3333 55.3799 14.3953 55.3799 16.1862V17.8105C55.3799 19.185 54.9013 19.9971 53.6738 20.2678L55.7128 26.0571H53.4657L51.4476 20.2262ZM51.4476 15.0617V19.0184H52.1549C52.8832 19.0184 53.2161 18.6435 53.2161 17.9563V16.0821C53.2161 15.3949 52.904 15.0409 52.1549 15.0409H51.4476V15.0617Z"></path>
<path fill="#202020" d="M56.2537 13.3333H61.3513V15.0825H58.3759V18.7269H60.4982V20.4553H58.3759V24.3287H61.3513V26.0779H56.2537V13.3333Z"></path>
<path fill="#202020" d="M62.0378 23.3083V21.6006H64.0353V23.3499C64.0353 24.0579 64.3474 24.4744 65.0756 24.4744C65.7414 24.4744 66.0534 24.0163 66.0534 23.3499V22.8709C66.0534 22.1421 65.7622 21.6839 65.0964 21.0592L63.848 19.8097C62.6205 18.6019 62.0587 17.873 62.0587 16.4153V15.978C62.0587 14.3953 62.9741 13.1875 65.0547 13.1875C67.1978 13.1875 68.03 14.2496 68.03 16.0821V17.1234H66.0742V16.0197C66.0742 15.2908 65.7414 14.9368 65.0547 14.9368C64.4514 14.9368 64.0353 15.27 64.0353 15.9988V16.2695C64.0353 16.9776 64.4306 17.3941 65.0547 17.998L66.428 19.3516C67.5931 20.5386 68.1549 21.2466 68.1549 22.6627V23.2874C68.1549 25.0367 67.2186 26.2653 65.0339 26.2653C62.8909 26.2029 62.0378 24.995 62.0378 23.3083Z"></path>
<path fill="#202020" d="M69.0289 13.3333H72.1915C74.3554 13.3333 75.1461 14.3953 75.1461 16.1862V18.8726C75.1461 20.6635 74.3554 21.7464 72.1915 21.7464H71.1511V26.0571H69.0081V13.3333H69.0289ZM71.1719 15.0617V20.0804H71.9627C72.6909 20.0804 73.003 19.7264 73.003 19.0184V16.0821C73.003 15.3949 72.6909 15.0409 71.9627 15.0409H71.1719V15.0617Z"></path>
<path fill="#202020" d="M75.999 22.7668V16.6028C75.999 14.6036 76.9769 13.1667 79.224 13.1667C81.492 13.1667 82.4699 14.6036 82.4699 16.6028V22.7668C82.4699 24.7452 81.492 26.2029 79.224 26.2029C76.9769 26.2029 75.999 24.7452 75.999 22.7668ZM80.3267 23.1V16.2696C80.3267 15.4991 79.9939 14.9576 79.224 14.9576C78.475 14.9576 78.1421 15.4991 78.1421 16.2696V23.1C78.1421 23.8705 78.475 24.412 79.224 24.412C79.9939 24.4328 80.3267 23.8705 80.3267 23.1Z"></path>
<path fill="#202020" d="M85.2372 18.0604V26.0571H83.427V13.3333H85.5285L87.838 20.6427V13.3333H89.6274V26.0571H87.7548L85.2372 18.0604Z"></path>
<path fill="#202020" d="M90.4595 23.3083V21.6006H92.4569V23.3499C92.4569 24.0579 92.7689 24.4744 93.5179 24.4744C94.1837 24.4744 94.4959 24.0163 94.4959 23.3499V22.8709C94.4959 22.1421 94.2046 21.6839 93.5388 21.0592L92.2904 19.8097C91.0628 18.6019 90.501 17.873 90.501 16.4153V15.978C90.501 14.3953 91.4166 13.1875 93.4972 13.1875C95.6402 13.1875 96.4725 14.2496 96.4725 16.0821V17.1234H94.5167V16.0197C94.5167 15.2908 94.1838 14.9368 93.4972 14.9368C92.8938 14.9368 92.4776 15.27 92.4776 15.9988V16.2695C92.4776 16.9776 92.873 17.3941 93.4972 17.998L94.8703 19.3516C96.0355 20.5386 96.5973 21.2466 96.5973 22.6627V23.2874C96.5973 25.0367 95.661 26.2653 93.4764 26.2653C91.3125 26.2029 90.4595 24.995 90.4595 23.3083Z"></path>
<path fill="#202020" d="M97.4507 13.3333H99.5937V26.0571H97.4507V13.3333Z"></path>
<path fill="#202020" d="M100.572 13.3333H103.672C105.815 13.3333 106.522 14.3329 106.522 16.1238V17.4149C106.522 18.4769 106.127 19.1642 105.253 19.4349C106.314 19.6848 106.855 20.3928 106.855 21.559V23.2458C106.855 25.0575 106.044 26.0362 103.901 26.0362H100.572V13.3333ZM102.715 18.6852H103.464C104.15 18.6852 104.483 18.3312 104.483 17.644V16.0821C104.483 15.3949 104.171 15.0409 103.443 15.0409H102.715V18.6852ZM102.715 20.3303V24.3078H103.651C104.358 24.3078 104.691 23.9538 104.691 23.2666V21.3507C104.691 20.6635 104.379 20.3095 103.63 20.3095H102.715V20.3303Z"></path>
<path fill="#202020" d="M107.646 13.3333H109.789V24.3287H112.348V26.0779H107.666V13.3333H107.646Z"></path>
<path fill="#202020" d="M113.055 13.3333H118.153V15.0825H115.178V18.7269H117.3V20.4553H115.178V24.3287H118.153V26.0779H113.055V13.3333Z"></path>
<path fill="#202020" d="M49.3044 40.6134V34.4494C49.3044 32.4502 50.2408 31.0133 52.4879 31.0133C54.8598 31.0133 55.5048 32.3253 55.5048 34.1995V35.6988H53.549V34.0329C53.549 33.2415 53.2785 32.7834 52.5087 32.7834C51.7389 32.7834 51.4267 33.3248 51.4267 34.0953V40.9258C51.4267 41.6963 51.7389 42.2377 52.5087 42.2377C53.2785 42.2377 53.549 41.7588 53.549 40.9883V38.6351H55.5048V40.8425C55.5048 42.6542 54.7558 44.0078 52.4879 44.0078C50.2408 44.0495 49.3044 42.5709 49.3044 40.6134Z"></path>
<path fill="#202020" d="M56.4202 40.6135V34.4494C56.4202 32.4502 57.3981 31.0133 59.6452 31.0133C61.9131 31.0133 62.891 32.4502 62.891 34.4494V40.6135C62.891 42.5918 61.9131 44.0495 59.6452 44.0495C57.3773 44.0495 56.4202 42.571 56.4202 40.6135ZM60.7479 40.9467V34.1162C60.7479 33.3457 60.415 32.8042 59.6452 32.8042C58.8961 32.8042 58.5632 33.3457 58.5632 34.1162V40.9467C58.5632 41.7172 58.8961 42.2586 59.6452 42.2586C60.415 42.2586 60.7479 41.7172 60.7479 40.9467Z"></path>
<path fill="#202020" d="M65.6375 35.8862V43.8829H63.8274V31.1591H65.9288L68.2382 38.4685V31.1591H70.0276V43.8829H68.155L65.6375 35.8862Z"></path>
<path fill="#202020" d="M70.8806 41.1549V39.4473H72.8781V41.1966C72.8781 41.9046 73.1902 42.3211 73.9392 42.3211C74.605 42.3211 74.9171 41.863 74.9171 41.1966V40.7176C74.9171 39.9888 74.6258 39.5306 73.96 38.9059L72.7116 37.6564C71.484 36.4486 70.9223 35.7197 70.9223 34.262V33.8247C70.9223 32.242 71.8377 31.0342 73.9184 31.0342C76.0615 31.0342 76.8937 32.0963 76.8937 33.9288V34.97H74.9379V33.8247C74.9379 33.0958 74.605 32.7418 73.9184 32.7418C73.315 32.7418 72.8989 33.075 72.8989 33.8039V34.0746C72.8989 34.7826 73.2942 35.1991 73.9184 35.803L75.2917 37.1566C76.4568 38.3436 77.0186 39.0517 77.0186 40.4677V41.0925C77.0186 42.8417 76.0823 44.0704 73.8976 44.0704C71.7129 44.0496 70.8806 42.8209 70.8806 41.1549Z"></path>
<path fill="#202020" d="M84.0928 31.1591V40.8008C84.0928 42.7792 83.2398 44.0495 81.0759 44.0495C78.8288 44.0495 77.8926 42.7792 77.8926 40.8008V31.1591H80.0356V41.0091C80.0356 41.7588 80.3269 42.2586 81.0967 42.2586C81.8458 42.2586 82.137 41.7588 82.137 41.0091V31.1591H84.0928Z"></path>
<path fill="#202020" d="M90.9381 35.6364H90.8757L89.4401 43.9038H88.4413L86.8393 35.6364H86.7976V43.9038H85.0291V31.18H87.5258L88.9199 38.3644H88.9406L90.1683 31.18H92.8731V43.9038H90.9172V35.6364H90.9381Z"></path>
<path fill="#202020" d="M93.8303 31.1591H96.9929C99.1568 31.1591 99.9475 32.2211 99.9475 34.012V36.6984C99.9475 38.4893 99.1568 39.5722 96.9929 39.5722H95.9526V43.8829H93.8096V31.1591H93.8303ZM95.9734 32.9083V37.9271H96.764C97.4922 37.9271 97.8252 37.573 97.8252 36.8858V33.9496C97.8252 33.2623 97.5131 32.9083 96.764 32.9083H95.9734Z"></path>
<path fill="#202020" d="M100.468 31.1591H106.148V32.9083H104.379V43.9037H102.215V32.9083H100.447V31.1591H100.468Z"></path>
<path fill="#202020" d="M106.876 31.1591H109.019V43.8829H106.876V31.1591Z"></path>
<path fill="#202020" d="M109.997 40.6135V34.4494C109.997 32.4502 110.975 31.0133 113.222 31.0133C115.49 31.0133 116.468 32.4502 116.468 34.4494V40.6135C116.468 42.5918 115.49 44.0495 113.222 44.0495C110.975 44.0495 109.997 42.571 109.997 40.6135ZM114.325 40.9467V34.1162C114.325 33.3457 113.992 32.8042 113.222 32.8042C112.473 32.8042 112.14 33.3457 112.14 34.1162V40.9467C112.14 41.7172 112.473 42.2586 113.222 42.2586C113.992 42.2586 114.325 41.7172 114.325 40.9467Z"></path>
<path fill="#202020" d="M119.214 35.8862V43.8829H117.404V31.1591H119.505L121.815 38.4685V31.1591H123.604V43.8829H121.732L119.214 35.8862Z"></path>
<path fill="#202020" d="M48.9714 61.7296L51.3642 49.0058H53.7985L56.2121 61.7296H54.0274L53.6321 59.3972H51.3642L50.9896 61.7296H48.9714ZM51.6555 57.6896H53.3616L52.5086 52.5876H52.4878L51.6555 57.6896Z"></path>
<path fill="#202020" d="M58.6464 53.7329V61.7296H56.8362V49.0058H58.9377L61.2472 56.3152V49.0058H63.0365V61.7296H61.1639L58.6464 53.7329Z"></path>
<path fill="#202020" d="M70.3814 52.421V58.3143C70.3814 60.2718 69.5699 61.7296 67.2812 61.7296H63.9729V49.0058H67.2812C69.5907 49.0058 70.3814 50.4427 70.3814 52.421ZM67.0315 59.9803C67.9054 59.9803 68.2591 59.4597 68.2591 58.6892V52.0253C68.2591 51.2756 67.9262 50.755 67.0315 50.755H66.1369V60.0011H67.0315V59.9803Z"></path>
<path fill="#202020" d="M74.293 49.0058H77.4557C79.6195 49.0058 80.4101 50.0678 80.4101 51.8587V54.5451C80.4101 56.336 79.6195 57.4189 77.4557 57.4189H76.4153V61.7296H74.2722V49.0058H74.293ZM76.4362 50.755V55.7737H77.2268C77.955 55.7737 78.2671 55.4197 78.2671 54.7117V51.7754C78.2671 51.0882 77.955 50.7342 77.2268 50.7342H76.4362V50.755Z"></path>
<path fill="#202020" d="M83.4063 55.8987V61.7296H81.2632V49.0058H84.3842C86.548 49.0058 87.3387 50.0678 87.3387 51.8587V53.483C87.3387 54.8575 86.8601 55.6696 85.6325 55.9403L87.6716 61.7296H85.4245L83.4063 55.8987ZM83.4063 50.755V54.7117H84.1137C84.8419 54.7117 85.154 54.3368 85.154 53.6496V51.7754C85.154 51.0882 84.8419 50.7342 84.1137 50.7342H83.4063V50.755Z"></path>
<path fill="#202020" d="M88.2126 58.4393V52.2753C88.2126 50.2761 89.1905 48.8392 91.4376 48.8392C93.7055 48.8392 94.6834 50.2761 94.6834 52.2753V58.4393C94.6834 60.4176 93.7055 61.8754 91.4376 61.8754C89.1905 61.8754 88.2126 60.4176 88.2126 58.4393ZM92.5613 58.7933V51.9421C92.5613 51.1716 92.2283 50.6301 91.4585 50.6301C90.7094 50.6301 90.3766 51.1716 90.3766 51.9421V58.7725C90.3766 59.543 90.7094 60.0845 91.4585 60.0845C92.2075 60.1053 92.5613 59.543 92.5613 58.7933Z"></path>
<path fill="#202020" d="M102.049 52.421V58.3143C102.049 60.2718 101.237 61.7296 98.9486 61.7296H95.6404V49.0058H98.9486C101.237 49.0058 102.049 50.4427 102.049 52.421ZM98.6782 59.9803C99.552 59.9803 99.9057 59.4597 99.9057 58.6892V52.0253C99.9057 51.2756 99.5728 50.755 98.6782 50.755H97.7834V60.0011H98.6782V59.9803Z"></path>
<path fill="#202020" d="M109.206 49.0058V58.6475C109.206 60.6259 108.353 61.8962 106.189 61.8962C103.942 61.8962 103.006 60.6259 103.006 58.6475V49.0058H105.149V58.8558C105.149 59.6055 105.44 60.1052 106.21 60.1052C106.959 60.1052 107.271 59.6055 107.271 58.8558V49.0058H109.206Z"></path>
<path fill="#202020" d="M110.163 58.4393V52.2753C110.163 50.2761 111.1 48.8392 113.347 48.8392C115.719 48.8392 116.364 50.1512 116.364 52.0254V53.5247H114.408V51.8588C114.408 51.0674 114.137 50.6093 113.368 50.6093C112.598 50.6093 112.286 51.1507 112.286 51.9213V58.7517C112.286 59.5222 112.598 60.0637 113.368 60.0637C114.137 60.0637 114.408 59.5847 114.408 58.8142V56.461H116.364V58.6684C116.364 60.4802 115.615 61.8338 113.347 61.8338C111.1 61.8754 110.163 60.4177 110.163 58.4393Z"></path>
<path fill="#202020" d="M116.842 49.0058H122.522V50.755H120.754V61.7504H118.59V50.755H116.822V49.0058H116.842Z"></path>
<path fill="#202020" d="M123.271 49.0058H125.415V61.7296H123.271V49.0058Z"></path>
<path fill="#202020" d="M126.372 58.4393V52.2753C126.372 50.2761 127.349 48.8392 129.597 48.8392C131.865 48.8392 132.842 50.2761 132.842 52.2753V58.4393C132.842 60.4176 131.865 61.8754 129.597 61.8754C127.349 61.8754 126.372 60.4176 126.372 58.4393ZM130.72 58.7933V51.9421C130.72 51.1716 130.387 50.6301 129.617 50.6301C128.868 50.6301 128.535 51.1716 128.535 51.9421V58.7725C128.535 59.543 128.868 60.0845 129.617 60.0845C130.366 60.1053 130.72 59.543 130.72 58.7933Z"></path>
<path fill="#202020" d="M135.61 53.7329V61.7296H133.8V49.0058H135.901L138.211 56.3152V49.0058H140V61.7296H138.127L135.61 53.7329Z"></path>
<defs>
<linearGradient gradientUnits="userSpaceOnUse" y2="136.65" x2="91.9234" y1="75.1215" x1="106.068" id="paint0_linear_4530_7167">
<stop stop-color="#527984"></stop>
<stop stop-color="#79C6AA" offset="0.5"></stop>
<stop stop-color="#C4DAB5" offset="1"></stop>
</linearGradient>
</defs>
</svg>
