<svg width="157" height="157" viewBox="0 0 157 157" fill="none" xmlns="http://www.w3.org/2000/svg">
<rect x="4" y="4" width="153" height="153" rx="2" fill="#D2D5D9"></rect>
<path d="M2 0.5H151C151.828 0.5 152.5 1.17157 152.5 2V151C152.5 151.828 151.828 152.5 151 152.5H2C1.17157 152.5 0.5 151.828 0.5 151V2C0.5 1.17157 1.17157 0.5 2 0.5Z" fill="white" stroke="#D2D5D9"></path>
<path fill-rule="evenodd" clip-rule="evenodd" d="M83.8232 130.783H83.933C84.7452 130.783 85.4476 130.256 85.6891 129.465L105.709 62.8941L113.765 79.5698C114.226 80.4926 115.302 80.8661 116.224 80.4267C117.146 79.9873 117.519 78.9107 117.08 77.9879L107.004 57.0938C106.675 56.4127 105.95 55.9953 105.204 56.0612C104.458 56.1271 103.821 56.6324 103.602 57.3575L84.4598 120.985L79.2134 90.3794C79.0817 89.6104 78.467 89.0172 77.6987 88.8854C76.9304 88.7535 76.1621 89.149 75.7889 89.8301L67.3156 105.539L63.5619 79.2402C63.4521 78.4273 62.8155 77.7902 62.0033 77.6803C61.1911 77.5705 60.4008 78.0099 60.0716 78.7569L51.2909 98.4866H26.5515C25.5197 98.4866 24.7075 99.3214 24.7075 100.332C24.7075 101.343 25.5417 102.156 26.5515 102.156H52.4763C53.2007 102.156 53.8593 101.716 54.1446 101.057L60.8179 86.0512L64.4619 111.559C64.5716 112.328 65.1643 112.965 65.9546 113.097C66.7229 113.229 67.5131 112.855 67.8863 112.152L76.4694 96.2236L82.1329 129.267C82.2646 130.102 82.9671 130.739 83.8232 130.783ZM124.236 87.4353C128.583 87.4353 131.458 91.0825 131.458 95.5645C131.458 97.8275 130.58 99.8488 129.175 101.277L118.024 112.46L106.851 101.277C105.424 99.8048 104.546 97.7835 104.546 95.5425C104.546 91.0605 107.597 87.4134 111.943 87.4134C114.117 87.4134 116.575 89.8082 118.002 91.2802C119.429 89.8301 122.063 87.4353 124.236 87.4353Z" fill="url(#paint0_linear_4528_7269)"></path>
<path d="M22.7926 42C28.5101 42 31 39.0902 31 34.6373V29.8758C31 26.9218 29.6628 25.0261 26.8271 24.4088C29.1556 23.7034 30.7003 21.8958 30.7003 19.1844V16.3627C30.7003 11.7996 28.4179 9 23.1845 9C17.3056 9 15.2769 12.3287 15.2769 17.0902V19.9339H20.4411V16.6493C20.4411 14.6433 21.0866 13.519 22.8848 13.519C24.6831 13.519 25.3286 14.6653 25.3286 16.4289V19.8898C25.3286 21.6092 24.1298 22.513 22.2854 22.513H20.1413V26.6573H22.539C24.5217 26.6573 25.3286 27.5611 25.3286 29.2806V34.6152C25.3286 36.3347 24.5448 37.5251 22.7926 37.5251C20.856 37.5251 20.1644 36.2906 20.1644 34.3948V29.7876H15.0002V34.02C14.9771 38.8697 17.029 42 22.7926 42Z" fill="#7BC796"></path>
<path d="M49.0079 15.9427H52.2128V23.1271H50.5884V21.6551C50.2811 22.6658 49.6665 23.2809 48.4372 23.2809C46.5055 23.2809 45.6055 21.743 45.6055 19.6558V13.1524C45.6055 11.0433 46.6152 9.52728 48.986 9.52728C51.4884 9.52728 52.2128 10.9114 52.2128 12.8888V14.0752H50.1494V12.713C50.1494 11.8781 49.8421 11.3948 49.0299 11.3948C48.2177 11.3948 47.8665 11.966 47.8665 12.7789V19.9853C47.8665 20.7982 48.1957 21.3695 48.986 21.3695C49.7104 21.3695 50.1055 20.952 50.1055 20.0732V17.7443H49.0299V15.9427H49.0079Z" fill="#202020"></path>
<path d="M53.4862 19.6558V13.1524C53.4862 11.0433 54.5179 9.52728 56.8887 9.52728C59.2814 9.52728 60.3132 11.0433 60.3132 13.1524V19.6558C60.3132 21.743 59.2814 23.2809 56.8887 23.2809C54.5179 23.2809 53.4862 21.743 53.4862 19.6558ZM58.0741 20.0073V12.8009C58.0741 11.988 57.7229 11.4168 56.9107 11.4168C56.1204 11.4168 55.7692 11.988 55.7692 12.8009V20.0073C55.7692 20.8202 56.1204 21.3915 56.9107 21.3915C57.7009 21.3915 58.0741 20.8202 58.0741 20.0073Z" fill="#202020"></path>
<path d="M61.6083 19.6558V13.1524C61.6083 11.0433 62.64 9.52728 65.0108 9.52728C67.4035 9.52728 68.4352 11.0433 68.4352 13.1524V19.6558C68.4352 21.743 67.4035 23.2809 65.0108 23.2809C62.64 23.2809 61.6083 21.743 61.6083 19.6558ZM66.1742 20.0073V12.8009C66.1742 11.988 65.823 11.4168 65.0108 11.4168C64.2205 11.4168 63.8693 11.988 63.8693 12.8009V20.0073C63.8693 20.8202 64.2205 21.3915 65.0108 21.3915C65.823 21.3915 66.1742 20.8202 66.1742 20.0073Z" fill="#202020"></path>
<path d="M76.4696 13.2842V19.5019C76.4696 21.5672 75.6134 23.1051 73.1988 23.1051H69.7085V9.68104H73.1988C75.6134 9.68104 76.4696 11.219 76.4696 13.2842ZM72.9353 21.2816C73.8573 21.2816 74.2305 20.7323 74.2305 19.9194V12.8888C74.2305 12.0978 73.8793 11.5485 72.9353 11.5485H71.9915V21.3035H72.9353V21.2816Z" fill="#202020"></path>
<path d="M85.5796 17.195H83.4063V23.1271H81.1453V9.68104H83.4063V15.3714H85.5796V9.68104H87.8626V23.1271H85.5796V17.195Z" fill="#202020"></path>
<path d="M89.1576 9.68104H94.5359V11.5266H91.4187V15.3714H93.6578V17.195H91.4187V21.2816H94.5359V23.1271H89.1576V9.68104Z" fill="#202020"></path>
<path d="M95.3918 23.1271L97.9163 9.70302H100.485L103.031 23.1271H100.704L100.287 20.6664H97.8943L97.4992 23.1271H95.3918ZM98.2236 18.8648H100.024L99.1236 13.482H99.1016L98.2236 18.8648Z" fill="#202020"></path>
<path d="M103.975 9.68104H106.236V21.2816H108.936V23.1271H103.997V9.68104H103.975Z" fill="#202020"></path>
<path d="M108.409 9.68104H114.402V11.5266H112.536V23.1271H110.253V11.5266H108.387V9.68104H108.409Z" fill="#202020"></path>
<path d="M119.89 17.195H117.717V23.1271H115.456V9.68104H117.717V15.3714H119.89V9.68104H122.173V23.1271H119.89V17.195Z" fill="#202020"></path>
<path d="M45.2324 41.934L47.7569 28.51H50.3252L52.8716 41.934H50.5447L50.1276 39.4733H47.7349L47.3398 41.934H45.2324ZM48.0642 37.6717H49.8642L48.9642 32.2889H48.9422L48.0642 37.6717Z" fill="#202020"></path>
<path d="M55.7254 33.4973V41.934H53.8156V28.51H56.0327L58.4693 36.2217V28.51H60.3571V41.934H58.3815L55.7254 33.4973Z" fill="#202020"></path>
<path d="M68.3913 32.1131V38.3308C68.3913 40.3961 67.5352 41.934 65.1206 41.934H61.6302V28.51H65.1206C67.5572 28.51 68.3913 30.0259 68.3913 32.1131ZM64.8571 40.0885C65.7791 40.0885 66.1523 39.5392 66.1523 38.7263V31.6957C66.1523 30.9048 65.8011 30.3555 64.8571 30.3555H63.9132V40.1105H64.8571V40.0885Z" fill="#202020"></path>
<path d="M77.9404 33.6291L76.6672 41.934H74.5379L72.7379 28.51H74.9111L75.9648 37.0346H75.9867L77.1063 28.51H78.9502L80.2014 37.0346H80.2234L81.2551 28.51H83.1649L81.4307 41.934H79.3014L77.9404 33.6291Z" fill="#202020"></path>
<path d="M84.1527 28.51H89.5308V30.3555H86.3918V34.2004H88.6308V36.0239H86.3918V40.1105H89.5089V41.956H84.1307V28.51H84.1527Z" fill="#202020"></path>
<path d="M90.7382 28.51H92.9992V40.1105H95.6992V41.956H90.7601V28.51H90.7382Z" fill="#202020"></path>
<path d="M96.709 28.51H98.97V40.1105H101.67V41.956H96.709V28.51Z" fill="#202020"></path>
<path d="M101.363 34.7936H104.524V36.6171H101.363V34.7936Z" fill="#202020"></path>
<path d="M105.665 28.51H108.936C111.197 28.51 111.943 29.5645 111.943 31.454V32.8162C111.943 33.9367 111.526 34.6617 110.604 34.9474C111.724 35.211 112.295 35.958 112.295 37.1884V38.968C112.295 40.8794 111.438 41.9121 109.177 41.9121H105.665V28.51ZM107.926 34.1784H108.716C109.441 34.1784 109.792 33.8049 109.792 33.0799V31.4321C109.792 30.707 109.463 30.3335 108.695 30.3335H107.926V34.1784ZM107.926 35.8921V40.0885H108.914C109.66 40.0885 110.034 39.715 110.034 38.99V36.9687C110.034 36.2436 109.704 35.8701 108.914 35.8701H107.926V35.8921Z" fill="#202020"></path>
<path d="M113.414 28.51H118.792V30.3555H115.675V34.2004H117.914V36.0239H115.675V40.1105H118.792V41.956H113.414V28.51Z" fill="#202020"></path>
<path d="M120 28.51H122.261V41.934H120V28.51Z" fill="#202020"></path>
<path d="M125.465 33.4973V41.934H123.556V28.51H125.773L128.209 36.2217V28.51H130.097V41.934H128.122L125.465 33.4973Z" fill="#202020"></path>
<path d="M134.795 34.7716H138V41.934H136.376V40.4839C136.068 41.4946 135.454 42.1098 134.224 42.1098C132.293 42.1098 131.393 40.5718 131.393 38.4846V31.9813C131.393 29.8721 132.402 28.3561 134.773 28.3561C137.276 28.3561 138 29.7403 138 31.7177V32.9041H135.937V31.5419C135.937 30.707 135.629 30.2236 134.817 30.2236C134.005 30.2236 133.654 30.7949 133.654 31.6078V38.8142C133.654 39.6271 133.983 40.1983 134.773 40.1983C135.498 40.1983 135.893 39.7809 135.893 38.9021V36.5292H134.817V34.7716H134.795Z" fill="#202020"></path>
<defs>
<linearGradient id="paint0_linear_4528_7269" x1="111.125" y1="56.0544" x2="82.313" y2="146.784" gradientUnits="userSpaceOnUse">
<stop stop-color="#527984"></stop>
<stop offset="0.5" stop-color="#79C6AA"></stop>
<stop offset="1" stop-color="#C4DAB5"></stop>
</linearGradient>
</defs>
</svg>
