<svg xmlns="http://www.w3.org/2000/svg" fill="none" viewBox="0 0 157 157" height="157" width="157">
<rect fill="#D2D5D9" rx="2" height="153" width="153" y="4" x="4"></rect>
<path stroke="#D2D5D9" fill="white" d="M2 0.5H151C151.828 0.5 152.5 1.17157 152.5 2V151C152.5 151.828 151.828 152.5 151 152.5H2C1.17157 152.5 0.5 151.828 0.5 151V2C0.5 1.17157 1.17157 0.5 2 0.5Z"></path>
<path fill="url(#paint0_linear_4528_7366)" d="M117.962 59.9658C119.811 59.9658 121.311 61.4674 121.311 63.3173V66.9299H114.614V63.3173C114.614 61.4674 116.114 59.9658 117.962 59.9658ZM105.177 66.9081L102.133 64.5142V118.964L70.7135 129.149H69.2566H68.974H67.5171L36.2062 120.379V64.5142L33.1838 66.9081V122.511L67.3649 132H68.974H69.2566H70.8439L102.394 121.967L105.177 121.14V66.9081ZM67.517 80.9885L39.2285 64.6448V117.528L67.517 126.081V80.9885ZM70.6265 81.0973V126.102L99.0891 117.528V64.6448L70.6265 81.0973ZM117.962 128.3L114.614 116.592V69.5413H115.44H116.266H117.093H118.767H119.637H120.485H121.311V116.592L117.962 128.3Z" clip-rule="evenodd" fill-rule="evenodd"></path>
<path fill="#7BC796" d="M22.5956 41.2887H27.7591V36.1013H29.953V31.8987H27.7591V9.26636H22.4184L13 32.7743V36.0794H22.6178V41.2887H22.5956ZM17.7646 31.8987L22.64 18.722H22.6843V31.8987H17.7646Z"></path>
<path fill="#202020" d="M46.5999 24.1446V23.2523C44.8169 22.9476 44.0559 21.6201 44.0559 19.8138V13.3721C44.0559 11.2829 45.0779 9.78126 47.4262 9.78126C49.7963 9.78126 50.8183 11.2829 50.8183 13.3721V19.8138C50.8183 21.2719 50.3182 22.4036 49.1657 22.9476L50.8183 23.2523V24.928L46.5999 24.1446ZM48.5787 20.2708V13.0239C48.5787 12.2187 48.2308 11.6528 47.4262 11.6528C46.6434 11.6528 46.2955 12.2187 46.2955 13.0239V20.2926C46.2955 21.076 46.6434 21.6636 47.4262 21.6636C48.209 21.6636 48.5787 21.076 48.5787 20.2708Z"></path>
<path fill="#202020" d="M58.559 9.93369V20.0098C58.559 22.0772 57.6675 23.4047 55.406 23.4047C53.0576 23.4047 52.0791 22.0772 52.0791 20.0098V9.93369H54.3188V20.2274C54.3188 21.0108 54.6233 21.5331 55.4278 21.5331C56.2106 21.5331 56.5367 21.0108 56.5367 20.2274V9.93369H58.559Z"></path>
<path fill="#202020" d="M59.1895 23.2522L61.69 9.95531H64.234L66.7562 23.2522H64.4949L64.0818 20.8148H61.7117L61.3203 23.2522H59.1895ZM61.9944 19.0303H63.7774L62.8859 13.6985H62.8641L61.9944 19.0303Z"></path>
<path fill="#202020" d="M67.7129 9.93369H69.9525V21.4243H72.627V23.2524H67.7346V9.93369H67.7129Z"></path>
<path fill="#202020" d="M73.6272 9.93369H75.8668V23.2524H73.6272V9.93369Z"></path>
<path fill="#202020" d="M76.8885 9.93369H82.8247V11.7617H80.9764V23.2524H78.715V11.7617H76.8667V9.93369H76.8885Z"></path>
<path fill="#202020" d="M88.2389 18.1817V23.2524H85.9993V18.1817L83.4988 9.93369H85.8254L87.1735 14.9826H87.1952L88.5434 9.93369H90.6742L88.2389 18.1817Z"></path>
<path fill="#202020" d="M44.0339 28.5841H49.3611V30.4122H46.2518V34.2206H48.4696V36.0269H46.2518V40.0748H49.3611V41.9028H44.0339V28.5841Z"></path>
<path fill="#202020" d="M57.2542 32.1532V38.312C57.2542 40.3577 56.4062 41.8811 54.0144 41.8811H50.5789V28.5841H54.0361C56.4061 28.5841 57.2542 30.0857 57.2542 32.1532ZM53.7535 40.053C54.6667 40.053 55.0363 39.5089 55.0363 38.7037V31.7397C55.0363 30.9562 54.6884 30.4122 53.7535 30.4122H52.8185V40.0748H53.7535V40.053Z"></path>
<path fill="#202020" d="M65.0165 28.5841V38.6602C65.0165 40.7276 64.125 42.0552 61.8636 42.0552C59.5153 42.0552 58.5369 40.7276 58.5369 38.6602V28.5841H60.7764V38.8778C60.7764 39.6613 61.0809 40.1836 61.8854 40.1836C62.6682 40.1836 62.9943 39.6613 62.9943 38.8778V28.5841H65.0165Z"></path>
<path fill="#202020" d="M66.2996 38.4426V32.0009C66.2996 29.9117 67.278 28.4101 69.6264 28.4101C72.1052 28.4101 72.7792 29.7811 72.7792 31.7397V33.3067H70.7353V31.5656C70.7353 30.7387 70.4526 30.2599 69.6481 30.2599C68.8436 30.2599 68.5174 30.8257 68.5174 31.6309V38.7691C68.5174 39.5743 68.8436 40.1401 69.6481 40.1401C70.4526 40.1401 70.7353 39.6396 70.7353 38.8344V36.3752H72.7792V38.682C72.7792 40.5754 71.9964 41.9899 69.6264 41.9899C67.278 42.0335 66.2996 40.5101 66.2996 38.4426Z"></path>
<path fill="#202020" d="M73.4531 41.8811L75.9537 28.5841H78.4977L81.02 41.8811H78.7369L78.3238 39.4436H75.9537L75.5623 41.8811H73.4531ZM76.2581 37.6591H78.0411L77.1496 32.3273H77.1279L76.2581 37.6591Z"></path>
<path fill="#202020" d="M80.7156 28.5841H86.6516V30.4122H84.8034V41.9028H82.5421V30.4122H80.6938V28.5841H80.7156Z"></path>
<path fill="#202020" d="M87.6953 28.5841H89.9349V41.8811H87.6953V28.5841Z"></path>
<path fill="#202020" d="M91.2395 38.4426V32.0009C91.2395 29.9117 92.2614 28.4101 94.6098 28.4101C96.9798 28.4101 98.0018 29.9117 98.0018 32.0009V38.4426C98.0018 40.5101 96.9798 42.0335 94.6098 42.0335C92.2614 42.0335 91.2395 40.5101 91.2395 38.4426ZM95.7622 38.8126V31.6745C95.7622 30.8692 95.4143 30.3034 94.6098 30.3034C93.827 30.3034 93.4791 30.8692 93.4791 31.6745V38.8126C93.4791 39.6178 93.827 40.1836 94.6098 40.1836C95.4143 40.1836 95.7622 39.6178 95.7622 38.8126Z"></path>
<path fill="#202020" d="M101.155 33.5242V41.8811H99.2629V28.5841H101.459L103.873 36.2228V28.5841H105.743V41.8811H103.786L101.155 33.5242Z"></path>
<defs>
<linearGradient gradientUnits="userSpaceOnUse" y2="144.606" x2="73.1407" y1="59.9658" x1="104.525" id="paint0_linear_4528_7366">
<stop stop-color="#527984"></stop>
<stop stop-color="#79C6AA" offset="0.5"></stop>
<stop stop-color="#C4DAB5" offset="1"></stop>
</linearGradient>
</defs>
</svg>
