<svg xmlns="http://www.w3.org/2000/svg" fill="none" viewBox="0 0 158 158" height="158" width="158">
<path fill="#D2D5D9" d="M156 4H6C4.89543 4 4 4.89543 4 6V156C4 157.105 4.89543 158 6 158H156C157.105 158 158 157.105 158 156V6C158 4.89543 157.105 4 156 4Z"></path>
<path stroke="#CCCCCC" fill="white" d="M2 0.5H152C152.828 0.5 153.5 1.17157 153.5 2V152C153.5 152.828 152.828 153.5 152 153.5H2C1.17157 153.5 0.5 152.828 0.5 152V2C0.5 1.17157 1.17157 0.5 2 0.5Z"></path>
<path fill="#7BC796" d="M29.9578 36.3704V33.0205C29.9578 30.0534 28.905 27.8521 26.5122 26.7993C28.6178 25.7464 29.5749 23.9279 29.5749 21.4394V20.0994C29.5749 15.2181 27.0864 12.6339 22.2052 12.6339C17.4196 12.6339 14.9311 15.2181 14.9311 20.0994V21.3437C14.9311 23.8322 15.8882 25.7464 17.8981 26.7035C15.5053 27.7564 14.4525 29.9577 14.4525 32.9248V36.3704C14.4525 41.0603 16.6539 44.4102 22.2052 44.4102C27.6607 44.4102 29.9578 41.0603 29.9578 36.3704ZM19.8124 19.7166C19.8124 17.8024 20.4823 16.7495 22.1094 16.7495C23.8323 16.7495 24.5022 17.8024 24.5022 19.7166V21.8222C24.5022 23.7365 23.8323 24.7893 22.1094 24.7893C20.3866 24.7893 19.8124 23.6408 19.8124 21.8222V19.7166ZM24.6937 36.9447C24.6937 38.8589 24.0237 40.1989 22.1094 40.1989C20.2909 40.1989 19.6209 38.8589 19.6209 36.9447V31.872C19.6209 29.9577 20.2909 28.7135 22.1094 28.7135C24.0237 28.7135 24.6937 30.0534 24.6937 31.872V36.9447Z"></path>
<path fill="url(#paint0_linear_4525_0)" d="M113.323 57.7141C113.323 57.6184 113.323 57.427 113.227 57.3313C113.131 57.2356 113.035 57.2355 112.94 57.2355H112.844H112.748L100.784 59.9155H100.593C100.497 59.9155 100.402 60.0112 100.402 60.0112C100.21 60.2026 100.21 60.4897 100.402 60.6812L100.497 60.7769L103.273 63.5525L75.9951 90.8303L63.4569 78.2921C63.3611 78.1964 63.074 78.1964 62.9783 78.2921L59.5327 81.7377L39.4332 101.837C39.3375 101.933 39.3375 102.22 39.4332 102.316L42.8789 105.761C42.9746 105.857 43.2617 105.857 43.3574 105.761L63.1697 85.8533L72.2623 94.9459L75.7079 98.3915C75.8037 98.4873 76.0908 98.4873 76.1865 98.3915L107.006 67.5724L109.877 70.4437C110.068 70.6352 110.356 70.6352 110.547 70.4437C110.643 70.348 110.643 70.2523 110.643 70.1566L113.323 57.9055V57.7141ZM90.5432 90.6389L106.24 75.8036C107.293 74.7508 107.676 75.7079 107.58 76.1865V134.571C107.58 135.049 107.197 135.432 106.718 135.432H90.5432C90.0646 135.432 89.6818 135.049 89.6818 134.571V92.8403C89.6818 91.6917 89.9689 91.2132 90.5432 90.6389ZM45.463 110.068L61.1597 95.1374C62.1168 94.1802 62.4996 95.0416 62.4996 95.5202V134.571C62.4996 135.049 62.1168 135.432 61.6382 135.432H45.463C44.9844 135.432 44.6016 135.049 44.6016 134.571V112.27C44.6016 111.121 44.8887 110.643 45.463 110.068ZM76.1865 105.474L83.7477 97.8173C84.8962 96.6687 85.2791 97.6259 85.1834 98.2001V134.762C85.1834 135.241 84.8005 135.623 84.322 135.623H68.1467C67.6681 135.623 67.2853 135.241 67.2853 134.762V98.7744C67.2853 98.2958 67.5724 97.243 68.8167 98.4873L75.7079 105.474C75.8036 105.57 75.995 105.57 76.1865 105.474Z" clip-rule="evenodd" fill-rule="evenodd"></path>
<path fill="#202020" d="M47.6644 16.4624V22.4922C47.6644 24.5022 46.803 25.9379 44.5059 25.9379H41.156V12.9211H44.5059C46.803 12.9211 47.6644 14.4525 47.6644 16.4624ZM44.2188 24.1193C45.0802 24.1193 45.463 23.5451 45.463 22.7794V15.9838C45.463 15.2182 45.0802 14.6439 44.2188 14.6439H43.2617V24.0236H44.2188V24.1193Z"></path>
<path fill="#202020" d="M48.9087 12.9211H54.0771V14.7396H51.0143V18.4723H53.2157V20.1952H51.0143V24.1193H54.0771V25.9379H48.9087V12.9211Z"></path>
<path fill="#202020" d="M55.0342 22.5879V16.271C55.0342 14.261 55.9913 12.7296 58.2884 12.7296C60.6812 12.7296 61.3511 14.0696 61.3511 15.9838V17.5152H59.3412V15.7924C59.3412 15.0267 59.0541 14.5482 58.2884 14.5482C57.5227 14.5482 57.1398 15.1224 57.1398 15.8881V22.8751C57.1398 23.6408 57.427 24.215 58.2884 24.215C59.0541 24.215 59.3412 23.7365 59.3412 22.9708V20.578H61.3511V22.7794C61.3511 24.5979 60.5855 26.0336 58.2884 26.0336C55.9913 26.0336 55.0342 24.5979 55.0342 22.5879Z"></path>
<path fill="#202020" d="M62.5955 12.9211H67.7639V14.7396H64.7011V18.4723H66.9025V20.1952H64.7011V24.1193H67.7639V25.9379H62.5955V12.9211Z"></path>
<path fill="#202020" d="M70.8266 17.8024V25.9379H69.0081V12.9211H71.1137L73.5065 20.3866V12.9211H75.325V25.9379H73.4108L70.8266 17.8024Z"></path>
<path fill="#202020" d="M76.2822 12.9211H82.1206V14.7396H80.3021V25.9379H78.1007V14.7396H76.2822V12.9211Z"></path>
<path fill="#202020" d="M89.7775 17.8981L88.5333 25.9379H86.5233L84.8005 12.9211H86.9062L87.959 21.1523L89.0118 12.9211H90.8304L92.0746 21.1523L93.0317 12.9211H94.8503L93.1274 25.9379H91.0218L89.7775 17.8981Z"></path>
<path fill="#202020" d="M95.616 22.5879V16.271C95.616 14.261 96.5731 12.7296 98.8702 12.7296C101.167 12.7296 102.22 14.1653 102.22 16.271V22.5879C102.22 24.5979 101.263 26.1293 98.8702 26.1293C96.5731 26.0336 95.616 24.5979 95.616 22.5879ZM100.019 22.8751V15.8881C100.019 15.1224 99.6359 14.5482 98.8702 14.5482C98.1045 14.5482 97.7216 15.1224 97.7216 15.8881V22.8751C97.7216 23.6408 98.1045 24.215 98.8702 24.215C99.7316 24.215 100.019 23.7365 100.019 22.8751Z"></path>
<path fill="#202020" d="M105.666 20.0037V25.9379H103.464V12.9211H106.623C108.824 12.9211 109.59 13.9739 109.59 15.7924V17.4195C109.59 18.8552 109.111 19.6209 107.867 19.908L109.973 25.8421H107.676L105.666 20.0037ZM105.666 14.7396V18.7595H106.431C107.197 18.7595 107.484 18.3766 107.484 17.7067V15.7924C107.484 15.1224 107.197 14.7396 106.431 14.7396H105.666Z"></path>
<path fill="#202020" d="M113.035 19.6209V25.9379H110.834V12.9211H113.035V18.6638L115.428 12.9211H117.534L115.045 18.7595L117.63 25.9379H115.333L113.035 19.6209Z"></path>
<path fill="#202020" d="M120.118 25.9379L122.607 12.9211H125.095L127.584 25.9379H125.382L124.999 23.5451H122.511L122.128 25.9379H120.118ZM122.798 21.8223H124.521L123.659 16.6538L122.798 21.8223Z"></path>
<path fill="#202020" d="M130.264 17.8024V25.9379H128.445V12.9211H130.551L132.943 20.3866V12.9211H134.762V25.9379H132.848L130.264 17.8024Z"></path>
<path fill="#202020" d="M142.515 16.4624V22.4922C142.515 24.5022 141.653 25.9379 139.356 25.9379H135.911V12.9211H139.26C141.653 12.9211 142.515 14.4525 142.515 16.4624ZM139.069 24.1193C139.93 24.1193 140.313 23.5451 140.313 22.7794V15.9838C140.313 15.2182 139.93 14.6439 139.069 14.6439H138.112V24.0236H139.069V24.1193Z"></path>
<path fill="#202020" d="M41.156 31.1063H46.3244V32.9248H43.2617V36.6575H45.463V38.3804H43.2617V42.3045H46.3244V44.1231H41.156V31.1063Z"></path>
<path fill="#202020" d="M47.2815 40.7731V34.4562C47.2815 32.4462 48.2386 30.9149 50.5357 30.9149C52.9285 30.9149 53.5985 32.2548 53.5985 34.1691V35.7004H51.6842V33.9776C51.6842 33.2119 51.3971 32.7334 50.6314 32.7334C49.8657 32.7334 49.4829 33.3076 49.4829 34.0733V41.0603C49.4829 41.826 49.77 42.4002 50.6314 42.4002C51.3971 42.4002 51.6842 41.9217 51.6842 41.156V38.7632H53.5985V40.9646C53.5985 42.7831 52.8328 44.2188 50.5357 44.2188C48.2386 44.2188 47.2815 42.7831 47.2815 40.7731Z"></path>
<path fill="#202020" d="M54.8428 40.7732V34.4562C54.8428 32.4462 55.7999 30.9149 58.097 30.9149C60.3941 30.9149 61.4469 32.3505 61.4469 34.4562V40.7732C61.4469 42.7831 60.4898 44.3145 58.097 44.3145C55.7999 44.2188 54.8428 42.7831 54.8428 40.7732ZM59.2455 41.0603V34.0733C59.2455 33.3076 58.8627 32.7334 58.097 32.7334C57.3313 32.7334 56.9484 33.3076 56.9484 34.0733V41.0603C56.9484 41.826 57.3313 42.4002 58.097 42.4002C58.8627 42.4002 59.2455 41.9217 59.2455 41.0603Z"></path>
<path fill="#202020" d="M64.5097 35.9876V44.1231H62.6912V31.1063H64.7968L67.1896 38.5718V31.1063H69.0081V44.1231H67.0939L64.5097 35.9876Z"></path>
<path fill="#202020" d="M70.2523 40.7732V34.4562C70.2523 32.4462 71.2094 30.9149 73.5065 30.9149C75.8036 30.9149 76.8564 32.3505 76.8564 34.4562V40.7732C76.8564 42.7831 75.8993 44.3145 73.5065 44.3145C71.2094 44.2188 70.2523 42.7831 70.2523 40.7732ZM74.6551 41.0603V34.0733C74.6551 33.3076 74.2722 32.7334 73.5065 32.7334C72.7408 32.7334 72.358 33.3076 72.358 34.0733V41.0603C72.358 41.826 72.7408 42.4002 73.5065 42.4002C74.2722 42.4002 74.6551 41.9217 74.6551 41.0603Z"></path>
<path fill="#202020" d="M84.1305 35.7004L82.5992 44.1231H81.5463L79.9192 35.7004V44.1231H78.1007V31.1063H80.6849L82.1206 38.3804L83.3648 31.1063H86.1405V44.1231H84.1305V35.7004Z"></path>
<path fill="#202020" d="M87.2891 31.1063H89.4904V44.1231H87.2891V31.1063Z"></path>
<path fill="#202020" d="M90.7346 40.7731V34.4562C90.7346 32.4462 91.6917 30.9149 93.9888 30.9149C96.3816 30.9149 97.0516 32.2548 97.0516 34.1691V35.7004H95.0416V33.9776C95.0416 33.2119 94.7545 32.7334 93.9888 32.7334C93.2231 32.7334 92.8403 33.3076 92.8403 34.0733V41.0603C92.8403 41.826 93.1274 42.4002 93.9888 42.4002C94.7545 42.4002 95.0416 41.9217 95.0416 41.156V38.7632H97.0516V40.9646C97.0516 42.7831 96.2859 44.2188 93.9888 44.2188C91.6917 44.2188 90.7346 42.7831 90.7346 40.7731Z"></path>
<path fill="#202020" d="M103.56 37.1361H106.623V44.0273H105.091V42.5917C104.804 43.5488 104.23 44.1231 102.986 44.1231C101.071 44.1231 100.21 42.5917 100.21 40.5817V34.4562C100.21 32.4462 101.167 30.9149 103.464 30.9149C105.857 30.9149 106.623 32.2548 106.623 34.1691V35.4133H104.613V34.0733C104.613 33.3076 104.326 32.8291 103.56 32.8291C102.794 32.8291 102.411 33.4034 102.411 34.1691V41.156C102.411 41.9217 102.699 42.496 103.464 42.496C104.134 42.496 104.517 42.1131 104.517 41.2517V38.9546H103.464V37.1361H103.56Z"></path>
<path fill="#202020" d="M110.164 38.1889V44.1231H107.963V31.1063H111.121C113.323 31.1063 114.088 32.1591 114.088 33.9776V35.6047C114.088 37.0404 113.61 37.8061 112.365 38.0932L114.471 44.0273H112.174L110.164 38.1889ZM110.164 32.9248V36.9447H110.93C111.696 36.9447 111.983 36.5618 111.983 35.8919V33.9776C111.983 33.3076 111.696 32.9248 110.93 32.9248H110.164Z"></path>
<path fill="#202020" d="M115.333 40.7732V34.4562C115.333 32.4462 116.29 30.9149 118.587 30.9149C120.884 30.9149 121.937 32.3505 121.937 34.4562V40.7732C121.937 42.7831 120.98 44.3145 118.587 44.3145C116.29 44.2188 115.333 42.7831 115.333 40.7732ZM119.735 41.0603V34.0733C119.735 33.3076 119.352 32.7334 118.587 32.7334C117.821 32.7334 117.438 33.3076 117.438 34.0733V41.0603C117.438 41.826 117.821 42.4002 118.587 42.4002C119.352 42.4002 119.735 41.9217 119.735 41.0603Z"></path>
<path fill="#202020" d="M127.679 36.0833L126.435 44.1231H124.425L122.702 31.1063H124.808L125.861 39.3375L126.914 31.1063H128.732L129.976 39.3375L130.933 31.1063H132.752L131.029 44.1231H128.924L127.679 36.0833Z"></path>
<path fill="#202020" d="M133.422 31.1063H139.26V32.9248H137.442V44.1231H135.241V32.9248H133.422V31.1063Z"></path>
<path fill="#202020" d="M144.525 38.3804H142.419V44.1231H140.218V31.1063H142.419V36.5618H144.525V31.1063H146.726V44.1231H144.525V38.3804Z"></path>
<defs>
<linearGradient gradientUnits="userSpaceOnUse" y2="142.335" x2="58.3208" y1="57.2356" x1="99.2348" id="paint0_linear_4525_0">
<stop stop-color="#527984"></stop>
<stop stop-color="#79C6AA" offset="0.5"></stop>
<stop stop-color="#C4DAB5" offset="1"></stop>
</linearGradient>
</defs>
</svg>
