<svg width="21" height="19" viewBox="0 0 21 19" fill="none" xmlns="http://www.w3.org/2000/svg">
<path d="M1.7998 4.91309V14.3044C1.7998 16.0333 4.30701 17.4348 7.3998 17.4348C8.5378 17.4348 9.59652 17.2451 10.4802 16.9191" stroke="#7BC796" stroke-width="2"/>
<path d="M1.7998 11.9565C1.7998 13.6854 4.30701 15.087 7.3998 15.087C7.79133 15.087 8.17347 15.0645 8.54232 15.0218" stroke="#7BC796"/>
<path d="M1.7998 9.60864C1.7998 11.3375 4.30701 12.7391 7.39981 12.7391C7.67142 12.7391 7.93852 12.7283 8.19981 12.7074" stroke="#7BC796"/>
<path d="M1.7998 7.26086C1.7998 8.98976 4.30701 10.3913 7.39981 10.3913C7.67142 10.3913 7.93852 10.3805 8.19981 10.3596" stroke="#7BC796"/>
<ellipse cx="7.3998" cy="4.91303" rx="5.6" ry="3.13043" stroke="#7BC796" stroke-width="2"/>
<path d="M20.0004 12.3479C20.0004 15.4489 17.4245 18 14.2004 18C10.9763 18 8.40039 15.4489 8.40039 12.3479C8.40039 9.24685 10.9763 6.69568 14.2004 6.69568C17.4245 6.69568 20.0004 9.24685 20.0004 12.3479Z" stroke="#7BC796" stroke-width="2"/>
</svg>
