<svg width="21" height="19" viewBox="0 0 21 19" fill="none" xmlns="http://www.w3.org/2000/svg">
<path d="M14.7921 8.92657C14.7921 12.7557 11.701 15.8531 7.89607 15.8531C4.09111 15.8531 1 12.7557 1 8.92657C1 5.09749 4.09111 2 7.89607 2C11.701 2 14.7921 5.09749 14.7921 8.92657Z" stroke="#4FB573" stroke-width="2"/>
<ellipse cx="7.89607" cy="8.92658" rx="3.38403" ry="3.3971" stroke="#4FB573" stroke-linecap="round" stroke-dasharray="0.1 2"/>
<mask id="path-3-outside-1_408_14694" maskUnits="userSpaceOnUse" x="8.01062" y="0.00012207" width="13" height="19" fill="black">
<rect fill="white" x="8.01062" y="0.00012207" width="13" height="19"/>
<path fill-rule="evenodd" clip-rule="evenodd" d="M12.8897 1.25012C12.8897 1.11205 13.0016 1.00012 13.1397 1.00012L14.8957 1.00012C15.0338 1.00012 15.1457 1.11205 15.1457 1.25012L15.1457 12.7767L17.3451 10.5688C17.4426 10.471 17.6006 10.471 17.698 10.5688L18.9404 11.816C19.0378 11.9138 19.0378 12.0724 18.9404 12.1702L14.1964 16.9325C14.1686 16.9605 14.1358 16.9804 14.1009 16.9924C14.0095 17.0327 13.8989 17.0153 13.824 16.9402L9.0837 12.1815C8.98626 12.0837 8.98626 11.9251 9.0837 11.8273L10.3261 10.5801C10.4235 10.4823 10.5815 10.4823 10.6789 10.5801L12.8897 12.7994L12.8897 1.25012Z"/>
</mask>
<path fill-rule="evenodd" clip-rule="evenodd" d="M12.8897 1.25012C12.8897 1.11205 13.0016 1.00012 13.1397 1.00012L14.8957 1.00012C15.0338 1.00012 15.1457 1.11205 15.1457 1.25012L15.1457 12.7767L17.3451 10.5688C17.4426 10.471 17.6006 10.471 17.698 10.5688L18.9404 11.816C19.0378 11.9138 19.0378 12.0724 18.9404 12.1702L14.1964 16.9325C14.1686 16.9605 14.1358 16.9804 14.1009 16.9924C14.0095 17.0327 13.8989 17.0153 13.824 16.9402L9.0837 12.1815C8.98626 12.0837 8.98626 11.9251 9.0837 11.8273L10.3261 10.5801C10.4235 10.4823 10.5815 10.4823 10.6789 10.5801L12.8897 12.7994L12.8897 1.25012Z" fill="#4FB573"/>
<path d="M12.8897 1.25012L13.8897 1.25012L12.8897 1.25012ZM15.1457 1.25012L16.1457 1.25012L15.1457 1.25012ZM15.1457 12.7767H14.1457V15.1975L15.8542 13.4825L15.1457 12.7767ZM17.3451 10.5688L18.0536 11.2746L18.0536 11.2746L17.3451 10.5688ZM17.698 10.5688L16.9895 11.2746L16.9895 11.2746L17.698 10.5688ZM18.9404 11.816L19.6488 11.1103L19.6488 11.1103L18.9404 11.816ZM18.9404 12.1702L18.2319 11.4645L18.2319 11.4645L18.9404 12.1702ZM14.1964 16.9325L13.488 16.2268L13.488 16.2268L14.1964 16.9325ZM14.1009 16.9924L13.7763 16.0465L13.7362 16.0603L13.6973 16.0774L14.1009 16.9924ZM13.824 16.9402L14.5325 16.2344L14.5325 16.2344L13.824 16.9402ZM9.0837 12.1815L9.79217 11.4758L9.79217 11.4758L9.0837 12.1815ZM9.0837 11.8273L8.37523 11.1216L8.37523 11.1216L9.0837 11.8273ZM10.3261 10.5801L11.0345 11.2859L11.0345 11.2859L10.3261 10.5801ZM10.6789 10.5801L9.97048 11.2859H9.97048L10.6789 10.5801ZM12.8897 12.7994L12.1812 13.5052L13.8897 15.2202V12.7994H12.8897ZM13.1397 0.00012207C12.4493 0.00012207 11.8897 0.559768 11.8897 1.25012L13.8897 1.25012C13.8897 1.66433 13.5539 2.00012 13.1397 2.00012V0.00012207ZM14.8957 0.00012207L13.1397 0.00012207V2.00012L14.8957 2.00012V0.00012207ZM16.1457 1.25012C16.1457 0.559766 15.5861 0.00012207 14.8957 0.00012207V2.00012C14.4815 2.00012 14.1457 1.66434 14.1457 1.25012L16.1457 1.25012ZM16.1457 12.7767V1.25012L14.1457 1.25012L14.1457 12.7767H16.1457ZM16.6367 9.86308L14.4373 12.071L15.8542 13.4825L18.0536 11.2746L16.6367 9.86308ZM18.4065 9.86308C17.9182 9.37292 17.1249 9.37292 16.6367 9.86308L18.0536 11.2746C17.7602 11.5691 17.2829 11.5691 16.9895 11.2746L18.4065 9.86308ZM19.6488 11.1103L18.4065 9.86308L16.9895 11.2746L18.2319 12.5217L19.6488 11.1103ZM19.6488 12.876C20.135 12.388 20.135 11.5983 19.6488 11.1103L18.2319 12.5217C17.9406 12.2293 17.9406 11.7569 18.2319 11.4645L19.6488 12.876ZM14.9049 17.6382L19.6488 12.876L18.2319 11.4645L13.488 16.2268L14.9049 17.6382ZM14.4254 17.9383C14.602 17.8777 14.7669 17.7767 14.9049 17.6382L13.488 16.2268C13.5702 16.1442 13.6695 16.0832 13.7763 16.0465L14.4254 17.9383ZM13.1155 17.6459C13.4914 18.0232 14.0468 18.1092 14.5044 17.9074L13.6973 16.0774C13.9721 15.9562 14.3064 16.0074 14.5325 16.2344L13.1155 17.6459ZM8.37523 12.8873L13.1155 17.6459L14.5325 16.2344L9.79217 11.4758L8.37523 12.8873ZM8.37523 11.1216C7.88908 11.6096 7.88908 12.3993 8.37524 12.8873L9.79217 11.4758C10.0834 11.7682 10.0834 12.2407 9.79217 12.5331L8.37523 11.1216ZM9.61761 9.8744L8.37523 11.1216L9.79217 12.5331L11.0345 11.2859L9.61761 9.8744ZM11.3874 9.8744C10.8991 9.38423 10.1059 9.38423 9.61761 9.8744L11.0345 11.2859C10.7412 11.5804 10.2639 11.5804 9.97048 11.2859L11.3874 9.8744ZM13.5982 12.0937L11.3874 9.8744L9.97048 11.2859L12.1812 13.5052L13.5982 12.0937ZM11.8897 1.25012L11.8897 12.7994H13.8897L13.8897 1.25012L11.8897 1.25012Z" fill="white" mask="url(#path-3-outside-1_408_14694)"/>
</svg>
