<svg width="46" height="42" viewBox="0 0 46 42" fill="none" xmlns="http://www.w3.org/2000/svg">
<path d="M14.266 25.9038H18.4166V27.9791C18.4166 29.1253 17.4875 30.0544 16.3413 30.0544C15.1951 30.0544 14.266 29.1253 14.266 27.9791V25.9038Z" fill="#B9E1C7" stroke="#4FB573" stroke-width="2" stroke-linecap="round" stroke-linejoin="round"/>
<path d="M39.8403 37.3838C39.8403 34.4715 38 34.2168 38 34.2168" stroke="#4FB573" stroke-miterlimit="10" stroke-linecap="round"/>
<path d="M41.0953 35.0697C41.0953 33.3097 41.9182 33 41.9182 33L41.0953 35.0697Z" fill="white"/>
<path d="M41.0953 35.0697C41.0953 33.3097 41.9182 33 41.9182 33" stroke="#4FB573" stroke-miterlimit="10" stroke-linecap="round"/>
<path d="M2.54866 27.964C2.9857 24.7604 1 24.2012 1 24.2012" stroke="#4FB573" stroke-miterlimit="10" stroke-linecap="round"/>
<path d="M4.35437 27.3141C4.76111 24.3334 6.22661 24 6.22661 24L4.35437 27.3141Z" fill="white"/>
<path d="M4.35437 27.3141C4.76111 24.3334 6.22661 24 6.22661 24" stroke="#4FB573" stroke-miterlimit="10" stroke-linecap="round"/>
<path d="M5.36503 37.0703C5.36503 33.3272 3 33 3 33" stroke="#4FB573" stroke-miterlimit="10" stroke-linecap="round"/>
<path d="M6.97839 36.1793C6.97839 33.9175 8.03586 33.5193 8.03586 33.5193L6.97839 36.1793Z" fill="white"/>
<path d="M6.97839 36.1793C6.97839 33.9175 8.03586 33.5193 8.03586 33.5193" stroke="#4FB573" stroke-miterlimit="10" stroke-linecap="round"/>
<path d="M23.671 36.523C23.671 32.7799 26.036 32.4526 26.036 32.4526" stroke="#4FB573" stroke-miterlimit="10" stroke-linecap="round"/>
<path d="M22.0575 34.66C22.0575 32.3982 21 32 21 32L22.0575 34.66Z" fill="white"/>
<path d="M22.0575 34.66C22.0575 32.3982 21 32 21 32" stroke="#4FB573" stroke-miterlimit="10" stroke-linecap="round"/>
<path d="M31.4204 38.4734C31.2989 35.2688 30 34 30 34" stroke="#4FB573" stroke-miterlimit="10" stroke-linecap="round"/>
<path d="M33.0825 39.683C33.03 38.6276 33.2101 37.5737 33.61 36.5965C34.0099 35.6193 34.6197 34.743 35.3957 34.0303" stroke="#4FB573" stroke-miterlimit="10" stroke-linecap="round"/>
<path d="M13.4339 40.167C13.646 39.2705 13.6256 38.3341 13.3745 37.4478C13.1234 36.5614 12.6501 35.7547 12 35.105" stroke="#4FB573" stroke-miterlimit="10" stroke-linecap="round"/>
<path d="M15.2201 40.9009C15.0355 39.8607 15.0819 38.7923 15.3558 37.7722C15.6298 36.7521 16.1246 35.8055 16.8049 35" stroke="#4FB573" stroke-miterlimit="10" stroke-linecap="round"/>
<path d="M10 24.7085H14.1506V26.7838C14.1506 27.93 13.2215 28.8591 12.0753 28.8591C10.9291 28.8591 10 27.93 10 26.7838V24.7085Z" fill="#B9E1C7" stroke="#4FB573" stroke-width="2" stroke-linecap="round" stroke-linejoin="round"/>
<path d="M30 16H34.1506V25.7836C34.1506 26.9298 33.2215 27.8589 32.0753 27.8589C30.9291 27.8589 30 26.9298 30 25.7836V16Z" fill="white" stroke="#4FB573" stroke-width="2" stroke-linecap="round" stroke-linejoin="round"/>
<path d="M34 25H39V26.5C39 27.8807 37.8807 29 36.5 29C35.1193 29 34 27.8807 34 26.5V25Z" fill="#B9E1C7" stroke="#4FB573" stroke-width="2" stroke-linecap="round" stroke-linejoin="round"/>
<path fill-rule="evenodd" clip-rule="evenodd" d="M39.2823 10.5842C38.8013 5.05315 31.9241 2.57496 23.768 3.28414C15.6119 3.99331 9.26553 7.62132 9.74646 13.1524C9.97647 15.7977 11.6696 17.7447 14.2659 18.9786L14.2659 27.9791C14.2659 29.1252 15.1951 30.0544 16.3412 30.0544C17.4874 30.0544 18.4165 29.1252 18.4165 27.9791L18.4165 20.2359C20.4918 20.5913 22.819 20.6647 25.2608 20.4524C28.5888 20.163 31.6155 19.3877 34 18.1953L34 26.5001C34 27.8808 35.1193 29.0001 36.5 29.0001C37.8807 29.0001 39 27.8808 39 26.5001L39 13.1175C39.259 12.3259 39.3602 11.48 39.2823 10.5842Z" fill="white"/>
<path d="M14.2659 18.9786L15.2659 18.9786C15.2659 18.5927 15.0438 18.2412 14.6952 18.0755L14.2659 18.9786ZM14.2659 27.9791L13.2659 27.9791L14.2659 27.9791ZM16.3412 30.0544L16.3412 29.0544L16.3412 30.0544ZM18.4165 27.9791L19.4165 27.9791L18.4165 27.9791ZM18.4165 20.2359L18.5854 19.2503C18.2949 19.2005 17.9972 19.2814 17.7719 19.4714C17.5466 19.6614 17.4165 19.9412 17.4165 20.2359L18.4165 20.2359ZM34 18.1953L35 18.1953C35 17.8488 34.8205 17.5269 34.5257 17.3447C34.2309 17.1625 33.8628 17.1459 33.5528 17.3009L34 18.1953ZM34 26.5001L33 26.5001L33 26.5001L34 26.5001ZM39 26.5001L38 26.5001L38 26.5001L39 26.5001ZM39 13.1175L38.0496 12.8066C38.0167 12.907 38 13.0119 38 13.1175L39 13.1175ZM23.8546 4.28038C27.8275 3.93493 31.4051 4.37599 34.0031 5.51051C36.5814 6.63644 38.0869 8.38015 38.286 10.6708L40.2785 10.4976C39.9968 7.25719 37.8231 4.99628 34.8035 3.67765C31.8036 2.36761 27.8645 1.92417 23.6813 2.28789L23.8546 4.28038ZM10.7427 13.0657C10.5435 10.7751 11.7254 8.79769 14.0707 7.24365C16.4339 5.67775 19.8817 4.62583 23.8546 4.28038L23.6813 2.28789C19.4982 2.65162 15.6947 3.76829 12.966 5.57645C10.2193 7.39646 8.46847 9.9986 8.75022 13.239L10.7427 13.0657ZM14.6952 18.0755C12.3204 16.9468 10.9335 15.2606 10.7427 13.0657L8.75022 13.239C9.0194 16.3347 11.0187 18.5425 13.8367 19.8818L14.6952 18.0755ZM13.2659 18.9786L13.2659 27.9791L15.2659 27.9791L15.2659 18.9786L13.2659 18.9786ZM13.2659 27.9791C13.2659 29.6775 14.6428 31.0544 16.3412 31.0544L16.3412 29.0544C15.7474 29.0544 15.2659 28.5729 15.2659 27.9791L13.2659 27.9791ZM16.3412 31.0544C18.0397 31.0544 19.4165 29.6775 19.4165 27.9791L17.4165 27.9791C17.4165 28.5729 16.9351 29.0544 16.3412 29.0544L16.3412 31.0544ZM19.4165 27.9791L19.4165 20.2359L17.4165 20.2359L17.4165 27.9791L19.4165 27.9791ZM25.1741 19.4562C22.8039 19.6623 20.5637 19.5891 18.5854 19.2503L18.2477 21.2215C20.4199 21.5936 22.834 21.6672 25.3474 21.4486L25.1741 19.4562ZM33.5528 17.3009C31.3072 18.4238 28.4095 19.1748 25.1741 19.4562L25.3474 21.4486C28.768 21.1512 31.9238 20.3516 34.4472 19.0898L33.5528 17.3009ZM33 18.1953L33 26.5001L35 26.5001L35 18.1953L33 18.1953ZM33 26.5001C33 28.4331 34.567 30.0001 36.5 30.0001L36.5 28.0001C35.6716 28.0001 35 27.3285 35 26.5001L33 26.5001ZM36.5 30.0001C38.433 30.0001 40 28.4331 40 26.5001L38 26.5001C38 27.3285 37.3284 28.0001 36.5 28.0001L36.5 30.0001ZM40 26.5001L40 13.1175L38 13.1175L38 26.5001L40 26.5001ZM38.286 10.6708C38.3524 11.4347 38.2659 12.1452 38.0496 12.8066L39.9504 13.4284C40.252 12.5065 40.3679 11.5253 40.2785 10.4976L38.286 10.6708Z" fill="#4FB573"/>
<mask id="mask0" mask-type="alpha" maskUnits="userSpaceOnUse" x="8" y="2" width="33" height="20">
<path d="M23.8992 3.75873C31.7027 3.08021 38.276 5.37384 38.724 10.5255C39.1719 15.6772 33.0931 19.0709 25.2896 19.7494C17.4861 20.428 10.9128 18.1343 10.4648 12.9827C10.0169 7.831 16.0956 4.43725 23.8992 3.75873Z" fill="white" stroke="#3D7ACF" stroke-width="3" stroke-linecap="round" stroke-linejoin="round"/>
</mask>
<g mask="url(#mask0)">
<path d="M20.256 9.26263C16.5843 9.41869 16.3707 6.40463 16.7229 4.87809L28.0268 1.03936L35.1871 5.3125C34.7527 5.89424 33.2514 7.03112 30.7207 6.92479C27.5572 6.79188 28.6548 5.47252 26.5243 6.06574C24.3938 6.65897 24.8456 9.06754 20.256 9.26263Z" fill="#7BC796" stroke="#4FB573" stroke-linecap="round" stroke-linejoin="round"/>
<path d="M22.2868 17.1637C19.8529 18.6701 19.4307 21.1884 19.5238 22.2593L33.6126 19.5956C33.5608 19.0007 32.9203 17.5338 30.7721 16.4259C28.0869 15.0409 25.3291 15.2807 22.2868 17.1637Z" fill="#7BC796" stroke="#4FB573" stroke-linecap="round" stroke-linejoin="round"/>
</g>
<path d="M30 24L34 24L34 26C34 27.1046 33.1046 28 32 28C30.8954 28 30 27.1046 30 26L30 24Z" fill="#B9E1C7" stroke="#4FB573" stroke-width="2" stroke-linecap="round" stroke-linejoin="round"/>
<path d="M14.2659 18.9786L15.2659 18.9786C15.2659 18.5927 15.0438 18.2412 14.6952 18.0755L14.2659 18.9786ZM14.2659 27.9791L13.2659 27.9791L14.2659 27.9791ZM16.3412 30.0544L16.3412 29.0544L16.3412 30.0544ZM18.4165 27.9791L19.4165 27.9791L18.4165 27.9791ZM18.4165 20.2359L18.5854 19.2503C18.2949 19.2005 17.9972 19.2814 17.7719 19.4714C17.5466 19.6614 17.4165 19.9412 17.4165 20.2359L18.4165 20.2359ZM34 18.1953L35 18.1953C35 17.8488 34.8205 17.5269 34.5257 17.3447C34.2309 17.1625 33.8628 17.1459 33.5528 17.3009L34 18.1953ZM34 26.5001L33 26.5001L33 26.5001L34 26.5001ZM39 26.5001L38 26.5001L38 26.5001L39 26.5001ZM39 13.1175L38.0496 12.8066C38.0167 12.907 38 13.0119 38 13.1175L39 13.1175ZM23.8546 4.28038C27.8275 3.93493 31.4051 4.37599 34.0031 5.51051C36.5814 6.63644 38.0869 8.38015 38.286 10.6708L40.2785 10.4976C39.9968 7.25719 37.8231 4.99628 34.8035 3.67765C31.8036 2.36761 27.8645 1.92417 23.6813 2.28789L23.8546 4.28038ZM10.7427 13.0657C10.5435 10.7751 11.7254 8.79769 14.0707 7.24365C16.4339 5.67775 19.8817 4.62583 23.8546 4.28038L23.6813 2.28789C19.4982 2.65162 15.6947 3.76829 12.966 5.57645C10.2193 7.39646 8.46847 9.9986 8.75022 13.239L10.7427 13.0657ZM14.6952 18.0755C12.3204 16.9468 10.9335 15.2606 10.7427 13.0657L8.75022 13.239C9.0194 16.3347 11.0187 18.5425 13.8367 19.8818L14.6952 18.0755ZM13.2659 18.9786L13.2659 27.9791L15.2659 27.9791L15.2659 18.9786L13.2659 18.9786ZM13.2659 27.9791C13.2659 29.6775 14.6428 31.0544 16.3412 31.0544L16.3412 29.0544C15.7474 29.0544 15.2659 28.5729 15.2659 27.9791L13.2659 27.9791ZM16.3412 31.0544C18.0397 31.0544 19.4165 29.6775 19.4165 27.9791L17.4165 27.9791C17.4165 28.5729 16.9351 29.0544 16.3412 29.0544L16.3412 31.0544ZM19.4165 27.9791L19.4165 20.2359L17.4165 20.2359L17.4165 27.9791L19.4165 27.9791ZM25.1741 19.4562C22.8039 19.6623 20.5637 19.5891 18.5854 19.2503L18.2477 21.2215C20.4199 21.5936 22.834 21.6672 25.3474 21.4486L25.1741 19.4562ZM33.5528 17.3009C31.3072 18.4238 28.4095 19.1748 25.1741 19.4562L25.3474 21.4486C28.768 21.1512 31.9238 20.3516 34.4472 19.0898L33.5528 17.3009ZM33 18.1953L33 26.5001L35 26.5001L35 18.1953L33 18.1953ZM33 26.5001C33 28.4331 34.567 30.0001 36.5 30.0001L36.5 28.0001C35.6716 28.0001 35 27.3285 35 26.5001L33 26.5001ZM36.5 30.0001C38.433 30.0001 40 28.4331 40 26.5001L38 26.5001C38 27.3285 37.3284 28.0001 36.5 28.0001L36.5 30.0001ZM40 26.5001L40 13.1175L38 13.1175L38 26.5001L40 26.5001ZM38.286 10.6708C38.3524 11.4347 38.2659 12.1452 38.0496 12.8066L39.9504 13.4284C40.252 12.5065 40.3679 11.5253 40.2785 10.4976L38.286 10.6708Z" fill="#4FB573"/>
<path d="M10 17H14.1506V26.7836C14.1506 27.9298 13.2215 28.8589 12.0753 28.8589C10.9291 28.8589 10 27.9298 10 26.7836V17Z" fill="white" stroke="#4FB573" stroke-width="2" stroke-linecap="round" stroke-linejoin="round"/>
<path d="M16.2855 6.84556L12.8313 4.9856L9.9085 5.51701L8.23529 8.16185L5.68117 7.76228L3 8.56141L4.30803 10.3953L6.71102 11.2252L6.92646 12.5571L7.79901 15.7536L10.4872 18.1963H14.7782L17.3528 15.0427L18.3827 11.2252L20.2708 10.7272L21.9872 8.56141L19.1492 7.76228L16.2855 6.84556Z" fill="white" stroke="#4FB573"/>
<path d="M21.9696 8.46128C21.3333 7.84854 20.4986 7.46407 19.6041 7.37178C18.7097 7.27948 17.8094 7.48491 17.0529 7.95392C16.1775 6.78734 15.2237 4.9856 12.3009 4.9856C9.64381 4.9856 8.45612 6.5849 8.12799 7.65026C8.12799 7.65026 7.98592 7.8527 7.92307 7.95641C7.16644 7.48652 6.26566 7.28043 5.3706 7.37243C4.47553 7.46444 3.64016 7.84899 3.00342 8.46211" stroke="#4FB573" stroke-width="2" stroke-linecap="round" stroke-linejoin="round"/>
<path d="M3 8.58813C3.3186 9.31472 3.86422 9.92759 4.56098 10.3416C5.25774 10.7555 6.07101 10.95 6.88777 10.898C6.85389 11.1811 6.83723 11.4659 6.83785 11.7509C6.83785 15.3148 9.36439 18.205 12.485 18.205C15.6057 18.205 18.1322 15.3148 18.1322 11.7509C18.1328 11.4659 18.1162 11.1811 18.0823 10.898C18.8987 10.9497 19.7116 10.755 20.4079 10.3411C21.1043 9.92714 21.6495 9.31444 21.9679 8.58813" stroke="#4FB573" stroke-width="2" stroke-linecap="round" stroke-linejoin="round"/>
<path d="M10.6956 10.7396C10.6956 10.5021 10.8846 10.3722 11.0391 10.3722C11.1936 10.3722 11.3826 10.5021 11.3826 10.7396C11.3826 10.977 11.1936 11.1069 11.0391 11.1069C10.8846 11.1069 10.6956 10.977 10.6956 10.7396Z" fill="#4FB573" stroke="#4FB573" stroke-width="2"/>
<path d="M13.585 10.7393C13.585 10.5018 13.774 10.3719 13.9285 10.3719C14.083 10.3719 14.272 10.5018 14.272 10.7393C14.272 10.9768 14.083 11.1067 13.9285 11.1067C13.774 11.1067 13.585 10.9768 13.585 10.7393Z" fill="#4FB573" stroke="#4FB573" stroke-width="2"/>
<ellipse cx="12.5657" cy="16.1455" rx="4.25135" ry="2.9228" fill="#DCF0E3" stroke="#4FB573" stroke-width="2" stroke-linecap="round" stroke-linejoin="round"/>
<path d="M10.44 16.4112C10.7335 16.4112 10.9714 16.1733 10.9714 15.8798C10.9714 15.5863 10.7335 15.3484 10.44 15.3484C10.1465 15.3484 9.90857 15.5863 9.90857 15.8798C9.90857 16.1733 10.1465 16.4112 10.44 16.4112Z" fill="#4FB573" stroke="#4FB573" stroke-width="3"/>
<path d="M14.6913 16.4112C14.9848 16.4112 15.2227 16.1733 15.2227 15.8798C15.2227 15.5863 14.9848 15.3484 14.6913 15.3484C14.3978 15.3484 14.1599 15.5863 14.1599 15.8798C14.1599 16.1733 14.3978 16.4112 14.6913 16.4112Z" fill="#4FB573" stroke="#4FB573" stroke-width="3"/>
<path d="M15.8584 1.17723C16.2835 1.91358 16.0364 4.14261 14.4256 5.07259L16.0198 6.31427C16.0404 5.99559 17.3 4.88403 17.3198 3.70843C17.3458 2.15932 15.8584 1.17723 15.8584 1.17723Z" fill="#DCF0E3" stroke="#4FB573" stroke-linecap="round" stroke-linejoin="round"/>
<path d="M8.76028 1.17723C8.33514 1.91358 8.58228 4.14261 10.1931 5.07259L8.59881 6.31427C8.57825 5.99559 7.31866 4.88403 7.29888 3.70843C7.27282 2.15932 8.76028 1.17723 8.76028 1.17723Z" fill="#DCF0E3" stroke="#4FB573" stroke-linecap="round" stroke-linejoin="round"/>
<path d="M34 25L39 25L39 26.5C39 27.8807 37.8807 29 36.5 29C35.1193 29 34 27.8807 34 26.5L34 25Z" fill="#B9E1C7" stroke="#4FB573" stroke-width="2" stroke-linecap="round" stroke-linejoin="round"/>
<path d="M14 26L18 26L18 28C18 29.1046 17.1046 30 16 30C14.8954 30 14 29.1046 14 28L14 26Z" fill="#B9E1C7" stroke="#4FB573" stroke-width="2" stroke-linecap="round" stroke-linejoin="round"/>
<path d="M10 25L14 25L14 27C14 28.1046 13.1046 29 12 29C10.8954 29 10 28.1046 10 27L10 25Z" fill="#B9E1C7" stroke="#4FB573" stroke-width="2" stroke-linecap="round" stroke-linejoin="round"/>
<path d="M36.5 5.50003C36.8333 5.00003 37.8 4.20003 39 5.00003C40.5 6.00003 41 8 42 11C42.8 13.4 43.6667 14 44 14" stroke="#4FB573" stroke-linecap="round"/>
<mask id="path-43-outside-1" maskUnits="userSpaceOnUse" x="41.6021" y="11.6022" width="6.18329" height="6.39762" fill="black">
<rect fill="white" x="41.6021" y="11.6022" width="6.18329" height="6.39762"/>
<path fill-rule="evenodd" clip-rule="evenodd" d="M44.7915 15.67C44.3628 15.6653 43.9415 15.466 43.6682 15.0938C43.395 14.7216 43.3311 14.2599 43.4551 13.8495C43.8838 13.8542 44.3051 14.0535 44.5783 14.4257C44.8516 14.7979 44.9154 15.2595 44.7915 15.67Z"/>
</mask>
<path fill-rule="evenodd" clip-rule="evenodd" d="M44.7915 15.67C44.3628 15.6653 43.9415 15.466 43.6682 15.0938C43.395 14.7216 43.3311 14.2599 43.4551 13.8495C43.8838 13.8542 44.3051 14.0535 44.5783 14.4257C44.8516 14.7979 44.9154 15.2595 44.7915 15.67Z" fill="#DCF0E3"/>
<path d="M44.7915 15.67L44.7805 16.6699C45.2255 16.6748 45.6201 16.3851 45.7488 15.9591L44.7915 15.67ZM43.4551 13.8495L43.466 12.8496C43.0211 12.8447 42.6264 13.1344 42.4978 13.5604L43.4551 13.8495ZM44.8025 14.67C44.6747 14.6686 44.5536 14.61 44.4743 14.502L42.8621 15.6856C43.3293 16.322 44.0509 16.6619 44.7805 16.6699L44.8025 14.67ZM44.4743 14.502C44.3951 14.3941 44.3754 14.2609 44.4124 14.1386L42.4978 13.5604C42.2868 14.2589 42.3949 15.0491 42.8621 15.6856L44.4743 14.502ZM43.4441 14.8495C43.5719 14.8509 43.693 14.9095 43.7722 15.0175L45.3844 13.8339C44.9172 13.1975 44.1957 12.8576 43.466 12.8496L43.4441 14.8495ZM43.7722 15.0175C43.8515 15.1254 43.8711 15.2585 43.8342 15.3809L45.7488 15.9591C45.9597 15.2606 45.8517 14.4703 45.3844 13.8339L43.7722 15.0175Z" fill="#4FB573" mask="url(#path-43-outside-1)"/>
</svg>
