<svg width="65" height="68" viewBox="0 0 65 68" fill="none" xmlns="http://www.w3.org/2000/svg">
<rect x="42.7344" y="1.5" width="3.7125" height="59.8098" stroke="#4FB573" stroke-width="3"/>
<rect x="1.5" y="1.5" width="3.7125" height="59.8098" stroke="#4FB573" stroke-width="3"/>
<rect x="6.71289" y="9.10986" width="34.5214" height="2.39732" fill="#4FB573"/>
<rect x="6.71289" y="23.0143" width="34.5214" height="2.39732" fill="#4FB573"/>
<rect x="6.71289" y="36.9188" width="34.5214" height="2.39732" fill="#4FB573"/>
<rect x="6.71289" y="50.8232" width="34.5214" height="2.39732" fill="#4FB573"/>
<circle cx="15.5823" cy="10.3085" r="3.55491" fill="#FFF3D6" stroke="#FFC432" stroke-width="2"/>
<circle cx="15.5823" cy="52.022" r="3.55491" fill="#FFF3D6" stroke="#FFC432" stroke-width="2"/>
<circle cx="20.8567" cy="24.213" r="3.55491" fill="#FFF3D6" stroke="#FFC432" stroke-width="2"/>
<circle cx="31.884" cy="24.213" r="3.55491" fill="#FFF3D6" stroke="#FFC432" stroke-width="2"/>
<circle cx="22.2951" cy="38.1174" r="3.55491" fill="#FFF3D6" stroke="#FFC432" stroke-width="2"/>
<circle cx="35.72" cy="38.1174" r="3.55491" fill="white" stroke="#4FB573" stroke-width="2"/>
<circle cx="12.2268" cy="38.1174" r="3.55491" fill="#FFF3D6" stroke="#FFC432" stroke-width="2"/>
<rect x="33.1445" y="30.7473" width="29.6036" height="35.3572" rx="6.5" fill="white" stroke="#4FB573" stroke-width="3"/>
<rect x="37.9189" y="36.9598" width="20.0554" height="5.19197" rx="2.59598" fill="#DCF0E3" stroke="#4FB573" stroke-width="2"/>
<rect x="36.9189" y="46.0286" width="6.23304" height="2.39732" rx="1.19866" fill="#4FB573"/>
<rect x="36.9189" y="50.3438" width="6.23304" height="2.39732" rx="1.19866" fill="#4FB573"/>
<rect x="36.9189" y="54.6589" width="6.23304" height="2.39732" rx="1.19866" fill="#4FB573"/>
<rect x="36.9189" y="58.9741" width="6.23304" height="2.39732" rx="1.19866" fill="#4FB573"/>
<rect x="45.0693" y="46.0286" width="6.23304" height="2.39732" rx="1.19866" fill="#4FB573"/>
<rect x="45.0693" y="50.3438" width="6.23304" height="2.39732" rx="1.19866" fill="#4FB573"/>
<rect x="45.0693" y="54.6589" width="6.23304" height="2.39732" rx="1.19866" fill="#4FB573"/>
<rect x="45.0693" y="58.9741" width="6.23304" height="2.39732" rx="1.19866" fill="#4FB573"/>
<rect x="52.7412" y="46.0286" width="6.23304" height="2.39732" rx="1.19866" fill="#4FB573"/>
<rect x="52.7412" y="50.3438" width="6.23304" height="2.39732" rx="1.19866" fill="#4FB573"/>
<rect x="52.7412" y="54.6589" width="6.23304" height="2.39732" rx="1.19866" fill="#4FB573"/>
<rect x="52.7412" y="58.9741" width="6.23304" height="2.39732" rx="1.19866" fill="#4FB573"/>
</svg>
