<svg width="68" height="75" viewBox="0 0 68 75" fill="none" xmlns="http://www.w3.org/2000/svg">
<path d="M31.5857 2.71344C32.0038 2.33305 32.4979 2.14285 33.0299 2.14285C33.562 2.14285 34.056 2.33305 34.5881 2.71344C41.1629 8.76162 49.562 12.3753 58.7211 12.3753C59.4087 12.3753 60.0619 12.3408 60.7462 12.3047L60.8494 12.2992H60.9634C62.0655 12.2992 63.0536 13.1741 63.2437 14.4294C63.7377 17.4725 64.0038 20.6298 64.0038 23.8631C64.0038 46.2299 51.4622 65.2874 33.866 72.667C33.6 72.7811 33.334 72.8191 33.0679 72.8191C32.8019 72.8191 32.5359 72.7811 32.2698 72.667C14.6736 65.2874 2.13208 46.2299 2.13208 23.8631C2.13208 20.6298 2.39811 17.4725 2.89217 14.4294C3.0822 13.2122 4.07032 12.2992 5.17246 12.2992H5.28647C6.00856 12.3373 6.69265 12.3753 7.41474 12.3753C16.5739 12.3753 24.9729 8.76162 31.5857 2.71344Z" fill="white" stroke="#4FB573" stroke-width="3"/>
<path d="M57.0182 18.7807L57.0181 18.7807L57.0199 18.7914C57.4199 21.2302 57.6353 23.7606 57.6353 26.3521C57.6353 44.2948 47.4729 59.508 33.3257 65.3804L33.3257 65.3804L33.3183 65.3836C33.252 65.4117 33.1719 65.4286 33.049 65.4286C32.9261 65.4286 32.846 65.4117 32.7797 65.3836L32.7797 65.3835L32.7723 65.3804C18.6251 59.508 8.46265 44.2948 8.46265 26.3521C8.46265 23.7606 8.67808 21.2302 9.07812 18.7914L9.07813 18.7914L9.07909 18.7853C9.17003 18.2087 9.62203 17.8857 9.97728 17.8857H10.0455C10.0675 17.8868 10.0896 17.888 10.1117 17.8891C10.672 17.9185 11.2362 17.948 11.8318 17.948C19.6765 17.948 26.857 14.8827 32.4931 9.78089C32.6592 9.6316 32.8306 9.57144 33.0176 9.57144C33.1852 9.57144 33.3838 9.62009 33.6822 9.82262C39.2813 14.9004 46.4443 17.948 54.2662 17.948C54.8611 17.948 55.4234 17.9186 55.982 17.8894L55.9932 17.8888L55.9933 17.8888L56.0525 17.8857H56.1207C56.4886 17.8857 56.9279 18.1904 57.0182 18.7807Z" fill="#DCF0E3" stroke="#4FB573" stroke-width="2"/>
<path d="M33.0679 48.3601C40.1204 48.3601 45.8375 42.6378 45.8375 35.579C45.8375 28.5203 40.1204 22.798 33.0679 22.798C26.0155 22.798 20.2983 28.5203 20.2983 35.579C20.2983 42.6378 26.0155 48.3601 33.0679 48.3601Z" fill="white" stroke="#FFC432" stroke-width="2" stroke-miterlimit="10"/>
<path d="M26.4932 37.9374L30.1796 41.6272L39.6048 32.1555" stroke="#FFC432" stroke-width="2" stroke-miterlimit="10" stroke-linecap="round" stroke-linejoin="round"/>
</svg>
