<?xml version="1.0" encoding="utf-8"?>
<!-- Generator: Adobe Illustrator 25.3.1, SVG Export Plug-In . SVG Version: 6.00 Build 0)  -->
<svg version="1.1" id="Layer_1" xmlns="http://www.w3.org/2000/svg" xmlns:xlink="http://www.w3.org/1999/xlink" x="0px" y="0px"
	 viewBox="0 0 71 67.1" style="enable-background:new 0 0 71 67.1;" xml:space="preserve">
<style type="text/css">
	.st0{fill:#DCF0E3;stroke:#4FB573;stroke-width:3;stroke-linecap:round;stroke-linejoin:round;}
	.st1{fill:none;stroke:#4FB573;stroke-width:3;stroke-linecap:round;stroke-linejoin:round;}
	.st2{fill:none;stroke:#4FB573;stroke-width:3;stroke-linecap:round;}
	.st3{fill:none;stroke:#FFC432;stroke-width:2;}
	.st4{fill:#4FB573;}
	.st5{fill:none;stroke:#4FB573;stroke-width:2;}
	.st6{fill:none;stroke:#4FB573;stroke-width:2;stroke-linecap:round;}
</style>
<path class="st0" d="M31.6,58.9c-15.9,9.8-22.2-8.4-22.2-8.4C19.6,43.6,29.9,47.6,31.6,58.9z"/>
<path class="st1" d="M9.8,50.4c6.5,0.8,20.6,4.3,24.7,12"/>
<path class="st1" d="M15.3,58.7l7.6-4.8"/>
<path class="st1" d="M12.1,55.4l5.4-3.3"/>
<path class="st1" d="M19.4,61.1l7.6-4.8"/>
<path class="st0" d="M38.5,56.9c15.9,9.8,22.2-8.4,22.2-8.4C50.5,41.6,40.1,45.6,38.5,56.9z"/>
<path class="st1" d="M60.3,48.4c-6.5,0.8-20.6,4.3-24.7,12"/>
<path class="st1" d="M54.8,56.7l-7.6-4.8"/>
<path class="st1" d="M58,53.4l-5.4-3.3"/>
<path class="st1" d="M50.6,59.1L43,54.3"/>
<line class="st2" x1="34.5" y1="65.5" x2="34.5" y2="46.5"/>
<path class="st3" d="M28,30.5c3.3-1.2,10.5-3.5,10.5-11c0-7-7.5-7-7.5,0c0,7,6.5,10,10.5,11"/>
<path class="st4" d="M24.7,23.6l-1.1,1L24.7,23.6z M44.3,23.6l-1.1-1L44.3,23.6z M46,15c0,2.9-1.1,5.6-2.9,7.6l2.3,2
	C47.6,22,49,18.7,49,15H46z M34.5,3.5C40.9,3.5,46,8.6,46,15h3c0-8-6.5-14.5-14.5-14.5V3.5z M23,15c0-6.4,5.1-11.5,11.5-11.5v-3
	C26.5,0.5,20,7,20,15H23z M25.9,22.6c-1.8-2-2.9-4.7-2.9-7.6h-3c0,3.7,1.4,7,3.6,9.6L25.9,22.6z M28,34v-6.3h-3V34H28z M37.5,37.5
	h-6v3h6V37.5z M41,27.7V34h3v-6.3H41z M25,34c0,3.6,2.9,6.5,6.5,6.5v-3c-1.9,0-3.5-1.6-3.5-3.5H25z M23.6,24.6
	c0.9,1,1.4,2.1,1.4,3.1h3c0-2-1-3.8-2.1-5.1L23.6,24.6z M37.5,40.5c3.6,0,6.5-2.9,6.5-6.5h-3c0,1.9-1.6,3.5-3.5,3.5V40.5z
	 M43.1,22.6C42,23.9,41,25.6,41,27.7h3c0-1,0.5-2.1,1.4-3.1L43.1,22.6z"/>
<line class="st5" x1="26.5" y1="31" x2="41.5" y2="31"/>
<path class="st1" d="M32.5,39h4c1.1,0,2,0.9,2,2v2c0,1.1-0.9,2-2,2h-4c-1.1,0-2-0.9-2-2v-2C30.5,39.9,31.4,39,32.5,39z"/>
<path class="st6" d="M33.5,35h9"/>
</svg>
