<svg width="59" height="79" viewBox="0 0 59 79" fill="none" xmlns="http://www.w3.org/2000/svg">
<path fill-rule="evenodd" clip-rule="evenodd" d="M36.581 55.687C24.1482 59.0974 10.6683 53.2649 4.86769 41.2375C-1.66766 27.6866 4.01953 11.4035 17.5704 4.86818C31.1212 -1.66717 47.4043 4.02002 53.9397 17.5709C59.8655 29.8579 55.7423 44.3912 44.8198 51.8673L53.7996 70.4867C54.8888 72.7451 53.9409 75.459 51.6825 76.5482C49.424 77.6374 46.7101 76.6896 45.6209 74.4311L36.581 55.687Z" fill="white"/>
<path d="M4.86769 41.2375L3.51662 41.8891H3.51662L4.86769 41.2375ZM36.581 55.687L37.932 55.0354C37.6176 54.3834 36.8823 54.049 36.1842 54.2405L36.581 55.687ZM17.5704 4.86818L16.9188 3.5171H16.9188L17.5704 4.86818ZM53.9397 17.5709L55.2907 16.9193L53.9397 17.5709ZM44.8198 51.8673L43.9725 50.6295C43.3607 51.0482 43.1466 51.8511 43.4687 52.5189L44.8198 51.8673ZM53.7996 70.4867L55.1506 69.8351L53.7996 70.4867ZM51.6825 76.5482L52.3341 77.8993L51.6825 76.5482ZM45.6209 74.4311L46.972 73.7795L45.6209 74.4311ZM3.51662 41.8891C9.63737 54.5803 23.8595 60.732 36.9778 57.1336L36.1842 54.2405C24.4369 57.4628 11.6993 51.9496 6.21877 40.5859L3.51662 41.8891ZM16.9188 3.5171C2.62174 10.4123 -3.3786 27.592 3.51662 41.8891L6.21877 40.5859C0.043293 27.7812 5.41731 12.3947 18.222 6.21926L16.9188 3.5171ZM55.2907 16.9193C48.3955 2.62223 31.2158 -3.37812 16.9188 3.5171L18.222 6.21926C31.0266 0.0437813 46.4131 5.4178 52.5886 18.2225L55.2907 16.9193ZM45.667 53.1051C57.1921 45.2166 61.5434 29.8841 55.2907 16.9193L52.5886 18.2225C58.1875 29.8317 54.2926 43.5658 43.9725 50.6295L45.667 53.1051ZM55.1506 69.8351L46.1708 51.2157L43.4687 52.5189L52.4485 71.1383L55.1506 69.8351ZM52.3341 77.8993C55.3387 76.4502 56.5997 72.8397 55.1506 69.8351L52.4485 71.1383C53.1778 72.6506 52.5431 74.4678 51.0308 75.1971L52.3341 77.8993ZM44.2698 75.0827C45.7189 78.0874 49.3294 79.3484 52.3341 77.8993L51.0309 75.1971C49.5186 75.9265 47.7013 75.2918 46.972 73.7795L44.2698 75.0827ZM35.2299 56.3386L44.2698 75.0827L46.972 73.7795L37.932 55.0354L35.2299 56.3386Z" fill="#4FB573"/>
<circle r="20.5254" transform="matrix(-0.900719 0.434402 0.434402 0.900719 29.4038 29.4039)" stroke="#F3B541" stroke-width="2" stroke-linecap="round" stroke-linejoin="round"/>
<path d="M22.714 38.4953C15.8426 18.5928 37.4242 16.1966 37.4242 16.1966C42.4339 29.1096 35.5597 39.5125 22.714 38.4953Z" stroke="#4FB573" stroke-width="3" stroke-linecap="round" stroke-linejoin="round"/>
<path d="M37.4332 16.7009C34.9766 23.675 27.6972 38.2667 18.2321 40.841" stroke="#4FB573" stroke-width="3" stroke-linecap="round" stroke-linejoin="round"/>
<path d="M26.9316 20.7008L30.3558 30.2435" stroke="#4FB573" stroke-width="3" stroke-linecap="round" stroke-linejoin="round"/>
<path d="M31.3003 17.976L33.571 24.7436" stroke="#4FB573" stroke-width="3" stroke-linecap="round" stroke-linejoin="round"/>
<path d="M23.2986 24.6323L26.7228 34.175" stroke="#4FB573" stroke-width="3" stroke-linecap="round" stroke-linejoin="round"/>
</svg>
