<svg width="83" height="62" viewBox="0 0 83 62" fill="none" xmlns="http://www.w3.org/2000/svg">
<path fill-rule="evenodd" clip-rule="evenodd" d="M29.0795 32.6609C28.842 32.5942 28.8182 32.2446 29.0428 32.1426C33.4156 30.1559 36.4565 25.7501 36.4565 20.6341C36.4565 13.6565 30.8 8 23.8224 8C16.8448 8 11.1884 13.6565 11.1884 20.6341C11.1884 25.7171 14.1901 30.099 18.5176 32.1038C18.7414 32.2075 18.715 32.5569 18.4771 32.6218C9.26704 35.1327 2.37553 44.1236 2.01485 54.9522C2.01472 54.9562 2.01143 54.9594 2.00743 54.9594C2.00333 54.9594 2 54.9627 2 54.9668V55.833L2 55.8454L2 55.8486V59.2756C2 59.8279 2.44772 60.2756 3 60.2756H44.4153C44.9676 60.2756 45.4153 59.8279 45.4153 59.2756L45.4153 55.8454L45.4153 54.9668C45.4153 54.9627 45.412 54.9594 45.4079 54.9594C45.4039 54.9594 45.4006 54.9562 45.4004 54.9522C45.0416 44.179 38.2186 35.2248 29.0795 32.6609Z" fill="#DCF0E3"/>
<path d="M2 55.833L3.5 55.8334V55.833H2ZM2 55.8454L0.499999 55.8451L0.500001 55.8468L2 55.8454ZM2 55.8486H3.5L3.5 55.8473L2 55.8486ZM45.4153 59.2756H46.9153H45.4153ZM45.4153 55.8454L43.9153 55.8454V55.8454H45.4153ZM18.5176 32.1038L17.8871 33.4649L18.5176 32.1038ZM18.4771 32.6218L18.8716 34.069L18.4771 32.6218ZM45.4153 54.9668L46.9153 54.9668L45.4153 54.9668ZM45.4004 54.9522L43.9013 55.0021L45.4004 54.9522ZM2.01485 54.9522L3.51402 55.0021L2.01485 54.9522ZM29.0428 32.1426L28.4223 30.777L29.0428 32.1426ZM34.9565 20.6341C34.9565 25.1404 32.2793 29.0246 28.4223 30.777L29.6632 33.5083C34.552 31.2872 37.9565 26.3598 37.9565 20.6341H34.9565ZM23.8224 9.5C29.9716 9.5 34.9565 14.4849 34.9565 20.6341H37.9565C37.9565 12.828 31.6285 6.5 23.8224 6.5V9.5ZM12.6884 20.6341C12.6884 14.4849 17.6733 9.5 23.8224 9.5V6.5C16.0164 6.5 9.68836 12.828 9.68836 20.6341H12.6884ZM19.1481 30.7428C15.331 28.9744 12.6884 25.1113 12.6884 20.6341H9.68836C9.68836 26.3228 13.0491 31.2236 17.8871 33.4649L19.1481 30.7428ZM3.51402 55.0021C3.85518 44.7596 10.3629 36.3887 18.8716 34.069L18.0825 31.1746C8.1712 33.8767 0.895883 43.4876 0.515683 54.9023L3.51402 55.0021ZM3.5 55.833V54.9668H0.500003V55.833H3.5ZM3.5 55.8458L3.5 55.8334L0.500003 55.8327L0.5 55.8451L3.5 55.8458ZM3.5 55.8473L3.5 55.8441L0.500001 55.8468L0.500003 55.85L3.5 55.8473ZM3.5 59.2756V55.8486H0.500003V59.2756H3.5ZM3 58.7756C3.27614 58.7756 3.5 58.9994 3.5 59.2756H0.500003C0.500003 60.6563 1.61929 61.7756 3 61.7756V58.7756ZM44.4153 58.7756H3V61.7756H44.4153V58.7756ZM43.9153 59.2756C43.9153 58.9994 44.1391 58.7756 44.4153 58.7756V61.7756C45.796 61.7756 46.9153 60.6563 46.9153 59.2756H43.9153ZM43.9153 55.8454L43.9153 59.2756H46.9153L46.9153 55.8454H43.9153ZM43.9153 54.9668L43.9153 55.8454L46.9153 55.8454L46.9153 54.9668L43.9153 54.9668ZM28.6743 34.1051C37.1189 36.4742 43.5619 44.8124 43.9013 55.0021L46.8996 54.9023C46.5213 43.5456 39.3184 33.9754 29.4846 31.2166L28.6743 34.1051ZM17.8871 33.4649C17.3277 33.2057 17.1444 32.6568 17.1749 32.262C17.2055 31.865 17.4759 31.34 18.0825 31.1746L18.8716 34.069C19.7161 33.8387 20.1186 33.1066 20.166 32.4928C20.2132 31.8811 19.9313 31.1056 19.1481 30.7428L17.8871 33.4649ZM46.9153 54.9668C46.9153 54.1343 46.2404 53.4594 45.4079 53.4594V56.4594C44.5835 56.4594 43.9153 55.7912 43.9153 54.9668L46.9153 54.9668ZM45.4079 53.4594C46.222 53.4594 46.8731 54.1069 46.8996 54.9023L43.9013 55.0021C43.928 55.8055 44.5857 56.4594 45.4079 56.4594V53.4594ZM0.515683 54.9023C0.542177 54.1068 1.19335 53.4594 2.00743 53.4594V56.4594C2.82952 56.4594 3.48726 55.8055 3.51402 55.0021L0.515683 54.9023ZM2.00743 53.4594C1.1749 53.4594 0.500003 54.1343 0.500003 54.9668H3.5C3.5 55.7912 2.83175 56.4594 2.00743 56.4594V53.4594ZM28.4223 30.777C27.6366 31.1339 27.3489 31.9073 27.3915 32.5193C27.4343 33.1334 27.8314 33.8686 28.6743 34.1051L29.4846 31.2166C30.0901 31.3865 30.3566 31.9135 30.3842 32.3107C30.4118 32.7057 30.2244 33.2533 29.6632 33.5083L28.4223 30.777Z" fill="#4FB573"/>
<rect x="50" y="11" width="3" height="18" rx="0.25" transform="rotate(-90 50 11)" fill="#FFC432"/>
<rect x="58" y="30" width="3" height="21" rx="0.25" transform="rotate(-90 58 30)" fill="#FFC432"/>
<rect x="37.25" y="32.5" width="3" height="2" rx="0.25" transform="rotate(-90 37.25 32.5)" fill="#FFC432"/>
<rect x="47" y="32.5" width="3" height="2" rx="0.25" transform="rotate(-90 47 32.5)" fill="#FFC432"/>
<rect x="60.002" y="2.12134" width="3" height="13.3798" rx="0.25" transform="rotate(-45 60.002 2.12134)" fill="#FFC432"/>
<rect x="71.002" y="21.1213" width="3" height="13.3798" rx="0.25" transform="rotate(-45 71.002 21.1213)" fill="#FFC432"/>
<mask id="path-9-inside-1" fill="white">
<rect x="63.002" y="43.1213" width="3" height="13.3798" rx="0.25" transform="rotate(-45 63.002 43.1213)"/>
</mask>
<rect x="63.002" y="43.1213" width="3" height="13.3798" rx="0.25" transform="rotate(-45 63.002 43.1213)" fill="#FFC432" stroke="#FFC432" stroke-width="2" mask="url(#path-9-inside-1)"/>
<rect x="62.1172" y="18.9124" width="2.99415" height="13.3908" rx="0.25" transform="rotate(-135 62.1172 18.9124)" fill="#FFC432"/>
<rect x="73.1172" y="37.9124" width="2.99415" height="13.3908" rx="0.25" transform="rotate(-135 73.1172 37.9124)" fill="#FFC432"/>
<mask id="path-12-inside-2" fill="white">
<rect x="65.1172" y="59.9124" width="2.99415" height="13.3908" rx="0.25" transform="rotate(-135 65.1172 59.9124)"/>
</mask>
<rect x="65.1172" y="59.9124" width="2.99415" height="13.3908" rx="0.25" transform="rotate(-135 65.1172 59.9124)" fill="#FFC432" stroke="#FFC432" stroke-width="2" mask="url(#path-12-inside-2)"/>
<path d="M57 9.5L49.4052 9.5C46.6438 9.5 44.4052 11.7386 44.4052 14.5L44.4052 26C44.4052 28.7614 42.1667 31 39.4052 31L38 31" stroke="#FFC432" stroke-width="3"/>
<path d="M71 51L60 51C57.2386 51 55 48.7614 55 46L55 36C55 33.2386 52.7614 31 50 31L48 31" stroke="#FFC432" stroke-width="3"/>
</svg>
