<svg width="63" height="94" viewBox="0 0 63 94" fill="none" xmlns="http://www.w3.org/2000/svg">
<path d="M47.7325 38.4571C47.7325 38.4571 52.0074 37.223 55.2136 33.9835C57.0634 32.1145 60.2206 27.3429 60.3149 24.6145C60.3408 23.8651 60.071 23.1568 59.5648 22.6454C59.0587 22.134 58.3577 21.8614 57.616 21.8876C56.8743 21.9138 56.2823 22.1055 55.3663 23.0311C54.4502 23.9566 54.1449 27.3504 51.3967 30.127C48.6485 32.9037 44.9973 33.5076 44.9973 33.5076C45.5233 33.8324 45.9907 34.241 46.3831 34.7188C47.253 35.7431 47.7291 37.0619 47.7325 38.4571Z" fill="white" stroke="#4FB573" stroke-width="3" stroke-linecap="round" stroke-linejoin="round"/>
<path fill-rule="evenodd" clip-rule="evenodd" d="M58.4132 29.6374C59.45 27.8651 60.2676 25.9829 60.3149 24.6145C60.3408 23.8651 60.071 23.1568 59.5648 22.6454C59.0587 22.134 58.3577 21.8614 57.616 21.8876C56.8743 21.9137 56.2823 22.1055 55.3663 23.0311C55.031 23.3699 54.7775 24.0393 54.4561 24.8881C54.2878 25.3325 54.101 25.8259 53.8741 26.3469L58.4132 29.6374Z" fill="#7BC796"/>
<path d="M58.4132 29.6374L57.5328 30.8518C57.8756 31.1003 58.3074 31.1924 58.7216 31.1053C59.1359 31.0182 59.4942 30.7602 59.7079 30.3948L58.4132 29.6374ZM60.3149 24.6145L58.8158 24.5627V24.5627L60.3149 24.6145ZM59.5648 22.6454L60.631 21.5903V21.5903L59.5648 22.6454ZM57.616 21.8876L57.5631 20.3885L57.616 21.8876ZM55.3663 23.0311L56.4324 24.0862L55.3663 23.0311ZM54.4561 24.8881L55.8589 25.4193L54.4561 24.8881ZM53.8741 26.3469L52.4989 25.7478C52.2176 26.3935 52.4234 27.1479 52.9937 27.5613L53.8741 26.3469ZM59.7079 30.3948C60.7554 28.6043 61.7527 26.4396 61.814 24.6663L58.8158 24.5627C58.7825 25.5261 58.1446 27.1259 57.1185 28.8799L59.7079 30.3948ZM61.814 24.6663C61.8535 23.5236 61.4412 22.4089 60.631 21.5903L58.4987 23.7006C58.7008 23.9047 58.8281 24.2066 58.8158 24.5627L61.814 24.6663ZM60.631 21.5903C59.8198 20.7707 58.7085 20.3481 57.5631 20.3885L57.6688 23.3867C58.0068 23.3747 58.2976 23.4974 58.4987 23.7006L60.631 21.5903ZM57.5631 20.3885C57.0617 20.4062 56.5129 20.4852 55.9186 20.7645C55.3477 21.0327 54.8291 21.4415 54.3001 21.9759L56.4324 24.0862C56.8195 23.6951 57.0549 23.5452 57.1944 23.4797C57.3106 23.4251 57.4285 23.3951 57.6688 23.3867L57.5631 20.3885ZM54.3001 21.9759C53.9431 22.3367 53.7078 22.7841 53.5435 23.1408C53.3716 23.5141 53.2083 23.9476 53.0533 24.357L55.8589 25.4193C56.0253 24.9798 56.1494 24.6542 56.2684 24.3958C56.395 24.121 56.4542 24.0643 56.4324 24.0862L54.3001 21.9759ZM53.0533 24.357C52.8839 24.8042 52.7091 25.2651 52.4989 25.7478L55.2492 26.9459C55.4928 26.3868 55.6918 25.8607 55.8589 25.4193L53.0533 24.357ZM52.9937 27.5613L57.5328 30.8518L59.2936 28.4229L54.7544 25.1324L52.9937 27.5613Z" fill="#4FB573"/>
<path d="M15.2676 38.4571C15.2676 38.4571 10.9927 37.223 7.78652 33.9835C5.9367 32.1145 2.77946 27.3429 2.68521 24.6145C2.65932 23.8651 2.92911 23.1568 3.43526 22.6454C3.94142 22.134 4.64244 21.8614 5.38414 21.8876C6.12583 21.9138 6.71779 22.1055 7.63385 23.0311C8.5499 23.9566 8.85525 27.3504 11.6034 30.127C14.3516 32.9037 18.0028 33.5076 18.0028 33.5076C17.4769 33.8324 17.0094 34.241 16.617 34.7188C15.7471 35.7431 15.271 37.0619 15.2676 38.4571Z" fill="white" stroke="#4FB573" stroke-width="3" stroke-linecap="round" stroke-linejoin="round"/>
<path fill-rule="evenodd" clip-rule="evenodd" d="M4.58692 29.6374C3.55014 27.8651 2.73248 25.9829 2.68521 24.6145C2.65932 23.8651 2.92911 23.1568 3.43527 22.6454C3.94142 22.134 4.64244 21.8614 5.38414 21.8876C6.12583 21.9137 6.7178 22.1055 7.63385 23.0311C7.96915 23.3699 8.22263 24.0393 8.54403 24.8881C8.71227 25.3325 8.89912 25.8259 9.12606 26.3469L4.58692 29.6374Z" fill="#7BC796"/>
<path d="M4.58692 29.6374L5.4673 30.8518C5.12455 31.1003 4.69276 31.1924 4.27846 31.1053C3.86417 31.0182 3.50595 30.7602 3.29219 30.3948L4.58692 29.6374ZM2.68521 24.6145L4.18431 24.5627V24.5627L2.68521 24.6145ZM3.43527 22.6454L2.36914 21.5903V21.5903L3.43527 22.6454ZM5.38414 21.8876L5.437 20.3885L5.38414 21.8876ZM7.63385 23.0311L6.56773 24.0862H6.56773L7.63385 23.0311ZM8.54403 24.8881L7.14122 25.4193L8.54403 24.8881ZM9.12606 26.3469L10.5012 25.7478C10.7825 26.3935 10.5767 27.1479 10.0064 27.5613L9.12606 26.3469ZM3.29219 30.3948C2.24475 28.6043 1.24736 26.4396 1.1861 24.6663L4.18431 24.5627C4.21759 25.5261 4.85553 27.1259 5.88165 28.8799L3.29219 30.3948ZM1.1861 24.6663C1.14663 23.5236 1.55888 22.4089 2.36914 21.5903L4.50139 23.7006C4.29935 23.9047 4.17201 24.2066 4.18431 24.5627L1.1861 24.6663ZM2.36914 21.5903C3.1803 20.7707 4.29163 20.3481 5.437 20.3885L5.33127 23.3867C4.99326 23.3747 4.70253 23.4974 4.50139 23.7006L2.36914 21.5903ZM5.437 20.3885C5.93836 20.4062 6.48726 20.4852 7.08152 20.7645C7.65239 21.0327 8.17103 21.4415 8.69997 21.9759L6.56773 24.0862C6.18062 23.6951 5.94525 23.5452 5.80569 23.4797C5.68954 23.4251 5.57161 23.3951 5.33127 23.3867L5.437 20.3885ZM8.69997 21.9759C9.05704 22.3367 9.29228 22.7841 9.45659 23.1408C9.62849 23.5141 9.79184 23.9476 9.94684 24.357L7.14122 25.4193C6.97482 24.9798 6.85073 24.6542 6.73172 24.3958C6.60511 24.121 6.54596 24.0643 6.56773 24.0862L8.69997 21.9759ZM9.94684 24.357C10.1162 24.8042 10.291 25.2651 10.5012 25.7478L7.75088 26.9459C7.50728 26.3868 7.30836 25.8607 7.14122 25.4193L9.94684 24.357ZM10.0064 27.5613L5.4673 30.8518L3.70653 28.4229L8.24567 25.1324L10.0064 27.5613Z" fill="#4FB573"/>
<path d="M36.6176 68C36.6176 68 34.0569 72.8397 34.0569 78.486C34.0569 81.7436 35.3696 88.682 37.5551 91.1428C38.1554 91.8187 38.9695 92.1984 39.8184 92.1984C40.6674 92.1984 41.4815 91.8187 42.0818 91.1428C42.682 90.4669 43.0193 89.7785 43.0193 88.1653C43.0193 86.5521 40.4586 83.3256 40.4586 78.486C40.4586 73.6463 43.0193 69.905 43.0193 69.905C42.3086 70.085 41.5776 70.1406 40.8519 70.0697C39.2722 69.9431 37.7784 69.2129 36.6176 68Z" fill="white" stroke="#4FB573" stroke-width="3" stroke-linecap="round" stroke-linejoin="round"/>
<path d="M21.3816 68C21.3816 68 18.821 72.8397 18.821 78.486C18.821 81.7436 20.1337 88.682 22.3192 91.1428C22.9194 91.8187 23.7336 92.1984 24.5825 92.1984C25.4314 92.1984 26.2455 91.8187 26.8458 91.1428C27.4461 90.4669 27.7833 89.7785 27.7833 88.1653C27.7833 86.5521 25.2227 83.3256 25.2227 78.486C25.2227 73.6463 27.7833 69.905 27.7833 69.905C27.0727 70.085 26.3416 70.1406 25.6159 70.0697C24.0363 69.9431 22.5424 69.2129 21.3816 68Z" fill="white" stroke="#4FB573" stroke-width="3" stroke-linecap="round" stroke-linejoin="round"/>
<path d="M51 49C51 62.8071 44.2423 74 32 74C19.7577 74 13 62.8071 13 49C13 35.1929 19.7577 24 32 24C44.2423 24 51 35.1929 51 49Z" fill="white" stroke="#4FB573" stroke-width="3" stroke-linecap="round" stroke-linejoin="round"/>
<path fill-rule="evenodd" clip-rule="evenodd" d="M35.1475 85.7416C35.7398 87.9581 36.5563 90.0181 37.5552 91.1428C38.1555 91.8187 38.9696 92.1984 39.8185 92.1984C40.6674 92.1984 41.4815 91.8187 42.0818 91.1428C42.6821 90.4669 43.0193 89.7785 43.0193 88.1653C43.0193 87.5748 42.6763 86.7682 42.2413 85.7455C42.0784 85.3624 41.9026 84.9491 41.7271 84.5054L35.1475 85.7416Z" fill="#7BC796"/>
<path d="M35.1475 85.7416L34.8705 84.2674C34.4603 84.3445 34.1007 84.5891 33.8782 84.9423C33.6558 85.2956 33.5906 85.7255 33.6984 86.1288L35.1475 85.7416ZM37.5552 91.1428L38.6767 90.1467L37.5552 91.1428ZM42.0818 91.1428L43.2034 92.1389L43.2034 92.1389L42.0818 91.1428ZM42.2413 85.7455L43.6216 85.1584V85.1584L42.2413 85.7455ZM41.7271 84.5054L43.1219 83.9536C42.8575 83.2853 42.1564 82.8985 41.4501 83.0312L41.7271 84.5054ZM33.6984 86.1288C34.2972 88.3701 35.1839 90.7317 36.4337 92.1389L38.6767 90.1467C37.9287 89.3045 37.1823 87.5461 36.5967 85.3544L33.6984 86.1288ZM36.4337 92.1389C37.2977 93.1117 38.5104 93.6984 39.8185 93.6984V90.6984C39.4287 90.6984 39.0132 90.5256 38.6767 90.1467L36.4337 92.1389ZM39.8185 93.6984C41.1266 93.6984 42.3393 93.1117 43.2034 92.1389L40.9603 90.1467C40.6238 90.5256 40.2083 90.6984 39.8185 90.6984V93.6984ZM43.2034 92.1389C43.5898 91.7037 43.9499 91.1958 44.1925 90.4982C44.4264 89.8255 44.5193 89.0677 44.5193 88.1653H41.5193C41.5193 88.8762 41.4437 89.2691 41.3589 89.5129C41.2828 89.7318 41.1741 89.906 40.9603 90.1467L43.2034 92.1389ZM44.5193 88.1653C44.5193 87.6129 44.3653 87.0711 44.2103 86.6251C44.05 86.1638 43.833 85.6554 43.6216 85.1584L40.8609 86.3325C41.0845 86.8582 41.2566 87.2645 41.3765 87.6098C41.5018 87.9704 41.5193 88.1272 41.5193 88.1653H44.5193ZM43.6216 85.1584C43.4579 84.7735 43.2894 84.377 43.1219 83.9536L40.3322 85.0571C40.5158 85.5211 40.6988 85.9513 40.8609 86.3325L43.6216 85.1584ZM41.4501 83.0312L34.8705 84.2674L35.4245 87.2158L42.004 85.9796L41.4501 83.0312Z" fill="#4FB573"/>
<path fill-rule="evenodd" clip-rule="evenodd" d="M19.9115 85.7416C20.5037 87.9581 21.3203 90.0181 22.3192 91.1428C22.9194 91.8187 23.7336 92.1984 24.5825 92.1984C25.4314 92.1984 26.2455 91.8187 26.8458 91.1428C27.4461 90.4669 27.7833 89.7785 27.7833 88.1653C27.7833 87.5748 27.4403 86.7682 27.0053 85.7455C26.8423 85.3624 26.6665 84.9491 26.491 84.5054L19.9115 85.7416Z" fill="#7BC796"/>
<path d="M19.9115 85.7416L19.6345 84.2674C19.2242 84.3445 18.8646 84.5891 18.6422 84.9423C18.4198 85.2956 18.3546 85.7255 18.4623 86.1288L19.9115 85.7416ZM22.3192 91.1428L23.4407 90.1467L22.3192 91.1428ZM26.8458 91.1428L27.9673 92.1389L27.9673 92.1389L26.8458 91.1428ZM27.0053 85.7455L28.3856 85.1584V85.1584L27.0053 85.7455ZM26.491 84.5054L27.8859 83.9536C27.6215 83.2853 26.9203 82.8985 26.214 83.0312L26.491 84.5054ZM18.4623 86.1288C19.0612 88.3701 19.9479 90.7317 21.1976 92.1389L23.4407 90.1467C22.6927 89.3045 21.9463 87.5461 21.3607 85.3544L18.4623 86.1288ZM21.1976 92.1389C22.0617 93.1117 23.2744 93.6984 24.5825 93.6984V90.6984C24.1927 90.6984 23.7772 90.5256 23.4407 90.1467L21.1976 92.1389ZM24.5825 93.6984C25.8905 93.6984 27.1033 93.1117 27.9673 92.1389L25.7243 90.1467C25.3878 90.5256 24.9723 90.6984 24.5825 90.6984V93.6984ZM27.9673 92.1389C28.3538 91.7037 28.7139 91.1958 28.9564 90.4982C29.1904 89.8255 29.2833 89.0677 29.2833 88.1653H26.2833C26.2833 88.8762 26.2076 89.2691 26.1229 89.5129C26.0468 89.7318 25.9381 89.906 25.7243 90.1467L27.9673 92.1389ZM29.2833 88.1653C29.2833 87.6129 29.1293 87.0711 28.9743 86.6251C28.814 86.1638 28.597 85.6554 28.3856 85.1584L25.6249 86.3325C25.8485 86.8582 26.0205 87.2645 26.1405 87.6098C26.2658 87.9704 26.2833 88.1272 26.2833 88.1653H29.2833ZM28.3856 85.1584C28.2219 84.7735 28.0533 84.377 27.8859 83.9536L25.0962 85.0571C25.2797 85.5211 25.4628 85.9513 25.6249 86.3325L28.3856 85.1584ZM26.214 83.0312L19.6345 84.2674L20.1885 87.2158L26.768 85.9796L26.214 83.0312Z" fill="#4FB573"/>
<mask id="mask0" mask-type="alpha" maskUnits="userSpaceOnUse" x="11" y="22" width="42" height="54">
<path d="M50.6373 49.151C50.6373 62.8747 43.9433 74 31.8164 74C19.6894 74 12.9954 62.8747 12.9954 49.151C12.9954 35.4274 19.6894 24.3021 31.8164 24.3021C43.9433 24.3021 50.6373 35.4274 50.6373 49.151Z" fill="white" stroke="#4FB573" stroke-width="3" stroke-linecap="round" stroke-linejoin="round"/>
</mask>
<g mask="url(#mask0)">
<path d="M38.5381 42.2259C38.8966 36.0341 45.5586 36.1155 48.8448 36.9303L55.1185 56.4835L44.3637 67.8896C43.1687 67.0749 40.958 64.3863 41.675 60.1497C42.5712 54.8541 45.2599 56.8909 44.3637 53.2246C43.4674 49.5584 38.09 49.9658 38.5381 42.2259Z" fill="#7BC796" stroke="#4FB573" stroke-width="2" stroke-linecap="round" stroke-linejoin="round"/>
<path d="M21.0615 46.7069C17.8351 41.8186 11.651 40.5965 8.96234 40.5965L12.5473 67.8896C14.041 67.8896 17.8351 66.9119 21.0615 63.0013C25.0946 58.113 25.0946 52.8173 21.0615 46.7069Z" fill="#7BC796" stroke="#4FB573" stroke-width="2" stroke-linecap="round" stroke-linejoin="round"/>
</g>
<path d="M51 49C51 62.8071 44.2423 74 32 74C19.7577 74 13 62.8071 13 49C13 35.1929 19.7577 24 32 24C44.2423 24 51 35.1929 51 49Z" stroke="#4FB573" stroke-width="3" stroke-linecap="round" stroke-linejoin="round"/>
<path d="M37.6419 10.8586L31.8164 7.7218L26.8871 8.61804L24.0652 13.0785L19.7577 12.4047L15.2359 13.7524L17.4419 16.8452L21.4945 18.2448L21.8579 20.4911L23.3294 25.882L27.863 30.0015H35.0998L39.4419 24.683L41.1788 18.2448L44.363 17.4051L47.2577 13.7524L42.4714 12.4047L37.6419 10.8586Z" fill="white"/>
<path d="M47.2268 13.5835C46.1537 12.5502 44.746 11.9017 43.2375 11.7461C41.729 11.5904 40.2107 11.9369 38.9349 12.7279C37.4584 10.7604 35.8499 7.7218 30.9206 7.7218C26.4394 7.7218 24.4364 10.419 23.883 12.2158C23.883 12.2158 23.6434 12.5572 23.5374 12.7321C22.2613 11.9396 20.7422 11.592 19.2327 11.7472C17.7231 11.9024 16.3143 12.5509 15.2404 13.5849" stroke="#4FB573" stroke-width="3" stroke-linecap="round" stroke-linejoin="round"/>
<path d="M15.2359 13.7969C15.7732 15.0223 16.6934 16.0559 17.8685 16.754C19.0436 17.4522 20.4151 17.7802 21.7926 17.6924C21.7355 18.1699 21.7074 18.6502 21.7084 19.1308C21.7084 25.1413 25.9694 30.0157 31.2324 30.0157C36.4953 30.0157 40.7563 25.1413 40.7563 19.1308C40.7574 18.6502 40.7293 18.1699 40.6721 17.6924C42.049 17.7796 43.4199 17.4514 44.5943 16.7532C45.7687 16.0551 46.6883 15.0218 47.2252 13.7969" stroke="#4FB573" stroke-width="3" stroke-linecap="round" stroke-linejoin="round"/>
<path d="M28.7938 18.4921C29.4052 18.4921 29.901 18.0144 29.901 17.4251C29.901 16.8359 29.4052 16.3582 28.7938 16.3582C28.1823 16.3582 27.6866 16.8359 27.6866 17.4251C27.6866 18.0144 28.1823 18.4921 28.7938 18.4921Z" fill="#4FB573"/>
<path d="M33.6668 18.4921C34.2783 18.4921 34.774 18.0144 34.774 17.4251C34.774 16.8359 34.2783 16.3582 33.6668 16.3582C33.0554 16.3582 32.5597 16.8359 32.5597 17.4251C32.5597 18.0144 33.0554 18.4921 33.6668 18.4921Z" fill="#4FB573"/>
<ellipse cx="31.3682" cy="26.5428" rx="7.16989" ry="4.9293" fill="#DCF0E3" stroke="#4FB573" stroke-width="2" stroke-linecap="round" stroke-linejoin="round"/>
<path d="M27.7833 26.9908C28.2783 26.9908 28.6795 26.5896 28.6795 26.0946C28.6795 25.5996 28.2783 25.1984 27.7833 25.1984C27.2883 25.1984 26.8871 25.5996 26.8871 26.0946C26.8871 26.5896 27.2883 26.9908 27.7833 26.9908Z" fill="#4FB573"/>
<path d="M34.9532 26.9908C35.4482 26.9908 35.8494 26.5896 35.8494 26.0946C35.8494 25.5996 35.4482 25.1984 34.9532 25.1984C34.4582 25.1984 34.057 25.5996 34.057 26.0946C34.057 26.5896 34.4582 26.9908 34.9532 26.9908Z" fill="#4FB573"/>
<path d="M36.9215 1.29878C37.6385 2.54064 37.2216 6.29989 34.5051 7.8683L37.1938 9.96238C37.2284 9.42493 39.3527 7.55029 39.3861 5.56765C39.43 2.95507 36.9215 1.29878 36.9215 1.29878Z" fill="#DCF0E3" stroke="#4FB573" stroke-width="2" stroke-linecap="round" stroke-linejoin="round"/>
<path d="M24.9504 1.29878C24.2334 2.54064 24.6502 6.29989 27.3668 7.8683L24.6781 9.96238C24.6434 9.42493 22.5191 7.55029 22.4858 5.56765C22.4418 2.95507 24.9504 1.29878 24.9504 1.29878Z" fill="#DCF0E3" stroke="#4FB573" stroke-width="2" stroke-linecap="round" stroke-linejoin="round"/>
</svg>
