<svg width="56" height="56" viewBox="0 0 56 56" fill="none" xmlns="http://www.w3.org/2000/svg">
<circle cx="28" cy="28" r="28" fill="#DCF0E3"/>
<path d="M19.266 33.9038H23.4166V35.9791C23.4166 37.1253 22.4875 38.0544 21.3413 38.0544C20.1951 38.0544 19.266 37.1253 19.266 35.9791V33.9038Z" fill="#B9E1C7" stroke="#4FB573" stroke-width="2" stroke-linecap="round" stroke-linejoin="round"/>
<path d="M44.8403 45.3838C44.8403 42.4715 43 42.2168 43 42.2168" stroke="#4FB573" stroke-miterlimit="10" stroke-linecap="round"/>
<path d="M46.0953 43.0697C46.0953 41.3097 46.9182 41 46.9182 41L46.0953 43.0697Z" fill="white"/>
<path d="M46.0953 43.0697C46.0953 41.3097 46.9182 41 46.9182 41" stroke="#4FB573" stroke-miterlimit="10" stroke-linecap="round"/>
<path d="M7.54866 35.964C7.9857 32.7604 6 32.2012 6 32.2012" stroke="#4FB573" stroke-miterlimit="10" stroke-linecap="round"/>
<path d="M9.35437 35.3141C9.76111 32.3334 11.2266 32 11.2266 32L9.35437 35.3141Z" fill="white"/>
<path d="M9.35437 35.3141C9.76111 32.3334 11.2266 32 11.2266 32" stroke="#4FB573" stroke-miterlimit="10" stroke-linecap="round"/>
<path d="M10.365 45.0703C10.365 41.3272 8 41 8 41" stroke="#4FB573" stroke-miterlimit="10" stroke-linecap="round"/>
<path d="M11.9784 44.1793C11.9784 41.9175 13.0359 41.5193 13.0359 41.5193L11.9784 44.1793Z" fill="white"/>
<path d="M11.9784 44.1793C11.9784 41.9175 13.0359 41.5193 13.0359 41.5193" stroke="#4FB573" stroke-miterlimit="10" stroke-linecap="round"/>
<path d="M28.671 44.523C28.671 40.7799 31.036 40.4526 31.036 40.4526" stroke="#4FB573" stroke-miterlimit="10" stroke-linecap="round"/>
<path d="M27.0575 42.66C27.0575 40.3982 26 40 26 40L27.0575 42.66Z" fill="white"/>
<path d="M27.0575 42.66C27.0575 40.3982 26 40 26 40" stroke="#4FB573" stroke-miterlimit="10" stroke-linecap="round"/>
<path d="M36.4204 46.4734C36.2989 43.2688 35 42 35 42" stroke="#4FB573" stroke-miterlimit="10" stroke-linecap="round"/>
<path d="M38.0825 47.683C38.03 46.6276 38.2101 45.5737 38.61 44.5965C39.0099 43.6193 39.6197 42.743 40.3957 42.0303" stroke="#4FB573" stroke-miterlimit="10" stroke-linecap="round"/>
<path d="M18.4339 48.167C18.646 47.2705 18.6256 46.3341 18.3745 45.4478C18.1234 44.5614 17.6501 43.7547 17 43.105" stroke="#4FB573" stroke-miterlimit="10" stroke-linecap="round"/>
<path d="M20.2201 48.9009C20.0355 47.8607 20.0819 46.7923 20.3558 45.7722C20.6298 44.7521 21.1246 43.8055 21.8049 43" stroke="#4FB573" stroke-miterlimit="10" stroke-linecap="round"/>
<path d="M15 32.7085H19.1506V34.7838C19.1506 35.93 18.2215 36.8591 17.0753 36.8591C15.9291 36.8591 15 35.93 15 34.7838V32.7085Z" fill="#B9E1C7" stroke="#4FB573" stroke-width="2" stroke-linecap="round" stroke-linejoin="round"/>
<path d="M35 24H39.1506V33.7836C39.1506 34.9298 38.2215 35.8589 37.0753 35.8589C35.9291 35.8589 35 34.9298 35 33.7836V24Z" fill="white" stroke="#4FB573" stroke-width="2" stroke-linecap="round" stroke-linejoin="round"/>
<path d="M39 33H44V34.5C44 35.8807 42.8807 37 41.5 37C40.1193 37 39 35.8807 39 34.5V33Z" fill="#B9E1C7" stroke="#4FB573" stroke-width="2" stroke-linecap="round" stroke-linejoin="round"/>
<path fill-rule="evenodd" clip-rule="evenodd" d="M44.2823 18.5842C43.8013 13.0532 36.9241 10.575 28.768 11.2841C20.6119 11.9933 14.2655 15.6213 14.7465 21.1524C14.9765 23.7977 16.6696 25.7447 19.2659 26.9786L19.2659 35.9791C19.2659 37.1252 20.1951 38.0544 21.3412 38.0544C22.4874 38.0544 23.4165 37.1252 23.4165 35.9791L23.4165 28.2359C25.4918 28.5913 27.819 28.6647 30.2608 28.4524C33.5888 28.163 36.6155 27.3877 39 26.1953L39 34.5001C39 35.8808 40.1193 37.0001 41.5 37.0001C42.8807 37.0001 44 35.8808 44 34.5001L44 21.1175C44.259 20.3259 44.3602 19.48 44.2823 18.5842Z" fill="white"/>
<path d="M19.2659 26.9786L20.2659 26.9786C20.2659 26.5927 20.0438 26.2412 19.6952 26.0755L19.2659 26.9786ZM19.2659 35.9791L18.2659 35.9791L19.2659 35.9791ZM21.3412 38.0544L21.3412 37.0544L21.3412 38.0544ZM23.4165 35.9791L24.4165 35.9791L23.4165 35.9791ZM23.4165 28.2359L23.5854 27.2503C23.2949 27.2005 22.9972 27.2814 22.7719 27.4714C22.5466 27.6614 22.4165 27.9412 22.4165 28.2359L23.4165 28.2359ZM39 26.1953L40 26.1953C40 25.8488 39.8205 25.5269 39.5257 25.3447C39.2309 25.1625 38.8628 25.1459 38.5528 25.3009L39 26.1953ZM39 34.5001L38 34.5001L38 34.5001L39 34.5001ZM44 34.5001L43 34.5001L43 34.5001L44 34.5001ZM44 21.1175L43.0496 20.8066C43.0167 20.907 43 21.0119 43 21.1175L44 21.1175ZM28.8546 12.2804C32.8275 11.9349 36.4051 12.376 39.0031 13.5105C41.5814 14.6364 43.0869 16.3802 43.286 18.6708L45.2785 18.4976C44.9968 15.2572 42.8231 12.9963 39.8035 11.6777C36.8036 10.3676 32.8645 9.92417 28.6813 10.2879L28.8546 12.2804ZM15.7427 21.0657C15.5435 18.7751 16.7254 16.7977 19.0707 15.2437C21.4339 13.6778 24.8817 12.6258 28.8546 12.2804L28.6813 10.2879C24.4982 10.6516 20.6947 11.7683 17.966 13.5764C15.2193 15.3965 13.4685 17.9986 13.7502 21.239L15.7427 21.0657ZM19.6952 26.0755C17.3204 24.9468 15.9335 23.2606 15.7427 21.0657L13.7502 21.239C14.0194 24.3347 16.0187 26.5425 18.8367 27.8818L19.6952 26.0755ZM18.2659 26.9786L18.2659 35.9791L20.2659 35.9791L20.2659 26.9786L18.2659 26.9786ZM18.2659 35.9791C18.2659 37.6775 19.6428 39.0544 21.3412 39.0544L21.3412 37.0544C20.7474 37.0544 20.2659 36.5729 20.2659 35.9791L18.2659 35.9791ZM21.3412 39.0544C23.0397 39.0544 24.4165 37.6775 24.4165 35.9791L22.4165 35.9791C22.4165 36.5729 21.9351 37.0544 21.3412 37.0544L21.3412 39.0544ZM24.4165 35.9791L24.4165 28.2359L22.4165 28.2359L22.4165 35.9791L24.4165 35.9791ZM30.1741 27.4562C27.8039 27.6623 25.5637 27.5891 23.5854 27.2503L23.2477 29.2215C25.4199 29.5936 27.834 29.6672 30.3474 29.4486L30.1741 27.4562ZM38.5528 25.3009C36.3072 26.4238 33.4095 27.1748 30.1741 27.4562L30.3474 29.4486C33.768 29.1512 36.9238 28.3516 39.4472 27.0898L38.5528 25.3009ZM38 26.1953L38 34.5001L40 34.5001L40 26.1953L38 26.1953ZM38 34.5001C38 36.4331 39.567 38.0001 41.5 38.0001L41.5 36.0001C40.6716 36.0001 40 35.3285 40 34.5001L38 34.5001ZM41.5 38.0001C43.433 38.0001 45 36.4331 45 34.5001L43 34.5001C43 35.3285 42.3284 36.0001 41.5 36.0001L41.5 38.0001ZM45 34.5001L45 21.1175L43 21.1175L43 34.5001L45 34.5001ZM43.286 18.6708C43.3524 19.4347 43.2659 20.1452 43.0496 20.8066L44.9504 21.4284C45.252 20.5065 45.3679 19.5253 45.2785 18.4976L43.286 18.6708Z" fill="#4FB573"/>
<mask id="mask0" mask-type="alpha" maskUnits="userSpaceOnUse" x="13" y="10" width="33" height="20">
<path d="M28.8992 11.7587C36.7027 11.0802 43.276 13.3738 43.724 18.5255C44.1719 23.6772 38.0931 27.0709 30.2896 27.7494C22.4861 28.428 15.9128 26.1343 15.4648 20.9827C15.0169 15.831 21.0956 12.4373 28.8992 11.7587Z" fill="white" stroke="#3D7ACF" stroke-width="3" stroke-linecap="round" stroke-linejoin="round"/>
</mask>
<g mask="url(#mask0)">
<path d="M25.256 17.2626C21.5843 17.4187 21.3707 14.4046 21.7229 12.8781L33.0268 9.03936L40.1871 13.3125C39.7527 13.8942 38.2514 15.0311 35.7207 14.9248C32.5572 14.7919 33.6548 13.4725 31.5243 14.0657C29.3938 14.659 29.8456 17.0675 25.256 17.2626Z" fill="#7BC796" stroke="#4FB573" stroke-linecap="round" stroke-linejoin="round"/>
<path d="M27.2868 25.1637C24.8529 26.6701 24.4307 29.1884 24.5238 30.2593L38.6126 27.5956C38.5608 27.0007 37.9203 25.5338 35.7721 24.4259C33.0869 23.0409 30.3291 23.2807 27.2868 25.1637Z" fill="#7BC796" stroke="#4FB573" stroke-linecap="round" stroke-linejoin="round"/>
</g>
<path d="M35 32L39 32L39 34C39 35.1046 38.1046 36 37 36C35.8954 36 35 35.1046 35 34L35 32Z" fill="#B9E1C7" stroke="#4FB573" stroke-width="2" stroke-linecap="round" stroke-linejoin="round"/>
<path d="M19.2659 26.9786L20.2659 26.9786C20.2659 26.5927 20.0438 26.2412 19.6952 26.0755L19.2659 26.9786ZM19.2659 35.9791L18.2659 35.9791L19.2659 35.9791ZM21.3412 38.0544L21.3412 37.0544L21.3412 38.0544ZM23.4165 35.9791L24.4165 35.9791L23.4165 35.9791ZM23.4165 28.2359L23.5854 27.2503C23.2949 27.2005 22.9972 27.2814 22.7719 27.4714C22.5466 27.6614 22.4165 27.9412 22.4165 28.2359L23.4165 28.2359ZM39 26.1953L40 26.1953C40 25.8488 39.8205 25.5269 39.5257 25.3447C39.2309 25.1625 38.8628 25.1459 38.5528 25.3009L39 26.1953ZM39 34.5001L38 34.5001L38 34.5001L39 34.5001ZM44 34.5001L43 34.5001L43 34.5001L44 34.5001ZM44 21.1175L43.0496 20.8066C43.0167 20.907 43 21.0119 43 21.1175L44 21.1175ZM28.8546 12.2804C32.8275 11.9349 36.4051 12.376 39.0031 13.5105C41.5814 14.6364 43.0869 16.3802 43.286 18.6708L45.2785 18.4976C44.9968 15.2572 42.8231 12.9963 39.8035 11.6777C36.8036 10.3676 32.8645 9.92417 28.6813 10.2879L28.8546 12.2804ZM15.7427 21.0657C15.5435 18.7751 16.7254 16.7977 19.0707 15.2437C21.4339 13.6778 24.8817 12.6258 28.8546 12.2804L28.6813 10.2879C24.4982 10.6516 20.6947 11.7683 17.966 13.5764C15.2193 15.3965 13.4685 17.9986 13.7502 21.239L15.7427 21.0657ZM19.6952 26.0755C17.3204 24.9468 15.9335 23.2606 15.7427 21.0657L13.7502 21.239C14.0194 24.3347 16.0187 26.5425 18.8367 27.8818L19.6952 26.0755ZM18.2659 26.9786L18.2659 35.9791L20.2659 35.9791L20.2659 26.9786L18.2659 26.9786ZM18.2659 35.9791C18.2659 37.6775 19.6428 39.0544 21.3412 39.0544L21.3412 37.0544C20.7474 37.0544 20.2659 36.5729 20.2659 35.9791L18.2659 35.9791ZM21.3412 39.0544C23.0397 39.0544 24.4165 37.6775 24.4165 35.9791L22.4165 35.9791C22.4165 36.5729 21.9351 37.0544 21.3412 37.0544L21.3412 39.0544ZM24.4165 35.9791L24.4165 28.2359L22.4165 28.2359L22.4165 35.9791L24.4165 35.9791ZM30.1741 27.4562C27.8039 27.6623 25.5637 27.5891 23.5854 27.2503L23.2477 29.2215C25.4199 29.5936 27.834 29.6672 30.3474 29.4486L30.1741 27.4562ZM38.5528 25.3009C36.3072 26.4238 33.4095 27.1748 30.1741 27.4562L30.3474 29.4486C33.768 29.1512 36.9238 28.3516 39.4472 27.0898L38.5528 25.3009ZM38 26.1953L38 34.5001L40 34.5001L40 26.1953L38 26.1953ZM38 34.5001C38 36.4331 39.567 38.0001 41.5 38.0001L41.5 36.0001C40.6716 36.0001 40 35.3285 40 34.5001L38 34.5001ZM41.5 38.0001C43.433 38.0001 45 36.4331 45 34.5001L43 34.5001C43 35.3285 42.3284 36.0001 41.5 36.0001L41.5 38.0001ZM45 34.5001L45 21.1175L43 21.1175L43 34.5001L45 34.5001ZM43.286 18.6708C43.3524 19.4347 43.2659 20.1452 43.0496 20.8066L44.9504 21.4284C45.252 20.5065 45.3679 19.5253 45.2785 18.4976L43.286 18.6708Z" fill="#4FB573"/>
<path d="M15 25H19.1506V34.7836C19.1506 35.9298 18.2215 36.8589 17.0753 36.8589C15.9291 36.8589 15 35.9298 15 34.7836V25Z" fill="white" stroke="#4FB573" stroke-width="2" stroke-linecap="round" stroke-linejoin="round"/>
<path d="M21.2855 14.8456L17.8313 12.9856L14.9085 13.517L13.2353 16.1618L10.6812 15.7623L8 16.5614L9.30803 18.3953L11.711 19.2252L11.9265 20.5571L12.799 23.7536L15.4872 26.1963H19.7782L22.3528 23.0427L23.3827 19.2252L25.2708 18.7272L26.9872 16.5614L24.1492 15.7623L21.2855 14.8456Z" fill="white" stroke="#4FB573"/>
<path d="M26.9696 16.4613C26.3333 15.8485 25.4986 15.4641 24.6041 15.3718C23.7097 15.2795 22.8094 15.4849 22.0529 15.9539C21.1775 14.7873 20.2237 12.9856 17.3009 12.9856C14.6438 12.9856 13.4561 14.5849 13.128 15.6503C13.128 15.6503 12.9859 15.8527 12.9231 15.9564C12.1664 15.4865 11.2657 15.2804 10.3706 15.3724C9.47553 15.4644 8.64016 15.849 8.00342 16.4621" stroke="#4FB573" stroke-width="2" stroke-linecap="round" stroke-linejoin="round"/>
<path d="M8 16.5881C8.3186 17.3147 8.86422 17.9276 9.56098 18.3416C10.2577 18.7555 11.071 18.95 11.8878 18.898C11.8539 19.1811 11.8372 19.4659 11.8378 19.7509C11.8378 23.3148 14.3644 26.205 17.485 26.205C20.6057 26.205 23.1322 23.3148 23.1322 19.7509C23.1328 19.4659 23.1162 19.1811 23.0823 18.898C23.8987 18.9497 24.7116 18.755 25.4079 18.3411C26.1043 17.9271 26.6495 17.3144 26.9679 16.5881" stroke="#4FB573" stroke-width="2" stroke-linecap="round" stroke-linejoin="round"/>
<path d="M15.6956 18.7396C15.6956 18.5021 15.8846 18.3722 16.0391 18.3722C16.1936 18.3722 16.3826 18.5021 16.3826 18.7396C16.3826 18.977 16.1936 19.1069 16.0391 19.1069C15.8846 19.1069 15.6956 18.977 15.6956 18.7396Z" fill="#4FB573" stroke="#4FB573" stroke-width="2"/>
<path d="M18.585 18.7393C18.585 18.5018 18.774 18.3719 18.9285 18.3719C19.083 18.3719 19.272 18.5018 19.272 18.7393C19.272 18.9768 19.083 19.1067 18.9285 19.1067C18.774 19.1067 18.585 18.9768 18.585 18.7393Z" fill="#4FB573" stroke="#4FB573" stroke-width="2"/>
<ellipse cx="17.5657" cy="24.1455" rx="4.25135" ry="2.9228" fill="#DCF0E3" stroke="#4FB573" stroke-width="2" stroke-linecap="round" stroke-linejoin="round"/>
<path d="M15.44 24.4112C15.7335 24.4112 15.9714 24.1733 15.9714 23.8798C15.9714 23.5863 15.7335 23.3484 15.44 23.3484C15.1465 23.3484 14.9086 23.5863 14.9086 23.8798C14.9086 24.1733 15.1465 24.4112 15.44 24.4112Z" fill="#4FB573" stroke="#4FB573" stroke-width="3"/>
<path d="M19.6913 24.4112C19.9848 24.4112 20.2227 24.1733 20.2227 23.8798C20.2227 23.5863 19.9848 23.3484 19.6913 23.3484C19.3978 23.3484 19.1599 23.5863 19.1599 23.8798C19.1599 24.1733 19.3978 24.4112 19.6913 24.4112Z" fill="#4FB573" stroke="#4FB573" stroke-width="3"/>
<path d="M20.8584 9.17723C21.2835 9.91358 21.0364 12.1426 19.4256 13.0726L21.0198 14.3143C21.0404 13.9956 22.3 12.884 22.3198 11.7084C22.3458 10.1593 20.8584 9.17723 20.8584 9.17723Z" fill="#DCF0E3" stroke="#4FB573" stroke-linecap="round" stroke-linejoin="round"/>
<path d="M13.7603 9.17723C13.3351 9.91358 13.5823 12.1426 15.1931 13.0726L13.5988 14.3143C13.5783 13.9956 12.3187 12.884 12.2989 11.7084C12.2728 10.1593 13.7603 9.17723 13.7603 9.17723Z" fill="#DCF0E3" stroke="#4FB573" stroke-linecap="round" stroke-linejoin="round"/>
<path d="M39 33L44 33L44 34.5C44 35.8807 42.8807 37 41.5 37C40.1193 37 39 35.8807 39 34.5L39 33Z" fill="#B9E1C7" stroke="#4FB573" stroke-width="2" stroke-linecap="round" stroke-linejoin="round"/>
<path d="M19 34L23 34L23 36C23 37.1046 22.1046 38 21 38C19.8954 38 19 37.1046 19 36L19 34Z" fill="#B9E1C7" stroke="#4FB573" stroke-width="2" stroke-linecap="round" stroke-linejoin="round"/>
<path d="M15 33L19 33L19 35C19 36.1046 18.1046 37 17 37C15.8954 37 15 36.1046 15 35L15 33Z" fill="#B9E1C7" stroke="#4FB573" stroke-width="2" stroke-linecap="round" stroke-linejoin="round"/>
<path d="M41.5 13.5C41.8333 13 42.8 12.2 44 13C45.5 14 46 16 47 19C47.8 21.4 48.6667 22 49 22" stroke="#4FB573" stroke-linecap="round"/>
<mask id="path-44-outside-1" maskUnits="userSpaceOnUse" x="46.6021" y="19.6022" width="6.18329" height="6.39762" fill="black">
<rect fill="white" x="46.6021" y="19.6022" width="6.18329" height="6.39762"/>
<path fill-rule="evenodd" clip-rule="evenodd" d="M49.7915 23.67C49.3628 23.6653 48.9415 23.466 48.6682 23.0938C48.395 22.7216 48.3311 22.2599 48.4551 21.8495C48.8838 21.8542 49.3051 22.0535 49.5783 22.4257C49.8516 22.7979 49.9154 23.2595 49.7915 23.67Z"/>
</mask>
<path fill-rule="evenodd" clip-rule="evenodd" d="M49.7915 23.67C49.3628 23.6653 48.9415 23.466 48.6682 23.0938C48.395 22.7216 48.3311 22.2599 48.4551 21.8495C48.8838 21.8542 49.3051 22.0535 49.5783 22.4257C49.8516 22.7979 49.9154 23.2595 49.7915 23.67Z" fill="#DCF0E3"/>
<path d="M49.7915 23.67L49.7805 24.6699C50.2255 24.6748 50.6201 24.3851 50.7488 23.9591L49.7915 23.67ZM48.4551 21.8495L48.466 20.8496C48.0211 20.8447 47.6264 21.1344 47.4978 21.5604L48.4551 21.8495ZM49.8025 22.67C49.6747 22.6686 49.5536 22.61 49.4743 22.502L47.8621 23.6856C48.3293 24.322 49.0509 24.6619 49.7805 24.6699L49.8025 22.67ZM49.4743 22.502C49.3951 22.3941 49.3754 22.2609 49.4124 22.1386L47.4978 21.5604C47.2868 22.2589 47.3949 23.0491 47.8621 23.6856L49.4743 22.502ZM48.4441 22.8495C48.5719 22.8509 48.693 22.9095 48.7722 23.0175L50.3844 21.8339C49.9172 21.1975 49.1957 20.8576 48.466 20.8496L48.4441 22.8495ZM48.7722 23.0175C48.8515 23.1254 48.8711 23.2585 48.8342 23.3809L50.7488 23.9591C50.9597 23.2606 50.8517 22.4703 50.3844 21.8339L48.7722 23.0175Z" fill="#4FB573" mask="url(#path-44-outside-1)"/>
</svg>
