<svg width="88" height="96" viewBox="0 0 88 96" fill="none" xmlns="http://www.w3.org/2000/svg">
<path d="M41.3848 4.37166C41.9325 3.88984 42.5799 3.64893 43.277 3.64893C43.9741 3.64893 44.6214 3.88984 45.3186 4.37166C53.933 12.0327 64.9376 16.61 76.9382 16.61C77.8391 16.61 78.6949 16.5664 79.5915 16.5206L79.7267 16.5137H79.876C81.3201 16.5137 82.6148 17.6219 82.8637 19.2119C83.5111 23.0665 83.8596 27.0657 83.8596 31.1612C83.8596 59.4926 67.4274 83.632 44.3725 92.9795C44.0239 93.124 43.6753 93.1722 43.3268 93.1722C42.9782 93.1722 42.6297 93.124 42.2811 92.9795C19.2262 83.632 2.79395 59.4926 2.79395 31.1612C2.79395 27.0657 3.14251 23.0665 3.78984 19.2119C4.03881 17.6701 5.33347 16.5137 6.77752 16.5137H6.9269C7.873 16.5619 8.7693 16.61 9.7154 16.61C21.7159 16.61 32.7205 12.0327 41.3848 4.37166Z" fill="white" stroke="#4FB573" stroke-width="3"/>
<path d="M75.0136 24.6882L75.0135 24.6882L75.0154 24.6992C75.5416 27.8007 75.825 31.0185 75.825 34.3139C75.825 57.1194 62.4633 76.4995 43.7936 83.9916L43.7863 83.9946C43.6483 84.0512 43.4959 84.0775 43.3012 84.0775C43.1064 84.0775 42.954 84.0512 42.816 83.9946L42.8087 83.9916C24.139 76.4995 10.7773 57.1194 10.7773 34.3139C10.7773 31.0185 11.0607 27.8007 11.5869 24.6992L11.587 24.6992L11.588 24.693C11.7216 23.8738 12.408 23.3231 13.0721 23.3231H13.1704C13.2015 23.3247 13.2327 23.3263 13.2638 23.3278C13.9998 23.365 14.7307 23.402 15.5019 23.402C25.6865 23.402 35.018 19.5554 42.3527 13.1367C42.6246 12.9004 42.9268 12.7917 43.26 12.7917C43.5706 12.7917 43.8997 12.8868 44.3363 13.1767C51.6242 19.5724 60.9384 23.402 71.1004 23.402C71.8708 23.402 72.5999 23.3652 73.3341 23.3281L73.3453 23.3275L73.3454 23.3275L73.4319 23.3231H73.5302C74.2073 23.3231 74.8805 23.847 75.0136 24.6882Z" stroke="#4FB573" stroke-width="2"/>
<path d="M43.3267 62.1907C52.567 62.1907 60.0577 54.9425 60.0577 46.0014C60.0577 37.0602 52.567 29.812 43.3267 29.812C34.0864 29.812 26.5957 37.0602 26.5957 46.0014C26.5957 54.9425 34.0864 62.1907 43.3267 62.1907Z" fill="#FFF3D6" stroke="#FFC432" stroke-width="2" stroke-miterlimit="10"/>
<path d="M34.7119 48.9885L39.542 53.6623L51.8911 41.6648" stroke="#FFC432" stroke-width="3" stroke-miterlimit="10" stroke-linecap="round" stroke-linejoin="round"/>
</svg>
