<svg width="58" height="74" viewBox="0 0 58 74" fill="none" xmlns="http://www.w3.org/2000/svg">
<path d="M9.75293 55.5L18.1849 47.2027C19.3055 46.098 20.7997 45.4536 22.3872 45.4536H37.0935C38.7835 45.4536 39.7021 46.7626 39.7021 48.0313C39.7021 49.2151 39.0574 50.701 37.0935 50.701H29.1042C27.8902 50.701 26.9564 51.6217 26.9564 52.8185C26.9564 54.0152 27.8902 54.9359 29.1042 54.9359H39.6636L50.2594 43.8206C51.0999 42.992 53.0399 42.4894 54.5321 43.8205C56.3633 45.4536 55.7529 47.4607 55.1426 48.0674L44.7889 59.2971C43.7617 60.5859 42.1741 61.4145 40.4932 61.4145H25.5515L20.4038 66.4991" stroke="#4FB573" stroke-width="3" stroke-miterlimit="10" stroke-linejoin="round"/>
<path d="M16.1524 73.2073L1.75293 58.9102L7.70473 53.0007L22.1042 67.2978L16.1524 73.2073Z" fill="white" stroke="#4FB573" stroke-width="1.5" stroke-miterlimit="10" stroke-linejoin="round"/>
<path d="M14.5 2L17.8761 11.1239L27 14.5L17.8761 17.8761L14.5 27L11.1239 17.8761L2 14.5L11.1239 11.1239L14.5 2Z" fill="#FFF3D6" stroke="#FFC432" stroke-width="3" stroke-miterlimit="10" stroke-linejoin="round"/>
<path d="M42.5 17L45.0659 23.9341L52 26.5L45.0659 29.0659L42.5 36L39.9341 29.0659L33 26.5L39.9341 23.9341L42.5 17Z" fill="#FFF3D6" stroke="#FFC432" stroke-width="3" stroke-miterlimit="10" stroke-linejoin="round"/>
</svg>
