<svg width="90" height="93" viewBox="0 0 90 93" fill="none" xmlns="http://www.w3.org/2000/svg">
<path d="M23.4357 11.5183L5.2959 16.307V66.5882L11.0676 72.1749L22.6111 73.7712L32.5055 72.1749V48.2315V31.4711L44.049 26.6824L62.1888 28.2787L66.3115 34.6636L67.9605 66.5882H77.0304L85.2758 61.0014L88.5739 11.5183L83.6267 6.72958L68.7851 2.73901L51.4698 9.12393V25.0862L39.1018 25.8843L39.9264 18.7013L23.4357 11.5183Z" fill="#DCF0E3"/>
<path d="M43.2245 26.6814L33.3301 33.8644V83.3475L43.2245 88.9343L58.0661 89.7324L67.136 81.7513L67.9605 33.8644L58.0661 26.6814H43.2245Z" fill="white"/>
<path d="M4.43945 36.8584C4.43945 41.9179 12.0884 46.0194 21.5238 46.0194C25.7058 46.0194 29.5369 45.2136 32.5065 43.8759" stroke="#4FB573" stroke-width="1.5"/>
<path d="M4.3457 44.2109C4.3457 49.2704 11.9946 53.3719 21.4301 53.3719C25.6563 53.3719 29.5242 52.549 32.5068 51.1858" stroke="#4FB573" stroke-width="1.5"/>
<path d="M4.3457 51.0696C4.3457 56.129 11.9946 60.2305 21.4301 60.2305C25.6563 60.2305 29.5242 59.4077 32.5068 58.0444" stroke="#4FB573" stroke-width="1.5"/>
<path d="M4.3457 57.9287C4.3457 62.9882 11.9946 67.0897 21.4301 67.0897C25.5643 67.0897 29.3556 66.3022 32.3107 64.9918" stroke="#4FB573" stroke-width="1.5"/>
<path d="M4.4043 20.946V64.8423C4.4043 69.9018 12.0532 74.0033 21.4887 74.0033C25.3311 74.0033 28.8773 73.3231 31.7312 72.175M38.573 21.4947V27.6717" stroke="#4FB573" stroke-width="3"/>
<path d="M4.43945 57.9478C4.43945 63.0072 12.0884 67.1087 21.5238 67.1087C22.7183 67.1087 23.8841 67.043 25.0094 66.9179" stroke="#4FB573" stroke-width="1.5"/>
<path d="M4.43945 51.0769C4.43945 56.1364 12.0884 60.2379 21.5238 60.2379C22.3525 60.2379 23.1673 60.2062 23.9644 60.1451" stroke="#4FB573" stroke-width="1.5"/>
<path d="M4.43945 44.2063C4.43945 49.2658 12.0884 53.3673 21.5238 53.3673C22.3525 53.3673 23.1673 53.3356 23.9644 53.2745" stroke="#4FB573" stroke-width="1.5"/>
<ellipse cx="21.5238" cy="20.7789" rx="17.0844" ry="9.16096" stroke="#4FB573" stroke-width="3"/>
<path d="M4.43945 29.1765C4.43945 34.236 12.0884 38.3375 21.5238 38.3375C25.6368 38.3375 29.4104 37.5581 32.3588 36.2598" stroke="#4FB573" stroke-width="1.5"/>
<path d="M86.3376 36.7852C86.3376 41.9979 78.6887 46.2237 69.2532 46.2237C68.3785 46.2237 67.5191 46.1874 66.6797 46.1173" stroke="#4FB573" stroke-width="1.5"/>
<path d="M86.3376 29.2366C86.3376 34.4493 78.6887 38.6751 69.2532 38.6751C68.3785 38.6751 67.5191 38.6388 66.6797 38.5688" stroke="#4FB573" stroke-width="1.5"/>
<path d="M86.3376 43.8518C86.3376 49.0646 78.6887 53.2904 69.2533 53.2904C67.9597 53.2904 66.6996 53.2109 65.4883 53.0604" stroke="#4FB573" stroke-width="1.5"/>
<path d="M86.337 50.9187C86.337 56.1315 78.6881 60.3573 69.2526 60.3573C68.5362 60.3573 67.83 60.3329 67.1367 60.2856" stroke="#4FB573" stroke-width="1.5"/>
<path d="M52.2275 12.8152V25.0862M86.3963 13.3805V58.0417C86.3963 63.2544 78.7473 67.4802 69.3119 67.4802C68.2887 67.4802 67.2866 67.4305 66.3129 67.3353" stroke="#4FB573" stroke-width="3"/>
<ellipse cx="69.3471" cy="12.6432" rx="17.0844" ry="9.43857" stroke="#4FB573" stroke-width="3"/>
<path d="M86.4311 21.2952C86.4311 26.5079 78.7821 30.7337 69.3467 30.7337C67.9633 30.7337 66.6182 30.6429 65.3301 30.4714" stroke="#4FB573" stroke-width="1.5"/>
<path d="M66.6423 51.5571C66.6423 56.7699 58.9934 60.9957 49.558 60.9957C40.1226 60.9957 32.4736 56.7699 32.4736 51.5571" stroke="#4FB573" stroke-width="1.5"/>
<path d="M66.5486 59.1323C66.5486 64.3451 58.8997 68.5709 49.4642 68.5709C40.0288 68.5709 32.3799 64.3451 32.3799 59.1323" stroke="#4FB573" stroke-width="1.5"/>
<path d="M66.5486 66.199C66.5486 71.4118 58.8997 75.6375 49.4642 75.6375C40.0288 75.6375 32.3799 71.4118 32.3799 66.199" stroke="#4FB573" stroke-width="1.5"/>
<path d="M66.5486 73.2659C66.5486 78.4786 58.8997 82.7044 49.4642 82.7044C40.0288 82.7044 32.3799 78.4786 32.3799 73.2659" stroke="#4FB573" stroke-width="1.5"/>
<path d="M32.4385 35.1624V80.3888C32.4385 85.6016 40.0874 89.8274 49.5228 89.8274C58.9583 89.8274 66.6072 85.6016 66.6072 80.3888V35.7277" stroke="#4FB573" stroke-width="3"/>
<path d="M32.4736 73.2854C32.4736 78.4982 40.1226 82.724 49.558 82.724C50.7524 82.724 51.9183 82.6562 53.0436 82.5274" stroke="#4FB573" stroke-width="1.5"/>
<path d="M32.4736 66.2065C32.4736 71.4193 40.1226 75.6451 49.558 75.6451C50.3866 75.6451 51.2015 75.6125 51.9986 75.5495" stroke="#4FB573" stroke-width="1.5"/>
<path d="M32.4736 59.1277C32.4736 64.3405 40.1226 68.5663 49.558 68.5663C50.3866 68.5663 51.2015 68.5337 51.9986 68.4707" stroke="#4FB573" stroke-width="1.5"/>
<ellipse cx="49.558" cy="34.9903" rx="17.0844" ry="9.43857" stroke="#4FB573" stroke-width="3"/>
<path d="M66.6423 43.6423C66.6423 48.8551 58.9934 53.0809 49.558 53.0809C40.1226 53.0809 32.4736 48.8551 32.4736 43.6423" stroke="#4FB573" stroke-width="1.5"/>
</svg>
