<svg width="69" height="64" viewBox="0 0 69 64" fill="none" xmlns="http://www.w3.org/2000/svg">
<path d="M42.635 32.6214C42.635 36.0819 39.8283 38.8884 36.3648 38.8884C32.9012 38.8884 30.0945 36.0819 30.0945 32.6214C30.0945 29.1608 32.9012 26.3544 36.3648 26.3544C39.8283 26.3544 42.635 29.1608 42.635 32.6214Z" fill="#DCF0E3" stroke="#4FB573" stroke-width="3"/>
<path d="M67.5 32.932C67.5 35.1915 65.6674 37.0242 63.4054 37.0242C61.1434 37.0242 59.3108 35.1915 59.3108 32.932C59.3108 30.6725 61.1434 28.8398 63.4054 28.8398C65.6674 28.8398 67.5 30.6725 67.5 32.932Z" fill="#DCF0E3" stroke="#4FB573" stroke-width="3"/>
<path d="M1.50002 33.5534C1.50002 31.2939 3.33264 29.4612 5.59461 29.4612C7.85659 29.4612 9.68921 31.2939 9.68921 33.5534C9.68921 35.8129 7.85659 37.6456 5.59461 37.6456C3.33263 37.6456 1.50002 35.8129 1.50002 33.5534Z" fill="#DCF0E3" stroke="#4FB573" stroke-width="3"/>
<circle r="4.04347" transform="matrix(0.707256 0.706958 -0.707256 0.706958 52.5981 48.8477)" fill="#DCF0E3" stroke="#4FB573" stroke-width="3"/>
<circle r="4.04347" transform="matrix(-0.707256 0.706957 -0.707256 -0.706958 21.395 47.2111)" fill="#DCF0E3" stroke="#4FB573" stroke-width="3"/>
<path d="M36.0541 2.12138C38.316 2.12138 40.1487 3.95413 40.1487 6.21361C40.1487 8.47309 38.316 10.3058 36.0541 10.3058C33.7921 10.3058 31.9595 8.4731 31.9595 6.21361C31.9595 3.95413 33.7921 2.12138 36.0541 2.12138Z" fill="#DCF0E3" stroke="#4FB573" stroke-width="3"/>
<path d="M36.0541 62.5C33.7921 62.5 31.9595 60.6673 31.9595 58.4078C31.9595 56.1483 33.7921 54.3156 36.0541 54.3156C38.3161 54.3156 40.1487 56.1483 40.1487 58.4078C40.1487 60.6673 38.3161 62.5 36.0541 62.5Z" fill="#DCF0E3" stroke="#4FB573" stroke-width="3"/>
<circle r="4.04347" transform="matrix(-0.707256 -0.706957 0.707256 -0.706958 17.0825 13.3414)" fill="#DCF0E3" stroke="#4FB573" stroke-width="3"/>
<path d="M66.8784 5.28155C66.8784 7.36945 65.1849 9.06311 63.0946 9.06311C61.0043 9.06311 59.3108 7.36945 59.3108 5.28155C59.3108 3.19366 61.0043 1.5 63.0946 1.5C65.1849 1.5 66.8784 3.19366 66.8784 5.28155Z" fill="#DCF0E3" stroke="#4FB573" stroke-width="3"/>
<path d="M44.1353 32.9321H57.8109" stroke="#4FB573" stroke-width="2"/>
<path d="M29.2163 32.9321H11.1893" stroke="#4FB573" stroke-width="2"/>
<path d="M40.0447 37.5256L49.6285 47.1054" stroke="#4FB573" stroke-width="2"/>
<path d="M31.3833 37.0903L24.6065 43.8642" stroke="#4FB573" stroke-width="2"/>
<path d="M36.054 26.0971L36.054 11.8058" stroke="#4FB573" stroke-width="2"/>
<path d="M36.054 39.1456L36.054 53.4369" stroke="#4FB573" stroke-width="2"/>
<path d="M31.0225 27.2756L21.003 17.2604" stroke="#4FB573" stroke-width="2"/>
<path d="M40.7144 27.3253L59.745 8.35498" stroke="#4FB573" stroke-width="2"/>
</svg>
