<svg width="84" height="117" viewBox="0 0 84 117" fill="none" xmlns="http://www.w3.org/2000/svg">
<mask id="path-1-inside-1" fill="white">
<rect y="23.3999" width="84" height="93.6" rx="0.25"/>
</mask>
<rect y="23.3999" width="84" height="93.6" rx="0.25" fill="white" stroke="#4FB573" stroke-width="6" mask="url(#path-1-inside-1)"/>
<rect x="32.3077" y="56.0959" width="3.20548" height="37.1538" rx="0.25" transform="rotate(-90 32.3077 56.0959)" fill="#4FB573"/>
<rect x="32.3077" y="76.9314" width="3.20547" height="37.1538" rx="0.25" transform="rotate(-90 32.3077 76.9314)" fill="#4FB573"/>
<rect x="32.3077" y="96.1643" width="3.20547" height="37.1538" rx="0.25" transform="rotate(-90 32.3077 96.1643)" fill="#4FB573"/>
<rect width="3.24934" height="7.87933" rx="0.25" transform="matrix(0.626739 -0.77923 0.777479 0.628909 14 54.7898)" fill="#FFC432"/>
<rect width="3.24934" height="7.87933" rx="0.25" transform="matrix(0.626739 -0.779229 0.777479 0.628909 14 75.3049)" fill="#FFC432"/>
<rect width="3.24934" height="7.87933" rx="0.25" transform="matrix(0.626739 -0.779229 0.777479 0.628909 14 94.5378)" fill="#FFC432"/>
<rect width="3.21242" height="14.0242" rx="0.25" transform="matrix(0.777479 0.628909 -0.626739 0.77923 26.4219 46.8)" fill="#FFC432"/>
<rect width="3.21241" height="14.0242" rx="0.25" transform="matrix(0.777479 0.628909 -0.626739 0.779229 26.4219 67.3152)" fill="#FFC432"/>
<rect width="3.21242" height="14.0242" rx="0.25" transform="matrix(0.777479 0.628909 -0.626739 0.77923 26.4219 86.5479)" fill="#FFC432"/>
<mask id="path-11-inside-2" fill="white">
<path fill-rule="evenodd" clip-rule="evenodd" d="M25.1959 14.4247C27.5244 7.88849 33.8071 3.20557 41.1923 3.20557C48.5775 3.20557 54.8602 7.88849 57.1887 14.4247H72.4423C72.5804 14.4247 72.6923 14.5367 72.6923 14.6747V36.6131C72.6923 36.7512 72.5804 36.8631 72.4423 36.8631H41.1923H11.5577C11.4196 36.8631 11.3077 36.7512 11.3077 36.6131V14.6747C11.3077 14.5367 11.4196 14.4247 11.5577 14.4247H25.1959Z"/>
</mask>
<path fill-rule="evenodd" clip-rule="evenodd" d="M25.1959 14.4247C27.5244 7.88849 33.8071 3.20557 41.1923 3.20557C48.5775 3.20557 54.8602 7.88849 57.1887 14.4247H72.4423C72.5804 14.4247 72.6923 14.5367 72.6923 14.6747V36.6131C72.6923 36.7512 72.5804 36.8631 72.4423 36.8631H41.1923H11.5577C11.4196 36.8631 11.3077 36.7512 11.3077 36.6131V14.6747C11.3077 14.5367 11.4196 14.4247 11.5577 14.4247H25.1959Z" fill="white"/>
<path d="M25.1959 14.4247V17.4247H27.3119L28.0219 15.4315L25.1959 14.4247ZM57.1887 14.4247L54.3627 15.4315L55.0727 17.4247H57.1887V14.4247ZM28.0219 15.4315C29.9339 10.0644 35.1033 6.20557 41.1923 6.20557V0.205566C32.511 0.205566 25.1148 5.7126 22.3699 13.418L28.0219 15.4315ZM41.1923 6.20557C47.2814 6.20557 52.4507 10.0644 54.3627 15.4315L60.0147 13.418C57.2698 5.71261 49.8736 0.205566 41.1923 0.205566V6.20557ZM57.1887 17.4247H72.4423V11.4247H57.1887V17.4247ZM72.4423 17.4247C70.9235 17.4247 69.6923 16.1935 69.6923 14.6747H75.6923C75.6923 12.8798 74.2372 11.4247 72.4423 11.4247V17.4247ZM69.6923 14.6747V36.6131H75.6923V14.6747H69.6923ZM69.6923 36.6131C69.6923 35.0943 70.9235 33.8631 72.4423 33.8631V39.8631C74.2373 39.8631 75.6923 38.408 75.6923 36.6131H69.6923ZM72.4423 33.8631H41.1923V39.8631H72.4423V33.8631ZM41.1923 33.8631H11.5577V39.8631H41.1923V33.8631ZM11.5577 33.8631C13.0765 33.8631 14.3077 35.0943 14.3077 36.6131H8.30769C8.30769 38.408 9.76273 39.8631 11.5577 39.8631V33.8631ZM14.3077 36.6131V14.6747H8.30769V36.6131H14.3077ZM14.3077 14.6747C14.3077 16.1935 13.0765 17.4247 11.5577 17.4247V11.4247C9.76276 11.4247 8.30769 12.8798 8.30769 14.6747H14.3077ZM11.5577 17.4247H25.1959V11.4247H11.5577V17.4247Z" fill="#4FB573" mask="url(#path-11-inside-2)"/>
</svg>
