<svg width="56" height="56" viewBox="0 0 56 56" fill="none" xmlns="http://www.w3.org/2000/svg">
<circle cx="28" cy="28" r="28" fill="#DCF0E3"/>
<path fill-rule="evenodd" clip-rule="evenodd" d="M25.8414 25.5013C25.6076 25.4279 25.5823 25.0723 25.8003 24.9605C28.3291 23.663 30.0648 20.9875 30.0648 17.8974C30.0648 13.5358 26.6067 10 22.341 10C18.0753 10 14.6172 13.5358 14.6172 17.8974C14.6172 20.9668 16.3298 23.6272 18.8311 24.9342C19.0483 25.0477 19.0202 25.4031 18.7859 25.4748C13.2999 27.1527 9.22577 32.6961 9.00908 39.3494C9.009 39.3519 9.00699 39.3538 9.00454 39.3538C9.00203 39.3538 9 39.3559 9 39.3584V39.9077V43.8923C9 44.4446 9.44771 44.8923 10 44.8923H34.5417C35.094 44.8923 35.5417 44.4446 35.5417 43.8923V39.9077V39.3584C35.5417 39.3559 35.5396 39.3538 35.5371 39.3538C35.5347 39.3538 35.5327 39.3519 35.5326 39.3494C35.317 32.7308 31.2841 27.2105 25.8414 25.5013Z" fill="white"/>
<path d="M35.5326 39.3494L34.5331 39.382L35.5326 39.3494ZM9.00908 39.3494L10.0085 39.382L9.00908 39.3494ZM18.8311 24.9342L18.368 25.8205L18.8311 24.9342ZM18.7859 25.4748L18.4935 24.5185L18.7859 25.4748ZM29.0648 17.8974C29.0648 20.6065 27.5443 22.9418 25.3438 24.0707L26.2567 25.8502C29.114 24.3843 31.0648 21.3685 31.0648 17.8974H29.0648ZM22.341 11C26.0336 11 29.0648 14.067 29.0648 17.8974H31.0648C31.0648 13.0046 27.1799 9 22.341 9V11ZM15.6172 17.8974C15.6172 14.067 18.6484 11 22.341 11V9C17.5022 9 13.6172 13.0046 13.6172 17.8974H15.6172ZM19.2942 24.0479C17.1174 22.9105 15.6172 20.5884 15.6172 17.8974H13.6172C13.6172 21.3453 15.5421 24.3439 18.368 25.8205L19.2942 24.0479ZM10.0085 39.382C10.2132 33.0996 14.0528 27.9681 19.0784 26.431L18.4935 24.5185C12.547 26.3372 8.23839 32.2926 8.00961 39.3169L10.0085 39.382ZM10 39.9077V39.3584H8V39.9077H10ZM10 43.8923V39.9077H8V43.8923H10ZM10 43.8923H10H8C8 44.9969 8.89543 45.8923 10 45.8923V43.8923ZM34.5417 43.8923H10V45.8923H34.5417V43.8923ZM34.5417 43.8923V43.8923V45.8923C35.6462 45.8923 36.5417 44.9969 36.5417 43.8923H34.5417ZM34.5417 39.9077V43.8923H36.5417V39.9077H34.5417ZM34.5417 39.3584V39.9077H36.5417V39.3584H34.5417ZM25.5418 26.4554C30.5288 28.0214 34.3296 33.1327 34.5331 39.382L36.5321 39.3169C36.3045 32.3289 32.0395 26.3995 26.141 24.5472L25.5418 26.4554ZM35.5371 38.3538C36.0803 38.3538 36.5148 38.786 36.5321 39.3169L34.5331 39.382C34.5506 39.9177 34.989 40.3538 35.5371 40.3538V38.3538ZM36.5417 39.3584C36.5417 38.8036 36.0919 38.3538 35.5371 38.3538V40.3538C34.9874 40.3538 34.5417 39.9082 34.5417 39.3584H36.5417ZM8.00961 39.3169C8.02689 38.7861 8.46127 38.3538 9.00454 38.3538V40.3538C9.55271 40.3538 9.9911 39.9176 10.0085 39.382L8.00961 39.3169ZM18.368 25.8205C18.0452 25.6518 17.9651 25.3352 17.9811 25.1387C17.9973 24.9407 18.1323 24.6289 18.4935 24.5185L19.0784 26.431C19.6738 26.2489 19.94 25.7237 19.9745 25.3016C20.0089 24.8812 19.8342 24.3301 19.2942 24.0479L18.368 25.8205ZM9.00454 38.3538C8.44975 38.3538 8 38.8036 8 39.3584H10C10 39.9082 9.55432 40.3538 9.00454 40.3538V38.3538ZM25.3438 24.0707C24.8017 24.3488 24.623 24.8986 24.6541 25.3192C24.6855 25.7415 24.9477 26.2688 25.5418 26.4554L26.141 24.5472C26.5013 24.6604 26.634 24.9732 26.6487 25.1714C26.6632 25.3679 26.5808 25.6839 26.2567 25.8502L25.3438 24.0707Z" fill="#4FB573"/>
<path d="M16.0417 27.7231V34.9231M28.5001 27.7231V34.9231" stroke="#4FB573"/>
<mask id="path-5-inside-1" fill="white">
<rect x="13.875" y="33.8154" width="16.7917" height="11.0769" rx="0.25"/>
</mask>
<rect x="13.875" y="33.8154" width="16.7917" height="11.0769" rx="0.25" fill="#B9E1C7" stroke="#4FB573" stroke-width="2" mask="url(#path-5-inside-1)"/>
<path d="M11.4375 15.5386H33.375" stroke="#4FB573" stroke-linecap="round"/>
<path d="M42.0417 13.3232L42.0417 33.8156" stroke="#4FB573" stroke-linecap="round"/>
<mask id="path-8-inside-2" fill="white">
<path fill-rule="evenodd" clip-rule="evenodd" d="M44.2083 29.3847C46.3024 29.3847 48 27.6489 48 25.5077C48 25.3548 47.9913 25.204 47.9745 25.0557C47.9684 25.0019 47.9439 24.952 47.9052 24.9143C47.225 24.2524 46.3047 23.8462 45.2917 23.8462C43.1976 23.8462 41.5 25.5819 41.5 27.7231C41.5 27.876 41.5087 28.0269 41.5255 28.1752C41.5316 28.2289 41.5561 28.2789 41.5948 28.3166C42.275 28.9784 43.1953 29.3847 44.2083 29.3847Z"/>
</mask>
<path fill-rule="evenodd" clip-rule="evenodd" d="M44.2083 29.3847C46.3024 29.3847 48 27.6489 48 25.5077C48 25.3548 47.9913 25.204 47.9745 25.0557C47.9684 25.0019 47.9439 24.952 47.9052 24.9143C47.225 24.2524 46.3047 23.8462 45.2917 23.8462C43.1976 23.8462 41.5 25.5819 41.5 27.7231C41.5 27.876 41.5087 28.0269 41.5255 28.1752C41.5316 28.2289 41.5561 28.2789 41.5948 28.3166C42.275 28.9784 43.1953 29.3847 44.2083 29.3847Z" fill="white"/>
<path d="M47.9745 25.0557L48.9681 24.9428L47.9745 25.0557ZM47 25.5077C47 27.1177 45.7293 28.3847 44.2083 28.3847V30.3847C46.8755 30.3847 49 28.1801 49 25.5077H47ZM46.9809 25.1685C46.9935 25.2794 47 25.3926 47 25.5077H49C49 25.317 48.9892 25.1285 48.9681 24.9428L46.9809 25.1685ZM45.2917 24.8462C46.0309 24.8462 46.7045 25.1413 47.2078 25.631L48.6025 24.1976C47.7455 23.3636 46.5786 22.8462 45.2917 22.8462V24.8462ZM42.5 27.7231C42.5 26.1132 43.7707 24.8462 45.2917 24.8462V22.8462C42.6245 22.8462 40.5 25.0507 40.5 27.7231H42.5ZM42.5191 28.0623C42.5065 27.9514 42.5 27.8383 42.5 27.7231H40.5C40.5 27.9138 40.5108 28.1023 40.5319 28.288L42.5191 28.0623ZM44.2083 28.3847C43.4691 28.3847 42.7955 28.0896 42.2922 27.5999L40.8975 29.0333C41.7545 29.8673 42.9214 30.3847 44.2083 30.3847V28.3847ZM40.5319 28.288C40.564 28.5709 40.693 28.8343 40.8975 29.0333L42.2922 27.5999C42.4192 27.7234 42.4992 27.8869 42.5191 28.0623L40.5319 28.288ZM48.9681 24.9428C48.936 24.6599 48.807 24.3965 48.6025 24.1976L47.2078 25.631C47.0808 25.5074 47.0008 25.3439 46.9809 25.1685L48.9681 24.9428Z" fill="#4FB573" mask="url(#path-8-inside-2)"/>
<mask id="path-10-inside-3" fill="white">
<path fill-rule="evenodd" clip-rule="evenodd" d="M44.2083 22.7387C46.3024 22.7387 48 21.0029 48 18.8617C48 18.7088 47.9913 18.558 47.9745 18.4097C47.9684 18.3559 47.9439 18.306 47.9052 18.2683C47.225 17.6064 46.3047 17.2002 45.2917 17.2002C43.1976 17.2002 41.5 18.936 41.5 21.0771C41.5 21.23 41.5087 21.3809 41.5255 21.5292C41.5316 21.5829 41.5561 21.6329 41.5948 21.6706C42.275 22.3324 43.1953 22.7387 44.2083 22.7387Z"/>
</mask>
<path fill-rule="evenodd" clip-rule="evenodd" d="M44.2083 22.7387C46.3024 22.7387 48 21.0029 48 18.8617C48 18.7088 47.9913 18.558 47.9745 18.4097C47.9684 18.3559 47.9439 18.306 47.9052 18.2683C47.225 17.6064 46.3047 17.2002 45.2917 17.2002C43.1976 17.2002 41.5 18.936 41.5 21.0771C41.5 21.23 41.5087 21.3809 41.5255 21.5292C41.5316 21.5829 41.5561 21.6329 41.5948 21.6706C42.275 22.3324 43.1953 22.7387 44.2083 22.7387Z" fill="white"/>
<path d="M41.5948 21.6706L40.8975 22.3873L41.5948 21.6706ZM47.9745 18.4097L48.9681 18.2968L47.9745 18.4097ZM47 18.8617C47 20.4717 45.7293 21.7387 44.2083 21.7387V23.7387C46.8755 23.7387 49 21.5341 49 18.8617H47ZM46.9809 18.5225C46.9935 18.6334 47 18.7466 47 18.8617H49C49 18.671 48.9892 18.4825 48.9681 18.2968L46.9809 18.5225ZM45.2917 18.2002C46.0309 18.2002 46.7045 18.4953 47.2078 18.985L48.6025 17.5516C47.7455 16.7176 46.5786 16.2002 45.2917 16.2002V18.2002ZM42.5 21.0771C42.5 19.4672 43.7707 18.2002 45.2917 18.2002V16.2002C42.6245 16.2002 40.5 18.4047 40.5 21.0771H42.5ZM42.5191 21.4163C42.5065 21.3054 42.5 21.1923 42.5 21.0771H40.5C40.5 21.2678 40.5108 21.4563 40.5319 21.642L42.5191 21.4163ZM44.2083 21.7387C43.4691 21.7387 42.7955 21.4436 42.2922 20.9539L40.8975 22.3873C41.7545 23.2213 42.9214 23.7387 44.2083 23.7387V21.7387ZM40.5319 21.642C40.564 21.9249 40.693 22.1883 40.8975 22.3873L42.2922 20.9539C42.4192 21.0774 42.4992 21.2409 42.5191 21.4163L40.5319 21.642ZM48.9681 18.2968C48.936 18.0139 48.807 17.7505 48.6025 17.5516L47.2078 18.985C47.0808 18.8614 47.0008 18.6979 46.9809 18.5225L48.9681 18.2968Z" fill="#4FB573" mask="url(#path-10-inside-3)"/>
<mask id="path-12-inside-4" fill="white">
<path fill-rule="evenodd" clip-rule="evenodd" d="M44.2083 16.0922C46.3024 16.0922 48 14.3564 48 12.2152C48 12.0623 47.9913 11.9115 47.9745 11.7632C47.9684 11.7095 47.9439 11.6595 47.9052 11.6218C47.225 10.9599 46.3047 10.5537 45.2917 10.5537C43.1976 10.5537 41.5 12.2895 41.5 14.4306C41.5 14.5835 41.5087 14.7344 41.5255 14.8827C41.5316 14.9364 41.5561 14.9864 41.5948 15.0241C42.275 15.6859 43.1953 16.0922 44.2083 16.0922Z"/>
</mask>
<path fill-rule="evenodd" clip-rule="evenodd" d="M44.2083 16.0922C46.3024 16.0922 48 14.3564 48 12.2152C48 12.0623 47.9913 11.9115 47.9745 11.7632C47.9684 11.7095 47.9439 11.6595 47.9052 11.6218C47.225 10.9599 46.3047 10.5537 45.2917 10.5537C43.1976 10.5537 41.5 12.2895 41.5 14.4306C41.5 14.5835 41.5087 14.7344 41.5255 14.8827C41.5316 14.9364 41.5561 14.9864 41.5948 15.0241C42.275 15.6859 43.1953 16.0922 44.2083 16.0922Z" fill="white"/>
<path d="M41.5255 14.8827L40.5319 14.9955L41.5255 14.8827ZM41.5948 15.0241L40.8975 15.7408L41.5948 15.0241ZM47.9745 11.7632L48.9681 11.6503L47.9745 11.7632ZM47.9052 11.6218L48.6025 10.9051L47.9052 11.6218ZM47 12.2152C47 13.8252 45.7293 15.0922 44.2083 15.0922V17.0922C46.8755 17.0922 49 14.8876 49 12.2152H47ZM46.9809 11.876C46.9935 11.9869 47 12.1001 47 12.2152H49C49 12.0246 48.9892 11.836 48.9681 11.6503L46.9809 11.876ZM45.2917 11.5537C46.0309 11.5537 46.7045 11.8488 47.2078 12.3385L48.6025 10.9051C47.7455 10.0711 46.5786 9.55371 45.2917 9.55371V11.5537ZM42.5 14.4306C42.5 12.8207 43.7707 11.5537 45.2917 11.5537V9.55371C42.6245 9.55371 40.5 11.7583 40.5 14.4306H42.5ZM42.5191 14.7698C42.5065 14.6589 42.5 14.5458 42.5 14.4306H40.5C40.5 14.6213 40.5108 14.8098 40.5319 14.9955L42.5191 14.7698ZM44.2083 15.0922C43.4691 15.0922 42.7955 14.7971 42.2922 14.3074L40.8975 15.7408C41.7545 16.5748 42.9214 17.0922 44.2083 17.0922V15.0922ZM40.5319 14.9955C40.564 15.2784 40.693 15.5418 40.8975 15.7408L42.2922 14.3074C42.4192 14.4309 42.4992 14.5944 42.5191 14.7698L40.5319 14.9955ZM48.9681 11.6503C48.936 11.3675 48.807 11.104 48.6025 10.9051L47.2078 12.3385C47.0808 12.2149 47.0008 12.0515 46.9809 11.876L48.9681 11.6503Z" fill="#4FB573" mask="url(#path-12-inside-4)"/>
<mask id="path-14-inside-5" fill="white">
<path fill-rule="evenodd" clip-rule="evenodd" d="M39.8749 29.3847C37.7808 29.3847 36.0833 27.6489 36.0833 25.5077C36.0833 25.3548 36.0919 25.204 36.1088 25.0557C36.1149 25.0019 36.1393 24.952 36.1781 24.9143C36.8583 24.2524 37.7785 23.8462 38.7916 23.8462C40.8857 23.8462 42.5833 25.5819 42.5833 27.7231C42.5833 27.876 42.5746 28.0269 42.5578 28.1752C42.5516 28.2289 42.5272 28.2789 42.4884 28.3166C41.8082 28.9784 40.888 29.3847 39.8749 29.3847Z"/>
</mask>
<path fill-rule="evenodd" clip-rule="evenodd" d="M39.8749 29.3847C37.7808 29.3847 36.0833 27.6489 36.0833 25.5077C36.0833 25.3548 36.0919 25.204 36.1088 25.0557C36.1149 25.0019 36.1393 24.952 36.1781 24.9143C36.8583 24.2524 37.7785 23.8462 38.7916 23.8462C40.8857 23.8462 42.5833 25.5819 42.5833 27.7231C42.5833 27.876 42.5746 28.0269 42.5578 28.1752C42.5516 28.2289 42.5272 28.2789 42.4884 28.3166C41.8082 28.9784 40.888 29.3847 39.8749 29.3847Z" fill="white"/>
<path d="M36.1088 25.0557L35.1151 24.9428L36.1088 25.0557ZM36.1781 24.9143L35.4807 24.1976L36.1781 24.9143ZM37.0833 25.5077C37.0833 27.1177 38.354 28.3847 39.8749 28.3847V30.3847C37.2077 30.3847 35.0833 28.1801 35.0833 25.5077H37.0833ZM37.1024 25.1685C37.0898 25.2794 37.0833 25.3926 37.0833 25.5077H35.0833C35.0833 25.317 35.0941 25.1285 35.1151 24.9428L37.1024 25.1685ZM38.7916 24.8462C38.0524 24.8462 37.3787 25.1413 36.8755 25.631L35.4807 24.1976C36.3378 23.3636 37.5047 22.8462 38.7916 22.8462V24.8462ZM41.5833 27.7231C41.5833 26.1132 40.3125 24.8462 38.7916 24.8462V22.8462C41.4588 22.8462 43.5833 25.0507 43.5833 27.7231H41.5833ZM41.5641 28.0623C41.5767 27.9514 41.5833 27.8383 41.5833 27.7231H43.5833C43.5833 27.9138 43.5725 28.1023 43.5514 28.288L41.5641 28.0623ZM39.8749 28.3847C40.6142 28.3847 41.2878 28.0896 41.791 27.5999L43.1858 29.0333C42.3287 29.8673 41.1618 30.3847 39.8749 30.3847V28.3847ZM43.5514 28.288C43.5192 28.5709 43.3903 28.8343 43.1858 29.0333L41.791 27.5999C41.6641 27.7234 41.5841 27.8869 41.5641 28.0623L43.5514 28.288ZM35.1151 24.9428C35.1473 24.6599 35.2762 24.3965 35.4807 24.1976L36.8755 25.631C37.0024 25.5074 37.0824 25.3439 37.1024 25.1685L35.1151 24.9428Z" fill="#4FB573" mask="url(#path-14-inside-5)"/>
<mask id="path-16-inside-6" fill="white">
<path fill-rule="evenodd" clip-rule="evenodd" d="M39.8749 22.7387C37.7808 22.7387 36.0833 21.0029 36.0833 18.8617C36.0833 18.7088 36.0919 18.558 36.1088 18.4097C36.1149 18.3559 36.1393 18.306 36.1781 18.2683C36.8583 17.6064 37.7785 17.2002 38.7916 17.2002C40.8857 17.2002 42.5833 18.936 42.5833 21.0771C42.5833 21.23 42.5746 21.3809 42.5578 21.5292C42.5516 21.5829 42.5272 21.6329 42.4884 21.6706C41.8082 22.3324 40.888 22.7387 39.8749 22.7387Z"/>
</mask>
<path fill-rule="evenodd" clip-rule="evenodd" d="M39.8749 22.7387C37.7808 22.7387 36.0833 21.0029 36.0833 18.8617C36.0833 18.7088 36.0919 18.558 36.1088 18.4097C36.1149 18.3559 36.1393 18.306 36.1781 18.2683C36.8583 17.6064 37.7785 17.2002 38.7916 17.2002C40.8857 17.2002 42.5833 18.936 42.5833 21.0771C42.5833 21.23 42.5746 21.3809 42.5578 21.5292C42.5516 21.5829 42.5272 21.6329 42.4884 21.6706C41.8082 22.3324 40.888 22.7387 39.8749 22.7387Z" fill="white"/>
<path d="M42.5578 21.5292L43.5514 21.642L42.5578 21.5292ZM42.4884 21.6706L41.791 20.9539L42.4884 21.6706ZM36.1088 18.4097L35.1151 18.2968L36.1088 18.4097ZM36.1781 18.2683L35.4807 17.5516L36.1781 18.2683ZM37.0833 18.8617C37.0833 20.4717 38.354 21.7387 39.8749 21.7387V23.7387C37.2077 23.7387 35.0833 21.5341 35.0833 18.8617H37.0833ZM37.1024 18.5225C37.0898 18.6334 37.0833 18.7466 37.0833 18.8617H35.0833C35.0833 18.671 35.0941 18.4825 35.1151 18.2968L37.1024 18.5225ZM38.7916 18.2002C38.0524 18.2002 37.3787 18.4953 36.8755 18.985L35.4807 17.5516C36.3378 16.7176 37.5047 16.2002 38.7916 16.2002V18.2002ZM41.5833 21.0771C41.5833 19.4672 40.3125 18.2002 38.7916 18.2002V16.2002C41.4588 16.2002 43.5833 18.4047 43.5833 21.0771H41.5833ZM41.5641 21.4163C41.5767 21.3054 41.5833 21.1923 41.5833 21.0771H43.5833C43.5833 21.2678 43.5725 21.4563 43.5514 21.642L41.5641 21.4163ZM39.8749 21.7387C40.6142 21.7387 41.2878 21.4436 41.791 20.9539L43.1858 22.3873C42.3287 23.2213 41.1618 23.7387 39.8749 23.7387V21.7387ZM43.5514 21.642C43.5192 21.9249 43.3903 22.1883 43.1858 22.3873L41.791 20.9539C41.6641 21.0774 41.5841 21.2409 41.5641 21.4163L43.5514 21.642ZM35.1151 18.2968C35.1473 18.0139 35.2762 17.7505 35.4807 17.5516L36.8755 18.985C37.0024 18.8614 37.0824 18.6979 37.1024 18.5225L35.1151 18.2968Z" fill="#4FB573" mask="url(#path-16-inside-6)"/>
<mask id="path-18-inside-7" fill="white">
<path fill-rule="evenodd" clip-rule="evenodd" d="M39.8749 16.0922C37.7808 16.0922 36.0833 14.3564 36.0833 12.2152C36.0833 12.0623 36.0919 11.9115 36.1088 11.7632C36.1149 11.7095 36.1393 11.6595 36.1781 11.6218C36.8583 10.9599 37.7785 10.5537 38.7916 10.5537C40.8857 10.5537 42.5833 12.2895 42.5833 14.4306C42.5833 14.5835 42.5746 14.7344 42.5578 14.8827C42.5516 14.9364 42.5272 14.9864 42.4884 15.0241C41.8082 15.6859 40.888 16.0922 39.8749 16.0922Z"/>
</mask>
<path fill-rule="evenodd" clip-rule="evenodd" d="M39.8749 16.0922C37.7808 16.0922 36.0833 14.3564 36.0833 12.2152C36.0833 12.0623 36.0919 11.9115 36.1088 11.7632C36.1149 11.7095 36.1393 11.6595 36.1781 11.6218C36.8583 10.9599 37.7785 10.5537 38.7916 10.5537C40.8857 10.5537 42.5833 12.2895 42.5833 14.4306C42.5833 14.5835 42.5746 14.7344 42.5578 14.8827C42.5516 14.9364 42.5272 14.9864 42.4884 15.0241C41.8082 15.6859 40.888 16.0922 39.8749 16.0922Z" fill="white"/>
<path d="M42.5578 14.8827L41.5641 14.7698L42.5578 14.8827ZM36.1088 11.7632L35.1151 11.6503L36.1088 11.7632ZM36.1781 11.6218L36.8755 12.3385L36.1781 11.6218ZM37.0833 12.2152C37.0833 13.8252 38.354 15.0922 39.8749 15.0922V17.0922C37.2077 17.0922 35.0833 14.8876 35.0833 12.2152H37.0833ZM37.1024 11.876C37.0898 11.9869 37.0833 12.1001 37.0833 12.2152H35.0833C35.0833 12.0246 35.0941 11.836 35.1151 11.6503L37.1024 11.876ZM38.7916 11.5537C38.0524 11.5537 37.3787 11.8488 36.8755 12.3385L35.4807 10.9051C36.3378 10.0711 37.5047 9.55371 38.7916 9.55371V11.5537ZM41.5833 14.4306C41.5833 12.8207 40.3125 11.5537 38.7916 11.5537V9.55371C41.4588 9.55371 43.5833 11.7583 43.5833 14.4306H41.5833ZM41.5641 14.7698C41.5767 14.6589 41.5833 14.5458 41.5833 14.4306H43.5833C43.5833 14.6213 43.5725 14.8099 43.5514 14.9955L41.5641 14.7698ZM39.8749 15.0922C40.6142 15.0922 41.2878 14.7971 41.791 14.3074L43.1858 15.7408C42.3287 16.5748 41.1618 17.0922 39.8749 17.0922V15.0922ZM43.5514 14.9955C43.5192 15.2784 43.3903 15.5418 43.1858 15.7408L41.791 14.3074C41.6641 14.4309 41.5841 14.5944 41.5641 14.7698L43.5514 14.9955ZM35.1151 11.6503C35.1473 11.3675 35.2762 11.104 35.4807 10.9051L36.8755 12.3385C37.0024 12.2149 37.0824 12.0515 37.1024 11.876L35.1151 11.6503Z" fill="#4FB573" mask="url(#path-18-inside-7)"/>
</svg>
