<svg width="21" height="24" viewBox="0 0 21 24" fill="none" xmlns="http://www.w3.org/2000/svg">
<path fill-rule="evenodd" clip-rule="evenodd" d="M5.24662 14C4.60687 14 4.13165 14.5924 4.27043 15.2169L5.82599 22.2169C5.92767 22.6745 6.33348 23 6.80218 23H17.1978C17.6665 23 18.0723 22.6745 18.174 22.2169L19.7296 15.2169C19.8684 14.5924 19.3931 14 18.7534 14H5.24662ZM7.00001 16V21H9.00001V16H7.00001ZM11 16V21H13V16H11ZM15 21V16H17V21H15Z" fill="#4FB573"/>
<rect x="21" y="14" width="2" height="18" rx="0.25" transform="rotate(90 21 14)" fill="#4FB573"/>
<path d="M7 12C7 10.8954 7.89543 10 9 10H15C16.1046 10 17 10.8954 17 12V15H7V12Z" stroke="#4FB573" stroke-width="2"/>
<g clip-path="url(#clip0_408_14691)">
<mask id="path-4-outside-1_408_14691" maskUnits="userSpaceOnUse" x="3" y="3.5" width="15" height="11" fill="black">
<rect fill="white" x="3" y="3.5" width="15" height="11"/>
<path fill-rule="evenodd" clip-rule="evenodd" d="M4.25 6.5C4.11193 6.5 4 6.38807 4 6.25L4 4.75C4 4.61193 4.11193 4.5 4.25 4.5L13.209 4.5C13.4852 4.5 13.709 4.72386 13.709 5V9.69097L15.2232 8.17678C15.3209 8.07915 15.4791 8.07915 15.5768 8.17678L16.6374 9.23744C16.7351 9.33507 16.7351 9.49336 16.6374 9.59099L13.998 12.2304C13.992 12.238 13.9856 12.2452 13.9786 12.2522L12.918 13.3128C12.8203 13.4105 12.662 13.4105 12.5644 13.3128L8.84256 9.59099C8.74493 9.49336 8.74493 9.33507 8.84256 9.23744L9.90322 8.17678C10.0009 8.07914 10.1591 8.07914 10.2568 8.17677L11.709 9.62903V6.75C11.709 6.61193 11.5971 6.5 11.459 6.5L4.25 6.5Z"/>
</mask>
<path fill-rule="evenodd" clip-rule="evenodd" d="M4.25 6.5C4.11193 6.5 4 6.38807 4 6.25L4 4.75C4 4.61193 4.11193 4.5 4.25 4.5L13.209 4.5C13.4852 4.5 13.709 4.72386 13.709 5V9.69097L15.2232 8.17678C15.3209 8.07915 15.4791 8.07915 15.5768 8.17678L16.6374 9.23744C16.7351 9.33507 16.7351 9.49336 16.6374 9.59099L13.998 12.2304C13.992 12.238 13.9856 12.2452 13.9786 12.2522L12.918 13.3128C12.8203 13.4105 12.662 13.4105 12.5644 13.3128L8.84256 9.59099C8.74493 9.49336 8.74493 9.33507 8.84256 9.23744L9.90322 8.17678C10.0009 8.07914 10.1591 8.07914 10.2568 8.17677L11.709 9.62903V6.75C11.709 6.61193 11.5971 6.5 11.459 6.5L4.25 6.5Z" fill="#4FB573"/>
<path d="M4.25 6.5L4.25 5.5H4.25V6.5ZM13.709 9.69097H12.709L12.709 12.1052L14.4161 10.3981L13.709 9.69097ZM15.2232 8.17678L14.5161 7.46967L14.5161 7.46967L15.2232 8.17678ZM15.5768 8.17678L16.2839 7.46967L16.2839 7.46967L15.5768 8.17678ZM16.6374 9.23744L17.3445 8.53033L17.3445 8.53033L16.6374 9.23744ZM16.6374 9.59099L17.3445 10.2981L17.3445 10.2981L16.6374 9.59099ZM13.998 12.2304L13.2909 11.5233L13.2501 11.5642L13.2142 11.6094L13.998 12.2304ZM13.9786 12.2522L14.6857 12.9593L13.9786 12.2522ZM12.918 13.3128L12.2109 12.6057L12.2108 12.6057L12.918 13.3128ZM8.84256 9.23744L9.54967 9.94454H9.54967L8.84256 9.23744ZM9.90322 8.17678L9.19612 7.46967L9.19612 7.46967L9.90322 8.17678ZM11.709 9.62903L11.0019 10.3361L12.709 12.0432L12.709 9.62903L11.709 9.62903ZM11.459 6.5V7.5V6.5ZM3 6.25C3 6.94036 3.55964 7.5 4.25 7.5L4.25 5.5C4.66421 5.5 5 5.83579 5 6.25H3ZM3 4.75V6.25H5V4.75H3ZM4.25 3.5C3.55964 3.5 3 4.05964 3 4.75H5C5 5.16421 4.66421 5.5 4.25 5.5V3.5ZM13.209 3.5L4.25 3.5V5.5L13.209 5.5V3.5ZM14.709 5C14.709 4.17158 14.0375 3.5 13.209 3.5V5.5C12.9329 5.5 12.709 5.27614 12.709 5H14.709ZM14.709 9.69097V5H12.709V9.69097H14.709ZM14.5161 7.46967L13.0019 8.98386L14.4161 10.3981L15.9303 8.88388L14.5161 7.46967ZM16.2839 7.46967C15.7957 6.98151 15.0043 6.98151 14.5161 7.46967L15.9303 8.88388C15.6374 9.17678 15.1626 9.17678 14.8697 8.88388L16.2839 7.46967ZM17.3445 8.53033L16.2839 7.46967L14.8697 8.88388L15.9303 9.94454L17.3445 8.53033ZM17.3445 10.2981C17.8327 9.80994 17.8327 9.01849 17.3445 8.53033L15.9303 9.94454C15.6374 9.65165 15.6374 9.17678 15.9303 8.88388L17.3445 10.2981ZM14.7051 12.9375L17.3445 10.2981L15.9303 8.88388L13.2909 11.5233L14.7051 12.9375ZM14.6857 12.9593C14.7199 12.9251 14.752 12.8891 14.7818 12.8514L13.2142 11.6094C13.2321 11.5868 13.2512 11.5653 13.2715 11.5451L14.6857 12.9593ZM13.6251 14.0199L14.6857 12.9593L13.2715 11.5451L12.2109 12.6057L13.6251 14.0199ZM11.8573 14.0199C12.3455 14.5081 13.1369 14.5081 13.6251 14.0199L12.2108 12.6057C12.5037 12.3128 12.9786 12.3128 13.2715 12.6057L11.8573 14.0199ZM8.13546 10.2981L11.8573 14.0199L13.2715 12.6057L9.54967 8.88388L8.13546 10.2981ZM8.13546 8.53033C7.6473 9.01848 7.6473 9.80994 8.13546 10.2981L9.54967 8.88388C9.84256 9.17677 9.84256 9.65165 9.54967 9.94454L8.13546 8.53033ZM9.19612 7.46967L8.13546 8.53033L9.54967 9.94454L10.6103 8.88388L9.19612 7.46967ZM10.9639 7.46967C10.4757 6.98151 9.68427 6.98152 9.19612 7.46967L10.6103 8.88388C10.3174 9.17677 9.84257 9.17678 9.54967 8.88388L10.9639 7.46967ZM12.4161 8.92192L10.9639 7.46967L9.54967 8.88388L11.0019 10.3361L12.4161 8.92192ZM10.709 6.75V9.62903L12.709 9.62903V6.75L10.709 6.75ZM11.459 7.5C11.0448 7.5 10.709 7.16422 10.709 6.75L12.709 6.75C12.709 6.05964 12.1494 5.5 11.459 5.5V7.5ZM4.25 7.5L11.459 7.5V5.5L4.25 5.5L4.25 7.5Z" fill="white" mask="url(#path-4-outside-1_408_14691)"/>
</g>
<defs>
<clipPath id="clip0_408_14691">
<rect width="14" height="14" fill="white" transform="translate(4)"/>
</clipPath>
</defs>
</svg>
