<?xml version="1.0" encoding="UTF-8"?>
<svg width="63" height="63" fill="none" version="1.1" viewBox="0 0 63 63" xmlns="http://www.w3.org/2000/svg">
 <mask id="mask0_5314_8664" x="45" y="46" width="71" height="71" maskUnits="userSpaceOnUse">
  <path d="m115.28 81.5c0 19.209-15.572 34.781-34.781 34.781s-34.781-15.572-34.781-34.781c0-19.209 15.572-34.781 34.781-34.781s34.781 15.572 34.781 34.781z" fill="#fff"/>
 </mask>
 <g transform="matrix(.39605 0 0 .39605 -.25879 -.77786)">
  <path d="m74.135 3.7054c3.9384-2.2739 8.7909-2.2739 12.73 0l57.825 33.385c3.939 2.2739 6.365 6.4762 6.365 11.024v66.77c0 4.548-2.426 8.75-6.365 11.024l-57.825 33.385c-3.9386 2.274-8.7911 2.274-12.73 0l-57.825-33.385c-3.9385-2.274-6.3647-6.476-6.3647-11.024v-66.77c0-4.5479 2.4262-8.7502 6.3647-11.024z" fill="url(#paint0_linear_5314_8664)"/>
  <path d="m115.28 81.5c0 19.209-15.572 34.781-34.781 34.781s-34.781-15.572-34.781-34.781c0-19.209 15.572-34.781 34.781-34.781s34.781 15.572 34.781 34.781z" fill="#fff"/>
  <g mask="url(#mask0_5314_8664)">
   <path d="m74.955 153.58c22.272 0 40.326-18.055 40.326-40.326 0-22.272-18.054-40.326-40.326-40.326s-40.326 18.055-40.326 40.326c0 22.271 18.055 40.326 40.326 40.326z" fill="url(#paint1_linear_5314_8664)"/>
   <g filter="url(#filter0_i_5314_8664)">
    <path d="m100.66 145.52c22.272 0 40.326-18.054 40.326-40.326 0-22.271-18.054-40.326-40.326-40.326-22.271 0-40.326 18.055-40.326 40.326 0 22.272 18.055 40.326 40.326 40.326z" fill="url(#paint2_linear_5314_8664)"/>
   </g>
   <path d="m80.5 167.7c22.272 0 40.326-18.054 40.326-40.326 0-22.271-18.054-40.326-40.326-40.326-22.272 0-40.326 18.055-40.326 40.326 0 22.272 18.055 40.326 40.326 40.326z" fill="url(#paint3_linear_5314_8664)"/>
   <g filter="url(#filter1_i_5314_8664)">
    <path d="m118.31 153.58c22.271 0 40.326-18.055 40.326-40.326 0-22.272-18.055-40.326-40.326-40.326-22.272 0-40.326 18.055-40.326 40.326 0 22.271 18.055 40.326 40.326 40.326z" fill="url(#paint4_linear_5314_8664)"/>
   </g>
  </g>
 </g>
 <defs>
  <filter id="filter0_i_5314_8664" x="60.337" y="64.866" width="80.652" height="83.584" color-interpolation-filters="sRGB" filterUnits="userSpaceOnUse">
   <feFlood flood-opacity="0" result="BackgroundImageFix"/>
   <feBlend in="SourceGraphic" in2="BackgroundImageFix" result="shape"/>
   <feColorMatrix in="SourceAlpha" result="hardAlpha" values="0 0 0 0 0 0 0 0 0 0 0 0 0 0 0 0 0 0 127 0"/>
   <feOffset dy="2.93141"/>
   <feGaussianBlur stdDeviation="3.66427"/>
   <feComposite in2="hardAlpha" k2="-1" k3="1" operator="arithmetic"/>
   <feColorMatrix values="0 0 0 0 0 0 0 0 0 0 0 0 0 0 0 0 0 0 0.1 0"/>
   <feBlend in2="shape" result="effect1_innerShadow_5314_8664"/>
  </filter>
  <filter id="filter1_i_5314_8664" x="77.98" y="72.93" width="80.652" height="83.584" color-interpolation-filters="sRGB" filterUnits="userSpaceOnUse">
   <feFlood flood-opacity="0" result="BackgroundImageFix"/>
   <feBlend in="SourceGraphic" in2="BackgroundImageFix" result="shape"/>
   <feColorMatrix in="SourceAlpha" result="hardAlpha" values="0 0 0 0 0 0 0 0 0 0 0 0 0 0 0 0 0 0 127 0"/>
   <feOffset dy="2.93141"/>
   <feGaussianBlur stdDeviation="3.66426"/>
   <feComposite in2="hardAlpha" k2="-1" k3="1" operator="arithmetic"/>
   <feColorMatrix values="0 0 0 0 0 0 0 0 0 0 0 0 0 0 0 0 0 0 0.1 0"/>
   <feBlend in2="shape" result="effect1_innerShadow_5314_8664"/>
  </filter>
  <linearGradient id="paint0_linear_5314_8664" x1="80.499" x2="80.499" y1="-.48136" y2="163.48" gradientUnits="userSpaceOnUse">
   <stop offset="0"/>
   <stop stop-color="#2D3749" offset="1"/>
  </linearGradient>
  <linearGradient id="paint1_linear_5314_8664" x1="40.987" x2="78.708" y1="88.533" y2="106.58" gradientUnits="userSpaceOnUse">
   <stop stop-color="#30FFB4" offset="0"/>
   <stop stop-color="#00B68A" offset="1"/>
  </linearGradient>
  <linearGradient id="paint2_linear_5314_8664" x1="69.376" x2="109.53" y1="85.975" y2="105.28" gradientUnits="userSpaceOnUse">
   <stop stop-color="#FFE353" offset="0"/>
   <stop stop-color="#01E887" offset="1"/>
  </linearGradient>
  <linearGradient id="paint3_linear_5314_8664" x1="57.817" x2="83.656" y1="107.46" y2="114.95" gradientUnits="userSpaceOnUse">
   <stop stop-color="#30FFB4" offset="0"/>
   <stop stop-color="#00B68A" offset="1"/>
  </linearGradient>
  <linearGradient id="paint4_linear_5314_8664" x1="85.851" x2="118.31" y1="97.108" y2="111.49" gradientUnits="userSpaceOnUse">
   <stop stop-color="#FFE353" offset="0"/>
   <stop stop-color="#01E887" offset="1"/>
  </linearGradient>
 </defs>
</svg>
