<svg width="69" height="81" viewBox="0 0 69 81" fill="none" xmlns="http://www.w3.org/2000/svg">
<path fill-rule="evenodd" clip-rule="evenodd" d="M37.4842 34.4748C37.2461 34.4105 37.2226 34.0647 37.4487 33.9663C43.3471 31.3978 47.471 25.5168 47.471 18.6727C47.471 9.46464 40.0064 2 30.7983 2C21.5902 2 14.1255 9.46464 14.1255 18.6727C14.1255 25.4733 18.1971 31.3229 24.0355 33.9169C24.2609 34.017 24.2348 34.3626 23.9962 34.4251C11.716 37.6424 2.49888 49.5723 2.0196 63.961C2.01943 63.9663 2.01509 63.9705 2.0098 63.9705C2.00439 63.9705 2 63.9749 2 63.9803V65.1398V69.9861C2 70.5384 2.44772 70.9861 3 70.9861H58.2936C58.8458 70.9861 59.2936 70.5384 59.2936 69.9861V65.1441L59.2936 65.1398L59.2936 65.1234V63.9803C59.2936 63.9749 59.2892 63.9705 59.2838 63.9705C59.2785 63.9705 59.2741 63.9663 59.274 63.961C58.7971 49.6454 49.6709 37.7636 37.4842 34.4748Z" fill="white"/>
<path d="M59.2936 65.1441L57.7936 65.1427V65.1441H59.2936ZM59.2936 65.1398L60.7936 65.1412V65.1395L59.2936 65.1398ZM59.2936 65.1234H57.7936V65.1237L59.2936 65.1234ZM24.0355 33.9169L23.4265 35.2877L24.0355 33.9169ZM23.9962 34.4251L24.3764 35.8761L23.9962 34.4251ZM59.274 63.961L57.7748 64.0109L59.274 63.961ZM2.0196 63.961L0.520433 63.9111L2.0196 63.961ZM37.4487 33.9663L36.8498 32.591L37.4487 33.9663ZM37.4842 34.4748L37.875 33.0266L37.4842 34.4748ZM45.971 18.6727C45.971 24.8988 42.2207 30.2522 36.8498 32.591L38.0476 35.3415C44.4736 32.5433 48.971 26.1349 48.971 18.6727H45.971ZM30.7983 3.5C39.1779 3.5 45.971 10.2931 45.971 18.6727H48.971C48.971 8.63621 40.8348 0.5 30.7983 0.5V3.5ZM15.6255 18.6727C15.6255 10.2931 22.4186 3.5 30.7983 3.5V0.5C20.7617 0.5 12.6255 8.63621 12.6255 18.6727H15.6255ZM24.6445 32.5461C19.3282 30.1841 15.6255 24.8592 15.6255 18.6727H12.6255C12.6255 26.0875 17.066 32.4618 23.4265 35.2877L24.6445 32.5461ZM3.51877 64.0109C3.97841 50.2117 12.8065 38.9073 24.3764 35.8761L23.6161 32.974C10.6255 36.3775 1.01935 48.9329 0.520433 63.9111L3.51877 64.0109ZM3.5 65.1398V63.9803H0.5V65.1398H3.5ZM3.5 69.9861V65.1398H0.5V69.9861H3.5ZM3 69.4861C3.27614 69.4861 3.5 69.7099 3.5 69.9861H0.5C0.5 71.3668 1.61929 72.4861 3 72.4861V69.4861ZM58.2936 69.4861H3V72.4861H58.2936V69.4861ZM57.7936 69.9861C57.7936 69.7099 58.0174 69.4861 58.2936 69.4861V72.4861C59.6743 72.4861 60.7936 71.3668 60.7936 69.9861H57.7936ZM57.7936 65.1441V69.9861H60.7936V65.1441H57.7936ZM57.7936 65.1385L57.7936 65.1427L60.7936 65.1454L60.7936 65.1412L57.7936 65.1385ZM57.7936 65.1237L57.7936 65.1402L60.7936 65.1395L60.7936 65.123L57.7936 65.1237ZM57.7936 63.9803V65.1234H60.7936V63.9803H57.7936ZM37.0934 35.923C48.5765 39.0219 57.3175 50.2822 57.7748 64.0109L60.7731 63.9111C60.2767 49.0085 50.7654 36.5053 37.875 33.0266L37.0934 35.923ZM23.4265 35.2877C22.8622 35.037 22.6625 34.484 22.6942 34.0706C22.726 33.6555 23.0111 33.1326 23.6161 32.974L24.3764 35.8761C26.0132 35.4473 26.141 33.211 24.6445 32.5461L23.4265 35.2877ZM60.7936 63.9803C60.7936 63.1465 60.1176 62.4705 59.2838 62.4705V65.4705C58.4607 65.4705 57.7936 64.8033 57.7936 63.9803H60.7936ZM59.2838 62.4705C60.0968 62.4705 60.7467 63.1172 60.7731 63.9111L57.7748 64.0109C57.8016 64.8154 58.4601 65.4705 59.2838 65.4705V62.4705ZM0.520433 63.9111C0.546885 63.1169 1.19701 62.4705 2.0098 62.4705V65.4705C2.83317 65.4705 3.49197 64.8157 3.51877 64.0109L0.520433 63.9111ZM2.0098 62.4705C1.17596 62.4705 0.5 63.1465 0.5 63.9803H3.5C3.5 64.8034 2.83281 65.4705 2.0098 65.4705V62.4705ZM36.8498 32.591C35.3489 33.2446 35.4592 35.4819 37.0934 35.923L37.875 33.0266C38.4789 33.1895 38.7601 33.7147 38.7888 34.13C38.8174 34.5436 38.6136 35.0951 38.0476 35.3415L36.8498 32.591Z" fill="#4FB573"/>
<path d="M38 39L59 39" stroke="#4FB573" stroke-width="3" stroke-linecap="round"/>
<path d="M42.0769 48.8551V39H55.3692V48.8551L67 79H31L42.0769 48.8551Z" fill="white" stroke="#4FB573" stroke-width="3" stroke-linejoin="round"/>
<path d="M31 79L37.6667 62.6538C37.6667 62.6538 41.6667 63.9615 45.6667 63.9615C49.6667 63.9615 50.3333 62 54.3333 62C58.3333 62 60.3333 62.6538 60.3333 62.6538L67 79H31Z" fill="#B9E1C7" stroke="#4FB573" stroke-width="3" stroke-linejoin="round"/>
</svg>
