<svg width="86" height="77" viewBox="0 0 86 77" fill="none" xmlns="http://www.w3.org/2000/svg">
<path d="M35.4824 32.4844C45.3652 32.9145 54.6225 35.7298 62.5454 40.3047" stroke="#4FB573" stroke-width="2" stroke-miterlimit="10" stroke-linecap="round"/>
<path d="M19.5461 28.9974L18.3433 21.6562L16.8398 29.5654V39.7031H35.4832V29.7497L32.6011 31.1322L29.9893 32.3763L30.0343 29.7037L26.792 31.1322L24.2702 32.2381V29.7037L21.3431 31.0861L19.8468 31.7503L19.5461 28.9974Z" fill="#7BC796"/>
<path d="M1.20312 40.3047C5.21791 37.9336 10.6256 35.8259 16.2381 34.2891" stroke="#4FB573" stroke-width="2" stroke-miterlimit="10" stroke-linecap="round"/>
<path d="M29.4688 51.7344C35.8465 47.2741 43.1353 43.8976 51.1695 42.0635C62.931 39.3123 74.1541 39.8125 84.7974 43.3974" stroke="#4FB573" stroke-width="2" stroke-miterlimit="10" stroke-linecap="round"/>
<path d="M6.61523 55.5042C17.7004 52.1808 28.6625 51.3602 40.9793 53.5758C52.0235 55.5452 62.4518 60.0174 71.5663 66.1719" stroke="#4FB573" stroke-width="2" stroke-miterlimit="10" stroke-linecap="round"/>
<mask id="path-6-inside-1" fill="white">
<path d="M18.2795 23.5498L19.1867 30.4255L19.4754 32.6488L21.4961 31.7018L24.1766 30.4667V32.7311L26.486 31.743L29.4552 30.4667L29.4139 32.8546L31.8058 31.743L34.4451 30.5078V39.4009H17.3722V30.3431L18.2795 23.5498ZM19.5991 20.9148H16.9598L15.7227 30.2196V41.0478H36.1359V27.914L31.146 30.2196L31.1872 27.914L25.8674 30.2196V27.914L20.8363 30.2196L19.5991 20.9148Z"/>
</mask>
<path d="M18.2795 23.5498L19.1867 30.4255L19.4754 32.6488L21.4961 31.7018L24.1766 30.4667V32.7311L26.486 31.743L29.4552 30.4667L29.4139 32.8546L31.8058 31.743L34.4451 30.5078V39.4009H17.3722V30.3431L18.2795 23.5498ZM19.5991 20.9148H16.9598L15.7227 30.2196V41.0478H36.1359V27.914L31.146 30.2196L31.1872 27.914L25.8674 30.2196V27.914L20.8363 30.2196L19.5991 20.9148Z" fill="black"/>
<path d="M18.2795 23.5498L21.2537 23.1573C21.0569 21.666 19.7861 20.551 18.2818 20.5498C16.7776 20.5486 15.505 21.6616 15.3059 23.1527L18.2795 23.5498ZM19.1867 30.4255L22.1617 30.0392L22.1609 30.033L19.1867 30.4255ZM19.4754 32.6488L16.5004 33.035C16.6237 33.9847 17.193 34.8185 18.0326 35.279C18.8722 35.7396 19.8813 35.7716 20.7484 35.3653L19.4754 32.6488ZM21.4961 31.7018L20.2406 28.9772C20.2347 28.9799 20.2289 28.9826 20.2231 28.9853L21.4961 31.7018ZM24.1766 30.4667H27.1766C27.1766 29.4439 26.6556 28.4916 25.7942 27.9402C24.9329 27.3887 23.85 27.314 22.9211 27.742L24.1766 30.4667ZM24.1766 32.7311H21.1766C21.1766 33.7392 21.6829 34.6799 22.5244 35.2351C23.3658 35.7904 24.4299 35.8858 25.3567 35.4892L24.1766 32.7311ZM26.486 31.743L27.6661 34.5011L27.6707 34.4991L26.486 31.743ZM29.4552 30.4667L32.4547 30.5185C32.4723 29.5004 31.9723 28.5429 31.1269 27.9756C30.2814 27.4082 29.2059 27.3084 28.2704 27.7105L29.4552 30.4667ZM29.4139 32.8546L26.4144 32.8028C26.3965 33.8364 26.912 34.8063 27.7786 35.3697C28.6453 35.9332 29.7409 36.0108 30.6783 35.5752L29.4139 32.8546ZM31.8058 31.743L33.0702 34.4635L33.0774 34.4602L31.8058 31.743ZM34.4451 30.5078H37.4451C37.4451 29.4819 36.9208 28.5272 36.0552 27.9765C35.1896 27.4259 34.1026 27.3558 33.1735 27.7907L34.4451 30.5078ZM34.4451 39.4009V42.4009C36.1019 42.4009 37.4451 41.0578 37.4451 39.4009H34.4451ZM17.3722 39.4009H14.3722C14.3722 41.0578 15.7154 42.4009 17.3722 42.4009V39.4009ZM17.3722 30.3431L14.3986 29.946C14.381 30.0777 14.3722 30.2103 14.3722 30.3431H17.3722ZM19.5991 20.9148L22.5729 20.5194C22.3747 19.0285 21.1031 17.9148 19.5991 17.9148V20.9148ZM16.9598 20.9148V17.9148C15.4558 17.9148 14.1842 19.0285 13.986 20.5194L16.9598 20.9148ZM15.7227 30.2196L12.7488 29.8242C12.7314 29.9553 12.7227 30.0874 12.7227 30.2196H15.7227ZM15.7227 41.0478H12.7227C12.7227 42.7047 14.0658 44.0478 15.7227 44.0478V41.0478ZM36.1359 41.0478V44.0478C37.7927 44.0478 39.1359 42.7047 39.1359 41.0478H36.1359ZM36.1359 27.914H39.1359C39.1359 26.8907 38.6143 25.938 37.7522 25.3867C36.8901 24.8353 35.8064 24.7614 34.8775 25.1907L36.1359 27.914ZM31.146 30.2196L28.1464 30.166C28.128 31.1986 28.642 32.1682 29.5071 32.7324C30.3722 33.2966 31.4667 33.3762 32.4043 32.943L31.146 30.2196ZM31.1872 27.914L34.1867 27.9677C34.205 26.9477 33.7037 25.9884 32.8559 25.4209C32.0082 24.8535 30.9302 24.7557 29.9942 25.1614L31.1872 27.914ZM25.8674 30.2196H22.8674C22.8674 31.2302 23.3762 32.1729 24.221 32.7275C25.0658 33.2821 26.1331 33.3741 27.0604 32.9722L25.8674 30.2196ZM25.8674 27.914H28.8674C28.8674 26.8924 28.3475 25.941 27.4877 25.3892C26.6278 24.8374 25.5463 24.7611 24.6176 25.1867L25.8674 27.914ZM20.8363 30.2196L17.8624 30.615C17.9878 31.5582 18.5533 32.3861 19.3863 32.8459C20.2193 33.3058 21.2211 33.3433 22.0861 32.9469L20.8363 30.2196ZM15.3052 23.9422L16.2125 30.8179L22.1609 30.033L21.2537 23.1573L15.3052 23.9422ZM16.2117 30.8118L16.5004 33.035L22.4504 32.2625L22.1617 30.0392L16.2117 30.8118ZM20.7484 35.3653L22.7691 34.4183L20.2231 28.9853L18.2024 29.9323L20.7484 35.3653ZM22.7516 34.4265L25.4321 33.1913L22.9211 27.742L20.2406 28.9772L22.7516 34.4265ZM21.1766 30.4667V32.7311H27.1766V30.4667H21.1766ZM25.3567 35.4892L27.6661 34.5011L25.3058 28.9849L22.9965 29.973L25.3567 35.4892ZM27.6707 34.4991L30.6399 33.2228L28.2704 27.7105L25.3012 28.9868L27.6707 34.4991ZM26.4556 30.4149L26.4144 32.8028L32.4135 32.9064L32.4547 30.5185L26.4556 30.4149ZM30.6783 35.5752L33.0702 34.4635L30.5414 29.0225L28.1495 30.1341L30.6783 35.5752ZM33.0774 34.4602L35.7167 33.225L33.1735 27.7907L30.5342 29.0258L33.0774 34.4602ZM31.4451 30.5078V39.4009H37.4451V30.5078H31.4451ZM34.4451 36.4009H17.3722V42.4009H34.4451V36.4009ZM20.3722 39.4009V30.3431H14.3722V39.4009H20.3722ZM20.3458 30.7403L21.2531 23.9469L15.3059 23.1527L14.3986 29.946L20.3458 30.7403ZM19.5991 17.9148H16.9598V23.9148H19.5991V17.9148ZM13.986 20.5194L12.7488 29.8242L18.6965 30.615L19.9336 21.3102L13.986 20.5194ZM12.7227 30.2196V41.0478H18.7227V30.2196H12.7227ZM15.7227 44.0478H36.1359V38.0478H15.7227V44.0478ZM39.1359 41.0478V27.914H33.1359V41.0478H39.1359ZM34.8775 25.1907L29.8876 27.4963L32.4043 32.943L37.3942 30.6373L34.8775 25.1907ZM34.1455 30.2733L34.1867 27.9677L28.1877 27.8604L28.1464 30.166L34.1455 30.2733ZM29.9942 25.1614L24.6744 27.467L27.0604 32.9722L32.3802 30.6666L29.9942 25.1614ZM28.8674 30.2196V27.914H22.8674V30.2196H28.8674ZM24.6176 25.1867L19.5864 27.4924L22.0861 32.9469L27.1172 30.6413L24.6176 25.1867ZM23.8101 29.8242L22.5729 20.5194L16.6253 21.3102L17.8624 30.615L23.8101 29.8242Z" fill="#4FB573" mask="url(#path-6-inside-1)"/>
<path d="M23.6817 35.5308H20.4238V40.1832H23.6817V35.5308Z" fill="white" stroke="#4FB573" stroke-width="2" stroke-miterlimit="10" stroke-linecap="round" stroke-linejoin="round"/>
<path d="M47.7794 4.33341C47.7794 4.29379 47.7794 4.29379 47.7794 4.25416C47.7794 2.55034 46.3118 1.20312 44.5508 1.20312C43.5444 1.20312 42.622 1.63899 42.035 2.35222C40.6513 1.83711 38.6386 1.52012 36.6679 2.11447C34.0682 2.90695 32.5168 4.76927 32.4329 6.51272V6.55235C31.4266 6.71084 30.6719 7.50332 30.6719 8.45429C30.6719 9.52414 31.5943 10.3959 32.7265 10.3959C32.978 10.3959 33.2715 10.3562 33.4812 10.2374C34.3617 12.6544 36.8356 14.4375 39.7288 14.4375C41.5318 14.4375 43.1251 13.7639 44.3411 12.6544C45.0959 13.0903 45.9345 13.3677 46.8989 13.3677C49.5405 13.3677 51.7208 11.3468 51.7208 8.81091C51.6789 6.55235 50.0017 4.72965 47.7794 4.33341Z" fill="white" stroke="#4FB573" stroke-miterlimit="10" stroke-linecap="round"/>
<path d="M53.415 13.2157C57.2502 14.6979 59.807 17.0035 62.4876 20.4208" stroke="#4FB573" stroke-width="2" stroke-miterlimit="10" stroke-linecap="round"/>
<mask id="path-11-inside-2" fill="white">
<path d="M60.4442 21.0692C60.2893 21.1836 60.3164 21.4226 60.4928 21.4995L64.2329 23.1289C64.4098 23.206 64.6036 23.0621 64.581 22.8705L64.105 18.8309C64.0825 18.6404 63.8626 18.5451 63.7082 18.6591L60.4442 21.0692Z"/>
</mask>
<path d="M60.4442 21.0692C60.2893 21.1836 60.3164 21.4226 60.4928 21.4995L64.2329 23.1289C64.4098 23.206 64.6036 23.0621 64.581 22.8705L64.105 18.8309C64.0825 18.6404 63.8626 18.5451 63.7082 18.6591L60.4442 21.0692Z" fill="black"/>
<path d="M60.4928 21.4995L61.691 18.7492L60.4928 21.4995ZM60.4442 21.0692L58.6622 18.6558L60.4442 21.0692ZM59.2946 24.2499L63.0347 25.8792L65.4311 20.3786L61.691 18.7492L59.2946 24.2499ZM67.5604 22.5194L67.0844 18.4799L61.1256 19.182L61.6016 23.2215L67.5604 22.5194ZM61.9262 16.2457L58.6622 18.6558L62.2262 23.4826L65.4902 21.0725L61.9262 16.2457ZM67.0844 18.4799C66.7924 16.0022 63.9332 14.7638 61.9262 16.2457L65.4902 21.0725C63.792 22.3264 61.3727 21.2785 61.1256 19.182L67.0844 18.4799ZM63.0347 25.8792C65.3344 26.8811 67.854 25.0106 67.5604 22.5194L61.6016 23.2215C61.3532 21.1136 63.4852 19.5308 65.4311 20.3786L63.0347 25.8792ZM61.691 18.7492C63.6321 19.5949 63.9295 22.2249 62.2262 23.4826L58.6622 18.6558C56.6492 20.1422 57.0006 23.2504 59.2946 24.2499L61.691 18.7492Z" fill="#4FB573" mask="url(#path-11-inside-2)"/>
<path d="M49.208 16.1801C63.2292 25.3614 66.6108 42.9829 56.3011 57.4342C54.734 59.6163 53.7855 60.8515 52.6308 62.2513" stroke="#4FB573" stroke-width="2" stroke-miterlimit="10" stroke-linecap="round"/>
<path d="M50.4821 64.0736L50.4821 64.0736L50.6466 64.5509L50.4821 64.0736Z" fill="black" stroke="#4FB573" stroke-width="3"/>
<path d="M27.6645 13.1426C27.6645 12.2046 26.8819 11.4297 25.9345 11.4297C25.4402 11.4297 25.0283 11.6336 24.6987 11.9191C24.2044 11.6744 23.6689 11.5113 23.0923 11.5113C21.2386 11.5113 19.7557 12.9795 19.7557 14.8147C19.7557 14.9779 19.7557 15.141 19.7969 15.3449C19.1379 15.5896 18.6436 16.2014 18.6436 16.9355C18.6436 17.8735 19.4262 18.6484 20.3736 18.6484C20.9915 18.6484 21.4858 18.3629 21.8153 17.8735C22.2272 18.0367 22.6391 18.1182 23.0923 18.1182C24.9459 18.1182 26.4288 16.65 26.4288 14.8147C26.4288 14.774 26.4288 14.774 26.4288 14.7332C27.129 14.5293 27.6645 13.8767 27.6645 13.1426Z" fill="white" stroke="#4FB573" stroke-miterlimit="10" stroke-linejoin="round"/>
<path d="M77.1816 26.168C77.1816 29.3969 74.4385 32.0859 70.9648 32.0859C67.4911 32.0859 64.748 29.3969 64.748 26.168C64.748 22.939 67.4911 20.25 70.9648 20.25C74.4385 20.25 77.1816 22.939 77.1816 26.168Z" fill="#7BC796" stroke="#4FB573" stroke-width="2"/>
<path d="M71.4648 23.4609C71.4648 23.1848 71.241 22.9609 70.9648 22.9609C70.6887 22.9609 70.4648 23.1848 70.4648 23.4609L71.4648 23.4609ZM71.4648 40.9062L71.4648 23.4609L70.4648 23.4609L70.4648 40.9063L71.4648 40.9062Z" fill="#4FB573"/>
<path d="M74.4435 26.8525C74.6733 26.6993 74.728 26.394 74.5657 26.1706C74.4034 25.9472 74.0855 25.8903 73.8558 26.0434L74.4435 26.8525ZM71.2587 28.9757L74.4435 26.8525L73.8558 26.0434L70.671 28.1666L71.2587 28.9757Z" fill="#4FB573"/>
<path d="M67.5106 26.8525C67.2808 26.6993 67.2262 26.394 67.3884 26.1706C67.5507 25.9472 67.8686 25.8903 68.0983 26.0434L67.5106 26.8525ZM70.6954 28.9757L67.5106 26.8525L68.0983 26.0434L71.2831 28.1666L70.6954 28.9757Z" fill="#4FB573"/>
<path d="M27.0635 59.9054L27.0635 76.1476" stroke="#4FB573" stroke-linecap="round"/>
<mask id="path-21-inside-3" fill="white">
<path fill-rule="evenodd" clip-rule="evenodd" d="M28.8323 72.6705C30.5284 72.6705 31.9033 71.2952 31.9033 69.5986C31.9033 69.4837 31.897 69.3703 31.8847 69.2587C31.8787 69.2043 31.8535 69.1538 31.8137 69.1163C31.264 68.599 30.5239 68.2821 29.7097 68.2821C28.0136 68.2821 26.6387 69.6574 26.6387 71.354C26.6387 71.4688 26.645 71.5823 26.6573 71.6939C26.6632 71.7483 26.6884 71.7988 26.7283 71.8363C27.2779 72.3536 28.0181 72.6705 28.8323 72.6705Z"/>
</mask>
<path fill-rule="evenodd" clip-rule="evenodd" d="M28.8323 72.6705C30.5284 72.6705 31.9033 71.2952 31.9033 69.5986C31.9033 69.4837 31.897 69.3703 31.8847 69.2587C31.8787 69.2043 31.8535 69.1538 31.8137 69.1163C31.264 68.599 30.5239 68.2821 29.7097 68.2821C28.0136 68.2821 26.6387 69.6574 26.6387 71.354C26.6387 71.4688 26.645 71.5823 26.6573 71.6939C26.6632 71.7483 26.6884 71.7988 26.7283 71.8363C27.2779 72.3536 28.0181 72.6705 28.8323 72.6705Z" fill="white"/>
<path d="M26.7283 71.8363L26.043 72.5646L26.7283 71.8363ZM31.8847 69.2587L30.8907 69.3681L31.8847 69.2587ZM31.8137 69.1163L31.1283 69.8445L31.8137 69.1163ZM30.9033 69.5986C30.9033 70.7431 29.9758 71.6705 28.8323 71.6705V73.6705C31.0809 73.6705 32.9033 71.8472 32.9033 69.5986H30.9033ZM30.8907 69.3681C30.899 69.4435 30.9033 69.5204 30.9033 69.5986H32.9033C32.9033 69.4471 32.895 69.2972 32.8787 69.1493L30.8907 69.3681ZM29.7097 69.2821C30.2592 69.2821 30.7568 69.4948 31.1283 69.8445L32.499 68.388C31.7713 67.7032 30.7886 67.2821 29.7097 67.2821V69.2821ZM27.6387 71.354C27.6387 70.2095 28.5662 69.2821 29.7097 69.2821V67.2821C27.4611 67.2821 25.6387 69.1054 25.6387 71.354H27.6387ZM27.6513 71.5845C27.643 71.5091 27.6387 71.4322 27.6387 71.354H25.6387C25.6387 71.5055 25.647 71.6554 25.6633 71.8033L27.6513 71.5845ZM28.8323 71.6705C28.2828 71.6705 27.7852 71.4578 27.4137 71.1081L26.043 72.5646C26.7707 73.2494 27.7534 73.6705 28.8323 73.6705V71.6705ZM25.6633 71.8033C25.6953 72.0942 25.83 72.3641 26.043 72.5646L27.4137 71.1081C27.5469 71.2335 27.6312 71.4024 27.6513 71.5845L25.6633 71.8033ZM32.8787 69.1493C32.8467 68.8584 32.712 68.5885 32.499 68.388L31.1283 69.8445C30.995 69.7191 30.9108 69.5502 30.8907 69.3681L32.8787 69.1493Z" fill="#4FB573" mask="url(#path-21-inside-3)"/>
<mask id="path-23-inside-4" fill="white">
<path fill-rule="evenodd" clip-rule="evenodd" d="M28.8323 67.4045C30.5284 67.4045 31.9033 66.0292 31.9033 64.3326C31.9033 64.2178 31.897 64.1043 31.8847 63.9927C31.8787 63.9383 31.8535 63.8878 31.8137 63.8503C31.264 63.333 30.5239 63.0161 29.7097 63.0161C28.0136 63.0161 26.6387 64.3914 26.6387 66.088C26.6387 66.2029 26.645 66.3163 26.6573 66.4279C26.6632 66.4823 26.6884 66.5328 26.7283 66.5704C27.2779 67.0876 28.0181 67.4045 28.8323 67.4045Z"/>
</mask>
<path fill-rule="evenodd" clip-rule="evenodd" d="M28.8323 67.4045C30.5284 67.4045 31.9033 66.0292 31.9033 64.3326C31.9033 64.2178 31.897 64.1043 31.8847 63.9927C31.8787 63.9383 31.8535 63.8878 31.8137 63.8503C31.264 63.333 30.5239 63.0161 29.7097 63.0161C28.0136 63.0161 26.6387 64.3914 26.6387 66.088C26.6387 66.2029 26.645 66.3163 26.6573 66.4279C26.6632 66.4823 26.6884 66.5328 26.7283 66.5704C27.2779 67.0876 28.0181 67.4045 28.8323 67.4045Z" fill="white"/>
<path d="M26.7283 66.5704L26.043 67.2986L26.7283 66.5704ZM31.8847 63.9927L30.8907 64.1021L31.8847 63.9927ZM31.8137 63.8503L32.499 63.122L31.8137 63.8503ZM30.9033 64.3326C30.9033 65.4772 29.9758 66.4045 28.8323 66.4045V68.4045C31.0809 68.4045 32.9033 66.5812 32.9033 64.3326H30.9033ZM30.8907 64.1021C30.899 64.1775 30.9033 64.2544 30.9033 64.3326H32.9033C32.9033 64.1811 32.895 64.0312 32.8787 63.8834L30.8907 64.1021ZM29.7097 64.0161C30.2592 64.0161 30.7568 64.2288 31.1283 64.5785L32.499 63.122C31.7713 62.4372 30.7886 62.0161 29.7097 62.0161V64.0161ZM27.6387 66.088C27.6387 64.9435 28.5662 64.0161 29.7097 64.0161V62.0161C27.4611 62.0161 25.6387 63.8394 25.6387 66.088H27.6387ZM27.6513 66.3185C27.643 66.2431 27.6387 66.1662 27.6387 66.088H25.6387C25.6387 66.2395 25.647 66.3894 25.6633 66.5373L27.6513 66.3185ZM28.8323 66.4045C28.2828 66.4045 27.7852 66.1918 27.4137 65.8421L26.043 67.2986C26.7707 67.9834 27.7534 68.4045 28.8323 68.4045V66.4045ZM25.6633 66.5373C25.6953 66.8282 25.83 67.0981 26.043 67.2986L27.4137 65.8421C27.5469 65.9676 27.6312 66.1364 27.6513 66.3185L25.6633 66.5373ZM32.8787 63.8834C32.8467 63.5924 32.712 63.3225 32.499 63.122L31.1283 64.5785C30.995 64.4531 30.9108 64.2842 30.8907 64.1021L32.8787 63.8834Z" fill="#4FB573" mask="url(#path-23-inside-4)"/>
<mask id="path-25-inside-5" fill="white">
<path fill-rule="evenodd" clip-rule="evenodd" d="M28.8323 62.1384C30.5284 62.1384 31.9033 60.7631 31.9033 59.0665C31.9033 58.9516 31.897 58.8382 31.8847 58.7266C31.8787 58.6722 31.8535 58.6217 31.8137 58.5841C31.264 58.0669 30.5239 57.75 29.7097 57.75C28.0136 57.75 26.6387 59.1253 26.6387 60.8219C26.6387 60.9367 26.645 61.0502 26.6573 61.1618C26.6632 61.2162 26.6884 61.2667 26.7283 61.3042C27.2779 61.8215 28.0181 62.1384 28.8323 62.1384Z"/>
</mask>
<path fill-rule="evenodd" clip-rule="evenodd" d="M28.8323 62.1384C30.5284 62.1384 31.9033 60.7631 31.9033 59.0665C31.9033 58.9516 31.897 58.8382 31.8847 58.7266C31.8787 58.6722 31.8535 58.6217 31.8137 58.5841C31.264 58.0669 30.5239 57.75 29.7097 57.75C28.0136 57.75 26.6387 59.1253 26.6387 60.8219C26.6387 60.9367 26.645 61.0502 26.6573 61.1618C26.6632 61.2162 26.6884 61.2667 26.7283 61.3042C27.2779 61.8215 28.0181 62.1384 28.8323 62.1384Z" fill="white"/>
<path d="M31.8847 58.7266L30.8907 58.836L31.8847 58.7266ZM31.8137 58.5841L32.499 57.8559L31.8137 58.5841ZM30.9033 59.0665C30.9033 60.211 29.9758 61.1384 28.8323 61.1384V63.1384C31.0809 63.1384 32.9033 61.3151 32.9033 59.0665H30.9033ZM30.8907 58.836C30.899 58.9114 30.9033 58.9883 30.9033 59.0665H32.9033C32.9033 58.915 32.895 58.7651 32.8787 58.6172L30.8907 58.836ZM29.7097 58.75C30.2592 58.75 30.7568 58.9627 31.1283 59.3124L32.499 57.8559C31.7713 57.1711 30.7886 56.75 29.7097 56.75V58.75ZM27.6387 60.8219C27.6387 59.6773 28.5662 58.75 29.7097 58.75V56.75C27.4611 56.75 25.6387 58.5733 25.6387 60.8219H27.6387ZM27.6513 61.0524C27.643 60.977 27.6387 60.9001 27.6387 60.8219H25.6387C25.6387 60.9734 25.647 61.1233 25.6633 61.2711L27.6513 61.0524ZM28.8323 61.1384C28.2828 61.1384 27.7852 60.9257 27.4137 60.576L26.043 62.0325C26.7707 62.7173 27.7534 63.1384 28.8323 63.1384V61.1384ZM25.6633 61.2711C25.6953 61.5621 25.83 61.832 26.043 62.0325L27.4137 60.576C27.5469 60.7014 27.6312 60.8703 27.6513 61.0524L25.6633 61.2711ZM32.8787 58.6172C32.8467 58.3263 32.712 58.0564 32.499 57.8559L31.1283 59.3124C30.995 59.187 30.9108 59.0181 30.8907 58.836L32.8787 58.6172Z" fill="#4FB573" mask="url(#path-25-inside-5)"/>
<mask id="path-27-inside-6" fill="white">
<path fill-rule="evenodd" clip-rule="evenodd" d="M25.323 72.6705C23.6269 72.6705 22.252 71.2952 22.252 69.5986C22.252 69.4837 22.2583 69.3703 22.2705 69.2587C22.2765 69.2043 22.3017 69.1538 22.3416 69.1163C22.8912 68.599 23.6314 68.2821 24.4456 68.2821C26.1417 68.2821 27.5166 69.6574 27.5166 71.354C27.5166 71.4688 27.5103 71.5823 27.498 71.6939C27.492 71.7483 27.4668 71.7988 27.4269 71.8363C26.8773 72.3536 26.1372 72.6705 25.323 72.6705Z"/>
</mask>
<path fill-rule="evenodd" clip-rule="evenodd" d="M25.323 72.6705C23.6269 72.6705 22.252 71.2952 22.252 69.5986C22.252 69.4837 22.2583 69.3703 22.2705 69.2587C22.2765 69.2043 22.3017 69.1538 22.3416 69.1163C22.8912 68.599 23.6314 68.2821 24.4456 68.2821C26.1417 68.2821 27.5166 69.6574 27.5166 71.354C27.5166 71.4688 27.5103 71.5823 27.498 71.6939C27.492 71.7483 27.4668 71.7988 27.4269 71.8363C26.8773 72.3536 26.1372 72.6705 25.323 72.6705Z" fill="white"/>
<path d="M27.498 71.6939L28.492 71.8032L27.498 71.6939ZM27.4269 71.8363L28.1123 72.5646L27.4269 71.8363ZM22.2705 69.2587L23.2645 69.3681L22.2705 69.2587ZM22.3416 69.1163L23.027 69.8445L22.3416 69.1163ZM23.252 69.5986C23.252 70.7431 24.1795 71.6705 25.323 71.6705V73.6705C23.0744 73.6705 21.252 71.8472 21.252 69.5986H23.252ZM23.2645 69.3681C23.2563 69.4435 23.252 69.5204 23.252 69.5986H21.252C21.252 69.4471 21.2603 69.2972 21.2765 69.1493L23.2645 69.3681ZM24.4456 69.2821C23.8961 69.2821 23.3985 69.4948 23.027 69.8445L21.6563 68.388C22.384 67.7032 23.3667 67.2821 24.4456 67.2821V69.2821ZM26.5166 71.354C26.5166 70.2095 25.5891 69.2821 24.4456 69.2821V67.2821C26.6942 67.2821 28.5166 69.1054 28.5166 71.354H26.5166ZM26.504 71.5845C26.5123 71.5091 26.5166 71.4322 26.5166 71.354H28.5166C28.5166 71.5055 28.5083 71.6554 28.492 71.8032L26.504 71.5845ZM25.323 71.6705C25.8724 71.6705 26.3701 71.4578 26.7416 71.1081L28.1123 72.5646C27.3846 73.2494 26.4019 73.6705 25.323 73.6705V71.6705ZM28.492 71.8032C28.46 72.0942 28.3253 72.3641 28.1123 72.5646L26.7416 71.1081C26.6083 71.2335 26.5241 71.4024 26.504 71.5845L28.492 71.8032ZM21.2765 69.1493C21.3086 68.8584 21.4432 68.5885 21.6563 68.388L23.027 69.8445C23.1602 69.7191 23.2445 69.5502 23.2645 69.3681L21.2765 69.1493Z" fill="#4FB573" mask="url(#path-27-inside-6)"/>
<mask id="path-29-inside-7" fill="white">
<path fill-rule="evenodd" clip-rule="evenodd" d="M25.323 67.4045C23.6269 67.4045 22.252 66.0292 22.252 64.3326C22.252 64.2178 22.2583 64.1044 22.2705 63.9927C22.2765 63.9383 22.3017 63.8878 22.3416 63.8503C22.8912 63.333 23.6314 63.0161 24.4456 63.0161C26.1417 63.0161 27.5166 64.3914 27.5166 66.088C27.5166 66.2029 27.5103 66.3163 27.498 66.4279C27.492 66.4823 27.4668 66.5328 27.4269 66.5704C26.8773 67.0876 26.1372 67.4045 25.323 67.4045Z"/>
</mask>
<path fill-rule="evenodd" clip-rule="evenodd" d="M25.323 67.4045C23.6269 67.4045 22.252 66.0292 22.252 64.3326C22.252 64.2178 22.2583 64.1044 22.2705 63.9927C22.2765 63.9383 22.3017 63.8878 22.3416 63.8503C22.8912 63.333 23.6314 63.0161 24.4456 63.0161C26.1417 63.0161 27.5166 64.3914 27.5166 66.088C27.5166 66.2029 27.5103 66.3163 27.498 66.4279C27.492 66.4823 27.4668 66.5328 27.4269 66.5704C26.8773 67.0876 26.1372 67.4045 25.323 67.4045Z" fill="white"/>
<path d="M27.498 66.4279L28.492 66.5373L27.498 66.4279ZM27.4269 66.5704L26.7416 65.8421L27.4269 66.5704ZM22.2705 63.9927L21.2766 63.8834L22.2705 63.9927ZM22.3416 63.8503L23.027 64.5785L22.3416 63.8503ZM23.252 64.3326C23.252 65.4772 24.1795 66.4045 25.323 66.4045V68.4045C23.0744 68.4045 21.252 66.5812 21.252 64.3326H23.252ZM23.2645 64.1021C23.2563 64.1775 23.252 64.2544 23.252 64.3326H21.252C21.252 64.1811 21.2603 64.0312 21.2766 63.8834L23.2645 64.1021ZM24.4456 64.0161C23.8961 64.0161 23.3985 64.2289 23.027 64.5785L21.6563 63.122C22.384 62.4372 23.3667 62.0161 24.4456 62.0161V64.0161ZM26.5166 66.088C26.5166 64.9435 25.5891 64.0161 24.4456 64.0161V62.0161C26.6942 62.0161 28.5166 63.8394 28.5166 66.088H26.5166ZM26.504 66.3185C26.5123 66.2431 26.5166 66.1662 26.5166 66.088H28.5166C28.5166 66.2395 28.5083 66.3894 28.492 66.5373L26.504 66.3185ZM25.323 66.4045C25.8724 66.4045 26.3701 66.1918 26.7416 65.8421L28.1123 67.2986C27.3846 67.9834 26.4019 68.4045 25.323 68.4045V66.4045ZM28.492 66.5373C28.46 66.8282 28.3253 67.0981 28.1123 67.2986L26.7416 65.8421C26.6083 65.9676 26.5241 66.1364 26.504 66.3185L28.492 66.5373ZM21.2766 63.8834C21.3086 63.5924 21.4432 63.3225 21.6563 63.122L23.027 64.5785C23.1602 64.4531 23.2445 64.2842 23.2645 64.1021L21.2766 63.8834Z" fill="#4FB573" mask="url(#path-29-inside-7)"/>
<mask id="path-31-inside-8" fill="white">
<path fill-rule="evenodd" clip-rule="evenodd" d="M25.323 62.1384C23.6269 62.1384 22.252 60.7631 22.252 59.0665C22.252 58.9516 22.2583 58.8382 22.2705 58.7266C22.2765 58.6722 22.3017 58.6217 22.3416 58.5842C22.8912 58.0669 23.6314 57.75 24.4456 57.75C26.1417 57.75 27.5166 59.1253 27.5166 60.8219C27.5166 60.9367 27.5103 61.0502 27.498 61.1618C27.492 61.2162 27.4668 61.2667 27.4269 61.3042C26.8773 61.8215 26.1372 62.1384 25.323 62.1384Z"/>
</mask>
<path fill-rule="evenodd" clip-rule="evenodd" d="M25.323 62.1384C23.6269 62.1384 22.252 60.7631 22.252 59.0665C22.252 58.9516 22.2583 58.8382 22.2705 58.7266C22.2765 58.6722 22.3017 58.6217 22.3416 58.5842C22.8912 58.0669 23.6314 57.75 24.4456 57.75C26.1417 57.75 27.5166 59.1253 27.5166 60.8219C27.5166 60.9367 27.5103 61.0502 27.498 61.1618C27.492 61.2162 27.4668 61.2667 27.4269 61.3042C26.8773 61.8215 26.1372 62.1384 25.323 62.1384Z" fill="white"/>
<path d="M27.498 61.1618L28.492 61.2711L27.498 61.1618ZM27.4269 61.3042L26.7416 60.576L27.4269 61.3042ZM22.2705 58.7266L21.2765 58.6172L22.2705 58.7266ZM22.3416 58.5842L23.027 59.3124L22.3416 58.5842ZM23.252 59.0665C23.252 60.211 24.1794 61.1384 25.323 61.1384V63.1384C23.0744 63.1384 21.252 61.3151 21.252 59.0665H23.252ZM23.2645 58.836C23.2563 58.9114 23.252 58.9883 23.252 59.0665H21.252C21.252 58.915 21.2603 58.7651 21.2765 58.6172L23.2645 58.836ZM24.4456 58.75C23.8961 58.75 23.3985 58.9627 23.027 59.3124L21.6563 57.8559C22.384 57.1711 23.3667 56.75 24.4456 56.75V58.75ZM26.5166 60.8219C26.5166 59.6773 25.5891 58.75 24.4456 58.75V56.75C26.6942 56.75 28.5166 58.5733 28.5166 60.8219H26.5166ZM26.504 61.0524C26.5123 60.977 26.5166 60.9001 26.5166 60.8219H28.5166C28.5166 60.9734 28.5083 61.1233 28.492 61.2711L26.504 61.0524ZM25.323 61.1384C25.8724 61.1384 26.3701 60.9257 26.7416 60.576L28.1123 62.0325C27.3846 62.7173 26.4019 63.1384 25.323 63.1384V61.1384ZM28.492 61.2711C28.46 61.5621 28.3253 61.832 28.1123 62.0325L26.7416 60.576C26.6083 60.7014 26.5241 60.8703 26.504 61.0524L28.492 61.2711ZM21.2765 58.6172C21.3086 58.3263 21.4432 58.0564 21.6563 57.8559L23.027 59.3124C23.1602 59.187 23.2445 59.0181 23.2645 58.836L21.2765 58.6172Z" fill="#4FB573" mask="url(#path-31-inside-8)"/>
<path d="M39.6924 59.9054L39.6924 76.1476" stroke="#4FB573" stroke-linecap="round"/>
<mask id="path-34-inside-9" fill="white">
<path fill-rule="evenodd" clip-rule="evenodd" d="M41.4612 72.6705C43.1573 72.6705 44.5322 71.2952 44.5322 69.5986C44.5322 69.4837 44.5259 69.3703 44.5136 69.2587C44.5076 69.2043 44.4824 69.1538 44.4426 69.1163C43.893 68.599 43.1528 68.2821 42.3386 68.2821C40.6425 68.2821 39.2676 69.6574 39.2676 71.354C39.2676 71.4688 39.2739 71.5823 39.2862 71.6939C39.2922 71.7483 39.3174 71.7988 39.3572 71.8363C39.9068 72.3536 40.647 72.6705 41.4612 72.6705Z"/>
</mask>
<path fill-rule="evenodd" clip-rule="evenodd" d="M41.4612 72.6705C43.1573 72.6705 44.5322 71.2952 44.5322 69.5986C44.5322 69.4837 44.5259 69.3703 44.5136 69.2587C44.5076 69.2043 44.4824 69.1538 44.4426 69.1163C43.893 68.599 43.1528 68.2821 42.3386 68.2821C40.6425 68.2821 39.2676 69.6574 39.2676 71.354C39.2676 71.4688 39.2739 71.5823 39.2862 71.6939C39.2922 71.7483 39.3174 71.7988 39.3572 71.8363C39.9068 72.3536 40.647 72.6705 41.4612 72.6705Z" fill="white"/>
<path d="M39.3572 71.8363L40.0426 71.1081L39.3572 71.8363ZM44.5136 69.2587L43.5196 69.3681L44.5136 69.2587ZM43.5322 69.5986C43.5322 70.7431 42.6047 71.6705 41.4612 71.6705V73.6705C43.7098 73.6705 45.5322 71.8472 45.5322 69.5986H43.5322ZM43.5196 69.3681C43.5279 69.4435 43.5322 69.5204 43.5322 69.5986H45.5322C45.5322 69.4471 45.5239 69.2972 45.5076 69.1494L43.5196 69.3681ZM42.3386 69.2821C42.8881 69.2821 43.3857 69.4948 43.7572 69.8445L45.1279 68.388C44.4002 67.7032 43.4175 67.2821 42.3386 67.2821V69.2821ZM40.2676 71.354C40.2676 70.2095 41.1951 69.2821 42.3386 69.2821V67.2821C40.09 67.2821 38.2676 69.1054 38.2676 71.354H40.2676ZM40.2802 71.5845C40.2719 71.5091 40.2676 71.4322 40.2676 71.354H38.2676C38.2676 71.5055 38.2759 71.6554 38.2922 71.8032L40.2802 71.5845ZM41.4612 71.6705C40.9117 71.6705 40.4141 71.4578 40.0426 71.1081L38.6719 72.5646C39.3996 73.2494 40.3823 73.6705 41.4612 73.6705V71.6705ZM38.2922 71.8032C38.3242 72.0942 38.4589 72.3641 38.6719 72.5646L40.0426 71.1081C40.1758 71.2335 40.2601 71.4024 40.2802 71.5845L38.2922 71.8032ZM45.5076 69.1494C45.4756 68.8584 45.3409 68.5885 45.1279 68.388L43.7572 69.8445C43.624 69.7191 43.5397 69.5502 43.5196 69.3681L45.5076 69.1494Z" fill="#4FB573" mask="url(#path-34-inside-9)"/>
<mask id="path-36-inside-10" fill="white">
<path fill-rule="evenodd" clip-rule="evenodd" d="M41.4612 67.4045C43.1573 67.4045 44.5322 66.0292 44.5322 64.3326C44.5322 64.2178 44.5259 64.1044 44.5136 63.9927C44.5076 63.9383 44.4824 63.8878 44.4426 63.8503C43.893 63.333 43.1528 63.0161 42.3386 63.0161C40.6425 63.0161 39.2676 64.3914 39.2676 66.088C39.2676 66.2029 39.2739 66.3163 39.2862 66.4279C39.2922 66.4823 39.3174 66.5328 39.3572 66.5704C39.9068 67.0876 40.647 67.4045 41.4612 67.4045Z"/>
</mask>
<path fill-rule="evenodd" clip-rule="evenodd" d="M41.4612 67.4045C43.1573 67.4045 44.5322 66.0292 44.5322 64.3326C44.5322 64.2178 44.5259 64.1044 44.5136 63.9927C44.5076 63.9383 44.4824 63.8878 44.4426 63.8503C43.893 63.333 43.1528 63.0161 42.3386 63.0161C40.6425 63.0161 39.2676 64.3914 39.2676 66.088C39.2676 66.2029 39.2739 66.3163 39.2862 66.4279C39.2922 66.4823 39.3174 66.5328 39.3572 66.5704C39.9068 67.0876 40.647 67.4045 41.4612 67.4045Z" fill="white"/>
<path d="M39.3572 66.5704L38.6719 67.2986L39.3572 66.5704ZM44.5136 63.9927L45.5076 63.8834L44.5136 63.9927ZM44.4426 63.8503L45.1279 63.122L44.4426 63.8503ZM43.5322 64.3326C43.5322 65.4772 42.6047 66.4045 41.4612 66.4045V68.4045C43.7098 68.4045 45.5322 66.5812 45.5322 64.3326H43.5322ZM43.5196 64.1021C43.5279 64.1775 43.5322 64.2544 43.5322 64.3326H45.5322C45.5322 64.1811 45.5239 64.0312 45.5076 63.8834L43.5196 64.1021ZM42.3386 64.0161C42.8881 64.0161 43.3857 64.2289 43.7572 64.5785L45.1279 63.122C44.4002 62.4372 43.4175 62.0161 42.3386 62.0161V64.0161ZM40.2676 66.088C40.2676 64.9435 41.1951 64.0161 42.3386 64.0161V62.0161C40.09 62.0161 38.2676 63.8394 38.2676 66.088H40.2676ZM40.2802 66.3185C40.2719 66.2431 40.2676 66.1662 40.2676 66.088H38.2676C38.2676 66.2395 38.2759 66.3894 38.2922 66.5373L40.2802 66.3185ZM41.4612 66.4045C40.9117 66.4045 40.4141 66.1918 40.0426 65.8421L38.6719 67.2986C39.3996 67.9834 40.3823 68.4045 41.4612 68.4045V66.4045ZM38.2922 66.5373C38.3242 66.8282 38.4589 67.0981 38.6719 67.2986L40.0426 65.8421C40.1758 65.9676 40.2601 66.1364 40.2802 66.3185L38.2922 66.5373ZM45.5076 63.8834C45.4756 63.5924 45.3409 63.3225 45.1279 63.122L43.7572 64.5785C43.624 64.4531 43.5397 64.2842 43.5196 64.1021L45.5076 63.8834Z" fill="#4FB573" mask="url(#path-36-inside-10)"/>
<mask id="path-38-inside-11" fill="white">
<path fill-rule="evenodd" clip-rule="evenodd" d="M41.4612 62.1384C43.1573 62.1384 44.5322 60.7631 44.5322 59.0665C44.5322 58.9516 44.5259 58.8382 44.5136 58.7266C44.5076 58.6722 44.4824 58.6217 44.4426 58.5842C43.893 58.0669 43.1528 57.75 42.3386 57.75C40.6425 57.75 39.2676 59.1253 39.2676 60.8219C39.2676 60.9367 39.2739 61.0502 39.2862 61.1618C39.2922 61.2162 39.3174 61.2667 39.3572 61.3042C39.9068 61.8215 40.647 62.1384 41.4612 62.1384Z"/>
</mask>
<path fill-rule="evenodd" clip-rule="evenodd" d="M41.4612 62.1384C43.1573 62.1384 44.5322 60.7631 44.5322 59.0665C44.5322 58.9516 44.5259 58.8382 44.5136 58.7266C44.5076 58.6722 44.4824 58.6217 44.4426 58.5842C43.893 58.0669 43.1528 57.75 42.3386 57.75C40.6425 57.75 39.2676 59.1253 39.2676 60.8219C39.2676 60.9367 39.2739 61.0502 39.2862 61.1618C39.2922 61.2162 39.3174 61.2667 39.3572 61.3042C39.9068 61.8215 40.647 62.1384 41.4612 62.1384Z" fill="white"/>
<path d="M39.3572 61.3042L40.0426 60.576L39.3572 61.3042ZM44.5136 58.7266L43.5196 58.836L44.5136 58.7266ZM44.4426 58.5842L45.1279 57.8559L44.4426 58.5842ZM43.5322 59.0665C43.5322 60.211 42.6047 61.1384 41.4612 61.1384V63.1384C43.7098 63.1384 45.5322 61.3151 45.5322 59.0665H43.5322ZM43.5196 58.836C43.5279 58.9114 43.5322 58.9883 43.5322 59.0665H45.5322C45.5322 58.915 45.5239 58.7651 45.5076 58.6172L43.5196 58.836ZM42.3386 58.75C42.8881 58.75 43.3857 58.9627 43.7572 59.3124L45.1279 57.8559C44.4002 57.1711 43.4175 56.75 42.3386 56.75V58.75ZM40.2676 60.8219C40.2676 59.6773 41.1951 58.75 42.3386 58.75V56.75C40.09 56.75 38.2676 58.5733 38.2676 60.8219H40.2676ZM40.2802 61.0524C40.2719 60.977 40.2676 60.9001 40.2676 60.8219H38.2676C38.2676 60.9734 38.2759 61.1233 38.2922 61.2711L40.2802 61.0524ZM41.4612 61.1384C40.9117 61.1384 40.4141 60.9257 40.0426 60.576L38.6719 62.0325C39.3996 62.7173 40.3823 63.1384 41.4612 63.1384V61.1384ZM38.2922 61.2711C38.3242 61.5621 38.4589 61.832 38.6719 62.0325L40.0426 60.576C40.1758 60.7014 40.2601 60.8703 40.2802 61.0524L38.2922 61.2711ZM45.5076 58.6172C45.4756 58.3263 45.3409 58.0564 45.1279 57.8559L43.7572 59.3124C43.624 59.187 43.5397 59.0181 43.5196 58.836L45.5076 58.6172Z" fill="#4FB573" mask="url(#path-38-inside-11)"/>
<mask id="path-40-inside-12" fill="white">
<path fill-rule="evenodd" clip-rule="evenodd" d="M37.9519 72.6705C36.2558 72.6705 34.8809 71.2952 34.8809 69.5986C34.8809 69.4837 34.8872 69.3703 34.8995 69.2587C34.9054 69.2043 34.9306 69.1538 34.9705 69.1163C35.5201 68.599 36.2603 68.2821 37.0745 68.2821C38.7706 68.2821 40.1455 69.6574 40.1455 71.354C40.1455 71.4688 40.1392 71.5823 40.1269 71.6939C40.1209 71.7483 40.0957 71.7988 40.0559 71.8363C39.5062 72.3536 38.7661 72.6705 37.9519 72.6705Z"/>
</mask>
<path fill-rule="evenodd" clip-rule="evenodd" d="M37.9519 72.6705C36.2558 72.6705 34.8809 71.2952 34.8809 69.5986C34.8809 69.4837 34.8872 69.3703 34.8995 69.2587C34.9054 69.2043 34.9306 69.1538 34.9705 69.1163C35.5201 68.599 36.2603 68.2821 37.0745 68.2821C38.7706 68.2821 40.1455 69.6574 40.1455 71.354C40.1455 71.4688 40.1392 71.5823 40.1269 71.6939C40.1209 71.7483 40.0957 71.7988 40.0559 71.8363C39.5062 72.3536 38.7661 72.6705 37.9519 72.6705Z" fill="white"/>
<path d="M40.0559 71.8363L39.3705 71.1081L40.0559 71.8363ZM34.8995 69.2587L33.9055 69.1494L34.8995 69.2587ZM34.9705 69.1163L35.6559 69.8445L34.9705 69.1163ZM35.8809 69.5986C35.8809 70.7431 36.8084 71.6705 37.9519 71.6705V73.6705C35.7033 73.6705 33.8809 71.8472 33.8809 69.5986H35.8809ZM35.8935 69.3681C35.8852 69.4435 35.8809 69.5204 35.8809 69.5986H33.8809C33.8809 69.4471 33.8892 69.2972 33.9055 69.1494L35.8935 69.3681ZM37.0745 69.2821C36.525 69.2821 36.0274 69.4948 35.6559 69.8445L34.2852 68.388C35.0129 67.7032 35.9956 67.2821 37.0745 67.2821V69.2821ZM39.1455 71.354C39.1455 70.2095 38.218 69.2821 37.0745 69.2821V67.2821C39.3231 67.2821 41.1455 69.1054 41.1455 71.354H39.1455ZM39.1329 71.5845C39.1412 71.5091 39.1455 71.4322 39.1455 71.354H41.1455C41.1455 71.5055 41.1372 71.6554 41.1209 71.8033L39.1329 71.5845ZM37.9519 71.6705C38.5013 71.6705 38.999 71.4578 39.3705 71.1081L40.7412 72.5646C40.0135 73.2494 39.0308 73.6705 37.9519 73.6705V71.6705ZM41.1209 71.8033C41.0889 72.0942 40.9542 72.3641 40.7412 72.5646L39.3705 71.1081C39.2372 71.2335 39.153 71.4024 39.1329 71.5845L41.1209 71.8033ZM33.9055 69.1494C33.9375 68.8584 34.0721 68.5885 34.2852 68.388L35.6559 69.8445C35.7891 69.7191 35.8734 69.5502 35.8935 69.3681L33.9055 69.1494Z" fill="#4FB573" mask="url(#path-40-inside-12)"/>
<mask id="path-42-inside-13" fill="white">
<path fill-rule="evenodd" clip-rule="evenodd" d="M37.9519 67.4045C36.2558 67.4045 34.8809 66.0292 34.8809 64.3326C34.8809 64.2178 34.8872 64.1044 34.8995 63.9927C34.9054 63.9383 34.9306 63.8878 34.9705 63.8503C35.5201 63.333 36.2603 63.0161 37.0745 63.0161C38.7706 63.0161 40.1455 64.3914 40.1455 66.088C40.1455 66.2029 40.1392 66.3163 40.1269 66.4279C40.1209 66.4823 40.0957 66.5328 40.0559 66.5704C39.5062 67.0876 38.7661 67.4045 37.9519 67.4045Z"/>
</mask>
<path fill-rule="evenodd" clip-rule="evenodd" d="M37.9519 67.4045C36.2558 67.4045 34.8809 66.0292 34.8809 64.3326C34.8809 64.2178 34.8872 64.1044 34.8995 63.9927C34.9054 63.9383 34.9306 63.8878 34.9705 63.8503C35.5201 63.333 36.2603 63.0161 37.0745 63.0161C38.7706 63.0161 40.1455 64.3914 40.1455 66.088C40.1455 66.2029 40.1392 66.3163 40.1269 66.4279C40.1209 66.4823 40.0957 66.5328 40.0559 66.5704C39.5062 67.0876 38.7661 67.4045 37.9519 67.4045Z" fill="white"/>
<path d="M34.8995 63.9927L33.9055 63.8834L34.8995 63.9927ZM34.9705 63.8503L35.6559 64.5785L34.9705 63.8503ZM35.8809 64.3326C35.8809 65.4772 36.8084 66.4045 37.9519 66.4045V68.4045C35.7033 68.4045 33.8809 66.5812 33.8809 64.3326H35.8809ZM35.8935 64.1021C35.8852 64.1775 35.8809 64.2544 35.8809 64.3326H33.8809C33.8809 64.1811 33.8892 64.0312 33.9055 63.8834L35.8935 64.1021ZM37.0745 64.0161C36.525 64.0161 36.0274 64.2289 35.6559 64.5785L34.2852 63.122C35.0129 62.4372 35.9956 62.0161 37.0745 62.0161V64.0161ZM39.1455 66.088C39.1455 64.9435 38.218 64.0161 37.0745 64.0161V62.0161C39.3231 62.0161 41.1455 63.8394 41.1455 66.088H39.1455ZM39.1329 66.3185C39.1412 66.2431 39.1455 66.1662 39.1455 66.088H41.1455C41.1455 66.2395 41.1372 66.3894 41.1209 66.5373L39.1329 66.3185ZM37.9519 66.4045C38.5013 66.4045 38.999 66.1918 39.3705 65.8421L40.7412 67.2986C40.0135 67.9834 39.0308 68.4045 37.9519 68.4045V66.4045ZM41.1209 66.5373C41.0889 66.8282 40.9542 67.0981 40.7412 67.2986L39.3705 65.8421C39.2372 65.9676 39.153 66.1364 39.1329 66.3185L41.1209 66.5373ZM33.9055 63.8834C33.9375 63.5924 34.0721 63.3225 34.2852 63.122L35.6559 64.5785C35.7891 64.4531 35.8734 64.2842 35.8935 64.1021L33.9055 63.8834Z" fill="#4FB573" mask="url(#path-42-inside-13)"/>
<mask id="path-44-inside-14" fill="white">
<path fill-rule="evenodd" clip-rule="evenodd" d="M37.9519 62.1384C36.2558 62.1384 34.8809 60.7631 34.8809 59.0665C34.8809 58.9516 34.8872 58.8382 34.8995 58.7266C34.9054 58.6722 34.9306 58.6217 34.9705 58.5842C35.5201 58.0669 36.2603 57.75 37.0745 57.75C38.7706 57.75 40.1455 59.1253 40.1455 60.8219C40.1455 60.9367 40.1392 61.0502 40.1269 61.1618C40.1209 61.2162 40.0957 61.2667 40.0559 61.3042C39.5062 61.8215 38.7661 62.1384 37.9519 62.1384Z"/>
</mask>
<path fill-rule="evenodd" clip-rule="evenodd" d="M37.9519 62.1384C36.2558 62.1384 34.8809 60.7631 34.8809 59.0665C34.8809 58.9516 34.8872 58.8382 34.8995 58.7266C34.9054 58.6722 34.9306 58.6217 34.9705 58.5842C35.5201 58.0669 36.2603 57.75 37.0745 57.75C38.7706 57.75 40.1455 59.1253 40.1455 60.8219C40.1455 60.9367 40.1392 61.0502 40.1269 61.1618C40.1209 61.2162 40.0957 61.2667 40.0559 61.3042C39.5062 61.8215 38.7661 62.1384 37.9519 62.1384Z" fill="white"/>
<path d="M40.1269 61.1618L41.1209 61.2711L40.1269 61.1618ZM40.0559 61.3042L39.3705 60.576L40.0559 61.3042ZM34.8995 58.7266L33.9055 58.6172L34.8995 58.7266ZM35.8809 59.0665C35.8809 60.211 36.8084 61.1384 37.9519 61.1384V63.1384C35.7033 63.1384 33.8809 61.3151 33.8809 59.0665H35.8809ZM35.8935 58.836C35.8852 58.9114 35.8809 58.9883 35.8809 59.0665H33.8809C33.8809 58.915 33.8892 58.7651 33.9055 58.6172L35.8935 58.836ZM37.0745 58.75C36.525 58.75 36.0274 58.9627 35.6559 59.3124L34.2852 57.8559C35.0129 57.1711 35.9956 56.75 37.0745 56.75V58.75ZM39.1455 60.8219C39.1455 59.6773 38.218 58.75 37.0745 58.75V56.75C39.3231 56.75 41.1455 58.5733 41.1455 60.8219H39.1455ZM39.1329 61.0524C39.1412 60.977 39.1455 60.9001 39.1455 60.8219H41.1455C41.1455 60.9734 41.1372 61.1233 41.1209 61.2711L39.1329 61.0524ZM37.9519 61.1384C38.5013 61.1384 38.999 60.9257 39.3705 60.576L40.7412 62.0325C40.0135 62.7173 39.0308 63.1384 37.9519 63.1384V61.1384ZM41.1209 61.2711C41.0889 61.5621 40.9542 61.832 40.7412 62.0325L39.3705 60.576C39.2372 60.7014 39.153 60.8703 39.1329 61.0524L41.1209 61.2711ZM33.9055 58.6172C33.9375 58.3263 34.0721 58.0564 34.2852 57.8559L35.6559 59.3124C35.7891 59.187 35.8734 59.0181 35.8935 58.836L33.9055 58.6172Z" fill="#4FB573" mask="url(#path-44-inside-14)"/>
<path d="M84.3988 33.0859C84.3988 35.1918 82.6922 36.8984 80.5876 36.8984C78.483 36.8984 76.7764 35.1918 76.7764 33.0859C76.7764 30.9801 78.483 29.2734 80.5876 29.2734C82.6922 29.2734 84.3988 30.9801 84.3988 33.0859Z" fill="#7BC796" stroke="#4FB573" stroke-width="2"/>
<path d="M81.0879 33.6875C81.0879 33.4114 80.864 33.1875 80.5879 33.1875C80.3117 33.1875 80.0879 33.4114 80.0879 33.6875L81.0879 33.6875ZM81.0879 42.1094L81.0879 33.6875L80.0879 33.6875L80.0879 42.1094L81.0879 42.1094Z" fill="#4FB573"/>
</svg>
