<svg width="21" height="22" viewBox="0 0 21 22" fill="none" xmlns="http://www.w3.org/2000/svg">
<path fill-rule="evenodd" clip-rule="evenodd" d="M2.24661 13C1.60687 13 1.13165 13.5924 1.27043 14.2169L2.82598 21.2169C2.92766 21.6745 3.33347 22 3.80217 22H14.1978C14.6665 22 15.0723 21.6745 15.174 21.2169L16.7296 14.2169C16.8684 13.5924 16.3931 13 15.7534 13H2.24661ZM4 15V20H6V15H4ZM8 15V20H10V15H8ZM12 20V15H14V20H12Z" fill="#4FB573"/>
<rect x="18" y="13" width="2" height="18" rx="0.25" transform="rotate(90 18 13)" fill="#4FB573"/>
<path d="M4 11C4 9.89543 4.89543 9 6 9H12C13.1046 9 14 9.89543 14 11V14H4V11Z" stroke="#4FB573" stroke-width="2"/>
<g clip-path="url(#clip0_408_14692)">
<mask id="path-4-outside-1_408_14692" maskUnits="userSpaceOnUse" x="7" y="-6.11959e-07" width="15" height="14" fill="black">
<rect fill="white" x="7" y="-6.11959e-07" width="15" height="14"/>
<path fill-rule="evenodd" clip-rule="evenodd" d="M10 12.75C10 12.8881 9.88807 13 9.75 13L8.25 13C8.11193 13 8 12.8881 8 12.75L8 4.79097C8 4.51483 8.22386 4.29097 8.5 4.29097L16.691 4.29097L15.1768 2.77678C15.0791 2.67915 15.0791 2.52085 15.1768 2.42322L16.2374 1.36256C16.3351 1.26493 16.4934 1.26493 16.591 1.36256L19.2304 4.00199C19.238 4.00796 19.2452 4.01442 19.2522 4.02138L20.3128 5.08204C20.4105 5.17967 20.4105 5.33796 20.3128 5.43559L16.591 9.15744C16.4934 9.25507 16.3351 9.25507 16.2374 9.15744L15.1768 8.09678C15.0791 7.99915 15.0791 7.84085 15.1768 7.74322L16.629 6.29097L10.25 6.29097C10.1119 6.29097 10 6.4029 10 6.54097L10 12.75Z"/>
</mask>
<path fill-rule="evenodd" clip-rule="evenodd" d="M10 12.75C10 12.8881 9.88807 13 9.75 13L8.25 13C8.11193 13 8 12.8881 8 12.75L8 4.79097C8 4.51483 8.22386 4.29097 8.5 4.29097L16.691 4.29097L15.1768 2.77678C15.0791 2.67915 15.0791 2.52085 15.1768 2.42322L16.2374 1.36256C16.3351 1.26493 16.4934 1.26493 16.591 1.36256L19.2304 4.00199C19.238 4.00796 19.2452 4.01442 19.2522 4.02138L20.3128 5.08204C20.4105 5.17967 20.4105 5.33796 20.3128 5.43559L16.591 9.15744C16.4934 9.25507 16.3351 9.25507 16.2374 9.15744L15.1768 8.09678C15.0791 7.99915 15.0791 7.84085 15.1768 7.74322L16.629 6.29097L10.25 6.29097C10.1119 6.29097 10 6.4029 10 6.54097L10 12.75Z" fill="#4FB573"/>
<path d="M10 12.75L9 12.75V12.75L10 12.75ZM16.691 4.29097L16.691 5.29097L19.1052 5.29097L17.3981 3.58386L16.691 4.29097ZM15.1768 2.77678L14.4697 3.48388L14.4697 3.48388L15.1768 2.77678ZM15.1768 2.42322L15.8839 3.13033L15.8839 3.13033L15.1768 2.42322ZM16.2374 1.36256L15.5303 0.655452L15.5303 0.655456L16.2374 1.36256ZM16.591 1.36256L17.2981 0.655456L17.2981 0.655452L16.591 1.36256ZM19.2304 4.00199L18.5233 4.7091L18.5641 4.74991L18.6094 4.78576L19.2304 4.00199ZM19.2522 4.02138L18.5451 4.72849L19.2522 4.02138ZM20.3128 5.08204L21.0199 4.37493L21.0199 4.37493L20.3128 5.08204ZM20.3128 5.43559L21.0199 6.1427L21.0199 6.1427L20.3128 5.43559ZM16.591 9.15744L15.8839 8.45033L15.8839 8.45033L16.591 9.15744ZM16.2374 9.15744L16.9445 8.45033L16.9445 8.45033L16.2374 9.15744ZM15.1768 8.09678L14.4697 8.80388L14.4697 8.80388L15.1768 8.09678ZM15.1768 7.74322L15.8839 8.45033L15.1768 7.74322ZM16.629 6.29097L17.3361 6.99808L19.0432 5.29097L16.629 5.29097L16.629 6.29097ZM10 6.54097L11 6.54097L10 6.54097ZM9.75 14C10.4404 14 11 13.4404 11 12.75L9 12.75C9 12.3358 9.33579 12 9.75 12L9.75 14ZM8.25 14L9.75 14L9.75 12L8.25 12L8.25 14ZM7 12.75C7 13.4404 7.55965 14 8.25 14L8.25 12C8.66421 12 9 12.3358 9 12.75L7 12.75ZM7 4.79097L7 12.75L9 12.75L9 4.79097L7 4.79097ZM8.5 3.29097C7.67158 3.29097 7 3.96254 7 4.79097L9 4.79097C9 5.06712 8.77614 5.29097 8.5 5.29097L8.5 3.29097ZM16.691 3.29097L8.5 3.29097L8.5 5.29097L16.691 5.29097L16.691 3.29097ZM14.4697 3.48388L15.9839 4.99808L17.3981 3.58386L15.8839 2.06967L14.4697 3.48388ZM14.4697 1.71612C13.9815 2.20427 13.9815 2.99573 14.4697 3.48388L15.8839 2.06967C16.1768 2.36256 16.1768 2.83743 15.8839 3.13033L14.4697 1.71612ZM15.5303 0.655456L14.4697 1.71612L15.8839 3.13033L16.9445 2.06967L15.5303 0.655456ZM17.2981 0.655452C16.8099 0.167303 16.0185 0.167303 15.5303 0.655452L16.9445 2.06967C16.6516 2.36256 16.1768 2.36256 15.8839 2.06967L17.2981 0.655452ZM19.9375 3.29489L17.2981 0.655456L15.8839 2.06967L18.5233 4.7091L19.9375 3.29489ZM19.9593 3.31427C19.9251 3.28006 19.8891 3.24801 19.8515 3.21823L18.6094 4.78576C18.5868 4.76791 18.5654 4.74879 18.5451 4.72849L19.9593 3.31427ZM21.0199 4.37493L19.9593 3.31427L18.5451 4.72849L19.6057 5.78915L21.0199 4.37493ZM21.0199 6.1427C21.5081 5.65454 21.5081 4.86309 21.0199 4.37493L19.6057 5.78914C19.3128 5.49625 19.3128 5.02138 19.6057 4.72849L21.0199 6.1427ZM17.2981 9.86454L21.0199 6.1427L19.6057 4.72849L15.8839 8.45033L17.2981 9.86454ZM15.5303 9.86454C16.0185 10.3527 16.8099 10.3527 17.2981 9.86454L15.8839 8.45033C16.1768 8.15744 16.6517 8.15744 16.9445 8.45033L15.5303 9.86454ZM14.4697 8.80388L15.5303 9.86454L16.9445 8.45033L15.8839 7.38967L14.4697 8.80388ZM14.4697 7.03612C13.9815 7.52427 13.9815 8.31573 14.4697 8.80388L15.8839 7.38967C16.1768 7.68256 16.1768 8.15744 15.8839 8.45033L14.4697 7.03612ZM15.9219 5.58386L14.4697 7.03612L15.8839 8.45033L17.3361 6.99808L15.9219 5.58386ZM10.25 7.29097L16.629 7.29097L16.629 5.29097L10.25 5.29097L10.25 7.29097ZM11 6.54097C11 6.95518 10.6642 7.29097 10.25 7.29097L10.25 5.29097C9.55965 5.29097 9 5.85061 9 6.54097L11 6.54097ZM11 12.75L11 6.54097L9 6.54097L9 12.75L11 12.75Z" fill="white" mask="url(#path-4-outside-1_408_14692)"/>
</g>
<defs>
<clipPath id="clip0_408_14692">
<rect width="13" height="14" fill="white" transform="translate(7 13) rotate(-90)"/>
</clipPath>
</defs>
</svg>
