<?xml version="1.0" encoding="utf-8"?>
<!-- Generator: Adobe Illustrator 27.0.1, SVG Export Plug-In . SVG Version: 6.00 Build 0)  -->
<svg version="1.1" id="Layer_1" xmlns="http://www.w3.org/2000/svg" xmlns:xlink="http://www.w3.org/1999/xlink" x="0px" y="0px"
	 viewBox="0 0 589 589" style="enable-background:new 0 0 589 589;" xml:space="preserve">
<style type="text/css">
	.st0{clip-path:url(#SVGID_00000134211180681918118150000005731282110091805849_);}
	.st1{fill:#202020;}
	.st2{opacity:0.3;fill:#4FB573;fill-opacity:0.6;}
</style>
<g>
	<defs>
		<rect id="SVGID_1_" y="0" width="589" height="589"/>
	</defs>
	<clipPath id="SVGID_00000029760409714459476060000004616670935312629643_">
		<use xlink:href="#SVGID_1_"  style="overflow:visible;"/>
	</clipPath>
	<g style="clip-path:url(#SVGID_00000029760409714459476060000004616670935312629643_);">
		<rect y="0" class="st1" width="589" height="589"/>
		<path class="st2" d="M589,319.1V318c-6.4,3.8-12.8,7.5-14.4,8.5c-10.4,6.4-18.2,12.3-24.2,18.7c-5.5,5.8-12.2,9.9-22,13.9
			c-1.4,0.6-2.9,1.2-4.7,1.9l-4.7,1.8c-9.6,3.7-14.5,6.2-18.6,9.9c-4.2,3.8-9.5,6.5-16.5,8.7c-1.9,0.6-3.9,1.1-6.4,1.8l-6,1.5
			c-5.2,1.3-8.1,2.3-10.3,3.7c-3,1.9-6.5,3.2-12.5,4.9c-1.6,0.5-3.2,0.9-4.7,1.3c-2,0.6-3.5,1-5.1,1.5c-3.7,1.1-7.4,2.5-11,4
			c-2.6,1.1-5.4,3.9-8.6,8.2c-2.1,2.9-4.1,6-6,9c-5.6,8.9-7.4,11.5-10.1,14.2c-1.4,1.5-2.9,2.9-4.5,4.1c-2.3,1.9-10.2,7.4-11.6,8.6
			c-1.4,1.1-2.7,2.5-3.6,4.1c-1.2,2.3-1.9,4.5-2.7,8.7c-2.1,10.4-3.5,14.5-8,21.7c-4,6.2-6.7,9.7-9.6,12.8c-0.5,0.5-0.9,0.9-1.5,1.5
			l-3.7,3.5c-1.6,1.6-3.1,3.1-4.8,4.8c-4.5,4.7-7.8,10.4-9.7,16.6c-2.5,8-2.7,15.2-1.7,26.7c0.5,5.7,0.5,6.2,0.5,8
			c0,10.3,0.1,17.2,0.6,25.3c0.2,4,0.5,7.7,1,11h0.9c-1.1-9.4-1.5-21.4-1.5-36.3c0-1.8,0-2.4-0.5-8.1c-0.9-11.4-0.7-18.5,1.7-26.4
			c1.8-6.1,5.1-11.6,9.5-16.2c1.6-1.7,3.1-3.2,4.7-4.8c0.6-0.6,3.1-2.9,3.7-3.5c0.5-0.5,1-1,1.5-1.5c3-3.1,5.8-6.6,9.8-12.9
			c4.7-7.3,6-11.5,8.2-22c0.8-4.1,1.5-6.3,2.6-8.4c0.7-1.2,1.8-2.4,3.4-3.8c1.4-1.1,9.3-6.7,11.6-8.6c1.7-1.4,3.2-2.8,4.6-4.2
			c2.7-2.8,4.5-5.4,10.2-14.4c1.9-3.1,3.9-6.1,6-9c3.1-4.3,5.8-6.9,8.2-7.9c3.4-1.5,6.9-2.7,10.9-3.9c2.5-0.8,5-1.5,7.5-2.2l2.3-0.7
			c6.1-1.8,9.6-3.1,12.7-5.1c2.1-1.3,5-2.3,10.1-3.6l6-1.5c2.5-0.6,4.5-1.2,6.4-1.8c7.1-2.2,12.6-5,16.8-8.9c4-3.7,8.8-6.1,18.3-9.7
			l4.7-1.8c1.8-0.7,3.3-1.3,4.8-1.9c9.9-4.1,16.8-8.2,22.3-14.1c5.9-6.3,13.7-12.2,24-18.6C576.6,326.4,582.8,322.8,589,319.1v-63.4
			c-3.9,8-8.4,14.6-12.5,17.6c-2.5,1.8-5.3,3.9-8.9,6.8c-2,1.6-4.1,3.3-6.1,4.9l-1.2,1c-1.6,1.3-3.2,2.6-4.8,3.8
			c-7.4,5.9-12.7,9.9-17.3,12.9c-3,2-3.8,2.7-7.9,7c-5.7,6-11.5,8.5-28.6,10.7c-11.1,1.5-19.7,4.8-30.2,10.9c-1.6,0.9-7.1,4.2-6.8,4
			c-2.7,1.6-4.6,2.6-6.5,3.6c-5.5,2.7-10.3,4.1-15.4,4.1c-16.8,0-40.7,11.3-50.7,22.4c-11.8,13.2-30.8,27.2-44.4,30.6
			c-7.3,1.8-11.6,6.9-13.8,14.4c-1.2,4.3-1.6,8.1-1.6,13.6c0,0.8,0,1,0.2,3.6c0.4,5.1,0.3,8.6-0.8,13c-1.5,6.1-4.8,12.4-10.4,19.1
			c-13.6,16.3-22.5,45.7-22.5,70.4c0,2.3,0,4.2,0.1,8.6c0.1,10.6,0.1,15.5-0.2,21.5c-0.5,11-2.1,20.3-4.9,28.8h-1
			c2.9-8.4,4.4-17.8,5-28.8c0.3-6,0.3-10.9,0.2-21.5c0-4.4-0.1-6.2-0.1-8.6c0-24.9,8.9-54.5,22.7-71c5.5-6.6,8.7-12.8,10.2-18.7
			c1.1-4.3,1.2-7.7,0.7-12.7c-0.2-2.7-0.2-2.8-0.2-3.7c0-5.5,0.3-9.4,1.6-13.8c2.2-7.8,6.8-13.2,14.5-15.1
			c13.4-3.3,32.2-17.3,43.9-30.3c10.2-11.3,34.3-22.7,51.4-22.7c5,0,9.6-1.3,15-4c1.9-0.9,3.8-2,6.5-3.6c-0.3,0.2,5.2-3.1,6.9-4
			c10.6-6.1,19.3-9.5,30.5-11c16.9-2.3,22.5-4.7,28-10.4c4.2-4.3,4.9-5.1,8.1-7.1c4.6-3.1,9.8-7,17.2-12.9c1.6-1.3,3.2-2.5,4.8-3.8
			l1.3-1c2-1.6,4.1-3.3,6.1-4.9c3.6-2.8,6.4-5,8.9-6.8c4.3-3.1,9-10.4,13-19V319.1L589,319.1z M589,205c-0.6,0-1.2,0.1-1.9,0.1
			c-6,0.6-13.6,3.4-21.4,7.3c-3.6,1.8-8.3,2.6-13.9,2.7c-4.6,0-9.5-0.5-14.5-1.3c-1.7-0.3-3.2-0.6-4.6-0.9c-1.1-0.3-2.3-0.4-3.5-0.6
			c-5.4-0.5-10.9-0.7-16.4-0.9c-10.2-0.2-16.9,0.7-17.6,2.7c-0.4,1,0.6,2.5,3,4.8c1,1,2.2,2,4,3.5c1.6,1.3,3.1,2.6,4.7,3.9
			c1.4,1.2,3,1.9,5.4,2.5c0.7,0.2,0.8,0.2,2.6,0.5c3.5,0.7,4.9,1.2,6,2.6c1.4,1.7,1.4,4.5-0.1,8.7c-2.4,6.7-5.6,9.9-10,10.1
			c-3.6,0.2-7.5-1.3-14.3-5c-4.4-2.4-6.7-7.2-8.2-15c-0.2-0.9-0.3-1.7-0.5-2.8l-0.4-2.7c-1-6.5-1.9-9-3.7-9.9
			c-0.8-0.4-1.6-0.7-2.3-1c-2.2-0.8-4.5-1-8-0.9c-2.2,0.1-14.4,1-13.5,0.9c-20.2,1.3-28.3,5-36.4,14.7c-1.4,1.7-2.8,3.5-4.2,5.3
			l-2.3,3l-2.5,3.3c-4,5.3-6.9,8.3-10.2,10.9c-0.6,0.5-1.3,1-2.1,1.6l-4,2.9c-1.7,1.3-3.4,2.6-5.1,3.9c-4.5,3.7-9.6,8.4-16,15.1
			c-8.1,8.4-11.6,13.3-11.5,15.7c0.1,1.6,1.6,2.1,6.7,2.3c1.6,0.1,2.1,0.1,2.9,0.2c2.9,0.2,5,0.7,6.7,1.6
			c7.3,4.1,11.4,7.1,13.7,11.4c3.2,6,0.8,12.6-8.7,19.9c-8.1,6.2-10.9,10.2-11.1,14.7c-0.1,1.1,0,1.9,0.3,4.3
			c0.7,6.4,0.2,10.5-2.7,17.1c-1.1,2.6-2.5,5.1-4.1,7.4c-2.8,3.9-5.4,5.6-10.4,7.5c-0.4,0.2-3.3,1.2-4.2,1.6
			c-1.8,0.7-3.3,1.3-4.9,2.1c-4.1,2-8.2,4.5-12.9,8.1c-8.3,6.4-13,14.3-15.7,24.6c-1.1,4.1-1.5,6.7-2.7,14.9
			c-1.2,8.4-2.1,12.4-4,16.2c-2.1,4.2-11.7,26.1-12.7,28.4c-2,4.4-4.1,8.8-6.3,13.2c-4,8-7.5,13.8-10.5,17.5
			c-5.3,6.3-8.8,14.1-13.5,27.9c-0.6,1.8-1.2,3.7-1.9,5.5c-1.8,5.3-2.9,8.4-4.2,11.6c-6,15-25,25.8-45.6,25.8
			c-11,0-20.2-2.7-30.5-8.4c-5.5-3.1-4.5-2.4-21.9-14.3c-14.1-9.6-17.4-10.5-20.1-6.8c-0.4,0.5-1.8,2.7-1.8,2.7
			c-1.5,2-3.1,4-4.8,5.8c-0.7,0.8-5.4,5.8-6.8,7.3c-2.3,2.6-4.2,4.7-5.9,6.8c-1.9,2.3-3.6,4.9-5,7.5c-1.3,2.5-1.9,5.2-2.6,10.4
			c-0.1,1-0.3,2.1-0.5,3.1h-1l0.5-3.3c0.8-5.4,1.4-8.1,2.7-10.7c1.4-2.7,3.1-5.3,5.1-7.7c1.7-2.1,3.6-4.3,5.9-6.9
			c1.4-1.6,6.1-6.6,6.8-7.3c1.7-1.8,3.3-3.7,4.8-5.7c0,0,1.4-2.2,1.8-2.7c3.2-4.4,6.9-3.4,21.4,6.5c17.3,11.9,16.3,11.2,21.8,14.2
			c10.1,5.6,19.1,8.3,30,8.3c20.3,0,38.8-10.6,44.7-25.2c1.5-3.8,2.9-7.7,4.2-11.6c0.6-1.8,1.2-3.7,1.8-5.5
			c4.7-13.9,8.3-21.7,13.7-28.2c3-3.6,6.4-9.4,10.4-17.3c1.9-3.9,4-8.2,6.2-13.1c1-2.2,10.7-24.2,12.7-28.4c1.8-3.7,2.7-7.6,3.9-16
			c1.2-8.3,1.7-10.9,2.8-15c2.7-10.5,7.6-18.6,16-25.1c4-3.2,8.4-5.9,13-8.2c1.6-0.8,3.2-1.5,5-2.1c0.9-0.4,3.8-1.4,4.2-1.6
			c4.9-1.8,7.3-3.5,10-7.2c1.3-1.9,2.6-4.2,4-7.2c2.9-6.5,3.3-10.4,2.7-16.6c-0.2-1.5-0.3-3-0.3-4.5c0.2-4.9,3.2-9.1,11.5-15.4
			c9.2-7,11.4-13.1,8.5-18.7c-2.2-4-6.1-7-13.3-11c-1.5-0.9-3.5-1.3-6.3-1.5c-0.8-0.1-1.3-0.1-2.9-0.2c-5.7-0.3-7.5-0.8-7.6-3.3
			c-0.1-2.8,3.4-7.7,11.8-16.4c6.4-6.7,11.5-11.5,16-15.2c1.8-1.4,3.4-2.7,5.1-4l4-2.9c0.8-0.6,1.4-1.1,2.1-1.6
			c3.2-2.6,6-5.5,10-10.7c0.8-1.1,1.6-2.2,2.5-3.3l2.3-3c1.8-2.3,3-3.9,4.2-5.4c8.3-10,16.7-13.7,36.6-15c-0.4,0,11.8-0.9,14.1-1
			c3.6-0.1,5.9,0.2,8.3,1c0.8,0.3,1.6,0.6,2.4,1c2.2,1.1,3.1,3.8,4.2,10.7l0.4,2.7c0.2,1,0.3,1.9,0.5,2.8c1.4,7.5,3.6,12.1,7.7,14.3
			c6.6,3.6,10.4,5.1,13.7,4.8c3.9-0.2,6.9-3.1,9.1-9.5c1.4-4,1.4-6.4,0.3-7.8c-0.9-1.1-2.2-1.6-5.5-2.2c-0.9-0.2-1.8-0.3-2.6-0.5
			c-2.5-0.6-4.3-1.4-5.8-2.7c-1.5-1.3-3.1-2.6-4.7-3.9c-1.4-1.1-2.7-2.3-4-3.5c-2.7-2.6-3.8-4.3-3.2-5.8c1-2.6,7.7-3.5,18.6-3.3
			c5.5,0.1,11,0.4,16.4,0.9c2.7,0.4,3.1,0.5,3.6,0.6c1.4,0.3,2.9,0.6,4.5,0.9c4.7,0.9,9.5,1.3,14.3,1.3c5.5,0,10.1-0.8,13.5-2.6
			c8-4,15.6-6.8,21.8-7.4c0.7-0.1,1.4-0.1,2-0.1V205L589,205z M589,106v1.5c-8.5,15.8-17,29-23.2,35.3c-3.1,3.1-7.5,4.8-13.3,5.5
			c-4.4,0.5-8.1,0.4-18.8-0.2c-9.7-0.5-15-0.4-20.1,0.8c-4.8,1.1-9.8,1.8-14.7,2.1l-2.2,0.1c-12.3,0.7-19,1.7-32.1,5.6
			c-4.4,1.3-9.1,2.4-14,3.4c-10.6,2-21.3,3.3-32,3.9c-7.4,0.4-13,0.6-19.9,0.6c-5.3,0-11.7,1.6-17.7,5.1
			c-8.1,4.8-14.8,12.6-19.2,24.1c-1.2,3.3-2.7,6.5-4.5,9.6c-3.5,6.1-6.8,8.8-13.1,12l-4,1.9c-5.4,2.6-10.4,6-14.9,10.1
			c-8,7.2-13.5,16.3-22.1,34.9l-2,4.4c-7.2,15.4-11.3,22.9-17,29.3c-7.6,8.5-19.9,14.2-39.6,19.7c-4.3,1.2-18.7,5-18.9,5
			c-6.8,1.8-11.5,3.3-15.3,4.8c-10.4,4.1-18.4,10.3-35.7,26l-1.7,1.5c-8.4,7.6-13.2,11.7-18.5,15.6c-3.9,2.8-7.9,5.6-12.7,8.7
			c-2,1.3-10.1,6.5-12.1,7.8c-11.3,7.4-18.2,12.8-24.2,19.7c-2.4,2.7-4.5,5.6-6.3,8.7c-4.1,6.8-6.2,12.9-9,24.6l-1.5,6.1
			c-0.6,2.4-1.1,4.5-1.7,6.5c-2.9,10.5-6.8,17-14.5,26.4l-4,4.9c-1.4,1.7-2.8,3.4-4.1,5.2c-1.4,1.9-2.6,4-3.4,6.2
			c-1.1,3.2-1.5,5.8-1.8,11.7c-0.6,9.9-1.4,14.8-4.5,22.3c-1.5,3.7-5.6,13.8-6.3,15.5c-1,2.5-2.2,4.9-3.5,7.3
			c-2.8,5-6.6,9.9-12.9,16.6c-5.9,6.2-8.7,10.7-10.4,15.7c-0.5,1.6-1,3.1-1.4,4.7l-0.5,1.8h-1l0.5-2c0.5-2.1,0.9-3.4,1.4-4.8
			c1.8-5.2,4.7-9.7,10.6-16.1c6.2-6.7,9.9-11.5,12.7-16.5c1.3-2.3,2.4-4.7,3.5-7.2c0.7-1.7,4.8-11.8,6.3-15.5
			c3.1-7.4,3.9-12.2,4.5-21.9c0.3-6,0.7-8.7,1.9-12c0.8-2.3,2-4.5,3.5-6.4c1.2-1.7,2.6-3.3,4.1-5.2l4-4.9
			c7.7-9.3,11.4-15.7,14.3-26.1c0.5-2,1.1-4,1.7-6.4l1.5-6.1c2.9-11.8,5-18,9.1-24.9c1.8-3,3.9-5.9,6.4-8.8c6.1-7,13-12.5,24.4-19.9
			c2-1.3,10.1-6.5,12.1-7.8c4.9-3.2,8.8-5.9,12.7-8.7c5.3-3.9,10-7.9,18.4-15.5l1.7-1.5c17.4-15.8,25.5-22,36-26.2
			c3.9-1.6,8.6-3,15.5-4.9c0.2-0.1,14.6-3.8,18.9-5c19.5-5.5,31.7-11.1,39.1-19.4c5.7-6.4,9.7-13.8,16.9-29.1l2.1-4.4
			c8.7-18.7,14.2-27.9,22.4-35.2c4.5-4.1,9.6-7.5,15.1-10.2l4-1.9c6.2-3,9.3-5.7,12.7-11.6c1.7-3,3.2-6.2,4.4-9.5
			c4.5-11.6,11.3-19.7,19.6-24.5c6.1-3.6,12.7-5.2,18.2-5.2c6.9,0,12.4-0.1,19.8-0.6c10.7-0.6,21.3-1.9,31.9-3.9
			c4.9-1,9.6-2.1,14-3.4c13.2-3.9,20-4.9,32.3-5.7l2.2-0.1c5.7-0.4,9.6-0.9,14.6-2.1c5.2-1.2,10.6-1.3,22.2-0.7
			c8.9,0.5,12.6,0.6,16.9,0.1c5.6-0.6,9.8-2.2,12.7-5.2C571.4,135.7,580.1,122,589,106L589,106z M589,547.9
			c-1.3-4.5-2.2-10.4-3.3-19.9l-0.2-2l-0.2-2c-1.8-15.4-3-21.6-5.4-24c-2.4-2.4-3-4.9-2.5-8.5c0.1-0.6,0.2-1.1,0.4-2.1
			c0.7-3.5,0.8-4.9,0.1-6.7c-0.9-2.3-3.2-4.3-7.6-6.1c-5-2.1-6.4-4.8-4.8-8.3c0.6-1.4,1.8-3,3.5-4.9c1-1.2,5.4-5.9,5-5.4
			c6-6.6,8.8-11.1,8.8-16.2c-0.1-2.5,0.5-4.9,1.6-7.1c1.1-2.2,2.8-4.1,4.8-5.5v1.2c-1.7,1.3-3.1,3.1-4.1,5.1c-0.9,2-1.4,4.2-1.3,6.4
			c0,5.4-2.9,10.1-9.1,16.8c0.4-0.4-4,4.3-5,5.4c-1.6,1.9-2.7,3.4-3.3,4.7c-1.3,3-0.2,5.1,4.3,7c4.6,1.9,7.2,4.1,8.2,6.7
			c0.8,2,0.7,3.6,0,7.3c-0.2,1-0.3,1.5-0.4,2.1c-0.5,3.3,0,5.5,2.2,7.7c2.7,2.7,3.9,8.8,5.7,24.6l0.2,2l0.2,2
			c0.8,6.9,1.5,11.8,2.3,15.7V547.9L589,547.9z M589,486.9c-1.4-3.1-4.3-9.7-4.9-11c-1-2.5-1.2-3.7-0.9-5.1c0.2-0.8,2-4.6,2.3-5.2
			c1.5-3.6,2.6-7.2,3.5-11v3.9c-0.7,2.5-1.6,5-2.6,7.5c-0.3,0.7-2.1,4.4-2.2,5.1c-0.3,1.1-0.1,2.2,0.9,4.5c0.4,1,2.5,5.6,3.9,8.9
			V486.9z M589,403.4c-1.6,1.6-3.6,2.8-6.3,4.1c-0.2,0.1-13.7,5.4-20,8.3c-9.2,4.2-16.4,5.8-22.6,5.2c-5-0.5-8.9-2.2-14.5-5.8
			l-3.1-2c-1.7-1.1-3.5-2.2-5.3-3.2c-4-2.1-3.2-5.7,1.4-10.3c3.6-3.6,9.4-7.8,18.4-13.5l4.4-2.8c17.6-11.1,17.9-11.3,21.9-14.5
			c11-8.8,19.3-13.8,25.8-14.8v1c-6.3,1.1-14.4,5.9-25.2,14.6c-4,3.2-4.3,3.4-22,14.5c-1.5,0.9-2.9,1.8-4.4,2.8
			c-8.9,5.7-14.6,9.9-18.2,13.4c-4.2,4.2-4.9,7-1.7,8.7c1.7,0.9,3.2,1.8,5.4,3.2l3.1,2c5.5,3.5,9.3,5.2,14.1,5.7
			c6,0.6,13.1-0.9,22.1-5.1c6.3-2.9,19.8-8.2,20-8.3c3-1.3,5-2.7,6.7-4.6V403.4L589,403.4z M589,362.7v1c-6.4,0.3-11.9,3.1-19.3,8.9
			l-4.5,3.6c-1.4,1.1-2.8,2.1-4.3,3.1c-0.8,0.5-5.4,3.3-6.1,3.7c-3.2,2-6,3.7-8.7,5.5c-2.8,1.8-5.4,3.8-8,5.8
			c-4.5,3.7-7.3,6.8-7.8,9.2c-0.6,2.6,1.5,4.4,6.9,5.4c10.5,1.7,20.5,0,29.9-4.6c6.2-3,11.9-7.1,16.8-12c2-2.2,3.8-4.7,5.3-7.3v1.9
			c-1.3,2.2-2.8,4.2-4.6,6.1c-5,5-10.7,9.1-17.1,12.2c-9.5,4.6-19.8,6.4-30.5,4.6c-5.9-1-8.5-3.2-7.7-6.5c0.6-2.7,3.5-5.9,8.2-9.7
			c2.3-1.9,5-3.8,8.1-5.9c2.7-1.8,5.5-3.5,8.7-5.5c0.7-0.4,5.3-3.2,6.1-3.7c1.2-0.8,2.6-1.7,4.2-3c0.8-0.6,3.8-3,4.5-3.6
			C576.7,365.9,582.3,363,589,362.7L589,362.7z M589,211v1c-1.7-0.2-4.2,0.2-7.7,1.5c-9.8,3.7-13.5,5-18.8,6.6
			c-1.7,0.6-2.6,0.8-3.8,1.2c-1.5,0.5-3.1,0.7-6.6,1.1c-0.9,0.1-1.7,0.2-2.6,0.3c-7.7,0.9-11.1,2.4-11.1,6c0,4.4,2.8,12.9,7.8,25.3
			c0.9,2.4,1.7,4.9,2.3,7.5c0.3,1.1,0.6,2.3,0.8,3.4c1.8,7.5,3.1,10.5,5.5,11.5c2.2,0.9,4.6,0.6,7.3-0.7c3.4-1.7,7.1-4.9,11-9.3
			c1.5-1.7,2.9-3.4,4.5-5.5l3.1-4c2.5-3.2,6-12,8.2-19.9v3.4c-2.2,7.1-5.2,14.2-7.5,17.1c-0.4,0.5-2.6,3.4-3.1,4
			c-1.6,2.1-3,3.8-4.5,5.5c-4,4.5-7.8,7.8-11.3,9.5c-2.9,1.4-5.7,1.7-8.1,0.7c-2.8-1.1-4.1-4.3-6-12.1c-0.3-1.1-0.6-2.3-0.8-3.4
			c-0.8-3.1-1.4-5.3-2.2-7.3c-5-12.6-7.9-21.2-7.9-25.7c0-4.3,3.8-5.9,11.9-6.9c0.9-0.1,1.7-0.2,2.6-0.3c3.4-0.4,5.1-0.6,6.4-1.1
			c1.2-0.4,2.1-0.7,3.8-1.2c5.2-1.6,8.9-2.9,18.8-6.6C584.4,211.3,587.1,210.8,589,211L589,211z M0,286.6
			c9.9-11.1,17.8-22.8,22.6-34.7c3.2-8,6-15.8,10.6-30l1.6-4.8c6.4-19.6,9.9-29.3,14.5-38.8c6-12.5,12.3-20.8,19.9-25.1
			c6.5-3.7,10-7.7,12-12.9c0.8-2.1,1.4-4.3,1.8-6.5c1.2-5.1,2-7.5,3.9-10.2c2.4-3.6,6.2-6.4,11.9-8.8c15.5-6.5,16.4-6.9,17.7-8.8
			c0.6-1,0.8-2.1,0.7-4.4c0-0.7-0.2-3.8-0.2-3.9c-0.1-1.8-0.2-3.6-0.2-5.4c0-9.9,0.2-11.2,2.3-12.9c0.5-0.4,1.1-0.8,2-1.3
			c0.3-0.1,2.1-1.1,2.8-1.5c3.1-1.7,6.1-3.6,9-5.8c2-1.5,2.6-2.1,7.9-7.8c3.7-4,6.1-6.2,8.8-8c3.6-2.3,7.1-3.1,10.7-2.1
			c4.3,1.2,10.6,2,18.4,2.4c6.8,0.4,12.7,0.5,21.5,0.5c4.8,0,8.8,0.5,15.1,1.5c7.6,1.3,9.1,1.5,12.2,1.5c4,0,7.3-0.9,10.5-2.9
			c5-3.2,8-4.6,11-5.1c3.6-0.6,4.7-0.5,16.2,2c16.9,3.6,30.3,1.3,40.3-9.5c5-5.4,5.4-8.7,3.4-14.5c-0.8-2.4-1-3-1.1-4.2
			c-0.3-2.5,0.5-4.6,2.7-6.8c2.6-2.6,4.6-9,6.1-18h2c-1.5,9.5-3.7,16.3-6.7,19.3c-1.8,1.8-2.3,3.3-2.1,5.2c0.1,1,0.3,1.6,1,3.8
			c2.2,6.4,1.7,10.5-3.8,16.5c-10.6,11.4-24.6,13.9-42.2,10.1c-11.2-2.4-12.3-2.6-15.5-2c-2.7,0.5-5.5,1.8-10.3,4.8
			c-3.4,2.2-7.5,3.3-11.5,3.2c-3.2,0-4.7-0.2-12.5-1.5c-6.2-1.1-10.1-1.5-14.8-1.5c-8.9,0-14.8-0.1-21.7-0.5
			c-7.9-0.5-14.4-1.3-18.8-2.5c-5.5-1.5-10,1.4-17.5,9.5c-5.4,5.8-6,6.4-8.1,8c-2.9,2.2-6,4.2-9.2,5.9c-0.7,0.4-2.5,1.3-2.8,1.5
			c-0.8,0.4-1.3,0.7-1.7,1.1c-1.4,1.2-1.6,2.4-1.6,11.4c0,1.8,0.1,3.5,0.2,5.3c0,0.2,0.2,3.2,0.2,4c0.1,2.7-0.1,4.2-1.1,5.6
			c-1.6,2.5-2.2,2.7-18.6,9.6c-5.4,2.2-8.8,4.9-11,8.1c-1.7,2.5-2.4,4.6-3.6,9.5c-0.8,3.4-1.2,4.8-1.9,6.7
			c-2.1,5.6-5.9,10-12.9,13.9c-7.2,4-13.3,12.1-19.1,24.2c-4.5,9.5-8,19.1-14.4,38.6l-1.6,4.8c-4.7,14.2-7.4,22.1-10.7,30.1
			c-5.2,12.8-13.7,25.2-24.5,36.9V286.6L0,286.6z M0,363.2v-0.5l1,0c6.2,0,7.3,5.1,4.5,13.1c-1.4,3.9-3.3,7.6-5.5,11.1V385
			c1.8-3,3.3-6.2,4.6-9.5c2.6-7.5,1.7-11.8-3.6-11.8c-0.3,0-0.7,0-1,0V318c4.5-2.6,9-5.4,13.5-8.2c13.4-9.3,29.2-36.9,29.2-52.6
			c0-17.8,21.2-71.3,31.6-78c12.5-7.9,31.6-27.4,35.1-37.1c1.9-5.2,5.4-7.1,14.2-9.2c6-1.4,8.5-2.4,10.5-4.7
			c1.5-1.7,2.7-4.7,4.3-10.1c0.2-0.8,1.9-6.6,2.4-8.3c3.6-11.9,7.2-18.2,13.2-20c2.5-0.7,3-1,9.6-3.6c7.4-3,11.8-4.3,16.8-4.8
			c6.6-0.6,12.9,0.7,19.2,4.6c5.3,3.3,12,4.6,19.8,4.5c5.9-0.1,12-1.1,19.5-2.7c1.8-0.4,7.2-1.7,8.1-1.9c2.6-0.6,4.3-0.9,5.4-0.9
			c4.9,0,8.8,0,13.9-0.3c7.8-0.3,15.3-0.9,22.3-1.8c8.3-1.1,15.6-2.7,21.5-4.7c18.6-6.5,32-18,33.1-27.1c0.3-2.5,0.4-2.9,2.7-10.9
			c2.3-7.8,3.2-12.7,2.7-17.9c-0.2-2.2-0.7-4.3-1.5-6.3c-1.5-3.8-2.6-9.2-3.4-15.9h0.9c0.8,6.4,1.9,11.5,3.4,15.5
			c0.8,2.1,1.3,4.3,1.5,6.6c0.5,5.4-0.4,10.3-2.7,18.3c-2.3,7.9-2.4,8.3-2.7,10.7c-1.1,9.6-14.8,21.3-33.7,27.9
			c-5.9,2.1-13.3,3.7-21.7,4.8c-7.1,0.9-14.6,1.5-22.4,1.9c-5.2,0.2-9.1,0.3-14,0.3c-1,0-2.6,0.3-5.2,0.9c-0.9,0.2-6.3,1.5-8.1,1.9
			c-7.5,1.7-13.7,2.7-19.7,2.8c-8,0.2-14.8-1.2-20.3-4.6c-6.1-3.7-12.2-5.1-18.6-4.5c-4.9,0.5-9.3,1.8-16.5,4.8
			c-6.6,2.7-7.2,2.9-9.6,3.7c-5.6,1.7-9.1,7.8-12.6,19.4c-0.5,1.7-2.2,7.5-2.4,8.3c-1.6,5.5-2.9,8.6-4.4,10.5
			c-2.2,2.5-4.8,3.6-11.8,5.2c-7.7,1.8-10.9,3.6-12.7,8.4c-3.6,9.9-22.9,29.5-35.5,37.5c-10.1,6.5-31.2,59.7-31.2,77.1
			c0,16-16,44-29.7,53.4c-2.1,1.5-8.1,5-14,8.5V318V363.2L0,363.2z M0,192.7v-1.1c7.3-3.8,14.3-10,21.4-18.6
			c3.7-4.5,13.9-18.4,15.5-20.2c1.8-2,4-3.9,7.3-6.3c1.1-0.8,4.8-3.5,5.4-3.9c9.2-6.7,13.7-11.7,15.7-19c0.8-2.9,1.5-6.7,2.4-12.1
			c0.2-1.4,2-12.2,2.5-15.5c2.8-16.5,5.6-26.3,9.9-31.5c10.7-13,19.5-27,19.5-32.1c0-2.5,0.3-3.3,5.9-15.4c0.7-1.5,1.2-2.7,1.7-3.9
			c2.5-5.6,3.8-9.9,4.1-13.1h1c-0.2,3.4-1.6,7.7-4.2,13.5c-0.5,1.2-1.1,2.4-1.7,3.9c-5.4,11.8-5.8,12.8-5.8,15
			c0,5.4-8.9,19.5-19.7,32.7c-4.1,5-6.9,14.8-9.7,31.1c-0.6,3.3-2.3,14.1-2.5,15.5c-0.9,5.5-1.6,9.2-2.4,12.2
			c-2,7.5-6.7,12.7-16.1,19.5l-5.4,3.9c-3.2,2.4-5.4,4.3-7.1,6.2c-1.5,1.7-11.7,15.6-15.5,20.2C14.8,182.5,7.6,188.9,0,192.7
			L0,192.7z M0,547.9v-4.3c0.5,2.3,1,4.3,1.6,6c2,5.9,4.5,8.1,8,6.5c18.6-8.7,33.1-23.7,33.1-38.8c0-15.9,6.3-31.4,16.8-45.5
			c1.8-2.5,3.6-4.3,5.4-5.9c0.7-0.6,1.4-1.2,2.3-1.8l2-1.4c3.6-2.6,5.2-5.2,7-12.4c0.7-3,1.4-4.9,4.1-13l0.6-1.8
			c3.2-9.4,4.5-14.7,4.1-18.3c-0.5-4.3-3.7-5.1-11.1-1.6c-2.9,1.4-5.9,2.6-9,3.6c-13.6,4.6-26.5,5.7-41.9,5.3l-1.9,0l-1.4,0
			c-5.1,0-10.1,1-14.8,2.9c-1.7,0.7-3.4,1.7-4.9,2.9v-1.2c1.4-1,2.9-1.9,4.5-2.5c5.3-2.2,10.9-3.2,16.6-3l1.9,0
			c15.3,0.4,28-0.7,41.5-5.3c3-1,6-2.2,8.9-3.6c7.9-3.8,11.9-2.8,12.5,2.4c0.4,3.8-0.9,9.2-4.1,18.7l-0.6,1.8
			c-2.7,8-3.4,10-4.1,12.9c-1.8,7.4-3.5,10.1-7.3,12.9l-2,1.4c-0.8,0.6-1.5,1.1-2.2,1.7c-2,1.7-3.7,3.6-5.3,5.7
			c-10.4,13.9-16.6,29.2-16.6,44.9c0,15.6-14.7,30.9-33.7,39.7c-4.2,2-7.3-0.6-9.4-7C0.4,549.3,0.2,548.6,0,547.9L0,547.9z M0,486.9
			v-2.4l1.4,3.2c2.1,4.7,3.4,10.1,4.2,16.5c0.6,5.2,0.8,9.1,1,18.2c0.2,9.1,0.5,12.5,1.6,14.8c1.3,2.6,3.6,2.3,8.1-1.5
			c16.8-14,21.4-22.5,21.4-37.9c0-7,1.1-12.2,3.6-17.4c2.2-4.6,3.6-6.5,13.2-19.3c2.2-3.1,4.7-6,7.5-8.6c1.1-1.1,2.3-2.1,3.5-3
			c0.4-0.3,0.6-0.5,0.9-0.7c1.1-0.9,2-2,2.6-3.3c0.9-1.9,1.7-3.8,2.2-5.8l0.4-1.2l0.4-1.1c0.3-0.9,0.5-1.5,0.6-2.1
			c0.4-1.5,0.7-2.6,0.9-3.6c0.4-2.2,0.1-3.4-0.8-4.1c-2.3-1.6-9.1-0.2-23.4,4.8c-9.4,3.3-15.8,4.1-27.3,4.2
			c-7.6,0.1-10.2,0.4-13,2.1c-3.4,2.1-5.7,6.3-7.4,14c-0.5,2.2-1,4.1-1.5,5.9v-3.9l0.5-2.2c1.8-8,4.2-12.4,7.9-14.6
			c3-1.8,5.8-2.2,13.5-2.2c11.4-0.1,17.8-0.8,27-4.1c14.7-5.2,21.5-6.6,24.2-4.7c1.4,0.9,1.7,2.6,1.3,5.1c-0.2,1.3-0.5,2.5-0.9,3.7
			l-0.6,2.1l-0.4,1.1l-0.4,1.2c-0.6,2.1-1.3,4.1-2.3,6c-0.8,1.5-1.6,2.5-2.8,3.5l-0.9,0.8l-1,0.8c-0.9,0.7-1.6,1.4-2.4,2.1
			c-2.7,2.6-5.1,5.5-7.3,8.5c-9.5,12.7-10.9,14.6-13.1,19.1c-2.5,5.1-3.5,10-3.5,16.9c0,15.7-4.7,24.5-21.8,38.7
			c-4.9,4.1-8,4.5-9.6,1.2c-1.2-2.5-1.5-5.8-1.7-15.2c-0.2-9-0.4-12.9-1-18.1c-0.8-6.2-2.1-11.6-4.1-16.2L0,486.9L0,486.9z M372.3,0
			h1l1.5,5.2c3.2,11.3,4.8,19,5.2,27.3c0.5,10.8-1.5,20.9-6.5,30.6c-7.7,14.9-20.1,26-35.6,33.5c-12.2,5.9-25.6,9-35.6,9
			c-6.7,0-16.9,1.4-36.6,4.5l-2.2,0.4c-24.1,3.9-31.1,4.9-36.8,4.9c-3.4,0-4-0.1-19.2-2.7c-3.5-0.6-6.2-1.1-8.8-1.5
			c-19.9-2.9-30.4-1.2-31.4,7.7c-0.1,0.8-0.2,1.7-0.3,2.8l-0.3,2.7c-1.1,10.7-2,15.4-4.2,19.6c-2.8,5.2-7.6,7.8-15.3,7.8
			c-10,0-12.7,0.6-15.2,3.1c0.5-0.5-4.9,5.7-8,8.5c-2.7,2.5-14.1,12.3-15.5,13.6c-2.2,1.9-4.3,3.8-6.4,5.8
			c-6.8,6.4-11.6,11.5-14.3,15.9c-5.8,9.1-10.3,17.7-11.5,23.6c-1.6,8.1,3.6,9.4,18.7,1.2c14.3-7.7,28.9-14.9,43.7-21.5
			c3.4-1.5,13.8-6.1,15.4-6.8c5-2.2,8.1-3.7,10.6-5.1l1.9-1.1l2.1-1.2c1.7-0.9,3.3-1.7,4.9-2.5c17.8-8.6,33.8-10.3,49.4-1.2
			c22.5,13.1,37.6,36.3,37.6,55.4c0,18.8-0.7,24.7-5.1,32.6c-1.4,2.5-3,4.8-4.8,7c-6.4,7.6-11.6,15.9-12.5,20.9
			c-1.2,6.2,4.6,6.9,19.8-0.1c13.1-6,22-14.7,28-25.8c2.5-4.7,4.5-9.7,6-14.9c0.9-2.9,3.1-11.4,3.3-12.3c0.4-1.6,1-3.2,1.7-4.7
			c7.3-14.7,20.7-29.9,35.6-36.6c7.5-3.3,12.8-9.5,19-20.4c0.8-1.5,4.2-7.5,5-9c3.5-6,6.1-9.5,9.2-11.8c10-7.3,28.2-10.9,49.4-10.9
			c7.4,0,16.2-1.2,27-3.5c4.9-1.1,9.8-2.2,14.7-3.5c-1.3,0.3,15.3-3.9,19.1-4.8c13.9-3.3,40.3-4.9,62.9-4.9c17,0,27.3-9.1,37.8-38
			c6.5-17.9,6.5-25.9,2.6-33.7l-1.2-2.3c-1-1.9-1.5-3.9-1.5-6c0-4,0-3.9,2.5-24.1c0.5-3.7,0.8-6.6,1.1-9.5
			c0.9-8.3,1.4-14.9,1.4-20.4c0-0.9,0-1.9,0-2.9h1c0,1,0,2,0,2.9c0,5.5-0.5,12.2-1.4,20.5c-0.3,2.9-0.6,5.8-1.1,9.5
			c-2.5,20.1-2.5,20.1-2.5,24c0,1.9,0.4,3.5,1.4,5.6c0.2,0.5,1.1,2.3,1.1,2.3c4,8.1,4,16.4-2.6,34.5c-10.6,29.3-21.2,38.6-38.7,38.6
			c-22.5,0-48.9,1.6-62.7,4.9c-3.8,0.9-20.3,5.1-19,4.8c-4.9,1.2-9.8,2.4-14.7,3.5c-10.8,2.3-19.7,3.5-27.2,3.5
			c-21,0-39,3.6-48.8,10.7c-2.9,2.1-5.5,5.6-8.9,11.5c-0.9,1.5-4.2,7.5-5,9c-6.4,11.1-11.8,17.4-19.5,20.8
			c-14.6,6.5-27.9,21.6-35.1,36.1c-0.7,1.5-1.2,3-1.7,4.6c-0.2,0.8-2.5,9.3-3.3,12.3c-1.5,5.2-3.5,10.2-6.1,15
			c-6.1,11.3-15.2,20.2-28.4,26.3c-15.8,7.2-22.6,6.4-21.2-1c1-5.2,6.3-13.6,12.8-21.3c1.8-2.1,3.4-4.4,4.7-6.8
			c4.3-7.7,5-13.5,5-32.1c0-18.7-14.9-41.6-37-54.5c-15.3-8.9-31-7.2-48.5,1.2c-2.4,1.1-4.7,2.4-7,3.6l-1.9,1.1
			c-3.5,1.8-7,3.5-10.7,5.1c-1.6,0.7-12,5.3-15.4,6.8c-14.8,6.6-29.4,13.7-43.6,21.5c-15.7,8.5-22,7-20.1-2.2
			c1.2-6.1,5.7-14.7,11.6-24c2.8-4.4,7.6-9.6,14.5-16c1.9-1.8,4-3.7,6.4-5.8c1.4-1.3,12.8-11.1,15.5-13.6c3-2.7,8.4-9,8-8.5
			c2.8-2.8,5.6-3.4,15.9-3.4c7.4,0,11.8-2.4,14.5-7.3c2.2-4,3.1-8.7,4.1-19.2l0.3-2.7l0.3-2.8c0.6-5.3,4.4-8.3,11-9.4
			c5.3-0.9,12.3-0.5,21.5,0.8c2.6,0.4,5.4,0.8,8.9,1.5c15,2.7,15.7,2.7,19,2.7c5.6,0,12.7-1,36.6-4.9l2.2-0.4
			c19.7-3.2,30-4.6,36.7-4.6c9.8,0,23.1-3.1,35.1-8.9c15.3-7.4,27.6-18.4,35.1-33c4.9-9.6,6.9-19.5,6.4-30.1
			c-0.4-8.2-1.9-15.8-5.1-27.1L372.3,0z M385.7,0h1c0.8,3.8,1.9,8.5,3.4,14.6c3.6,13.8,3,26.5-0.7,38.1c-2.4,7.4-6.1,14.3-11.1,20.3
			c-5.7,6.7-12.1,12.9-19,18.4c-11.1,8.9-22.9,15.2-35.3,18.1c-7.3,1.7-14.7,3-22.2,4c-3.1,0.4-6.2,0.8-10.1,1.3l-9.2,1.1
			c-11.3,1.4-17.1,2.5-21.2,4.4c-9.1,4.1-27.8,5.9-48.3,5.9c-1.3,0-2.7-0.1-4.2-0.3c-2.6-0.4-4.9-1-9-2.2c-7.2-2.2-9.5-2.7-12.4-2.5
			c-3.8,0.2-6.5,2.2-8.3,6.8c-1.8,4.6-2.4,7.4-3.3,14.7c-1.1,8.8-2.8,11.9-9.8,14c-2.3,0.7-4.5,1.5-6.7,2.6c-0.6,0.3-1.1,0.6-1.7,1
			l-1.3,0.8c-1.9,1.1-3.8,1.5-9.1,1.5c-3.1,0-8.7-0.5-9.3-0.4c-1.2,0.3-0.7-0.1-7,6.1c-1.5,1.5-3.4,3.1-6.2,5.3
			c-1.5,1.2-7,5.3-7.8,5.9c-4.9,3.7-8.2,6.5-10.9,9.2c-4.8,4.9-6.7,9-5.5,12.5c1.3,3.6,4,4.3,8.7,2.8c2.6-0.9,5.2-2.1,7.6-3.4
			c1.5-0.8,7.6-4.1,9.2-4.9c3.9-2.1,8-4,12.1-5.6c3.7-1.4,7.3-3,10.8-4.8c2-1,10.5-5.1,12.8-6.1c4.3-2.1,8-3.7,11.4-5.2
			c16.8-7.2,28.8-9.7,37-6.5l5.3,2.1c2.3,0.9,4.1,1.6,5.9,2.3c4.4,1.8,8.7,3.7,12.8,5.9c18,9.5,29.8,21.7,34.2,39.1
			c6.8,27.3,3.5,44.7-7.9,61.3c-3.9,5.6-3.5,9,0.1,8.8c4.1-0.3,10-4.9,14.8-12.3c3-4.7,5-10.3,7.9-21.1l1.7-6.2
			c0.6-2.4,1.2-4.4,1.8-6.4c4.8-16.3,10.8-26.8,21.2-34.1c7-5,23.3-15.2,25-16.4c6.6-4.7,10.3-9.3,14.1-17.7
			c7.6-17.1,20.7-23.9,43.7-23.9c9.2,0,17.6-1.1,29-3.4c2-0.4,4.1-0.8,6.1-1.3c2.4-0.5,4-0.8,5.6-1.1c4-0.7,6.9-1.1,9.4-1.1
			c4.4,0,9.2-1,30.8-5.9l2.9-0.6c16-3.6,25.2-5.3,31.1-5.3c1.5,0,2.4,0,6.3,0.1c7.7,0.1,12,0.1,17-0.2c16.1-1,26.2-5.3,29.3-14.3
			c1-3,2.2-5.8,3.5-8.7c-0.1,0.3,2.2-4.9,2.8-6.3c5.3-12.1,5.5-21.5-1.4-38.7c-2.6-6.5-4.3-13.4-5.2-20.3
			c-1.6-11.8-1.4-22.7,0.1-39.6l0.2-2.1h1l-0.2,2.2c-1.5,16.8-1.7,27.7-0.1,39.4c0.9,6.9,2.6,13.6,5.1,20.1
			c7,17.5,6.8,27.2,1.4,39.5c-0.6,1.4-3,6.6-2.9,6.3c-1.3,2.8-2.5,5.7-3.5,8.6c-3.2,9.5-13.6,13.9-30.1,15c-5,0.3-9.4,0.3-17.1,0.2
			c-3.9-0.1-4.8-0.1-6.3-0.1c-5.8,0-14.9,1.6-30.9,5.2l-2.9,0.7c-21.8,4.9-26.6,5.9-31,5.9c-2.5,0-5.4,0.4-9.3,1.1
			c-1.6,0.3-3.2,0.6-5.5,1.1c-2,0.4-4.1,0.8-6.1,1.3c-11.5,2.3-19.9,3.4-29.2,3.4c-22.6,0-35.3,6.6-42.7,23.2
			c-3.8,8.6-7.7,13.3-14.4,18.2c-1.7,1.2-18,11.5-25,16.4c-10.2,7.2-16,17.5-20.8,33.6c-0.6,1.9-1.1,3.9-1.8,6.4l-1.7,6.2
			c-2.9,11-4.9,16.6-8,21.4c-5,7.7-11.2,12.4-15.6,12.7c-4.6,0.3-5.2-4.2-0.9-10.3c11.3-16.3,14.5-33.4,7.8-60.5
			c-4.3-17.1-15.9-29.2-33.6-38.5c-3.9-2.1-8-3.9-12.8-5.9c-1.8-0.7-3.6-1.5-5.9-2.3l-5.3-2c-7.9-3.1-19.7-0.6-36.2,6.5
			c-3.5,1.5-7.1,3.1-11.4,5.2l-12.8,6.1c-4.6,2.2-8,3.7-10.9,4.8c-4.1,1.6-8.1,3.5-12,5.5c-1.6,0.8-7.7,4.1-9.2,4.9
			c-2.5,1.4-5.1,2.5-7.8,3.5c-5.2,1.7-8.5,0.8-10-3.4c-1.4-3.9,0.6-8.3,5.7-13.5c2.7-2.8,6-5.6,10.9-9.3c0.8-0.6,6.3-4.8,7.8-5.9
			c2.1-1.6,4.2-3.3,6.1-5.2c6.6-6.6,6-6,7.5-6.4c0.9-0.2,6.6,0.4,9.6,0.4c5.1,0,6.9-0.3,8.6-1.3l1.3-0.8c0.6-0.4,1.2-0.7,1.8-1.1
			c2.2-1.1,4.5-2,6.8-2.7c6.5-2,8.1-4.8,9.1-13.2c0.9-7.4,1.5-10.3,3.3-15c2-4.9,4.9-7.1,9.2-7.4c3.1-0.2,5.4,0.3,12.7,2.6
			c2.9,1,5.9,1.7,8.9,2.2c1.4,0.2,2.8,0.3,4.1,0.3c20.3,0,39-1.8,47.9-5.9c4.2-1.9,10.1-3,21.5-4.4l9.2-1.1c3.8-0.5,7-0.9,10.1-1.3
			c8-1.1,15.1-2.4,22.1-4c12.2-2.8,23.9-9.1,34.9-17.9c6.9-5.5,13.2-11.6,18.8-18.3c4.9-5.9,8.6-12.7,10.9-19.9
			c3.7-11.4,4.2-23.9,0.7-37.5C387.9,9.9,386.8,5,385.7,0L385.7,0z M497.4,0h1.2c-0.5,0.6-0.9,1.2-1.1,1.5c-3.9,4.9-6.8,7.8-9.6,9.4
			c-1.5,0.9-3.2,1.4-4.9,1.4c-2.3,0-4.2,0.7-6.6,2.2l-2.6,1.7c-4.3,2.7-7.9,4-13.4,4c-5.5,0-9.8-1.2-15.8-4c-0.8-0.3-1.5-0.7-2.3-1
			l-2.1-1c-1.6-0.7-2.9-1.1-4.1-1.5c-1-0.3-2.1-0.4-3.2-0.4c-2.3,0-4.2-0.7-10.8-3.3l-1.5-0.6c-4.9-1.9-8-2.8-10.3-2.6
			c-2.9,0.2-4.3,2-4.3,6c0,20.4-5.1,49.5-11.9,56.3c-7.4,7.5-26.1,23.3-33.4,28.5c-12.9,9.2-30.6,19.8-43.3,24.6
			c-4.3,1.6-8.6,2.9-13.1,4c-3.2,0.8-6.5,1.4-11,2.2c-0.5,0.1-8.6,1.5-11.3,2c-4.8,0.9-9.1,1.7-13.7,2.7
			c-20.2,4.4-24.6,4.9-37.4,4.9c-2.4,0-2.8-0.1-13.8-2c-2.4-0.4-4.2-0.7-6-1c-8-1.2-13.6-1.3-17.3-0.2c-4.5,1.4-5.8,4.6-3.6,10.3
			c2,5.2,4.8,8.5,8.7,10.5c3.2,1.7,6.6,2.6,13.6,3.6c9.2,1.5,10.7,1.7,15.2,2.9c6.4,1.6,12.5,4.1,18.3,7.2
			c8.1,4.5,14.3,11.3,19.6,20.5c2.7,4.6,9.3,19,10.3,20.8c3.3,5.7,6.1,6.5,10.7,2c4.9-4.8,10.2-8.2,20.7-13.8c0.5-0.2,2-1.1,2.1-1.1
			c7.8-4.1,11.7-6.4,15.6-9.4c5-3.8,8.5-8,10.6-12.9c8.4-19.9,20.4-32.7,31.9-32.7l5.4,0c10.3,0.1,17,0,24.4-0.3
			c13.4-0.6,23.3-2.1,28.9-4.6c5.7-2.7,13.2-5.4,23.7-8.9c3.4-1.1,6.2-2,12.5-4c7.6-2.4,10.9-3.5,14.9-4.8c3.7-1.2,7.4-2.5,11.1-3.7
			c3.6-1.2,5.9-2,7.9-2.7c2.2-0.8,4.4-1.8,6.5-2.9c1.8-1,3.7-2.1,5.8-3.4c3.4-2.3,6-3.1,11.8-4.1l1.1-0.2c5.6-1,8.8-2.3,12.5-5.5
			c7.7-6.8,8.4-22.8,3.8-43.7c-1.7-7.5-2.1-18.9-1.5-34.8c0.2-6.1,0.5-12.2,0.8-18.3h1l-0.1,3c-0.3,6.3-0.5,10.8-0.7,15.3
			c-0.5,15.8-0.1,27.1,1.5,34.6c4.7,21.3,4,37.5-4.1,44.6c-3.8,3.4-7.2,4.8-13,5.8l-1.1,0.2c-5.7,1-8.2,1.7-11.4,3.9
			c-1.9,1.3-3.8,2.4-5.9,3.5c-2.2,1.1-4.4,2.1-6.6,2.9c-2.1,0.8-4.3,1.6-7.9,2.7c-3.7,1.2-7.4,2.4-11.1,3.6c-4,1.3-7.3,2.4-14.9,4.8
			c-6.3,2-9.1,2.9-12.5,4c-10.5,3.5-17.9,6.2-23.6,8.8c-5.7,2.6-15.7,4.1-29.2,4.7c-7.4,0.3-14.1,0.4-24.5,0.3l-5.4,0
			c-11,0-22.7,12.6-31,32.1c-2.1,5.1-5.7,9.3-10.9,13.3c-3.9,3-7.8,5.3-15.7,9.4l-2.1,1.1c-10.5,5.5-15.7,8.9-20.5,13.6
			c-5,5-8.6,4.1-12.2-2.2c-1.1-1.9-7.7-16.2-10.3-20.8c-5.2-9.1-11.3-15.7-19.2-20.1c-5.7-3.1-11.8-5.5-18.1-7.1
			c-4.4-1.1-5.9-1.4-15.1-2.8c-7-1.1-10.5-2-13.9-3.7c-4.1-2.2-7.1-5.7-9.1-11.1c-2.4-6.3-0.8-10.1,4.3-11.6c3.9-1.2,9.6-1,17.7,0.2
			c1.8,0.3,3.7,0.6,6.1,1c10.8,1.9,11.3,1.9,13.6,1.9c12.7,0,17-0.5,37.2-4.9c4.6-1,9-1.9,13.8-2.7c2.7-0.5,10.8-1.9,11.3-1.9
			c4.6-0.8,7.8-1.4,11-2.2c4.5-1,8.6-2.3,13-3.9c12.6-4.7,30.2-15.3,43.1-24.5c7.3-5.2,25.9-21,33.3-28.4
			c6.5-6.5,11.6-35.5,11.6-55.6c0-4.5,1.8-6.8,5.3-7c2.6-0.2,5.7,0.7,10.8,2.7l1.5,0.6c6.4,2.6,8.4,3.2,10.4,3.2
			c1.1,0,2.3,0.2,3.4,0.5c1.3,0.3,2.6,0.8,4.3,1.5c1.1,0.5,2.2,1,3.3,1.5l1.1,0.5c5.9,2.7,10,3.9,15.4,3.9c5.3,0,8.7-1.2,12.9-3.8
			c0.2-0.1,2.1-1.4,2.6-1.7c2.6-1.6,4.6-2.3,7.1-2.3c1.4,0,2.9-0.4,4.4-1.3c2.7-1.5,5.6-4.4,9.4-9.1L497.4,0L497.4,0z M318.6,589h-2
			c0.5-2.9,0.9-6.1,1.3-9.5c0.4-4,0.7-8.1,1-12c0.1-1.4,0.1-2.6-0.3-7.2c-0.5-1.9-0.9-4.1-1.3-6.4c-2-11.1-2.6-22.5-1.1-33.2
			c0.8-6.1,2.5-12,5.1-17.6c3.2-6.6,7.3-12.6,12.4-17.9c3.3-3.5,5.4-5.4,11.6-10.6c4.4-3.7,6.2-5.5,7.4-7.4c0.6-1,0.9-2,0.9-3
			c0-1.7,0-1.7-0.7-9.1c-0.4-3.6-0.6-6.2-0.7-8.8c-0.5-11.9,1.6-19.2,8-21.4c15.6-5.2,25.4-11.9,32.8-25.1
			c9.3-16.6,25.2-30.9,35.2-30.9c12.1,0,19.6-1.9,28.9-8.6c6.6-4.8,9.3-6.5,12.2-7.3c2.2-0.6,3.7-0.7,9-0.7c1.8,0,3.5-0.8,5.5-2.6
			c1.1-0.9,5-5,5.5-5.5c5.9-5.7,11.8-8.6,20.4-8.6c2.4,0,4.5,0,7.2,0.1c7.4,0.2,8.7,0.2,11.1-0.7c3-1.1,5.4-3,14.5-11
			c7.9-6.9,10.5-8.8,22.5-16.2c1.4-0.9,2.5-1.6,3.6-2.3c3.3-2.2,6.4-4.6,9.3-7.4c4-3.8,7.9-7.7,11.4-11.7v2.9
			c-3.2,3.5-6.6,6.9-10.1,10.2c-3.1,2.9-6.1,5.3-9.5,7.6c-1.1,0.7-2.2,1.5-3.7,2.4c-11.8,7.4-14.4,9.1-22.2,16
			c-9.3,8.2-11.8,10.1-15.1,11.3c-2.7,1-4.1,1-11.8,0.8c-2.7-0.1-4.7-0.1-7.1-0.1c-8.1,0-13.5,2.7-19.1,8.1
			c-0.4,0.4-4.4,4.6-5.6,5.6c-2.3,2.1-4.4,3.1-6.8,3.1c-5,0-6.5,0.1-8.4,0.6c-2.6,0.8-5.2,2.3-11.6,7c-9.6,7-17.5,9-30,9
			c-9.1,0-24.5,13.9-33.5,29.9c-7.7,13.7-17.9,20.6-33.9,26c-5.2,1.7-7.1,8.4-6.6,19.4c0.1,2.6,0.3,5.1,0.7,8.7
			c0.7,7.5,0.7,7.4,0.7,9.3c0,1.4-0.4,2.7-1.2,4c-1.3,2.2-3.2,4-7.8,7.9c-6.1,5.1-8.2,7-11.5,10.4c-4.9,5.1-9,11-12,17.4
			c-2.5,5.4-4.2,11.1-4.9,17c-1.5,10.5-0.8,21.7,1.1,32.5c0.4,2.3,0.9,4.4,1.3,6.3c0.2,0.6,0.3,1.2,0.6,4
			c-0.2,5.3-0.6,10.6-1.1,15.8C319.5,583,319.1,586.1,318.6,589L318.6,589z M305.4,589h-1l0.1-0.3c3-7,4.2-11.6,4.2-18.4
			c0-3.5-0.1-4.8-0.7-15.4c-0.8-11.8-1-19.3-0.5-27.8c0.6-11.3,2.4-21.7,5.7-31.6c1.3-3.7,2.7-7.4,4.5-10.9
			c3.4-7,6.7-12.2,10.2-16.3c1.3-1.6,2.8-3.1,4.3-4.5c0.4-0.4,2.9-2.7,3.6-3.4c5.6-5.5,7.4-11.3,7.4-28.6c0-18.5,2.8-23.3,15.5-27.7
			c1.1-0.4,1.9-0.7,2.7-1c2.1-0.8,4.1-1.6,6-2.6c4.9-2.6,9.5-6.1,14.2-11.2c25-27.1,36.5-34.5,55.3-34.5c8.1,0,14.3-1.9,21.6-6.2
			c1.7-1,13.6-8.7,17.8-11.1c2.8-1.6,5.6-3,8.5-4.3c7.8-3.5,13.7-4.4,26.1-4.7c7.4-0.2,10.5-0.5,14-1.6c4.5-1.4,7.9-3.9,10.7-8.3
			c2.2-3.3,6.7-7,14.4-11.8c1.6-1,3.2-2,5.5-3.4c9.4-5.7,11.3-7,14.5-9.4c5.2-3.9,9.1-8.2,13.4-14.5c1.9-2.8,3.8-5.7,5.5-8.6v1.9
			c-1.9,3.1-3.3,5.3-4.7,7.3c-4.3,6.4-8.3,10.7-13.6,14.7c-3.2,2.4-5.2,3.7-14.6,9.4c-1.9,1.1-3.7,2.3-5.5,3.4
			c-7.6,4.8-12,8.4-14.1,11.5c-2.9,4.5-6.6,7.3-11.3,8.7c-3.6,1.1-6.8,1.4-14.3,1.6c-12.3,0.3-18.1,1.2-25.7,4.6
			c-2.9,1.3-5.7,2.7-8.4,4.3c-4.2,2.4-16,10-17.8,11.1c-7.5,4.3-13.8,6.3-22.1,6.3c-18.5,0-29.7,7.3-54.6,34.2
			c-4.8,5.2-9.5,8.8-14.4,11.4c-2,1-3.9,1.9-6.1,2.7c-0.8,0.3-1.7,0.6-5.3,1.8c-5,1.7-7.3,3.2-9.1,6.3c-2.2,3.7-3.2,9.8-3.2,19.7
			c0,17.6-1.8,23.6-7.7,29.3c-0.7,0.7-3.2,3-3.6,3.4c-1.5,1.4-2.9,2.9-4.2,4.4c-3.5,4.1-6.7,9.1-10.1,16.1
			c-1.7,3.5-3.2,7.1-4.4,10.8c-3.3,9.8-5.1,20.1-5.7,31.3c-0.4,8.4-0.2,15.9,0.5,27.7c0.7,10.6,0.7,11.9,0.7,15.4
			C309.7,576.6,308.7,581,305.4,589L305.4,589z M330.1,589h-1c0-4.6,0.1-9.2,0.3-14.7c0.3-6.3-0.4-11.6-2.5-23.9l-0.3-1.8
			c-2.1-12.3-2.7-19-1.9-26c1-9.1,4.7-16.4,11.8-22.3c21.6-17.9,29.3-29.6,29.3-43.8c0-2.6-0.3-4.7-1-8c-1-4.7-1.1-5.6-1-7.4
			c0.2-2.5,1.2-4.6,3.5-6.6c2.6-2.3,6.9-4.5,13.5-6.9c9.5-3.4,15.2-9,23.9-21.2l1.7-2.5c4.4-6.2,7-9.5,10.2-12.5
			c4.2-4,8.8-6.6,14.3-8c13.1-3.3,20-5.4,24.9-7.5c1.8-0.8,3.5-1.7,5.2-2.7c1.1-0.6,1.7-1,4.2-2.6c2.6-1.6,5.1-2,11.2-2.2
			c5.3-0.2,7.8-0.4,10.8-1.4c3.6-1.2,6.9-3.3,9.4-6.1c4.8-5.2,9.8-7.5,17.5-8.7c1.1-0.2,1.8-0.3,3.8-0.6c6.8-1,9.8-1.7,13.2-3.6
			c4.4-2.4,6.7-4.4,23-19.3l3.1-2.8c9.5-8.5,15.8-13.6,21-16.2c4.2-2.1,7.5-4.6,11-8.4v1.4c-3.4,3.5-6.6,5.9-10.6,7.9
			c-5.1,2.5-11.4,7.5-20.8,16l-3.1,2.8c-16.5,15.1-18.7,17-23.2,19.5c-3.6,2-6.7,2.7-13.6,3.7c-1.9,0.3-2.7,0.4-3.8,0.6
			c-7.4,1.2-12.3,3.4-16.9,8.4c-2.6,3-6,5.2-9.8,6.4c-3.1,1-5.6,1.2-11,1.4c-5.9,0.2-8.2,0.6-10.7,2.1c-1.4,0.9-2.8,1.7-4.2,2.6
			c-1.7,1-3.5,1.9-5.3,2.7c-4.9,2.2-11.9,4.3-25,7.6c-9.6,2.4-15,7.5-24,20.2l-1.7,2.5c-8.7,12.3-14.5,18-24.3,21.5
			c-6.4,2.3-10.7,4.5-13.2,6.7c-2.1,1.8-3,3.7-3.2,5.9c-0.1,1.7,0,2.6,0.9,7.2c0.7,3.4,1,5.6,1,8.2c0,14.5-7.8,26.5-29.6,44.6
			c-6.9,5.7-10.4,12.8-11.4,21.6c-0.8,6.9-0.1,13.5,1.9,25.7l0.3,1.8c2.1,12.4,2.7,17.7,2.5,24.1C330.1,579.8,330,584.3,330.1,589
			L330.1,589z M94.1,589h-2c0.7-3.8,1.1-8.6,1.6-15.7c0.2-3.1,0.3-4,0.4-5.5c1.3-17.2,4-26.6,11.3-32.6c4.6-3.7,7.1-8.8,8.5-15.7
			c0.5-2.5,0.7-3.8,1.3-9c0.6-5.4,1.1-7.9,2.2-10.2c1.4-3,3.8-4.6,7.3-4.6c14,0,37.8,9,52.6,19.8c8.5,6.2,20.9,13.1,31.2,16.8
			c12.8,4.6,21.5,4.3,24.3-1.7c1.7-3.6,1.9-4,2.6-5.7c2.9-6.5,4.6-12,5.2-17.2c0.2-2.1,0.2-4.2,0-6.1c-0.3-2.7-1.4-4.5-4-7.2
			l-1.3-1.3c-0.8-0.9-1.6-1.8-2.4-2.7c-0.9-1.3-1.7-2.6-2.5-4l-1.1-2.1c-1.6-3-2.6-4.5-4-5.5c-5.2-3.4-14.5-5.4-28-6.7
			c-3-0.3-5.9-0.5-8.9-0.7l-2.1-0.2c-9.4-0.7-14.8-1.5-18.7-3.1c-13.8-5.7-34-25.9-34-36.2c0-5.2,1.7-9.4,5.4-13.9
			c1.9-2.4,10.9-11.5,12.6-13.3c4.4-4.9,10-9.4,17.4-14.4c2.7-1.9,14.5-9.4,17.2-11.3c2.2-1.6,4.3-3.4,6.2-5.3c1.5-1.5,6.8-7,7-7.2
			c7-7.2,12.5-11.3,19.4-14.1c3.3-1.3,8-2.7,17.1-5.3c3.9-1.1,7.7-2.1,11.6-3.2c4.2-1.2,8.3-2.4,12.4-3.6c20-6.1,33.4-11.9,40-18.1
			c8.6-8.1,11.6-13.6,15.4-25.5c2-6.1,3-8.9,5-12.5c9.4-17.4,28.2-38.6,42.7-44.6c13.9-5.7,19-11.5,19-17.7c0-2.8,2.7-8.2,6.7-13.5
			c4.7-6.1,10.5-11.2,16.4-13.9c12.3-5.7,32.9-9.9,46.6-9.9c5.2,0,9.6-1.5,16.1-4.8c9-4.6,9.9-5,13.3-5c10.2,0,31.5-2.5,44.9-5.9
			l3.8-1l3.4-0.9c2.6-0.6,4.3-1.1,5.8-1.4c3.8-0.8,6.6-1.2,9.4-1.1c2.7,0.1,5.4,0.5,8.5,1.5c4.5,1.3,13.5-0.9,22.5-5.6
			c3.4-1.7,6.6-3.8,9.7-6.1v2.4c-10.9,8-25.3,13.4-32.7,11.2c-2.6-0.8-5.3-1.3-8-1.4c-2.6,0-5.3,0.3-8.9,1.1
			c-3.1,0.7-6.1,1.4-9.2,2.3l-3.8,1c-13.6,3.4-35,5.9-45.4,5.9c-2.9,0-3.8,0.4-12.4,4.8c-6.7,3.4-11.4,5-17,5
			c-13.4,0-33.7,4.2-45.7,9.7c-5.7,2.6-11.2,7.5-15.7,13.3c-3.8,4.9-6.3,10-6.3,12.3c0,7.1-5.7,13.6-20.2,19.6
			c-14,5.8-32.6,26.7-41.7,43.7c-1.9,3.5-2.9,6.2-4.8,12.2c-4,12.2-7.1,18.1-16,26.4c-7,6.5-20.5,12.3-40.8,18.5
			c-4.1,1.3-8.3,2.5-12.5,3.6c-3.9,1.1-7.7,2.2-11.6,3.2c-9.1,2.5-13.7,3.9-16.9,5.2c-6.6,2.6-11.8,6.7-18.7,13.7
			c-0.1,0.1-5.5,5.7-7,7.2c-2,2-4.2,3.9-6.5,5.5c-2.7,1.9-14.5,9.5-17.2,11.3c-7.3,4.9-12.7,9.3-17,14.1
			c-1.7,1.9-10.6,10.9-12.5,13.2c-3.4,4.2-4.9,7.9-4.9,12.6c0,9.3,19.6,29,32.8,34.4c3.6,1.5,8.9,2.3,18.1,3
			c1.4,0.1,2.8,0.2,4.3,0.3c3.2,0.2,5,0.4,6.8,0.5c13.8,1.3,23.4,3.3,28.9,7c1.8,1.2,3,2.9,4.7,6.2l1.1,2.1c0.7,1.3,1.4,2.6,2.3,3.7
			c0.6,0.8,1.3,1.6,2.2,2.6c0.2,0.2,1.1,1.1,1.3,1.3c2.9,3,4.2,5.1,4.5,8.3c0.2,2.1,0.2,4.3,0,6.5c-0.6,5.4-2.4,11-5.3,17.8
			c-0.7,1.6-0.9,2.1-2.6,5.7c-3.4,7.3-13.1,7.7-26.8,2.7c-10.5-3.8-23-10.7-31.7-17.1c-14.5-10.7-37.9-19.4-51.4-19.4
			c-4.9,0-6.3,3-7.5,13c-0.3,3.1-0.7,6.1-1.3,9.2c-1.5,7.4-4.2,12.8-9.2,16.8c-6.7,5.5-9.3,14.5-10.6,31.2c-0.1,1.5-0.2,2.4-0.4,5.5
			C95.2,580.3,94.8,585.2,94.1,589L94.1,589z M102,589h-1c0.3-1.4,0.6-2.9,0.9-4.5l1-5.5c2.5-13.1,4.1-19.6,6.6-23.6
			c1.7-2.8,3.6-5.4,7.9-10.8c8.1-10.2,10.7-14.3,10.7-18.4l0-1.7c0-1.7,0-2.6,0-3.7c0.2-5,1.4-8,4.6-9.2c3.8-1.5,10.2,0.4,19.8,6.3
			c9.4,5.8,17.2,10.5,25.4,15.4c1.3,0.8,14,8.3,17.3,10.3c2.1,1.3,4.2,2.5,6.3,3.8c13.6,8.3,38.2,5,45.5-7.7c3.5-6.2,4.5-8.4,7.6-17
			c0.4-1,0.8-2,1.2-3c1.1-2.6,2.4-5.1,4-7.5c9.2-13.7,14.6-25.6,14.6-36c0-3.6,0.7-6.5,3.3-14.6c0.5-1.6,0.8-2.6,1.1-3.7
			c3.6-12,3-18.8-4.2-23.6c-2.9-2-6.3-3.3-9.8-3.7c-7.1-0.9-14.2,1.1-23.5,5.8c-1.5,0.8-6.5,3.4-7.5,3.9c-1.4,0.7-2.7,1.5-4.1,2.3
			l-4.3,2.6c-11.4,6.8-20,9-32.2,6c-3.3-0.8-6.1-1.4-12.9-2.6c-13-2.3-18.4-3.7-22.9-6.3c-6.1-3.6-7.3-8.9-2.8-16.3
			c4-6.6,8.7-12.6,14.2-18c2.6-2.6,5.4-5.1,8.2-7.5c-0.1,0.1,6-5.2,7.7-6.6c2.2-2,4.4-4,6.4-6.2c7.6-8.3,12.5-13.1,19.7-18.2
			c9.8-7,21-12.1,34.5-15.3c36.4-8.5,50.1-12.5,57.8-17.6c8.4-5.6,20.9-24.3,36.2-53.8c5.1-9.9,12-18.1,20.7-25.2
			c5-4.2,9.4-7.1,17.2-12c7.3-4.5,9.4-6,11.2-8c1.2-1.5,2.1-3.1,2.9-4.8c0.6-1.3,2.8-6.4,2.9-6.6c1.3-2.9,2.5-5.3,3.9-7.6
			c6.4-10.8,15.7-17.7,30.8-20.4c12.5-2.3,19.5-2.7,29.1-2.3c3.2,0.1,4.1,0.2,5.5,0.1c5.1-0.1,9.5-1,16.3-3.7
			c20.4-8.1,38-11.8,58.1-11.8c3,0,5.9,0.1,10.3,0.5l2.1,0.2c12.2,0.9,17.7,0.9,24.9-0.6c4.9-1.1,9.5-2.9,13.8-5.3v1.1
			c-4.3,2.4-8.9,4.1-13.6,5.2c-7.2,1.6-12.8,1.6-25.2,0.6l-2-0.2c-4.3-0.3-7.3-0.5-10.2-0.5c-19.9,0-37.5,3.7-57.7,11.7
			c-6.9,2.7-11.5,3.7-16.7,3.8c-1.5,0-2.3,0-5.6-0.1c-9.6-0.4-16.5,0-28.9,2.3c-14.8,2.7-23.9,9.4-30.1,19.9
			c-1.4,2.4-2.7,4.9-3.8,7.5c-0.1,0.3-2.3,5.4-3,6.7c-0.8,1.8-1.8,3.5-3,5c-1.8,2.1-4,3.6-11.4,8.2c-7.8,4.9-12.1,7.8-17.1,11.9
			c-8.6,7.1-15.4,15.1-20.5,24.9c-15.3,29.6-27.8,48.4-36.5,54.2c-7.8,5.2-21.6,9.2-58.1,17.7c-13.4,3.1-24.5,8.2-34.2,15.1
			c-7.1,5.1-12,9.8-19.6,18.1c-2,2.2-4.2,4.3-6.4,6.3c-1.6,1.5-7.8,6.7-7.7,6.6c-3.2,2.8-5.7,5.1-8.1,7.5
			c-5.4,5.3-10.1,11.3-14,17.8c-4.2,7-3.2,11.7,2.5,15c4.4,2.6,9.7,3.9,22.8,6.3c4.3,0.7,8.5,1.6,12.7,2.6c11.9,3,20.3,0.8,31.5-5.9
			l4.3-2.6c1.6-1,2.9-1.7,4.1-2.3c0.9-0.5,5.9-3.1,7.5-3.8c9.4-4.7,16.7-6.8,24-5.9c3.7,0.5,7.2,1.8,10.2,3.9
			c7.7,5.1,8.3,12.3,4.6,24.7c-0.3,1.1-0.6,2.1-1.1,3.7c-2.5,8-3.2,10.8-3.2,14.3c0,10.7-5.6,22.7-14.8,36.6
			c-1.5,2.3-2.9,4.8-3.9,7.3c-0.4,0.9-0.7,1.8-1.2,3c-3.2,8.7-4.1,10.9-7.7,17.1c-7.5,13.2-32.8,16.6-46.8,8
			c-2.1-1.3-4.2-2.6-6.3-3.8c-3.3-2-16.1-9.5-17.3-10.3c-8.2-4.9-16.1-9.6-25.4-15.4c-9.3-5.7-15.4-7.6-18.9-6.2
			c-2.6,1-3.7,3.8-3.9,8.4c0,1.2-0.1,2.4,0,3.7l0,1.7c0,4.4-2.6,8.6-11.3,19.5c-3.8,4.9-5.8,7.5-7.4,10.2c-2.3,3.9-4,10.4-6.4,23.3
			l-1,5.5L102,589L102,589z M112.4,589h-1c0-0.3,0-0.7,0-1c0-12.2,8.3-33,18.8-42.6c1.3-1.2,2.6-2.6,3.6-4.1c1.1-1.5,2-3.1,2.8-4.8
			c0.4-0.7,1.7-3.6,2.1-4.3c3.2-6.2,6.7-6.4,16.7,0.4c1.3,0.9,6,4.1,6.3,4.3c2.6,1.8,4.6,3.1,6.6,4.5c4.9,3.3,9.2,6.1,13.3,8.5
			c14.1,8.5,25,13,33.5,13c16.6,0,32.1-5.8,38.9-14.5c1.6-2,3.1-5.1,5-9.5c0.8-1.9,1.6-4,2.6-6.7l2.7-7.2
			c4.6-12.2,7.6-18.7,11.3-22.8c7.8-8.6,14.6-35.3,14.6-51.7c0-1.9,0.2-3.1,1-8.1c0.4-2.2,0.6-3.5,0.7-5c0.6-5.4,0.2-9.3-1.6-12.2
			c-4.5-7-19.3-9.1-37.8-4.7c-6.4,1.4-12.6,3.5-18.6,6.2c-5.1,2.3-16.8,9.6-16.2,9.2c-6.6,3.6-12.7,4.1-24.3,1.3
			c-29-7-29.9-8.5-15-26.3c17.1-20.5,46.3-45.3,55.3-45.3c9.7,0,52.9-11.8,64.6-17.6c9.3-4.6,23.9-20.8,36.1-37.2
			c0.7-0.9,13.3-21.2,18.8-29.1c9.2-12.9,17.9-22.1,26.5-27c7.2-4.1,12.9-10.1,18.5-18.4c1.9-2.8,10.3-17.3,12.5-20
			c1.5-1.9,2.9-3.2,4.4-3.8c13.8-6.1,23.8-8.9,38.5-8.9H482c4,0,7.2-0.4,22.5-2.5l4.2-0.6c9.7-1.3,16.3-1.9,21.4-1.9
			c1.6,0,2.9,0,5.9,0c18.3,0.2,28-0.5,44-4c3-0.7,6-1.7,8.9-3.2v1.1c-2.8,1.4-5.7,2.4-8.7,3.1c-16.1,3.5-25.9,4.2-44.3,4
			c-3,0-4.3,0-5.9,0c-5.1,0-11.5,0.6-21.2,1.9l-4.2,0.6c-15.4,2.1-18.6,2.5-22.6,2.5h-28.5c-14.5,0-24.4,2.7-38.1,8.8
			c-1.3,0.6-2.6,1.7-4.1,3.5c-2.1,2.6-10.5,17.1-12.4,20c-5.6,8.4-11.5,14.5-18.8,18.7c-8.4,4.8-17,14-26.1,26.7
			c-5.6,7.8-18.1,28.1-18.9,29.1c-12.4,16.5-27,32.7-36.5,37.5c-11.8,5.9-55.1,17.7-65,17.7c-8.7,0-37.7,24.7-54.6,45
			c-14.3,17.2-13.9,17.9,14.5,24.7c11.4,2.7,17.3,2.3,23.6-1.2c-0.7,0.3,11.1-6.9,16.3-9.3c5.3-2.4,11.4-4.5,18.8-6.3
			c18.8-4.4,34-2.3,38.8,5.1c2,3.1,2.4,7.2,1.8,12.8c-0.2,1.7-0.4,3.4-0.7,5c-0.8,5-1,6.2-1,8c0,16.6-6.9,43.5-14.9,52.4
			c-3.6,4-6.6,10.5-11.2,22.5c-0.3,0.9-2.2,5.8-2.7,7.2c-1,2.7-1.8,4.8-2.6,6.7c-1.9,4.4-3.5,7.6-5.1,9.7c-7,9-22.8,14.9-39.6,14.9
			c-8.7,0-19.8-4.6-34-13.2c-4.1-2.5-8.3-5.2-13.3-8.6c-2.2-1.5-4.4-3-6.6-4.5l-6.3-4.3c-9.5-6.5-12.4-6.3-15.2-0.7
			c-0.3,0.7-1.7,3.6-2.1,4.3c-0.8,1.7-1.8,3.4-2.9,4.9c-1.1,1.5-2.3,2.9-3.7,4.3c-10.3,9.4-18.5,30-18.5,41.8L112.4,589L112.4,589z
			 M83.2,589h-1.1c1.1-2.5,1.8-5.1,1.8-7.9c0-19.6,4.7-41.3,11.9-48.4c5.1-5.1,7.6-8.2,9.7-12.5c2.6-5.3,3.9-11.8,3.9-20.5
			c0-6.7,1.1-11.4,3.3-14.8c1.7-2.7,3.5-4.1,8.7-7.4c1.3-0.8,2.6-1.7,3.8-2.7c4.5-3.9,6.5-6.1,7.6-9.2c1.4-3.9,0.9-8.9-1.8-15.7
			c-1.1-2.7-2.4-5.4-3.9-7.9l-0.9-1.7c-0.9-1.6-1.8-3.2-2.6-4.9c-5.1-10.5-3.7-18.6,7.5-29.2c8.2-7.8,17-14.9,26.3-21.2
			c3.9-2.6,16.5-10.6,18.9-12.3c2-1.4,4.2-3.2,7.6-6.2c0,0,7.1-6.3,9.3-8.1c4.9-4.2,8.9-7.4,12.8-10c4.6-3.1,8.8-5.2,12.6-6.2
			c12.5-3.3,15.3-4.1,21.4-5.9c12.3-3.6,21.6-6.8,27.6-9.8c2.4-1.1,4.8-2,7.3-2.7c8.5-2.6,11.8-4,16.7-8c6.7-5.4,12.8-14,19-27.4
			c15.7-34.1,18.7-38.7,31.6-48.3c3.1-2.3,6.3-4,11.2-6.3l2.3-1c11.7-5.3,16.6-8.8,20.7-17.1c1.8-3.7,2.4-6.2,3.3-12
			c0.8-5.1,1.5-7.4,3.5-10.1c2.5-3.3,6.9-6.2,14.1-8.8c3.3-1.2,7.2-2.5,11.8-3.7c16-4.2,24.8-5.3,38.9-5.7c6.8-0.2,9.3-0.6,12.4-2
			c1.2-0.5,2.3-1.2,3.5-2.1c3.6-2.7,8-4.5,13-5.6c5.6-1.2,10.5-1.5,18.4-1.4l2.3,0c2.8,0,6.7-1,19.3-4.6c10.6-3,15.7-4.2,18.9-4.2
			c0.8,0,1.9,0.1,3.5,0.4l4.9,0.9c9.6,1.6,17.1,1.9,24.7-0.2c7.8-2.1,14.5-6.6,19.9-14v1.6c-5.4,6.9-12,11.2-19.7,13.3
			c-7.7,2.1-15.3,1.9-25.1,0.2l-4.9-0.9c-1.6-0.3-2.6-0.4-3.3-0.4c-3.1,0-8.2,1.2-19.4,4.4c-12.1,3.5-16,4.4-18.9,4.4l-2.3,0
			c-7.8-0.1-12.6,0.2-18.1,1.4c-4.9,1.1-9.1,2.8-12.6,5.4c-1.1,0.8-2.4,1.6-3.7,2.2c-3.3,1.5-5.9,1.8-12.8,2.1
			c-14,0.4-22.7,1.5-38.6,5.7c-4,1-7.9,2.2-11.7,3.6c-7,2.7-11.3,5.4-13.7,8.5c-1.9,2.5-2.5,4.7-3.3,9.6c-0.9,6-1.5,8.5-3.4,12.3
			c-2.2,4.5-5.4,8.3-9.5,11.2c-3.1,2.2-5.8,3.7-11.7,6.3l-2.3,1c-4.9,2.2-8,3.9-11,6.2c-12.7,9.5-15.6,13.9-31.3,47.9
			c-6.2,13.5-12.5,22.3-19.2,27.7c-5,4-8.4,5.5-17,8.1c-2.5,0.7-4.9,1.6-7.2,2.7c-6.1,3.1-15.4,6.3-27.8,9.9c-7.1,2-14.2,4-21.4,5.9
			c-3.7,1-7.8,3-12.3,6.1c-4.4,3-8.7,6.3-12.7,9.9c-2.2,1.9-9.3,8.1-9.3,8.1c-2.5,2.2-5,4.3-7.7,6.3c-2.4,1.7-15,9.6-18.9,12.3
			c-9.3,6.3-18.1,13.3-26.2,21.1c-10.9,10.4-12.2,18-7.3,28.1c0.8,1.7,1.7,3.3,2.6,4.9l0.9,1.7c1.5,2.6,2.8,5.3,4,8
			c2.8,7.1,3.3,12.2,1.9,16.4c-1.2,3.4-3.2,5.7-7.9,9.7c-1.1,1-2.3,1.8-5.2,3.6c-3.8,2.4-5.6,3.8-7.2,6.3c-2.1,3.2-3.2,7.7-3.2,14.3
			c0,8.9-1.3,15.5-4,20.9c-2.2,4.4-4.8,7.6-9.9,12.8c-6.9,6.9-11.6,28.4-11.6,47.8C84.9,583.9,84.3,586.5,83.2,589L83.2,589z
			 M360.6,589h-1l-1.1-5.7c-3-16-4-25.7-2.7-36.6c0.7-5.7,0.8-9.5,0.5-15c-0.2-4.4-0.2-5.6,0.2-7.5c0.8-4.2,3.4-8.4,10.2-16
			c8.9-10,12-15.1,19.4-29.6c1.3-2.6,2.3-4.4,3.3-6.2c0.9-1.6,1.8-3,2.7-4.4c3.1-4.6,6.9-8.3,16.5-16.5c11-9.4,15.2-13.6,17.8-18.8
			c0.7-1.4,1.3-2.7,1.9-4.3c0.5-1.3,1-2.6,1.5-4c3.6-9.8,7.9-13.7,22.5-17.5c4.9-1.3,20.2-5,21-5.2c15.9-4,24.9-7.2,32.9-12.4
			c5.8-3.7,5.7-3.7,27.2-16.2l2.6-1.5c10-5.9,16.8-10,22.3-13.7c3-2,5.8-4,8.6-6.2c2.1-1.7,4.2-3.3,6.3-5
			c4.9-3.9,10.2-7.3,15.8-10.1v1.1c-5.4,2.7-10.5,5.9-15.2,9.7c0.2-0.1-4.7,3.8-6.3,5c-2.8,2.2-5.7,4.3-8.7,6.2
			c-5.5,3.7-12.3,7.8-22.4,13.7l-2.6,1.5c-21.4,12.5-21.4,12.5-27.1,16.2c-8.1,5.2-17.2,8.5-33.2,12.5c-0.8,0.2-16.1,4-21,5.2
			c-7.9,2.1-12.9,4.4-16.1,7.4c-2.6,2.4-3.9,4.8-5.7,9.5l-1.5,4c-0.6,1.5-1.2,3-1.9,4.4c-2.7,5.3-6.9,9.6-18,19.1
			c-9.6,8.2-13.4,11.8-16.3,16.3c-0.9,1.4-1.8,2.9-2.7,4.4c-1,1.8-2,3.6-3.3,6.1c-7.4,14.5-10.6,19.7-19.6,29.8
			c-6.7,7.6-9.2,11.6-10,15.6c-0.3,1.8-0.3,3-0.2,7.3c0.2,5.6,0.1,9.4-0.5,15.2c-1.3,10.7-0.3,20.4,2.7,36.3L360.6,589L360.6,589z
			 M285.4,589h-2.1l1.4-4.2c1-3.2,1.9-6.7,2.6-10.2c2.6-12.5,3.2-23.2,3.2-40.5c0-5.6-1.8-9.6-4.1-9.6c-2.9,0-6.8,5.5-10.7,16.8
			c-9.6,27.8-22.2,40.9-42.1,40.9c-22,0-28.7-1.3-47.5-9.9c-3.2-1.5-6.3-3.1-9.2-4.9c-2.9-1.8-12.5-8.4-14.6-9.5
			c-4.1-2.3-6.9-2.7-9.5-1c-0.6,0.4-1.2,0.9-1.9,1.5c-1.3,1.3-2.8,2.6-4.2,3.8c-1,0.8-2,1.6-3,2.4l-1,0.8
			c-8.2,6.5-11.1,11.2-11.1,20.8c0,1,0,2-0.1,2.9h-2c0-1,0.1-1.9,0.1-2.9c0-10.3,3.3-15.5,11.9-22.3c0.7-0.5,1.3-1,2-1.6
			c0.8-0.6,1.4-1.1,2-1.6c1.4-1.2,2.8-2.4,4.1-3.7c0.7-0.7,1.5-1.3,2.2-1.8c3.4-2.2,6.9-1.7,11.6,0.9c2.1,1.2,11.8,7.9,14.6,9.6
			c2.9,1.8,5.9,3.4,9.1,4.8c18.5,8.5,25,9.7,46.7,9.7c18.9,0,30.9-12.5,40.3-39.6c4.2-12,8.5-18.1,12.6-18.1c3.7,0,6,5,6,11.5
			c0,17.5-0.6,28.3-3.2,40.9c-0.8,3.6-1.6,7.1-2.7,10.4C286.2,586.6,285.8,587.9,285.4,589L285.4,589z M138.9,589l0.5-0.9
			c2.3-4.2,4.5-8.6,6.4-13c2.7-6.2,5.7-9.5,9.1-10.3c3.7-0.9,7,0.7,12.3,5c5.3,4.3,6,4.8,7.6,5c1.6,0.2,4.2,1.1,8.7,2.9
			c1.3,0.5,10.6,4.3,13.6,5.4c3,1.2,5.7,2.2,8.3,3.1c3,1.1,5.9,2,8.5,2.8h-3.4c-1.7-0.5-3.5-1.2-5.4-1.8c-2.8-1-5.6-2-8.4-3.1
			c-3-1.2-12.3-4.9-13.6-5.4c-4.4-1.7-7-2.6-8.5-2.8c-1.9-0.3-2.5-0.7-8.1-5.2c-5.1-4.1-8.2-5.7-11.5-4.8c-3,0.8-5.8,3.8-8.4,9.8
			c-2,4.6-4.2,9.1-6.7,13.5H138.9L138.9,589z M249.7,589c4.1-1.2,7.9-3.3,11.1-6.2c1.5-1.3,3.3-3.4,5.2-6.2c1-1.4,2.1-3,3.3-4.9
			c0.8-1.3,1.6-2.5,2.5-3.8l0.5-0.7l0.9-1.4c1-1.6,2.1-3.2,3.2-4.8c1-1.4,1.8-2.2,2.4-2.4c1-0.4,1.5,0.5,1.5,2l0,2.1
			c0,6.8-0.1,11.1-0.7,16c-0.4,3.5-1.2,7-2.3,10.4h-1.1c1.2-3.4,2-6.9,2.4-10.5c0.6-4.9,0.7-9.2,0.7-15.9l0-2.1c0-1-0.1-1.1-0.1-1.1
			c-0.4,0.1-1,0.8-1.9,2.1c-1.1,1.5-2.2,3.1-3.2,4.7l-0.9,1.4l-0.5,0.7c-0.8,1.3-1.6,2.6-2.5,3.8c-1.2,1.9-2.3,3.5-3.4,5
			c-2,2.8-3.8,4.9-5.4,6.3c-2.6,2.3-5.6,4.1-8.8,5.4H249.7L249.7,589z M69.4,589H68c3.3-3.4,5.1-8.2,5.1-14.7c0-18.3,0-17,1-20.4
			c0.6-1.9,1.5-3.7,3.2-6.5c0.4-0.7,4.8-7.7,6.7-10.7c3-4.9,10.8-16.2,12-18.2c3.4-6,4.6-11.8,4.6-23.7c0-7.7,2.5-13.9,8-23l2.8-4.5
			c0.9-1.4,1.7-2.9,2.4-4.3c1.6-3.1,2.4-5.7,2.6-8.1c0.2-3.7-1.3-7.2-4.8-10.7c-5-5-8.4-5.3-11-1.8c-2.1,2.9-3.4,7.6-5,16.2
			c-0.2,1-0.8,4.5-0.8,4.5c-0.8,4.6-1.4,7.2-2.1,9.4c-1.3,4.3-3.6,7.5-8.2,12l-3.2,3.1c-6.3,6.3-9.5,11.3-11.2,19.1l-1.1,5.4
			c-0.9,4-1.5,6.9-2.3,9.8c-3.6,13.5-9.5,25.5-22.2,43.9C37,576.7,33.7,584.2,33.8,589h-1c-0.1-5.1,3.3-12.8,10.9-23.8
			c12.6-18.3,18.5-30.2,22-43.6c0.8-2.8,1.4-5.7,2.3-9.7l1.1-5.4c1.7-8.1,5-13.3,11.4-19.6c0.6-0.6,2.8-2.7,3.2-3.2
			c4.5-4.5,6.7-7.5,8-11.6c0.9-3.1,1.5-6.2,2-9.3l0.8-4.5c1.6-8.7,2.9-13.5,5.1-16.6c2.9-4.1,7.1-3.7,12.5,1.7
			c3.7,3.7,5.3,7.4,5.1,11.4c-0.1,2.6-1,5.3-2.7,8.5c-0.8,1.5-1.6,2.9-2.5,4.4l-2.8,4.5c-5.4,8.9-7.8,15-7.8,22.5
			c0,12.1-1.3,18.1-4.8,24.2c-1.2,2.1-9,13.4-12,18.2c-1.8,3-6.3,10-6.7,10.7c-1.7,2.8-2.6,4.5-3.1,6.3c-1,3.2-1,2.1-1,20.1
			C74.1,580.7,72.4,585.5,69.4,589L69.4,589z M304.4,0h1c-0.4,0.9-0.8,1.8-1.2,2.8c-3.8,8.9-5.4,14.9-5.4,24.7
			c0,7.5-2.1,11.4-6.5,12.8c-3.4,1.1-5.6,1-17.2-0.4c-11.3-1.3-18.8-1.6-27.6-0.1c-6.1,2.4-25.4,6.9-31.5,6.9
			c-10.9,0-36.1-2.8-53.1-6.9c-2.8-0.7-5.7-0.9-8.6-0.5c-2.9,0.4-5.6,1.4-8.1,2.9c-4,2.3-7,4.9-13.6,11.8
			c-6.2,6.3-9.4,9.1-13.5,11.3c-7,3.7-11,7.5-13.2,12c-1.8,3.8-2.3,7.7-2.3,15c0,4.3-2.6,6.6-9.3,9.6c0.1,0-2.9,1.3-3.8,1.7
			c-8.6,4-12.5,8.1-12.5,16.2c0,12.3-4.8,18.9-17,27.4l-4.5,3.1c-1.9,1.3-3.2,2.3-4.6,3.2c-0.9,0.7-1.8,1.3-2.6,2
			c-7,5.5-10.8,14.3-15.3,32.7c-0.6,2.5-3.2,13.7-4,16.8c-1.5,6.4-3.2,12.7-5.1,19c-1.3,4.4-4.4,14.8-4.9,16.2
			c-1,3.3-1.6,4.9-2.4,6.2c-0.8,1.4-6.7,8.9-12.4,17.9L0,272.9V271l4.5-7.2c3.9-6.1,8-12.1,12.4-17.9c-0.3,0.5,1.3-2.7,2.3-6
			c0.4-1.4,3.5-11.8,4.9-16.2c1.8-5.9,3.4-11.9,5.1-18.9c0.7-3.1,3.4-14.3,4-16.8c4.5-18.6,8.4-27.5,15.6-33.2
			c0.8-0.7,1.7-1.3,2.6-2c1.4-1,2.7-2,4.6-3.3l4.5-3.1c12-8.4,16.6-14.7,16.6-26.6c0-8.6,4.1-13,13-17.1c0.9-0.4,3.9-1.7,3.8-1.7
			c6.3-2.8,8.7-4.9,8.7-8.7c0-7.5,0.5-11.5,2.4-15.4c2.2-4.8,6.4-8.7,13.6-12.5c4.1-2.2,7.2-4.9,13.9-11.7c6.2-6.3,9.2-9,13.3-11.3
			c2.6-1.6,5.4-2.6,8.4-3c3-0.4,6-0.3,8.9,0.5c17,4,42,6.9,52.9,6.9c6,0,25.3-4.4,31.3-6.9c9-1.4,16.5-1.2,28,0.1
			c11.4,1.4,13.6,1.5,16.8,0.5c4-1.3,5.8-4.8,5.8-11.9C297.9,17.6,299.5,11.5,304.4,0L304.4,0z M329.1,0h1c0,5.5,0.3,11.3,0.6,19
			c0.5,9.5,0.6,14.3,0.6,21.2c0,9.6-4.6,17.1-12.9,22.7c-6.4,4.3-14.7,7.3-23.9,9.2c-3.7,0.5-9.2,0.5-22.3,0.2
			c-6.6-0.2-9.2-0.2-12.2-0.2c-2.7,0-4.9,0.4-7.5,1.3c-0.9,0.3-4.5,1.7-5.5,2.1c-6.4,2.3-13.3,3.5-24.3,3.5c-8,0-13.3-1.4-22-4.8
			l-3.1-1.2c-12.3-4.8-20.9-5.1-36.5,1.1c-10.9,4.3-17.8,9-21.9,14.5c-3.1,4.2-4.2,7.7-5.8,15.5c-1.2,6-1.9,8.6-3.4,11.9
			c-1.6,3.5-3.9,5.7-6.9,7.1c-2.3,1.1-4.3,1.5-9.1,2.2c-8.9,1.2-12.5,3-15.3,9.4c-3.6,8.3-7.6,13.6-14,19.4
			c-2.4,2.1-12.9,10.8-15.6,13.2c-8,7-13.6,17.1-18.4,31.4c-1.1,3.5-2.2,7-3.2,10.5c0,0-2.2,7.8-2.8,9.9
			c-8.3,28.3-17.6,52-25.7,60.1c-2.7,2.7-5,5.5-10.2,12.7c-3.3,4.6-6.1,8.1-8.8,10.9v-1.5c2.7-2.9,5.6-6.7,9.3-11.8
			c4-5.4,6.2-8.2,9-11c7.9-7.9,17.1-31.6,25.4-59.7c0.6-2.1,2.8-9.8,2.8-9.9c1.2-4.2,2.2-7.4,3.2-10.5c4.8-14.5,10.4-24.7,18.7-31.8
			c2.7-2.4,13.3-11,15.6-13.2c6.3-5.7,10.1-10.9,13.7-19.1c1.6-3.8,4-6.2,7.1-7.7c2.4-1.1,4.6-1.6,9.4-2.3c4.5-0.6,6.4-1,8.5-2
			c2.8-1.3,4.9-3.4,6.5-6.6c1.5-3.2,2.2-5.8,3.4-11.7c1.6-8,2.8-11.6,6-15.9c4.2-5.7,11.2-10.5,22.3-14.9c15.9-6.2,24.7-6,37.2-1.1
			l3.1,1.2c8.6,3.4,13.9,4.7,21.7,4.7c10.9,0,17.7-1.1,24-3.4c1-0.4,4.6-1.8,5.5-2.1c2.5-0.9,5.1-1.4,7.8-1.4c3,0,5.6,0,13.8,0.3
			c11.3,0.3,16.9,0.3,20.4-0.2c9.1-1.8,17.2-4.7,23.5-9c8-5.4,12.4-12.6,12.4-21.9c0-6.9-0.2-11.6-0.7-22.3
			C329.3,10.8,329.1,5.4,329.1,0L329.1,0z M92.1,0h2c-0.7,3.9-1.6,6.7-3,9.3c-2.3,4.3-2.8,5.6-5.2,12.8c-0.5,1.7-1.2,3.3-1.9,4.9
			c-2.2,4.6-5.8,8.6-12.8,14c-7.9,6-14,16.2-19.7,31c-2.4,6.1-8.6,25.2-9.5,27.5c-2.6,7-6.4,12.5-15.3,23.2l-2.6,3.2
			c-5.9,7.2-9.2,11.8-11.5,16.8c-2.3,4.8-7,9.7-12.7,13.9v-2.4c5-3.9,8.9-8.1,10.9-12.4c2.4-5.2,5.8-9.9,11.8-17.2l2.6-3.2
			c8.8-10.6,12.5-15.9,15-22.7c0.9-2.3,7.1-21.3,9.5-27.5c5.8-15,12.1-25.5,20.3-31.8c6.8-5.2,10.2-9,12.3-13.3
			c0.6-1.3,1.1-2.7,1.8-4.7c2.4-7.3,2.9-8.7,5.3-13.1C90.8,5.7,91.7,2.9,92.1,0L92.1,0z M101.1,0h1c-1.6,8.1-2.9,12.4-4.5,15
			c-1.5,2.6-2.9,5.3-4,8.1c-1.2,2.9-2.4,6.1-3.4,9.2c-0.4,1.1-0.7,2.1-2.4,5.3c-4.4,4.2-8.5,8.6-12.6,13.1c-3.4,3.9-5.8,7.1-7,9.5
			c-0.9,1.9-2,5.9-3.5,12.7C64,75.7,61,89.7,60.2,93.5c-3.6,16.1-6.5,26.2-9.7,31.4C43,137.1,40,140.3,14.1,165.3
			c-4.2,4.1-9,7.7-14.1,10.7v-1.1c4.9-2.8,9.4-6.3,13.4-10.2c25.9-24.9,28.8-28,36.2-40.2c3.1-5.1,6.1-15.1,9.6-31.1
			c0.8-3.8,3.8-17.8,4.4-20.7c1.5-7,2.7-11,3.6-13c1.2-2.5,3.7-5.8,7.2-9.7c0.9-1,1.8-2.1,2.8-3.1c2.4-2.6,4.9-5.1,7.4-7.6
			c0.9-0.9,1.7-1.7,3.3-3.3c1.3-4.5,2.9-8.9,4.7-13.2c1.2-2.8,2.5-5.6,4.1-8.2C98.3,12.1,99.5,7.9,101.1,0L101.1,0z M82.2,0h1.1
			C81.2,4.7,77.3,8.8,72,12.1c-7.1,4.4-16.2,7.1-23.9,7.1c-8.7,0-11.6,6.9-11.5,21.1c0,1.7,0,3.1,0.1,5.9c0.1,3.2,0.1,4.4,0.1,5.9
			c0,5.6-0.7,11.1-2,16.2c-0.6,2.3-1.3,4.6-2.1,6.8c-2.3,5.2-4.6,10.4-6.9,15.6c-6.4,14.4-12.9,28.7-19.5,43.1
			c-1.7,3.8-3.8,7.3-6.3,10.6v-1.6c2.1-2.9,4-6.1,5.4-9.4c8.4-18.2,16.6-36.5,24.7-54.8c0.5-1.2,1-2.2,2.4-5.8
			c2.2-6.7,3.3-13.7,3.3-20.7c0-1.5,0-2.6-0.1-5.8c-0.1-2.8-0.1-4.2-0.1-5.9c0-6.7,0.5-11.4,2-15.1c1.9-4.6,5.3-7.1,10.5-7.1
			c7.6,0,16.5-2.6,23.4-6.9C76.5,8.1,80.2,4.3,82.2,0L82.2,0z M359.6,0h1c1.8,9.8,2.1,12.4,2.3,18c1.1,9.1,1.3,18.2,0.4,27.3
			c-0.9,8.6-3,15.7-6.5,20.8c-11.1,16.2-39.1,28.7-65.2,28.7c-5,0-10.3,0.3-16,0.8c-8,0.8-16,1.8-23.9,3.1
			c-21.2,3.2-27.2,3.9-35.7,3.9c-6.8,0-12-1-21.3-3.8l-2.7-0.8c-1.4-0.4-2.5-0.7-3.6-1c-7.9-2-14-2-21.3,0.7c-3.9,1.4-7.2,4.3-9,8
			c-1.6,3-2.5,5.9-3.9,12.6c-1.5,6.5-2.3,9.3-3.9,12.4c-1,2-2.3,3.7-4,5.1s-3.6,2.5-5.7,3.1c-3.2,1-6.3,2.1-9.3,3.4
			c-6.4,2.7-9.9,5.5-13.5,10.3c-1.3,1.7-1,1.3-5.3,7.8c-1.9,2.9-4.6,5.7-8.3,9c-2,1.7-10.5,8.7-12.6,10.5
			C84.1,186,79,191.7,75,198.5c-4.1,7.2-7.7,18-11.1,32.6c-0.9,3.7-1.7,7.5-2.6,11.9l-1.2,5.7l-1.1,5.4c-1.8,8.8-2.7,13-3.7,16
			c-6.7,20.1-16.9,41.4-26.6,50.3c-5,4.6-8,6.9-10.9,8.7c-0.9,0.5-1.8,1-2.9,1.5c-0.4,0.2-9.4,4.3-13.8,6.5L0,337.8v-1.1l0.8-0.4
			c4.4-2.2,13.4-6.3,13.8-6.5c0.9-0.5,1.9-1,2.8-1.5c2.9-1.7,5.8-4,10.7-8.6c9.5-8.7,19.7-30,26.4-49.9c1-2.9,1.9-7.1,3.7-15.8
			l1.1-5.4c1.1-5.9,2.4-11.8,3.8-17.6c3.4-14.8,7-25.7,11.2-32.9c4-7,9.2-12.7,16.5-19c2.1-1.8,10.7-8.8,12.6-10.5
			c3.7-3.2,6.3-5.9,8.1-8.8c4.3-6.5,4-6.1,5.4-7.8c3.7-4.9,7.4-7.8,14-10.6c2.6-1.1,5.6-2.2,9.4-3.4c2-0.6,3.8-1.6,5.4-2.9
			c1.6-1.3,2.8-3,3.7-4.8c1.6-3,2.4-5.7,4-12.8c1.4-6.2,2.3-9.2,3.9-12.3c1.9-4,5.4-7,9.5-8.5c7.6-2.8,13.8-2.8,21.9-0.7
			c1.1,0.3,2.2,0.6,3.6,1l3.7,1.1c8.3,2.5,13.4,3.5,20.1,3.5c8.4,0,14.4-0.7,35.5-3.9c8-1.3,15.9-2.3,24-3.1
			c5.8-0.5,11.1-0.8,16.1-0.8c25.8,0,53.5-12.3,64.4-28.3c3.4-4.9,5.4-11.8,6.3-20.3c0.8-7.6,0.7-15.7,0-23.5
			c-0.2-1.7-0.3-3.4-0.6-5C361.7,12.3,361.5,9.9,359.6,0L359.6,0z M18.5,0h1c-1.9,7.4-2.7,10-5.4,15.9c-1.9,4.3-2.6,9-2.4,14.6
			c0.2,4.3,0.7,7.6,2.2,15.8c1.1,5.8,1.5,8.6,1.9,12c0.9,8.7,0.2,15.8-2.7,22.4c-4.1,9-8.5,18-13.2,26.7v-2.1
			c4.4-8.2,8.5-16.6,12.3-25.1c2.9-6.4,3.6-13.3,2.7-21.9c-0.4-3.3-0.8-6.1-1.9-11.9c-1.5-8.3-2.1-11.7-2.2-16
			c-0.3-5.7,0.5-10.6,2.5-15C15.9,9.7,16.7,7.2,18.5,0L18.5,0z M293.9,0c-1.3,3.8-2.9,7.5-4.8,11c-2.5,4.6-3.9,8.3-4.8,11.8
			l-0.4,1.8l-0.3,1.4c-0.1,0.7-0.3,1.4-0.7,2c-0.7,1-1.9,1.3-5,1.2c0.9,0-9.7-0.3-14.8-0.3c-10,0-18.1,0.8-28.9,2.5
			c-16.6,2.6-17.4,2.7-23.2,2.5c-2.6-0.1-5.3-0.5-7.9-1.1c-17.4-4.1-45.3-5.8-53.7-3c-2.7,0.9-5.8,2.7-9.3,5.5
			c-2.2,1.7-4.3,3.5-6.4,5.4c-1.4,1.2-9,8.3-10.6,9.7c-1.4,1.2-8,7.3-8.7,7.9c-1.5,1.3-2.9,2.6-4.5,3.8c-4.9,4-8.7,6.1-11.7,6.1
			c-3.5,0-4.2,0-5-0.4c-1.1-0.5-1.5-1.7-1.1-3.5c0.7-3.6,4.4-10.6,12.6-24.3c5.6-9.3,9.2-17.7,11.6-25.7c1.4-4.9,1.9-7.3,2.9-14.3h1
			c-1,7.2-1.5,9.5-3,14.5c-2.3,8.1-6,16.6-11.7,26c-8.1,13.6-11.8,20.6-12.5,24c-0.3,1.4-0.1,2.1,0.6,2.4c0.6,0.3,1.3,0.3,3.4,0.3
			c3.8,0,7.5-2.1,12.3-5.9c1.4-1.1,2.8-2.3,4.4-3.8c0.6-0.6,7.3-6.7,8.7-7.9c1.6-1.3,9.2-8.4,10.6-9.6c2.4-2.1,4.5-3.9,6.5-5.4
			c3.7-2.8,6.8-4.7,9.6-5.6c8.6-2.9,36.7-1.2,54.3,2.9c2.5,0.6,5,0.9,7.7,1c5.7,0.2,6.6,0.1,23-2.5c10.8-1.7,19-2.5,29.1-2.5
			c5.1,0,15.7,0.3,14.8,0.3c2.8,0,3.8-0.2,4.2-0.8c0.2-0.3,0.4-0.8,0.6-1.7l0.3-1.4l0.4-1.8c0.9-3.5,2.3-7.3,4.9-12
			c1.8-3.4,3.4-6.9,4.6-10.6H293.9L293.9,0z M285.4,0c-5.8,17.6-9.4,21.6-19.4,21.6c-4.4,0-10,0.3-28.2,1.5l-1.5,0.1
			c-15.3,1-23,1.4-28.3,1.4c-5.3,0-13-0.9-28.3-3.2l-1.5-0.2c-18.1-2.7-23.7-3.4-28.1-3.4c-4.4,0-7.2,1-10.8,3.3
			c-0.1,0.1-1.8,1.1-2.3,1.4c-2.4,1.5-4.2,2.1-6.6,2.1c-2.7,0-4-1.4-4-4.1c0-1,0.2-2.2,0.5-4c0.2-0.8,0.9-4.3,1-5.2
			c0.8-4,1.3-7.5,1.4-11.2h2c-0.2,3.7-0.7,7.4-1.5,11.5c-0.2,0.9-0.9,4.4-1.1,5.2c-0.3,1.2-0.4,2.4-0.5,3.7c0,1.7,0.5,2.2,2.1,2.2
			c2,0,3.5-0.6,5.6-1.9c0.5-0.3,2.1-1.3,2.2-1.4c3.9-2.5,7-3.6,11.8-3.6c4.5,0,10.1,0.7,28.4,3.4l1.5,0.2c15.2,2.3,22.9,3.2,28,3.2
			c5.2,0,12.9-0.4,28.1-1.4l1.5-0.1c18.2-1.2,23.8-1.5,28.3-1.5c8.8,0,11.9-3.3,17.3-19.6H285.4z M138.9,0h1.1c-2,3.8-2.6,5-2.7,6.1
			c-0.1,1.1,0.4,1.6,2.3,1.9c1.8,0.3,3.8,0.3,10.6,0.3c5.9,0,12.8,0.5,21,1.6c3.9,0.5,7.9,1.1,12.9,1.9c23.6,3.6,22.1,3.4,26.3,3.4
			c23.6,0,50.9-2.2,59.3-6.8c2.8-1.5,5-4.4,6.5-8.4h1.1c-1.6,4.4-3.9,7.5-7.1,9.3c-8.7,4.7-36,6.9-59.8,6.9c-4.3,0-2.8,0.2-26.5-3.4
			c-5-0.8-9-1.4-12.9-1.8c-8.2-1-15-1.6-20.8-1.6c-6.9,0-8.9,0-10.8-0.4c-2.3-0.4-3.3-1.3-3.1-3C136.5,4.8,137,3.6,138.9,0L138.9,0z
			 M213.9,0c5.6,1.6,10.2,2.5,13.8,2.5c9.4,0,16.4-0.7,22-2.5h2.9c-6.1,2.5-13.9,3.4-24.9,3.4c-4.4,0-10.1-1.2-17.2-3.4H213.9
			L213.9,0z M69.4,0c-2.8,3.2-6.8,5.3-11.8,6.4c-3.9,0.9-7.4,1.1-12.7,1c-0.6,0-1.1,0-1.7,0c-5.3,0-8.7-1.2-9.9-4.9
			C33,1.7,32.9,0.8,32.9,0h1c0,0.8,0.1,1.5,0.4,2.2c1,3.1,4.1,4.2,9,4.2l1.7,0c5.3,0.1,8.6-0.1,12.5-1c4.4-1,8-2.8,10.7-5.4H69.4
			L69.4,0z M0,204.1c7.2-0.2,11.3,3.3,11.3,10.9c0,11.2-5,27.8-11.3,40.7v-2.3C5.8,241,10.3,225.5,10.3,215c0-7-3.6-10.1-10.3-9.9
			V204.1z M0,211c1.2,0.1,2.1,0.6,2.8,1.3c1.4,1.5,1.6,3.7,1.1,7.4L3.8,221c-0.2,1.3-0.3,2.5-0.4,3.8c0,3.1-1.5,9.3-3.4,15.6V237
			c1.5-5,2.5-9.7,2.5-12.2c0-1,0.1-1.7,0.4-3.9l0.2-1.3c0.4-3.5,0.2-5.5-0.9-6.6c-0.5-0.5-1.2-0.9-2.1-1V211L0,211z M0,403.4v-1.4
			c1.2-1.4,2.1-3,2.9-4.6c1.3-2.6,2.6-6.2,4.5-11.7c7.7-23.1,7.7-26.1,0.2-29.8c-2.2-1.1-4.7-1.4-7.6-0.9v-1c2.7-0.5,5.6-0.2,8.1,1
			c8.1,4,8.1,7.5,0.2,31c-1.8,5.6-3.2,9.1-4.5,11.8C2.9,399.8,1.6,401.7,0,403.4L0,403.4z M33,443.7c1.6,0,3-0.2,8.2-1.3l2.3-0.5
			c8.1-1.5,12.5-1.3,14.3,2.3c1.4,2.7-0.5,5.8-4.7,9.5c-1.6,1.4-3.3,2.7-5,4c-0.9,0.7-4.8,3.5-5.7,4.2c-1.8,1.4-2.9,2.3-3.4,3
			c-1.2,1.6-2.2,3.5-2.8,5.4c0.1-0.2-3.9,13.4-6.8,21.8c-2.7,7.7-5.5,10.5-8.7,8.4c-2.1-1.4-3.6-4.2-6.5-10.8
			c-1.9-4.5-2.5-5.7-3.3-7.3c-4.5-8-3.8-23.5,0-32.3c0.6-1.5,1.5-2.8,2.7-3.8s2.6-1.7,4.2-2.1c2.5-0.6,4.8-0.7,11.6-0.7L33,443.7
			L33,443.7z M33,445.7c-1.1,0-2.1,0-3.8,0c-11.8-0.1-14.6,0.6-16.6,5.3c-3.6,8.3-4.2,23.1,0,30.5c0.9,1.7,1.5,2.8,3.4,7.4
			c2.7,6.2,4.2,8.9,5.8,10c1.6,1.1,3.4-0.8,5.7-7.4c2.4-7.2,4.7-14.5,6.8-21.8c0.7-2.1,1.8-4.1,3.1-5.9c0.6-0.9,1.8-1.9,3.8-3.4
			c0.9-0.7,4.8-3.5,5.7-4.2c2-1.5,3.5-2.7,4.9-3.9c3.6-3.2,5-5.6,4.2-7.1c-1.2-2.4-5-2.6-12.2-1.2l-2.3,0.5
			C36.2,445.4,34.9,445.7,33,445.7L33,445.7z M372.3,589c-3.4-12-3.7-13.9-3.7-18.7c0-3.3-0.1-6.2-0.4-11.1
			c-0.6-10.1-0.6-13.3,0.3-16.8c1.2-4.7,4.1-7,9.5-7h25.5c4,0,5.1,1.8,5.8,7c0.1,0.8,0.1,1,0.2,1.3c0.8,5.3,2.7,7.4,8.7,7.4
			c3.6,0,5.4,0.4,6.3,1.3c0.7,0.8,0.7,1.4,0.4,3.9c-0.8,5.2,0.5,8.7,7.4,13.5c6.2,4.4,11.4,5.3,16.2,3.3c3.7-1.5,6.6-4.1,11.7-9.8
			l1.1-1.2l1.1-1.2c0.9-1,1.7-1.9,2.6-2.8c2.7-2.7,5.9-4.9,9.4-6.6c1.5-0.7,1.7-0.8,5.6-2.6c6-2.7,8.8-4.4,11.5-7.5
			c2.6-2.9,4.6-4.8,6.6-5.9c3.1-1.8,5.4-2.1,13.4-2.1c5.9,0,10.4-4.2,17.7-14.7l2.8-4c1-1.5,1.9-2.7,2.7-3.7
			c7.7-9.9,19-10.2,30.2,0.9c5.4,5.4,10,19.1,13.4,37.8c2.5,13.5,4.1,28.9,4.4,39.1h-1c-0.3-10.1-1.9-25.5-4.4-38.9
			c-3.4-18.5-7.9-32.1-13.1-37.3c-10.7-10.8-21.4-10.5-28.7-1c-0.8,1-1.7,2.2-2.7,3.7l-2.8,3.9c-7.5,10.8-12.2,15.1-18.5,15.1
			c-7.9,0-10,0.3-12.9,2c-1.9,1.1-3.8,2.8-6.3,5.7c-2.8,3.2-5.8,5-11.9,7.7c-1.9,0.8-3.7,1.6-5.5,2.6c-3.4,1.6-6.5,3.8-9.1,6.4
			c-1.3,1.3-2.5,2.6-3.7,4l-1.1,1.2c-5.2,5.8-8.1,8.5-12.1,10.1c-5.2,2.1-10.7,1.1-17.2-3.4c-7.2-5.1-8.7-9-7.8-14.5
			c0.3-2.1,0.3-2.6-0.1-3c-0.6-0.7-2.3-1-5.6-1c-6.5,0-8.8-2.6-9.7-8.3l-0.2-1.3c-0.7-4.7-1.5-6.1-4.8-6.1h-25.5
			c-4.9,0-7.5,2-8.5,6.2c-0.9,3.4-0.8,6.4-0.2,16.5c0.3,3.7,0.4,7.5,0.4,11.2c0,4.7,0.3,6.5,3.7,18.7H372.3z M385.7,589
			c-1.3-6.5-1.6-10.5-1.3-14.6c0-0.7,0.1-1.4,0.2-2.3l0.2-2.5c0.3-3.7,0.5-6.8,0.5-11c0-4.8,1.4-7.6,4.1-8.3c2.3-0.6,5.5,0.5,9,2.9
			c6.5,4.4,13.7,12.8,16.2,18.9c4.7,11.2,13.9,15.4,32.9,15.4c8.4,0,14.1-2.3,20.3-7.7c1.4-1.2,14.8-14.7,20.6-19.6
			c7.1-6,11.6-7.5,20.2-8.2c5.4-0.4,7.8-0.9,11.2-2.3c4.5-1.9,9.2-5.4,14.6-11.1c7.3-7.6,13-8.8,17.1-4.2c3.3,3.6,5.4,10.4,6.7,19.9
			c0.7,5.1,0.9,7.6,1.6,17.1c0.2,3.7,0.2,5.2-0.9,17.7h-1c1.1-12.5,1.1-14,0.9-17.6c-0.6-9.4-0.8-11.9-1.5-17
			c-1.3-9.3-3.4-16-6.4-19.3c-3.7-4-8.8-3-15.7,4.2c-5.5,5.8-10.3,9.3-15,11.3c-3.5,1.5-6,2-11.4,2.4c-8.6,0.7-12.9,2.1-19.8,8
			c-5.8,4.9-19.1,18.4-20.6,19.6c-6.4,5.6-12.2,8-20.9,8c-19.4,0-29-4.3-33.8-16c-2.4-5.9-9.5-14.1-15.9-18.4
			c-3.4-2.3-6.2-3.3-8.2-2.8c-2.2,0.5-3.4,2.9-3.4,7.3c0,4.2-0.2,7.3-0.5,11.1l-0.2,2.5c-0.1,0.9-0.1,1.6-0.2,2.3
			c-0.2,4,0.1,8,1.4,14.5H385.7L385.7,589z M497.4,589c2.5-3.2,8.8-11.6,10.7-14c5.4-6.9,12.8-12.2,19-13.7
			c6.9-1.7,11.3,1.4,11.3,9.1c0,3.9,0,5.1-0.7,18.7h-1c0.7-13.6,0.7-14.7,0.7-18.7c0-7-3.8-9.6-10.1-8.1c-6,1.5-13.3,6.6-18.5,13.3
			c-1.8,2.3-7.5,9.9-10.2,13.4H497.4L497.4,589z M487.7,256.3c3.4,2.7,6.9,5,11.2,7.6c1,0.6,8.3,4.8,10.2,6
			c11.1,6.9,14.7,13.1,12.1,24.9c-1.4,6.4-4.4,10.9-9.2,14.2c-3.8,2.6-7.9,4.2-15.8,6.4c-11.8,3.4-13.4,3.9-18.5,6.2
			c-2.7,1.2-5.2,2.5-7.7,4.1c-10.9,6.9-18.8,7.6-27.4,3.2c-3.5-1.7-16.9-10.8-16.9-10.8c-1.7-1.1-3.4-2.1-5.1-3
			c-15.7-8.7-33.6-23.7-33.9-31.3c-0.1-3.4,2-6.4,6.2-10.1c1-0.9,2.1-1.8,3.6-2.9c0.7-0.5,3.3-2.5,3.9-2.9c4.4-3.3,7-5.7,9.1-8.3
			c10.9-13.6,26.1-28.2,33.7-31.7c11.8-5.4,19.5-5.7,26.9,0.1c3.2,2.5,5.5,6.4,8.4,13.1c0.3,0.6,2.3,5.4,2.8,6.6
			c1.6,3.6,2.8,5.7,4.2,6.8C486.3,255.1,487,255.7,487.7,256.3L487.7,256.3z M484.3,256c-1.6-1.4-3-3.7-4.7-7.5
			c-0.6-1.3-2.6-6-2.8-6.6c-2.8-6.4-5-10.1-7.8-12.3c-6.7-5.3-13.6-5.1-24.8,0.1c-7.3,3.4-22.3,17.8-33,31.1c-2.2,2.8-5,5.2-9.5,8.6
			l-3.9,2.9c-1.2,0.9-2.4,1.9-3.5,2.8c-3.8,3.3-5.6,5.9-5.5,8.5c0.2,6.5,17.8,21.3,32.9,29.6c1.7,1,3.4,2,5.2,3.1
			c0.1,0.1,13.4,9.1,16.7,10.7c8.1,4,15.2,3.5,25.5-3.1c2.5-1.6,5.2-3,7.9-4.2c5.2-2.3,6.9-2.8,18.7-6.3c7.7-2.2,11.7-3.8,15.2-6.2
			c4.4-3,7.1-7,8.4-13c2.4-10.8-0.8-16.3-11.2-22.8c-1.9-1.2-9.1-5.3-10.1-6c-4.4-2.6-8-5-11.4-7.8C485.8,257.2,485,256.6,484.3,256
			L484.3,256z M86.1,237.2c4.2-2.9,7.7-4.9,11.9-6.8c0.8-0.4,1.7-0.8,2.7-1.2l4.3-1.8c6-2.6,11.8-5.5,17.4-8.8
			c8.9-5.2,18-9.9,27.4-14.2c4.1-1.9,21.5-9.7,20.8-9.3c18.8-8.5,27.6-6.8,48.6,7.9c7.8,5.4,13,13,16.1,22.2
			c3,8.7,3.7,16.2,3.7,27.2c0,8.2-0.6,12.7-3.6,18.6c-4.1,8.2-12.1,15.8-25.1,23c-24,13.2-38.1,27-51.9,47
			c-8.7,12.6-46.9,43.4-64,53.2C73.7,406,48,415.7,30.4,415.7c-9.9,0-14.4-4.7-14.5-13.1c-0.1-6.2,2-13.5,6.2-23.9
			c2.9-7.2,2-12.7-2.1-21.9c-3.1-7-3.8-9-3.8-12.3c0-3.3,1.8-6.8,5.4-10.9c2.6-2.9,3.4-3.8,11.7-11.3c5-4.6,7.9-7.5,10.5-10.6
			c9.3-11.2,12.4-19.1,17.6-44c3.1-14.8,6.5-19.9,14.8-24.8c0.8-0.5,3.9-2.2,4.6-2.6C82.6,239.4,84.4,238.3,86.1,237.2L86.1,237.2z
			 M86.7,238c-1.7,1.2-3.5,2.3-5.3,3.4l-4.6,2.6c-8.1,4.7-11.4,9.6-14.4,24.1c-5.2,25-8.4,33.1-17.8,44.4c-2.6,3.1-5.6,6-10.6,10.6
			c-8.2,7.5-9.1,8.3-11.6,11.2c-3.4,3.9-5.2,7.2-5.2,10.2c0,3.1,0.7,5,3.7,11.9c4.2,9.4,5.1,15.1,2.1,22.6
			c-4.1,10.3-6.2,17.5-6.1,23.5c0.1,7.9,4.2,12.2,13.5,12.2c17.3,0,42.9-9.7,63.6-21.5c17-9.7,55.1-40.4,63.7-52.9
			c13.8-20,28-34,52.2-47.3c12.9-7.1,20.7-14.6,24.7-22.6c2.9-5.8,3.5-10.2,3.5-18.2c0-10.9-0.7-18.4-3.6-26.9
			c-3.1-9.1-8.2-16.4-15.8-21.8c-20.7-14.5-29.2-16.1-47.6-7.8c0.7-0.3-16.6,7.4-20.8,9.3c-1.7,0.8-3.2,1.5-4.8,2.3
			c-7.7,3.7-15.2,7.7-22.5,11.9c-5.7,3.3-11.5,6.3-17.5,8.8l-4.3,1.8c-1,0.4-1.9,0.8-2.7,1.2C94.3,233.1,90.4,235.4,86.7,238
			L86.7,238z M79.2,250c7.6-6.1,12.1-8,23.2-11.1c6-1.6,9-2.9,12.1-5.6c3.7-3.2,7.3-4.4,15.6-6c2.7-0.5,3.6-0.7,5-1
			c5.4-1.2,9.3-2.9,12.9-5.8c10.2-8.4,24.9-13.9,35.6-13.9c5.2,0,16.5,7.4,25.3,16.8c10.5,11.2,15.7,22.8,12.5,31.9
			c-3.1,8.9-11.2,18.2-22.6,27.3c-8.3,6.6-18,12.8-24.8,16.1c-3.7,1.8-6.5,4.8-9.6,9.8c-0.7,1.1-10.9,19.9-15.7,27.3
			c-5.5,8.5-15.1,17-29.7,27.4c-3,2.1-6,4.2-9,6.3c-0.1,0.1-6.7,4.6-8.4,5.8c-6.4,4.4-10.2,7.2-12.8,9.6
			c-11.4,10.5-36.5,15.3-42.9,8.8c-1.9-1.9-2.2-4-1.9-10.3c0.4-9.2-0.5-14.2-4.9-20.1c-2-2.6-4.3-4.9-6.9-6.8c-3.9-2.9-6-6-6.4-9.3
			c-1-6.5,3.8-12.8,13.9-21.3c1.6-1.3,6.5-5.3,7-5.7c1.8-1.4,3.5-3,5.1-4.7c4-4.5,5.7-9.4,7.7-19.7c0.3-1.4,0.5-2.9,0.8-4.3
			c0.3-1.8,0.6-3.2,0.9-4.6c0.7-3.7,1.5-7,2.4-10.4c1-3.7,1.4-5.4,2.3-10.2c0.6-3,0.9-4.1,1.5-5.4C68.4,258.8,68.4,258.7,79.2,250z
			 M79.8,250.7c-10.6,8.6-10.7,8.7-11.8,10.9c-0.6,1.1-0.9,2.3-1.4,5.1c-1,4.8-1.3,6.5-2.3,10.2c-0.9,3.4-1.6,6.7-2.3,10.4
			c-0.4,2.3-0.9,4.5-1.3,6.8l-0.4,2.1c-1.9,10.5-3.7,15.5-7.9,20.2c-1.6,1.7-3.4,3.3-5.2,4.8c-0.4,0.3-5.4,4.4-6.9,5.7
			c-9.9,8.2-14.5,14.4-13.6,20.4c0.4,3,2.4,5.9,6.1,8.7c2.9,2.2,5.3,4.5,7.1,7c4.5,6.1,5.4,11.3,5.1,20.8c-0.2,6,0,8,1.6,9.6
			c6,6,30.5,1.3,41.5-8.9c2.7-2.5,6.5-5.3,12.9-9.7l8.4-5.8c3.6-2.4,6.3-4.4,9-6.3c14.5-10.3,24-18.8,29.4-27.2
			c4.8-7.4,15-26.2,15.7-27.3c3.2-5.2,6.1-8.3,10-10.2c6.7-3.3,16.3-9.5,24.6-16c11.3-9,19.3-18.2,22.3-26.9c3-8.6-2-19.9-12.3-30.9
			c-8.6-9.2-19.7-16.5-24.6-16.5c-10.5,0-25,5.4-35,13.6c-3.7,3-7.8,4.7-13.3,6c-1.4,0.3-2.3,0.5-5,1c-8.1,1.5-11.5,2.7-15.1,5.8
			c-3.3,2.8-6.3,4.1-12.5,5.8C91.7,242.8,87.3,244.7,79.8,250.7L79.8,250.7z M208.1,247.2c0,7.4-0.6,10.7-2.6,14
			c-1.1,1.8-7.5,9.9-8.4,11.1c-5.9,7.8-9.2,10.1-16.9,13.5c-1.3,0.6-2.2,1-3,1.5c-0.5,0.3-1.2,0.6-2,1c-0.7,0.3-4.4,1.9-5.4,2.3
			c-5.9,2.7-8.8,5.7-8.8,10.5c0,10.8-18.6,35.5-33.9,44c-8,4.5-20.9,9.2-32.2,11.6c-13.1,2.8-22.1,2.4-24.2-2.3
			c-1.3-2.9-4.3-4.2-11.8-5.7l-0.6-0.1c-4.8-1-6.8-1.5-8.9-2.6c-2.9-1.5-4.4-3.6-4.4-6.7c0-2.7,1.1-5.7,3.2-9.5
			c0.8-1.5,1.8-3.1,3.2-5.3c-0.2,0.2,2.8-4.3,3.6-5.7c6.6-10.5,9.7-18.2,9.7-26.7c0-18.1,11-32.8,27-42.1c5.1-3,9.1-3.2,14.9-2.1
			c4.9,1,5.9,0.9,7.3-1.5c4.4-7.7,6.9-9.3,15.6-9.3c3.9,0,6.8-1,10.3-3.1c1.5-1,8.5-6.1,10.8-7.5c9-5.9,11.1-6.9,24.7-11.7
			c6.8-2.4,14.9,1.3,21.9,9C203.7,231.1,208.1,240.3,208.1,247.2L208.1,247.2z M206.1,247.2c0-6.4-4.2-15.2-10.3-21.9
			c-6.5-7.2-13.9-10.5-19.8-8.4c-13.5,4.8-15.4,5.7-24.3,11.5c-2.2,1.4-9.2,6.6-10.8,7.6c-3.7,2.3-7.1,3.4-11.3,3.4
			c-7.9,0-9.8,1.2-13.9,8.3c-1.1,1.9-2.5,2.8-4.3,3c-1.3,0.1-1.9,0-5.1-0.6c-5.4-1.1-8.9-0.9-13.5,1.8c-15.4,9-26,23.1-26,40.4
			c0,9-3.2,17-10,27.8l-3.6,5.7c-1.4,2.1-2.3,3.7-3.1,5.2c-2,3.6-2.9,6.3-2.9,8.5c0,4.1,2.8,5.6,11.7,7.4l0.6,0.1
			c8.1,1.7,11.5,3.1,13.2,6.8c3.1,7,35.3,0,53.6-10.3c14.7-8.3,32.9-32.4,32.9-42.3c0-5.8,3.4-9.3,10-12.3c1.1-0.5,4.8-2,5.4-2.3
			c0.7-0.3,1.3-0.6,1.8-0.9c0.9-0.5,1.8-1,3.2-1.6c7.5-3.3,10.6-5.4,16.2-12.9c1-1.3,7.3-9.2,8.3-10.9
			C205.6,257.3,206.1,254.3,206.1,247.2L206.1,247.2z M169.7,225.2c0.1-0.1,2.4-1.5,2.9-1.8c0.9-0.6,1.7-0.9,2.4-1.1
			c2.5-0.8,5-0.1,10.8,3.1c14.6,7.9,19.1,22.5,9,38c-4,6.1-9.2,8.8-18.4,10.9c-0.8,0.2-1.2,0.3-3.1,0.7c-5.9,1.3-8.6,2-11.4,3.6
			c-3.6,2-6,4.9-7.4,9.3c-7.7,24.5-19.4,42.5-35.6,49.4c-16.1,6.8-20.7,8.4-27.5,8.7c-4.8,0.2-9.6-0.6-15.1-2.8
			c-1.9-0.7-3.8-1.6-5.5-2.6c-3.9-2.3-5-4.7-4.4-9.1c0.3-2.1,3.7-15.2,4.8-20.3c0.6-3,1.2-6,1.7-9.5c0.5-2.9,0.9-5.8,1.3-8.7
			c1.4-9.2,2.5-14,4.4-18.3c2.4-5.3,6-8.9,11.5-10.9c6.5-2.4,10.3-3,17.7-3.5c4.7-0.3,6.6-0.6,8.8-2c0.6-0.4,1.2-0.8,1.8-1.3
			c1.2-1,2.3-2.1,3.3-3.3c0.6-0.7,2.3-2.8,2.6-3.1c3.3-3.9,6.2-5.4,12.1-5.4c3.9,0,5.8-0.9,8-3.3c-0.2,0.2,2.7-3.1,3.8-4.1
			c2-1.9,4.2-3.6,6.7-4.9c1.5-0.8,3.1-1.6,4.9-2.3C163.2,228.9,166.5,227.2,169.7,225.2L169.7,225.2z M155.4,233.4
			c-2.4,1.3-4.5,2.9-6.4,4.8c-1.3,1.3-2.5,2.7-3.8,4.1c-2.4,2.6-4.6,3.6-8.7,3.6c-5.6,0-8.2,1.4-11.4,5.1c-0.2,0.3-2,2.5-2.6,3.1
			c-1,1.2-2.2,2.4-3.4,3.4c-0.6,0.5-1.3,1-1.9,1.4c-2.5,1.5-4.5,1.9-9.3,2.1c-7.3,0.4-11,1-17.4,3.4c-5.2,2-8.7,5.3-11,10.4
			c-1.9,4.2-2.9,8.9-4.3,18.1l-0.6,4.3l-0.7,4.5c-0.6,3.5-1.1,6.5-1.7,9.6c-1.1,5.1-4.5,18.2-4.7,20.2c-0.6,4.1,0.3,6.1,3.9,8.1
			c1.3,0.8,3,1.6,5.4,2.5c5.4,2.1,10,3,14.7,2.7c6.6-0.3,11.1-1.9,27.1-8.6c15.9-6.7,27.4-24.6,35.1-48.8c1.5-4.6,4-7.7,7.8-9.8
			c2.9-1.6,5.6-2.4,11.7-3.7c1.9-0.4,2.2-0.5,3.1-0.7c9-2,14-4.6,17.8-10.5c9.7-15.1,5.4-29-8.7-36.6c-5.6-3-7.9-3.7-10.1-3
			c-0.6,0.2-1.3,0.5-2.2,1.1c-0.5,0.3-2.7,1.7-2.9,1.8c-3.2,2-6.5,3.7-10,5.1C158.4,231.9,156.8,232.6,155.4,233.4L155.4,233.4z
			 M113.8,265.6c15.9-2.8,25.9-1,31.9,6c5,5.8,1.1,21-5.8,34.9c-4.7,9.4-10.4,15.9-22.7,24.7c-13.9,9.9-34.8,12-40,3.8
			c-1.8-2.9-2.1-8-1-15.4c0.8-5.6,1.8-10.5,4.6-22.6l0.1-0.5c1.6-6.7,2.3-10.1,3.1-13.9c1.4-7.1,3.7-11.3,7.1-13.5
			c2.8-1.8,5.4-2.2,12.1-2.6C108.4,266.3,110.6,266.1,113.8,265.6L113.8,265.6z M114,266.5c-3.2,0.6-5.5,0.8-10.7,1
			c-6.5,0.3-9.1,0.8-11.6,2.4c-3.2,2.1-5.3,6-6.7,12.9c-0.8,3.8-1.5,7.2-3.1,13.9l-0.1,0.5c-2.8,12-3.9,16.9-4.6,22.5
			c-1,7.2-0.8,12.1,0.9,14.8c4.7,7.6,25.1,5.6,38.6-4.1c12.2-8.7,17.8-15.1,22.4-24.4c6.7-13.5,10.6-28.5,6-33.8
			C139.2,265.6,129.5,263.8,114,266.5L114,266.5z M129.6,271.4c7,0,10.5,3,11,8.5c0.4,3.9-0.4,8-2.7,15.6
			c-2.5,8.4-18,24.9-26.7,30.7c-6.9,4.6-19.7,5.6-26.1,1c-3.9-2.8-3.5-11.9,0-26c0.7-2.7,1.4-5.5,2.3-8.6c1-3.3,2-6.6,3-10l0.4-1.2
			c1.5-4.7,5-7.6,10.5-9.1c4.3-1.2,9.4-1.5,17.2-1.3l3.8,0.1C126.1,271.4,127.7,271.4,129.6,271.4L129.6,271.4z M129.6,272.4
			c-1.9,0-3.5,0-7.3-0.1l-3.8-0.1c-7.7-0.2-12.7,0.1-16.9,1.3c-5.2,1.4-8.5,4.1-9.8,8.4c-0.5,1.7-1,3.4-1.6,5.1
			c-0.7,2.2-1.2,4.1-1.8,6c-0.9,3-1.6,5.9-2.3,8.6c-3.4,13.6-3.8,22.5-0.4,24.9c6.1,4.3,18.4,3.4,25-1c8.5-5.7,23.9-22.1,26.3-30.2
			c2.3-7.5,3.1-11.5,2.7-15.3C139.1,275.1,136.1,272.4,129.6,272.4z M112.1,279.3c2.9,0.1,5.7,0.5,8.4,1.4c5.3,1.7,8.6,4.9,8.6,9.9
			c0,9.4-9.3,16.9-21.9,21.1c-9.6,3.2-13.4-1.8-11.4-16.2c0.8-6.2,3.8-10.5,8.1-13.2C106.3,280.6,109.2,279.6,112.1,279.3
			L112.1,279.3z M111.5,280.3c-2.6,0.4-5,1.3-7.2,2.7c-4.1,2.6-6.9,6.7-7.6,12.5c-1.9,13.9,1.3,18.1,10.2,15.2
			c12.2-4.1,21.3-11.3,21.3-20.2c0-4.5-2.9-7.4-7.9-9c-2.6-0.8-5.3-1.3-8-1.3C112,280.3,111.8,280.3,111.5,280.3L111.5,280.3z
			 M190.9,257.3c-2.7,9.6-14.7,9.7-26.2,3.2c-10-5.5-13.5-17.7-4.9-22.5c1.5-0.8,3-1.7,4.4-2.7l2-1.3c1.2-0.8,2.5-1.6,3.8-2.3
			c4.6-2.4,8.7-2.7,13.7-0.7C192.8,234.8,194.5,244.3,190.9,257.3L190.9,257.3z M170.5,232.8c-1.3,0.7-2.5,1.4-3.8,2.2l-2,1.3
			c-0.8,0.5-1.5,0.9-2.1,1.3c-0.8,0.5-1.6,0.9-2.3,1.4c-7.8,4.3-4.5,15.5,4.9,20.7c11.1,6.2,22.4,6.1,24.8-2.7
			c3.5-12.6,1.8-21.6-6.6-24.9C178.6,230.2,174.9,230.5,170.5,232.8L170.5,232.8z M188,244.7c0,5.6-2.4,8.8-6.5,9.8
			c-3.2,0.7-7.4,0-10.9-1.8l-1.9-0.9c-0.7-0.3-1.2-0.6-1.6-0.9c-4-2.3-4.1-4.9,0.3-10.7C174.1,231.3,188,233.2,188,244.7L188,244.7z
			 M187,244.7c0-5.2-2.8-8.4-7.2-9c-4.2-0.6-8.8,1.4-11.6,5.1c-4.1,5.4-4,7.3-0.6,9.3c0.4,0.2,0.9,0.5,1.6,0.8l1.8,0.9
			c3.3,1.6,7.2,2.4,10.2,1.7C184.9,252.7,187,249.9,187,244.7L187,244.7z M379.9,520.6c0-12.6,2.4-16.4,18.1-29.2
			c2.3-1.9,4.8-3.6,7.5-5.1c2.6-1.5,5.2-2.8,8.3-4.1c1.2-0.5,2.4-1,4-1.7l3.8-1.5c9.2-3.8,13.5-6.6,16.3-11.8
			c1.2-2.2,2.2-4.3,3.2-6.7c0.5-1.2,1-2.5,1.5-3.8l0.3-0.7l0.5-1.4c3.1-7.9,5.9-11.9,12.5-16.2c1.7-1.2,3.4-2.5,4.9-3.9
			c1.4-1.3,2.6-2.7,3.8-4.2c0.3-0.3,2.5-3.1,3.1-3.9c3.4-4.1,6.4-5.8,11.3-5.8c3,0,5.5-0.6,9.4-2.1c5.3-2,6.4-2.3,8.8-2.2
			c2.5,0.1,4.8,1.2,7,3.5c1.3,1.3,5.4,5.7,6.4,6.7c5,4.9,9.3,6.8,17.4,6.8c4,0,7.9,0.2,11.9,0.4c15.6,0.9,21.5,0.6,24.8-2.2
			c6.8-5.7,11.4-2.7,11.4,7.6c0,10.5-8.4,19.6-18.7,19.6c-4.7,0-8.2,1.4-9.2,3.6c-1.1,2.4,0.7,6,5.9,10.4
			c13.4,11.1,11,20.4-7.5,20.4c-5.2-0.1-10.3,1.7-14.3,5.1c-3.2,2.7-5.7,5.8-9.7,11.6l-1.5,2.2c-3,4.5-4.9,7-7.2,9.2
			c-6.1,6.1-9.1,7.5-12.8,6.8l-1-0.2c-0.9-0.2-1.7-0.4-2.6-0.4c-1.6,0-2.4,0.7-8,6.1c-4.8,4.6-7.9,6.7-11.6,6.7
			c-1.3,0-3.4,1.1-6.3,3.4c-1.2,1-2.6,2.1-4.4,3.6l-4.8,4.2c-1.5,1.3-3,2.5-4.5,3.8c-9.2,7.4-15.3,10-19.8,6.4
			c-2.6-2.1-4.1-4.4-4.5-7.1c-0.4-2-0.3-3.6,0.3-7.2c0.9-5.7,0.6-8.3-1.8-11.4c-2.3-2.9-2.9-3.2-3.7-2.3c-0.2,0.3-1.3,1.6-1.6,1.9
			c-2.2,2.5-4.8,3.5-8.8,2.8c-4.5-0.8-5.5-4-4.6-9.9l0.2-1.5c0.6-3.6,0.7-4.8,0.2-5.7c-0.4-0.8-1.9-0.9-5.1,0.4l-0.7,0.3
			c-13.5,5.4-15,6-19.1,6.5C383.1,529.2,379.9,526.8,379.9,520.6L379.9,520.6z M381.9,520.6c0,4.9,2.1,6.5,6.9,5.8
			c3.8-0.5,5.3-1.1,18.6-6.4l0.7-0.3c4.1-1.6,6.6-1.5,7.6,0.6c0.7,1.4,0.6,2.7-0.1,6.9l-0.2,1.5c-0.7,4.9-0.1,7.1,3,7.7
			c3.4,0.6,5.3-0.2,7-2.1c0.2-0.2,1.3-1.6,1.6-2c1.9-1.9,3.8-1.2,6.7,2.5c2.8,3.7,3.1,6.6,2.2,12.9c-1,6.6-0.5,9.2,3.6,12.5
			c3.4,2.7,8.9,0.4,17.4-6.4c1.3-1.1,2.7-2.2,4.4-3.7l4.8-4.2c1.8-1.6,3.2-2.7,4.5-3.7c3.3-2.5,5.6-3.8,7.5-3.8
			c3,0,5.8-1.9,10.2-6.1l2.4-2.3c0.9-0.9,1.6-1.5,2.3-2.1c1.8-1.5,3.2-2.2,4.7-2.2c1,0,1.8,0.1,3,0.4c0.7,0.2,0.7,0.2,0.9,0.2
			c2.9,0.6,5.3-0.5,11-6.2c2.2-2.2,4-4.6,7-8.9l1.5-2.2c4.1-6,6.6-9.2,10-12c4.3-3.7,9.9-5.7,15.6-5.6c16.6,0,18.3-6.9,6.2-16.9
			c-5.8-4.8-8-9.2-6.4-12.7c1.4-3.1,5.6-4.8,11-4.8c9.1,0,16.7-8.2,16.7-17.7c0-8.8-2.8-10.6-8.2-6.1c-3.9,3.2-9.8,3.5-26.2,2.6
			l-1-0.1c-5-0.3-7.8-0.4-10.7-0.4c-8.7,0-13.5-2.1-18.8-7.4c-1-1-5.2-5.4-6.4-6.7c-2-2-3.8-2.8-5.8-2.9c-2-0.1-3,0.2-8,2
			c-4.1,1.5-6.8,2.2-10.1,2.2c-4.2,0-6.7,1.4-9.8,5.1c-0.6,0.7-2.8,3.5-3.1,3.9c-1.2,1.5-2.6,3-4,4.4c-1.6,1.5-3.3,2.9-5.1,4.2
			c-6.1,4.1-8.7,7.8-11.7,15.3l-0.6,1.4l-0.3,0.7c-0.5,1.3-1,2.5-1.5,3.8c-1,2.3-2.1,4.6-3.3,6.9c-3.1,5.8-7.7,8.8-17.3,12.7
			l-3.8,1.6c-1.6,0.6-2.8,1.1-4,1.6c-2.8,1.2-5.5,2.5-8.1,4c-2.5,1.4-4.9,3.1-7.2,4.9C383.9,505.3,381.9,508.7,381.9,520.6
			L381.9,520.6z M512.6,442.3c3,1.5,6.4,2,10.5,1.7c2.5-0.2,4.8-0.6,8.6-1.5c5.3-1.2,6.2-1.4,8.2-1.5c2.7-0.2,4.7,0.2,6.2,1.4
			c1.6,1.3,1.9,2.7,1.2,4.1c-0.6,1.4-1,1.7-5,5c-3.5,2.9-4.9,4.7-4.9,7c0,7.2,1.3,9.8,7.7,15.3c3.8,3.2,5.8,6.7,5.2,9.4
			c-0.7,3.2-4.9,4.9-12.4,4.9c-7,0-12.5,4.5-19.7,14.4c-0.5,0.7-3.9,5.5-4.9,6.7c-1.4,1.9-2.9,3.7-4.6,5.4c-1,1-2.1,1.7-3,2.1
			c-2.8,1.2-5,1.5-9.7,1.7c-7.5,0.3-10.7,1.4-14.7,7c-1.6,2.1-3.1,3.9-4.6,5.5c-2.5,2.5-5.4,4.7-8.5,6.6c-0.1,0.1-10.5,6.1-14.5,8.7
			c-3.7,2.4-6.3,2-8.1-0.8c-1.3-2-1.9-4.5-2.8-10.2c-0.8-5-1.2-7-2-8.8c-1-2.3-2.2-3.2-3.9-2.8c-6.1,1.2-8.8,1.4-10.8,0.2
			c-2.3-1.4-3.1-4.5-2.6-10.5c0.2-1.9-1-2.8-3.7-3c-2.2-0.1-4.8,0.2-9.8,1.1l-0.7,0.1c-7.8,1.4-10.5,1.7-12.5,0.7
			c-2.9-1.4-1.6-5.2,4.2-12c5.4-6.4,10.4-10.6,15.5-13.3c3.7-1.9,5.8-2.6,11.9-4c7.2-1.7,10.2-3.4,13.8-9.1
			c2.9-4.7,10.5-18.3,11.9-20.5c3.5-5.6,6.7-8.9,10.8-11.1c2.6-1.4,4.6-2.8,9-6l1.4-1c7.7-5.6,12.1-7.8,17.4-7.8
			c4.1,0,6.4,1.3,9,4.7c0.3,0.4,1.6,2.2,2,2.6c0.8,1.1,1.6,1.9,2.4,2.8C508,439.5,510.2,441.1,512.6,442.3L512.6,442.3z
			 M512.2,443.2c-2.7-1.4-4.9-3-6.8-4.9c-0.9-0.9-1.6-1.8-2.5-2.9c-0.3-0.5-1.6-2.2-2-2.6c-2.4-3.1-4.4-4.3-8.2-4.3
			c-5,0-9.2,2.2-16.8,7.6l-1.4,1c-4.4,3.2-6.5,4.7-9.1,6c-4,2.1-7,5.4-10.5,10.8c-1.4,2.1-9,15.8-11.9,20.4c-3.7,6-7,7.8-14.4,9.6
			c-6,1.4-8.1,2.1-11.7,3.9c-4.9,2.6-9.9,6.7-15.2,13.1c-5.3,6.3-6.4,9.5-4.5,10.5c1.7,0.8,4.4,0.6,11.9-0.8l0.7-0.1
			c5-0.9,7.7-1.2,10-1.1c3.2,0.2,4.8,1.5,4.6,4c-0.5,5.7,0.2,8.5,2.1,9.6c1.7,1,4.3,0.9,10.1-0.3c2.3-0.5,3.9,0.8,5,3.4
			c0.8,1.9,1.2,3.9,2,8.6l0.1,0.4c0.9,5.5,1.5,8,2.7,9.8c1.4,2.3,3.5,2.6,6.7,0.5c4.1-2.6,14.4-8.6,14.5-8.7c3-1.8,5.8-3.9,8.3-6.4
			c1.6-1.7,3.1-3.5,4.5-5.4c4.2-5.8,7.7-7.1,15.5-7.4c4.6-0.2,6.6-0.5,9.3-1.6c0.9-0.4,1.8-1,2.8-1.9c1.7-1.6,3.2-3.4,4.5-5.3
			c0.9-1.3,4.3-6,4.8-6.7c7.4-10.1,13-14.8,20.4-14.8c7.1,0,10.8-1.6,11.4-4.2c0.5-2.3-1.3-5.4-4.9-8.5c-6.6-5.7-8-8.6-8-16.1
			c0-2.6,1.6-4.7,5.3-7.7c3.7-3.1,4.2-3.5,4.7-4.6c0.5-1,0.2-2-1-3c-2.2-1.8-4.6-1.6-13.5,0.4c-3.9,0.9-6.2,1.3-8.8,1.5
			C519,445.3,515.4,444.7,512.2,443.2L512.2,443.2z M484.7,439.3c5.5-2.8,8.8-2.2,12.7,1.3c0.6,0.5,2.6,2.4,3,2.8
			c4.1,3.8,7.9,5.6,14,5.6c11.2,0,13.7,1.4,15.8,7.9c0.3,0.8,1.3,4.5,1.6,5.5c0.8,2.6,1.6,4.9,2.7,7.5c2.1,5.1,2.6,8.2,1.7,10.1
			c-0.8,1.6-2.1,2.1-5.3,2.7c-2.3,0.4-2.7,0.5-3.8,0.8c-1.8,0.6-3.3,1.4-4.5,2.6c-1,1-2,2.1-3.2,3.6c-0.6,0.7-2.9,3.4-3.4,4.1
			c-7.1,8.4-12.2,12.1-19.2,12.1c-3.7,0-6.8,1.3-10.4,3.9c-1.8,1.3-11.4,10.1-14.9,12.8c-2.8,2.1-5.7,4.1-8.8,5.8
			c-4.5,2.5-7.2,3.2-8.8,2.2c-1.3-0.8-1.6-2-1.9-5.4c0-0.6-0.1-1.2-0.2-1.8c-0.5-4.6-2.2-6.7-7-6.7c-7,0-8.7-1.2-9.6-5.3
			c-0.9-4.5-2.1-6.6-6.4-9.5c-3.9-2.6-4.2-5.3-1.5-8.1c2-2,4.5-3.4,11.1-6.7c6.5-3.2,9-4.7,10.9-6.6c2-1.9,3.7-4.1,5.2-6.4
			c1-1.5,1.8-3,2.8-5l2.1-4.2c0.9-1.8,1.7-3.3,2.6-4.9C467.6,450,472.1,445.6,484.7,439.3L484.7,439.3z M462.8,460.6
			c-0.9,1.6-1.7,3.1-2.6,4.9l-2.1,4.2c-0.9,1.8-1.8,3.5-2.9,5.1c-1.5,2.4-3.3,4.5-5.3,6.5c-2,2-4.5,3.4-11.1,6.7
			c-6.5,3.2-9,4.7-10.9,6.6c-2.3,2.3-2,4.3,1.4,6.5c4.6,3.1,5.9,5.4,6.8,10.1c0.8,3.6,2.1,4.5,8.6,4.5c5.4,0,7.4,2.5,8,7.6
			c0.1,0.5,0.1,0.8,0.2,1.8c0.2,3,0.5,4.1,1.4,4.6c1.2,0.7,3.6,0.1,7.8-2.2c3-1.7,5.9-3.6,8.7-5.7c3.5-2.6,13.1-11.4,15-12.8
			c3.7-2.8,7-4.1,11-4.1c6.6,0,11.6-3.6,18.5-11.8l3.4-4.1c1.1-1.3,2.2-2.5,3.3-3.7c1.4-1.3,3.1-2.3,4.9-2.9
			c1.1-0.3,1.6-0.4,3.9-0.9c2.9-0.5,4-1,4.6-2.2c0.7-1.6,0.3-4.4-1.7-9.3c-1-2.5-1.9-5-2.7-7.5c-0.3-1-1.4-4.7-1.6-5.5
			c-1.9-6.1-4.1-7.3-14.9-7.3c-6.4,0-10.4-1.9-14.7-5.9c-0.4-0.4-2.4-2.3-3-2.8c-3.6-3.2-6.4-3.8-11.6-1.2
			C472.7,446.4,468.3,450.7,462.8,460.6L462.8,460.6z M517.6,472.3c-2.9,6.3-16.5,15-26.2,15c-5.2,0-7.4-2.9-7-7.7
			c0.3-3.4,2.1-7.8,3.9-10.4l1.5-2.3c0.6-0.9,1.2-1.8,1.8-2.7c3.6-4.7,7.7-7.3,13.4-7.3C513.9,457,520.4,466.3,517.6,472.3
			L517.6,472.3z M516.7,471.9c2.5-5.4-3.6-14-11.8-14c-5.3,0-9.2,2.4-12.6,6.9c-0.6,0.8-1.1,1.6-1.8,2.6c0,0-1.2,1.8-1.5,2.3
			c-1.7,2.5-3.4,6.7-3.7,10c-0.4,4.3,1.4,6.6,6,6.6C500.8,486.3,514,477.9,516.7,471.9L516.7,471.9z M448.4,492.3
			c2,0.2,4.4,0.8,5.8,1.8c2.1,1.4,2.2,3.5-0.3,5.9c-5,5.1-12.6,4.3-12.6-1.3C441.3,494.1,444.3,492,448.4,492.3z M448.3,493.3
			c-3.5-0.3-6,1.5-6,5.4c0,4.5,6.4,5.2,10.9,0.6c2-2,1.9-3.4,0.4-4.4C452.3,494,450.2,493.4,448.3,493.3L448.3,493.3z M477.3,271.5
			c4.6,2.3,17,8.1,19,9.3c2.6,1.4,5,3.3,6.9,5.5c1.3,1.6,2.6,3.3,3.7,5.1c2.4,3.7,0,7.5-6.1,11.4c-4.9,3.1-12,6.2-21.5,9.6
			c-4.8,1.7-19.3,6.6-20.7,7.1c-6.5,2.3-14.6,0.1-24.7-5.8c-3.9-2.2-7.9-4.9-12.7-8.4c-2.2-1.6-9.3-6.9-10.5-7.7
			c-2.7-2-5.5-3.9-8.5-5.6c-4.7-2.6-4.4-6.5,0.2-11.9c3.2-3.8,4.1-4.6,17.8-16c3-2.5,5.9-5,8.7-7.6c1.6-1.5,3.1-3,4.6-4.6
			c5-5.3,9.6-6.4,14.7-3.8c2.2,1.1,4.4,2.8,7.3,5.4c1.5,1.3,6.8,6.6,7.8,7.6C468.5,265.9,472.7,269.1,477.3,271.5L477.3,271.5z
			 M476.9,272.4c-4.8-2.4-9-5.7-14.2-10.6c-1-1-6.4-6.2-7.8-7.5c-2.8-2.6-5-4.2-7.1-5.3c-4.7-2.3-8.8-1.4-13.5,3.6
			c-1.5,1.6-3.1,3.1-4.7,4.6c-2.4,2.3-5.1,4.5-8.8,7.6c-13.6,11.4-14.5,12.2-17.7,15.9c-4.2,5-4.5,8.2-0.5,10.4
			c2.2,1.2,4.8,2.9,8.6,5.7c1.2,0.9,8.3,6.1,10.5,7.7c4.1,3,8.3,5.8,12.6,8.3c9.9,5.7,17.7,7.8,23.9,5.7c1.5-0.5,16-5.4,20.7-7.1
			c9.5-3.4,16.6-6.5,21.4-9.5c5.7-3.6,7.8-7,5.8-10.1c-1.1-1.7-2.3-3.4-3.6-5c-1.9-2.2-4.1-4-6.7-5.3
			C493.8,280.4,481.5,274.7,476.9,272.4L476.9,272.4z M438.7,280.3c3.1-0.4,5.6-0.1,8.2,0.7c2.1,0.6,2.7,0.9,8.5,3.7
			c4.7,2.2,8.2,3.8,12.9,5.5c8.2,2.9,11.1,6.1,8.7,9.6c-2,2.9-7.9,5.8-17.5,9c-8.3,2.8-15.2,2.3-21-0.9c-4.6-2.5-8.2-6.4-11.9-12.1
			c-2.8-4.3-2.7-8,0.2-10.9C429.2,282.5,433.5,280.9,438.7,280.3L438.7,280.3z M438.9,281.2c-5,0.6-9.2,2.1-11.4,4.3
			c-2.5,2.5-2.6,5.7,0,9.6c3.7,5.6,7.2,9.3,11.6,11.8c5.6,3.1,12.2,3.5,20.2,0.8c9.4-3.1,15.2-6,17-8.7c1.9-2.7-0.5-5.4-8.2-8.1
			c-4.8-1.7-8.3-3.2-13-5.5c-5.7-2.8-6.3-3-8.3-3.6C444.2,281.1,441.5,280.9,438.9,281.2L438.9,281.2z M198.8,491.2
			c0,4.7-1.4,7.4-4.3,8.8c-2.2,1-4.5,1.2-10.6,1.2l-1.7,0c-9,0-16.7-7.5-16.7-15.2c0-7.5,10.4-10.3,19.4-5.3
			c2.7,1.5,4.1,1.9,8.4,2.7C197.6,484.1,198.8,485.5,198.8,491.2z M197.8,491.2c0-5.2-0.9-6.2-4.8-6.9c-4.4-0.8-5.9-1.2-8.7-2.8
			c-8.4-4.7-17.9-2.1-17.9,4.5c0,7.2,7.2,14.2,15.7,14.2h1.8c5.9,0,8.1-0.1,10.2-1.1C196.6,497.9,197.8,495.5,197.8,491.2
			L197.8,491.2z M230.5,375.5c3.6-1.3,8.5-2.6,15.8-4.5c2.5-0.6,16.2-4,20.2-5c19.2-4.8,31-8.7,37.5-13.1
			c14.7-9.8,36.2-33.3,43-46.9c2.2-4.4,4.6-6.3,7.5-6.1c1.2,0.1,2.6,0.4,4.2,1.2c1.2,0.5,2.3,1.1,3.5,1.7l1.2,0.6
			c4.7,2.3,8.2,3.4,12.4,3.4c7.1,0,9.8,3,8.2,7.8c-1.4,4-5.8,8.7-10.9,11.8c-8.1,4.9-11.5,17-11.5,33c0,3.5-1.3,6.2-3.9,8.2
			c-1.9,1.6-4.1,2.6-8.3,4.1l-1,0.4c-4.8,1.7-6.9,2.7-8.5,4.4c-5,5-12.3,7-20,7c-1.4,0-2.4,0.9-3.9,3c-0.3,0.4-1.3,1.9-1.4,2.1
			c-2.6,3.8-4.8,5.6-8.4,5.6c-7.7,0-10.5,0.9-21.4,6.8c-5.1,2.8-8.6,3.5-14.4,3.6c-0.3,0-0.5,0-0.9,0c-4.7,0.1-7,0.3-10.3,1.3
			c-3,1-5.9,2.1-8.7,3.5c-2.1,1-10.3,4.9-10,4.8c-7.6,3.6-13.1,5.9-18.6,7.4c-12.2,3.5-18.2,2.2-26.9-4c-2.5-1.8-2.7-4.3-0.8-7.5
			c1.4-2.4,3.8-5,7.9-8.8l1.7-1.6c3.8-3.5,4.4-4,5.8-5.4c2.3-2.3,3.1-3.4,5.4-7.5c1.9-3.3,3.3-5,6.2-6.9
			C223.5,378.4,226.5,376.9,230.5,375.5L230.5,375.5z M230.9,376.4c-4,1.4-6.9,2.8-9.1,4.2c-2.7,1.8-4,3.4-5.9,6.6
			c-2.4,4.1-3.2,5.3-5.5,7.7c-1.4,1.4-2,1.9-5.8,5.5l-1.7,1.6c-4,3.8-6.4,6.3-7.8,8.6c-1.6,2.7-1.5,4.7,0.5,6.2
			c8.4,6,14.2,7.2,26.1,3.8c5.4-1.5,10.8-3.8,18.4-7.4c-0.3,0.1,7.9-3.8,10.1-4.8c2.9-1.4,5.8-2.6,8.8-3.5c3.4-1.1,5.8-1.3,10.6-1.4
			h0.9c5.6-0.1,9-0.8,13.9-3.5c11-6,13.9-6.9,21.8-6.9c3.1,0,5.1-1.6,7.6-5.2l1.5-2.2c1.7-2.4,2.9-3.5,4.7-3.5
			c7.4,0,14.5-2,19.3-6.7c1.8-1.8,4-2.8,8.9-4.6l1-0.4c8.4-3.1,11.6-5.6,11.6-11.4c0-16.3,3.5-28.7,12-33.8
			c4.9-2.9,9.2-7.5,10.5-11.3c1.4-4.1-0.8-6.5-7.3-6.5c-4.4,0-8-1.1-12.9-3.5c-7.4-3.6-6.7-3.3-8.6-3.4c-2.5-0.1-4.6,1.5-6.6,5.6
			c-6.9,13.8-28.6,37.4-43.4,47.3c-6.7,4.5-18.5,8.4-37.8,13.2c-4,1-17.6,4.3-20.2,5C239.3,373.8,234.5,375.2,230.9,376.4
			L230.9,376.4z M247.4,380.4c2,0,3.9-0.2,7.1-0.7c5.1-0.8,6.5-0.9,8.3-0.5c2.5,0.5,3.7,2.3,3.7,5.6c0,4-2.2,7.2-6.5,9.9
			c-3.2,2.1-6.4,3.5-13.9,6.3l-0.3,0.1l-2.2,0.8c-3,1.1-5.2,2.5-9.2,5.3l-0.8,0.6c-8,5.8-13.1,7.9-22.6,7.9c-4.9,0-6.8-2-5.6-5.5
			c0.9-2.8,3.5-6.4,7.7-10.9c1.2-1.3,2.6-2.7,4.1-4.2c3.1-3.1,11-10.4,11.2-10.6c0.5-0.5,0.9-0.9,1.4-1.2c3.3-2.7,5.7-3,13.9-2.9
			C245.3,380.4,246.3,380.4,247.4,380.4L247.4,380.4z M247.4,381.4c-1.1,0-2.1,0-3.7,0c-8-0.1-10.2,0.2-13.3,2.7
			c-0.4,0.3-0.9,0.7-1.3,1.2c-0.2,0.2-8.1,7.5-11.2,10.6c-1.4,1.4-2.7,2.8-4,4.2c-4,4.4-6.6,8-7.4,10.6c-0.9,2.8,0.4,4.2,4.7,4.2
			c9.3,0,14.2-2,22-7.7l0.8-0.6c4.1-2.9,6.3-4.3,9.4-5.5l2.3-0.8l0.2-0.1c7.4-2.8,10.6-4.2,13.7-6.2c4-2.6,6-5.5,6-9.1
			c0-2.8-1-4.2-2.9-4.6c-1.6-0.4-3-0.2-8,0.5C251.4,381.2,249.5,381.4,247.4,381.4L247.4,381.4z M357.8,336.9
			c-1.8,5.3-1.9,6.6-1,12.5c1.2,6.9-1.4,16.3-5.4,16.3c-0.5,0-1,0-1.5,0.1l-0.6,0c-2.8,0.2-4.7,0.2-6.8-0.2c-6.4-1-10.2-5-10.2-13.2
			c0-13.6,2.1-19.3,8-25.8c0.9-1.1,1.8-2.4,2.5-3.7c0.6-1,2.7-5,2.7-4.9c4.4-8,7.6-11.3,12-10.2c1.1,0.3,2.2,0.8,3.5,1.6l1.4,0.8
			c1,0.6,2,1.1,3,1.6c0.7,0.3,1.8,0.3,4.7,0.3l0.7,0c3.1,0,4.7,0.1,5.7,0.6c1.6,0.9,1.2,2.5-1.1,4.8c-1.2,1.2-2.5,2.5-3.8,3.7
			C361.1,331,359,333.3,357.8,336.9z M356.9,336.6c1.3-3.8,3.4-6.1,14-16.2c1.5-1.4,2.7-2.6,3.8-3.7c1.9-1.9,2.1-2.8,1.3-3.3
			c-0.8-0.4-2.3-0.6-5.2-0.5l-0.7,0c-3.1,0.1-4.2,0-5-0.3c-1-0.4-1.9-0.9-3.2-1.6l-1.4-0.8c-1-0.6-2.1-1.1-3.2-1.4
			c-3.8-1-6.8,2.1-10.9,9.7c0.1-0.1-2.1,3.9-2.7,4.9c-0.7,1.4-1.6,2.7-2.6,3.8c-5.7,6.4-7.7,11.8-7.7,25.2c0,7.6,3.4,11.3,9.4,12.2
			c2,0.3,3.8,0.3,6.6,0.2c0.4,0,0.8,0,1.2-0.1c0.4,0,0.7,0,1,0c3.1,0,5.5-8.7,4.4-15.1C354.9,343.5,355,342.1,356.9,336.6z
			 M347.8,348.7c0.6,0.5,2.5,1.9,2.5,1.9c1.9,1.5,2,3.2,0,6.2c-3.7,5.5-8.7,3-8.7-4.5c0-3.7,0.5-5.6,2-5.9
			C344.8,346.3,345.6,346.8,347.8,348.7z M346.5,350.2c-1.5-1.3-2.2-1.8-2.4-1.8c-0.2,0-0.5,1.2-0.5,4c0,5.8,2.6,7.1,5.1,3.4
			c1.5-2.2,1.4-2.8,0.4-3.6C349.1,352.2,347.1,350.8,346.5,350.2L346.5,350.2z M565.3,222.4c2.2-1.1,3.6-1.6,5.8-2.3l0.3-0.1
			c3-0.9,5.9-2,8.6-3.5c4.1-2,6.2-1.8,6.8,0.8c0.4,2,0.2,3.9-1.2,12.5c-2.2,13.4-9,25.7-20.8,35.6c-4.2,3.6-7.3,4.3-9.6,2.4
			c-1.8-1.5-3-4.5-4.5-10.3c-0.3-1.1-1.4-5.7-1.7-6.8c-0.8-3.1-1.6-6.1-2.7-9.1c-2.4-6.7-3-10.6-2.1-12.7c0.8-1.8,2-2.2,5.5-2.4
			c1.5-0.1,2.1-0.1,2.9-0.3l1.9-0.3c0.7-0.1,1.2-0.2,1.6-0.3c1.1-0.2,1.9-0.4,2.7-0.6C560.6,224.6,562.3,223.9,565.3,222.4
			L565.3,222.4z M565.7,223.3c-3.1,1.5-4.8,2.2-6.5,2.7c-0.8,0.2-1.7,0.4-2.8,0.6c-1.2,0.2-2.5,0.4-3.7,0.6
			c-0.8,0.1-1.4,0.2-2.9,0.3c-3.1,0.2-4.1,0.5-4.7,1.8c-0.8,1.8-0.2,5.5,2.1,12c1,3,1.9,6.1,2.7,9.1l1.7,6.8
			c1.4,5.6,2.6,8.4,4.2,9.8c1.8,1.5,4.4,0.9,8.3-2.4c11.6-9.8,18.3-21.9,20.4-35c1.4-8.3,1.6-10.3,1.2-12.1c-0.4-1.8-1.8-2-5.4-0.2
			c-2.8,1.5-5.7,2.6-8.8,3.5l-0.3,0.1C569.4,221.6,567.5,222.4,565.7,223.3L565.7,223.3z M561.3,229.7c1.3-0.3,2.5-0.7,3.8-1.4
			c0.3-0.2,2.5-1.3,3.3-1.6c1.5-0.7,2.9-1.3,4.6-1.9c2.7-0.9,4.6-0.8,5.8,0.4c1,0.9,1.3,2.2,1.4,4.1c0,0.4,0,0.7,0,1.3
			c0,5.5-4.5,16.6-11.1,22.3c-4.3,3.7-7.2,4.6-9.7,2.5c-2-1.7-3.4-4.6-6.5-12.7c-1.8-4.7-2-8-0.7-10c1.1-1.7,2.8-2.3,5.7-2.6
			l1.2-0.1C560.2,229.9,560.8,229.9,561.3,229.7L561.3,229.7z M559.2,232l-1.2,0.1c-2.4,0.3-3.6,0.7-4.3,1.8c-0.9,1.4-0.8,4,0.9,8.2
			c3,7.7,4.3,10.5,6,11.9c1.6,1.3,3.6,0.7,7.2-2.4c6.1-5.4,10.5-15.9,10.5-20.9c0-0.6,0-0.9,0-1.3c0-1.4-0.3-2.3-0.8-2.7
			c-0.6-0.6-1.8-0.6-3.8,0c-1.5,0.5-3,1.1-4.4,1.8c-0.7,0.3-2.9,1.4-3.3,1.6c-1.3,0.7-2.8,1.2-4.2,1.5
			C561.1,231.8,560.5,231.9,559.2,232L559.2,232z M335.7,144.6c-1.6,4.2-3.5,7.1-7,11.2l-2.6,2.9c-0.9,1-1.8,2.1-2.6,3.2
			c-1.8,2.3-3.3,4.8-4.6,7.4c-2.8,5.6-7,10-12.6,13.6c-4.2,2.7-8.1,4.5-15.4,7.5c-10.8,4.3-16.1,1.2-26.7-16.1
			c-2.8-4.6-8.6-8.5-17.7-12.4c-2.9-1.3-12.6-5.1-14.2-5.8c-4.9-2.1-6.9-3.7-6.3-5.7c0.7-2.3,5.2-4,15.2-6c16.3-3.3,26.4-3.8,39.2-3
			c7.8,0.5,9.5,0.5,12.5-0.3c2-0.5,3.8-1.3,5.9-2.6l2.7-1.7c9.7-6,12.7-7.8,17-9.7c5.9-2.7,10.4-3.3,13.7-1.4
			C339.4,129.8,339.8,133.3,335.7,144.6L335.7,144.6z M333.8,144c3.9-10.5,3.5-13-2.5-16.5c-2.6-1.5-6.5-1-11.9,1.5
			c-4.2,1.9-7.2,3.6-16.8,9.6l-2.7,1.7c-2,1.3-4.2,2.2-6.5,2.8c-3.3,0.8-5.1,0.8-13.1,0.3c-12.6-0.8-22.5-0.3-38.7,2.9
			c-4.8,1-8.3,1.8-10.6,2.7c-2,0.7-3,1.4-3.1,1.9c-0.2,0.6,1.5,1.8,5.2,3.4c1.5,0.7,11.2,4.5,14.2,5.8c9.3,4.1,15.5,8.1,18.5,13.2
			c10.2,16.6,14.6,19.2,24.3,15.3c7.2-2.9,11-4.7,15-7.3c5.3-3.5,9.3-7.6,11.9-12.9c1.4-2.8,3-5.3,4.8-7.7c0.9-1.1,1.7-2.2,2.7-3.3
			l2.6-2.9C330.6,150.6,332.4,147.9,333.8,144L333.8,144z M327.3,143.6c-7.8,12.6-18.2,21.4-32.7,24.8c-7.7,1.8-12.2-0.8-12.9-5.8
			c-0.5-4.4,2.2-8.9,5.9-8.9c3,0,5.5-1.6,15.1-9c1.4-1.1,2.5-1.9,3.6-2.7c4.3-3.1,7.6-5.1,10.6-6c5.5-1.6,9.2-2.1,11.1-1.2
			C330.5,135.9,330.3,138.8,327.3,143.6L327.3,143.6z M326.5,143.1c2.7-4.3,2.9-6.6,1.2-7.4c-1.7-0.8-5.2-0.3-10.5,1.2
			c-2.8,0.9-6.1,2.7-10.3,5.8c-1.1,0.8-2.1,1.6-3.6,2.7c-9.9,7.6-12.4,9.2-15.7,9.2c-3,0-5.4,3.9-4.9,7.8c0.5,4.4,4.5,6.7,11.7,5
			C308.6,164,318.8,155.4,326.5,143.1z M452.7,32.9c13.6,4.9,20.4,4.9,31,0c3-1.3,5.4-2.9,10.8-6.7c5.5-3.8,7.9-5.4,10.9-6.8
			c4.1-1.8,7.6-2.3,11-1.3c3.8,1.2,6.1,12.1,6.7,27.9c0.5,13.9-0.5,28.4-2.4,33.6c-1.8,4.8-5.8,8-11.3,9.8
			c-4.1,1.3-8.4,1.9-12.7,1.8c-5.7,0-8.8,2.4-12,7.5c-0.4,0.6-1.5,2.6-1.7,2.8c-1.7,2.8-3,4.3-4.8,4.9c-0.9,0.3-2,0.8-3.8,1.7
			l-2.4,1.2c-1,0.5-1.8,0.9-2.6,1.3c-6.3,3-11.5,4.6-16.8,4.6c-5.6,0-9.9,2.1-13.8,5.8c-1.1,1.1-4.1,4.4-4.5,4.9
			c-2.5,2.4-5.8,4.2-10.7,6c-1.4,0.5-5.9,2.1-6.1,2.2l-2,0.8c-0.9,0.4-1.7,0.6-2.7,0.8c-5.4,1.1-10.9-0.5-17.6-4.3
			c-1.2-0.7-5-3-5.7-3.4c-2-1.1-4-1.5-8.9-1.9l-1.7-0.1c-4.7-0.4-7.5-1.1-10-2.9c-4.9-3.5-6.6-7.6-5.5-12.1
			c1.3-5.3,6.4-10.8,14.6-17c2.1-1.6,4.2-3.1,6.4-4.5c-0.3,0.2,4.3-2.9,5.2-3.5c2.7-1.9,4.7-3.8,12.5-11.8l1.1-1.1
			c3.4-3.5,5.8-5.8,8-7.7c2.8-2.5,4.6-5.8,7.4-12.8L419,51c2.7-6.8,4.2-9.8,6.7-12.1c1.4-1.3,6.6-6.4,7.8-7.4
			C437.4,28.6,441.4,28.9,452.7,32.9L452.7,32.9z M452.4,33.8c-11.1-3.9-14.7-4.2-18.3-1.5c-1.2,0.9-6.3,6-7.7,7.3
			c-2.4,2.1-3.9,5.1-6.5,11.7l-0.6,1.6c-2.8,7.1-4.6,10.6-7.6,13.2c-3.1,2.8-6.1,5.7-9,8.7c-7.9,8-9.9,10-12.6,11.9
			c-1,0.7-5.5,3.8-5.2,3.5c-2.5,1.7-4.4,3.1-6.4,4.5c-8,6-13,11.4-14.2,16.4c-1,4.1,0.6,7.8,5.2,11.1c2.3,1.7,5,2.4,9.5,2.7l1.7,0.1
			c5,0.4,7.1,0.8,9.3,2c0.6,0.4,4.4,2.7,5.7,3.3c6.5,3.7,11.8,5.3,17,4.2c0.8-0.2,1.7-0.4,2.5-0.7c0.7-0.3,1.4-0.5,2.1-0.8
			c0.3-0.1,4.8-1.7,6.1-2.2c4.7-1.8,7.9-3.5,10.3-5.8c0.4-0.4,3.4-3.7,4.5-4.8c4.1-3.9,8.6-6.1,14.5-6.1c5.2,0,10.2-1.6,16.4-4.5
			c0.8-0.4,1.6-0.8,2.6-1.3c0.1-0.1,1.9-1,2.4-1.2c1.8-0.9,2.9-1.4,3.9-1.8c1.6-0.5,2.7-1.8,4.3-4.4l1.7-2.8c3.3-5.4,6.7-8,12.8-8
			c4.4,0,8.6-0.5,12.4-1.7c5.3-1.7,9-4.7,10.7-9.2c1.8-5,2.8-19.4,2.3-33.2c-0.5-15.2-2.8-26-6-27c-3.1-1-6.4-0.5-10.3,1.2
			c-3,1.3-5.4,2.9-10.8,6.7c-5.5,3.8-7.9,5.4-10.9,6.8C473.2,38.8,466.2,38.8,452.4,33.8z M466.3,54c5.3,0,7.4-0.2,9.5-0.9
			c1.2-0.4,9.8-4.7,14.6-6.8c1.9-0.8,3.5-2.4,6.5-5.9c2.5-3,3.1-3.7,4.3-4.8c3.6-3.3,6.9-3.2,10,1.2c6.1,8.7,5.5,15.6,0.1,26.5
			c-0.9,1.8-1.7,3.6-2.5,5.4c-0.3,0.8-1,2.7-1.1,2.8c-0.2,0.4-0.3,0.8-0.5,1.1c-0.6,1.1-1.5,2.2-4,4.6c-2.4,2.4-5.1,3.2-11.5,4.3
			c-1.8,0.3-2.2,0.4-2.9,0.5c-5.9,1.1-9.4,2.6-12,6c-3.5,4.5-7.8,7.3-14.7,10.5c-0.5,0.2-1.1,0.5-1.8,0.8l-1.7,0.8
			c-2.6,1.1-5.1,2.4-7.6,3.8c-2.5,1.6-4.7,2.3-9.2,3.4c-8.4,2-12.1,3.7-17.1,9.2c-5,5.5-10,7.5-16.3,6.6c-5.3-0.8-10.4-3-23.1-9.3
			c-6.2-3.1-6.3-7.6-1.5-13.3c3.3-3.9,3.5-4,19-16.1c8-6.2,12.7-10.4,16.3-14.6c2.5-2.9,4.1-5.6,4.9-8.1c5.4-18,12.3-21.6,22.4-15.3
			c1.9,1.2,6.5,4.5,7,4.8C456.8,53.2,459.9,54,466.3,54L466.3,54z M466.3,56c-6.7,0-10.2-0.9-13.8-3.2c-0.6-0.4-5.2-3.6-7-4.8
			c-8.9-5.5-14.4-2.7-19.4,14.2c-0.8,2.8-2.6,5.7-5.3,8.8c-3.7,4.4-8.5,8.6-16.6,14.9c-15.4,12-15.6,12.2-18.8,15.9
			c-4.1,4.8-4,7.9,0.9,10.3c12.5,6.2,17.6,8.4,22.5,9.1c5.7,0.8,10-0.9,14.6-5.9c5.3-5.9,9.3-7.7,18-9.8c4.3-1.1,6.4-1.7,8.7-3.2
			c2.5-1.5,5.1-2.8,7.8-3.9l1.7-0.8l1.7-0.8c6.7-3.1,10.7-5.8,14-10c2.9-3.8,6.9-5.5,13.2-6.7c0.8-0.1,1.2-0.2,3-0.5
			c6-1,8.4-1.7,10.4-3.7c2.3-2.3,3.2-3.3,3.7-4.2c0.1-0.3,0.3-0.5,0.4-0.9c0.1-0.1,0.7-2,1.1-2.8c0.6-1.6,1.4-3.3,2.5-5.5
			c5.1-10.3,5.7-16.5,0.1-24.5c-2.4-3.4-4.3-3.4-7.1-0.9c-1.1,1-1.7,1.7-4.1,4.6c-3.2,3.8-4.9,5.5-7.2,6.5
			c-4.7,2.1-13.4,6.4-14.8,6.9C474.1,55.7,471.8,56,466.3,56L466.3,56z M453.8,64.4c5.4,3.8,10.2,3.7,17.9,0.9
			c5.3-1.9,5.8-2.1,7.6-2.1c2.5,0,4.1,1.3,5.1,4.4c1.6,4.9-2.3,8.4-12.1,12.4c-2.7,1.1-16,6.1-19.6,7.6c-7.7,3.2-13.7,6.3-18.5,10
			c-12.8,9.7-18,11.7-23.3,9.5c-1.2-0.5-2.4-1.2-3.6-1.9l-2-1.3c-0.7-0.5-1.5-0.9-2.2-1.4c-3.3-2-2.8-4.2,0.8-7.2
			c1.3-1.1,10.5-7.5,13.3-9.7c7-5.6,11.7-11.3,14.1-18c3-8.3,4.8-11.9,6.7-13.1c1.7-1.1,3.3-0.5,6.1,1.9c0.6,0.5,3.3,3,4,3.6
			C450.1,61.6,451.9,63,453.8,64.4L453.8,64.4z M453.2,65.2c-1.9-1.4-3.7-2.8-5.6-4.5c-0.7-0.6-3.4-3.1-4-3.6
			c-2.5-2.1-3.7-2.6-4.9-1.8c-1.6,1.1-3.4,4.6-6.3,12.7c-2.5,6.9-7.4,12.8-14.4,18.4c-2.9,2.3-12,8.6-13.3,9.7
			c-3.2,2.6-3.5,4.1-1,5.6l2.2,1.4l2,1.3c1.4,0.9,2.4,1.5,3.4,1.9c4.8,2,9.8,0.1,22.3-9.4c4.9-3.7,10.9-6.9,18.8-10.1
			c3.7-1.5,17-6.5,19.6-7.6c9.3-3.9,12.9-7.1,11.5-11.2c-0.9-2.7-2.2-3.7-4.2-3.7c-1.6,0-2.1,0.2-7.2,2
			C464,69.1,459,69.3,453.2,65.2L453.2,65.2z"/>
	</g>
</g>
</svg>
