<svg width="22" height="29" viewBox="0 0 22 29" fill="none" xmlns="http://www.w3.org/2000/svg">
<path d="M17 26.6987V15.8352C17 15.2829 16.5523 14.8352 16 14.8352H6C5.44772 14.8352 5 15.2829 5 15.8352V26.6987C5 27.5731 6.0431 28.0264 6.68232 27.4297L10.3177 24.0367C10.7019 23.6781 11.2981 23.6781 11.6823 24.0367L15.3177 27.4297C15.9569 28.0264 17 27.5731 17 26.6987Z" fill="#FFE7AD" stroke="#FFC432" stroke-width="2"/>
<path d="M10.3851 1.47942C10.7466 1.19758 11.2534 1.19758 11.6149 1.47942L11.9708 1.75693C12.2427 1.96894 12.6047 2.02591 12.9286 1.90768L13.3561 1.75163C13.7874 1.59418 14.2706 1.75072 14.5276 2.13121L14.7743 2.49638C14.9681 2.78317 15.2963 2.94939 15.6421 2.93582L16.0924 2.91817C16.5533 2.90009 16.9669 3.19969 17.0933 3.64335L17.2104 4.0542C17.3058 4.38906 17.5685 4.65019 17.904 4.74354L18.3273 4.86135C18.7743 4.98575 19.077 5.40126 19.0584 5.86487L19.0417 6.28052C19.0276 6.63056 19.1978 6.96243 19.4902 7.15535L19.8457 7.38987C20.2348 7.64657 20.3949 8.13805 20.2317 8.57468L20.0877 8.96C19.9646 9.28938 20.0235 9.65922 20.2429 9.93402L20.5019 10.2584C20.7932 10.6234 20.7932 11.1413 20.5019 11.5063L20.2429 11.8307C20.0235 12.1055 19.9646 12.4753 20.0877 12.8047L20.2317 13.19C20.3949 13.6267 20.2348 14.1181 19.8457 14.3748L19.4902 14.6094C19.1978 14.8023 19.0276 15.1341 19.0417 15.4842L19.0584 15.8998C19.077 16.3634 18.7743 16.779 18.3273 16.9034L17.904 17.0212C17.5685 17.1145 17.3058 17.3756 17.2104 17.7105L17.0933 18.1214C16.9669 18.565 16.5533 18.8646 16.0924 18.8465L15.6421 18.8289C15.2963 18.8153 14.9681 18.9815 14.7743 19.2683L14.5276 19.6335C14.2706 20.014 13.7874 20.1705 13.3561 20.0131L12.9286 19.857C12.6047 19.7388 12.2427 19.7958 11.9708 20.0078L11.6149 20.2853C11.2534 20.5671 10.7466 20.5671 10.3851 20.2853L10.0292 20.0078C9.75728 19.7958 9.39532 19.7388 9.07142 19.857L8.64391 20.0131C8.21256 20.1705 7.72943 20.014 7.47238 19.6335L7.22569 19.2683C7.03195 18.9815 6.7037 18.8153 6.35787 18.8289L5.90763 18.8465C5.44666 18.8646 5.03315 18.565 4.90672 18.1214L4.78965 17.7105C4.69423 17.3756 4.43149 17.1145 4.09604 17.0212L3.67269 16.9034C3.2257 16.779 2.92299 16.3634 2.9416 15.8998L2.95829 15.4842C2.97235 15.1341 2.80221 14.8023 2.5098 14.6094L2.15433 14.3748C1.76524 14.1181 1.60512 13.6267 1.76832 13.19L1.91233 12.8047C2.03545 12.4753 1.97651 12.1055 1.75712 11.8307L1.49812 11.5063C1.20677 11.1413 1.20677 10.6234 1.49811 10.2584L1.75712 9.93402C1.97651 9.65922 2.03545 9.28938 1.91233 8.96L1.76832 8.57468C1.60512 8.13805 1.76524 7.64657 2.15433 7.38987L2.5098 7.15535C2.80221 6.96243 2.97235 6.63056 2.95829 6.28052L2.9416 5.86487C2.92299 5.40126 3.2257 4.98575 3.67269 4.86135L4.09604 4.74354C4.43149 4.65019 4.69423 4.38907 4.78965 4.0542L4.90672 3.64335C5.03315 3.19969 5.44666 2.90009 5.90763 2.91817L6.35787 2.93582C6.7037 2.94939 7.03195 2.78317 7.22569 2.49638L7.47238 2.13121C7.72943 1.75072 8.21256 1.59418 8.64391 1.75163L9.07142 1.90768C9.39532 2.02591 9.75728 1.96894 10.0292 1.75693L10.3851 1.47942Z" fill="#FFF3D6" stroke="#FFC432" stroke-width="2"/>
<ellipse cx="10.8551" cy="10.7391" rx="6.57005" ry="6.49275" fill="white" stroke="#FFC432"/>
<path d="M9.96048 6.84927C10.3288 6.11166 11.3814 6.11166 11.7498 6.84927L12.3106 7.97234C12.4572 8.26583 12.7384 8.46877 13.0631 8.5154L14.2976 8.69266C15.1215 8.81097 15.4487 9.82526 14.8492 10.4027L13.9711 11.2486C13.732 11.4788 13.6228 11.8127 13.6796 12.1398L13.8889 13.346C14.0304 14.1613 13.1769 14.7859 12.4426 14.4044L11.3162 13.8191C11.0271 13.669 10.6831 13.669 10.3941 13.8191L9.2676 14.4044C8.53328 14.7859 7.67979 14.1613 7.82129 13.346L8.03064 12.1398C8.0874 11.8127 7.97819 11.4788 7.73913 11.2486L6.86104 10.4027C6.26158 9.82526 6.58877 8.81097 7.41266 8.69266L8.64711 8.5154C8.97184 8.46877 9.25304 8.26583 9.39961 7.97234L9.96048 6.84927Z" fill="#FFD365" stroke="#FFC432"/>
</svg>
