<svg width="259" height="228" viewBox="0 0 259 228" fill="none" xmlns="http://www.w3.org/2000/svg">
<g opacity="0.6">
<path d="M77.766 117.286C51.9919 129.008 31.7521 121.808 9.46095 150.08C-8.72642 173.147 4.24405 210.142 24.0901 228H295.763V141.805C295.763 131.002 295.38 76.722 255.256 35.9001C205.101 -15.1273 163.162 -2.53228 129.88 20.8698C97.0852 43.9287 103.54 105.563 77.766 117.286Z" fill="url(#paint0_linear_6677_25817)"/>
<path opacity="0.8" d="M152.91 53.717C136.648 74.4487 126.664 123.352 158.22 168.853C162.438 174.934 182.921 194.634 189.071 189.234C195.075 183.963 247.832 206.107 265.597 162.913C277.452 134.089 249.882 125.118 239.633 111.62C226.309 94.0727 233.92 61.4344 203.173 43.1201C198.555 40.37 191.026 40.8821 188.079 41.2167C187.267 41.3088 186.448 41.1927 185.675 40.9288C181.485 39.4982 166.693 36.1463 152.91 53.717Z" fill="url(#paint1_linear_6677_25817)"/>
<path d="M141.631 228L159.111 194.873L154.513 142.817C148.696 145.31 143.271 151.982 136.88 161.082C130.488 170.182 121.947 206.922 116.968 228H141.631Z" fill="url(#paint2_linear_6677_25817)"/>
<g opacity="0.3">
<path fill-rule="evenodd" clip-rule="evenodd" d="M155.815 161.138C153.829 160.895 151.987 160.613 150.325 160.286C146.365 159.508 142.663 158.457 139.25 157.241C140.34 155.759 141.406 154.361 142.456 153.057C145.212 153.97 148.163 154.765 151.289 155.38C152.537 155.625 153.9 155.844 155.364 156.04L155.815 161.138ZM157.036 174.95C153.455 174.591 150.287 174.162 147.699 173.653C142.096 172.552 136.925 171.196 132.363 169.731C131.809 171.192 131.249 172.77 130.686 174.444C135.481 175.99 140.892 177.411 146.735 178.559C149.714 179.145 153.373 179.626 157.484 180.017L157.036 174.95ZM158.388 195.708C152.497 195.217 147.417 194.611 143.723 193.885C137.214 192.606 131.287 190.982 126.222 189.243C125.781 190.834 125.344 192.449 124.91 194.079C130.134 195.855 136.173 197.497 142.759 198.791C146.193 199.466 150.696 200.034 155.854 200.506L158.388 195.708ZM148.318 214.773C145 214.346 142.135 213.907 139.876 213.463C132.666 212.046 126.398 210.251 121.266 208.357C120.86 210.005 120.462 211.637 120.073 213.244C125.374 215.166 131.715 216.955 138.912 218.369C140.842 218.748 143.177 219.122 145.829 219.486L148.318 214.773Z" fill="#B9E1C7"/>
</g>
<path d="M202.851 133.686C192.631 132.35 193.835 113.314 193.97 108.743C185.472 112.466 169.698 110.628 169.86 115.956C170.022 121.285 170.553 130.992 167.181 135.629C169.86 139.311 171.194 144.61 180.704 144.61C191.631 144.61 208.389 134.41 202.851 133.686Z" fill="url(#paint3_linear_6677_25817)"/>
<path opacity="0.2" fill-rule="evenodd" clip-rule="evenodd" d="M197.34 131.031C193.276 125.352 193.665 114.208 193.816 109.879C193.826 109.585 193.835 109.323 193.842 109.095C190.331 110.659 185.575 111.255 181.22 111.801C180.373 111.908 179.541 112.012 178.736 112.121C177.281 116.004 175.017 119.963 173.001 122.782C176.23 125.53 185.016 131.191 194.501 131.191C195.434 131.191 196.385 131.134 197.34 131.031Z" fill="url(#paint4_linear_6677_25817)"/>
<mask id="mask0_6677_25817" style="mask-type:alpha" maskUnits="userSpaceOnUse" x="132" y="38" width="137" height="153">
<path d="M149.757 50.4892C133.766 70.9887 121.205 108.837 151.122 153.649C151.853 154.743 153.129 155.4 154.273 156.049C163.299 161.162 184.086 194.884 189.749 189.883C195.73 184.603 248.285 206.784 265.982 163.517C277.791 134.645 250.327 125.659 240.117 112.138C226.845 94.5608 234.426 61.8674 203.797 43.5222C199.276 40.8146 191.954 41.2638 188.916 41.5982C188.013 41.6976 187.107 41.5431 186.278 41.1701C181.458 38.9995 163.636 32.6973 149.757 50.4892Z" fill="url(#paint5_linear_6677_25817)"/>
</mask>
<g mask="url(#mask0_6677_25817)">
<path d="M204.743 81.7786C205.499 72.8579 203.604 54.6752 192.943 44.0031C183.673 34.8193 158.147 28.9209 146.609 48.0675" stroke="url(#paint6_linear_6677_25817)" stroke-width="3"/>
</g>
<path fill-rule="evenodd" clip-rule="evenodd" d="M173.764 62.5952C174.517 65.3682 175.677 68.2226 177.389 70.1524C180.786 73.98 183.127 75.936 183.874 76.4356C179.165 75.2252 172.924 68.0042 171.504 63.9459C171.153 62.9453 170.856 62.0299 170.606 61.2064C168.162 64.1616 163.56 68.9798 161.6 70.5465C161.288 70.7952 160.961 71.0465 160.62 71.3039C160.559 71.5672 160.519 71.7534 160.501 71.8445C160.501 71.4796 155.779 86.7954 155.235 95.0008C154.327 108.129 158.036 119.7 165.996 122.136C171.86 123.932 198.264 128.366 204.074 95.0008C204.074 95.0008 201.635 92.5325 208.535 91.8025C207.732 90.7268 207.532 89.8379 207.372 89.1259C207.097 87.9071 206.939 87.207 204.074 86.9766C201.532 86.7954 199.535 85.8843 197.901 84.4244C195.986 82.8222 194.554 80.594 193.487 78.1983C191.262 77.8229 189.181 77.3496 187.492 76.8039C183.065 75.3731 176.827 67.5542 173.764 62.5952Z" fill="url(#paint7_linear_6677_25817)"/>
<path d="M181.287 90.9133C181.787 90.6234 181.021 88.7907 180.475 88.0608C179.931 87.3309 178.446 87.041 177.261 87.1781C175.588 87.3697 173.621 89.1039 173.861 89.6915C174.075 90.2144 176.211 88.8787 178.139 89.2178C180.062 89.5569 180.784 91.2058 181.284 90.9159L181.287 90.9133Z" fill="#545555"/>
<path d="M166.193 87.3953C166.474 87.0769 165.221 84.1416 162.607 84.2425C160.452 84.3254 158.558 87.2451 158.829 87.315C159.099 87.3849 161.087 85.9639 162.584 86.0933C164.6 86.2641 165.912 87.7162 166.193 87.3978V87.3953Z" fill="#545555"/>
<path d="M160.431 106.475C160.339 106.985 162.553 109.438 165.888 109.438C169.223 109.438 174.067 107.608 173.366 107.238C168.01 104.41 160.634 105.352 160.431 106.475Z" fill="#D2D5D9"/>
<circle cx="203.944" cy="89.9133" r="11.6567" fill="url(#paint8_linear_6677_25817)"/>
<path d="M203.944 92.6033L203.635 94.8381C202.538 102.765 196.822 109.275 189.104 111.388L172.561 115.917" stroke="url(#paint9_linear_6677_25817)" stroke-width="3"/>
<ellipse cx="173.009" cy="115.02" rx="3.13833" ry="2.69" fill="url(#paint10_linear_6677_25817)"/>
<path fill-rule="evenodd" clip-rule="evenodd" d="M202.703 134.611C213.556 135.854 221.799 138.702 234.805 153.333C247.811 167.965 255.533 228.116 255.533 228.116C247.733 228.105 240.034 228.148 232.394 228.223L225.766 199.137L227.544 228.275C218.272 228.383 209.074 228.531 199.87 228.679C182.771 228.954 165.653 229.23 148.014 229.245C148.014 226.305 148.515 223.68 149.052 220.867C149.674 217.612 150.343 214.105 150.339 209.569C150.336 205.749 148.892 202.379 147.373 198.833C145.529 194.53 143.574 189.967 143.946 184.024C144.547 174.421 147.829 161.521 151.999 145.136C152.115 144.68 152.231 144.221 152.349 143.759C152.349 143.759 155.821 141.001 159.615 139.108C163.41 137.215 167.338 135.857 167.338 135.857C168.749 138.675 171.503 143.759 181.687 143.759C196.771 143.759 202.703 135.628 202.703 134.611Z" fill="url(#paint11_linear_6677_25817)"/>
<path opacity="0.3" fill-rule="evenodd" clip-rule="evenodd" d="M164.671 136.864C164.939 137.264 165.217 137.662 165.509 138.057C168.614 142.262 173.065 145.956 181.157 145.956C192.055 145.956 199.928 141.77 206.864 135.207C208.796 135.553 210.671 136.002 212.536 136.622C204.518 144.939 194.99 150.956 181.157 150.956C171.081 150.956 165.271 146.151 161.487 141.027C160.967 140.323 160.483 139.61 160.031 138.904C161.694 138.092 163.354 137.389 164.671 136.864ZM148.572 158.795C148.96 157.197 149.367 155.557 149.788 153.873C156.319 156.764 166.406 159.803 178.479 159.803C187.279 159.803 201.3 157.528 215.429 154.617C221.273 153.413 227.096 152.108 232.519 150.828C233.265 151.622 234.027 152.457 234.806 153.333C235.276 153.862 235.739 154.45 236.195 155.093C230.033 156.572 223.251 158.11 216.438 159.514C202.325 162.422 187.848 164.803 178.479 164.803C166.165 164.803 155.721 161.846 148.572 158.795ZM144.494 178.717C144.715 177.11 144.989 175.429 145.31 173.673C147.625 174.615 150.953 175.578 155.189 176.392C161.517 177.607 169.54 178.425 178.48 178.425C187.312 178.425 202.361 176.305 217.492 173.56C226.337 171.956 235.128 170.153 242.596 168.472C243.144 170.005 243.677 171.599 244.193 173.237C236.531 174.97 227.475 176.831 218.384 178.48C203.269 181.222 187.815 183.425 178.48 183.425C169.251 183.425 160.91 182.581 154.247 181.302C150.507 180.584 147.181 179.708 144.494 178.717ZM148.075 200.484C147.847 199.937 147.611 199.387 147.374 198.833C146.759 197.398 146.132 195.934 145.583 194.4C147.883 195.307 151.117 196.228 155.189 197.01C161.517 198.224 169.54 199.043 178.48 199.043C187.327 199.043 203.555 196.919 219.861 194.173C230.054 192.456 240.171 190.516 248.385 188.741C248.768 190.369 249.136 191.998 249.49 193.617C241.152 195.42 230.934 197.379 220.691 199.104C204.412 201.845 187.8 204.043 178.48 204.043C169.251 204.043 160.91 203.199 154.247 201.92C152.028 201.494 149.955 201.013 148.075 200.484ZM149.131 220.457C149.429 218.892 149.731 217.262 149.959 215.483C151.65 216.006 153.626 216.511 155.881 216.968C161.86 218.178 169.54 218.996 178.479 218.996C187.374 218.996 205.144 217.191 222.945 214.779C224.196 214.61 225.445 214.437 226.69 214.263L226.995 219.269C225.87 219.426 224.743 219.581 223.616 219.734C205.827 222.144 187.751 223.996 178.479 223.996C169.249 223.996 161.233 223.152 154.889 221.868C152.811 221.448 150.882 220.974 149.131 220.457ZM253.566 215.039C246.68 216.308 238.588 217.607 230.249 218.807L229.134 213.916C237.634 212.697 245.829 211.381 252.725 210.11C253.029 211.838 253.31 213.488 253.566 215.039Z" fill="#B9E1C7"/>
<path fill-rule="evenodd" clip-rule="evenodd" d="M42.5601 166.959C39.8928 166.959 37.9727 169.52 38.7206 172.08L55.1853 228.451H56.4198C56.4236 228.451 56.4273 228.451 56.431 228.451H169.273C169.825 228.451 170.273 228.003 170.273 227.451V218.271C170.273 217.718 169.825 217.271 169.273 217.271H136.196L122.342 169.837C121.844 168.131 120.28 166.959 118.502 166.959H42.5601Z" fill="url(#paint12_linear_6677_25817)"/>
<path opacity="0.2" d="M38.7205 172.08C37.9727 169.52 39.8928 166.959 42.5601 166.959H48.2832L74.2865 228.451H55.1852L38.7205 172.08Z" fill="url(#paint13_linear_6677_25817)"/>
<path opacity="0.2" d="M136.156 217.24H163.056L144.226 228H139.743L136.156 217.24Z" fill="url(#paint14_linear_6677_25817)"/>
<ellipse cx="5.49447" cy="7.20897" rx="5.49447" ry="7.20897" transform="matrix(0.798447 -0.602066 0.602915 0.797806 77.7324 194.58)" fill="url(#paint15_linear_6677_25817)"/>
<ellipse cx="207.531" cy="90.3616" rx="8.07" ry="8.51834" fill="url(#paint16_linear_6677_25817)"/>
</g>
<defs>
<linearGradient id="paint0_linear_6677_25817" x1="239.572" y1="0.466435" x2="144.774" y2="271.409" gradientUnits="userSpaceOnUse">
<stop stop-color="#EEF1F3"/>
<stop offset="0.5" stop-color="#F1F9F6"/>
<stop offset="1" stop-color="#F9FBF8"/>
</linearGradient>
<linearGradient id="paint1_linear_6677_25817" x1="243.568" y1="39.7" x2="160.976" y2="197.927" gradientUnits="userSpaceOnUse">
<stop stop-color="#527984"/>
<stop offset="0.5" stop-color="#79C6AA"/>
<stop offset="1" stop-color="#C4DAB5"/>
</linearGradient>
<linearGradient id="paint2_linear_6677_25817" x1="154.654" y1="120.507" x2="79.9698" y2="171.51" gradientUnits="userSpaceOnUse">
<stop stop-color="#515D89"/>
<stop offset="0.52118" stop-color="#7DC9BF"/>
<stop offset="1" stop-color="#FAEBD1"/>
</linearGradient>
<linearGradient id="paint3_linear_6677_25817" x1="186.726" y1="107.24" x2="177.364" y2="137.752" gradientUnits="userSpaceOnUse">
<stop stop-color="#CBD7DA"/>
<stop offset="0.5" stop-color="#D6ECE5"/>
<stop offset="1" stop-color="#ECF3E9"/>
</linearGradient>
<linearGradient id="paint4_linear_6677_25817" x1="185.17" y1="109.095" x2="176.947" y2="131.74" gradientUnits="userSpaceOnUse">
<stop offset="0.00458717" stop-color="#4FB573"/>
<stop offset="1" stop-color="#B9E1C7"/>
</linearGradient>
<linearGradient id="paint5_linear_6677_25817" x1="242.991" y1="38.2993" x2="160.425" y2="200.297" gradientUnits="userSpaceOnUse">
<stop offset="0.0242697" stop-color="#527984"/>
<stop offset="0.5" stop-color="#79C6AA"/>
<stop offset="1" stop-color="#C4DAB5"/>
</linearGradient>
<linearGradient id="paint6_linear_6677_25817" x1="190.32" y1="44.0963" x2="159.037" y2="88.9257" gradientUnits="userSpaceOnUse">
<stop stop-color="#515D89"/>
<stop offset="0.52118" stop-color="#7DC9BF"/>
<stop offset="1" stop-color="#FAEBD1"/>
</linearGradient>
<linearGradient id="paint7_linear_6677_25817" x1="183.509" y1="58.6004" x2="164.835" y2="109.637" gradientUnits="userSpaceOnUse">
<stop stop-color="#CBD7DA"/>
<stop offset="0.5" stop-color="#D6ECE5"/>
<stop offset="1" stop-color="#ECF3E9"/>
</linearGradient>
<linearGradient id="paint8_linear_6677_25817" x1="209.772" y1="82.6278" x2="193.161" y2="101.57" gradientUnits="userSpaceOnUse">
<stop stop-color="#515D89"/>
<stop offset="0.52118" stop-color="#7DC9BF"/>
<stop offset="1" stop-color="#FAEBD1"/>
</linearGradient>
<linearGradient id="paint9_linear_6677_25817" x1="197.966" y1="92.6033" x2="188.537" y2="120.585" gradientUnits="userSpaceOnUse">
<stop stop-color="#527984"/>
<stop offset="0.5" stop-color="#79C6AA"/>
<stop offset="1" stop-color="#C4DAB5"/>
</linearGradient>
<linearGradient id="paint10_linear_6677_25817" x1="174.579" y1="113.339" x2="170.865" y2="118.28" gradientUnits="userSpaceOnUse">
<stop stop-color="#515D89"/>
<stop offset="0.52118" stop-color="#7DC9BF"/>
<stop offset="1" stop-color="#FAEBD1"/>
</linearGradient>
<linearGradient id="paint11_linear_6677_25817" x1="227.625" y1="152.355" x2="162.501" y2="239.96" gradientUnits="userSpaceOnUse">
<stop stop-color="#515D89"/>
<stop offset="0.52118" stop-color="#7DC9BF"/>
<stop offset="1" stop-color="#FAEBD1"/>
</linearGradient>
<linearGradient id="paint12_linear_6677_25817" x1="108.583" y1="164.381" x2="100.357" y2="220.41" gradientUnits="userSpaceOnUse">
<stop stop-color="#CBD7DA"/>
<stop offset="0.5" stop-color="#D6ECE5"/>
<stop offset="1" stop-color="#ECF3E9"/>
</linearGradient>
<linearGradient id="paint13_linear_6677_25817" x1="67.2271" y1="166.959" x2="27.7382" y2="219.425" gradientUnits="userSpaceOnUse">
<stop stop-color="#527984"/>
<stop offset="0.5" stop-color="#79C6AA"/>
<stop offset="1" stop-color="#C4DAB5"/>
</linearGradient>
<linearGradient id="paint14_linear_6677_25817" x1="157.932" y1="217.24" x2="155.406" y2="231.163" gradientUnits="userSpaceOnUse">
<stop stop-color="#527984"/>
<stop offset="0.5" stop-color="#79C6AA"/>
<stop offset="1" stop-color="#C4DAB5"/>
</linearGradient>
<linearGradient id="paint15_linear_6677_25817" x1="8.2417" y1="2.70336" x2="-2.01873" y2="11.6211" gradientUnits="userSpaceOnUse">
<stop stop-color="#515D89"/>
<stop offset="0.52118" stop-color="#7DC9BF"/>
<stop offset="1" stop-color="#FAEBD1"/>
</linearGradient>
<linearGradient id="paint16_linear_6677_25817" x1="211.566" y1="85.0376" x2="199.359" y2="98.2253" gradientUnits="userSpaceOnUse">
<stop stop-color="#515D89"/>
<stop offset="0.52118" stop-color="#7DC9BF"/>
<stop offset="1" stop-color="#FAEBD1"/>
</linearGradient>
</defs>
</svg>
