<svg width="169" height="114" viewBox="0 0 169 114" fill="none" xmlns="http://www.w3.org/2000/svg">
<g clip-path="url(#clip0_6679_24635)">
<path d="M55.1391 44.4435C38.9465 51.8082 26.2308 47.2843 12.2263 65.0463C0.800044 79.5383 8.94878 102.78 21.4171 114H192.096V59.8476C192.096 53.0606 191.856 18.9592 166.648 -6.6873C135.138 -38.7454 108.79 -30.8326 87.8798 -16.1301C67.2765 -1.64333 71.3318 37.0788 55.1391 44.4435Z" fill="white"/>
<g opacity="0.6">
<path d="M55.1391 44.4435C38.9465 51.8082 26.2308 47.2843 12.2263 65.0463C0.800044 79.5383 8.94878 102.78 21.4171 114H192.096V59.8476C192.096 53.0606 191.856 18.9592 166.648 -6.6873C135.138 -38.7454 108.79 -30.8326 87.8798 -16.1301C67.2765 -1.64333 71.3318 37.0788 55.1391 44.4435Z" fill="url(#paint0_linear_6679_24635)"/>
<path opacity="0.8" d="M102.349 4.5062C92.1323 17.5309 85.8595 48.2545 105.685 76.8409C108.335 80.6614 121.204 93.0375 125.067 89.6454C128.839 86.3335 161.984 100.246 173.145 73.109C180.593 55.0003 163.272 49.3643 156.833 40.8841C148.462 29.8598 153.244 9.3547 133.927 -2.15131C131.244 -3.74937 126.996 -3.59412 124.908 -3.39546C124.095 -3.31811 123.273 -3.43511 122.491 -3.66976C119.376 -4.60418 110.576 -5.98202 102.349 4.5062Z" fill="url(#paint1_linear_6679_24635)"/>
<path d="M95.2621 114L106.244 93.1879L103.355 60.4833C99.7011 62.0495 96.2928 66.2415 92.2773 71.9587C88.2619 77.6758 82.8956 100.758 79.7676 114H95.2621Z" fill="url(#paint2_linear_6679_24635)"/>
<g opacity="0.3">
<path fill-rule="evenodd" clip-rule="evenodd" d="M104.258 72.9397C102.913 72.7793 101.667 72.5907 100.546 72.3704C97.9119 71.8528 95.4551 71.1463 93.1968 70.3283C94.3047 68.795 95.3705 67.3924 96.4136 66.1455C98.0112 66.6608 99.7129 67.111 101.51 67.4642C102.216 67.603 102.985 67.7286 103.807 67.8419L104.258 72.9397ZM104.858 79.729C102.708 79.51 100.808 79.2497 99.2542 78.9444C95.7896 78.2636 92.5941 77.4264 89.7771 76.5241C89.2249 77.9147 88.6615 79.503 88.0939 81.235C91.1449 82.2193 94.5831 83.1221 98.2902 83.8506C100.235 84.2328 102.626 84.5447 105.306 84.7959L104.858 79.729ZM106.014 92.7985C102.279 92.49 99.0702 92.1096 96.7566 91.6549C92.6839 90.8547 88.9832 89.8382 85.832 88.7541C85.39 90.3304 84.9513 91.9508 84.5192 93.5893C87.8293 94.7116 91.6424 95.7456 95.7925 96.5611C97.8973 96.9747 100.621 97.3246 103.729 97.6162L106.051 93.2203L106.014 92.7985ZM99.9279 104.812C97.7162 104.533 95.8159 104.245 94.3394 103.955C89.8073 103.064 85.8835 101.935 82.6927 100.751C82.2821 102.409 81.8833 104.047 81.5 105.639C84.8594 106.85 88.8563 107.973 93.3754 108.861C94.5229 109.087 95.8924 109.309 97.4385 109.525L99.9279 104.812Z" fill="#B9E1C7"/>
</g>
<path d="M133.724 54.7468C127.304 53.9077 128.06 41.9485 128.145 39.0767C122.806 41.4152 112.896 40.2606 112.998 43.6084C113.099 46.9561 113.433 53.0546 111.314 55.9675C112.998 58.2812 113.836 61.61 119.811 61.61C126.675 61.61 137.204 55.2015 133.724 54.7468Z" fill="url(#paint3_linear_6679_24635)"/>
<path opacity="0.2" fill-rule="evenodd" clip-rule="evenodd" d="M130.262 53.079C127.709 49.5111 127.953 42.5102 128.048 39.7903C128.054 39.6056 128.06 39.4406 128.064 39.2979C125.859 40.2804 122.871 40.6549 120.134 40.998C119.602 41.0647 119.079 41.1302 118.574 41.1988C117.659 43.6385 116.237 46.1255 114.971 47.8965C116.999 49.6229 122.519 53.1793 128.478 53.1793C129.064 53.1793 129.662 53.1439 130.262 53.079Z" fill="url(#paint4_linear_6679_24635)"/>
<mask id="mask0_6679_24635" style="mask-type:alpha" maskUnits="userSpaceOnUse" x="89" y="-6" width="87" height="97">
<path d="M100.368 2.47841C90.3988 15.2579 82.5518 38.7695 100.795 66.6384C101.516 67.7387 102.794 68.4509 103.859 69.2215C109.823 73.5339 122.065 93.0792 125.493 90.053C129.25 86.7356 162.268 100.671 173.386 73.4887C180.805 55.3494 163.551 49.704 157.137 41.2094C148.798 30.1665 153.561 9.6268 134.318 -1.89864C131.71 -3.46079 127.617 -3.35037 125.488 -3.15919C124.584 -3.07795 123.668 -3.23682 122.829 -3.58537C119.23 -5.08069 108.675 -8.17076 100.368 2.47841Z" fill="url(#paint5_linear_6679_24635)"/>
</mask>
<g mask="url(#mask0_6679_24635)">
<path d="M134.912 22.136C135.387 16.5316 134.197 5.10823 127.499 -1.59654C121.675 -7.36629 105.638 -11.072 98.3896 0.956898" stroke="url(#paint6_linear_6679_24635)" stroke-width="3"/>
</g>
<path fill-rule="evenodd" clip-rule="evenodd" d="M115.45 10.0839C115.923 11.8261 116.652 13.6193 117.728 14.8317C119.861 17.2364 121.333 18.4653 121.801 18.7792C118.843 18.0188 114.922 13.4822 114.03 10.9325C113.81 10.3038 113.623 9.72879 113.466 9.21142C111.931 11.068 109.039 14.0951 107.808 15.0793C107.612 15.2356 107.406 15.3935 107.192 15.5552C107.154 15.7206 107.129 15.8376 107.117 15.8948C107.117 15.6655 104.151 25.2878 103.809 30.4428C103.239 38.6909 105.569 45.96 110.57 47.4903C114.254 48.6189 130.842 51.4045 134.492 30.4428C134.492 30.4428 132.96 28.8921 137.295 28.4335C136.791 27.7577 136.665 27.1992 136.564 26.7519C136.391 25.9862 136.292 25.5464 134.492 25.4016C132.896 25.2878 131.641 24.7154 130.614 23.7982C129.411 22.7916 128.511 21.3917 127.841 19.8866C126.443 19.6507 125.136 19.3534 124.075 19.0106C121.293 18.1117 117.374 13.1994 115.45 10.0839Z" fill="url(#paint7_linear_6679_24635)"/>
<path d="M120.177 27.8749C120.491 27.6928 120.01 26.5414 119.667 26.0828C119.325 25.6242 118.392 25.4421 117.647 25.5283C116.597 25.6486 115.361 26.7382 115.512 27.1073C115.646 27.4358 116.988 26.5967 118.2 26.8097C119.408 27.0228 119.861 28.0587 120.175 27.8765L120.177 27.8749Z" fill="#545555"/>
<path d="M110.693 25.6647C110.87 25.4647 110.083 23.6205 108.441 23.684C107.087 23.736 105.897 25.5704 106.067 25.6143C106.237 25.6582 107.486 24.7654 108.426 24.8467C109.693 24.954 110.517 25.8663 110.693 25.6663V25.6647Z" fill="#545555"/>
<path d="M107.074 37.6515C107.016 37.9719 108.407 39.5134 110.502 39.5134C112.597 39.5134 115.641 38.3631 115.2 38.131C111.835 36.354 107.201 36.9463 107.074 37.6515Z" fill="#D2D5D9"/>
<ellipse cx="134.411" cy="27.2467" rx="7.32334" ry="7.32333" fill="url(#paint8_linear_6679_24635)"/>
<path d="M134.411 28.9366V28.9366C133.604 34.7685 129.399 39.5581 123.721 41.1125L114.694 43.5833" stroke="url(#paint9_linear_6679_24635)" stroke-width="3"/>
<ellipse cx="114.976" cy="43.02" rx="1.97166" ry="1.69" fill="url(#paint10_linear_6679_24635)"/>
<path fill-rule="evenodd" clip-rule="evenodd" d="M133.631 55.3284C140.45 56.1088 145.629 57.8981 153.8 67.0903C161.971 76.2826 166.822 114.073 166.822 114.073C161.921 114.066 157.085 114.093 152.285 114.14L148.121 95.8671L149.238 114.173C143.413 114.24 137.634 114.334 131.852 114.427C121.109 114.6 110.355 114.773 99.273 114.782C99.273 112.935 99.5878 111.286 99.9252 109.519C100.315 107.474 100.736 105.271 100.734 102.421C100.732 100.021 99.8246 97.9035 98.87 95.6755C97.7118 92.9722 96.4837 90.1056 96.7173 86.3717C97.0948 80.3389 99.1569 72.2346 101.776 61.9404C101.849 61.6538 101.922 61.3654 101.996 61.0754C101.996 61.0754 104.178 59.3427 106.562 58.1534C108.945 56.9641 111.413 56.1107 111.413 56.1107C112.299 57.8815 114.03 61.0754 120.428 61.0754C129.905 61.0754 133.631 55.9669 133.631 55.3284Z" fill="url(#paint11_linear_6679_24635)"/>
<path opacity="0.3" fill-rule="evenodd" clip-rule="evenodd" d="M110.626 56.3982C110.75 56.58 110.879 56.761 111.012 56.941C112.836 59.412 115.38 61.5261 120.095 61.5261C126.362 61.5261 130.972 59.2416 135.08 55.5149C137.051 55.8009 138.905 56.2176 140.767 56.9347C135.567 62.4207 129.296 66.5261 120.095 66.5261C113.396 66.5261 109.493 63.3013 106.989 59.911C106.631 59.4261 106.299 58.9342 105.991 58.4499C106.179 58.3483 106.37 58.249 106.562 58.1533C108.117 57.3774 109.708 56.7445 110.626 56.3982ZM99.4017 71.4377C99.7795 69.8646 100.187 68.2237 100.617 66.5144C104.596 68.2974 110.868 70.2257 118.412 70.2257C123.835 70.2257 132.559 68.8163 141.439 66.9865C144.911 66.2711 148.372 65.4989 151.618 64.7371C152.322 65.4622 153.049 66.2449 153.8 67.0902C154.286 67.6369 154.76 68.2847 155.222 69.0196C151.253 69.9753 146.861 70.9742 142.448 71.8836C133.584 73.7101 124.404 75.2257 118.412 75.2257C110.628 75.2257 104.001 73.3805 99.4017 71.4377ZM96.9395 83.9822C97.1267 82.4191 97.4015 80.7374 97.7487 78.9357C99.0997 79.5054 101.177 80.1309 103.956 80.6642C107.868 81.4154 112.85 81.9252 118.413 81.9252C123.868 81.9252 133.247 80.6087 142.756 78.8837C148.258 77.8857 153.722 76.7661 158.373 75.7211C158.931 77.2187 159.465 78.8194 159.974 80.4856C155.128 81.5825 149.398 82.7605 143.649 83.8034C134.155 85.5256 124.371 86.9252 118.413 86.9252C112.561 86.9252 107.262 86.3903 103.013 85.5746C100.745 85.1391 98.67 84.6045 96.9395 83.9822ZM99.7442 97.7938C99.4765 97.0904 99.1758 96.3886 98.8703 95.6754C98.3304 94.4154 97.7754 93.1199 97.3603 91.7176C98.6857 92.3309 100.896 93.0301 103.956 93.6176C107.868 94.3687 112.85 94.8785 118.413 94.8785C123.883 94.8785 134.007 93.5575 144.256 91.8316C150.647 90.7554 156.98 89.5403 162.116 88.4309C162.507 90.0592 162.876 91.6943 163.222 93.3073C158.812 94.2608 153.576 95.2816 148.203 96.2258L148.121 95.867L148.143 96.2363C147.128 96.4146 146.107 96.5902 145.086 96.7621C134.864 98.4835 124.356 99.8785 118.413 99.8785C112.561 99.8785 107.262 99.3436 103.013 98.5279C101.868 98.308 100.772 98.0628 99.7442 97.7938ZM99.8002 110.178C99.8412 109.96 99.8831 109.74 99.9254 109.519C100.179 108.189 100.446 106.793 100.6 105.195C101.655 105.529 102.921 105.859 104.399 106.158C108.088 106.904 112.851 107.414 118.412 107.414C123.931 107.414 135.038 106.288 146.223 104.773C147.032 104.663 147.84 104.552 148.644 104.439L148.949 109.445C148.265 109.541 147.58 109.635 146.895 109.728C135.721 111.242 124.308 112.414 118.412 112.414C112.56 112.414 107.461 111.879 103.407 111.059C102.122 110.798 100.912 110.504 99.8002 110.178ZM165.736 106.774C161.414 107.571 156.351 108.384 151.144 109.134L150.029 104.242C155.397 103.474 160.562 102.644 164.895 101.845C165.214 103.623 165.495 105.284 165.736 106.774Z" fill="#B9E1C7"/>
<path fill-rule="evenodd" clip-rule="evenodd" d="M35.0045 75.6506C32.3372 75.6506 30.4171 78.2118 31.1649 80.7721L40.9528 114.283H42.0993C42.1019 114.283 42.1046 114.283 42.1072 114.283H112.257C112.809 114.283 113.257 113.836 113.257 113.283V108.259C113.257 107.707 112.809 107.259 112.257 107.259H91.8482L83.4568 78.5292C82.9585 76.8232 81.3944 75.6506 79.6172 75.6506H35.0045Z" fill="url(#paint12_linear_6679_24635)"/>
<path opacity="0.2" d="M31.1648 80.7721C30.417 78.2118 32.3371 75.6506 35.0044 75.6506H36.6165L52.9532 114.283H40.9527L31.1648 80.7721Z" fill="url(#paint13_linear_6679_24635)"/>
<path opacity="0.2" d="M91.8232 107.24H108.723L96.8932 114H94.0766L91.8232 107.24Z" fill="url(#paint14_linear_6679_24635)"/>
<ellipse cx="3.45192" cy="4.52906" rx="3.45192" ry="4.52906" transform="matrix(0.798446 -0.602066 0.602914 0.797806 55.1182 93.004)" fill="url(#paint15_linear_6679_24635)"/>
<ellipse cx="136.664" cy="27.5283" rx="5.07" ry="5.35167" fill="url(#paint16_linear_6679_24635)"/>
</g>
<path d="M80.5144 45.6963C80.8281 44.8061 82.087 44.8061 82.4007 45.6963L82.8263 46.9041C82.9233 47.1792 83.1355 47.3982 83.4073 47.5038L84.6918 48.0029C85.5423 48.3333 85.5423 49.5367 84.6918 49.8671L83.4073 50.3662C83.1355 50.4718 82.9233 50.6909 82.8263 50.9659L82.4007 52.1738C82.087 53.0639 80.8281 53.0639 80.5144 52.1738L80.0888 50.9659C79.9918 50.6909 79.7796 50.4718 79.5078 50.3662L78.2233 49.8671C77.3728 49.5367 77.3728 48.3333 78.2233 48.0029L79.5078 47.5038C79.7796 47.3982 79.9918 47.1792 80.0888 46.9041L80.5144 45.6963Z" fill="url(#paint17_linear_6679_24635)"/>
<path d="M69.2591 58.9323C69.59 58.0829 70.7919 58.0829 71.1228 58.9323L71.5457 60.0182C71.6516 60.2899 71.8708 60.5019 72.1459 60.5986L73.1406 60.9483C74.0317 61.2616 74.0317 62.5218 73.1406 62.8351L72.1459 63.1848C71.8708 63.2815 71.6516 63.4935 71.5457 63.7652L71.1228 64.8511C70.7919 65.7005 69.59 65.7005 69.2591 64.8511L68.8362 63.7652C68.7303 63.4935 68.5111 63.2815 68.236 63.1848L67.2413 62.8351C66.3502 62.5218 66.3502 61.2616 67.2413 60.9483L68.236 60.5986C68.5111 60.5019 68.7303 60.2899 68.8362 60.0182L69.2591 58.9323Z" fill="url(#paint18_linear_6679_24635)"/>
</g>
<defs>
<linearGradient id="paint0_linear_6679_24635" x1="156.794" y1="-28.9486" x2="97.2373" y2="141.272" gradientUnits="userSpaceOnUse">
<stop stop-color="#EEF1F3"/>
<stop offset="0.5" stop-color="#F1F9F6"/>
<stop offset="1" stop-color="#F9FBF8"/>
</linearGradient>
<linearGradient id="paint1_linear_6679_24635" x1="159.305" y1="-4.30005" x2="107.417" y2="95.1063" gradientUnits="userSpaceOnUse">
<stop stop-color="#527984"/>
<stop offset="0.5" stop-color="#79C6AA"/>
<stop offset="1" stop-color="#C4DAB5"/>
</linearGradient>
<linearGradient id="paint2_linear_6679_24635" x1="103.444" y1="46.467" x2="56.5235" y2="78.51" gradientUnits="userSpaceOnUse">
<stop stop-color="#515D89"/>
<stop offset="0.52118" stop-color="#7DC9BF"/>
<stop offset="1" stop-color="#FAEBD1"/>
</linearGradient>
<linearGradient id="paint3_linear_6679_24635" x1="123.594" y1="38.1322" x2="117.712" y2="57.3015" gradientUnits="userSpaceOnUse">
<stop stop-color="#CBD7DA"/>
<stop offset="0.5" stop-color="#D6ECE5"/>
<stop offset="1" stop-color="#ECF3E9"/>
</linearGradient>
<linearGradient id="paint4_linear_6679_24635" x1="122.616" y1="39.2979" x2="117.45" y2="53.5244" gradientUnits="userSpaceOnUse">
<stop offset="0.00458717" stop-color="#4FB573"/>
<stop offset="1" stop-color="#B9E1C7"/>
</linearGradient>
<linearGradient id="paint5_linear_6679_24635" x1="158.942" y1="-5.17993" x2="107.07" y2="96.5957" gradientUnits="userSpaceOnUse">
<stop offset="0.0242697" stop-color="#527984"/>
<stop offset="0.5" stop-color="#79C6AA"/>
<stop offset="1" stop-color="#C4DAB5"/>
</linearGradient>
<linearGradient id="paint6_linear_6679_24635" x1="125.851" y1="-1.53799" x2="106.197" y2="26.6262" gradientUnits="userSpaceOnUse">
<stop stop-color="#515D89"/>
<stop offset="0.52118" stop-color="#7DC9BF"/>
<stop offset="1" stop-color="#FAEBD1"/>
</linearGradient>
<linearGradient id="paint7_linear_6679_24635" x1="121.572" y1="7.5742" x2="109.84" y2="39.6378" gradientUnits="userSpaceOnUse">
<stop stop-color="#CBD7DA"/>
<stop offset="0.5" stop-color="#D6ECE5"/>
<stop offset="1" stop-color="#ECF3E9"/>
</linearGradient>
<linearGradient id="paint8_linear_6679_24635" x1="138.073" y1="22.6696" x2="127.637" y2="34.57" gradientUnits="userSpaceOnUse">
<stop stop-color="#515D89"/>
<stop offset="0.52118" stop-color="#7DC9BF"/>
<stop offset="1" stop-color="#FAEBD1"/>
</linearGradient>
<linearGradient id="paint9_linear_6679_24635" x1="130.655" y1="28.9366" x2="124.731" y2="46.5164" gradientUnits="userSpaceOnUse">
<stop stop-color="#527984"/>
<stop offset="0.5" stop-color="#79C6AA"/>
<stop offset="1" stop-color="#C4DAB5"/>
</linearGradient>
<linearGradient id="paint10_linear_6679_24635" x1="115.961" y1="41.9637" x2="113.628" y2="45.068" gradientUnits="userSpaceOnUse">
<stop stop-color="#515D89"/>
<stop offset="0.52118" stop-color="#7DC9BF"/>
<stop offset="1" stop-color="#FAEBD1"/>
</linearGradient>
<linearGradient id="paint11_linear_6679_24635" x1="149.289" y1="66.476" x2="108.374" y2="121.514" gradientUnits="userSpaceOnUse">
<stop stop-color="#515D89"/>
<stop offset="0.52118" stop-color="#7DC9BF"/>
<stop offset="1" stop-color="#FAEBD1"/>
</linearGradient>
<linearGradient id="paint12_linear_6679_24635" x1="74.7324" y1="74.0313" x2="69.5346" y2="109.223" gradientUnits="userSpaceOnUse">
<stop stop-color="#CBD7DA"/>
<stop offset="0.5" stop-color="#D6ECE5"/>
<stop offset="1" stop-color="#ECF3E9"/>
</linearGradient>
<linearGradient id="paint13_linear_6679_24635" x1="48.5181" y1="75.6506" x2="23.7091" y2="108.613" gradientUnits="userSpaceOnUse">
<stop stop-color="#527984"/>
<stop offset="0.5" stop-color="#79C6AA"/>
<stop offset="1" stop-color="#C4DAB5"/>
</linearGradient>
<linearGradient id="paint14_linear_6679_24635" x1="105.504" y1="107.24" x2="103.917" y2="115.987" gradientUnits="userSpaceOnUse">
<stop stop-color="#527984"/>
<stop offset="0.5" stop-color="#79C6AA"/>
<stop offset="1" stop-color="#C4DAB5"/>
</linearGradient>
<linearGradient id="paint15_linear_6679_24635" x1="5.17787" y1="1.6984" x2="-1.26827" y2="7.30102" gradientUnits="userSpaceOnUse">
<stop stop-color="#515D89"/>
<stop offset="0.52118" stop-color="#7DC9BF"/>
<stop offset="1" stop-color="#FAEBD1"/>
</linearGradient>
<linearGradient id="paint16_linear_6679_24635" x1="139.199" y1="24.1835" x2="131.53" y2="32.4687" gradientUnits="userSpaceOnUse">
<stop stop-color="#515D89"/>
<stop offset="0.52118" stop-color="#7DC9BF"/>
<stop offset="1" stop-color="#FAEBD1"/>
</linearGradient>
<linearGradient id="paint17_linear_6679_24635" x1="78.4084" y1="42.8728" x2="88.0189" y2="49.1975" gradientUnits="userSpaceOnUse">
<stop offset="0.447472" stop-color="#FFECBC"/>
<stop offset="1" stop-color="#ECD59F"/>
</linearGradient>
<linearGradient id="paint18_linear_6679_24635" x1="67.1418" y1="56.4069" x2="76.1491" y2="62.9585" gradientUnits="userSpaceOnUse">
<stop offset="0.447472" stop-color="#FFECBC"/>
<stop offset="1" stop-color="#ECD59F"/>
</linearGradient>
<clipPath id="clip0_6679_24635">
<path d="M0 -55H169V110C169 112.209 167.209 114 165 114H0V-55Z" fill="white"/>
</clipPath>
</defs>
</svg>
