<svg width="21" height="20" viewBox="0 0 21 20" fill="none" xmlns="http://www.w3.org/2000/svg">
<g clip-path="url(#clip0_9650_63810)">
<path fill-rule="evenodd" clip-rule="evenodd" d="M10.4987 2.33334C8.13112 2.33334 6.0009 3.36271 4.61012 4.995C2.19531 5.31357 0.332031 7.37949 0.332031 9.88096C0.332031 12.6029 2.53863 14.8095 5.2606 14.8095C5.35254 14.8095 5.44396 14.807 5.53481 14.802C6.86676 15.8981 8.60628 16.5556 10.4987 16.5556C12.0128 16.5556 13.4289 16.1347 14.6167 15.4052C15.1024 15.5847 15.6272 15.6826 16.1733 15.6826C18.6542 15.6826 20.6654 13.6714 20.6654 11.1905C20.6654 9.1911 19.3599 7.49829 17.5551 6.91523C16.4626 4.20724 13.6883 2.33334 10.4987 2.33334ZM5.92422 6.55301C6.91624 5.22429 8.58436 4.33334 10.4987 4.33334C13.0748 4.33334 15.1877 5.94024 15.8366 8.04742C15.9468 8.40526 16.2477 8.67156 16.6162 8.73749C17.7812 8.94589 18.6654 9.96596 18.6654 11.1905C18.6654 12.5668 17.5496 13.6826 16.1733 13.6826C15.7448 13.6826 15.3443 13.5752 14.9944 13.3868C14.6559 13.2046 14.2429 13.2325 13.9321 13.4587C12.9918 14.1426 11.8017 14.5556 10.4987 14.5556C8.94348 14.5556 7.5493 13.9673 6.54888 13.0325C6.32462 12.8229 6.01656 12.728 5.71324 12.7749C5.56626 12.7976 5.41515 12.8095 5.2606 12.8095C3.6432 12.8095 2.33203 11.4984 2.33203 9.88096C2.33203 8.29811 3.58811 7.00822 5.15734 6.95417C5.46059 6.94372 5.74269 6.79615 5.92422 6.55301ZM8.37917 10.5904C8.32258 10.5479 8.25893 10.5372 8.1882 10.5585C7.97954 10.6188 7.76382 10.6489 7.54102 10.6489C7.25103 10.6489 7.01939 10.5497 6.8461 10.3511C6.67281 10.1489 6.58617 9.86349 6.58617 9.49469C6.58617 9.1188 6.66574 8.83512 6.82488 8.64363C6.98402 8.44859 7.20505 8.35107 7.48797 8.35107C7.70016 8.35107 7.91589 8.38299 8.13515 8.44682C8.20588 8.4681 8.26954 8.45746 8.32612 8.4149C8.38624 8.3688 8.4163 8.30852 8.4163 8.23405V7.93618C8.4163 7.84398 8.38801 7.76242 8.33143 7.6915C8.27838 7.62058 8.20765 7.57802 8.11924 7.56384C7.87875 7.52129 7.62413 7.50001 7.35535 7.50001C6.7683 7.50001 6.31209 7.67377 5.98673 8.02129C5.66138 8.3688 5.4987 8.85994 5.4987 9.49469C5.4987 10.1436 5.66668 10.6383 6.00265 10.9787C6.33861 11.3192 6.8072 11.4894 7.4084 11.4894C7.67717 11.4894 7.9318 11.4681 8.17228 11.4255C8.2607 11.4114 8.33143 11.3688 8.38447 11.2979C8.44106 11.227 8.46935 11.1454 8.46935 11.0532V10.766C8.46935 10.6915 8.43929 10.633 8.37917 10.5904ZM10.7848 7.50001C10.2119 7.50001 9.7592 7.67732 9.42677 8.03193C9.09434 8.38654 8.92812 8.87412 8.92812 9.49469C8.92812 10.1153 9.09434 10.6028 9.42677 10.9575C9.7592 11.3121 10.2119 11.4894 10.7848 11.4894C11.3577 11.4894 11.8104 11.3121 12.1428 10.9575C12.4752 10.6028 12.6414 10.1153 12.6414 9.49469C12.6414 8.87412 12.4752 8.38654 12.1428 8.03193C11.8104 7.67732 11.3577 7.50001 10.7848 7.50001ZM10.7848 10.6117C10.272 10.6117 10.0156 10.2394 10.0156 9.49469C10.0156 8.75001 10.272 8.37767 10.7848 8.37767C11.2976 8.37767 11.554 8.75001 11.554 9.49469C11.554 10.2394 11.2976 10.6117 10.7848 10.6117ZM15.2568 11.8192C15.3219 11.8192 15.3785 11.8433 15.4266 11.8915C15.4747 11.9397 15.4987 11.9965 15.4987 12.0617V12.2575C15.4987 12.3227 15.4747 12.3794 15.4266 12.4277C15.3785 12.4759 15.3219 12.5 15.2568 12.5H13.5338C13.4688 12.5 13.4122 12.4759 13.3641 12.4277C13.316 12.3794 13.2919 12.3227 13.2919 12.2575V12.0617C13.2919 11.9028 13.3556 11.7738 13.4829 11.6745C13.9497 11.317 14.2539 11.0532 14.3953 10.883C14.5368 10.7099 14.6075 10.5397 14.6075 10.3724C14.6075 10.1596 14.4873 10.0532 14.2468 10.0532C14.077 10.0532 13.8564 10.1014 13.5848 10.1979C13.5282 10.2177 13.4758 10.2121 13.4277 10.1809C13.3796 10.1468 13.3556 10.1014 13.3556 10.0447V9.76384C13.3556 9.69008 13.3768 9.62483 13.4192 9.5681C13.4617 9.50852 13.5169 9.47022 13.5848 9.4532C13.862 9.38512 14.1251 9.35107 14.3741 9.35107C14.7277 9.35107 14.9993 9.43476 15.1889 9.60214C15.3813 9.76668 15.4775 9.99505 15.4775 10.2872C15.4775 10.5199 15.4039 10.7411 15.2568 10.9511C15.1125 11.161 14.8268 11.4461 14.3996 11.8064C14.3967 11.8092 14.3953 11.8121 14.3953 11.8149C14.3953 11.8177 14.3967 11.8192 14.3996 11.8192H15.2568Z" fill="white"/>
</g>
<defs>
<clipPath id="clip0_9650_63810">
<rect width="20" height="20" fill="white" transform="translate(0.5)"/>
</clipPath>
</defs>
</svg>
