<svg width="25" height="24" viewBox="0 0 25 24" fill="none" xmlns="http://www.w3.org/2000/svg">
<path fill-rule="evenodd" clip-rule="evenodd" d="M13 1C10.3096 1 7.89368 2.17871 6.32936 4.04053C3.60783 4.37157 1.5 6.68945 1.5 9.5C1.5 12.5376 3.96243 15 7 15C7.12175 15 7.24268 14.996 7.36268 14.9882C8.86803 16.2442 10.8454 17 13 17C13.5927 17 14.172 16.9428 14.7317 16.8338L14.9513 16.6142C15.317 16.2484 15.8601 16.1681 16.3037 16.3732C16.3696 16.3471 16.435 16.3202 16.5 16.2925V14.0563C15.4931 14.6519 14.2935 15 13 15C11.1816 15 9.54916 14.3121 8.37636 13.2162C8.1521 13.0067 7.84404 12.9117 7.54072 12.9586C7.36505 12.9858 7.18452 13 7 13C5.067 13 3.5 11.433 3.5 9.5C3.5 7.60826 5.00116 6.06672 6.87671 6.00212C7.17996 5.99167 7.46206 5.84411 7.64359 5.60096C8.80768 4.04177 10.7619 3 13 3C16.0106 3 18.4901 4.87852 19.2533 7.35696C19.3635 7.71479 19.6644 7.9811 20.033 8.04703C21.4355 8.29792 22.5 9.52567 22.5 11C22.5 11.8885 22.1137 12.6868 21.5 13.2361V15.584C23.2659 14.8124 24.5 13.0503 24.5 11C24.5 8.75071 23.0156 6.84985 20.9731 6.22083C19.7629 3.14251 16.6223 1 13 1ZM17.9269 9.25C17.9269 9.11193 18.0389 9 18.1769 9H19.6769C19.815 9 19.9269 9.11193 19.9269 9.25V19.4L21.8564 17.4705C21.954 17.3729 22.1123 17.3729 22.2099 17.4705L23.2706 18.5312C23.3682 18.6288 23.3682 18.7871 23.2706 18.8848L19.1057 23.0496C19.0781 23.0772 19.0457 23.097 19.0112 23.109C18.9198 23.1486 18.8096 23.1311 18.7348 23.0564L14.5732 18.8947C14.4756 18.7971 14.4756 18.6388 14.5732 18.5412L15.6339 17.4805C15.7315 17.3829 15.8898 17.3829 15.9874 17.4805L17.9269 19.42V9.25ZM9.34914 10.205C9.29581 10.165 9.23581 10.155 9.16914 10.175C8.97247 10.2317 8.76914 10.26 8.55914 10.26C8.28581 10.26 8.06747 10.1667 7.90414 9.98C7.74081 9.79 7.65914 9.52167 7.65914 9.175C7.65914 8.82167 7.73414 8.555 7.88414 8.375C8.03414 8.19167 8.24247 8.1 8.50914 8.1C8.70914 8.1 8.91247 8.13 9.11914 8.19C9.18581 8.21 9.24581 8.2 9.29914 8.16C9.35581 8.11667 9.38414 8.06 9.38414 7.99V7.71C9.38414 7.62333 9.35747 7.54667 9.30414 7.48C9.25414 7.41333 9.18747 7.37333 9.10414 7.36C8.87747 7.32 8.63747 7.3 8.38414 7.3C7.83081 7.3 7.40081 7.46333 7.09414 7.79C6.78747 8.11667 6.63414 8.57833 6.63414 9.175C6.63414 9.785 6.79247 10.25 7.10914 10.57C7.42581 10.89 7.86747 11.05 8.43414 11.05C8.68747 11.05 8.92747 11.03 9.15414 10.99C9.23747 10.9767 9.30414 10.9367 9.35414 10.87C9.40747 10.8033 9.43414 10.7267 9.43414 10.64V10.37C9.43414 10.3 9.40581 10.245 9.34914 10.205ZM11.6166 7.3C11.0766 7.3 10.6499 7.46667 10.3366 7.8C10.0232 8.13333 9.86656 8.59167 9.86656 9.175C9.86656 9.75833 10.0232 10.2167 10.3366 10.55C10.6499 10.8833 11.0766 11.05 11.6166 11.05C12.1566 11.05 12.5832 10.8833 12.8966 10.55C13.2099 10.2167 13.3666 9.75833 13.3666 9.175C13.3666 8.59167 13.2099 8.13333 12.8966 7.8C12.5832 7.46667 12.1566 7.3 11.6166 7.3ZM11.6166 10.225C11.1332 10.225 10.8916 9.875 10.8916 9.175C10.8916 8.475 11.1332 8.125 11.6166 8.125C12.0999 8.125 12.3416 8.475 12.3416 9.175C12.3416 9.875 12.0999 10.225 11.6166 10.225ZM15.8317 11.36C15.893 11.36 15.9464 11.3827 15.9917 11.428C16.037 11.4733 16.0597 11.5267 16.0597 11.588V11.772C16.0597 11.8333 16.037 11.8867 15.9917 11.932C15.9464 11.9773 15.893 12 15.8317 12H14.2077C14.1464 12 14.093 11.9773 14.0477 11.932C14.0024 11.8867 13.9797 11.8333 13.9797 11.772V11.588C13.9797 11.4387 14.0397 11.3173 14.1597 11.224C14.5997 10.888 14.8864 10.64 15.0197 10.48C15.153 10.3173 15.2197 10.1573 15.2197 10C15.2197 9.8 15.1064 9.7 14.8797 9.7C14.7197 9.7 14.5117 9.74533 14.2557 9.836C14.2024 9.85467 14.153 9.84933 14.1077 9.82C14.0624 9.788 14.0397 9.74533 14.0397 9.692V9.428C14.0397 9.35867 14.0597 9.29733 14.0997 9.244C14.1397 9.188 14.1917 9.152 14.2557 9.136C14.517 9.072 14.765 9.04 14.9997 9.04C15.333 9.04 15.589 9.11867 15.7677 9.276C15.949 9.43067 16.0397 9.64533 16.0397 9.92C16.0397 10.1387 15.9704 10.3467 15.8317 10.544C15.6957 10.7413 15.4264 11.0093 15.0237 11.348C15.021 11.3507 15.0197 11.3533 15.0197 11.356C15.0197 11.3587 15.021 11.36 15.0237 11.36H15.8317Z" fill="url(#paint0_linear_9426_63573)"/>
<defs>
<linearGradient id="paint0_linear_9426_63573" x1="20.119" y1="1" x2="9.27533" y2="25.8445" gradientUnits="userSpaceOnUse">
<stop stop-color="#527984"/>
<stop offset="0.5" stop-color="#79C6AA"/>
<stop offset="1" stop-color="#C4DAB5"/>
</linearGradient>
</defs>
</svg>
