<svg width="50" height="50" viewBox="0 0 50 50" fill="none" xmlns="http://www.w3.org/2000/svg">
<path fill-rule="evenodd" clip-rule="evenodd" d="M27.35 0.75L44.85 10.35C46.75 11.4 47.95 13.4 47.95 15.6V34.4C47.95 36.6 46.75 38.6 44.85 39.65L27.35 49.25C26.5 49.75 25.5 50 24.5 50C23.5 50 22.5 49.75 21.6 49.25L4.1 39.65C2.2 38.6 1 36.6 1 34.4V15.6C1 13.4 2.2 11.4 4.1 10.35L21.6 0.75C23.4 -0.25 25.55 -0.25 27.35 0.75ZM43.9 37.9C45.2 37.2 45.95 35.85 45.95 34.4V15.6C45.95 14.15 45.15 12.8 43.85 12.1L26.4 2.5C25.8 2.15 25.15 2 24.5 2C23.85 2 23.2 2.15 22.55 2.5L5.05 12.1C3.75 12.8 3 14.15 3 15.6V34.4C3 35.85 3.8 37.2 5.05 37.9L22.55 47.5C23.75 48.15 25.2 48.15 26.4 47.5L43.9 37.9ZM14.45 24.3999H13.95C13.45 24.3999 13 23.9999 13 23.4499V21.5999C13 21.0999 13.4 20.6499 13.95 20.6499H14.45C14.95 20.6499 15.4 21.0999 15.4 21.5999V23.4499C15.4 23.9499 15 24.3999 14.45 24.3999ZM21.75 25.3501H22.25C22.8 25.3501 23.2 24.9001 23.2 24.4001V22.5501C23.25 22.0001 22.8 21.6001 22.25 21.6001H21.75C21.2 21.6001 20.8 22.0501 20.8 22.5501V24.4001C20.8 24.9501 21.25 25.3501 21.75 25.3501ZM14.45 31.0498H13.95C13.45 31.0498 13 30.6498 13 30.0998V28.2498C13 27.7498 13.4 27.2998 13.95 27.2998H14.45C14.95 27.2998 15.4 27.7498 15.4 28.2498V30.0998C15.4 30.5998 15 31.0498 14.45 31.0498ZM21.85 18.25H22.35C22.9 18.25 23.3 17.8 23.3 17.3V15.45C23.3 14.9 22.85 14.5 22.35 14.5H21.85C21.3 14.5 20.9 14.95 20.9 15.45V17.3C20.9 17.8 21.35 18.25 21.85 18.25ZM25.4 10.5C25.9 10.5 26.35 10.9 26.35 11.45V34.7H27.5V36.65H25.85H24.7H8.05001L7.60001 36.6V34.7H8.40001V18.25C8.40001 17.75 8.80001 17.3 9.35001 17.3H17.7V11.45C17.7 10.95 18.1 10.5 18.65 10.5H25.4ZM10.3 34.7H17.7V19.2H10.3V34.7ZM24.4 34.7V20.65V12.4H19.6V18.25V34.7H23.25H24.4ZM21.75 32H22.25C22.8 32 23.2 31.55 23.2 31.05V29.2C23.25 28.65 22.8 28.25 22.25 28.25H21.75C21.2 28.25 20.8 28.7 20.8 29.2V31.05C20.8 31.6 21.25 32 21.75 32ZM32.1061 23.025C32.3561 23.025 32.5561 22.925 32.7561 22.775L34.5061 21.325L36.1561 22.675C36.6061 23.025 37.2061 22.975 37.5561 22.525C37.9061 22.075 37.8561 21.475 37.4061 21.125L35.1061 19.225C34.7561 18.925 34.2061 18.925 33.8061 19.225L31.4561 21.175C31.0061 21.525 30.9561 22.175 31.3061 22.575C31.5061 22.875 31.8061 23.025 32.1061 23.025ZM30.8561 27.7752C31.0561 27.7752 31.2561 27.7252 31.4061 27.6252L34.3561 25.6252L37.1561 27.5752C37.6061 27.8752 38.2561 27.7752 38.5561 27.3252C38.8561 26.8752 38.7561 26.2252 38.3061 25.9252L34.9561 23.5752C34.6061 23.3252 34.1561 23.3252 33.8061 23.5752L30.3061 25.9252C29.8561 26.2252 29.7061 26.8752 30.0561 27.3252C30.2561 27.6252 30.5561 27.7752 30.8561 27.7752ZM34.6061 29.8253L30.6061 32.3253C30.1061 32.6253 29.5061 32.4753 29.1561 31.9753C28.8561 31.4753 29.0061 30.8753 29.4561 30.5753L34.0561 27.7253C34.4061 27.5253 34.8561 27.5253 35.2061 27.7753L39.3061 30.7753C39.7561 31.0753 39.9061 31.7253 39.5561 32.1753C39.3561 32.4253 39.0561 32.5753 38.7561 32.5753C38.5561 32.5753 38.3561 32.5253 38.1561 32.3753L34.6061 29.8253ZM33.7061 32.875C33.7061 32.3227 34.1538 31.875 34.7061 31.875C35.2584 31.875 35.7061 32.3227 35.7061 32.875V35.875C35.7061 36.4273 35.2584 36.875 34.7061 36.875C34.1538 36.875 33.7061 36.4273 33.7061 35.875V32.875Z" fill="url(#paint0_linear_6961_27312)"/>
<defs>
<linearGradient id="paint0_linear_6961_27312" x1="39.0071" y1="9.04192e-07" x2="12.8317" y2="54.1824" gradientUnits="userSpaceOnUse">
<stop stop-color="#527984"/>
<stop offset="0.5" stop-color="#79C6AA"/>
<stop offset="1" stop-color="#C4DAB5"/>
</linearGradient>
</defs>
</svg>
